<?xml version="1.0" encoding="utf-8" standalone="no"?>
<!DOCTYPE svg PUBLIC "-//W3C//DTD SVG 1.1//EN"
  "http://www.w3.org/Graphics/SVG/1.1/DTD/svg11.dtd">
<svg xmlns:xlink="http://www.w3.org/1999/xlink" width="255.6pt" height="370.8pt" viewBox="0 0 255.6 370.8" xmlns="http://www.w3.org/2000/svg" version="1.1">
 <metadata>
  <rdf:RDF xmlns:dc="http://purl.org/dc/elements/1.1/" xmlns:cc="http://creativecommons.org/ns#" xmlns:rdf="http://www.w3.org/1999/02/22-rdf-syntax-ns#">
   <cc:Work>
    <dc:type rdf:resource="http://purl.org/dc/dcmitype/StillImage"/>
    <dc:date>2023-01-13T17:59:39.245337</dc:date>
    <dc:format>image/svg+xml</dc:format>
    <dc:creator>
     <cc:Agent>
      <dc:title>Matplotlib v3.6.3, https://matplotlib.org/</dc:title>
     </cc:Agent>
    </dc:creator>
   </cc:Work>
  </rdf:RDF>
 </metadata>
 <defs>
  <style type="text/css">*{stroke-linejoin: round; stroke-linecap: butt}</style>
 </defs>
 <g id="figure_1">
  <g id="patch_1">
   <path d="M 0 370.8 
L 255.6 370.8 
L 255.6 0 
L 0 0 
z
" style="fill: #ffffff"/>
  </g>
  <g id="axes_1">
   <g id="patch_2">
    <path d="M 105.601374 133.328 
L 226.804091 133.328 
L 226.804091 19.44 
L 105.601374 19.44 
z
" style="fill: #ffffff"/>
   </g>
   <g id="matplotlib.axis_1">
    <g id="xtick_1">
     <g id="line2d_1">
      <defs>
       <path id="ma0e2b55934" d="M 0 0 
L 0 9 
" style="stroke: #1a1a1a; stroke-width: 1.875"/>
      </defs>
      <g>
       <use xlink:href="#ma0e2b55934" x="111.110588" y="133.328" style="fill: #1a1a1a; stroke: #1a1a1a; stroke-width: 1.875"/>
      </g>
     </g>
     <g id="text_1">
      <!-- 0.0005 -->
      <g style="fill: #1a1a1a" transform="translate(82.243323 158.365422) scale(0.165 -0.165)">
       <defs>
        <path id="DejaVuSans-30" d="M 2034 4250 
Q 1547 4250 1301 3770 
Q 1056 3291 1056 2328 
Q 1056 1369 1301 889 
Q 1547 409 2034 409 
Q 2525 409 2770 889 
Q 3016 1369 3016 2328 
Q 3016 3291 2770 3770 
Q 2525 4250 2034 4250 
z
M 2034 4750 
Q 2819 4750 3233 4129 
Q 3647 3509 3647 2328 
Q 3647 1150 3233 529 
Q 2819 -91 2034 -91 
Q 1250 -91 836 529 
Q 422 1150 422 2328 
Q 422 3509 836 4129 
Q 1250 4750 2034 4750 
z
" transform="scale(0.015625)"/>
        <path id="DejaVuSans-2e" d="M 684 794 
L 1344 794 
L 1344 0 
L 684 0 
L 684 794 
z
" transform="scale(0.015625)"/>
        <path id="DejaVuSans-35" d="M 691 4666 
L 3169 4666 
L 3169 4134 
L 1269 4134 
L 1269 2991 
Q 1406 3038 1543 3061 
Q 1681 3084 1819 3084 
Q 2600 3084 3056 2656 
Q 3513 2228 3513 1497 
Q 3513 744 3044 326 
Q 2575 -91 1722 -91 
Q 1428 -91 1123 -41 
Q 819 9 494 109 
L 494 744 
Q 775 591 1075 516 
Q 1375 441 1709 441 
Q 2250 441 2565 725 
Q 2881 1009 2881 1497 
Q 2881 1984 2565 2268 
Q 2250 2553 1709 2553 
Q 1456 2553 1204 2497 
Q 953 2441 691 2322 
L 691 4666 
z
" transform="scale(0.015625)"/>
       </defs>
       <use xlink:href="#DejaVuSans-30"/>
       <use xlink:href="#DejaVuSans-2e" x="63.623047"/>
       <use xlink:href="#DejaVuSans-30" x="95.410156"/>
       <use xlink:href="#DejaVuSans-30" x="159.033203"/>
       <use xlink:href="#DejaVuSans-30" x="222.65625"/>
       <use xlink:href="#DejaVuSans-35" x="286.279297"/>
      </g>
     </g>
    </g>
    <g id="xtick_2">
     <g id="line2d_2">
      <g>
       <use xlink:href="#ma0e2b55934" x="221.294876" y="133.328" style="fill: #1a1a1a; stroke: #1a1a1a; stroke-width: 1.875"/>
      </g>
     </g>
     <g id="text_2">
      <!-- 0.05 -->
      <g style="fill: #1a1a1a" transform="translate(202.925736 158.365422) scale(0.165 -0.165)">
       <use xlink:href="#DejaVuSans-30"/>
       <use xlink:href="#DejaVuSans-2e" x="63.623047"/>
       <use xlink:href="#DejaVuSans-30" x="95.410156"/>
       <use xlink:href="#DejaVuSans-35" x="159.033203"/>
      </g>
     </g>
    </g>
    <g id="text_3">
     <!-- $\eta$ -->
     <g style="fill: #262626" transform="translate(160.122732 161.195344) scale(0.19 -0.19)">
      <defs>
       <path id="DejaVuSans-Oblique-3b7" d="M 3703 2113 
L 3034 -1331 
L 2459 -1331 
L 3125 2094 
Q 3222 2591 3075 2838 
Q 2931 3084 2544 3084 
Q 2078 3084 1750 2788 
Q 1425 2491 1325 1978 
L 941 0 
L 363 0 
L 1044 3500 
L 1622 3500 
L 1516 2956 
Q 1781 3272 2094 3428 
Q 2403 3584 2769 3584 
Q 3372 3584 3609 3213 
Q 3844 2838 3703 2113 
z
" transform="scale(0.015625)"/>
      </defs>
      <use xlink:href="#DejaVuSans-Oblique-3b7"/>
     </g>
    </g>
   </g>
   <g id="matplotlib.axis_2">
    <g id="ytick_1">
     <g id="line2d_3">
      <defs>
       <path id="m44138b0ef5" d="M 0 0 
L -9 0 
" style="stroke: #1a1a1a; stroke-width: 1.875"/>
      </defs>
      <g>
       <use xlink:href="#m44138b0ef5" x="105.601374" y="27.6475" style="fill: #1a1a1a; stroke: #1a1a1a; stroke-width: 1.875"/>
      </g>
     </g>
     <g id="text_4">
      <!-- $\mathdefault{10^{-6}}$ -->
      <g style="fill: #1a1a1a" transform="translate(54.326374 33.916211) scale(0.165 -0.165)">
       <defs>
        <path id="DejaVuSans-31" d="M 794 531 
L 1825 531 
L 1825 4091 
L 703 3866 
L 703 4441 
L 1819 4666 
L 2450 4666 
L 2450 531 
L 3481 531 
L 3481 0 
L 794 0 
L 794 531 
z
" transform="scale(0.015625)"/>
        <path id="DejaVuSans-2212" d="M 678 2272 
L 4684 2272 
L 4684 1741 
L 678 1741 
L 678 2272 
z
" transform="scale(0.015625)"/>
        <path id="DejaVuSans-36" d="M 2113 2584 
Q 1688 2584 1439 2293 
Q 1191 2003 1191 1497 
Q 1191 994 1439 701 
Q 1688 409 2113 409 
Q 2538 409 2786 701 
Q 3034 994 3034 1497 
Q 3034 2003 2786 2293 
Q 2538 2584 2113 2584 
z
M 3366 4563 
L 3366 3988 
Q 3128 4100 2886 4159 
Q 2644 4219 2406 4219 
Q 1781 4219 1451 3797 
Q 1122 3375 1075 2522 
Q 1259 2794 1537 2939 
Q 1816 3084 2150 3084 
Q 2853 3084 3261 2657 
Q 3669 2231 3669 1497 
Q 3669 778 3244 343 
Q 2819 -91 2113 -91 
Q 1303 -91 875 529 
Q 447 1150 447 2328 
Q 447 3434 972 4092 
Q 1497 4750 2381 4750 
Q 2619 4750 2861 4703 
Q 3103 4656 3366 4563 
z
" transform="scale(0.015625)"/>
       </defs>
       <use xlink:href="#DejaVuSans-31" transform="translate(0 0.765625)"/>
       <use xlink:href="#DejaVuSans-30" transform="translate(63.623047 0.765625)"/>
       <use xlink:href="#DejaVuSans-2212" transform="translate(128.203125 39.046875) scale(0.7)"/>
       <use xlink:href="#DejaVuSans-36" transform="translate(186.855469 39.046875) scale(0.7)"/>
      </g>
     </g>
    </g>
    <g id="ytick_2">
     <g id="line2d_4">
      <g>
       <use xlink:href="#m44138b0ef5" x="105.601374" y="74.616611" style="fill: #1a1a1a; stroke: #1a1a1a; stroke-width: 1.875"/>
      </g>
     </g>
     <g id="text_5">
      <!-- $\mathdefault{10^{-10}}$ -->
      <g style="fill: #1a1a1a" transform="translate(47.066374 80.885322) scale(0.165 -0.165)">
       <use xlink:href="#DejaVuSans-31" transform="translate(0 0.765625)"/>
       <use xlink:href="#DejaVuSans-30" transform="translate(63.623047 0.765625)"/>
       <use xlink:href="#DejaVuSans-2212" transform="translate(128.203125 39.046875) scale(0.7)"/>
       <use xlink:href="#DejaVuSans-31" transform="translate(186.855469 39.046875) scale(0.7)"/>
       <use xlink:href="#DejaVuSans-30" transform="translate(231.391602 39.046875) scale(0.7)"/>
      </g>
     </g>
    </g>
    <g id="ytick_3">
     <g id="line2d_5">
      <g>
       <use xlink:href="#m44138b0ef5" x="105.601374" y="121.585722" style="fill: #1a1a1a; stroke: #1a1a1a; stroke-width: 1.875"/>
      </g>
     </g>
     <g id="text_6">
      <!-- $\mathdefault{10^{-14}}$ -->
      <g style="fill: #1a1a1a" transform="translate(47.066374 127.854433) scale(0.165 -0.165)">
       <defs>
        <path id="DejaVuSans-34" d="M 2419 4116 
L 825 1625 
L 2419 1625 
L 2419 4116 
z
M 2253 4666 
L 3047 4666 
L 3047 1625 
L 3713 1625 
L 3713 1100 
L 3047 1100 
L 3047 0 
L 2419 0 
L 2419 1100 
L 313 1100 
L 313 1709 
L 2253 4666 
z
" transform="scale(0.015625)"/>
       </defs>
       <use xlink:href="#DejaVuSans-31" transform="translate(0 0.684375)"/>
       <use xlink:href="#DejaVuSans-30" transform="translate(63.623047 0.684375)"/>
       <use xlink:href="#DejaVuSans-2212" transform="translate(128.203125 38.965625) scale(0.7)"/>
       <use xlink:href="#DejaVuSans-31" transform="translate(186.855469 38.965625) scale(0.7)"/>
       <use xlink:href="#DejaVuSans-34" transform="translate(231.391602 38.965625) scale(0.7)"/>
      </g>
     </g>
    </g>
    <g id="text_7">
     <!-- $MSE(\hat{\mathcal{L}}, \mathcal{L})$ -->
     <g style="fill: #262626" transform="translate(39.322936 119.674) rotate(-90) scale(0.18 -0.18)">
      <defs>
       <path id="DejaVuSans-Oblique-4d" d="M 1081 4666 
L 2028 4666 
L 2572 1522 
L 4378 4666 
L 5350 4666 
L 4441 0 
L 3828 0 
L 4622 4091 
L 2791 897 
L 2175 897 
L 1581 4103 
L 788 0 
L 172 0 
L 1081 4666 
z
" transform="scale(0.015625)"/>
       <path id="DejaVuSans-Oblique-53" d="M 3859 4513 
L 3738 3897 
Q 3422 4066 3111 4152 
Q 2800 4238 2509 4238 
Q 1944 4238 1609 3991 
Q 1275 3744 1275 3334 
Q 1275 3109 1398 2989 
Q 1522 2869 2034 2731 
L 2413 2638 
Q 3053 2472 3303 2217 
Q 3553 1963 3553 1503 
Q 3553 797 2998 353 
Q 2444 -91 1538 -91 
Q 1166 -91 791 -17 
Q 416 56 38 206 
L 166 856 
Q 513 641 861 531 
Q 1209 422 1556 422 
Q 2147 422 2503 684 
Q 2859 947 2859 1369 
Q 2859 1650 2717 1795 
Q 2575 1941 2106 2059 
L 1728 2156 
Q 1081 2325 845 2545 
Q 609 2766 609 3163 
Q 609 3859 1145 4304 
Q 1681 4750 2541 4750 
Q 2875 4750 3203 4690 
Q 3531 4631 3859 4513 
z
" transform="scale(0.015625)"/>
       <path id="DejaVuSans-Oblique-45" d="M 1081 4666 
L 4031 4666 
L 3928 4134 
L 1606 4134 
L 1338 2753 
L 3566 2753 
L 3463 2222 
L 1234 2222 
L 909 531 
L 3284 531 
L 3181 0 
L 172 0 
L 1081 4666 
z
" transform="scale(0.015625)"/>
       <path id="DejaVuSans-28" d="M 1984 4856 
Q 1566 4138 1362 3434 
Q 1159 2731 1159 2009 
Q 1159 1288 1364 580 
Q 1569 -128 1984 -844 
L 1484 -844 
Q 1016 -109 783 600 
Q 550 1309 550 2009 
Q 550 2706 781 3412 
Q 1013 4119 1484 4856 
L 1984 4856 
z
" transform="scale(0.015625)"/>
       <path id="DejaVuSans-302" d="M -1831 5119 
L -1369 5119 
L -603 3944 
L -1038 3944 
L -1600 4709 
L -2163 3944 
L -2597 3944 
L -1831 5119 
z
M -1600 3584 
L -1600 3584 
z
" transform="scale(0.015625)"/>
       <path id="STIXNonUnicode-Italic-e238" d="M 4070 915 
L 4179 800 
Q 3347 -45 2413 -45 
Q 2157 -45 1850 26 
Q 1395 122 1146 122 
Q 1005 122 672 61 
Q 339 0 192 0 
L 230 154 
Q 582 154 730 749 
L 1178 2566 
Q 1286 3008 1516 3353 
Q 1747 3699 2025 3894 
Q 2304 4090 2585 4189 
Q 2867 4288 3123 4288 
Q 3443 4288 3593 4083 
Q 3744 3878 3744 3584 
Q 3744 3347 3593 3200 
Q 3443 3053 3226 3053 
Q 3085 3053 2995 3149 
Q 2906 3245 2906 3379 
Q 2906 3482 2957 3552 
Q 3008 3622 3065 3644 
Q 3123 3667 3174 3705 
Q 3226 3744 3226 3789 
Q 3226 4032 2854 4032 
Q 2522 4032 2310 3785 
Q 2099 3539 1990 3132 
Q 1882 2726 1795 2284 
Q 1709 1843 1549 1363 
Q 1389 883 1158 589 
L 1158 563 
Q 1363 704 1888 704 
Q 2227 704 2460 544 
Q 2694 384 2963 384 
Q 3507 384 4070 915 
z
" transform="scale(0.015625)"/>
       <path id="DejaVuSans-2c" d="M 750 794 
L 1409 794 
L 1409 256 
L 897 -744 
L 494 -744 
L 750 256 
L 750 794 
z
" transform="scale(0.015625)"/>
       <path id="DejaVuSans-29" d="M 513 4856 
L 1013 4856 
Q 1481 4119 1714 3412 
Q 1947 2706 1947 2009 
Q 1947 1309 1714 600 
Q 1481 -109 1013 -844 
L 513 -844 
Q 928 -128 1133 580 
Q 1338 1288 1338 2009 
Q 1338 2731 1133 3434 
Q 928 4138 513 4856 
z
" transform="scale(0.015625)"/>
      </defs>
      <use xlink:href="#DejaVuSans-Oblique-4d" transform="translate(0 0.515625)"/>
      <use xlink:href="#DejaVuSans-Oblique-53" transform="translate(86.279297 0.515625)"/>
      <use xlink:href="#DejaVuSans-Oblique-45" transform="translate(149.755859 0.515625)"/>
      <use xlink:href="#DejaVuSans-28" transform="translate(212.939453 0.515625)"/>
      <use xlink:href="#DejaVuSans-302" transform="translate(319.856247 24.015625)"/>
      <use xlink:href="#STIXNonUnicode-Italic-e238" transform="translate(251.953125 0.515625)"/>
      <use xlink:href="#DejaVuSans-2c" transform="translate(321.253113 0.515625)"/>
      <use xlink:href="#STIXNonUnicode-Italic-e238" transform="translate(372.522644 0.515625)"/>
      <use xlink:href="#DejaVuSans-29" transform="translate(441.822632 0.515625)"/>
     </g>
    </g>
   </g>
   <g id="line2d_6">
    <path d="M 221.294876 34.332648 
L 161.657228 38.344913 
L 133.975884 42.303474 
L 121.127342 48.206288 
L 115.163577 53.695547 
L 112.395442 57.611748 
L 111.110588 61.530114 
" clip-path="url(#p9b1faa37e9)" style="fill: none; stroke: #000000; stroke-opacity: 0.2; stroke-width: 2.25; stroke-linecap: round"/>
   </g>
   <g id="line2d_7">
    <path d="M 221.294876 71.405588 
L 161.657228 75.325974 
L 133.975884 79.259191 
L 121.127342 85.762092 
L 115.163577 90.623904 
L 112.395442 94.993997 
L 111.110588 104.553729 
" clip-path="url(#p9b1faa37e9)" style="fill: none; stroke: #000000; stroke-opacity: 0.2; stroke-width: 2.25; stroke-linecap: round"/>
   </g>
   <g id="line2d_8">
    <path d="M 221.294876 46.061695 
L 161.657228 50.064074 
L 133.975884 54.019927 
L 121.127342 57.953247 
L 115.163577 64.319354 
L 112.395442 69.330112 
L 111.110588 73.268643 
" clip-path="url(#p9b1faa37e9)" style="fill: none; stroke: #000000; stroke-opacity: 0.2; stroke-width: 2.25; stroke-linecap: round"/>
   </g>
   <g id="line2d_9">
    <path d="M 221.294876 67.164007 
L 161.657228 71.113584 
L 133.975884 75.043952 
L 121.127342 80.10498 
L 115.163577 86.428725 
L 112.395442 90.499774 
L 111.110588 95.709906 
" clip-path="url(#p9b1faa37e9)" style="fill: none; stroke: #000000; stroke-opacity: 0.2; stroke-width: 2.25; stroke-linecap: round"/>
   </g>
   <g id="line2d_10">
    <path d="M 221.294876 61.368404 
L 161.657228 65.283252 
L 133.975884 69.198395 
L 121.127342 73.116784 
L 115.163577 77.059858 
L 112.395442 84.190245 
L 111.110588 88.562004 
" clip-path="url(#p9b1faa37e9)" style="fill: none; stroke: #000000; stroke-opacity: 0.2; stroke-width: 2.25; stroke-linecap: round"/>
   </g>
   <g id="line2d_11">
    <path d="M 221.294876 68.138535 
L 161.657228 72.09164 
L 133.975884 76.023732 
L 121.127342 79.945883 
L 115.163577 85.471267 
L 112.395442 91.332129 
L 111.110588 95.370877 
" clip-path="url(#p9b1faa37e9)" style="fill: none; stroke: #000000; stroke-opacity: 0.2; stroke-width: 2.25; stroke-linecap: round"/>
   </g>
   <g id="line2d_12">
    <path d="M 221.294876 65.071838 
L 161.657228 69.030038 
L 133.975884 72.964877 
L 121.127342 76.895246 
L 115.163577 82.215894 
L 112.395442 88.293907 
L 111.110588 92.283307 
" clip-path="url(#p9b1faa37e9)" style="fill: none; stroke: #000000; stroke-opacity: 0.2; stroke-width: 2.25; stroke-linecap: round"/>
   </g>
   <g id="line2d_13">
    <path d="M 221.294876 51.828073 
L 161.657228 55.834895 
L 133.975884 59.791156 
L 121.127342 63.724164 
L 115.163577 67.644321 
L 112.395442 73.956601 
L 111.110588 78.983222 
" clip-path="url(#p9b1faa37e9)" style="fill: none; stroke: #000000; stroke-opacity: 0.2; stroke-width: 2.25; stroke-linecap: round"/>
   </g>
   <g id="line2d_14">
    <path d="M 221.294876 92.325085 
L 161.657228 96.276845 
L 133.975884 100.203457 
L 121.127342 104.189225 
L 115.163577 109.4359 
L 112.395442 115.475246 
L 111.110588 122.631677 
" clip-path="url(#p9b1faa37e9)" style="fill: none; stroke: #000000; stroke-opacity: 0.2; stroke-width: 2.25; stroke-linecap: round"/>
   </g>
   <g id="line2d_15">
    <path d="M 221.294876 44.038397 
L 161.657228 48.040421 
L 133.975884 51.991117 
L 121.127342 55.932143 
L 115.163577 62.985359 
L 112.395442 67.289233 
L 111.110588 71.206693 
" clip-path="url(#p9b1faa37e9)" style="fill: none; stroke: #000000; stroke-opacity: 0.2; stroke-width: 2.25; stroke-linecap: round"/>
   </g>
   <g id="line2d_16">
    <path d="M 221.294876 78.9852 
L 161.657228 82.923023 
L 133.975884 86.850055 
L 121.127342 90.76701 
L 115.163577 97.155779 
L 112.395442 102.195336 
L 111.110588 107.891455 
" clip-path="url(#p9b1faa37e9)" style="fill: none; stroke: #000000; stroke-opacity: 0.2; stroke-width: 2.25; stroke-linecap: round"/>
   </g>
   <g id="line2d_17">
    <path d="M 221.294876 66.436865 
L 161.657228 70.355037 
L 133.975884 74.276075 
L 121.127342 79.400319 
L 115.163577 85.698257 
L 112.395442 89.853825 
L 111.110588 97.186853 
" clip-path="url(#p9b1faa37e9)" style="fill: none; stroke: #000000; stroke-opacity: 0.2; stroke-width: 2.25; stroke-linecap: round"/>
   </g>
   <g id="line2d_18">
    <path d="M 221.294876 64.291569 
L 161.657228 68.199782 
L 133.975884 72.109304 
L 121.127342 76.492916 
L 115.163577 83.442406 
L 112.395442 88.259087 
L 111.110588 107.707813 
" clip-path="url(#p9b1faa37e9)" style="fill: none; stroke: #000000; stroke-opacity: 0.2; stroke-width: 2.25; stroke-linecap: round"/>
   </g>
   <g id="line2d_19">
    <path d="M 221.294876 52.129743 
L 161.657228 56.104241 
L 133.975884 60.046149 
L 121.127342 63.976586 
L 115.163577 71.133706 
L 112.395442 75.343742 
L 111.110588 79.2871 
" clip-path="url(#p9b1faa37e9)" style="fill: none; stroke: #000000; stroke-opacity: 0.2; stroke-width: 2.25; stroke-linecap: round"/>
   </g>
   <g id="line2d_20">
    <path d="M 221.294876 41.970912 
L 161.657228 45.969971 
L 133.975884 49.9228 
L 121.127342 53.988416 
L 115.163577 60.928228 
L 112.395442 65.23128 
L 111.110588 69.15475 
" clip-path="url(#p9b1faa37e9)" style="fill: none; stroke: #000000; stroke-opacity: 0.2; stroke-width: 2.25; stroke-linecap: round"/>
   </g>
   <g id="line2d_21">
    <path d="M 221.294876 56.1034 
L 161.657228 60.012625 
L 133.975884 63.926325 
L 121.127342 68.021157 
L 115.163577 75.257217 
L 112.395442 79.243824 
L 111.110588 85.58924 
" clip-path="url(#p9b1faa37e9)" style="fill: none; stroke: #000000; stroke-opacity: 0.2; stroke-width: 2.25; stroke-linecap: round"/>
   </g>
   <g id="line2d_22">
    <path d="M 221.294876 55.33017 
L 161.657228 59.289627 
L 133.975884 63.224312 
L 121.127342 69.497528 
L 115.163577 74.592743 
L 112.395442 78.49552 
L 111.110588 82.369576 
" clip-path="url(#p9b1faa37e9)" style="fill: none; stroke: #000000; stroke-opacity: 0.2; stroke-width: 2.25; stroke-linecap: round"/>
   </g>
   <g id="line2d_23">
    <path d="M 221.294876 51.062918 
L 161.657228 55.048826 
L 133.975884 58.996652 
L 121.127342 62.927306 
L 115.163577 68.790381 
L 112.395442 74.311976 
L 111.110588 78.231531 
" clip-path="url(#p9b1faa37e9)" style="fill: none; stroke: #000000; stroke-opacity: 0.2; stroke-width: 2.25; stroke-linecap: round"/>
   </g>
   <g id="line2d_24">
    <path d="M 221.294876 42.467174 
L 161.657228 46.460386 
L 133.975884 50.411405 
L 121.127342 54.343691 
L 115.163577 60.518581 
L 112.395442 65.711739 
L 111.110588 69.639138 
" clip-path="url(#p9b1faa37e9)" style="fill: none; stroke: #000000; stroke-opacity: 0.2; stroke-width: 2.25; stroke-linecap: round"/>
   </g>
   <g id="line2d_25">
    <path d="M 221.294876 50.867695 
L 161.657228 54.838296 
L 133.975884 58.778053 
L 121.127342 64.243375 
L 115.163577 70.152049 
L 112.395442 74.057756 
L 111.110588 77.951214 
" clip-path="url(#p9b1faa37e9)" style="fill: none; stroke: #000000; stroke-opacity: 0.2; stroke-width: 2.25; stroke-linecap: round"/>
   </g>
   <g id="line2d_26">
    <path d="M 221.294876 39.632231 
L 161.657228 43.633546 
L 133.975884 47.587198 
L 121.127342 52.473048 
L 115.163577 58.976396 
L 112.395442 62.892166 
L 111.110588 66.821063 
" clip-path="url(#p9b1faa37e9)" style="fill: none; stroke: #000000; stroke-opacity: 0.2; stroke-width: 2.25; stroke-linecap: round"/>
   </g>
   <g id="line2d_27">
    <path d="M 221.294876 58.292489 
L 161.657228 62.201303 
L 133.975884 66.114889 
L 121.127342 71.448467 
L 115.163577 77.495921 
L 112.395442 82.4084 
L 111.110588 107.208341 
" clip-path="url(#p9b1faa37e9)" style="fill: none; stroke: #000000; stroke-opacity: 0.2; stroke-width: 2.25; stroke-linecap: round"/>
   </g>
   <g id="line2d_28">
    <path d="M 221.294876 94.228703 
L 161.657228 98.166995 
L 133.975884 102.083099 
L 121.127342 105.987378 
L 115.163577 112.328125 
L 112.395442 117.155535 
L 111.110588 121.845963 
" clip-path="url(#p9b1faa37e9)" style="fill: none; stroke: #000000; stroke-opacity: 0.2; stroke-width: 2.25; stroke-linecap: round"/>
   </g>
   <g id="line2d_29">
    <path d="M 221.294876 51.441009 
L 161.657228 55.416787 
L 133.975884 59.358031 
L 121.127342 63.677093 
L 115.163577 70.675182 
L 112.395442 74.653735 
L 111.110588 78.557156 
" clip-path="url(#p9b1faa37e9)" style="fill: none; stroke: #000000; stroke-opacity: 0.2; stroke-width: 2.25; stroke-linecap: round"/>
   </g>
   <g id="line2d_30">
    <path d="M 221.294876 66.481021 
L 161.657228 70.398093 
L 133.975884 74.308872 
L 121.127342 78.234262 
L 115.163577 82.150759 
L 112.395442 89.198507 
L 111.110588 96.246291 
" clip-path="url(#p9b1faa37e9)" style="fill: none; stroke: #000000; stroke-opacity: 0.2; stroke-width: 2.25; stroke-linecap: round"/>
   </g>
   <g id="line2d_31">
    <path d="M 221.294876 78.247718 
L 161.657228 82.168028 
L 133.975884 86.099273 
L 121.127342 90.044488 
L 115.163577 95.690791 
L 112.395442 101.915772 
L 111.110588 115.458274 
" clip-path="url(#p9b1faa37e9)" style="fill: none; stroke: #000000; stroke-opacity: 0.2; stroke-width: 2.25; stroke-linecap: round"/>
   </g>
   <g id="line2d_32">
    <path d="M 221.294876 78.436129 
L 161.657228 82.383226 
L 133.975884 86.316975 
L 121.127342 90.252638 
L 115.163577 96.919706 
L 112.395442 101.750405 
L 111.110588 105.988626 
" clip-path="url(#p9b1faa37e9)" style="fill: none; stroke: #000000; stroke-opacity: 0.2; stroke-width: 2.25; stroke-linecap: round"/>
   </g>
   <g id="line2d_33">
    <path d="M 221.294876 76.859485 
L 161.657228 80.775161 
L 133.975884 84.69249 
L 121.127342 88.600532 
L 115.163577 94.803857 
L 112.395442 100.038617 
L 111.110588 108.601811 
" clip-path="url(#p9b1faa37e9)" style="fill: none; stroke: #000000; stroke-opacity: 0.2; stroke-width: 2.25; stroke-linecap: round"/>
   </g>
   <g id="line2d_34">
    <path d="M 221.294876 73.392689 
L 161.657228 77.310192 
L 133.975884 81.231727 
L 121.127342 85.163954 
L 115.163577 90.143361 
L 112.395442 96.670389 
L 111.110588 104.071426 
" clip-path="url(#p9b1faa37e9)" style="fill: none; stroke: #000000; stroke-opacity: 0.2; stroke-width: 2.25; stroke-linecap: round"/>
   </g>
   <g id="line2d_35">
    <path d="M 221.294876 54.378216 
L 161.657228 58.34681 
L 133.975884 62.28624 
L 121.127342 66.925639 
L 115.163577 73.663404 
L 112.395442 77.590597 
L 111.110588 81.545255 
" clip-path="url(#p9b1faa37e9)" style="fill: none; stroke: #000000; stroke-opacity: 0.2; stroke-width: 2.25; stroke-linecap: round"/>
   </g>
   <g id="line2d_36">
    <path d="M 221.294876 62.833965 
L 161.657228 66.748152 
L 133.975884 70.688449 
L 121.127342 77.60775 
L 115.163577 82.064295 
L 112.395442 86.262969 
L 111.110588 96.184821 
" clip-path="url(#p9b1faa37e9)" style="fill: none; stroke: #000000; stroke-opacity: 0.2; stroke-width: 2.25; stroke-linecap: round"/>
   </g>
   <g id="line2d_37">
    <path d="M 221.294876 61.704455 
L 161.657228 65.666276 
L 133.975884 69.60679 
L 121.127342 73.599427 
L 115.163577 80.052871 
L 112.395442 84.933817 
L 111.110588 88.94298 
" clip-path="url(#p9b1faa37e9)" style="fill: none; stroke: #000000; stroke-opacity: 0.2; stroke-width: 2.25; stroke-linecap: round"/>
   </g>
   <g id="line2d_38">
    <path d="M 221.294876 50.560363 
L 161.657228 54.535597 
L 133.975884 58.478357 
L 121.127342 63.008759 
L 115.163577 69.852278 
L 112.395442 73.761288 
L 111.110588 77.657969 
" clip-path="url(#p9b1faa37e9)" style="fill: none; stroke: #000000; stroke-opacity: 0.2; stroke-width: 2.25; stroke-linecap: round"/>
   </g>
   <g id="line2d_39">
    <path d="M 221.294876 66.832721 
L 161.657228 70.751089 
L 133.975884 74.671223 
L 121.127342 78.593754 
L 115.163577 83.437353 
L 112.395442 89.985483 
L 111.110588 94.399722 
" clip-path="url(#p9b1faa37e9)" style="fill: none; stroke: #000000; stroke-opacity: 0.2; stroke-width: 2.25; stroke-linecap: round"/>
   </g>
   <g id="line2d_40">
    <path d="M 221.294876 49.474426 
L 161.657228 53.444202 
L 133.975884 57.386616 
L 121.127342 62.764544 
L 115.163577 68.758274 
L 112.395442 72.667724 
L 111.110588 76.58034 
" clip-path="url(#p9b1faa37e9)" style="fill: none; stroke: #000000; stroke-opacity: 0.2; stroke-width: 2.25; stroke-linecap: round"/>
   </g>
   <g id="line2d_41">
    <path d="M 221.294876 61.894164 
L 161.657228 65.860468 
L 133.975884 69.801829 
L 121.127342 73.731953 
L 115.163577 79.494365 
L 112.395442 85.121833 
L 111.110588 89.074808 
" clip-path="url(#p9b1faa37e9)" style="fill: none; stroke: #000000; stroke-opacity: 0.2; stroke-width: 2.25; stroke-linecap: round"/>
   </g>
   <g id="line2d_42">
    <path d="M 221.294876 57.485459 
L 161.657228 61.461018 
L 133.975884 65.401805 
L 121.127342 69.328518 
L 115.163577 75.100724 
L 112.395442 80.660792 
L 111.110588 84.557572 
" clip-path="url(#p9b1faa37e9)" style="fill: none; stroke: #000000; stroke-opacity: 0.2; stroke-width: 2.25; stroke-linecap: round"/>
   </g>
   <g id="line2d_43">
    <path d="M 221.294876 55.023463 
L 161.657228 58.996194 
L 133.975884 62.936626 
L 121.127342 66.884143 
L 115.163577 73.830483 
L 112.395442 78.207266 
L 111.110588 82.119016 
" clip-path="url(#p9b1faa37e9)" style="fill: none; stroke: #000000; stroke-opacity: 0.2; stroke-width: 2.25; stroke-linecap: round"/>
   </g>
   <g id="line2d_44">
    <path d="M 221.294876 55.628126 
L 161.657228 59.604188 
L 133.975884 63.547076 
L 121.127342 67.473119 
L 115.163577 72.658815 
L 112.395442 78.83514 
L 111.110588 82.76123 
" clip-path="url(#p9b1faa37e9)" style="fill: none; stroke: #000000; stroke-opacity: 0.2; stroke-width: 2.25; stroke-linecap: round"/>
   </g>
   <g id="line2d_45">
    <path d="M 221.294876 81.863621 
L 161.657228 85.779686 
L 133.975884 89.703693 
L 121.127342 93.709718 
L 115.163577 101.121315 
L 112.395442 106.866625 
L 111.110588 116.992076 
" clip-path="url(#p9b1faa37e9)" style="fill: none; stroke: #000000; stroke-opacity: 0.2; stroke-width: 2.25; stroke-linecap: round"/>
   </g>
   <g id="line2d_46">
    <path d="M 221.294876 64.291917 
L 161.657228 68.258212 
L 133.975884 72.196589 
L 121.127342 76.128604 
L 115.163577 81.750025 
L 112.395442 87.544483 
L 111.110588 91.472658 
" clip-path="url(#p9b1faa37e9)" style="fill: none; stroke: #000000; stroke-opacity: 0.2; stroke-width: 2.25; stroke-linecap: round"/>
   </g>
   <g id="line2d_47">
    <path d="M 221.294876 88.429298 
L 161.657228 92.359959 
L 133.975884 96.272286 
L 121.127342 100.157817 
L 115.163577 104.539266 
L 112.395442 111.091433 
L 111.110588 114.497833 
" clip-path="url(#p9b1faa37e9)" style="fill: none; stroke: #000000; stroke-opacity: 0.2; stroke-width: 2.25; stroke-linecap: round"/>
   </g>
   <g id="line2d_48">
    <path d="M 221.294876 43.503889 
L 161.657228 47.496752 
L 133.975884 51.446498 
L 121.127342 55.57932 
L 115.163577 62.598501 
L 112.395442 66.741264 
L 111.110588 70.659113 
" clip-path="url(#p9b1faa37e9)" style="fill: none; stroke: #000000; stroke-opacity: 0.2; stroke-width: 2.25; stroke-linecap: round"/>
   </g>
   <g id="line2d_49">
    <path d="M 221.294876 74.846937 
L 161.657228 78.756327 
L 133.975884 82.671046 
L 121.127342 86.593969 
L 115.163577 92.945248 
L 112.395442 98.264664 
L 111.110588 117.922603 
" clip-path="url(#p9b1faa37e9)" style="fill: none; stroke: #000000; stroke-opacity: 0.2; stroke-width: 2.25; stroke-linecap: round"/>
   </g>
   <g id="line2d_50">
    <path d="M 221.294876 76.133774 
L 161.657228 80.067109 
L 133.975884 83.989031 
L 121.127342 88.752855 
L 115.163577 95.345748 
L 112.395442 99.693043 
L 111.110588 106.11896 
" clip-path="url(#p9b1faa37e9)" style="fill: none; stroke: #000000; stroke-opacity: 0.2; stroke-width: 2.25; stroke-linecap: round"/>
   </g>
   <g id="line2d_51">
    <path d="M 221.294876 76.062129 
L 161.657228 79.97463 
L 133.975884 83.888905 
L 121.127342 87.890975 
L 115.163577 94.566362 
L 112.395442 99.634551 
L 111.110588 110.750265 
" clip-path="url(#p9b1faa37e9)" style="fill: none; stroke: #000000; stroke-opacity: 0.2; stroke-width: 2.25; stroke-linecap: round"/>
   </g>
   <g id="line2d_52">
    <path d="M 221.294876 78.889393 
L 161.657228 82.802197 
L 133.975884 86.712443 
L 121.127342 90.624945 
L 115.163577 97.168135 
L 112.395442 102.62692 
L 111.110588 117.692977 
" clip-path="url(#p9b1faa37e9)" style="fill: none; stroke: #000000; stroke-opacity: 0.2; stroke-width: 2.25; stroke-linecap: round"/>
   </g>
   <g id="line2d_53">
    <path d="M 221.294876 70.038816 
L 161.657228 74.011144 
L 133.975884 77.949135 
L 121.127342 81.87776 
L 115.163577 85.899035 
L 112.395442 92.804921 
L 111.110588 97.24935 
" clip-path="url(#p9b1faa37e9)" style="fill: none; stroke: #000000; stroke-opacity: 0.2; stroke-width: 2.25; stroke-linecap: round"/>
   </g>
   <g id="line2d_54">
    <path d="M 221.294876 81.261828 
L 161.657228 85.169076 
L 133.975884 89.081364 
L 121.127342 92.989908 
L 115.163577 97.515159 
L 112.395442 104.500724 
L 111.110588 112.462082 
" clip-path="url(#p9b1faa37e9)" style="fill: none; stroke: #000000; stroke-opacity: 0.2; stroke-width: 2.25; stroke-linecap: round"/>
   </g>
   <g id="line2d_55">
    <path d="M 221.294876 45.742967 
L 161.657228 49.721415 
L 133.975884 53.665614 
L 121.127342 58.778269 
L 115.163577 65.05145 
L 112.395442 68.970402 
L 111.110588 72.890011 
" clip-path="url(#p9b1faa37e9)" style="fill: none; stroke: #000000; stroke-opacity: 0.2; stroke-width: 2.25; stroke-linecap: round"/>
   </g>
   <g id="PathCollection_1">
    <defs>
     <path id="m7cc79236b7" d="M -5 5 
L 5 -5 
M -5 -5 
L 5 5 
" style="stroke: #d65c00; stroke-width: 3"/>
    </defs>
    <g clip-path="url(#p9b1faa37e9)">
     <use xlink:href="#m7cc79236b7" x="161.657228" y="61.461018" style="fill: #d65c00; stroke: #d65c00; stroke-width: 3"/>
    </g>
   </g>
   <g id="PathCollection_2">
    <defs>
     <path id="m3a38523820" d="M -5 5 
L 5 -5 
M -5 -5 
L 5 5 
" style="stroke: #0071b2; stroke-width: 3"/>
    </defs>
    <g clip-path="url(#p9b1faa37e9)">
     <use xlink:href="#m3a38523820" x="112.395442" y="92.804921" style="fill: #0071b2; stroke: #0071b2; stroke-width: 3"/>
    </g>
   </g>
   <g id="PathCollection_3">
    <defs>
     <path id="mebb7d1052a" d="M -5 5 
L 5 -5 
M -5 -5 
L 5 5 
" style="stroke: #009e73; stroke-width: 3"/>
    </defs>
    <g clip-path="url(#p9b1faa37e9)">
     <use xlink:href="#mebb7d1052a" x="221.294876" y="73.392689" style="fill: #009e73; stroke: #009e73; stroke-width: 3"/>
    </g>
   </g>
   <g id="PathCollection_4">
    <defs>
     <path id="m1e46226ca7" d="M -5 5 
L 5 -5 
M -5 -5 
L 5 5 
" style="stroke: #cc78a6; stroke-width: 3"/>
    </defs>
    <g clip-path="url(#p9b1faa37e9)">
     <use xlink:href="#m1e46226ca7" x="161.657228" y="48.040421" style="fill: #cc78a6; stroke: #cc78a6; stroke-width: 3"/>
    </g>
   </g>
   <g id="PathCollection_5">
    <defs>
     <path id="mb407217842" d="M -5 5 
L 5 -5 
M -5 -5 
L 5 5 
" style="stroke: #e59c00; stroke-width: 3"/>
    </defs>
    <g clip-path="url(#p9b1faa37e9)">
     <use xlink:href="#mb407217842" x="111.110588" y="79.2871" style="fill: #e59c00; stroke: #e59c00; stroke-width: 3"/>
    </g>
   </g>
   <g id="patch_3">
    <path d="M 105.601374 133.328 
L 105.601374 19.44 
" style="fill: none; stroke: #262626; stroke-width: 1.875; stroke-linejoin: miter; stroke-linecap: square"/>
   </g>
   <g id="patch_4">
    <path d="M 105.601374 133.328 
L 226.804091 133.328 
" style="fill: none; stroke: #262626; stroke-width: 1.875; stroke-linejoin: miter; stroke-linecap: square"/>
   </g>
  </g>
  <g id="axes_2">
   <g id="patch_5">
    <path d="M 105.601374 299.436 
L 226.804091 299.436 
L 226.804091 185.548 
L 105.601374 185.548 
z
" style="fill: #ffffff"/>
   </g>
   <g id="matplotlib.axis_3">
    <g id="xtick_3">
     <g id="line2d_56">
      <g>
       <use xlink:href="#ma0e2b55934" x="111.110588" y="299.436" style="fill: #1a1a1a; stroke: #1a1a1a; stroke-width: 1.875"/>
      </g>
     </g>
     <g id="text_8">
      <!-- $\mathdefault{10^{0}}$ -->
      <g style="fill: #1a1a1a" transform="translate(96.590588 324.473422) scale(0.165 -0.165)">
       <use xlink:href="#DejaVuSans-31" transform="translate(0 0.765625)"/>
       <use xlink:href="#DejaVuSans-30" transform="translate(63.623047 0.765625)"/>
       <use xlink:href="#DejaVuSans-30" transform="translate(128.203125 39.046875) scale(0.7)"/>
      </g>
     </g>
    </g>
    <g id="xtick_4">
     <g id="line2d_57">
      <g>
       <use xlink:href="#ma0e2b55934" x="166.203331" y="299.436" style="fill: #1a1a1a; stroke: #1a1a1a; stroke-width: 1.875"/>
      </g>
     </g>
     <g id="text_9">
      <!-- $\mathdefault{10^{2}}$ -->
      <g style="fill: #1a1a1a" transform="translate(151.683331 324.473422) scale(0.165 -0.165)">
       <defs>
        <path id="DejaVuSans-32" d="M 1228 531 
L 3431 531 
L 3431 0 
L 469 0 
L 469 531 
Q 828 903 1448 1529 
Q 2069 2156 2228 2338 
Q 2531 2678 2651 2914 
Q 2772 3150 2772 3378 
Q 2772 3750 2511 3984 
Q 2250 4219 1831 4219 
Q 1534 4219 1204 4116 
Q 875 4013 500 3803 
L 500 4441 
Q 881 4594 1212 4672 
Q 1544 4750 1819 4750 
Q 2544 4750 2975 4387 
Q 3406 4025 3406 3419 
Q 3406 3131 3298 2873 
Q 3191 2616 2906 2266 
Q 2828 2175 2409 1742 
Q 1991 1309 1228 531 
z
" transform="scale(0.015625)"/>
       </defs>
       <use xlink:href="#DejaVuSans-31" transform="translate(0 0.765625)"/>
       <use xlink:href="#DejaVuSans-30" transform="translate(63.623047 0.765625)"/>
       <use xlink:href="#DejaVuSans-32" transform="translate(128.203125 39.046875) scale(0.7)"/>
      </g>
     </g>
    </g>
    <g id="xtick_5">
     <g id="line2d_58">
      <g>
       <use xlink:href="#ma0e2b55934" x="221.296073" y="299.436" style="fill: #1a1a1a; stroke: #1a1a1a; stroke-width: 1.875"/>
      </g>
     </g>
     <g id="text_10">
      <!-- $\mathdefault{10^{4}}$ -->
      <g style="fill: #1a1a1a" transform="translate(206.776073 324.473422) scale(0.165 -0.165)">
       <use xlink:href="#DejaVuSans-31" transform="translate(0 0.684375)"/>
       <use xlink:href="#DejaVuSans-30" transform="translate(63.623047 0.684375)"/>
       <use xlink:href="#DejaVuSans-34" transform="translate(128.203125 38.965625) scale(0.7)"/>
      </g>
     </g>
    </g>
    <g id="text_11">
     <!-- Training Steps -->
     <g style="fill: #262626" transform="translate(102.654295 345.582094) scale(0.18 -0.18)">
      <defs>
       <path id="DejaVuSans-54" d="M -19 4666 
L 3928 4666 
L 3928 4134 
L 2272 4134 
L 2272 0 
L 1638 0 
L 1638 4134 
L -19 4134 
L -19 4666 
z
" transform="scale(0.015625)"/>
       <path id="DejaVuSans-72" d="M 2631 2963 
Q 2534 3019 2420 3045 
Q 2306 3072 2169 3072 
Q 1681 3072 1420 2755 
Q 1159 2438 1159 1844 
L 1159 0 
L 581 0 
L 581 3500 
L 1159 3500 
L 1159 2956 
Q 1341 3275 1631 3429 
Q 1922 3584 2338 3584 
Q 2397 3584 2469 3576 
Q 2541 3569 2628 3553 
L 2631 2963 
z
" transform="scale(0.015625)"/>
       <path id="DejaVuSans-61" d="M 2194 1759 
Q 1497 1759 1228 1600 
Q 959 1441 959 1056 
Q 959 750 1161 570 
Q 1363 391 1709 391 
Q 2188 391 2477 730 
Q 2766 1069 2766 1631 
L 2766 1759 
L 2194 1759 
z
M 3341 1997 
L 3341 0 
L 2766 0 
L 2766 531 
Q 2569 213 2275 61 
Q 1981 -91 1556 -91 
Q 1019 -91 701 211 
Q 384 513 384 1019 
Q 384 1609 779 1909 
Q 1175 2209 1959 2209 
L 2766 2209 
L 2766 2266 
Q 2766 2663 2505 2880 
Q 2244 3097 1772 3097 
Q 1472 3097 1187 3025 
Q 903 2953 641 2809 
L 641 3341 
Q 956 3463 1253 3523 
Q 1550 3584 1831 3584 
Q 2591 3584 2966 3190 
Q 3341 2797 3341 1997 
z
" transform="scale(0.015625)"/>
       <path id="DejaVuSans-69" d="M 603 3500 
L 1178 3500 
L 1178 0 
L 603 0 
L 603 3500 
z
M 603 4863 
L 1178 4863 
L 1178 4134 
L 603 4134 
L 603 4863 
z
" transform="scale(0.015625)"/>
       <path id="DejaVuSans-6e" d="M 3513 2113 
L 3513 0 
L 2938 0 
L 2938 2094 
Q 2938 2591 2744 2837 
Q 2550 3084 2163 3084 
Q 1697 3084 1428 2787 
Q 1159 2491 1159 1978 
L 1159 0 
L 581 0 
L 581 3500 
L 1159 3500 
L 1159 2956 
Q 1366 3272 1645 3428 
Q 1925 3584 2291 3584 
Q 2894 3584 3203 3211 
Q 3513 2838 3513 2113 
z
" transform="scale(0.015625)"/>
       <path id="DejaVuSans-67" d="M 2906 1791 
Q 2906 2416 2648 2759 
Q 2391 3103 1925 3103 
Q 1463 3103 1205 2759 
Q 947 2416 947 1791 
Q 947 1169 1205 825 
Q 1463 481 1925 481 
Q 2391 481 2648 825 
Q 2906 1169 2906 1791 
z
M 3481 434 
Q 3481 -459 3084 -895 
Q 2688 -1331 1869 -1331 
Q 1566 -1331 1297 -1286 
Q 1028 -1241 775 -1147 
L 775 -588 
Q 1028 -725 1275 -790 
Q 1522 -856 1778 -856 
Q 2344 -856 2625 -561 
Q 2906 -266 2906 331 
L 2906 616 
Q 2728 306 2450 153 
Q 2172 0 1784 0 
Q 1141 0 747 490 
Q 353 981 353 1791 
Q 353 2603 747 3093 
Q 1141 3584 1784 3584 
Q 2172 3584 2450 3431 
Q 2728 3278 2906 2969 
L 2906 3500 
L 3481 3500 
L 3481 434 
z
" transform="scale(0.015625)"/>
       <path id="DejaVuSans-20" transform="scale(0.015625)"/>
       <path id="DejaVuSans-53" d="M 3425 4513 
L 3425 3897 
Q 3066 4069 2747 4153 
Q 2428 4238 2131 4238 
Q 1616 4238 1336 4038 
Q 1056 3838 1056 3469 
Q 1056 3159 1242 3001 
Q 1428 2844 1947 2747 
L 2328 2669 
Q 3034 2534 3370 2195 
Q 3706 1856 3706 1288 
Q 3706 609 3251 259 
Q 2797 -91 1919 -91 
Q 1588 -91 1214 -16 
Q 841 59 441 206 
L 441 856 
Q 825 641 1194 531 
Q 1563 422 1919 422 
Q 2459 422 2753 634 
Q 3047 847 3047 1241 
Q 3047 1584 2836 1778 
Q 2625 1972 2144 2069 
L 1759 2144 
Q 1053 2284 737 2584 
Q 422 2884 422 3419 
Q 422 4038 858 4394 
Q 1294 4750 2059 4750 
Q 2388 4750 2728 4690 
Q 3069 4631 3425 4513 
z
" transform="scale(0.015625)"/>
       <path id="DejaVuSans-74" d="M 1172 4494 
L 1172 3500 
L 2356 3500 
L 2356 3053 
L 1172 3053 
L 1172 1153 
Q 1172 725 1289 603 
Q 1406 481 1766 481 
L 2356 481 
L 2356 0 
L 1766 0 
Q 1100 0 847 248 
Q 594 497 594 1153 
L 594 3053 
L 172 3053 
L 172 3500 
L 594 3500 
L 594 4494 
L 1172 4494 
z
" transform="scale(0.015625)"/>
       <path id="DejaVuSans-65" d="M 3597 1894 
L 3597 1613 
L 953 1613 
Q 991 1019 1311 708 
Q 1631 397 2203 397 
Q 2534 397 2845 478 
Q 3156 559 3463 722 
L 3463 178 
Q 3153 47 2828 -22 
Q 2503 -91 2169 -91 
Q 1331 -91 842 396 
Q 353 884 353 1716 
Q 353 2575 817 3079 
Q 1281 3584 2069 3584 
Q 2775 3584 3186 3129 
Q 3597 2675 3597 1894 
z
M 3022 2063 
Q 3016 2534 2758 2815 
Q 2500 3097 2075 3097 
Q 1594 3097 1305 2825 
Q 1016 2553 972 2059 
L 3022 2063 
z
" transform="scale(0.015625)"/>
       <path id="DejaVuSans-70" d="M 1159 525 
L 1159 -1331 
L 581 -1331 
L 581 3500 
L 1159 3500 
L 1159 2969 
Q 1341 3281 1617 3432 
Q 1894 3584 2278 3584 
Q 2916 3584 3314 3078 
Q 3713 2572 3713 1747 
Q 3713 922 3314 415 
Q 2916 -91 2278 -91 
Q 1894 -91 1617 61 
Q 1341 213 1159 525 
z
M 3116 1747 
Q 3116 2381 2855 2742 
Q 2594 3103 2138 3103 
Q 1681 3103 1420 2742 
Q 1159 2381 1159 1747 
Q 1159 1113 1420 752 
Q 1681 391 2138 391 
Q 2594 391 2855 752 
Q 3116 1113 3116 1747 
z
" transform="scale(0.015625)"/>
       <path id="DejaVuSans-73" d="M 2834 3397 
L 2834 2853 
Q 2591 2978 2328 3040 
Q 2066 3103 1784 3103 
Q 1356 3103 1142 2972 
Q 928 2841 928 2578 
Q 928 2378 1081 2264 
Q 1234 2150 1697 2047 
L 1894 2003 
Q 2506 1872 2764 1633 
Q 3022 1394 3022 966 
Q 3022 478 2636 193 
Q 2250 -91 1575 -91 
Q 1294 -91 989 -36 
Q 684 19 347 128 
L 347 722 
Q 666 556 975 473 
Q 1284 391 1588 391 
Q 1994 391 2212 530 
Q 2431 669 2431 922 
Q 2431 1156 2273 1281 
Q 2116 1406 1581 1522 
L 1381 1569 
Q 847 1681 609 1914 
Q 372 2147 372 2553 
Q 372 3047 722 3315 
Q 1072 3584 1716 3584 
Q 2034 3584 2315 3537 
Q 2597 3491 2834 3397 
z
" transform="scale(0.015625)"/>
      </defs>
      <use xlink:href="#DejaVuSans-54"/>
      <use xlink:href="#DejaVuSans-72" x="46.333984"/>
      <use xlink:href="#DejaVuSans-61" x="87.447266"/>
      <use xlink:href="#DejaVuSans-69" x="148.726562"/>
      <use xlink:href="#DejaVuSans-6e" x="176.509766"/>
      <use xlink:href="#DejaVuSans-69" x="239.888672"/>
      <use xlink:href="#DejaVuSans-6e" x="267.671875"/>
      <use xlink:href="#DejaVuSans-67" x="331.050781"/>
      <use xlink:href="#DejaVuSans-20" x="394.527344"/>
      <use xlink:href="#DejaVuSans-53" x="426.314453"/>
      <use xlink:href="#DejaVuSans-74" x="489.791016"/>
      <use xlink:href="#DejaVuSans-65" x="529"/>
      <use xlink:href="#DejaVuSans-70" x="590.523438"/>
      <use xlink:href="#DejaVuSans-73" x="654"/>
     </g>
    </g>
   </g>
   <g id="matplotlib.axis_4">
    <g id="ytick_4">
     <g id="line2d_59">
      <g>
       <use xlink:href="#m44138b0ef5" x="105.601374" y="193.481112" style="fill: #1a1a1a; stroke: #1a1a1a; stroke-width: 1.875"/>
      </g>
     </g>
     <g id="text_12">
      <!-- 1 -->
      <g style="fill: #1a1a1a" transform="translate(82.603249 199.749823) scale(0.165 -0.165)">
       <use xlink:href="#DejaVuSans-31"/>
      </g>
     </g>
    </g>
    <g id="ytick_5">
     <g id="line2d_60">
      <g>
       <use xlink:href="#m44138b0ef5" x="105.601374" y="223.168836" style="fill: #1a1a1a; stroke: #1a1a1a; stroke-width: 1.875"/>
      </g>
     </g>
     <g id="text_13">
      <!-- 0.7 -->
      <g style="fill: #1a1a1a" transform="translate(66.861217 229.437547) scale(0.165 -0.165)">
       <defs>
        <path id="DejaVuSans-37" d="M 525 4666 
L 3525 4666 
L 3525 4397 
L 1831 0 
L 1172 0 
L 2766 4134 
L 525 4134 
L 525 4666 
z
" transform="scale(0.015625)"/>
       </defs>
       <use xlink:href="#DejaVuSans-30"/>
       <use xlink:href="#DejaVuSans-2e" x="63.623047"/>
       <use xlink:href="#DejaVuSans-37" x="95.410156"/>
      </g>
     </g>
    </g>
    <g id="ytick_6">
     <g id="line2d_61">
      <g>
       <use xlink:href="#m44138b0ef5" x="105.601374" y="269.748276" style="fill: #1a1a1a; stroke: #1a1a1a; stroke-width: 1.875"/>
      </g>
     </g>
     <g id="text_14">
      <!-- 0.4 -->
      <g style="fill: #1a1a1a" transform="translate(66.861217 276.016987) scale(0.165 -0.165)">
       <use xlink:href="#DejaVuSans-30"/>
       <use xlink:href="#DejaVuSans-2e" x="63.623047"/>
       <use xlink:href="#DejaVuSans-34" x="95.410156"/>
      </g>
     </g>
    </g>
    <g id="ytick_7">
     <g id="line2d_62">
      <defs>
       <path id="mf35cceb84a" d="M 0 0 
L -6 0 
" style="stroke: #1a1a1a; stroke-width: 1.5"/>
      </defs>
      <g>
       <use xlink:href="#mf35cceb84a" x="105.601374" y="293.693401" style="fill: #1a1a1a; stroke: #1a1a1a; stroke-width: 1.5"/>
      </g>
     </g>
    </g>
    <g id="ytick_8">
     <g id="line2d_63">
      <g>
       <use xlink:href="#mf35cceb84a" x="105.601374" y="251.174994" style="fill: #1a1a1a; stroke: #1a1a1a; stroke-width: 1.5"/>
      </g>
     </g>
    </g>
    <g id="ytick_9">
     <g id="line2d_64">
      <g>
       <use xlink:href="#mf35cceb84a" x="105.601374" y="235.999518" style="fill: #1a1a1a; stroke: #1a1a1a; stroke-width: 1.5"/>
      </g>
     </g>
    </g>
    <g id="ytick_10">
     <g id="line2d_65">
      <g>
       <use xlink:href="#mf35cceb84a" x="105.601374" y="212.054394" style="fill: #1a1a1a; stroke: #1a1a1a; stroke-width: 1.5"/>
      </g>
     </g>
    </g>
    <g id="ytick_11">
     <g id="line2d_66">
      <g>
       <use xlink:href="#mf35cceb84a" x="105.601374" y="202.250761" style="fill: #1a1a1a; stroke: #1a1a1a; stroke-width: 1.5"/>
      </g>
     </g>
    </g>
    <g id="text_15">
     <!-- Loss -->
     <g style="fill: #262626" transform="translate(43.11778 262.232937) rotate(-90) scale(0.18 -0.18)">
      <defs>
       <path id="DejaVuSans-4c" d="M 628 4666 
L 1259 4666 
L 1259 531 
L 3531 531 
L 3531 0 
L 628 0 
L 628 4666 
z
" transform="scale(0.015625)"/>
       <path id="DejaVuSans-6f" d="M 1959 3097 
Q 1497 3097 1228 2736 
Q 959 2375 959 1747 
Q 959 1119 1226 758 
Q 1494 397 1959 397 
Q 2419 397 2687 759 
Q 2956 1122 2956 1747 
Q 2956 2369 2687 2733 
Q 2419 3097 1959 3097 
z
M 1959 3584 
Q 2709 3584 3137 3096 
Q 3566 2609 3566 1747 
Q 3566 888 3137 398 
Q 2709 -91 1959 -91 
Q 1206 -91 779 398 
Q 353 888 353 1747 
Q 353 2609 779 3096 
Q 1206 3584 1959 3584 
z
" transform="scale(0.015625)"/>
      </defs>
      <use xlink:href="#DejaVuSans-4c"/>
      <use xlink:href="#DejaVuSans-6f" x="53.962891"/>
      <use xlink:href="#DejaVuSans-73" x="115.144531"/>
      <use xlink:href="#DejaVuSans-73" x="167.244141"/>
     </g>
    </g>
   </g>
   <g id="line2d_67">
    <path d="M -1 226.143566 
L 111.110588 226.145692 
L 119.402872 226.652319 
L 124.253547 227.143818 
L 130.364675 228.083791 
L 134.389972 228.970212 
L 138.656959 230.208284 
L 141.795685 231.347281 
L 145.004991 232.729953 
L 148.621249 234.554497 
L 152.572008 236.838421 
L 157.669357 240.086399 
L 164.942878 244.713185 
L 168.58223 246.752716 
L 171.900633 248.358815 
L 175.192699 249.701265 
L 178.732656 250.897236 
L 182.995444 252.088007 
L 188.485201 253.378844 
L 192.43596 254.10579 
L 195.452875 254.436749 
L 198.961737 254.590814 
L 206.752269 254.635853 
L 221.294876 254.636324 
L 221.294876 254.636324 
" clip-path="url(#pe6be1194bf)" style="fill: none; stroke: #d65c00; stroke-width: 3; stroke-linecap: round"/>
   </g>
   <g id="line2d_68">
    <path d="M -1 226.138833 
L 111.110588 226.14094 
L 119.402872 226.6432 
L 124.253547 227.130631 
L 130.364675 228.063434 
L 134.389972 228.943703 
L 138.656959 230.174262 
L 141.795685 231.307413 
L 145.004991 232.684347 
L 148.621249 234.503512 
L 152.572008 236.784123 
L 157.669357 240.03363 
L 165.07507 244.75272 
L 168.776759 246.824387 
L 172.048329 248.40296 
L 175.305031 249.728496 
L 178.816315 250.914326 
L 183.024802 252.091724 
L 188.485201 253.378248 
L 192.422601 254.103873 
L 195.442494 254.435986 
L 199.061912 254.592887 
L 206.679421 254.635822 
L 221.294876 254.636308 
L 221.294876 254.636308 
" clip-path="url(#pe6be1194bf)" style="fill: none; stroke-dasharray: 3,6; stroke-dashoffset: 0; stroke: #000000; stroke-opacity: 0.7; stroke-width: 3"/>
   </g>
   <g id="line2d_69">
    <path d="M -1 251.459844 
L 138.656959 251.561822 
L 152.572008 251.807695 
L 161.232421 252.178719 
L 167.665449 252.674586 
L 172.829589 253.290525 
L 177.307838 254.045655 
L 181.326378 254.94819 
L 185.043592 256.010897 
L 188.651231 257.280441 
L 192.014724 258.69236 
L 195.483962 260.388141 
L 198.94625 262.325789 
L 202.591444 264.636105 
L 206.05018 267.100975 
L 209.475733 269.818375 
L 217.809718 276.613035 
L 219.652029 277.696722 
L 221.294876 278.433514 
L 221.294876 278.433514 
" clip-path="url(#pe6be1194bf)" style="fill: none; stroke: #0071b2; stroke-width: 3; stroke-linecap: round"/>
   </g>
   <g id="line2d_70">
    <path d="M -1 251.459829 
L 138.656959 251.561787 
L 152.572008 251.80759 
L 161.232421 252.178543 
L 167.665449 252.674293 
L 172.829589 253.290123 
L 177.307838 254.045136 
L 181.326378 254.94753 
L 185.043592 256.010135 
L 188.596144 257.258288 
L 192.069918 258.716506 
L 195.494306 260.39263 
L 199.015782 262.366385 
L 202.52269 264.589147 
L 205.860421 266.957943 
L 209.317235 269.686599 
L 218.030223 276.756599 
L 219.854812 277.799367 
L 221.294876 278.433521 
L 221.294876 278.433521 
" clip-path="url(#pe6be1194bf)" style="fill: none; stroke-dasharray: 3,6; stroke-dashoffset: 0; stroke: #000000; stroke-opacity: 0.7; stroke-width: 3"/>
   </g>
   <g id="line2d_71">
    <path d="M -1 256.745715 
L 151.799919 256.855786 
L 161.589559 257.076478 
L 166.203331 257.388359 
L 169.062746 257.792264 
L 171.212461 258.311556 
L 173.101493 258.996648 
L 175.248997 260.034684 
L 177.99689 261.347223 
L 179.622225 261.857525 
L 181.560631 262.218412 
L 184.116943 262.45176 
L 191.563759 262.772809 
L 196.9801 262.827541 
L 221.294876 262.828117 
L 221.294876 262.828117 
" clip-path="url(#pe6be1194bf)" style="fill: none; stroke: #009e73; stroke-width: 3; stroke-linecap: round"/>
   </g>
   <g id="line2d_72">
    <path d="M -1 256.745699 
L 151.799919 256.85619 
L 161.589559 257.078533 
L 166.083096 257.38126 
L 168.968175 257.783868 
L 171.133496 258.302351 
L 173.034094 258.987106 
L 175.192699 260.02527 
L 177.99689 261.356939 
L 179.66113 261.871594 
L 181.593724 262.224723 
L 184.17035 262.455419 
L 191.945372 262.784101 
L 197.489632 262.827763 
L 221.294876 262.828123 
L 221.294876 262.828123 
" clip-path="url(#pe6be1194bf)" style="fill: none; stroke-dasharray: 3,6; stroke-dashoffset: 0; stroke: #000000; stroke-opacity: 0.7; stroke-width: 3"/>
   </g>
   <g id="line2d_73">
    <path d="M -1 193.911032 
L 111.110588 193.917343 
L 119.402872 195.417747 
L 124.253547 196.870352 
L 127.695156 198.277532 
L 130.364675 199.641427 
L 132.545831 200.964058 
L 135.98744 203.493088 
L 138.656959 205.878427 
L 140.838115 208.132208 
L 143.507635 211.289586 
L 145.688791 214.206684 
L 148.089462 217.768227 
L 150.97454 222.511582 
L 153.981075 227.927298 
L 157.669357 235.060023 
L 169.524705 258.374265 
L 173.30144 265.085169 
L 176.972174 271.157382 
L 180.155706 276.012526 
L 182.667664 279.455504 
L 184.742614 281.934729 
L 186.575865 283.78851 
L 188.316834 285.238737 
L 190.082669 286.422076 
L 191.959274 287.411296 
L 194.02174 288.241924 
L 196.265103 288.900381 
L 198.632236 289.360405 
L 201.365221 289.650277 
L 205.354293 289.8023 
L 217.537667 289.860824 
L 221.294876 289.862664 
L 221.294876 289.862664 
" clip-path="url(#pe6be1194bf)" style="fill: none; stroke: #cc78a6; stroke-width: 3; stroke-linecap: round"/>
   </g>
   <g id="line2d_74">
    <path d="M -1 193.891599 
L 111.110588 193.89783 
L 119.402872 195.380453 
L 124.253547 196.816902 
L 127.695156 198.209344 
L 130.364675 199.559848 
L 132.545831 200.870323 
L 135.98744 203.3782 
L 138.656959 205.746042 
L 140.838115 207.985472 
L 143.507635 211.126045 
L 145.688791 214.03094 
L 148.089462 217.58158 
L 150.97454 222.316879 
L 153.981075 227.731552 
L 157.669357 234.874427 
L 169.793553 258.776977 
L 173.562942 265.472721 
L 177.212891 271.503395 
L 180.30386 276.205432 
L 182.757953 279.558242 
L 184.818572 282.010476 
L 186.64106 283.843871 
L 188.391956 285.292635 
L 190.163666 286.46959 
L 192.042353 287.450018 
L 194.11493 288.27493 
L 196.34241 288.919961 
L 198.711516 289.372697 
L 201.396828 289.652742 
L 205.055828 289.797131 
L 213.163032 289.851135 
L 221.294876 289.862656 
L 221.294876 289.862656 
" clip-path="url(#pe6be1194bf)" style="fill: none; stroke-dasharray: 3,6; stroke-dashoffset: 0; stroke: #000000; stroke-opacity: 0.7; stroke-width: 3"/>
   </g>
   <g id="line2d_75">
    <path d="M -1 214.998427 
L 134.389972 215.098724 
L 148.089462 215.347789 
L 156.381746 215.709349 
L 162.601139 216.195224 
L 167.559108 216.799164 
L 171.75109 217.528884 
L 175.416318 218.389166 
L 178.690606 219.381601 
L 181.692458 220.518125 
L 184.537672 221.83082 
L 187.25361 223.327172 
L 189.902521 225.038721 
L 192.581936 227.039502 
L 195.2857 229.338749 
L 198.145199 232.065817 
L 201.384195 235.477273 
L 205.440149 240.09425 
L 214.378778 250.374914 
L 217.677704 253.783604 
L 221.110406 256.98275 
L 221.294876 257.144659 
L 221.294876 257.144659 
" clip-path="url(#pe6be1194bf)" style="fill: none; stroke: #e59c00; stroke-width: 3; stroke-linecap: round"/>
   </g>
   <g id="line2d_76">
    <path d="M -1 214.998433 
L 134.389972 215.098704 
L 148.089462 215.347737 
L 156.381746 215.709206 
L 162.601139 216.194996 
L 167.559108 216.798836 
L 171.75109 217.52842 
L 175.416318 218.388571 
L 178.690606 219.380863 
L 181.72519 220.530964 
L 184.563482 221.842824 
L 187.294721 223.350551 
L 189.951921 225.07173 
L 192.608287 227.058972 
L 195.338194 229.384436 
L 198.211294 232.130413 
L 201.440938 235.537772 
L 205.56556 240.238982 
L 214.318908 250.309067 
L 217.73423 253.83831 
L 221.038503 256.918736 
L 221.294876 257.144046 
L 221.294876 257.144046 
" clip-path="url(#pe6be1194bf)" style="fill: none; stroke-dasharray: 3,6; stroke-dashoffset: 0; stroke: #000000; stroke-opacity: 0.7; stroke-width: 3"/>
   </g>
   <g id="patch_6">
    <path d="M 105.601374 299.436 
L 105.601374 185.548 
" style="fill: none; stroke: #262626; stroke-width: 1.875; stroke-linejoin: miter; stroke-linecap: square"/>
   </g>
   <g id="patch_7">
    <path d="M 105.601374 299.436 
L 226.804091 299.436 
" style="fill: none; stroke: #262626; stroke-width: 1.875; stroke-linejoin: miter; stroke-linecap: square"/>
   </g>
  </g>
 </g>
 <defs>
  <clipPath id="p9b1faa37e9">
   <rect x="105.601374" y="19.44" width="121.202717" height="113.888"/>
  </clipPath>
  <clipPath id="pe6be1194bf">
   <rect x="105.601374" y="185.548" width="121.202717" height="113.888"/>
  </clipPath>
 </defs>
</svg>
