<?xml version="1.0" encoding="utf-8" standalone="no"?>
<!DOCTYPE svg PUBLIC "-//W3C//DTD SVG 1.1//EN"
  "http://www.w3.org/Graphics/SVG/1.1/DTD/svg11.dtd">
<svg xmlns:xlink="http://www.w3.org/1999/xlink" width="136.8pt" height="432pt" viewBox="0 0 136.8 432" xmlns="http://www.w3.org/2000/svg" version="1.1">
 <metadata>
  <rdf:RDF xmlns:dc="http://purl.org/dc/elements/1.1/" xmlns:cc="http://creativecommons.org/ns#" xmlns:rdf="http://www.w3.org/1999/02/22-rdf-syntax-ns#">
   <cc:Work>
    <dc:type rdf:resource="http://purl.org/dc/dcmitype/StillImage"/>
    <dc:date>2024-06-04T19:16:11.858576</dc:date>
    <dc:format>image/svg+xml</dc:format>
    <dc:creator>
     <cc:Agent>
      <dc:title>Matplotlib v3.8.0, https://matplotlib.org/</dc:title>
     </cc:Agent>
    </dc:creator>
   </cc:Work>
  </rdf:RDF>
 </metadata>
 <defs>
  <style type="text/css">*{stroke-linejoin: round; stroke-linecap: butt}</style>
 </defs>
 <g id="figure_1">
  <g id="patch_1">
   <path d="M 0 432 
L 136.8 432 
L 136.8 0 
L 0 0 
z
" style="fill: #ffffff"/>
  </g>
  <g id="axes_1">
   <g id="patch_2">
    <path d="M 17.1 149.675294 
L 123.12 149.675294 
L 123.12 51.84 
L 17.1 51.84 
z
" style="fill: #ffffff"/>
   </g>
   <g id="matplotlib.axis_1">
    <g id="xtick_1">
     <g id="line2d_1">
      <defs>
       <path id="md2b505fbbe" d="M 0 0 
L 0 9 
" style="stroke: #1a1a1a; stroke-width: 1.875"/>
      </defs>
      <g>
       <use xlink:href="#md2b505fbbe" x="21.919091" y="149.675294" style="fill: #1a1a1a; stroke: #1a1a1a; stroke-width: 1.875"/>
      </g>
     </g>
    </g>
    <g id="xtick_2">
     <g id="line2d_2">
      <g>
       <use xlink:href="#md2b505fbbe" x="70.11" y="149.675294" style="fill: #1a1a1a; stroke: #1a1a1a; stroke-width: 1.875"/>
      </g>
     </g>
    </g>
    <g id="xtick_3">
     <g id="line2d_3">
      <g>
       <use xlink:href="#md2b505fbbe" x="118.300909" y="149.675294" style="fill: #1a1a1a; stroke: #1a1a1a; stroke-width: 1.875"/>
      </g>
     </g>
    </g>
   </g>
   <g id="matplotlib.axis_2">
    <g id="ytick_1">
     <g id="line2d_4">
      <defs>
       <path id="m541f7eb465" d="M 0 0 
L -9 0 
" style="stroke: #1a1a1a; stroke-width: 1.875"/>
      </defs>
      <g>
       <use xlink:href="#m541f7eb465" x="17.1" y="145.230171" style="fill: #1a1a1a; stroke: #1a1a1a; stroke-width: 1.875"/>
      </g>
     </g>
     <g id="text_1">
      <!-- 0 -->
      <g style="fill: #1a1a1a" transform="translate(-4.575547 151.135366) scale(0.165 -0.165)">
       <defs>
        <path id="ArialMT-30" d="M 266 2259 
Q 266 3072 433 3567 
Q 600 4063 929 4331 
Q 1259 4600 1759 4600 
Q 2128 4600 2406 4451 
Q 2684 4303 2865 4023 
Q 3047 3744 3150 3342 
Q 3253 2941 3253 2259 
Q 3253 1453 3087 958 
Q 2922 463 2592 192 
Q 2263 -78 1759 -78 
Q 1097 -78 719 397 
Q 266 969 266 2259 
z
M 844 2259 
Q 844 1131 1108 757 
Q 1372 384 1759 384 
Q 2147 384 2411 759 
Q 2675 1134 2675 2259 
Q 2675 3391 2411 3762 
Q 2147 4134 1753 4134 
Q 1366 4134 1134 3806 
Q 844 3388 844 2259 
z
" transform="scale(0.015625)"/>
       </defs>
       <use xlink:href="#ArialMT-30"/>
      </g>
     </g>
    </g>
    <g id="ytick_2">
     <g id="line2d_5">
      <g>
       <use xlink:href="#m541f7eb465" x="17.1" y="106.969899" style="fill: #1a1a1a; stroke: #1a1a1a; stroke-width: 1.875"/>
      </g>
     </g>
     <g id="text_2">
      <!-- 5 -->
      <g style="fill: #1a1a1a" transform="translate(-4.575547 112.875095) scale(0.165 -0.165)">
       <defs>
        <path id="ArialMT-35" d="M 266 1200 
L 856 1250 
Q 922 819 1161 601 
Q 1400 384 1738 384 
Q 2144 384 2425 690 
Q 2706 997 2706 1503 
Q 2706 1984 2436 2262 
Q 2166 2541 1728 2541 
Q 1456 2541 1237 2417 
Q 1019 2294 894 2097 
L 366 2166 
L 809 4519 
L 3088 4519 
L 3088 3981 
L 1259 3981 
L 1013 2750 
Q 1425 3038 1878 3038 
Q 2478 3038 2890 2622 
Q 3303 2206 3303 1553 
Q 3303 931 2941 478 
Q 2500 -78 1738 -78 
Q 1113 -78 717 272 
Q 322 622 266 1200 
z
" transform="scale(0.015625)"/>
       </defs>
       <use xlink:href="#ArialMT-35"/>
      </g>
     </g>
    </g>
    <g id="ytick_3">
     <g id="line2d_6">
      <g>
       <use xlink:href="#m541f7eb465" x="17.1" y="68.709628" style="fill: #1a1a1a; stroke: #1a1a1a; stroke-width: 1.875"/>
      </g>
     </g>
     <g id="text_3">
      <!-- 10 -->
      <g style="fill: #1a1a1a" transform="translate(-13.751094 74.614823) scale(0.165 -0.165)">
       <defs>
        <path id="ArialMT-31" d="M 2384 0 
L 1822 0 
L 1822 3584 
Q 1619 3391 1289 3197 
Q 959 3003 697 2906 
L 697 3450 
Q 1169 3672 1522 3987 
Q 1875 4303 2022 4600 
L 2384 4600 
L 2384 0 
z
" transform="scale(0.015625)"/>
       </defs>
       <use xlink:href="#ArialMT-31"/>
       <use xlink:href="#ArialMT-30" x="55.615234"/>
      </g>
     </g>
    </g>
   </g>
   <g id="PolyCollection_1">
    <defs>
     <path id="m6b7202b415" d="M 21.919091 -286.773147 
L 21.919091 -286.771765 
L 70.11 -287.102067 
L 118.300909 -287.119405 
L 118.300909 -287.440693 
L 118.300909 -287.440693 
L 70.11 -287.312963 
L 21.919091 -286.773147 
z
" style="stroke: #d65c00; stroke-opacity: 0.2; stroke-width: 1.5"/>
    </defs>
    <g clip-path="url(#pec50ad799b)">
     <use xlink:href="#m6b7202b415" x="0" y="432" style="fill: #d65c00; fill-opacity: 0.2; stroke: #d65c00; stroke-opacity: 0.2; stroke-width: 1.5"/>
    </g>
   </g>
   <g id="line2d_7">
    <path d="M 21.919091 145.227544 
L 70.11 144.792485 
L 118.300909 144.719951 
" clip-path="url(#pec50ad799b)" style="fill: none; stroke: #d65c00; stroke-width: 2.25; stroke-linecap: round"/>
   </g>
   <g id="patch_3">
    <path d="M 17.1 149.675294 
L 17.1 51.84 
" style="fill: none; stroke: #262626; stroke-width: 1.875; stroke-linejoin: miter; stroke-linecap: square"/>
   </g>
   <g id="patch_4">
    <path d="M 17.1 149.675294 
L 123.12 149.675294 
" style="fill: none; stroke: #262626; stroke-width: 1.875; stroke-linejoin: miter; stroke-linecap: square"/>
   </g>
  </g>
  <g id="axes_2">
   <g id="patch_5">
    <path d="M 17.1 267.077647 
L 123.12 267.077647 
L 123.12 169.242353 
L 17.1 169.242353 
z
" style="fill: #ffffff"/>
   </g>
   <g id="matplotlib.axis_3">
    <g id="xtick_4">
     <g id="line2d_8">
      <g>
       <use xlink:href="#md2b505fbbe" x="21.919091" y="267.077647" style="fill: #1a1a1a; stroke: #1a1a1a; stroke-width: 1.875"/>
      </g>
     </g>
    </g>
    <g id="xtick_5">
     <g id="line2d_9">
      <g>
       <use xlink:href="#md2b505fbbe" x="70.11" y="267.077647" style="fill: #1a1a1a; stroke: #1a1a1a; stroke-width: 1.875"/>
      </g>
     </g>
    </g>
    <g id="xtick_6">
     <g id="line2d_10">
      <g>
       <use xlink:href="#md2b505fbbe" x="118.300909" y="267.077647" style="fill: #1a1a1a; stroke: #1a1a1a; stroke-width: 1.875"/>
      </g>
     </g>
    </g>
   </g>
   <g id="matplotlib.axis_4">
    <g id="ytick_4">
     <g id="line2d_11">
      <g>
       <use xlink:href="#m541f7eb465" x="17.1" y="262.632524" style="fill: #1a1a1a; stroke: #1a1a1a; stroke-width: 1.875"/>
      </g>
     </g>
     <g id="text_4">
      <!-- 0 -->
      <g style="fill: #1a1a1a" transform="translate(-4.575547 268.537719) scale(0.165 -0.165)">
       <use xlink:href="#ArialMT-30"/>
      </g>
     </g>
    </g>
    <g id="ytick_5">
     <g id="line2d_12">
      <g>
       <use xlink:href="#m541f7eb465" x="17.1" y="224.372252" style="fill: #1a1a1a; stroke: #1a1a1a; stroke-width: 1.875"/>
      </g>
     </g>
     <g id="text_5">
      <!-- 5 -->
      <g style="fill: #1a1a1a" transform="translate(-4.575547 230.277448) scale(0.165 -0.165)">
       <use xlink:href="#ArialMT-35"/>
      </g>
     </g>
    </g>
    <g id="ytick_6">
     <g id="line2d_13">
      <g>
       <use xlink:href="#m541f7eb465" x="17.1" y="186.111981" style="fill: #1a1a1a; stroke: #1a1a1a; stroke-width: 1.875"/>
      </g>
     </g>
     <g id="text_6">
      <!-- 10 -->
      <g style="fill: #1a1a1a" transform="translate(-13.751094 192.017176) scale(0.165 -0.165)">
       <use xlink:href="#ArialMT-31"/>
       <use xlink:href="#ArialMT-30" x="55.615234"/>
      </g>
     </g>
    </g>
    <g id="text_7">
     <!-- $||W_1^{}W_1^T - W_2^TW_2^{}||_F$ -->
     <g style="fill: #262626" transform="translate(-22.791094 298.89) rotate(-90) scale(0.18 -0.18)">
      <defs>
       <path id="DejaVuSans-7c" d="M 1344 4891 
L 1344 -1509 
L 813 -1509 
L 813 4891 
L 1344 4891 
z
" transform="scale(0.015625)"/>
       <path id="DejaVuSans-Oblique-57" d="M 616 4666 
L 1228 4666 
L 1453 697 
L 3213 4666 
L 3916 4666 
L 4147 697 
L 5888 4666 
L 6528 4666 
L 4453 0 
L 3659 0 
L 3444 3891 
L 1697 0 
L 903 0 
L 616 4666 
z
" transform="scale(0.015625)"/>
       <path id="DejaVuSans-31" d="M 794 531 
L 1825 531 
L 1825 4091 
L 703 3866 
L 703 4441 
L 1819 4666 
L 2450 4666 
L 2450 531 
L 3481 531 
L 3481 0 
L 794 0 
L 794 531 
z
" transform="scale(0.015625)"/>
       <path id="DejaVuSans-Oblique-54" d="M 378 4666 
L 4325 4666 
L 4225 4134 
L 2559 4134 
L 1759 0 
L 1125 0 
L 1925 4134 
L 275 4134 
L 378 4666 
z
" transform="scale(0.015625)"/>
       <path id="DejaVuSans-2212" d="M 678 2272 
L 4684 2272 
L 4684 1741 
L 678 1741 
L 678 2272 
z
" transform="scale(0.015625)"/>
       <path id="DejaVuSans-32" d="M 1228 531 
L 3431 531 
L 3431 0 
L 469 0 
L 469 531 
Q 828 903 1448 1529 
Q 2069 2156 2228 2338 
Q 2531 2678 2651 2914 
Q 2772 3150 2772 3378 
Q 2772 3750 2511 3984 
Q 2250 4219 1831 4219 
Q 1534 4219 1204 4116 
Q 875 4013 500 3803 
L 500 4441 
Q 881 4594 1212 4672 
Q 1544 4750 1819 4750 
Q 2544 4750 2975 4387 
Q 3406 4025 3406 3419 
Q 3406 3131 3298 2873 
Q 3191 2616 2906 2266 
Q 2828 2175 2409 1742 
Q 1991 1309 1228 531 
z
" transform="scale(0.015625)"/>
       <path id="DejaVuSans-Oblique-46" d="M 1081 4666 
L 3756 4666 
L 3653 4134 
L 1606 4134 
L 1338 2759 
L 3188 2759 
L 3084 2228 
L 1234 2228 
L 800 0 
L 172 0 
L 1081 4666 
z
" transform="scale(0.015625)"/>
      </defs>
      <use xlink:href="#DejaVuSans-7c" transform="translate(0 0.684375)"/>
      <use xlink:href="#DejaVuSans-7c" transform="translate(33.691406 0.684375)"/>
      <use xlink:href="#DejaVuSans-Oblique-57" transform="translate(67.382812 0.684375)"/>
      <use xlink:href="#DejaVuSans-31" transform="translate(166.259766 -26.659375) scale(0.7)"/>
      <use xlink:href="#DejaVuSans-Oblique-57" transform="translate(213.530273 0.684375)"/>
      <use xlink:href="#DejaVuSans-Oblique-54" transform="translate(319.423997 38.965625) scale(0.7)"/>
      <use xlink:href="#DejaVuSans-31" transform="translate(312.407227 -26.659375) scale(0.7)"/>
      <use xlink:href="#DejaVuSans-2212" transform="translate(384.399583 0.684375)"/>
      <use xlink:href="#DejaVuSans-Oblique-57" transform="translate(487.671068 0.684375)"/>
      <use xlink:href="#DejaVuSans-Oblique-54" transform="translate(593.564792 38.965625) scale(0.7)"/>
      <use xlink:href="#DejaVuSans-32" transform="translate(586.548021 -26.659375) scale(0.7)"/>
      <use xlink:href="#DejaVuSans-Oblique-57" transform="translate(639.057956 0.684375)"/>
      <use xlink:href="#DejaVuSans-32" transform="translate(737.934909 -26.659375) scale(0.7)"/>
      <use xlink:href="#DejaVuSans-7c" transform="translate(785.205417 0.684375)"/>
      <use xlink:href="#DejaVuSans-7c" transform="translate(818.896823 0.684375)"/>
      <use xlink:href="#DejaVuSans-Oblique-46" transform="translate(853.54526 -15.721875) scale(0.7)"/>
     </g>
    </g>
   </g>
   <g id="PolyCollection_2">
    <defs>
     <path id="m0fb76e237b" d="M 21.919091 -169.370794 
L 21.919091 -169.369412 
L 70.11 -208.698498 
L 118.300909 -220.991688 
L 118.300909 -258.310588 
L 118.300909 -258.310588 
L 70.11 -229.965164 
L 21.919091 -169.370794 
z
" style="stroke: #0071b2; stroke-opacity: 0.2; stroke-width: 1.5"/>
    </defs>
    <g clip-path="url(#pd90573dca0)">
     <use xlink:href="#m0fb76e237b" x="0" y="432" style="fill: #0071b2; fill-opacity: 0.2; stroke: #0071b2; stroke-opacity: 0.2; stroke-width: 1.5"/>
    </g>
   </g>
   <g id="line2d_14">
    <path d="M 21.919091 262.629897 
L 70.11 212.668169 
L 118.300909 192.348862 
" clip-path="url(#pd90573dca0)" style="fill: none; stroke: #0071b2; stroke-width: 2.25; stroke-linecap: round"/>
   </g>
   <g id="patch_6">
    <path d="M 17.1 267.077647 
L 17.1 169.242353 
" style="fill: none; stroke: #262626; stroke-width: 1.875; stroke-linejoin: miter; stroke-linecap: square"/>
   </g>
   <g id="patch_7">
    <path d="M 17.1 267.077647 
L 123.12 267.077647 
" style="fill: none; stroke: #262626; stroke-width: 1.875; stroke-linejoin: miter; stroke-linecap: square"/>
   </g>
  </g>
  <g id="axes_3">
   <g id="patch_8">
    <path d="M 17.1 384.48 
L 123.12 384.48 
L 123.12 286.644706 
L 17.1 286.644706 
z
" style="fill: #ffffff"/>
   </g>
   <g id="matplotlib.axis_5">
    <g id="xtick_7">
     <g id="line2d_15">
      <g>
       <use xlink:href="#md2b505fbbe" x="21.919091" y="384.48" style="fill: #1a1a1a; stroke: #1a1a1a; stroke-width: 1.875"/>
      </g>
     </g>
     <g id="text_8">
      <!-- 0 -->
      <g style="fill: #1a1a1a" transform="translate(17.331317 408.790391) scale(0.165 -0.165)">
       <use xlink:href="#ArialMT-30"/>
      </g>
     </g>
    </g>
    <g id="xtick_8">
     <g id="line2d_16">
      <g>
       <use xlink:href="#md2b505fbbe" x="70.11" y="384.48" style="fill: #1a1a1a; stroke: #1a1a1a; stroke-width: 1.875"/>
      </g>
     </g>
     <g id="text_9">
      <!-- 1 -->
      <g style="fill: #1a1a1a" transform="translate(65.522227 408.790391) scale(0.165 -0.165)">
       <use xlink:href="#ArialMT-31"/>
      </g>
     </g>
    </g>
    <g id="xtick_9">
     <g id="line2d_17">
      <g>
       <use xlink:href="#md2b505fbbe" x="118.300909" y="384.48" style="fill: #1a1a1a; stroke: #1a1a1a; stroke-width: 1.875"/>
      </g>
     </g>
     <g id="text_10">
      <!-- 2 -->
      <g style="fill: #1a1a1a" transform="translate(113.713136 408.790391) scale(0.165 -0.165)">
       <defs>
        <path id="ArialMT-32" d="M 3222 541 
L 3222 0 
L 194 0 
Q 188 203 259 391 
Q 375 700 629 1000 
Q 884 1300 1366 1694 
Q 2113 2306 2375 2664 
Q 2638 3022 2638 3341 
Q 2638 3675 2398 3904 
Q 2159 4134 1775 4134 
Q 1369 4134 1125 3890 
Q 881 3647 878 3216 
L 300 3275 
Q 359 3922 746 4261 
Q 1134 4600 1788 4600 
Q 2447 4600 2831 4234 
Q 3216 3869 3216 3328 
Q 3216 3053 3103 2787 
Q 2991 2522 2730 2228 
Q 2469 1934 1863 1422 
Q 1356 997 1212 845 
Q 1069 694 975 541 
L 3222 541 
z
" transform="scale(0.015625)"/>
       </defs>
       <use xlink:href="#ArialMT-32"/>
      </g>
     </g>
    </g>
    <g id="text_11">
     <!-- After Task -->
     <g style="fill: #262626" transform="translate(30.261094 428.953828) scale(0.18 -0.18)">
      <defs>
       <path id="ArialMT-41" d="M -9 0 
L 1750 4581 
L 2403 4581 
L 4278 0 
L 3588 0 
L 3053 1388 
L 1138 1388 
L 634 0 
L -9 0 
z
M 1313 1881 
L 2866 1881 
L 2388 3150 
Q 2169 3728 2063 4100 
Q 1975 3659 1816 3225 
L 1313 1881 
z
" transform="scale(0.015625)"/>
       <path id="ArialMT-66" d="M 556 0 
L 556 2881 
L 59 2881 
L 59 3319 
L 556 3319 
L 556 3672 
Q 556 4006 616 4169 
Q 697 4388 901 4523 
Q 1106 4659 1475 4659 
Q 1713 4659 2000 4603 
L 1916 4113 
Q 1741 4144 1584 4144 
Q 1328 4144 1222 4034 
Q 1116 3925 1116 3625 
L 1116 3319 
L 1763 3319 
L 1763 2881 
L 1116 2881 
L 1116 0 
L 556 0 
z
" transform="scale(0.015625)"/>
       <path id="ArialMT-74" d="M 1650 503 
L 1731 6 
Q 1494 -44 1306 -44 
Q 1000 -44 831 53 
Q 663 150 594 308 
Q 525 466 525 972 
L 525 2881 
L 113 2881 
L 113 3319 
L 525 3319 
L 525 4141 
L 1084 4478 
L 1084 3319 
L 1650 3319 
L 1650 2881 
L 1084 2881 
L 1084 941 
Q 1084 700 1114 631 
Q 1144 563 1211 522 
Q 1278 481 1403 481 
Q 1497 481 1650 503 
z
" transform="scale(0.015625)"/>
       <path id="ArialMT-65" d="M 2694 1069 
L 3275 997 
Q 3138 488 2766 206 
Q 2394 -75 1816 -75 
Q 1088 -75 661 373 
Q 234 822 234 1631 
Q 234 2469 665 2931 
Q 1097 3394 1784 3394 
Q 2450 3394 2872 2941 
Q 3294 2488 3294 1666 
Q 3294 1616 3291 1516 
L 816 1516 
Q 847 969 1125 678 
Q 1403 388 1819 388 
Q 2128 388 2347 550 
Q 2566 713 2694 1069 
z
M 847 1978 
L 2700 1978 
Q 2663 2397 2488 2606 
Q 2219 2931 1791 2931 
Q 1403 2931 1139 2672 
Q 875 2413 847 1978 
z
" transform="scale(0.015625)"/>
       <path id="ArialMT-72" d="M 416 0 
L 416 3319 
L 922 3319 
L 922 2816 
Q 1116 3169 1280 3281 
Q 1444 3394 1641 3394 
Q 1925 3394 2219 3213 
L 2025 2691 
Q 1819 2813 1613 2813 
Q 1428 2813 1281 2702 
Q 1134 2591 1072 2394 
Q 978 2094 978 1738 
L 978 0 
L 416 0 
z
" transform="scale(0.015625)"/>
       <path id="ArialMT-20" transform="scale(0.015625)"/>
       <path id="ArialMT-54" d="M 1659 0 
L 1659 4041 
L 150 4041 
L 150 4581 
L 3781 4581 
L 3781 4041 
L 2266 4041 
L 2266 0 
L 1659 0 
z
" transform="scale(0.015625)"/>
       <path id="ArialMT-61" d="M 2588 409 
Q 2275 144 1986 34 
Q 1697 -75 1366 -75 
Q 819 -75 525 192 
Q 231 459 231 875 
Q 231 1119 342 1320 
Q 453 1522 633 1644 
Q 813 1766 1038 1828 
Q 1203 1872 1538 1913 
Q 2219 1994 2541 2106 
Q 2544 2222 2544 2253 
Q 2544 2597 2384 2738 
Q 2169 2928 1744 2928 
Q 1347 2928 1158 2789 
Q 969 2650 878 2297 
L 328 2372 
Q 403 2725 575 2942 
Q 747 3159 1072 3276 
Q 1397 3394 1825 3394 
Q 2250 3394 2515 3294 
Q 2781 3194 2906 3042 
Q 3031 2891 3081 2659 
Q 3109 2516 3109 2141 
L 3109 1391 
Q 3109 606 3145 398 
Q 3181 191 3288 0 
L 2700 0 
Q 2613 175 2588 409 
z
M 2541 1666 
Q 2234 1541 1622 1453 
Q 1275 1403 1131 1340 
Q 988 1278 909 1158 
Q 831 1038 831 891 
Q 831 666 1001 516 
Q 1172 366 1500 366 
Q 1825 366 2078 508 
Q 2331 650 2450 897 
Q 2541 1088 2541 1459 
L 2541 1666 
z
" transform="scale(0.015625)"/>
       <path id="ArialMT-73" d="M 197 991 
L 753 1078 
Q 800 744 1014 566 
Q 1228 388 1613 388 
Q 2000 388 2187 545 
Q 2375 703 2375 916 
Q 2375 1106 2209 1216 
Q 2094 1291 1634 1406 
Q 1016 1563 777 1677 
Q 538 1791 414 1992 
Q 291 2194 291 2438 
Q 291 2659 392 2848 
Q 494 3038 669 3163 
Q 800 3259 1026 3326 
Q 1253 3394 1513 3394 
Q 1903 3394 2198 3281 
Q 2494 3169 2634 2976 
Q 2775 2784 2828 2463 
L 2278 2388 
Q 2241 2644 2061 2787 
Q 1881 2931 1553 2931 
Q 1166 2931 1000 2803 
Q 834 2675 834 2503 
Q 834 2394 903 2306 
Q 972 2216 1119 2156 
Q 1203 2125 1616 2013 
Q 2213 1853 2448 1751 
Q 2684 1650 2818 1456 
Q 2953 1263 2953 975 
Q 2953 694 2789 445 
Q 2625 197 2315 61 
Q 2006 -75 1616 -75 
Q 969 -75 630 194 
Q 291 463 197 991 
z
" transform="scale(0.015625)"/>
       <path id="ArialMT-6b" d="M 425 0 
L 425 4581 
L 988 4581 
L 988 1969 
L 2319 3319 
L 3047 3319 
L 1778 2088 
L 3175 0 
L 2481 0 
L 1384 1697 
L 988 1316 
L 988 0 
L 425 0 
z
" transform="scale(0.015625)"/>
      </defs>
      <use xlink:href="#ArialMT-41"/>
      <use xlink:href="#ArialMT-66" x="66.699219"/>
      <use xlink:href="#ArialMT-74" x="94.482422"/>
      <use xlink:href="#ArialMT-65" x="122.265625"/>
      <use xlink:href="#ArialMT-72" x="177.880859"/>
      <use xlink:href="#ArialMT-20" x="211.181641"/>
      <use xlink:href="#ArialMT-54" x="237.214844"/>
      <use xlink:href="#ArialMT-61" x="287.173828"/>
      <use xlink:href="#ArialMT-73" x="342.789062"/>
      <use xlink:href="#ArialMT-6b" x="392.789062"/>
     </g>
    </g>
   </g>
   <g id="matplotlib.axis_6">
    <g id="ytick_7">
     <g id="line2d_18">
      <g>
       <use xlink:href="#m541f7eb465" x="17.1" y="380.034877" style="fill: #1a1a1a; stroke: #1a1a1a; stroke-width: 1.875"/>
      </g>
     </g>
     <g id="text_12">
      <!-- 0 -->
      <g style="fill: #1a1a1a" transform="translate(-4.575547 385.940072) scale(0.165 -0.165)">
       <use xlink:href="#ArialMT-30"/>
      </g>
     </g>
    </g>
    <g id="ytick_8">
     <g id="line2d_19">
      <g>
       <use xlink:href="#m541f7eb465" x="17.1" y="341.774605" style="fill: #1a1a1a; stroke: #1a1a1a; stroke-width: 1.875"/>
      </g>
     </g>
     <g id="text_13">
      <!-- 5 -->
      <g style="fill: #1a1a1a" transform="translate(-4.575547 347.679801) scale(0.165 -0.165)">
       <use xlink:href="#ArialMT-35"/>
      </g>
     </g>
    </g>
    <g id="ytick_9">
     <g id="line2d_20">
      <g>
       <use xlink:href="#m541f7eb465" x="17.1" y="303.514334" style="fill: #1a1a1a; stroke: #1a1a1a; stroke-width: 1.875"/>
      </g>
     </g>
     <g id="text_14">
      <!-- 10 -->
      <g style="fill: #1a1a1a" transform="translate(-13.751094 309.419529) scale(0.165 -0.165)">
       <use xlink:href="#ArialMT-31"/>
       <use xlink:href="#ArialMT-30" x="55.615234"/>
      </g>
     </g>
    </g>
   </g>
   <g id="PolyCollection_3">
    <defs>
     <path id="m4429dbcb0e" d="M 21.919091 -51.968441 
L 21.919091 -51.967059 
L 70.11 -77.209015 
L 118.300909 -89.311144 
L 118.300909 -107.850192 
L 118.300909 -107.850192 
L 70.11 -94.319447 
L 21.919091 -51.968441 
z
" style="stroke: #009e73; stroke-opacity: 0.2; stroke-width: 1.5"/>
    </defs>
    <g clip-path="url(#pc8f31538d2)">
     <use xlink:href="#m4429dbcb0e" x="0" y="432" style="fill: #009e73; fill-opacity: 0.2; stroke: #009e73; stroke-opacity: 0.2; stroke-width: 1.5"/>
    </g>
   </g>
   <g id="line2d_21">
    <path d="M 21.919091 380.03225 
L 70.11 346.235769 
L 118.300909 333.419332 
" clip-path="url(#pc8f31538d2)" style="fill: none; stroke: #009e73; stroke-width: 2.25; stroke-linecap: round"/>
   </g>
   <g id="patch_9">
    <path d="M 17.1 384.48 
L 17.1 286.644706 
" style="fill: none; stroke: #262626; stroke-width: 1.875; stroke-linejoin: miter; stroke-linecap: square"/>
   </g>
   <g id="patch_10">
    <path d="M 17.1 384.48 
L 123.12 384.48 
" style="fill: none; stroke: #262626; stroke-width: 1.875; stroke-linejoin: miter; stroke-linecap: square"/>
   </g>
  </g>
 </g>
 <defs>
  <clipPath id="pec50ad799b">
   <rect x="17.1" y="51.84" width="106.02" height="97.835294"/>
  </clipPath>
  <clipPath id="pd90573dca0">
   <rect x="17.1" y="169.242353" width="106.02" height="97.835294"/>
  </clipPath>
  <clipPath id="pc8f31538d2">
   <rect x="17.1" y="286.644706" width="106.02" height="97.835294"/>
  </clipPath>
 </defs>
</svg>
