<?xml version="1.0" encoding="utf-8" standalone="no"?>
<!DOCTYPE svg PUBLIC "-//W3C//DTD SVG 1.1//EN"
  "http://www.w3.org/Graphics/SVG/1.1/DTD/svg11.dtd">
<svg xmlns:xlink="http://www.w3.org/1999/xlink" width="223.2pt" height="201.6pt" viewBox="0 0 223.2 201.6" xmlns="http://www.w3.org/2000/svg" version="1.1">
 <metadata>
  <rdf:RDF xmlns:dc="http://purl.org/dc/elements/1.1/" xmlns:cc="http://creativecommons.org/ns#" xmlns:rdf="http://www.w3.org/1999/02/22-rdf-syntax-ns#">
   <cc:Work>
    <dc:type rdf:resource="http://purl.org/dc/dcmitype/StillImage"/>
    <dc:date>2024-06-04T21:31:01.028908</dc:date>
    <dc:format>image/svg+xml</dc:format>
    <dc:creator>
     <cc:Agent>
      <dc:title>Matplotlib v3.8.0, https://matplotlib.org/</dc:title>
     </cc:Agent>
    </dc:creator>
   </cc:Work>
  </rdf:RDF>
 </metadata>
 <defs>
  <style type="text/css">*{stroke-linejoin: round; stroke-linecap: butt}</style>
 </defs>
 <g id="figure_1">
  <g id="patch_1">
   <path d="M 0 201.6 
L 223.2 201.6 
L 223.2 0 
L 0 0 
z
" style="fill: #ffffff"/>
  </g>
  <g id="axes_1">
   <g id="patch_2">
    <path d="M 89.976 125.504531 
L 203.76 125.504531 
L 203.76 19.44 
L 89.976 19.44 
z
" style="fill: #ffffff"/>
   </g>
   <g id="matplotlib.axis_1">
    <g id="xtick_1">
     <g id="line2d_1">
      <defs>
       <path id="m052933b284" d="M 0 0 
L 0 9 
" style="stroke: #1a1a1a; stroke-width: 1.875"/>
      </defs>
      <g>
       <use xlink:href="#m052933b284" x="95.148" y="125.504531" style="fill: #1a1a1a; stroke: #1a1a1a; stroke-width: 1.875"/>
      </g>
     </g>
     <g id="text_1">
      <!-- $\mathdefault{10^{0}}$ -->
      <g style="fill: #1a1a1a" transform="translate(82.1955 155.020156) scale(0.165 -0.165)">
       <defs>
        <path id="ArialMT-31" d="M 2384 0 
L 1822 0 
L 1822 3584 
Q 1619 3391 1289 3197 
Q 959 3003 697 2906 
L 697 3450 
Q 1169 3672 1522 3987 
Q 1875 4303 2022 4600 
L 2384 4600 
L 2384 0 
z
" transform="scale(0.015625)"/>
        <path id="ArialMT-30" d="M 266 2259 
Q 266 3072 433 3567 
Q 600 4063 929 4331 
Q 1259 4600 1759 4600 
Q 2128 4600 2406 4451 
Q 2684 4303 2865 4023 
Q 3047 3744 3150 3342 
Q 3253 2941 3253 2259 
Q 3253 1453 3087 958 
Q 2922 463 2592 192 
Q 2263 -78 1759 -78 
Q 1097 -78 719 397 
Q 266 969 266 2259 
z
M 844 2259 
Q 844 1131 1108 757 
Q 1372 384 1759 384 
Q 2147 384 2411 759 
Q 2675 1134 2675 2259 
Q 2675 3391 2411 3762 
Q 2147 4134 1753 4134 
Q 1366 4134 1134 3806 
Q 844 3388 844 2259 
z
" transform="scale(0.015625)"/>
       </defs>
       <use xlink:href="#ArialMT-31" transform="translate(0 0.99375)"/>
       <use xlink:href="#ArialMT-30" transform="translate(55.615234 0.99375)"/>
       <use xlink:href="#ArialMT-30" transform="translate(112.972813 70.6875) scale(0.7)"/>
      </g>
     </g>
    </g>
    <g id="xtick_2">
     <g id="line2d_2">
      <g>
       <use xlink:href="#m052933b284" x="134.901119" y="125.504531" style="fill: #1a1a1a; stroke: #1a1a1a; stroke-width: 1.875"/>
      </g>
     </g>
     <g id="text_2">
      <!-- $\mathdefault{10^{1}}$ -->
      <g style="fill: #1a1a1a" transform="translate(121.948619 155.020156) scale(0.165 -0.165)">
       <use xlink:href="#ArialMT-31" transform="translate(0 0.99375)"/>
       <use xlink:href="#ArialMT-30" transform="translate(55.615234 0.99375)"/>
       <use xlink:href="#ArialMT-31" transform="translate(112.972813 70.6875) scale(0.7)"/>
      </g>
     </g>
    </g>
    <g id="xtick_3">
     <g id="line2d_3">
      <g>
       <use xlink:href="#m052933b284" x="174.654238" y="125.504531" style="fill: #1a1a1a; stroke: #1a1a1a; stroke-width: 1.875"/>
      </g>
     </g>
     <g id="text_3">
      <!-- $\mathdefault{10^{2}}$ -->
      <g style="fill: #1a1a1a" transform="translate(161.701738 155.020156) scale(0.165 -0.165)">
       <defs>
        <path id="ArialMT-32" d="M 3222 541 
L 3222 0 
L 194 0 
Q 188 203 259 391 
Q 375 700 629 1000 
Q 884 1300 1366 1694 
Q 2113 2306 2375 2664 
Q 2638 3022 2638 3341 
Q 2638 3675 2398 3904 
Q 2159 4134 1775 4134 
Q 1369 4134 1125 3890 
Q 881 3647 878 3216 
L 300 3275 
Q 359 3922 746 4261 
Q 1134 4600 1788 4600 
Q 2447 4600 2831 4234 
Q 3216 3869 3216 3328 
Q 3216 3053 3103 2787 
Q 2991 2522 2730 2228 
Q 2469 1934 1863 1422 
Q 1356 997 1212 845 
Q 1069 694 975 541 
L 3222 541 
z
" transform="scale(0.015625)"/>
       </defs>
       <use xlink:href="#ArialMT-31" transform="translate(0 0.99375)"/>
       <use xlink:href="#ArialMT-30" transform="translate(55.615234 0.99375)"/>
       <use xlink:href="#ArialMT-32" transform="translate(112.972813 70.6875) scale(0.7)"/>
      </g>
     </g>
    </g>
    <g id="xtick_4">
     <g id="line2d_4">
      <defs>
       <path id="m031a652fb9" d="M 0 0 
L 0 6 
" style="stroke: #1a1a1a; stroke-width: 1.5"/>
      </defs>
      <g>
       <use xlink:href="#m031a652fb9" x="91.295525" y="125.504531" style="fill: #1a1a1a; stroke: #1a1a1a; stroke-width: 1.5"/>
      </g>
     </g>
    </g>
    <g id="xtick_5">
     <g id="line2d_5">
      <g>
       <use xlink:href="#m031a652fb9" x="93.328997" y="125.504531" style="fill: #1a1a1a; stroke: #1a1a1a; stroke-width: 1.5"/>
      </g>
     </g>
    </g>
    <g id="xtick_6">
     <g id="line2d_6">
      <g>
       <use xlink:href="#m031a652fb9" x="107.114881" y="125.504531" style="fill: #1a1a1a; stroke: #1a1a1a; stroke-width: 1.5"/>
      </g>
     </g>
    </g>
    <g id="xtick_7">
     <g id="line2d_7">
      <g>
       <use xlink:href="#m031a652fb9" x="114.115058" y="125.504531" style="fill: #1a1a1a; stroke: #1a1a1a; stroke-width: 1.5"/>
      </g>
     </g>
    </g>
    <g id="xtick_8">
     <g id="line2d_8">
      <g>
       <use xlink:href="#m031a652fb9" x="119.081762" y="125.504531" style="fill: #1a1a1a; stroke: #1a1a1a; stroke-width: 1.5"/>
      </g>
     </g>
    </g>
    <g id="xtick_9">
     <g id="line2d_9">
      <g>
       <use xlink:href="#m031a652fb9" x="122.934238" y="125.504531" style="fill: #1a1a1a; stroke: #1a1a1a; stroke-width: 1.5"/>
      </g>
     </g>
    </g>
    <g id="xtick_10">
     <g id="line2d_10">
      <g>
       <use xlink:href="#m031a652fb9" x="126.081939" y="125.504531" style="fill: #1a1a1a; stroke: #1a1a1a; stroke-width: 1.5"/>
      </g>
     </g>
    </g>
    <g id="xtick_11">
     <g id="line2d_11">
      <g>
       <use xlink:href="#m031a652fb9" x="128.743283" y="125.504531" style="fill: #1a1a1a; stroke: #1a1a1a; stroke-width: 1.5"/>
      </g>
     </g>
    </g>
    <g id="xtick_12">
     <g id="line2d_12">
      <g>
       <use xlink:href="#m031a652fb9" x="131.048644" y="125.504531" style="fill: #1a1a1a; stroke: #1a1a1a; stroke-width: 1.5"/>
      </g>
     </g>
    </g>
    <g id="xtick_13">
     <g id="line2d_13">
      <g>
       <use xlink:href="#m031a652fb9" x="133.082116" y="125.504531" style="fill: #1a1a1a; stroke: #1a1a1a; stroke-width: 1.5"/>
      </g>
     </g>
    </g>
    <g id="xtick_14">
     <g id="line2d_14">
      <g>
       <use xlink:href="#m031a652fb9" x="146.868" y="125.504531" style="fill: #1a1a1a; stroke: #1a1a1a; stroke-width: 1.5"/>
      </g>
     </g>
    </g>
    <g id="xtick_15">
     <g id="line2d_15">
      <g>
       <use xlink:href="#m031a652fb9" x="153.868177" y="125.504531" style="fill: #1a1a1a; stroke: #1a1a1a; stroke-width: 1.5"/>
      </g>
     </g>
    </g>
    <g id="xtick_16">
     <g id="line2d_16">
      <g>
       <use xlink:href="#m031a652fb9" x="158.834881" y="125.504531" style="fill: #1a1a1a; stroke: #1a1a1a; stroke-width: 1.5"/>
      </g>
     </g>
    </g>
    <g id="xtick_17">
     <g id="line2d_17">
      <g>
       <use xlink:href="#m031a652fb9" x="162.687356" y="125.504531" style="fill: #1a1a1a; stroke: #1a1a1a; stroke-width: 1.5"/>
      </g>
     </g>
    </g>
    <g id="xtick_18">
     <g id="line2d_18">
      <g>
       <use xlink:href="#m031a652fb9" x="165.835058" y="125.504531" style="fill: #1a1a1a; stroke: #1a1a1a; stroke-width: 1.5"/>
      </g>
     </g>
    </g>
    <g id="xtick_19">
     <g id="line2d_19">
      <g>
       <use xlink:href="#m031a652fb9" x="168.496402" y="125.504531" style="fill: #1a1a1a; stroke: #1a1a1a; stroke-width: 1.5"/>
      </g>
     </g>
    </g>
    <g id="xtick_20">
     <g id="line2d_20">
      <g>
       <use xlink:href="#m031a652fb9" x="170.801762" y="125.504531" style="fill: #1a1a1a; stroke: #1a1a1a; stroke-width: 1.5"/>
      </g>
     </g>
    </g>
    <g id="xtick_21">
     <g id="line2d_21">
      <g>
       <use xlink:href="#m031a652fb9" x="172.835235" y="125.504531" style="fill: #1a1a1a; stroke: #1a1a1a; stroke-width: 1.5"/>
      </g>
     </g>
    </g>
    <g id="xtick_22">
     <g id="line2d_22">
      <g>
       <use xlink:href="#m031a652fb9" x="186.621119" y="125.504531" style="fill: #1a1a1a; stroke: #1a1a1a; stroke-width: 1.5"/>
      </g>
     </g>
    </g>
    <g id="xtick_23">
     <g id="line2d_23">
      <g>
       <use xlink:href="#m031a652fb9" x="193.621296" y="125.504531" style="fill: #1a1a1a; stroke: #1a1a1a; stroke-width: 1.5"/>
      </g>
     </g>
    </g>
    <g id="xtick_24">
     <g id="line2d_24">
      <g>
       <use xlink:href="#m031a652fb9" x="198.588" y="125.504531" style="fill: #1a1a1a; stroke: #1a1a1a; stroke-width: 1.5"/>
      </g>
     </g>
    </g>
    <g id="xtick_25">
     <g id="line2d_25">
      <g>
       <use xlink:href="#m031a652fb9" x="202.440475" y="125.504531" style="fill: #1a1a1a; stroke: #1a1a1a; stroke-width: 1.5"/>
      </g>
     </g>
    </g>
    <g id="text_4">
     <!-- Training Step -->
     <g style="fill: #262626" transform="translate(93.679406 175.402969) scale(0.18 -0.18)">
      <defs>
       <path id="ArialMT-54" d="M 1659 0 
L 1659 4041 
L 150 4041 
L 150 4581 
L 3781 4581 
L 3781 4041 
L 2266 4041 
L 2266 0 
L 1659 0 
z
" transform="scale(0.015625)"/>
       <path id="ArialMT-72" d="M 416 0 
L 416 3319 
L 922 3319 
L 922 2816 
Q 1116 3169 1280 3281 
Q 1444 3394 1641 3394 
Q 1925 3394 2219 3213 
L 2025 2691 
Q 1819 2813 1613 2813 
Q 1428 2813 1281 2702 
Q 1134 2591 1072 2394 
Q 978 2094 978 1738 
L 978 0 
L 416 0 
z
" transform="scale(0.015625)"/>
       <path id="ArialMT-61" d="M 2588 409 
Q 2275 144 1986 34 
Q 1697 -75 1366 -75 
Q 819 -75 525 192 
Q 231 459 231 875 
Q 231 1119 342 1320 
Q 453 1522 633 1644 
Q 813 1766 1038 1828 
Q 1203 1872 1538 1913 
Q 2219 1994 2541 2106 
Q 2544 2222 2544 2253 
Q 2544 2597 2384 2738 
Q 2169 2928 1744 2928 
Q 1347 2928 1158 2789 
Q 969 2650 878 2297 
L 328 2372 
Q 403 2725 575 2942 
Q 747 3159 1072 3276 
Q 1397 3394 1825 3394 
Q 2250 3394 2515 3294 
Q 2781 3194 2906 3042 
Q 3031 2891 3081 2659 
Q 3109 2516 3109 2141 
L 3109 1391 
Q 3109 606 3145 398 
Q 3181 191 3288 0 
L 2700 0 
Q 2613 175 2588 409 
z
M 2541 1666 
Q 2234 1541 1622 1453 
Q 1275 1403 1131 1340 
Q 988 1278 909 1158 
Q 831 1038 831 891 
Q 831 666 1001 516 
Q 1172 366 1500 366 
Q 1825 366 2078 508 
Q 2331 650 2450 897 
Q 2541 1088 2541 1459 
L 2541 1666 
z
" transform="scale(0.015625)"/>
       <path id="ArialMT-69" d="M 425 3934 
L 425 4581 
L 988 4581 
L 988 3934 
L 425 3934 
z
M 425 0 
L 425 3319 
L 988 3319 
L 988 0 
L 425 0 
z
" transform="scale(0.015625)"/>
       <path id="ArialMT-6e" d="M 422 0 
L 422 3319 
L 928 3319 
L 928 2847 
Q 1294 3394 1984 3394 
Q 2284 3394 2536 3286 
Q 2788 3178 2913 3003 
Q 3038 2828 3088 2588 
Q 3119 2431 3119 2041 
L 3119 0 
L 2556 0 
L 2556 2019 
Q 2556 2363 2490 2533 
Q 2425 2703 2258 2804 
Q 2091 2906 1866 2906 
Q 1506 2906 1245 2678 
Q 984 2450 984 1813 
L 984 0 
L 422 0 
z
" transform="scale(0.015625)"/>
       <path id="ArialMT-67" d="M 319 -275 
L 866 -356 
Q 900 -609 1056 -725 
Q 1266 -881 1628 -881 
Q 2019 -881 2231 -725 
Q 2444 -569 2519 -288 
Q 2563 -116 2559 434 
Q 2191 0 1641 0 
Q 956 0 581 494 
Q 206 988 206 1678 
Q 206 2153 378 2554 
Q 550 2956 876 3175 
Q 1203 3394 1644 3394 
Q 2231 3394 2613 2919 
L 2613 3319 
L 3131 3319 
L 3131 450 
Q 3131 -325 2973 -648 
Q 2816 -972 2473 -1159 
Q 2131 -1347 1631 -1347 
Q 1038 -1347 672 -1080 
Q 306 -813 319 -275 
z
M 784 1719 
Q 784 1066 1043 766 
Q 1303 466 1694 466 
Q 2081 466 2343 764 
Q 2606 1063 2606 1700 
Q 2606 2309 2336 2618 
Q 2066 2928 1684 2928 
Q 1309 2928 1046 2623 
Q 784 2319 784 1719 
z
" transform="scale(0.015625)"/>
       <path id="ArialMT-20" transform="scale(0.015625)"/>
       <path id="ArialMT-53" d="M 288 1472 
L 859 1522 
Q 900 1178 1048 958 
Q 1197 738 1509 602 
Q 1822 466 2213 466 
Q 2559 466 2825 569 
Q 3091 672 3220 851 
Q 3350 1031 3350 1244 
Q 3350 1459 3225 1620 
Q 3100 1781 2813 1891 
Q 2628 1963 1997 2114 
Q 1366 2266 1113 2400 
Q 784 2572 623 2826 
Q 463 3081 463 3397 
Q 463 3744 659 4045 
Q 856 4347 1234 4503 
Q 1613 4659 2075 4659 
Q 2584 4659 2973 4495 
Q 3363 4331 3572 4012 
Q 3781 3694 3797 3291 
L 3216 3247 
Q 3169 3681 2898 3903 
Q 2628 4125 2100 4125 
Q 1550 4125 1298 3923 
Q 1047 3722 1047 3438 
Q 1047 3191 1225 3031 
Q 1400 2872 2139 2705 
Q 2878 2538 3153 2413 
Q 3553 2228 3743 1945 
Q 3934 1663 3934 1294 
Q 3934 928 3725 604 
Q 3516 281 3123 101 
Q 2731 -78 2241 -78 
Q 1619 -78 1198 103 
Q 778 284 539 648 
Q 300 1013 288 1472 
z
" transform="scale(0.015625)"/>
       <path id="ArialMT-74" d="M 1650 503 
L 1731 6 
Q 1494 -44 1306 -44 
Q 1000 -44 831 53 
Q 663 150 594 308 
Q 525 466 525 972 
L 525 2881 
L 113 2881 
L 113 3319 
L 525 3319 
L 525 4141 
L 1084 4478 
L 1084 3319 
L 1650 3319 
L 1650 2881 
L 1084 2881 
L 1084 941 
Q 1084 700 1114 631 
Q 1144 563 1211 522 
Q 1278 481 1403 481 
Q 1497 481 1650 503 
z
" transform="scale(0.015625)"/>
       <path id="ArialMT-65" d="M 2694 1069 
L 3275 997 
Q 3138 488 2766 206 
Q 2394 -75 1816 -75 
Q 1088 -75 661 373 
Q 234 822 234 1631 
Q 234 2469 665 2931 
Q 1097 3394 1784 3394 
Q 2450 3394 2872 2941 
Q 3294 2488 3294 1666 
Q 3294 1616 3291 1516 
L 816 1516 
Q 847 969 1125 678 
Q 1403 388 1819 388 
Q 2128 388 2347 550 
Q 2566 713 2694 1069 
z
M 847 1978 
L 2700 1978 
Q 2663 2397 2488 2606 
Q 2219 2931 1791 2931 
Q 1403 2931 1139 2672 
Q 875 2413 847 1978 
z
" transform="scale(0.015625)"/>
       <path id="ArialMT-70" d="M 422 -1272 
L 422 3319 
L 934 3319 
L 934 2888 
Q 1116 3141 1344 3267 
Q 1572 3394 1897 3394 
Q 2322 3394 2647 3175 
Q 2972 2956 3137 2557 
Q 3303 2159 3303 1684 
Q 3303 1175 3120 767 
Q 2938 359 2589 142 
Q 2241 -75 1856 -75 
Q 1575 -75 1351 44 
Q 1128 163 984 344 
L 984 -1272 
L 422 -1272 
z
M 931 1641 
Q 931 1000 1190 694 
Q 1450 388 1819 388 
Q 2194 388 2461 705 
Q 2728 1022 2728 1688 
Q 2728 2322 2467 2637 
Q 2206 2953 1844 2953 
Q 1484 2953 1207 2617 
Q 931 2281 931 1641 
z
" transform="scale(0.015625)"/>
      </defs>
      <use xlink:href="#ArialMT-54"/>
      <use xlink:href="#ArialMT-72" x="57.333984"/>
      <use xlink:href="#ArialMT-61" x="90.634766"/>
      <use xlink:href="#ArialMT-69" x="146.25"/>
      <use xlink:href="#ArialMT-6e" x="168.466797"/>
      <use xlink:href="#ArialMT-69" x="224.082031"/>
      <use xlink:href="#ArialMT-6e" x="246.298828"/>
      <use xlink:href="#ArialMT-67" x="301.914062"/>
      <use xlink:href="#ArialMT-20" x="357.529297"/>
      <use xlink:href="#ArialMT-53" x="385.3125"/>
      <use xlink:href="#ArialMT-74" x="452.011719"/>
      <use xlink:href="#ArialMT-65" x="479.794922"/>
      <use xlink:href="#ArialMT-70" x="535.410156"/>
     </g>
    </g>
   </g>
   <g id="matplotlib.axis_2">
    <g id="ytick_1">
     <g id="line2d_26">
      <defs>
       <path id="m21bc334a42" d="M 0 0 
L -9 0 
" style="stroke: #1a1a1a; stroke-width: 1.875"/>
      </defs>
      <g>
       <use xlink:href="#m21bc334a42" x="89.976" y="116.616583" style="fill: #1a1a1a; stroke: #1a1a1a; stroke-width: 1.875"/>
      </g>
     </g>
     <g id="text_5">
      <!-- −0.25 -->
      <g style="fill: #1a1a1a" transform="translate(35.728422 122.521779) scale(0.165 -0.165)">
       <defs>
        <path id="ArialMT-2212" d="M 3381 1997 
L 356 1997 
L 356 2522 
L 3381 2522 
L 3381 1997 
z
" transform="scale(0.015625)"/>
        <path id="ArialMT-2e" d="M 581 0 
L 581 641 
L 1222 641 
L 1222 0 
L 581 0 
z
" transform="scale(0.015625)"/>
        <path id="ArialMT-35" d="M 266 1200 
L 856 1250 
Q 922 819 1161 601 
Q 1400 384 1738 384 
Q 2144 384 2425 690 
Q 2706 997 2706 1503 
Q 2706 1984 2436 2262 
Q 2166 2541 1728 2541 
Q 1456 2541 1237 2417 
Q 1019 2294 894 2097 
L 366 2166 
L 809 4519 
L 3088 4519 
L 3088 3981 
L 1259 3981 
L 1013 2750 
Q 1425 3038 1878 3038 
Q 2478 3038 2890 2622 
Q 3303 2206 3303 1553 
Q 3303 931 2941 478 
Q 2500 -78 1738 -78 
Q 1113 -78 717 272 
Q 322 622 266 1200 
z
" transform="scale(0.015625)"/>
       </defs>
       <use xlink:href="#ArialMT-2212"/>
       <use xlink:href="#ArialMT-30" x="58.398438"/>
       <use xlink:href="#ArialMT-2e" x="114.013672"/>
       <use xlink:href="#ArialMT-32" x="141.796875"/>
       <use xlink:href="#ArialMT-35" x="197.412109"/>
      </g>
     </g>
    </g>
    <g id="ytick_2">
     <g id="line2d_27">
      <g>
       <use xlink:href="#m21bc334a42" x="89.976" y="72.472287" style="fill: #1a1a1a; stroke: #1a1a1a; stroke-width: 1.875"/>
      </g>
     </g>
     <g id="text_6">
      <!-- 0.00 -->
      <g style="fill: #1a1a1a" transform="translate(45.365453 78.377482) scale(0.165 -0.165)">
       <use xlink:href="#ArialMT-30"/>
       <use xlink:href="#ArialMT-2e" x="55.615234"/>
       <use xlink:href="#ArialMT-30" x="83.398438"/>
       <use xlink:href="#ArialMT-30" x="139.013672"/>
      </g>
     </g>
    </g>
    <g id="ytick_3">
     <g id="line2d_28">
      <g>
       <use xlink:href="#m21bc334a42" x="89.976" y="28.32799" style="fill: #1a1a1a; stroke: #1a1a1a; stroke-width: 1.875"/>
      </g>
     </g>
     <g id="text_7">
      <!-- 0.25 -->
      <g style="fill: #1a1a1a" transform="translate(45.365453 34.233185) scale(0.165 -0.165)">
       <use xlink:href="#ArialMT-30"/>
       <use xlink:href="#ArialMT-2e" x="55.615234"/>
       <use xlink:href="#ArialMT-32" x="83.398438"/>
       <use xlink:href="#ArialMT-35" x="139.013672"/>
      </g>
     </g>
    </g>
    <g id="text_8">
     <!-- ${\bf W}_1$ -->
     <g style="fill: #262626" transform="translate(27.753422 88.372266) rotate(-90) scale(0.2 -0.2)">
      <defs>
       <path id="DejaVuSans-Bold-57" d="M 191 4666 
L 1344 4666 
L 2150 1275 
L 2950 4666 
L 4109 4666 
L 4909 1275 
L 5716 4666 
L 6859 4666 
L 5759 0 
L 4372 0 
L 3525 3547 
L 2688 0 
L 1300 0 
L 191 4666 
z
" transform="scale(0.015625)"/>
       <path id="DejaVuSans-31" d="M 794 531 
L 1825 531 
L 1825 4091 
L 703 3866 
L 703 4441 
L 1819 4666 
L 2450 4666 
L 2450 531 
L 3481 531 
L 3481 0 
L 794 0 
L 794 531 
z
" transform="scale(0.015625)"/>
      </defs>
      <use xlink:href="#DejaVuSans-Bold-57" transform="translate(0 0.09375)"/>
      <use xlink:href="#DejaVuSans-31" transform="translate(111.259766 -16.3125) scale(0.7)"/>
     </g>
    </g>
   </g>
   <g id="line2d_29">
    <path d="M -1 62.651644 
L 95.148 62.654283 
L 107.114881 63.690628 
L 114.115058 64.675157 
L 119.081762 65.610459 
L 122.934238 66.498996 
L 128.743283 68.14501 
L 133.082116 69.630537 
L 138.04882 71.591724 
L 144.062182 74.258726 
L 154.434279 78.932392 
L 158.39778 80.429765 
L 161.619105 81.423153 
L 164.949502 82.20884 
L 168.247986 82.747697 
L 171.84842 83.10237 
L 176.299726 83.303845 
L 183.713445 83.377435 
L 198.588 83.381179 
L 198.588 83.381179 
" clip-path="url(#p3e1107f2cb)" style="fill: none; stroke: #cc78a6; stroke-width: 2.25; stroke-linecap: round"/>
   </g>
   <g id="line2d_30">
    <path d="M -1 58.450902 
L 95.148 58.454669 
L 107.114881 59.934306 
L 114.115058 61.339962 
L 119.081762 62.675334 
L 122.934238 63.943938 
L 126.081939 65.149111 
L 131.048644 67.381695 
L 134.901119 69.396603 
L 139.430722 72.056674 
L 145.048997 75.674083 
L 153.282881 81.00946 
L 157.015878 83.132546 
L 160.083466 84.615176 
L 163.02924 85.770395 
L 165.835058 86.612321 
L 168.741293 87.231131 
L 171.84842 87.649329 
L 175.496578 87.904699 
L 180.82933 88.027086 
L 196.381013 88.047395 
L 198.588 88.047395 
L 198.588 88.047395 
" clip-path="url(#p3e1107f2cb)" style="fill: none; stroke: #cc78a6; stroke-width: 2.25; stroke-linecap: round"/>
   </g>
   <g id="line2d_31">
    <path d="M -1 115.873962 
L 95.148 115.862301 
L 107.114881 111.282241 
L 114.115058 106.931183 
L 119.081762 102.797678 
L 122.934238 98.870849 
L 126.081939 95.140361 
L 128.743283 91.596397 
L 131.048644 88.229632 
L 134.901119 81.9927 
L 138.04882 76.363869 
L 141.901296 68.932712 
L 149.280928 53.89716 
L 153.282881 46.046328 
L 156.029063 41.118096 
L 158.39778 37.304725 
L 160.48037 34.35401 
L 162.338566 32.070803 
L 164.332845 30.001952 
L 166.120429 28.481155 
L 167.995945 27.208123 
L 169.687533 26.319112 
L 171.644103 25.558168 
L 173.768681 24.998873 
L 176.142058 24.620901 
L 179.183841 24.38364 
L 183.815301 24.276855 
L 198.588 24.261157 
L 198.588 24.261157 
" clip-path="url(#p3e1107f2cb)" style="fill: none; stroke: #cc78a6; stroke-width: 2.25; stroke-linecap: round"/>
   </g>
   <g id="line2d_32">
    <path d="M -1 56.593523 
L 95.148 56.597789 
L 107.114881 58.273432 
L 114.115058 59.865292 
L 119.081762 61.377559 
L 122.934238 62.814213 
L 126.081939 64.179034 
L 131.048644 66.707364 
L 134.901119 68.989183 
L 139.430722 72.001629 
L 145.048997 76.09823 
L 153.282881 82.140377 
L 156.52952 84.251761 
L 159.677222 86.019163 
L 162.338566 87.253406 
L 164.949502 88.215088 
L 167.480546 88.915968 
L 170.14189 89.431106 
L 173.214691 89.795812 
L 177.067166 90.01387 
L 183.194951 90.102792 
L 198.588 90.110618 
L 198.588 90.110618 
" clip-path="url(#p3e1107f2cb)" style="fill: none; stroke: #cc78a6; stroke-width: 2.25; stroke-linecap: round"/>
   </g>
   <g id="line2d_33">
    <path d="M -1 80.213766 
L 95.148 80.211686 
L 107.114881 79.39475 
L 114.115058 78.61866 
L 119.081762 77.881375 
L 126.081939 76.515554 
L 131.048644 75.282901 
L 136.546607 73.655557 
L 143.015525 71.442546 
L 155.513665 67.037956 
L 159.677222 65.867695 
L 163.364485 65.06728 
L 166.949287 64.518322 
L 170.801762 64.156998 
L 175.496578 63.951748 
L 183.194951 63.876778 
L 198.588 63.872965 
L 198.588 63.872965 
" clip-path="url(#p3e1107f2cb)" style="fill: none; stroke: #cc78a6; stroke-width: 2.25; stroke-linecap: round"/>
   </g>
   <g id="line2d_34">
    <path d="M -1 46.780699 
L 95.148 46.787602 
L 107.114881 49.498764 
L 114.115058 52.074368 
L 119.081762 54.521192 
L 122.934238 56.845675 
L 126.081939 59.053934 
L 128.743283 61.151781 
L 133.082116 65.03804 
L 136.546607 68.545389 
L 140.710164 73.175776 
L 145.982444 79.472601 
L 152.049174 86.721937 
L 155.513665 90.507186 
L 158.39778 93.289692 
L 160.868353 95.335091 
L 163.02924 96.838646 
L 165.249763 98.097243 
L 167.480546 99.077902 
L 169.687533 99.79261 
L 172.050347 100.317915 
L 174.826026 100.68982 
L 178.228246 100.906986 
L 183.713445 101.001039 
L 198.588 101.010827 
L 198.588 101.010827 
" clip-path="url(#p3e1107f2cb)" style="fill: none; stroke: #cc78a6; stroke-width: 2.25; stroke-linecap: round"/>
   </g>
   <g id="line2d_35">
    <path d="M -1 74.784975 
L 95.148 74.784354 
L 114.115058 74.308453 
L 126.081939 73.680171 
L 134.901119 72.979588 
L 145.982444 71.842136 
L 157.949325 70.634939 
L 164.643926 70.19393 
L 171.437339 69.976073 
L 181.654414 69.905661 
L 198.588 69.903323 
L 198.588 69.903323 
" clip-path="url(#p3e1107f2cb)" style="fill: none; stroke: #cc78a6; stroke-width: 2.25; stroke-linecap: round"/>
   </g>
   <g id="line2d_36">
    <path d="M -1 97.061964 
L 95.148 97.055357 
L 107.114881 94.460476 
L 114.115058 91.995339 
L 119.081762 89.653459 
L 122.934238 87.428672 
L 126.081939 85.315125 
L 128.743283 83.307256 
L 133.082116 79.587678 
L 136.546607 76.230759 
L 140.710164 71.798969 
L 145.982444 65.772216 
L 152.677045 58.15 
L 156.029063 54.708245 
L 158.834881 52.178238 
L 161.24781 50.318453 
L 163.364485 48.951336 
L 165.54489 47.806946 
L 167.740169 46.915275 
L 169.916206 46.265423 
L 172.447251 45.756288 
L 175.331366 45.421175 
L 179.050524 45.230812 
L 185.644457 45.161104 
L 198.588 45.157762 
L 198.588 45.157762 
" clip-path="url(#p3e1107f2cb)" style="fill: none; stroke: #cc78a6; stroke-width: 2.25; stroke-linecap: round"/>
   </g>
   <g id="line2d_37">
    <path d="M -1 74.650294 
L 95.148 74.649709 
L 114.115058 74.201524 
L 126.081939 73.609831 
L 136.546607 72.805193 
L 150.015701 71.465784 
L 159.261188 70.643674 
L 166.120429 70.264704 
L 173.585986 70.091902 
L 187.627106 70.053022 
L 198.588 70.052932 
L 198.588 70.052932 
" clip-path="url(#p3e1107f2cb)" style="fill: none; stroke: #cc78a6; stroke-width: 2.25; stroke-linecap: round"/>
   </g>
   <g id="line2d_38">
    <path d="M -1 87.178696 
L 95.148 87.174745 
L 107.114881 85.62282 
L 114.115058 84.148491 
L 119.081762 82.747878 
L 122.934238 81.417296 
L 126.081939 80.153243 
L 131.048644 77.811585 
L 134.901119 75.698239 
L 139.430722 72.908208 
L 145.048997 69.114068 
L 153.282881 63.518028 
L 157.015878 61.291216 
L 160.083466 59.736151 
L 162.687356 58.65019 
L 165.249763 57.804043 
L 167.995945 57.134813 
L 171.016232 56.648845 
L 174.480723 56.33985 
L 179.050524 56.179938 
L 188.422849 56.136606 
L 198.588 56.136246 
L 198.588 56.136246 
" clip-path="url(#p3e1107f2cb)" style="fill: none; stroke: #cc78a6; stroke-width: 2.25; stroke-linecap: round"/>
   </g>
   <g id="line2d_39">
    <path d="M -1 114.439738 
L 95.148 114.428463 
L 107.114881 109.999752 
L 114.115058 105.792477 
L 119.081762 101.795565 
L 122.934238 97.9985 
L 126.081939 94.391288 
L 128.743283 90.964436 
L 131.048644 87.708927 
L 134.901119 81.678096 
L 138.04882 76.235272 
L 141.901296 69.04968 
L 149.280928 54.510983 
L 153.282881 46.919585 
L 156.029063 42.154207 
L 158.39778 38.466847 
L 160.48037 35.613639 
L 162.338566 33.405879 
L 164.332845 31.405395 
L 166.120429 29.934856 
L 167.995945 28.703892 
L 169.916206 27.744762 
L 171.84842 27.045751 
L 173.949464 26.531977 
L 176.455967 26.168239 
L 179.577727 25.955848 
L 184.705934 25.863851 
L 198.588 25.85431 
L 198.588 25.85431 
" clip-path="url(#p3e1107f2cb)" style="fill: none; stroke: #cc78a6; stroke-width: 2.25; stroke-linecap: round"/>
   </g>
   <g id="line2d_40">
    <path d="M -1 104.831337 
L 95.148 104.822643 
L 107.114881 101.407884 
L 114.115058 98.163863 
L 119.081762 95.082043 
L 122.934238 92.154314 
L 126.081939 89.372972 
L 128.743283 86.730698 
L 131.048644 84.220536 
L 134.901119 79.570462 
L 138.04882 75.373771 
L 141.901296 69.833318 
L 154.982406 50.453324 
L 157.488909 47.303034 
L 159.677222 44.865398 
L 161.982583 42.656615 
L 164.016055 41.032956 
L 165.835058 39.839418 
L 167.740169 38.840323 
L 169.687533 38.061865 
L 171.84842 37.446168 
L 174.305447 36.999076 
L 177.216644 36.714804 
L 181.305624 36.565675 
L 190.404397 36.527678 
L 198.588 36.527499 
L 198.588 36.527499 
" clip-path="url(#p3e1107f2cb)" style="fill: none; stroke: #cc78a6; stroke-width: 2.25; stroke-linecap: round"/>
   </g>
   <g id="line2d_41">
    <path d="M -1 58.981319 
L 95.148 58.984944 
L 107.114881 60.408607 
L 114.115058 61.761087 
L 119.081762 63.045944 
L 122.934238 64.266557 
L 126.081939 65.42614 
L 131.048644 67.574266 
L 134.901119 69.512951 
L 139.430722 72.072394 
L 145.048997 75.55296 
L 153.282881 80.686505 
L 157.015878 82.729277 
L 160.083466 84.15582 
L 163.02924 85.267337 
L 165.835058 86.077414 
L 168.741293 86.672813 
L 171.84842 87.075192 
L 175.660225 87.32777 
L 181.187776 87.441447 
L 198.588 87.458198 
L 198.588 87.458198 
" clip-path="url(#p3e1107f2cb)" style="fill: none; stroke: #cc78a6; stroke-width: 2.25; stroke-linecap: round"/>
   </g>
   <g id="line2d_42">
    <path d="M -1 70.310724 
L 95.148 70.311305 
L 114.115058 70.756106 
L 126.081939 71.343332 
L 136.546607 72.141895 
L 150.720475 73.541301 
L 159.677222 74.316408 
L 166.40116 74.673711 
L 173.949464 74.838471 
L 188.883264 74.873337 
L 198.588 74.873375 
L 198.588 74.873375 
" clip-path="url(#p3e1107f2cb)" style="fill: none; stroke: #cc78a6; stroke-width: 2.25; stroke-linecap: round"/>
   </g>
   <g id="line2d_43">
    <path d="M -1 48.980678 
L 95.148 48.986989 
L 107.114881 51.465992 
L 114.115058 53.821044 
L 119.081762 56.058344 
L 122.934238 58.183779 
L 126.081939 60.202942 
L 128.743283 62.121147 
L 133.082116 65.674621 
L 136.546607 68.881632 
L 140.710164 73.115513 
L 145.982444 78.873133 
L 152.677045 86.154966 
L 156.029063 89.443026 
L 158.834881 91.860052 
L 161.24781 93.636788 
L 163.364485 94.942852 
L 165.54489 96.036134 
L 167.740169 96.887984 
L 170.14189 97.561727 
L 172.642333 98.023809 
L 175.660225 98.339904 
L 179.70705 98.513019 
L 187.46346 98.565943 
L 198.588 98.567014 
L 198.588 98.567014 
" clip-path="url(#p3e1107f2cb)" style="fill: none; stroke: #cc78a6; stroke-width: 2.25; stroke-linecap: round"/>
   </g>
   <g id="line2d_44">
    <path d="M -1 103.365451 
L 95.148 103.357151 
L 107.114881 100.09708 
L 114.115058 97.000013 
L 119.081762 94.057799 
L 122.934238 91.262696 
L 126.081939 88.607348 
L 128.743283 86.084769 
L 131.048644 83.688317 
L 134.901119 79.248891 
L 138.04882 75.242309 
L 141.901296 69.952838 
L 154.982406 51.450756 
L 157.488909 48.443169 
L 159.677222 46.115957 
L 161.982583 44.007233 
L 164.016055 42.457127 
L 166.120429 41.159562 
L 167.995945 40.253422 
L 170.14189 39.477806 
L 172.447251 38.907732 
L 174.996121 38.522468 
L 178.228246 38.280636 
L 183.089357 38.171797 
L 198.588 38.15577 
L 198.588 38.15577 
" clip-path="url(#p3e1107f2cb)" style="fill: none; stroke: #cc78a6; stroke-width: 2.25; stroke-linecap: round"/>
   </g>
   <g id="line2d_45">
    <path d="M -1 62.624885 
L 95.148 62.627458 
L 107.114881 63.63963 
L 114.115058 64.602436 
L 119.081762 65.518286 
L 122.934238 66.389469 
L 128.743283 68.006445 
L 133.082116 69.469544 
L 138.04882 71.407324 
L 144.062182 74.055931 
L 154.982406 78.976244 
L 158.834881 80.428463 
L 162.338566 81.498443 
L 165.54489 82.239241 
L 168.741293 82.754471 
L 172.447251 83.113314 
L 177.067166 83.311737 
L 184.897765 83.378617 
L 198.544785 83.381178 
L 198.544785 83.381178 
" clip-path="url(#p3e1107f2cb)" style="fill: none; stroke-dasharray: 3,6; stroke-dashoffset: 0; stroke: #000000; stroke-opacity: 0.6; stroke-width: 3"/>
   </g>
   <g id="line2d_46">
    <path d="M -1 58.412695 
L 95.148 58.416369 
L 107.114881 59.861494 
L 114.115058 61.236138 
L 119.081762 62.543739 
L 122.934238 63.787569 
L 126.081939 64.970737 
L 131.048644 67.166773 
L 134.901119 69.153829 
L 139.430722 71.785555 
L 145.048997 75.382668 
L 153.868177 81.096857 
L 157.488909 83.149441 
L 160.48037 84.595872 
L 163.364485 85.733779 
L 166.120429 86.572178 
L 168.982759 87.19628 
L 172.050347 87.624756 
L 175.660225 87.89193 
L 180.82933 88.022971 
L 194.463636 88.047416 
L 198.544785 88.04742 
L 198.544785 88.04742 
" clip-path="url(#p3e1107f2cb)" style="fill: none; stroke-dasharray: 3,6; stroke-dashoffset: 0; stroke: #000000; stroke-opacity: 0.6; stroke-width: 3"/>
   </g>
   <g id="line2d_47">
    <path d="M -1 115.992213 
L 95.148 115.98084 
L 107.114881 111.507615 
L 114.115058 107.252553 
L 119.081762 103.205013 
L 122.934238 99.354873 
L 126.081939 95.692509 
L 128.743283 92.208759 
L 131.048644 88.89491 
L 134.901119 82.744194 
L 138.04882 77.178792 
L 141.901296 69.807783 
L 147.710341 58.002917 
L 152.677045 48.038561 
L 155.513665 42.779011 
L 157.949325 38.682864 
L 160.083466 35.492785 
L 161.982583 33.008351 
L 164.016055 30.741226 
L 165.835058 29.061696 
L 167.480546 27.817473 
L 169.220895 26.767238 
L 171.016232 25.941018 
L 173.026005 25.280028 
L 175.164557 24.820304 
L 177.801939 24.500123 
L 181.305624 24.323075 
L 187.869703 24.263183 
L 198.544785 24.261115 
L 198.544785 24.261115 
" clip-path="url(#p3e1107f2cb)" style="fill: none; stroke-dasharray: 3,6; stroke-dashoffset: 0; stroke: #000000; stroke-opacity: 0.6; stroke-width: 3"/>
   </g>
   <g id="line2d_48">
    <path d="M -1 56.550257 
L 95.148 56.554418 
L 107.114881 58.190975 
L 114.115058 59.747713 
L 119.081762 61.228529 
L 122.934238 62.637127 
L 126.081939 63.977025 
L 131.048644 66.463965 
L 134.901119 68.714242 
L 139.430722 71.694586 
L 145.048997 75.768199 
L 153.868177 82.239333 
L 157.488909 84.563817 
L 160.48037 86.201853 
L 163.02924 87.35616 
L 165.54489 88.264251 
L 168.247986 88.990741 
L 171.016232 89.496017 
L 174.128373 89.834462 
L 178.228246 90.035357 
L 185.181572 90.107056 
L 198.544785 90.11062 
L 198.544785 90.11062 
" clip-path="url(#p3e1107f2cb)" style="fill: none; stroke-dasharray: 3,6; stroke-dashoffset: 0; stroke: #000000; stroke-opacity: 0.6; stroke-width: 3"/>
   </g>
   <g id="line2d_49">
    <path d="M -1 80.234861 
L 95.148 80.232832 
L 107.114881 79.434951 
L 114.115058 78.675984 
L 119.081762 77.954032 
L 126.081939 76.61404 
L 131.048644 75.401565 
L 136.546607 73.795722 
L 143.015525 71.600813 
L 156.029063 67.014868 
L 160.083466 65.876326 
L 163.693344 65.088061 
L 167.21696 64.539819 
L 171.016232 64.172597 
L 175.660225 63.958803 
L 183.089357 63.877921 
L 198.544785 63.872955 
L 198.544785 63.872955 
" clip-path="url(#p3e1107f2cb)" style="fill: none; stroke-dasharray: 3,6; stroke-dashoffset: 0; stroke: #000000; stroke-opacity: 0.6; stroke-width: 3"/>
   </g>
   <g id="line2d_50">
    <path d="M -1 46.710695 
L 95.148 46.717427 
L 107.114881 49.365348 
L 114.115058 51.884126 
L 119.081762 54.280063 
L 122.934238 56.559151 
L 126.081939 58.727087 
L 128.743283 60.78929 
L 133.082116 64.616874 
L 136.546607 68.080217 
L 140.710164 72.667189 
L 145.982444 78.93678 
L 152.677045 86.935794 
L 156.029063 90.58379 
L 158.834881 93.28629 
L 161.24781 95.288348 
L 163.364485 96.771513 
L 165.54489 98.023433 
L 167.740169 99.008319 
L 169.916206 99.733971 
L 172.249939 100.27415 
L 174.996121 100.662847 
L 178.368041 100.894999 
L 183.610984 100.997997 
L 198.544785 101.010832 
L 198.544785 101.010832 
" clip-path="url(#p3e1107f2cb)" style="fill: none; stroke-dasharray: 3,6; stroke-dashoffset: 0; stroke: #000000; stroke-opacity: 0.6; stroke-width: 3"/>
   </g>
   <g id="line2d_51">
    <path d="M -1 74.791277 
L 95.148 74.79067 
L 114.115058 74.325578 
L 126.081939 73.709592 
L 134.901119 73.019633 
L 145.982444 71.890369 
L 158.39778 70.634315 
L 165.249763 70.186026 
L 172.249939 69.969635 
L 182.876211 69.90496 
L 198.544785 69.903321 
L 198.544785 69.903321 
" clip-path="url(#p3e1107f2cb)" style="fill: none; stroke-dasharray: 3,6; stroke-dashoffset: 0; stroke: #000000; stroke-opacity: 0.6; stroke-width: 3"/>
   </g>
   <g id="line2d_52">
    <path d="M -1 97.128965 
L 95.148 97.122521 
L 107.114881 94.588168 
L 114.115058 92.177423 
L 119.081762 89.884243 
L 122.934238 87.702907 
L 126.081939 85.627954 
L 128.743283 83.654201 
L 133.082116 79.990779 
L 136.546607 76.67598 
L 140.710164 72.285743 
L 145.982444 66.285055 
L 152.677045 58.629115 
L 156.029063 55.137586 
L 158.834881 52.550995 
L 161.24781 50.634802 
L 163.364485 49.215251 
L 165.54489 48.017027 
L 167.740169 47.074382 
L 169.916206 46.379849 
L 172.249939 45.862846 
L 174.996121 45.490817 
L 178.506713 45.263218 
L 184.017228 45.167816 
L 198.544785 45.157757 
L 198.544785 45.157757 
" clip-path="url(#p3e1107f2cb)" style="fill: none; stroke-dasharray: 3,6; stroke-dashoffset: 0; stroke: #000000; stroke-opacity: 0.6; stroke-width: 3"/>
   </g>
   <g id="line2d_53">
    <path d="M -1 74.656228 
L 95.148 74.655658 
L 114.115058 74.21765 
L 126.081939 73.637538 
L 136.546607 72.844625 
L 149.280928 71.585044 
L 159.261188 70.675841 
L 166.120429 70.282086 
L 173.401337 70.099195 
L 186.184018 70.053211 
L 198.544785 70.052929 
L 198.544785 70.052929 
" clip-path="url(#p3e1107f2cb)" style="fill: none; stroke-dasharray: 3,6; stroke-dashoffset: 0; stroke: #000000; stroke-opacity: 0.6; stroke-width: 3"/>
   </g>
   <g id="line2d_54">
    <path d="M -1 87.218768 
L 95.148 87.214915 
L 107.114881 85.699188 
L 114.115058 84.257385 
L 119.081762 82.885901 
L 122.934238 81.581302 
L 126.081939 80.340331 
L 131.048644 78.037005 
L 134.901119 75.95287 
L 139.430722 73.192569 
L 145.048997 69.419717 
L 153.868177 63.426357 
L 157.488909 61.273495 
L 160.48037 59.756395 
L 163.364485 58.562894 
L 166.120429 57.683536 
L 168.982759 57.028943 
L 172.050347 56.579533 
L 175.660225 56.299304 
L 180.586163 56.164559 
L 192.856471 56.136238 
L 198.544785 56.136219 
L 198.544785 56.136219 
" clip-path="url(#p3e1107f2cb)" style="fill: none; stroke-dasharray: 3,6; stroke-dashoffset: 0; stroke: #000000; stroke-opacity: 0.6; stroke-width: 3"/>
   </g>
   <g id="line2d_55">
    <path d="M -1 114.554084 
L 95.148 114.543086 
L 107.114881 110.217685 
L 114.115058 106.10323 
L 119.081762 102.189441 
L 122.934238 98.46653 
L 126.081939 94.925189 
L 128.743283 91.556562 
L 131.048644 88.35222 
L 134.901119 82.404756 
L 138.04882 77.023264 
L 141.901296 69.895833 
L 147.710341 58.481061 
L 152.677045 48.845983 
L 155.513665 43.760234 
L 157.949325 39.799442 
L 160.083466 36.714783 
L 161.982583 34.312448 
L 164.016055 32.120241 
L 165.835058 30.496213 
L 167.740169 29.125392 
L 169.455791 28.159393 
L 171.228069 27.399438 
L 173.214691 26.791461 
L 175.496578 26.34353 
L 178.228246 26.053187 
L 181.996298 25.898656 
L 189.98329 25.854762 
L 198.544785 25.854268 
L 198.544785 25.854268 
" clip-path="url(#p3e1107f2cb)" style="fill: none; stroke-dasharray: 3,6; stroke-dashoffset: 0; stroke: #000000; stroke-opacity: 0.6; stroke-width: 3"/>
   </g>
   <g id="line2d_56">
    <path d="M -1 104.919503 
L 95.148 104.911023 
L 107.114881 101.575918 
L 114.115058 98.403466 
L 119.081762 95.385737 
L 122.934238 92.515183 
L 126.081939 89.784627 
L 128.743283 87.187246 
L 131.048644 84.716538 
L 134.901119 80.130739 
L 138.04882 75.981335 
L 141.901296 70.485725 
L 147.710341 61.684354 
L 152.677045 54.25522 
L 156.029063 49.660504 
L 158.39778 46.755482 
L 160.868353 44.104559 
L 163.02924 42.140709 
L 164.949502 40.685853 
L 166.949287 39.457824 
L 168.982759 38.491733 
L 171.016232 37.779934 
L 173.214691 37.250067 
L 175.822334 36.868787 
L 179.050524 36.641067 
L 184.117313 36.540031 
L 198.544785 36.527443 
L 198.544785 36.527443 
" clip-path="url(#p3e1107f2cb)" style="fill: none; stroke-dasharray: 3,6; stroke-dashoffset: 0; stroke: #000000; stroke-opacity: 0.6; stroke-width: 3"/>
   </g>
   <g id="line2d_57">
    <path d="M -1 58.944558 
L 95.148 58.948094 
L 107.114881 60.33855 
L 114.115058 61.661191 
L 119.081762 62.919327 
L 122.934238 64.116103 
L 126.081939 65.254511 
L 131.048644 67.367475 
L 134.901119 69.279361 
L 139.430722 71.811531 
L 145.048997 75.272567 
L 153.868177 80.770591 
L 157.488909 82.745529 
L 160.48037 84.137243 
L 163.364485 85.232103 
L 166.120429 86.038786 
L 168.982759 86.639277 
L 172.050347 87.051547 
L 175.822334 87.315911 
L 181.187776 87.437974 
L 196.816888 87.458221 
L 198.544785 87.458221 
L 198.544785 87.458221 
" clip-path="url(#p3e1107f2cb)" style="fill: none; stroke-dasharray: 3,6; stroke-dashoffset: 0; stroke: #000000; stroke-opacity: 0.6; stroke-width: 3"/>
   </g>
   <g id="line2d_58">
    <path d="M -1 70.304834 
L 95.148 70.3054 
L 114.115058 70.740101 
L 126.081939 71.315834 
L 136.546607 72.10276 
L 149.280928 73.352831 
L 159.261188 74.25517 
L 166.120429 74.645952 
L 173.401337 74.827461 
L 186.272328 74.873112 
L 198.544785 74.873378 
L 198.544785 74.873378 
" clip-path="url(#p3e1107f2cb)" style="fill: none; stroke-dasharray: 3,6; stroke-dashoffset: 0; stroke: #000000; stroke-opacity: 0.6; stroke-width: 3"/>
   </g>
   <g id="line2d_59">
    <path d="M -1 48.916676 
L 95.148 48.922832 
L 107.114881 51.344009 
L 114.115058 53.647106 
L 119.081762 55.837879 
L 122.934238 57.921808 
L 126.081939 59.904101 
L 128.743283 61.789716 
L 133.082116 65.289546 
L 136.546607 68.456321 
L 140.710164 72.65051 
L 145.982444 78.383235 
L 152.677045 85.697293 
L 156.029063 89.032909 
L 158.834881 91.503993 
L 161.24781 93.334619 
L 163.364485 94.690777 
L 165.54489 95.835494 
L 167.740169 96.736045 
L 169.916206 97.399561 
L 172.447251 97.926334 
L 175.331366 98.279176 
L 179.050524 98.484596 
L 185.275147 98.562067 
L 198.544785 98.567082 
L 198.544785 98.567082 
" clip-path="url(#p3e1107f2cb)" style="fill: none; stroke-dasharray: 3,6; stroke-dashoffset: 0; stroke: #000000; stroke-opacity: 0.6; stroke-width: 3"/>
   </g>
   <g id="line2d_60">
    <path d="M -1 103.449627 
L 95.148 103.441532 
L 107.114881 100.257508 
L 114.115058 97.228772 
L 119.081762 94.347745 
L 122.934238 91.607229 
L 126.081939 89.000369 
L 128.743283 86.52065 
L 131.048644 84.161867 
L 134.901119 79.783807 
L 138.04882 75.822374 
L 141.901296 70.575717 
L 148.513488 61.001716 
L 153.282881 54.255037 
L 156.52952 50.082397 
L 158.834881 47.444232 
L 161.24781 45.036834 
L 163.364485 43.253385 
L 165.249763 41.932173 
L 167.21696 40.816955 
L 169.220895 39.939617 
L 171.228069 39.293198 
L 173.585986 38.78 
L 176.299726 38.436251 
L 179.835411 38.236127 
L 185.82619 38.160653 
L 198.544785 38.155765 
L 198.544785 38.155765 
" clip-path="url(#p3e1107f2cb)" style="fill: none; stroke-dasharray: 3,6; stroke-dashoffset: 0; stroke: #000000; stroke-opacity: 0.6; stroke-width: 3"/>
   </g>
   <g id="patch_3">
    <path d="M 89.976 125.504531 
L 89.976 19.44 
" style="fill: none; stroke: #262626; stroke-width: 1.875; stroke-linejoin: miter; stroke-linecap: square"/>
   </g>
   <g id="patch_4">
    <path d="M 89.976 125.504531 
L 203.76 125.504531 
" style="fill: none; stroke: #262626; stroke-width: 1.875; stroke-linejoin: miter; stroke-linecap: square"/>
   </g>
  </g>
 </g>
 <defs>
  <clipPath id="p3e1107f2cb">
   <rect x="89.976" y="19.44" width="113.784" height="106.064531"/>
  </clipPath>
 </defs>
</svg>
