<?xml version="1.0" encoding="utf-8" standalone="no"?>
<!DOCTYPE svg PUBLIC "-//W3C//DTD SVG 1.1//EN"
  "http://www.w3.org/Graphics/SVG/1.1/DTD/svg11.dtd">
<svg xmlns:xlink="http://www.w3.org/1999/xlink" width="864pt" height="216pt" viewBox="0 0 864 216" xmlns="http://www.w3.org/2000/svg" version="1.1">
 <metadata>
  <rdf:RDF xmlns:dc="http://purl.org/dc/elements/1.1/" xmlns:cc="http://creativecommons.org/ns#" xmlns:rdf="http://www.w3.org/1999/02/22-rdf-syntax-ns#">
   <cc:Work>
    <dc:type rdf:resource="http://purl.org/dc/dcmitype/StillImage"/>
    <dc:date>2024-04-24T10:27:59.049653</dc:date>
    <dc:format>image/svg+xml</dc:format>
    <dc:creator>
     <cc:Agent>
      <dc:title>Matplotlib v3.8.0, https://matplotlib.org/</dc:title>
     </cc:Agent>
    </dc:creator>
   </cc:Work>
  </rdf:RDF>
 </metadata>
 <defs>
  <style type="text/css">*{stroke-linejoin: round; stroke-linecap: butt}</style>
 </defs>
 <g id="figure_1">
  <g id="patch_1">
   <path d="M 0 216 
L 864 216 
L 864 0 
L 0 0 
z
" style="fill: #ffffff"/>
  </g>
  <g id="axes_1">
   <g id="patch_2">
    <path d="M 71.31 139.904531 
L 273.814358 139.904531 
L 273.814358 19.44 
L 71.31 19.44 
z
" style="fill: #ffffff"/>
   </g>
   <g id="matplotlib.axis_1">
    <g id="xtick_1">
     <g id="line2d_1">
      <defs>
       <path id="m644bf11f88" d="M 0 0 
L 0 9 
" style="stroke: #1a1a1a; stroke-width: 1.875"/>
      </defs>
      <g>
       <use xlink:href="#m644bf11f88" x="71.31" y="139.904531" style="fill: #1a1a1a; stroke: #1a1a1a; stroke-width: 1.875"/>
      </g>
     </g>
     <g id="text_1">
      <!-- $\mathdefault{10^{0}}$ -->
      <g style="fill: #1a1a1a" transform="translate(58.3575 169.420156) scale(0.165 -0.165)">
       <defs>
        <path id="ArialMT-31" d="M 2384 0 
L 1822 0 
L 1822 3584 
Q 1619 3391 1289 3197 
Q 959 3003 697 2906 
L 697 3450 
Q 1169 3672 1522 3987 
Q 1875 4303 2022 4600 
L 2384 4600 
L 2384 0 
z
" transform="scale(0.015625)"/>
        <path id="ArialMT-30" d="M 266 2259 
Q 266 3072 433 3567 
Q 600 4063 929 4331 
Q 1259 4600 1759 4600 
Q 2128 4600 2406 4451 
Q 2684 4303 2865 4023 
Q 3047 3744 3150 3342 
Q 3253 2941 3253 2259 
Q 3253 1453 3087 958 
Q 2922 463 2592 192 
Q 2263 -78 1759 -78 
Q 1097 -78 719 397 
Q 266 969 266 2259 
z
M 844 2259 
Q 844 1131 1108 757 
Q 1372 384 1759 384 
Q 2147 384 2411 759 
Q 2675 1134 2675 2259 
Q 2675 3391 2411 3762 
Q 2147 4134 1753 4134 
Q 1366 4134 1134 3806 
Q 844 3388 844 2259 
z
" transform="scale(0.015625)"/>
       </defs>
       <use xlink:href="#ArialMT-31" transform="translate(0 0.99375)"/>
       <use xlink:href="#ArialMT-30" transform="translate(55.615234 0.99375)"/>
       <use xlink:href="#ArialMT-30" transform="translate(112.972813 70.6875) scale(0.7)"/>
      </g>
     </g>
    </g>
    <g id="xtick_2">
     <g id="line2d_2">
      <g>
       <use xlink:href="#m644bf11f88" x="143.47371" y="139.904531" style="fill: #1a1a1a; stroke: #1a1a1a; stroke-width: 1.875"/>
      </g>
     </g>
     <g id="text_2">
      <!-- $\mathdefault{10^{1}}$ -->
      <g style="fill: #1a1a1a" transform="translate(130.52121 169.420156) scale(0.165 -0.165)">
       <use xlink:href="#ArialMT-31" transform="translate(0 0.99375)"/>
       <use xlink:href="#ArialMT-30" transform="translate(55.615234 0.99375)"/>
       <use xlink:href="#ArialMT-31" transform="translate(112.972813 70.6875) scale(0.7)"/>
      </g>
     </g>
    </g>
    <g id="xtick_3">
     <g id="line2d_3">
      <g>
       <use xlink:href="#m644bf11f88" x="215.63742" y="139.904531" style="fill: #1a1a1a; stroke: #1a1a1a; stroke-width: 1.875"/>
      </g>
     </g>
     <g id="text_3">
      <!-- $\mathdefault{10^{2}}$ -->
      <g style="fill: #1a1a1a" transform="translate(202.68492 169.420156) scale(0.165 -0.165)">
       <defs>
        <path id="ArialMT-32" d="M 3222 541 
L 3222 0 
L 194 0 
Q 188 203 259 391 
Q 375 700 629 1000 
Q 884 1300 1366 1694 
Q 2113 2306 2375 2664 
Q 2638 3022 2638 3341 
Q 2638 3675 2398 3904 
Q 2159 4134 1775 4134 
Q 1369 4134 1125 3890 
Q 881 3647 878 3216 
L 300 3275 
Q 359 3922 746 4261 
Q 1134 4600 1788 4600 
Q 2447 4600 2831 4234 
Q 3216 3869 3216 3328 
Q 3216 3053 3103 2787 
Q 2991 2522 2730 2228 
Q 2469 1934 1863 1422 
Q 1356 997 1212 845 
Q 1069 694 975 541 
L 3222 541 
z
" transform="scale(0.015625)"/>
       </defs>
       <use xlink:href="#ArialMT-31" transform="translate(0 0.99375)"/>
       <use xlink:href="#ArialMT-30" transform="translate(55.615234 0.99375)"/>
       <use xlink:href="#ArialMT-32" transform="translate(112.972813 70.6875) scale(0.7)"/>
      </g>
     </g>
    </g>
    <g id="xtick_4">
     <g id="line2d_4">
      <defs>
       <path id="m2eba6f43cb" d="M 0 0 
L 0 6 
" style="stroke: #1a1a1a; stroke-width: 1.5"/>
      </defs>
      <g>
       <use xlink:href="#m2eba6f43cb" x="93.033441" y="139.904531" style="fill: #1a1a1a; stroke: #1a1a1a; stroke-width: 1.5"/>
      </g>
     </g>
    </g>
    <g id="xtick_5">
     <g id="line2d_5">
      <g>
       <use xlink:href="#m2eba6f43cb" x="105.74084" y="139.904531" style="fill: #1a1a1a; stroke: #1a1a1a; stroke-width: 1.5"/>
      </g>
     </g>
    </g>
    <g id="xtick_6">
     <g id="line2d_6">
      <g>
       <use xlink:href="#m2eba6f43cb" x="114.756883" y="139.904531" style="fill: #1a1a1a; stroke: #1a1a1a; stroke-width: 1.5"/>
      </g>
     </g>
    </g>
    <g id="xtick_7">
     <g id="line2d_7">
      <g>
       <use xlink:href="#m2eba6f43cb" x="121.750269" y="139.904531" style="fill: #1a1a1a; stroke: #1a1a1a; stroke-width: 1.5"/>
      </g>
     </g>
    </g>
    <g id="xtick_8">
     <g id="line2d_8">
      <g>
       <use xlink:href="#m2eba6f43cb" x="127.464281" y="139.904531" style="fill: #1a1a1a; stroke: #1a1a1a; stroke-width: 1.5"/>
      </g>
     </g>
    </g>
    <g id="xtick_9">
     <g id="line2d_9">
      <g>
       <use xlink:href="#m2eba6f43cb" x="132.29541" y="139.904531" style="fill: #1a1a1a; stroke: #1a1a1a; stroke-width: 1.5"/>
      </g>
     </g>
    </g>
    <g id="xtick_10">
     <g id="line2d_10">
      <g>
       <use xlink:href="#m2eba6f43cb" x="136.480324" y="139.904531" style="fill: #1a1a1a; stroke: #1a1a1a; stroke-width: 1.5"/>
      </g>
     </g>
    </g>
    <g id="xtick_11">
     <g id="line2d_11">
      <g>
       <use xlink:href="#m2eba6f43cb" x="140.17168" y="139.904531" style="fill: #1a1a1a; stroke: #1a1a1a; stroke-width: 1.5"/>
      </g>
     </g>
    </g>
    <g id="xtick_12">
     <g id="line2d_12">
      <g>
       <use xlink:href="#m2eba6f43cb" x="165.197151" y="139.904531" style="fill: #1a1a1a; stroke: #1a1a1a; stroke-width: 1.5"/>
      </g>
     </g>
    </g>
    <g id="xtick_13">
     <g id="line2d_13">
      <g>
       <use xlink:href="#m2eba6f43cb" x="177.90455" y="139.904531" style="fill: #1a1a1a; stroke: #1a1a1a; stroke-width: 1.5"/>
      </g>
     </g>
    </g>
    <g id="xtick_14">
     <g id="line2d_14">
      <g>
       <use xlink:href="#m2eba6f43cb" x="186.920592" y="139.904531" style="fill: #1a1a1a; stroke: #1a1a1a; stroke-width: 1.5"/>
      </g>
     </g>
    </g>
    <g id="xtick_15">
     <g id="line2d_15">
      <g>
       <use xlink:href="#m2eba6f43cb" x="193.913979" y="139.904531" style="fill: #1a1a1a; stroke: #1a1a1a; stroke-width: 1.5"/>
      </g>
     </g>
    </g>
    <g id="xtick_16">
     <g id="line2d_16">
      <g>
       <use xlink:href="#m2eba6f43cb" x="199.627991" y="139.904531" style="fill: #1a1a1a; stroke: #1a1a1a; stroke-width: 1.5"/>
      </g>
     </g>
    </g>
    <g id="xtick_17">
     <g id="line2d_17">
      <g>
       <use xlink:href="#m2eba6f43cb" x="204.45912" y="139.904531" style="fill: #1a1a1a; stroke: #1a1a1a; stroke-width: 1.5"/>
      </g>
     </g>
    </g>
    <g id="xtick_18">
     <g id="line2d_18">
      <g>
       <use xlink:href="#m2eba6f43cb" x="208.644034" y="139.904531" style="fill: #1a1a1a; stroke: #1a1a1a; stroke-width: 1.5"/>
      </g>
     </g>
    </g>
    <g id="xtick_19">
     <g id="line2d_19">
      <g>
       <use xlink:href="#m2eba6f43cb" x="212.33539" y="139.904531" style="fill: #1a1a1a; stroke: #1a1a1a; stroke-width: 1.5"/>
      </g>
     </g>
    </g>
    <g id="xtick_20">
     <g id="line2d_20">
      <g>
       <use xlink:href="#m2eba6f43cb" x="237.360861" y="139.904531" style="fill: #1a1a1a; stroke: #1a1a1a; stroke-width: 1.5"/>
      </g>
     </g>
    </g>
    <g id="xtick_21">
     <g id="line2d_21">
      <g>
       <use xlink:href="#m2eba6f43cb" x="250.06826" y="139.904531" style="fill: #1a1a1a; stroke: #1a1a1a; stroke-width: 1.5"/>
      </g>
     </g>
    </g>
    <g id="xtick_22">
     <g id="line2d_22">
      <g>
       <use xlink:href="#m2eba6f43cb" x="259.084302" y="139.904531" style="fill: #1a1a1a; stroke: #1a1a1a; stroke-width: 1.5"/>
      </g>
     </g>
    </g>
    <g id="xtick_23">
     <g id="line2d_23">
      <g>
       <use xlink:href="#m2eba6f43cb" x="266.077688" y="139.904531" style="fill: #1a1a1a; stroke: #1a1a1a; stroke-width: 1.5"/>
      </g>
     </g>
    </g>
    <g id="xtick_24">
     <g id="line2d_24">
      <g>
       <use xlink:href="#m2eba6f43cb" x="271.791701" y="139.904531" style="fill: #1a1a1a; stroke: #1a1a1a; stroke-width: 1.5"/>
      </g>
     </g>
    </g>
    <g id="text_4">
     <!-- Training Steps -->
     <g style="fill: #262626" transform="translate(114.873585 189.802969) scale(0.18 -0.18)">
      <defs>
       <path id="ArialMT-54" d="M 1659 0 
L 1659 4041 
L 150 4041 
L 150 4581 
L 3781 4581 
L 3781 4041 
L 2266 4041 
L 2266 0 
L 1659 0 
z
" transform="scale(0.015625)"/>
       <path id="ArialMT-72" d="M 416 0 
L 416 3319 
L 922 3319 
L 922 2816 
Q 1116 3169 1280 3281 
Q 1444 3394 1641 3394 
Q 1925 3394 2219 3213 
L 2025 2691 
Q 1819 2813 1613 2813 
Q 1428 2813 1281 2702 
Q 1134 2591 1072 2394 
Q 978 2094 978 1738 
L 978 0 
L 416 0 
z
" transform="scale(0.015625)"/>
       <path id="ArialMT-61" d="M 2588 409 
Q 2275 144 1986 34 
Q 1697 -75 1366 -75 
Q 819 -75 525 192 
Q 231 459 231 875 
Q 231 1119 342 1320 
Q 453 1522 633 1644 
Q 813 1766 1038 1828 
Q 1203 1872 1538 1913 
Q 2219 1994 2541 2106 
Q 2544 2222 2544 2253 
Q 2544 2597 2384 2738 
Q 2169 2928 1744 2928 
Q 1347 2928 1158 2789 
Q 969 2650 878 2297 
L 328 2372 
Q 403 2725 575 2942 
Q 747 3159 1072 3276 
Q 1397 3394 1825 3394 
Q 2250 3394 2515 3294 
Q 2781 3194 2906 3042 
Q 3031 2891 3081 2659 
Q 3109 2516 3109 2141 
L 3109 1391 
Q 3109 606 3145 398 
Q 3181 191 3288 0 
L 2700 0 
Q 2613 175 2588 409 
z
M 2541 1666 
Q 2234 1541 1622 1453 
Q 1275 1403 1131 1340 
Q 988 1278 909 1158 
Q 831 1038 831 891 
Q 831 666 1001 516 
Q 1172 366 1500 366 
Q 1825 366 2078 508 
Q 2331 650 2450 897 
Q 2541 1088 2541 1459 
L 2541 1666 
z
" transform="scale(0.015625)"/>
       <path id="ArialMT-69" d="M 425 3934 
L 425 4581 
L 988 4581 
L 988 3934 
L 425 3934 
z
M 425 0 
L 425 3319 
L 988 3319 
L 988 0 
L 425 0 
z
" transform="scale(0.015625)"/>
       <path id="ArialMT-6e" d="M 422 0 
L 422 3319 
L 928 3319 
L 928 2847 
Q 1294 3394 1984 3394 
Q 2284 3394 2536 3286 
Q 2788 3178 2913 3003 
Q 3038 2828 3088 2588 
Q 3119 2431 3119 2041 
L 3119 0 
L 2556 0 
L 2556 2019 
Q 2556 2363 2490 2533 
Q 2425 2703 2258 2804 
Q 2091 2906 1866 2906 
Q 1506 2906 1245 2678 
Q 984 2450 984 1813 
L 984 0 
L 422 0 
z
" transform="scale(0.015625)"/>
       <path id="ArialMT-67" d="M 319 -275 
L 866 -356 
Q 900 -609 1056 -725 
Q 1266 -881 1628 -881 
Q 2019 -881 2231 -725 
Q 2444 -569 2519 -288 
Q 2563 -116 2559 434 
Q 2191 0 1641 0 
Q 956 0 581 494 
Q 206 988 206 1678 
Q 206 2153 378 2554 
Q 550 2956 876 3175 
Q 1203 3394 1644 3394 
Q 2231 3394 2613 2919 
L 2613 3319 
L 3131 3319 
L 3131 450 
Q 3131 -325 2973 -648 
Q 2816 -972 2473 -1159 
Q 2131 -1347 1631 -1347 
Q 1038 -1347 672 -1080 
Q 306 -813 319 -275 
z
M 784 1719 
Q 784 1066 1043 766 
Q 1303 466 1694 466 
Q 2081 466 2343 764 
Q 2606 1063 2606 1700 
Q 2606 2309 2336 2618 
Q 2066 2928 1684 2928 
Q 1309 2928 1046 2623 
Q 784 2319 784 1719 
z
" transform="scale(0.015625)"/>
       <path id="ArialMT-20" transform="scale(0.015625)"/>
       <path id="ArialMT-53" d="M 288 1472 
L 859 1522 
Q 900 1178 1048 958 
Q 1197 738 1509 602 
Q 1822 466 2213 466 
Q 2559 466 2825 569 
Q 3091 672 3220 851 
Q 3350 1031 3350 1244 
Q 3350 1459 3225 1620 
Q 3100 1781 2813 1891 
Q 2628 1963 1997 2114 
Q 1366 2266 1113 2400 
Q 784 2572 623 2826 
Q 463 3081 463 3397 
Q 463 3744 659 4045 
Q 856 4347 1234 4503 
Q 1613 4659 2075 4659 
Q 2584 4659 2973 4495 
Q 3363 4331 3572 4012 
Q 3781 3694 3797 3291 
L 3216 3247 
Q 3169 3681 2898 3903 
Q 2628 4125 2100 4125 
Q 1550 4125 1298 3923 
Q 1047 3722 1047 3438 
Q 1047 3191 1225 3031 
Q 1400 2872 2139 2705 
Q 2878 2538 3153 2413 
Q 3553 2228 3743 1945 
Q 3934 1663 3934 1294 
Q 3934 928 3725 604 
Q 3516 281 3123 101 
Q 2731 -78 2241 -78 
Q 1619 -78 1198 103 
Q 778 284 539 648 
Q 300 1013 288 1472 
z
" transform="scale(0.015625)"/>
       <path id="ArialMT-74" d="M 1650 503 
L 1731 6 
Q 1494 -44 1306 -44 
Q 1000 -44 831 53 
Q 663 150 594 308 
Q 525 466 525 972 
L 525 2881 
L 113 2881 
L 113 3319 
L 525 3319 
L 525 4141 
L 1084 4478 
L 1084 3319 
L 1650 3319 
L 1650 2881 
L 1084 2881 
L 1084 941 
Q 1084 700 1114 631 
Q 1144 563 1211 522 
Q 1278 481 1403 481 
Q 1497 481 1650 503 
z
" transform="scale(0.015625)"/>
       <path id="ArialMT-65" d="M 2694 1069 
L 3275 997 
Q 3138 488 2766 206 
Q 2394 -75 1816 -75 
Q 1088 -75 661 373 
Q 234 822 234 1631 
Q 234 2469 665 2931 
Q 1097 3394 1784 3394 
Q 2450 3394 2872 2941 
Q 3294 2488 3294 1666 
Q 3294 1616 3291 1516 
L 816 1516 
Q 847 969 1125 678 
Q 1403 388 1819 388 
Q 2128 388 2347 550 
Q 2566 713 2694 1069 
z
M 847 1978 
L 2700 1978 
Q 2663 2397 2488 2606 
Q 2219 2931 1791 2931 
Q 1403 2931 1139 2672 
Q 875 2413 847 1978 
z
" transform="scale(0.015625)"/>
       <path id="ArialMT-70" d="M 422 -1272 
L 422 3319 
L 934 3319 
L 934 2888 
Q 1116 3141 1344 3267 
Q 1572 3394 1897 3394 
Q 2322 3394 2647 3175 
Q 2972 2956 3137 2557 
Q 3303 2159 3303 1684 
Q 3303 1175 3120 767 
Q 2938 359 2589 142 
Q 2241 -75 1856 -75 
Q 1575 -75 1351 44 
Q 1128 163 984 344 
L 984 -1272 
L 422 -1272 
z
M 931 1641 
Q 931 1000 1190 694 
Q 1450 388 1819 388 
Q 2194 388 2461 705 
Q 2728 1022 2728 1688 
Q 2728 2322 2467 2637 
Q 2206 2953 1844 2953 
Q 1484 2953 1207 2617 
Q 931 2281 931 1641 
z
" transform="scale(0.015625)"/>
       <path id="ArialMT-73" d="M 197 991 
L 753 1078 
Q 800 744 1014 566 
Q 1228 388 1613 388 
Q 2000 388 2187 545 
Q 2375 703 2375 916 
Q 2375 1106 2209 1216 
Q 2094 1291 1634 1406 
Q 1016 1563 777 1677 
Q 538 1791 414 1992 
Q 291 2194 291 2438 
Q 291 2659 392 2848 
Q 494 3038 669 3163 
Q 800 3259 1026 3326 
Q 1253 3394 1513 3394 
Q 1903 3394 2198 3281 
Q 2494 3169 2634 2976 
Q 2775 2784 2828 2463 
L 2278 2388 
Q 2241 2644 2061 2787 
Q 1881 2931 1553 2931 
Q 1166 2931 1000 2803 
Q 834 2675 834 2503 
Q 834 2394 903 2306 
Q 972 2216 1119 2156 
Q 1203 2125 1616 2013 
Q 2213 1853 2448 1751 
Q 2684 1650 2818 1456 
Q 2953 1263 2953 975 
Q 2953 694 2789 445 
Q 2625 197 2315 61 
Q 2006 -75 1616 -75 
Q 969 -75 630 194 
Q 291 463 197 991 
z
" transform="scale(0.015625)"/>
      </defs>
      <use xlink:href="#ArialMT-54"/>
      <use xlink:href="#ArialMT-72" x="57.333984"/>
      <use xlink:href="#ArialMT-61" x="90.634766"/>
      <use xlink:href="#ArialMT-69" x="146.25"/>
      <use xlink:href="#ArialMT-6e" x="168.466797"/>
      <use xlink:href="#ArialMT-69" x="224.082031"/>
      <use xlink:href="#ArialMT-6e" x="246.298828"/>
      <use xlink:href="#ArialMT-67" x="301.914062"/>
      <use xlink:href="#ArialMT-20" x="357.529297"/>
      <use xlink:href="#ArialMT-53" x="385.3125"/>
      <use xlink:href="#ArialMT-74" x="452.011719"/>
      <use xlink:href="#ArialMT-65" x="479.794922"/>
      <use xlink:href="#ArialMT-70" x="535.410156"/>
      <use xlink:href="#ArialMT-73" x="591.025391"/>
     </g>
    </g>
   </g>
   <g id="matplotlib.axis_2">
    <g id="ytick_1">
     <g id="line2d_25">
      <defs>
       <path id="m5dde290df1" d="M 0 0 
L -9 0 
" style="stroke: #1a1a1a; stroke-width: 1.875"/>
      </defs>
      <g>
       <use xlink:href="#m5dde290df1" x="71.31" y="134.428871" style="fill: #1a1a1a; stroke: #1a1a1a; stroke-width: 1.875"/>
      </g>
     </g>
     <g id="text_5">
      <!-- −2 -->
      <g style="fill: #1a1a1a" transform="translate(39.997422 140.334066) scale(0.165 -0.165)">
       <defs>
        <path id="ArialMT-2212" d="M 3381 1997 
L 356 1997 
L 356 2522 
L 3381 2522 
L 3381 1997 
z
" transform="scale(0.015625)"/>
       </defs>
       <use xlink:href="#ArialMT-2212"/>
       <use xlink:href="#ArialMT-32" x="58.398438"/>
      </g>
     </g>
    </g>
    <g id="ytick_2">
     <g id="line2d_26">
      <g>
       <use xlink:href="#m5dde290df1" x="71.31" y="107.050568" style="fill: #1a1a1a; stroke: #1a1a1a; stroke-width: 1.875"/>
      </g>
     </g>
     <g id="text_6">
      <!-- −1 -->
      <g style="fill: #1a1a1a" transform="translate(39.997422 112.955763) scale(0.165 -0.165)">
       <use xlink:href="#ArialMT-2212"/>
       <use xlink:href="#ArialMT-31" x="58.398438"/>
      </g>
     </g>
    </g>
    <g id="ytick_3">
     <g id="line2d_27">
      <g>
       <use xlink:href="#m5dde290df1" x="71.31" y="79.672266" style="fill: #1a1a1a; stroke: #1a1a1a; stroke-width: 1.875"/>
      </g>
     </g>
     <g id="text_7">
      <!-- 0 -->
      <g style="fill: #1a1a1a" transform="translate(49.634453 85.577461) scale(0.165 -0.165)">
       <use xlink:href="#ArialMT-30"/>
      </g>
     </g>
    </g>
    <g id="ytick_4">
     <g id="line2d_28">
      <g>
       <use xlink:href="#m5dde290df1" x="71.31" y="52.293963" style="fill: #1a1a1a; stroke: #1a1a1a; stroke-width: 1.875"/>
      </g>
     </g>
     <g id="text_8">
      <!-- 1 -->
      <g style="fill: #1a1a1a" transform="translate(49.634453 58.199158) scale(0.165 -0.165)">
       <use xlink:href="#ArialMT-31"/>
      </g>
     </g>
    </g>
    <g id="ytick_5">
     <g id="line2d_29">
      <g>
       <use xlink:href="#m5dde290df1" x="71.31" y="24.915661" style="fill: #1a1a1a; stroke: #1a1a1a; stroke-width: 1.875"/>
      </g>
     </g>
     <g id="text_9">
      <!-- 2 -->
      <g style="fill: #1a1a1a" transform="translate(49.634453 30.820856) scale(0.165 -0.165)">
       <use xlink:href="#ArialMT-32"/>
      </g>
     </g>
    </g>
    <g id="text_10">
     <!-- Network Output -->
     <g style="fill: #262626" transform="translate(32.419922 142.194141) rotate(-90) scale(0.18 -0.18)">
      <defs>
       <path id="ArialMT-4e" d="M 488 0 
L 488 4581 
L 1109 4581 
L 3516 984 
L 3516 4581 
L 4097 4581 
L 4097 0 
L 3475 0 
L 1069 3600 
L 1069 0 
L 488 0 
z
" transform="scale(0.015625)"/>
       <path id="ArialMT-77" d="M 1034 0 
L 19 3319 
L 600 3319 
L 1128 1403 
L 1325 691 
Q 1338 744 1497 1375 
L 2025 3319 
L 2603 3319 
L 3100 1394 
L 3266 759 
L 3456 1400 
L 4025 3319 
L 4572 3319 
L 3534 0 
L 2950 0 
L 2422 1988 
L 2294 2553 
L 1622 0 
L 1034 0 
z
" transform="scale(0.015625)"/>
       <path id="ArialMT-6f" d="M 213 1659 
Q 213 2581 725 3025 
Q 1153 3394 1769 3394 
Q 2453 3394 2887 2945 
Q 3322 2497 3322 1706 
Q 3322 1066 3130 698 
Q 2938 331 2570 128 
Q 2203 -75 1769 -75 
Q 1072 -75 642 372 
Q 213 819 213 1659 
z
M 791 1659 
Q 791 1022 1069 705 
Q 1347 388 1769 388 
Q 2188 388 2466 706 
Q 2744 1025 2744 1678 
Q 2744 2294 2464 2611 
Q 2184 2928 1769 2928 
Q 1347 2928 1069 2612 
Q 791 2297 791 1659 
z
" transform="scale(0.015625)"/>
       <path id="ArialMT-6b" d="M 425 0 
L 425 4581 
L 988 4581 
L 988 1969 
L 2319 3319 
L 3047 3319 
L 1778 2088 
L 3175 0 
L 2481 0 
L 1384 1697 
L 988 1316 
L 988 0 
L 425 0 
z
" transform="scale(0.015625)"/>
       <path id="ArialMT-4f" d="M 309 2231 
Q 309 3372 921 4017 
Q 1534 4663 2503 4663 
Q 3138 4663 3647 4359 
Q 4156 4056 4423 3514 
Q 4691 2972 4691 2284 
Q 4691 1588 4409 1038 
Q 4128 488 3612 205 
Q 3097 -78 2500 -78 
Q 1853 -78 1343 234 
Q 834 547 571 1087 
Q 309 1628 309 2231 
z
M 934 2222 
Q 934 1394 1379 917 
Q 1825 441 2497 441 
Q 3181 441 3623 922 
Q 4066 1403 4066 2288 
Q 4066 2847 3877 3264 
Q 3688 3681 3323 3911 
Q 2959 4141 2506 4141 
Q 1863 4141 1398 3698 
Q 934 3256 934 2222 
z
" transform="scale(0.015625)"/>
       <path id="ArialMT-75" d="M 2597 0 
L 2597 488 
Q 2209 -75 1544 -75 
Q 1250 -75 995 37 
Q 741 150 617 320 
Q 494 491 444 738 
Q 409 903 409 1263 
L 409 3319 
L 972 3319 
L 972 1478 
Q 972 1038 1006 884 
Q 1059 663 1231 536 
Q 1403 409 1656 409 
Q 1909 409 2131 539 
Q 2353 669 2445 892 
Q 2538 1116 2538 1541 
L 2538 3319 
L 3100 3319 
L 3100 0 
L 2597 0 
z
" transform="scale(0.015625)"/>
      </defs>
      <use xlink:href="#ArialMT-4e"/>
      <use xlink:href="#ArialMT-65" x="72.216797"/>
      <use xlink:href="#ArialMT-74" x="127.832031"/>
      <use xlink:href="#ArialMT-77" x="155.615234"/>
      <use xlink:href="#ArialMT-6f" x="227.832031"/>
      <use xlink:href="#ArialMT-72" x="283.447266"/>
      <use xlink:href="#ArialMT-6b" x="316.748047"/>
      <use xlink:href="#ArialMT-20" x="366.748047"/>
      <use xlink:href="#ArialMT-4f" x="394.53125"/>
      <use xlink:href="#ArialMT-75" x="472.314453"/>
      <use xlink:href="#ArialMT-74" x="527.929688"/>
      <use xlink:href="#ArialMT-70" x="555.712891"/>
      <use xlink:href="#ArialMT-75" x="611.328125"/>
      <use xlink:href="#ArialMT-74" x="666.943359"/>
     </g>
    </g>
   </g>
   <g id="PathCollection_1">
    <defs>
     <path id="m35a91923d7" d="M 4.5 0 
L -4.5 -0 
" style="stroke: #d65c00; stroke-width: 2.5"/>
    </defs>
    <g clip-path="url(#peeb8723e2e)">
     <use xlink:href="#m35a91923d7" x="273.814358" y="35.40293" style="fill: #d65c00; stroke: #d65c00; stroke-width: 2.5"/>
    </g>
   </g>
   <g id="PathCollection_2">
    <g clip-path="url(#peeb8723e2e)">
     <use xlink:href="#m35a91923d7" x="273.814358" y="65.908074" style="fill: #d65c00; stroke: #d65c00; stroke-width: 2.5"/>
    </g>
   </g>
   <g id="PathCollection_3">
    <defs>
     <path id="m2f52b2ceb7" d="M 4.5 0 
L -4.5 -0 
" style="stroke: #0071b2; stroke-width: 2.5"/>
    </defs>
    <g clip-path="url(#peeb8723e2e)">
     <use xlink:href="#m2f52b2ceb7" x="273.814358" y="36.994816" style="fill: #0071b2; stroke: #0071b2; stroke-width: 2.5"/>
    </g>
   </g>
   <g id="PathCollection_4">
    <g clip-path="url(#peeb8723e2e)">
     <use xlink:href="#m2f52b2ceb7" x="273.814358" y="76.677006" style="fill: #0071b2; stroke: #0071b2; stroke-width: 2.5"/>
    </g>
   </g>
   <g id="PathCollection_5">
    <defs>
     <path id="mf394f6b156" d="M 4.5 0 
L -4.5 -0 
" style="stroke: #009e73; stroke-width: 2.5"/>
    </defs>
    <g clip-path="url(#peeb8723e2e)">
     <use xlink:href="#mf394f6b156" x="273.814358" y="113.066797" style="fill: #009e73; stroke: #009e73; stroke-width: 2.5"/>
    </g>
   </g>
   <g id="PathCollection_6">
    <g clip-path="url(#peeb8723e2e)">
     <use xlink:href="#mf394f6b156" x="273.814358" y="12.61271" style="fill: #009e73; stroke: #009e73; stroke-width: 2.5"/>
    </g>
   </g>
   <g id="PathCollection_7">
    <defs>
     <path id="m5c227a8467" d="M 4.5 0 
L -4.5 -0 
" style="stroke: #cc78a6; stroke-width: 2.5"/>
    </defs>
    <g clip-path="url(#peeb8723e2e)">
     <use xlink:href="#m5c227a8467" x="273.814358" y="94.614636" style="fill: #cc78a6; stroke: #cc78a6; stroke-width: 2.5"/>
    </g>
   </g>
   <g id="PathCollection_8">
    <g clip-path="url(#peeb8723e2e)">
     <use xlink:href="#m5c227a8467" x="273.814358" y="85.116109" style="fill: #cc78a6; stroke: #cc78a6; stroke-width: 2.5"/>
    </g>
   </g>
   <g id="line2d_30">
    <path d="M -1 111.974004 
L 71.31 111.972613 
L 93.033441 110.648516 
L 105.74084 109.384003 
L 114.756883 108.174984 
L 121.750269 107.017733 
L 127.464281 105.908846 
L 136.480324 103.823941 
L 143.47371 101.898261 
L 149.187722 100.113153 
L 156.181108 97.664877 
L 163.589604 94.761812 
L 170.911164 91.601388 
L 178.932193 87.845876 
L 186.920592 83.845671 
L 195.143167 79.483298 
L 202.615041 75.275993 
L 208.644034 71.645203 
L 214.029873 68.144085 
L 218.62447 64.902438 
L 223.128281 61.455853 
L 227.924137 57.496057 
L 240.347911 47.040847 
L 243.205187 45.061607 
L 245.703745 43.602641 
L 248.017733 42.505061 
L 250.276502 41.673157 
L 252.673106 41.034376 
L 255.166875 40.602424 
L 258.048823 40.33732 
L 259.005854 40.292077 
L 259.005854 40.292077 
" clip-path="url(#peeb8723e2e)" style="fill: none; stroke: #d65c00; stroke-width: 2.5; stroke-linecap: round"/>
   </g>
   <g id="line2d_31">
    <path d="M -1 119.361503 
L 71.31 119.360883 
L 93.033441 118.769211 
L 105.74084 118.202172 
L 121.750269 117.135726 
L 132.29541 116.150304 
L 143.47371 114.803812 
L 151.696285 113.592575 
L 160.103759 112.152844 
L 169.577333 110.295004 
L 179.927206 108.016472 
L 192.634605 104.965423 
L 223.374089 97.471072 
L 230.949665 95.922497 
L 238.88996 94.539964 
L 259.005854 91.309146 
L 259.005854 91.309146 
" clip-path="url(#peeb8723e2e)" style="fill: none; stroke: #d65c00; stroke-width: 2.5; stroke-linecap: round"/>
   </g>
   <g id="line2d_32">
    <path d="M -1 64.009501 
L 93.033441 64.109604 
L 127.464281 64.46405 
L 154.018851 64.997889 
L 186.920592 65.708018 
L 195.740144 65.657196 
L 202.615041 65.393238 
L 207.850566 64.979704 
L 212.33539 64.41768 
L 216.563802 63.657402 
L 220.288947 62.758536 
L 223.859995 61.660988 
L 227.282334 60.371177 
L 230.756801 58.820484 
L 234.747656 56.776702 
L 247.227124 50.142339 
L 250.172554 48.96873 
L 252.960195 48.092111 
L 255.869208 47.41397 
L 259.005854 46.917245 
L 259.005854 46.917245 
" clip-path="url(#peeb8723e2e)" style="fill: none; stroke: #0071b2; stroke-width: 2.5; stroke-linecap: round"/>
   </g>
   <g id="line2d_33">
    <path d="M -1 70.567142 
L 114.756883 70.678249 
L 180.891599 70.867861 
L 195.143167 70.605248 
L 215.949266 70.150691 
L 220.824692 70.323929 
L 224.809774 70.692959 
L 228.344818 71.253977 
L 231.521236 71.979279 
L 234.747656 72.940015 
L 238.287243 74.227749 
L 243.334961 76.330584 
L 249.647578 78.919657 
L 253.338934 80.184924 
L 256.809915 81.135906 
L 259.005854 81.615742 
L 259.005854 81.615742 
" clip-path="url(#peeb8723e2e)" style="fill: none; stroke: #0071b2; stroke-width: 2.5; stroke-linecap: round"/>
   </g>
   <g id="line2d_34">
    <path d="M -1 80.740685 
L 93.033441 80.633944 
L 127.464281 80.266729 
L 156.181108 79.699232 
L 184.477254 79.153727 
L 195.740144 79.163153 
L 204.008172 79.383541 
L 210.544028 79.766886 
L 216.25804 80.321778 
L 221.351432 81.045995 
L 225.957898 81.925579 
L 230.756801 83.079125 
L 236.887195 84.811013 
L 243.464199 86.62331 
L 247.227124 87.427911 
L 250.68888 87.943656 
L 254.266229 88.251678 
L 258.530991 88.384235 
L 259.005854 88.387612 
L 259.005854 88.387612 
" clip-path="url(#peeb8723e2e)" style="fill: none; stroke: #009e73; stroke-width: 2.5; stroke-linecap: round"/>
   </g>
   <g id="line2d_35">
    <path d="M -1 84.558472 
L 71.31 84.558221 
L 105.74084 84.07662 
L 121.750269 83.618564 
L 136.480324 82.970294 
L 149.187722 82.167639 
L 160.103759 81.244729 
L 169.577333 80.228185 
L 178.932193 78.983333 
L 186.920592 77.680854 
L 193.913979 76.300368 
L 199.627991 74.947224 
L 204.45912 73.591856 
L 209.033359 72.07683 
L 213.024215 70.524992 
L 216.866609 68.787909 
L 220.557965 66.863564 
L 224.100152 64.765612 
L 227.924137 62.232575 
L 232.451284 58.947308 
L 241.877009 52.01825 
L 245.09753 49.986741 
L 247.906002 48.470902 
L 250.586293 47.270668 
L 253.338934 46.287067 
L 256.128577 45.526028 
L 259.005854 44.952684 
L 259.005854 44.952684 
" clip-path="url(#peeb8723e2e)" style="fill: none; stroke: #009e73; stroke-width: 2.5; stroke-linecap: round"/>
   </g>
   <g id="line2d_36">
    <path d="M -1 83.104768 
L 71.31 83.104531 
L 105.74084 82.662703 
L 127.464281 82.068401 
L 143.47371 81.380159 
L 158.203765 80.517111 
L 173.419726 79.384452 
L 187.694466 78.095875 
L 199.101251 76.851542 
L 207.036486 75.779121 
L 213.363032 74.70894 
L 218.62447 73.597925 
L 223.374089 72.364012 
L 227.711659 71.010307 
L 232.267469 69.351225 
L 238.439012 66.831502 
L 244.851723 64.271506 
L 248.570486 63.031465 
L 251.894425 62.15247 
L 255.255532 61.493923 
L 258.927208 61.009179 
L 259.005854 61.001086 
L 259.005854 61.001086 
" clip-path="url(#peeb8723e2e)" style="fill: none; stroke: #cc78a6; stroke-width: 2.5; stroke-linecap: round"/>
   </g>
   <g id="line2d_37">
    <path d="M -1 80.958043 
L 114.756883 80.847423 
L 160.103759 80.526166 
L 214.029873 80.089236 
L 220.824692 80.318302 
L 226.182561 80.713757 
L 230.949665 81.282559 
L 235.91783 82.105723 
L 243.074874 83.558374 
L 249.858625 84.858034 
L 254.629599 85.541457 
L 259.005854 85.971518 
L 259.005854 85.971518 
" clip-path="url(#peeb8723e2e)" style="fill: none; stroke: #cc78a6; stroke-width: 2.5; stroke-linecap: round"/>
   </g>
   <g id="line2d_38">
    <path d="M -1 111.995578 
L 71.31 111.994209 
L 93.033441 110.689089 
L 105.74084 109.441243 
L 114.756883 108.246852 
L 121.750269 107.102421 
L 127.464281 106.00475 
L 136.480324 103.938166 
L 143.47371 102.026278 
L 149.187722 100.251356 
L 156.181108 97.813139 
L 163.589604 94.916432 
L 170.911164 91.756548 
L 177.90455 88.491952 
L 186.127125 84.388116 
L 194.534599 79.925949 
L 202.136554 75.63837 
L 208.249811 71.952165 
L 213.698226 68.409356 
L 218.338255 65.137905 
L 222.880531 61.666666 
L 227.711659 57.684226 
L 240.347911 47.062645 
L 243.205187 45.088451 
L 245.703745 43.632111 
L 248.017733 42.534955 
L 250.276502 41.701556 
L 252.673106 41.059477 
L 255.166875 40.622912 
L 258.048823 40.352032 
L 259.005854 40.304945 
L 259.005854 40.304945 
" clip-path="url(#peeb8723e2e)" style="fill: none; stroke-dasharray: 3,6; stroke-dashoffset: 0; stroke: #000000; stroke-opacity: 0.7; stroke-width: 3"/>
   </g>
   <g id="line2d_39">
    <path d="M -1 64.005934 
L 93.033441 64.102776 
L 127.464281 64.446735 
L 154.018851 64.967685 
L 186.920592 65.66436 
L 195.740144 65.61208 
L 202.615041 65.347732 
L 207.850566 64.93434 
L 212.33539 64.372794 
L 216.563802 63.6134 
L 220.288947 62.715885 
L 223.859995 61.620461 
L 227.282334 60.333869 
L 230.756801 58.788112 
L 234.747656 56.752524 
L 247.227124 50.150004 
L 250.172554 48.979893 
L 253.055309 48.078305 
L 255.955903 47.408237 
L 259.005854 46.926031 
L 259.005854 46.926031 
" clip-path="url(#peeb8723e2e)" style="fill: none; stroke-dasharray: 3,6; stroke-dashoffset: 0; stroke: #000000; stroke-opacity: 0.7; stroke-width: 3"/>
   </g>
   <g id="line2d_40">
    <path d="M -1 80.74186 
L 93.033441 80.636057 
L 127.464281 80.270779 
L 156.181108 79.701856 
L 185.313045 79.138252 
L 196.325961 79.157316 
L 204.45912 79.385839 
L 210.910585 79.777417 
L 216.563802 80.341238 
L 221.611519 81.074274 
L 226.182561 81.961034 
L 230.949665 83.118473 
L 237.360861 84.936999 
L 243.592907 86.639532 
L 247.341297 87.433218 
L 250.791132 87.941782 
L 254.448441 88.251332 
L 258.769322 88.379781 
L 259.005854 88.381457 
L 259.005854 88.381457 
" clip-path="url(#peeb8723e2e)" style="fill: none; stroke-dasharray: 3,6; stroke-dashoffset: 0; stroke: #000000; stroke-opacity: 0.7; stroke-width: 3"/>
   </g>
   <g id="line2d_41">
    <path d="M -1 83.107986 
L 71.31 83.107752 
L 105.74084 82.671192 
L 127.464281 82.082496 
L 143.47371 81.398732 
L 158.203765 80.538481 
L 173.419726 79.405357 
L 187.694466 78.111988 
L 199.101251 76.860901 
L 207.036486 75.782653 
L 213.363032 74.70752 
L 218.62447 73.592586 
L 223.374089 72.355862 
L 227.711659 71.000906 
L 232.267469 69.342738 
L 238.439012 66.828625 
L 244.851723 64.2768 
L 248.570486 63.039835 
L 251.992825 62.139103 
L 255.343939 61.487801 
L 259.005854 61.007308 
L 259.005854 61.007308 
" clip-path="url(#peeb8723e2e)" style="fill: none; stroke-dasharray: 3,6; stroke-dashoffset: 0; stroke: #000000; stroke-opacity: 0.7; stroke-width: 3"/>
   </g>
   <g id="line2d_42">
    <path d="M -1 119.373652 
L 71.31 119.373045 
L 93.033441 118.792353 
L 105.74084 118.23524 
L 121.750269 117.185926 
L 132.29541 116.214612 
L 143.47371 114.884844 
L 151.696285 113.686261 
L 160.103759 112.258809 
L 169.577333 110.412706 
L 179.927206 108.142858 
L 192.634605 105.094808 
L 224.338482 97.355326 
L 231.896573 95.818851 
L 240.490044 94.320928 
L 259.005854 91.317723 
L 259.005854 91.317723 
" clip-path="url(#peeb8723e2e)" style="fill: none; stroke-dasharray: 3,6; stroke-dashoffset: 0; stroke: #000000; stroke-opacity: 0.7; stroke-width: 3"/>
   </g>
   <g id="line2d_43">
    <path d="M -1 70.565977 
L 114.756883 70.674379 
L 180.891599 70.864677 
L 195.143167 70.610361 
L 215.949266 70.177751 
L 220.824692 70.355982 
L 224.809774 70.727483 
L 228.344818 71.28852 
L 231.709467 72.061101 
L 235.086474 73.07984 
L 238.740364 74.424435 
L 244.354247 76.768696 
L 249.858625 78.988578 
L 253.526601 80.229608 
L 256.97796 81.16314 
L 259.005854 81.60394 
L 259.005854 81.60394 
" clip-path="url(#peeb8723e2e)" style="fill: none; stroke-dasharray: 3,6; stroke-dashoffset: 0; stroke: #000000; stroke-opacity: 0.7; stroke-width: 3"/>
   </g>
   <g id="line2d_44">
    <path d="M -1 84.560353 
L 71.31 84.560104 
L 105.74084 84.081696 
L 121.750269 83.626183 
L 136.480324 82.980752 
L 149.187722 82.180495 
L 160.103759 81.259006 
L 169.577333 80.242646 
L 178.932193 78.99651 
L 186.920592 77.69153 
L 193.913979 76.307812 
L 199.627991 74.951521 
L 204.45912 73.593443 
L 209.033359 72.076199 
L 213.024215 70.523115 
L 216.866609 68.785881 
L 220.557965 66.862799 
L 224.100152 64.767714 
L 227.924137 62.239793 
L 232.451284 58.962897 
L 241.877009 52.050195 
L 245.09753 50.020136 
L 247.906002 48.503047 
L 250.586293 47.299727 
L 253.338934 46.311669 
L 256.214559 45.52538 
L 259.005854 44.967213 
L 259.005854 44.967213 
" clip-path="url(#peeb8723e2e)" style="fill: none; stroke-dasharray: 3,6; stroke-dashoffset: 0; stroke: #000000; stroke-opacity: 0.7; stroke-width: 3"/>
   </g>
   <g id="line2d_45">
    <path d="M -1 80.959511 
L 114.756883 80.852474 
L 160.103759 80.539104 
L 214.029873 80.114343 
L 220.824692 80.344274 
L 226.182561 80.738689 
L 231.141349 81.331646 
L 236.081488 82.151763 
L 243.464199 83.642585 
L 250.06826 84.888622 
L 254.899388 85.567688 
L 259.005854 85.966625 
L 259.005854 85.966625 
" clip-path="url(#peeb8723e2e)" style="fill: none; stroke-dasharray: 3,6; stroke-dashoffset: 0; stroke: #000000; stroke-opacity: 0.7; stroke-width: 3"/>
   </g>
   <g id="patch_3">
    <path d="M 71.31 139.904531 
L 71.31 19.44 
" style="fill: none; stroke: #262626; stroke-width: 1.875; stroke-linejoin: miter; stroke-linecap: square"/>
   </g>
   <g id="patch_4">
    <path d="M 71.31 139.904531 
L 273.814358 139.904531 
" style="fill: none; stroke: #262626; stroke-width: 1.875; stroke-linejoin: miter; stroke-linecap: square"/>
   </g>
  </g>
  <g id="axes_2">
   <g id="patch_5">
    <path d="M 301.602821 139.904531 
L 504.107179 139.904531 
L 504.107179 19.44 
L 301.602821 19.44 
z
" style="fill: #ffffff"/>
   </g>
   <g id="matplotlib.axis_3">
    <g id="xtick_25">
     <g id="line2d_46">
      <g>
       <use xlink:href="#m644bf11f88" x="301.602821" y="139.904531" style="fill: #1a1a1a; stroke: #1a1a1a; stroke-width: 1.875"/>
      </g>
     </g>
     <g id="text_11">
      <!-- $\mathdefault{10^{0}}$ -->
      <g style="fill: #1a1a1a" transform="translate(288.650321 169.420156) scale(0.165 -0.165)">
       <use xlink:href="#ArialMT-31" transform="translate(0 0.99375)"/>
       <use xlink:href="#ArialMT-30" transform="translate(55.615234 0.99375)"/>
       <use xlink:href="#ArialMT-30" transform="translate(112.972813 70.6875) scale(0.7)"/>
      </g>
     </g>
    </g>
    <g id="xtick_26">
     <g id="line2d_47">
      <g>
       <use xlink:href="#m644bf11f88" x="373.766531" y="139.904531" style="fill: #1a1a1a; stroke: #1a1a1a; stroke-width: 1.875"/>
      </g>
     </g>
     <g id="text_12">
      <!-- $\mathdefault{10^{1}}$ -->
      <g style="fill: #1a1a1a" transform="translate(360.814031 169.420156) scale(0.165 -0.165)">
       <use xlink:href="#ArialMT-31" transform="translate(0 0.99375)"/>
       <use xlink:href="#ArialMT-30" transform="translate(55.615234 0.99375)"/>
       <use xlink:href="#ArialMT-31" transform="translate(112.972813 70.6875) scale(0.7)"/>
      </g>
     </g>
    </g>
    <g id="xtick_27">
     <g id="line2d_48">
      <g>
       <use xlink:href="#m644bf11f88" x="445.930241" y="139.904531" style="fill: #1a1a1a; stroke: #1a1a1a; stroke-width: 1.875"/>
      </g>
     </g>
     <g id="text_13">
      <!-- $\mathdefault{10^{2}}$ -->
      <g style="fill: #1a1a1a" transform="translate(432.977741 169.420156) scale(0.165 -0.165)">
       <use xlink:href="#ArialMT-31" transform="translate(0 0.99375)"/>
       <use xlink:href="#ArialMT-30" transform="translate(55.615234 0.99375)"/>
       <use xlink:href="#ArialMT-32" transform="translate(112.972813 70.6875) scale(0.7)"/>
      </g>
     </g>
    </g>
    <g id="xtick_28">
     <g id="line2d_49">
      <g>
       <use xlink:href="#m2eba6f43cb" x="323.326262" y="139.904531" style="fill: #1a1a1a; stroke: #1a1a1a; stroke-width: 1.5"/>
      </g>
     </g>
    </g>
    <g id="xtick_29">
     <g id="line2d_50">
      <g>
       <use xlink:href="#m2eba6f43cb" x="336.033661" y="139.904531" style="fill: #1a1a1a; stroke: #1a1a1a; stroke-width: 1.5"/>
      </g>
     </g>
    </g>
    <g id="xtick_30">
     <g id="line2d_51">
      <g>
       <use xlink:href="#m2eba6f43cb" x="345.049704" y="139.904531" style="fill: #1a1a1a; stroke: #1a1a1a; stroke-width: 1.5"/>
      </g>
     </g>
    </g>
    <g id="xtick_31">
     <g id="line2d_52">
      <g>
       <use xlink:href="#m2eba6f43cb" x="352.04309" y="139.904531" style="fill: #1a1a1a; stroke: #1a1a1a; stroke-width: 1.5"/>
      </g>
     </g>
    </g>
    <g id="xtick_32">
     <g id="line2d_53">
      <g>
       <use xlink:href="#m2eba6f43cb" x="357.757102" y="139.904531" style="fill: #1a1a1a; stroke: #1a1a1a; stroke-width: 1.5"/>
      </g>
     </g>
    </g>
    <g id="xtick_33">
     <g id="line2d_54">
      <g>
       <use xlink:href="#m2eba6f43cb" x="362.588231" y="139.904531" style="fill: #1a1a1a; stroke: #1a1a1a; stroke-width: 1.5"/>
      </g>
     </g>
    </g>
    <g id="xtick_34">
     <g id="line2d_55">
      <g>
       <use xlink:href="#m2eba6f43cb" x="366.773145" y="139.904531" style="fill: #1a1a1a; stroke: #1a1a1a; stroke-width: 1.5"/>
      </g>
     </g>
    </g>
    <g id="xtick_35">
     <g id="line2d_56">
      <g>
       <use xlink:href="#m2eba6f43cb" x="370.464501" y="139.904531" style="fill: #1a1a1a; stroke: #1a1a1a; stroke-width: 1.5"/>
      </g>
     </g>
    </g>
    <g id="xtick_36">
     <g id="line2d_57">
      <g>
       <use xlink:href="#m2eba6f43cb" x="395.489972" y="139.904531" style="fill: #1a1a1a; stroke: #1a1a1a; stroke-width: 1.5"/>
      </g>
     </g>
    </g>
    <g id="xtick_37">
     <g id="line2d_58">
      <g>
       <use xlink:href="#m2eba6f43cb" x="408.197371" y="139.904531" style="fill: #1a1a1a; stroke: #1a1a1a; stroke-width: 1.5"/>
      </g>
     </g>
    </g>
    <g id="xtick_38">
     <g id="line2d_59">
      <g>
       <use xlink:href="#m2eba6f43cb" x="417.213414" y="139.904531" style="fill: #1a1a1a; stroke: #1a1a1a; stroke-width: 1.5"/>
      </g>
     </g>
    </g>
    <g id="xtick_39">
     <g id="line2d_60">
      <g>
       <use xlink:href="#m2eba6f43cb" x="424.2068" y="139.904531" style="fill: #1a1a1a; stroke: #1a1a1a; stroke-width: 1.5"/>
      </g>
     </g>
    </g>
    <g id="xtick_40">
     <g id="line2d_61">
      <g>
       <use xlink:href="#m2eba6f43cb" x="429.920812" y="139.904531" style="fill: #1a1a1a; stroke: #1a1a1a; stroke-width: 1.5"/>
      </g>
     </g>
    </g>
    <g id="xtick_41">
     <g id="line2d_62">
      <g>
       <use xlink:href="#m2eba6f43cb" x="434.751941" y="139.904531" style="fill: #1a1a1a; stroke: #1a1a1a; stroke-width: 1.5"/>
      </g>
     </g>
    </g>
    <g id="xtick_42">
     <g id="line2d_63">
      <g>
       <use xlink:href="#m2eba6f43cb" x="438.936855" y="139.904531" style="fill: #1a1a1a; stroke: #1a1a1a; stroke-width: 1.5"/>
      </g>
     </g>
    </g>
    <g id="xtick_43">
     <g id="line2d_64">
      <g>
       <use xlink:href="#m2eba6f43cb" x="442.628211" y="139.904531" style="fill: #1a1a1a; stroke: #1a1a1a; stroke-width: 1.5"/>
      </g>
     </g>
    </g>
    <g id="xtick_44">
     <g id="line2d_65">
      <g>
       <use xlink:href="#m2eba6f43cb" x="467.653682" y="139.904531" style="fill: #1a1a1a; stroke: #1a1a1a; stroke-width: 1.5"/>
      </g>
     </g>
    </g>
    <g id="xtick_45">
     <g id="line2d_66">
      <g>
       <use xlink:href="#m2eba6f43cb" x="480.361081" y="139.904531" style="fill: #1a1a1a; stroke: #1a1a1a; stroke-width: 1.5"/>
      </g>
     </g>
    </g>
    <g id="xtick_46">
     <g id="line2d_67">
      <g>
       <use xlink:href="#m2eba6f43cb" x="489.377124" y="139.904531" style="fill: #1a1a1a; stroke: #1a1a1a; stroke-width: 1.5"/>
      </g>
     </g>
    </g>
    <g id="xtick_47">
     <g id="line2d_68">
      <g>
       <use xlink:href="#m2eba6f43cb" x="496.37051" y="139.904531" style="fill: #1a1a1a; stroke: #1a1a1a; stroke-width: 1.5"/>
      </g>
     </g>
    </g>
    <g id="xtick_48">
     <g id="line2d_69">
      <g>
       <use xlink:href="#m2eba6f43cb" x="502.084522" y="139.904531" style="fill: #1a1a1a; stroke: #1a1a1a; stroke-width: 1.5"/>
      </g>
     </g>
    </g>
    <g id="text_14">
     <!-- Training Steps -->
     <g style="fill: #262626" transform="translate(345.166406 189.802969) scale(0.18 -0.18)">
      <use xlink:href="#ArialMT-54"/>
      <use xlink:href="#ArialMT-72" x="57.333984"/>
      <use xlink:href="#ArialMT-61" x="90.634766"/>
      <use xlink:href="#ArialMT-69" x="146.25"/>
      <use xlink:href="#ArialMT-6e" x="168.466797"/>
      <use xlink:href="#ArialMT-69" x="224.082031"/>
      <use xlink:href="#ArialMT-6e" x="246.298828"/>
      <use xlink:href="#ArialMT-67" x="301.914062"/>
      <use xlink:href="#ArialMT-20" x="357.529297"/>
      <use xlink:href="#ArialMT-53" x="385.3125"/>
      <use xlink:href="#ArialMT-74" x="452.011719"/>
      <use xlink:href="#ArialMT-65" x="479.794922"/>
      <use xlink:href="#ArialMT-70" x="535.410156"/>
      <use xlink:href="#ArialMT-73" x="591.025391"/>
     </g>
    </g>
   </g>
   <g id="matplotlib.axis_4"/>
   <g id="PathCollection_9">
    <g clip-path="url(#p6a55665087)">
     <use xlink:href="#m35a91923d7" x="504.107179" y="84.780482" style="fill: #d65c00; stroke: #d65c00; stroke-width: 2.5"/>
    </g>
   </g>
   <g id="PathCollection_10">
    <g clip-path="url(#p6a55665087)">
     <use xlink:href="#m35a91923d7" x="504.107179" y="81.228023" style="fill: #d65c00; stroke: #d65c00; stroke-width: 2.5"/>
    </g>
   </g>
   <g id="PathCollection_11">
    <g clip-path="url(#p6a55665087)">
     <use xlink:href="#m2f52b2ceb7" x="504.107179" y="66.192926" style="fill: #0071b2; stroke: #0071b2; stroke-width: 2.5"/>
    </g>
   </g>
   <g id="PathCollection_12">
    <g clip-path="url(#p6a55665087)">
     <use xlink:href="#m2f52b2ceb7" x="504.107179" y="98.308078" style="fill: #0071b2; stroke: #0071b2; stroke-width: 2.5"/>
    </g>
   </g>
   <g id="PathCollection_13">
    <g clip-path="url(#p6a55665087)">
     <use xlink:href="#mf394f6b156" x="504.107179" y="81.985952" style="fill: #009e73; stroke: #009e73; stroke-width: 2.5"/>
    </g>
   </g>
   <g id="PathCollection_14">
    <g clip-path="url(#p6a55665087)">
     <use xlink:href="#mf394f6b156" x="504.107179" y="87.813529" style="fill: #009e73; stroke: #009e73; stroke-width: 2.5"/>
    </g>
   </g>
   <g id="PathCollection_15">
    <g clip-path="url(#p6a55665087)">
     <use xlink:href="#m5c227a8467" x="504.107179" y="68.247245" style="fill: #cc78a6; stroke: #cc78a6; stroke-width: 2.5"/>
    </g>
   </g>
   <g id="PathCollection_16">
    <g clip-path="url(#p6a55665087)">
     <use xlink:href="#m5c227a8467" x="504.107179" y="58.186577" style="fill: #cc78a6; stroke: #cc78a6; stroke-width: 2.5"/>
    </g>
   </g>
   <g id="line2d_70">
    <path d="M -1 53.395222 
L 301.602821 53.397873 
L 323.326262 54.000312 
L 336.033661 54.575105 
L 352.04309 55.648875 
L 362.588231 56.631965 
L 373.766531 57.95966 
L 384.311672 59.500075 
L 393.882425 61.129443 
L 406.035114 63.44794 
L 435.634825 69.235987 
L 444.650867 70.702889 
L 453.421103 71.900644 
L 462.926848 72.962882 
L 489.298675 75.549526 
L 489.298675 75.549526 
" clip-path="url(#p6a55665087)" style="fill: none; stroke: #d65c00; stroke-width: 2.5; stroke-linecap: round"/>
   </g>
   <g id="line2d_71">
    <path d="M -1 46.036664 
L 301.602821 46.039577 
L 323.326262 46.702045 
L 336.033661 47.334572 
L 352.04309 48.517492 
L 362.588231 49.602142 
L 373.766531 51.069823 
L 381.989106 52.374353 
L 392.187942 54.253051 
L 402.483358 56.403153 
L 417.213414 59.756085 
L 440.465953 65.052079 
L 481.890179 74.032947 
L 488.341645 75.097163 
L 489.298675 75.235132 
L 489.298675 75.235132 
" clip-path="url(#p6a55665087)" style="fill: none; stroke: #d65c00; stroke-width: 2.5; stroke-linecap: round"/>
   </g>
   <g id="line2d_72">
    <path d="M -1 53.655924 
L 301.602821 53.657723 
L 323.326262 54.068499 
L 345.049704 54.839746 
L 357.757102 55.550805 
L 370.464501 56.519777 
L 381.989106 57.658793 
L 393.882425 59.10801 
L 406.035114 60.853279 
L 420.904769 63.251516 
L 471.065212 71.545434 
L 479.621141 72.68244 
L 487.186871 73.46189 
L 489.298675 73.640359 
L 489.298675 73.640359 
" clip-path="url(#p6a55665087)" style="fill: none; stroke: #0071b2; stroke-width: 2.5; stroke-linecap: round"/>
   </g>
   <g id="line2d_73">
    <path d="M -1 83.543323 
L 301.602821 83.545206 
L 323.326262 83.975444 
L 345.049704 84.784308 
L 357.757102 85.531644 
L 370.464501 86.553376 
L 381.989106 87.761193 
L 392.187942 89.073089 
L 402.483358 90.629728 
L 413.0285 92.449812 
L 424.82742 94.720987 
L 439.32618 97.763002 
L 454.867835 100.997905 
L 461.624689 102.16746 
L 467.338702 102.931258 
L 472.840955 103.437408 
L 478.753534 103.749343 
L 486.50738 103.916118 
L 489.298675 103.944503 
L 489.298675 103.944503 
" clip-path="url(#p6a55665087)" style="fill: none; stroke: #0071b2; stroke-width: 2.5; stroke-linecap: round"/>
   </g>
   <g id="line2d_74">
    <path d="M -1 95.037076 
L 301.602821 95.03542 
L 323.326262 94.658845 
L 345.049704 93.95557 
L 357.757102 93.311791 
L 370.464501 92.442204 
L 381.989106 91.432464 
L 393.882425 90.169655 
L 408.197371 88.408606 
L 442.628211 84.047621 
L 453.66691 82.942447 
L 464.697957 82.069003 
L 489.298675 80.454857 
L 489.298675 80.454857 
" clip-path="url(#p6a55665087)" style="fill: none; stroke: #009e73; stroke-width: 2.5; stroke-linecap: round"/>
   </g>
   <g id="line2d_75">
    <path d="M -1 104.600617 
L 301.602821 104.59887 
L 323.326262 104.202077 
L 345.049704 103.463312 
L 357.757102 102.790056 
L 370.464501 101.886212 
L 381.989106 100.846785 
L 395.489972 99.380993 
L 436.493517 94.672462 
L 447.15943 93.834009 
L 480.151446 91.449439 
L 489.298675 90.708587 
L 489.298675 90.708587 
" clip-path="url(#p6a55665087)" style="fill: none; stroke: #009e73; stroke-width: 2.5; stroke-linecap: round"/>
   </g>
   <g id="line2d_76">
    <path d="M -1 72.261128 
L 301.602821 72.261972 
L 336.033661 72.63762 
L 357.757102 73.143054 
L 376.753581 73.86049 
L 393.882425 74.770441 
L 412.120022 75.983057 
L 459.866829 79.301907 
L 472.973472 79.873333 
L 489.298675 80.440427 
L 489.298675 80.440427 
" clip-path="url(#p6a55665087)" style="fill: none; stroke: #cc78a6; stroke-width: 2.5; stroke-linecap: round"/>
   </g>
   <g id="line2d_77">
    <path d="M -1 60.805502 
L 301.602821 60.80634 
L 336.033661 61.175671 
L 357.757102 61.662586 
L 376.753581 62.327912 
L 401.203985 63.465184 
L 418.742512 64.210402 
L 429.394072 64.439105 
L 438.143387 64.402498 
L 446.550861 64.137037 
L 456.25072 63.58917 
L 472.30521 62.657 
L 480.361081 62.451527 
L 489.298675 62.435409 
L 489.298675 62.435409 
" clip-path="url(#p6a55665087)" style="fill: none; stroke: #cc78a6; stroke-width: 2.5; stroke-linecap: round"/>
   </g>
   <g id="line2d_78">
    <path d="M -1 53.383543 
L 301.602821 53.386144 
L 323.326262 53.978129 
L 336.033661 54.543601 
L 352.04309 55.601643 
L 362.588231 56.572224 
L 373.766531 57.885829 
L 384.311672 59.413818 
L 393.882425 61.034457 
L 406.035114 63.347963 
L 436.493517 69.308344 
L 445.61526 70.782372 
L 454.392973 71.969431 
L 464.177054 73.053417 
L 489.298675 75.539282 
L 489.298675 75.539282 
" clip-path="url(#p6a55665087)" style="fill: none; stroke-dasharray: 3,6; stroke-dashoffset: 0; stroke: #000000; stroke-opacity: 0.7; stroke-width: 3"/>
   </g>
   <g id="line2d_79">
    <path d="M -1 53.649086 
L 301.602821 53.650856 
L 323.326262 54.05551 
L 345.049704 54.816426 
L 357.757102 55.519264 
L 370.464501 56.478959 
L 381.989106 57.609758 
L 392.187942 58.830058 
L 403.712547 60.443402 
L 417.213414 62.581583 
L 445.61526 67.401321 
L 468.120296 71.090924 
L 477.519946 72.41585 
L 485.19221 73.271035 
L 489.298675 73.63496 
L 489.298675 73.63496 
" clip-path="url(#p6a55665087)" style="fill: none; stroke-dasharray: 3,6; stroke-dashoffset: 0; stroke: #000000; stroke-opacity: 0.7; stroke-width: 3"/>
   </g>
   <g id="line2d_80">
    <path d="M -1 95.044329 
L 301.602821 95.042704 
L 323.326262 94.672621 
L 345.049704 93.980296 
L 357.757102 93.345229 
L 370.464501 92.485472 
L 381.989106 91.48445 
L 393.882425 90.228679 
L 408.197371 88.470859 
L 443.655854 83.978848 
L 454.631303 82.891613 
L 465.714489 82.02364 
L 489.298675 80.464665 
L 489.298675 80.464665 
" clip-path="url(#p6a55665087)" style="fill: none; stroke-dasharray: 3,6; stroke-dashoffset: 0; stroke: #000000; stroke-opacity: 0.7; stroke-width: 3"/>
   </g>
   <g id="line2d_81">
    <path d="M -1 72.25734 
L 301.602821 72.258167 
L 336.033661 72.6274 
L 357.757102 73.12558 
L 376.753581 73.835315 
L 393.882425 74.739533 
L 412.120022 75.950442 
L 460.463805 79.311858 
L 473.75702 79.885866 
L 489.298675 80.429875 
L 489.298675 80.429875 
" clip-path="url(#p6a55665087)" style="fill: none; stroke-dasharray: 3,6; stroke-dashoffset: 0; stroke: #000000; stroke-opacity: 0.7; stroke-width: 3"/>
   </g>
   <g id="line2d_82">
    <path d="M -1 46.025446 
L 301.602821 46.028311 
L 323.326262 46.680785 
L 336.033661 47.304444 
L 352.04309 48.472519 
L 362.588231 49.545507 
L 373.766531 51.000294 
L 381.989106 52.296062 
L 392.187942 54.166419 
L 402.483358 56.312843 
L 416.419946 59.48631 
L 441.565726 65.241835 
L 481.989515 74.043517 
L 488.422523 75.105076 
L 489.298675 75.231649 
L 489.298675 75.231649 
" clip-path="url(#p6a55665087)" style="fill: none; stroke-dasharray: 3,6; stroke-dashoffset: 0; stroke: #000000; stroke-opacity: 0.7; stroke-width: 3"/>
   </g>
   <g id="line2d_83">
    <path d="M -1 83.537491 
L 301.602821 83.53935 
L 323.326262 83.964446 
L 345.049704 84.764844 
L 357.757102 85.505699 
L 370.464501 86.520544 
L 381.989106 87.72294 
L 392.187942 89.03194 
L 402.483358 90.588573 
L 413.0285 92.41228 
L 424.82742 94.691275 
L 439.32618 97.744835 
L 454.867835 100.989313 
L 461.624689 102.162349 
L 467.338702 102.92937 
L 472.840955 103.438801 
L 478.753534 103.753777 
L 486.50738 103.922437 
L 489.298675 103.950821 
L 489.298675 103.950821 
" clip-path="url(#p6a55665087)" style="fill: none; stroke-dasharray: 3,6; stroke-dashoffset: 0; stroke: #000000; stroke-opacity: 0.7; stroke-width: 3"/>
   </g>
   <g id="line2d_84">
    <path d="M -1 104.60775 
L 301.602821 104.606033 
L 323.326262 104.215606 
L 345.049704 103.487535 
L 357.757102 102.822728 
L 370.464501 101.928321 
L 381.989106 100.897101 
L 395.489972 99.438179 
L 437.329308 94.637379 
L 448.050683 93.799309 
L 478.753534 91.573347 
L 489.298675 90.71062 
L 489.298675 90.71062 
" clip-path="url(#p6a55665087)" style="fill: none; stroke-dasharray: 3,6; stroke-dashoffset: 0; stroke: #000000; stroke-opacity: 0.7; stroke-width: 3"/>
   </g>
   <g id="line2d_85">
    <path d="M -1 60.801468 
L 301.602821 60.802289 
L 336.033661 61.16475 
L 357.757102 61.643815 
L 376.753581 62.30063 
L 399.870154 63.365103 
L 418.742512 64.17513 
L 429.394072 64.407569 
L 438.143387 64.376021 
L 446.550861 64.116896 
L 456.25072 63.577162 
L 472.440007 62.648596 
L 480.569323 62.446608 
L 489.298675 62.433075 
L 489.298675 62.433075 
" clip-path="url(#p6a55665087)" style="fill: none; stroke-dasharray: 3,6; stroke-dashoffset: 0; stroke: #000000; stroke-opacity: 0.7; stroke-width: 3"/>
   </g>
   <g id="patch_6">
    <path d="M 301.602821 139.904531 
L 504.107179 139.904531 
" style="fill: none; stroke: #262626; stroke-width: 1.875; stroke-linejoin: miter; stroke-linecap: square"/>
   </g>
  </g>
  <g id="axes_3">
   <g id="patch_7">
    <path d="M 531.895642 139.904531 
L 734.4 139.904531 
L 734.4 19.44 
L 531.895642 19.44 
z
" style="fill: #ffffff"/>
   </g>
   <g id="matplotlib.axis_5">
    <g id="xtick_49">
     <g id="line2d_86">
      <g>
       <use xlink:href="#m644bf11f88" x="531.895642" y="139.904531" style="fill: #1a1a1a; stroke: #1a1a1a; stroke-width: 1.875"/>
      </g>
     </g>
     <g id="text_15">
      <!-- $\mathdefault{10^{0}}$ -->
      <g style="fill: #1a1a1a" transform="translate(518.943142 169.420156) scale(0.165 -0.165)">
       <use xlink:href="#ArialMT-31" transform="translate(0 0.99375)"/>
       <use xlink:href="#ArialMT-30" transform="translate(55.615234 0.99375)"/>
       <use xlink:href="#ArialMT-30" transform="translate(112.972813 70.6875) scale(0.7)"/>
      </g>
     </g>
    </g>
    <g id="xtick_50">
     <g id="line2d_87">
      <g>
       <use xlink:href="#m644bf11f88" x="604.059352" y="139.904531" style="fill: #1a1a1a; stroke: #1a1a1a; stroke-width: 1.875"/>
      </g>
     </g>
     <g id="text_16">
      <!-- $\mathdefault{10^{1}}$ -->
      <g style="fill: #1a1a1a" transform="translate(591.106852 169.420156) scale(0.165 -0.165)">
       <use xlink:href="#ArialMT-31" transform="translate(0 0.99375)"/>
       <use xlink:href="#ArialMT-30" transform="translate(55.615234 0.99375)"/>
       <use xlink:href="#ArialMT-31" transform="translate(112.972813 70.6875) scale(0.7)"/>
      </g>
     </g>
    </g>
    <g id="xtick_51">
     <g id="line2d_88">
      <g>
       <use xlink:href="#m644bf11f88" x="676.223062" y="139.904531" style="fill: #1a1a1a; stroke: #1a1a1a; stroke-width: 1.875"/>
      </g>
     </g>
     <g id="text_17">
      <!-- $\mathdefault{10^{2}}$ -->
      <g style="fill: #1a1a1a" transform="translate(663.270562 169.420156) scale(0.165 -0.165)">
       <use xlink:href="#ArialMT-31" transform="translate(0 0.99375)"/>
       <use xlink:href="#ArialMT-30" transform="translate(55.615234 0.99375)"/>
       <use xlink:href="#ArialMT-32" transform="translate(112.972813 70.6875) scale(0.7)"/>
      </g>
     </g>
    </g>
    <g id="xtick_52">
     <g id="line2d_89">
      <g>
       <use xlink:href="#m2eba6f43cb" x="553.619084" y="139.904531" style="fill: #1a1a1a; stroke: #1a1a1a; stroke-width: 1.5"/>
      </g>
     </g>
    </g>
    <g id="xtick_53">
     <g id="line2d_90">
      <g>
       <use xlink:href="#m2eba6f43cb" x="566.326482" y="139.904531" style="fill: #1a1a1a; stroke: #1a1a1a; stroke-width: 1.5"/>
      </g>
     </g>
    </g>
    <g id="xtick_54">
     <g id="line2d_91">
      <g>
       <use xlink:href="#m2eba6f43cb" x="575.342525" y="139.904531" style="fill: #1a1a1a; stroke: #1a1a1a; stroke-width: 1.5"/>
      </g>
     </g>
    </g>
    <g id="xtick_55">
     <g id="line2d_92">
      <g>
       <use xlink:href="#m2eba6f43cb" x="582.335911" y="139.904531" style="fill: #1a1a1a; stroke: #1a1a1a; stroke-width: 1.5"/>
      </g>
     </g>
    </g>
    <g id="xtick_56">
     <g id="line2d_93">
      <g>
       <use xlink:href="#m2eba6f43cb" x="588.049923" y="139.904531" style="fill: #1a1a1a; stroke: #1a1a1a; stroke-width: 1.5"/>
      </g>
     </g>
    </g>
    <g id="xtick_57">
     <g id="line2d_94">
      <g>
       <use xlink:href="#m2eba6f43cb" x="592.881052" y="139.904531" style="fill: #1a1a1a; stroke: #1a1a1a; stroke-width: 1.5"/>
      </g>
     </g>
    </g>
    <g id="xtick_58">
     <g id="line2d_95">
      <g>
       <use xlink:href="#m2eba6f43cb" x="597.065966" y="139.904531" style="fill: #1a1a1a; stroke: #1a1a1a; stroke-width: 1.5"/>
      </g>
     </g>
    </g>
    <g id="xtick_59">
     <g id="line2d_96">
      <g>
       <use xlink:href="#m2eba6f43cb" x="600.757322" y="139.904531" style="fill: #1a1a1a; stroke: #1a1a1a; stroke-width: 1.5"/>
      </g>
     </g>
    </g>
    <g id="xtick_60">
     <g id="line2d_97">
      <g>
       <use xlink:href="#m2eba6f43cb" x="625.782794" y="139.904531" style="fill: #1a1a1a; stroke: #1a1a1a; stroke-width: 1.5"/>
      </g>
     </g>
    </g>
    <g id="xtick_61">
     <g id="line2d_98">
      <g>
       <use xlink:href="#m2eba6f43cb" x="638.490192" y="139.904531" style="fill: #1a1a1a; stroke: #1a1a1a; stroke-width: 1.5"/>
      </g>
     </g>
    </g>
    <g id="xtick_62">
     <g id="line2d_99">
      <g>
       <use xlink:href="#m2eba6f43cb" x="647.506235" y="139.904531" style="fill: #1a1a1a; stroke: #1a1a1a; stroke-width: 1.5"/>
      </g>
     </g>
    </g>
    <g id="xtick_63">
     <g id="line2d_100">
      <g>
       <use xlink:href="#m2eba6f43cb" x="654.499621" y="139.904531" style="fill: #1a1a1a; stroke: #1a1a1a; stroke-width: 1.5"/>
      </g>
     </g>
    </g>
    <g id="xtick_64">
     <g id="line2d_101">
      <g>
       <use xlink:href="#m2eba6f43cb" x="660.213633" y="139.904531" style="fill: #1a1a1a; stroke: #1a1a1a; stroke-width: 1.5"/>
      </g>
     </g>
    </g>
    <g id="xtick_65">
     <g id="line2d_102">
      <g>
       <use xlink:href="#m2eba6f43cb" x="665.044762" y="139.904531" style="fill: #1a1a1a; stroke: #1a1a1a; stroke-width: 1.5"/>
      </g>
     </g>
    </g>
    <g id="xtick_66">
     <g id="line2d_103">
      <g>
       <use xlink:href="#m2eba6f43cb" x="669.229676" y="139.904531" style="fill: #1a1a1a; stroke: #1a1a1a; stroke-width: 1.5"/>
      </g>
     </g>
    </g>
    <g id="xtick_67">
     <g id="line2d_104">
      <g>
       <use xlink:href="#m2eba6f43cb" x="672.921032" y="139.904531" style="fill: #1a1a1a; stroke: #1a1a1a; stroke-width: 1.5"/>
      </g>
     </g>
    </g>
    <g id="xtick_68">
     <g id="line2d_105">
      <g>
       <use xlink:href="#m2eba6f43cb" x="697.946504" y="139.904531" style="fill: #1a1a1a; stroke: #1a1a1a; stroke-width: 1.5"/>
      </g>
     </g>
    </g>
    <g id="xtick_69">
     <g id="line2d_106">
      <g>
       <use xlink:href="#m2eba6f43cb" x="710.653902" y="139.904531" style="fill: #1a1a1a; stroke: #1a1a1a; stroke-width: 1.5"/>
      </g>
     </g>
    </g>
    <g id="xtick_70">
     <g id="line2d_107">
      <g>
       <use xlink:href="#m2eba6f43cb" x="719.669945" y="139.904531" style="fill: #1a1a1a; stroke: #1a1a1a; stroke-width: 1.5"/>
      </g>
     </g>
    </g>
    <g id="xtick_71">
     <g id="line2d_108">
      <g>
       <use xlink:href="#m2eba6f43cb" x="726.663331" y="139.904531" style="fill: #1a1a1a; stroke: #1a1a1a; stroke-width: 1.5"/>
      </g>
     </g>
    </g>
    <g id="xtick_72">
     <g id="line2d_109">
      <g>
       <use xlink:href="#m2eba6f43cb" x="732.377343" y="139.904531" style="fill: #1a1a1a; stroke: #1a1a1a; stroke-width: 1.5"/>
      </g>
     </g>
    </g>
    <g id="text_18">
     <!-- Training Steps -->
     <g style="fill: #262626" transform="translate(575.459227 189.802969) scale(0.18 -0.18)">
      <use xlink:href="#ArialMT-54"/>
      <use xlink:href="#ArialMT-72" x="57.333984"/>
      <use xlink:href="#ArialMT-61" x="90.634766"/>
      <use xlink:href="#ArialMT-69" x="146.25"/>
      <use xlink:href="#ArialMT-6e" x="168.466797"/>
      <use xlink:href="#ArialMT-69" x="224.082031"/>
      <use xlink:href="#ArialMT-6e" x="246.298828"/>
      <use xlink:href="#ArialMT-67" x="301.914062"/>
      <use xlink:href="#ArialMT-20" x="357.529297"/>
      <use xlink:href="#ArialMT-53" x="385.3125"/>
      <use xlink:href="#ArialMT-74" x="452.011719"/>
      <use xlink:href="#ArialMT-65" x="479.794922"/>
      <use xlink:href="#ArialMT-70" x="535.410156"/>
      <use xlink:href="#ArialMT-73" x="591.025391"/>
     </g>
    </g>
   </g>
   <g id="matplotlib.axis_6"/>
   <g id="PathCollection_17">
    <g clip-path="url(#p68f991a0d0)">
     <use xlink:href="#m35a91923d7" x="734.4" y="94.935525" style="fill: #d65c00; stroke: #d65c00; stroke-width: 2.5"/>
    </g>
   </g>
   <g id="PathCollection_18">
    <g clip-path="url(#p68f991a0d0)">
     <use xlink:href="#m35a91923d7" x="734.4" y="53.95942" style="fill: #d65c00; stroke: #d65c00; stroke-width: 2.5"/>
    </g>
   </g>
   <g id="PathCollection_19">
    <g clip-path="url(#p68f991a0d0)">
     <use xlink:href="#m2f52b2ceb7" x="734.4" y="132.877162" style="fill: #0071b2; stroke: #0071b2; stroke-width: 2.5"/>
    </g>
   </g>
   <g id="PathCollection_20">
    <g clip-path="url(#p68f991a0d0)">
     <use xlink:href="#m2f52b2ceb7" x="734.4" y="70.021568" style="fill: #0071b2; stroke: #0071b2; stroke-width: 2.5"/>
    </g>
   </g>
   <g id="PathCollection_21">
    <g clip-path="url(#p68f991a0d0)">
     <use xlink:href="#mf394f6b156" x="734.4" y="86.145508" style="fill: #009e73; stroke: #009e73; stroke-width: 2.5"/>
    </g>
   </g>
   <g id="PathCollection_22">
    <g clip-path="url(#p68f991a0d0)">
     <use xlink:href="#mf394f6b156" x="734.4" y="59.745967" style="fill: #009e73; stroke: #009e73; stroke-width: 2.5"/>
    </g>
   </g>
   <g id="PathCollection_23">
    <g clip-path="url(#p68f991a0d0)">
     <use xlink:href="#m5c227a8467" x="734.4" y="65.570424" style="fill: #cc78a6; stroke: #cc78a6; stroke-width: 2.5"/>
    </g>
   </g>
   <g id="PathCollection_24">
    <g clip-path="url(#p68f991a0d0)">
     <use xlink:href="#m5c227a8467" x="734.4" y="155.853336" style="fill: #cc78a6; stroke: #cc78a6; stroke-width: 2.5"/>
    </g>
   </g>
   <g id="line2d_110">
    <path d="M 514.278666 63.210399 
L 516.801324 63.210399 
L 519.135966 63.210399 
L 521.308686 63.210399 
L 523.340495 63.210399 
L 525.248562 63.210399 
L 527.047098 63.210399 
L 528.747998 63.210399 
L 530.36132 63.210399 
L 531.895642 63.210399 
" style="fill: none; stroke: #d65c00; stroke-width: 2.5; stroke-linecap: round"/>
   </g>
   <g id="line2d_111">
    <path d="M 514.278666 92.70736 
L 516.801324 92.70736 
L 519.135966 92.70736 
L 521.308686 92.70736 
L 523.340495 92.70736 
L 525.248562 92.70736 
L 527.047098 92.70736 
L 528.747998 92.70736 
L 530.36132 92.70736 
L 531.895642 92.70736 
" style="fill: none; stroke: #d65c00; stroke-width: 2.5; stroke-linecap: round"/>
   </g>
   <g id="line2d_112">
    <path d="M 514.278666 65.089236 
L 516.801324 65.089236 
L 519.135966 65.089236 
L 521.308686 65.089236 
L 523.340495 65.089236 
L 525.248562 65.089236 
L 527.047098 65.089236 
L 528.747998 65.089236 
L 530.36132 65.089236 
L 531.895642 65.089236 
" style="fill: none; stroke: #0071b2; stroke-width: 2.5; stroke-linecap: round"/>
   </g>
   <g id="line2d_113">
    <path d="M 514.278666 57.341478 
L 516.801324 57.341478 
L 519.135966 57.341478 
L 521.308686 57.341478 
L 523.340495 57.341478 
L 525.248562 57.341478 
L 527.047098 57.341478 
L 528.747998 57.341478 
L 530.36132 57.341478 
L 531.895642 57.341478 
" style="fill: none; stroke: #0071b2; stroke-width: 2.5; stroke-linecap: round"/>
   </g>
   <g id="line2d_114">
    <path d="M 514.278666 106.080656 
L 516.801324 106.080656 
L 519.135966 106.080656 
L 521.308686 106.080656 
L 523.340495 106.080656 
L 525.248562 106.080656 
L 527.047098 106.080656 
L 528.747998 106.080656 
L 530.36132 106.080656 
L 531.895642 106.080656 
" style="fill: none; stroke: #009e73; stroke-width: 2.5; stroke-linecap: round"/>
   </g>
   <g id="line2d_115">
    <path d="M 514.278666 106.126132 
L 516.801324 106.126132 
L 519.135966 106.126132 
L 521.308686 106.126132 
L 523.340495 106.126132 
L 525.248562 106.126132 
L 527.047098 106.126132 
L 528.747998 106.126132 
L 530.36132 106.126132 
L 531.895642 106.126132 
" style="fill: none; stroke: #009e73; stroke-width: 2.5; stroke-linecap: round"/>
   </g>
   <g id="line2d_116">
    <path d="M 514.278666 85.238694 
L 516.801324 85.238694 
L 519.135966 85.238694 
L 521.308686 85.238694 
L 523.340495 85.238694 
L 525.248562 85.238694 
L 527.047098 85.238694 
L 528.747998 85.238694 
L 530.36132 85.238694 
L 531.895642 85.238694 
" style="fill: none; stroke: #cc78a6; stroke-width: 2.5; stroke-linecap: round"/>
   </g>
   <g id="line2d_117">
    <path d="M 514.278666 93.778926 
L 516.801324 93.778926 
L 519.135966 93.778926 
L 521.308686 93.778926 
L 523.340495 93.778926 
L 525.248562 93.778926 
L 527.047098 93.778926 
L 528.747998 93.778926 
L 530.36132 93.778926 
L 531.895642 93.778926 
" style="fill: none; stroke: #cc78a6; stroke-width: 2.5; stroke-linecap: round"/>
   </g>
   <g id="line2d_118">
    <path d="M -1 63.206548 
L 531.895642 63.210399 
L 553.619084 63.714429 
L 566.326482 64.202091 
L 582.335911 65.132009 
L 592.881052 66.006922 
L 604.059352 67.228813 
L 612.281927 68.356842 
L 620.689401 69.738592 
L 628.769843 71.305946 
L 636.327935 73.005009 
L 643.321321 74.802589 
L 649.772786 76.68818 
L 655.72881 78.672304 
L 660.731667 80.573619 
L 665.044762 82.435411 
L 669.229676 84.489511 
L 672.921032 86.544751 
L 676.534909 88.808638 
L 680.329527 91.468763 
L 684.203626 94.463503 
L 689.755253 99.074668 
L 695.503165 103.780533 
L 698.872885 106.24738 
L 701.776841 108.09552 
L 704.43439 109.528196 
L 707.118857 110.719258 
L 709.806815 111.668026 
L 712.676559 112.441753 
L 715.841174 113.054845 
L 719.354964 113.502149 
L 719.591496 113.524974 
L 719.591496 113.524974 
" clip-path="url(#p68f991a0d0)" style="fill: none; stroke: #d65c00; stroke-width: 2.5; stroke-linecap: round"/>
   </g>
   <g id="line2d_119">
    <path d="M -1 92.707237 
L 622.480763 92.600281 
L 638.490192 92.316182 
L 650.493285 91.893395 
L 659.686893 91.348965 
L 666.359933 90.742735 
L 671.858547 90.027676 
L 676.534909 89.200479 
L 680.87459 88.202985 
L 684.924124 87.047465 
L 689.34557 85.549548 
L 695.840161 83.074901 
L 702.052969 80.790036 
L 706.169079 79.521665 
L 710.020743 78.572529 
L 714.01855 77.821722 
L 718.715344 77.178761 
L 719.591496 77.079525 
L 719.591496 77.079525 
" clip-path="url(#p68f991a0d0)" style="fill: none; stroke: #d65c00; stroke-width: 2.5; stroke-linecap: round"/>
   </g>
   <g id="line2d_120">
    <path d="M -1 65.083699 
L 531.895642 65.089236 
L 553.619084 65.812025 
L 566.326482 66.509531 
L 575.342525 67.183374 
L 588.049923 68.465938 
L 597.065966 69.670401 
L 604.059352 70.805966 
L 612.281927 72.397271 
L 618.789408 73.873932 
L 625.782794 75.696131 
L 632.77618 77.786464 
L 638.490192 79.717239 
L 644.204205 81.878834 
L 649.772786 84.249115 
L 654.499621 86.509592 
L 658.606086 88.698758 
L 662.722196 91.144997 
L 666.359933 93.551935 
L 670.00355 96.222963 
L 673.609857 99.141527 
L 677.452251 102.548656 
L 681.937075 106.845878 
L 691.342443 115.981148 
L 694.294299 118.478367 
L 696.829937 120.345414 
L 699.175692 121.808659 
L 701.498259 122.99825 
L 703.790829 123.930281 
L 706.289387 124.703299 
L 709.046355 125.319216 
L 712.480067 125.845293 
L 717.897013 126.41454 
L 719.591496 126.573139 
L 719.591496 126.573139 
" clip-path="url(#p68f991a0d0)" style="fill: none; stroke: #0071b2; stroke-width: 2.5; stroke-linecap: round"/>
   </g>
   <g id="line2d_121">
    <path d="M -1 57.337832 
L 531.895642 57.341478 
L 553.619084 57.81556 
L 566.326482 58.271069 
L 582.335911 59.130292 
L 592.881052 59.926287 
L 604.059352 61.014902 
L 614.604493 62.29566 
L 625.782794 63.913482 
L 641.477242 66.478173 
L 652.560427 68.211916 
L 659.151149 69.028583 
L 664.136284 69.441552 
L 668.436208 69.593605 
L 672.570857 69.510354 
L 676.223062 69.214958 
L 679.774817 68.70936 
L 683.466173 67.95904 
L 687.867976 66.821314 
L 697.631523 64.196858 
L 700.790773 63.636601 
L 703.660516 63.353317 
L 706.409235 63.306089 
L 709.156128 63.479773 
L 712.083349 63.892238 
L 715.30543 64.580879 
L 719.116634 65.638722 
L 719.591496 65.78416 
L 719.591496 65.78416 
" clip-path="url(#p68f991a0d0)" style="fill: none; stroke: #0071b2; stroke-width: 2.5; stroke-linecap: round"/>
   </g>
   <g id="line2d_122">
    <path d="M -1 106.084066 
L 531.895642 106.080656 
L 553.619084 105.639537 
L 575.342525 104.814545 
L 588.049923 104.058489 
L 600.757322 103.037043 
L 612.281927 101.852847 
L 624.175246 100.379734 
L 638.490192 98.355312 
L 664.593815 94.62578 
L 691.535307 90.958615 
L 703.660516 89.21239 
L 710.127162 88.533563 
L 717.563602 87.992537 
L 719.591496 87.87237 
L 719.591496 87.87237 
" clip-path="url(#p68f991a0d0)" style="fill: none; stroke: #009e73; stroke-width: 2.5; stroke-linecap: round"/>
   </g>
   <g id="line2d_123">
    <path d="M -1 106.129666 
L 531.895642 106.126132 
L 553.619084 105.664216 
L 566.326482 105.218062 
L 582.335911 104.369722 
L 592.881052 103.575057 
L 604.059352 102.472432 
L 614.604493 101.146646 
L 624.175246 99.682988 
L 634.005369 97.923001 
L 644.204205 95.852558 
L 657.486671 92.895019 
L 677.752161 88.359252 
L 685.62843 86.848256 
L 692.295109 85.792514 
L 699.624487 84.868633 
L 719.591496 82.539998 
L 719.591496 82.539998 
" clip-path="url(#p68f991a0d0)" style="fill: none; stroke: #009e73; stroke-width: 2.5; stroke-linecap: round"/>
   </g>
   <g id="line2d_124">
    <path d="M -1 85.240244 
L 531.895642 85.238694 
L 566.326482 84.840948 
L 588.049923 84.292822 
L 604.059352 83.636121 
L 618.789408 82.770938 
L 631.496806 81.769347 
L 641.477242 80.766228 
L 649.772786 79.727478 
L 656.911603 78.613402 
L 662.722196 77.489065 
L 668.031812 76.228949 
L 672.570857 74.931715 
L 677.149444 73.39074 
L 681.937075 71.536775 
L 689.755253 68.209054 
L 694.644473 66.251997 
L 698.25835 65.043647 
L 701.498259 64.200558 
L 704.561531 63.63061 
L 707.812767 63.255051 
L 711.376775 63.071331 
L 715.841174 63.078524 
L 719.591496 63.197595 
L 719.591496 63.197595 
" clip-path="url(#p68f991a0d0)" style="fill: none; stroke: #cc78a6; stroke-width: 2.5; stroke-linecap: round"/>
   </g>
   <g id="line2d_125">
    <path d="M -1 93.779821 
L 531.895642 93.778926 
L 575.342525 93.445392 
L 600.757322 92.975418 
L 624.175246 92.280177 
L 651.886416 91.43023 
L 660.731667 91.395568 
L 667.207019 91.580442 
L 672.570857 91.946163 
L 677.452251 92.507053 
L 681.937075 93.255255 
L 686.317256 94.218233 
L 691.148385 95.523444 
L 697.946504 97.625709 
L 706.766055 100.311955 
L 712.381357 101.778872 
L 717.479693 102.882469 
L 719.591496 103.266257 
L 719.591496 103.266257 
" clip-path="url(#p68f991a0d0)" style="fill: none; stroke: #cc78a6; stroke-width: 2.5; stroke-linecap: round"/>
   </g>
   <g id="line2d_126">
    <path d="M -1 63.200701 
L 531.895642 63.204508 
L 553.619084 63.703225 
L 566.326482 64.186096 
L 582.335911 65.107808 
L 592.881052 65.976076 
L 604.059352 67.190355 
L 612.281927 68.312995 
L 620.689401 69.690142 
L 628.769843 71.254716 
L 636.327935 72.953355 
L 643.321321 74.75294 
L 649.772786 76.642701 
L 655.72881 78.632675 
L 660.731667 80.540191 
L 665.044762 82.407923 
L 669.229676 84.467792 
L 672.921032 86.527512 
L 676.534909 88.794521 
L 680.329527 91.455765 
L 684.445637 94.643517 
L 690.359908 99.560811 
L 695.672116 103.880364 
L 699.024655 106.317897 
L 701.915209 108.143958 
L 704.561531 109.560301 
L 707.235581 110.738872 
L 709.913962 111.678756 
L 712.774344 112.446143 
L 715.929581 113.054878 
L 719.434007 113.499396 
L 719.591496 113.514635 
L 719.591496 113.514635 
" clip-path="url(#p68f991a0d0)" style="fill: none; stroke-dasharray: 3,6; stroke-dashoffset: 0; stroke: #000000; stroke-opacity: 0.7; stroke-width: 3"/>
   </g>
   <g id="line2d_127">
    <path d="M -1 65.074701 
L 531.895642 65.080171 
L 553.619084 65.794903 
L 566.326482 66.485258 
L 575.342525 67.152761 
L 588.049923 68.424765 
L 597.065966 69.621047 
L 604.059352 70.750371 
L 612.281927 72.335192 
L 618.789408 73.808025 
L 625.782794 75.628106 
L 632.77618 77.719046 
L 638.490192 79.652691 
L 644.204205 81.819399 
L 649.772786 84.196674 
L 654.499621 86.4643 
L 658.606086 88.660149 
L 662.722196 91.112953 
L 666.359933 93.52496 
L 670.00355 96.199635 
L 673.609857 99.119585 
L 677.452251 102.524862 
L 681.937075 106.814908 
L 691.342443 115.925616 
L 694.294299 118.418124 
L 696.829937 120.284378 
L 699.175692 121.749905 
L 701.498259 122.944391 
L 703.920603 123.929683 
L 706.409235 124.696775 
L 709.265519 125.331621 
L 712.774344 125.864652 
L 718.390571 126.454548 
L 719.591496 126.5682 
L 719.591496 126.5682 
" clip-path="url(#p68f991a0d0)" style="fill: none; stroke-dasharray: 3,6; stroke-dashoffset: 0; stroke: #000000; stroke-opacity: 0.7; stroke-width: 3"/>
   </g>
   <g id="line2d_128">
    <path d="M -1 106.092452 
L 531.895642 106.089103 
L 553.619084 105.655599 
L 575.342525 104.843659 
L 588.049923 104.098207 
L 600.757322 103.089026 
L 612.281927 101.916081 
L 624.175246 100.452483 
L 638.490192 98.43281 
L 665.927646 94.505616 
L 690.15965 91.186267 
L 703.920603 89.193062 
L 710.444267 88.51582 
L 717.979814 87.97308 
L 719.591496 87.877371 
L 719.591496 87.877371 
" clip-path="url(#p68f991a0d0)" style="fill: none; stroke-dasharray: 3,6; stroke-dashoffset: 0; stroke: #000000; stroke-opacity: 0.7; stroke-width: 3"/>
   </g>
   <g id="line2d_129">
    <path d="M -1 85.242847 
L 531.895642 85.241316 
L 566.326482 84.847917 
L 588.049923 84.304482 
L 604.059352 83.651505 
L 618.789408 82.788333 
L 630.162975 81.904058 
L 640.512849 80.886309 
L 649.035333 79.836906 
L 656.325786 78.715852 
L 662.23629 77.587873 
L 667.622129 76.32615 
L 672.216726 75.028599 
L 676.843683 73.48762 
L 681.674811 71.632638 
L 688.930461 68.559014 
L 694.294299 66.389837 
L 697.946504 65.149773 
L 701.217178 64.277965 
L 704.306731 63.683333 
L 707.583167 63.286177 
L 711.171935 63.085211 
L 715.574447 63.077909 
L 719.591496 63.199833 
L 719.591496 63.199833 
" clip-path="url(#p68f991a0d0)" style="fill: none; stroke-dasharray: 3,6; stroke-dashoffset: 0; stroke: #000000; stroke-opacity: 0.7; stroke-width: 3"/>
   </g>
   <g id="line2d_130">
    <path d="M -1 92.706793 
L 622.480763 92.605865 
L 638.490192 92.328716 
L 650.493285 91.911549 
L 659.686893 91.369858 
L 666.359933 90.76377 
L 671.858547 90.047372 
L 676.534909 89.218202 
L 680.87459 88.218703 
L 684.924124 87.061767 
L 689.34557 85.563309 
L 696.00731 83.024408 
L 702.052969 80.802607 
L 706.169079 79.530812 
L 710.020743 78.577173 
L 714.01855 77.821353 
L 718.634466 77.182897 
L 719.591496 77.073431 
L 719.591496 77.073431 
" clip-path="url(#p68f991a0d0)" style="fill: none; stroke-dasharray: 3,6; stroke-dashoffset: 0; stroke: #000000; stroke-opacity: 0.7; stroke-width: 3"/>
   </g>
   <g id="line2d_131">
    <path d="M -1 57.331793 
L 531.895642 57.335394 
L 553.619084 57.804009 
L 566.326482 58.254603 
L 582.335911 59.105439 
L 592.881052 59.894663 
L 604.059352 60.975511 
L 614.604493 62.249229 
L 625.782794 63.861178 
L 640.512849 66.262708 
L 652.560427 68.158343 
L 659.151149 68.977199 
L 664.136284 69.392168 
L 668.436208 69.546244 
L 672.570857 69.465459 
L 676.223062 69.173053 
L 679.774817 68.671553 
L 683.466173 67.927184 
L 687.867976 66.798974 
L 697.631523 64.198017 
L 700.790773 63.642687 
L 703.660516 63.361964 
L 706.409235 63.315651 
L 709.156128 63.489125 
L 712.083349 63.900598 
L 715.30543 64.587693 
L 719.116634 65.643508 
L 719.591496 65.788691 
L 719.591496 65.788691 
" clip-path="url(#p68f991a0d0)" style="fill: none; stroke-dasharray: 3,6; stroke-dashoffset: 0; stroke: #000000; stroke-opacity: 0.7; stroke-width: 3"/>
   </g>
   <g id="line2d_132">
    <path d="M -1 106.135712 
L 531.895642 106.132223 
L 553.619084 105.675834 
L 566.326482 105.234697 
L 582.335911 104.395051 
L 592.881052 103.607557 
L 604.059352 102.513393 
L 614.604493 101.19562 
L 624.175246 99.738271 
L 634.005369 97.982682 
L 644.204205 95.913538 
L 656.911603 93.08407 
L 678.343505 88.281838 
L 686.089326 86.807508 
L 692.853111 85.748546 
L 700.358486 84.812863 
L 719.591496 82.54658 
L 719.591496 82.54658 
" clip-path="url(#p68f991a0d0)" style="fill: none; stroke-dasharray: 3,6; stroke-dashoffset: 0; stroke: #000000; stroke-opacity: 0.7; stroke-width: 3"/>
   </g>
   <g id="line2d_133">
    <path d="M -1 93.781874 
L 531.895642 93.780994 
L 575.342525 93.452629 
L 600.757322 92.988718 
L 624.175246 92.300152 
L 651.886416 91.456537 
L 660.731667 91.42397 
L 667.207019 91.610709 
L 672.570857 91.978038 
L 677.452251 92.540003 
L 681.937075 93.288258 
L 686.317256 94.249824 
L 691.148385 95.551511 
L 698.102815 97.696104 
L 706.766055 100.324504 
L 712.381357 101.786933 
L 717.479693 102.886331 
L 719.591496 103.268395 
L 719.591496 103.268395 
" clip-path="url(#p68f991a0d0)" style="fill: none; stroke-dasharray: 3,6; stroke-dashoffset: 0; stroke: #000000; stroke-opacity: 0.7; stroke-width: 3"/>
   </g>
   <g id="line2d_134">
    <path d="M 514.278666 63.210399 
L 516.801324 63.210399 
L 519.135966 63.210399 
L 521.308686 63.210399 
L 523.340495 63.210399 
L 525.248562 63.210399 
L 527.047098 63.210399 
L 528.747998 63.210399 
L 530.36132 63.210399 
L 531.895642 63.210399 
" style="fill: none; stroke-dasharray: 3,6; stroke-dashoffset: 0; stroke: #000000; stroke-opacity: 0.7; stroke-width: 3"/>
   </g>
   <g id="line2d_135">
    <path d="M 514.278666 92.70736 
L 516.801324 92.70736 
L 519.135966 92.70736 
L 521.308686 92.70736 
L 523.340495 92.70736 
L 525.248562 92.70736 
L 527.047098 92.70736 
L 528.747998 92.70736 
L 530.36132 92.70736 
L 531.895642 92.70736 
" style="fill: none; stroke-dasharray: 3,6; stroke-dashoffset: 0; stroke: #000000; stroke-opacity: 0.7; stroke-width: 3"/>
   </g>
   <g id="line2d_136">
    <path d="M 514.278666 65.089236 
L 516.801324 65.089236 
L 519.135966 65.089236 
L 521.308686 65.089236 
L 523.340495 65.089236 
L 525.248562 65.089236 
L 527.047098 65.089236 
L 528.747998 65.089236 
L 530.36132 65.089236 
L 531.895642 65.089236 
" style="fill: none; stroke-dasharray: 3,6; stroke-dashoffset: 0; stroke: #000000; stroke-opacity: 0.7; stroke-width: 3"/>
   </g>
   <g id="line2d_137">
    <path d="M 514.278666 57.341478 
L 516.801324 57.341478 
L 519.135966 57.341478 
L 521.308686 57.341478 
L 523.340495 57.341478 
L 525.248562 57.341478 
L 527.047098 57.341478 
L 528.747998 57.341478 
L 530.36132 57.341478 
L 531.895642 57.341478 
" style="fill: none; stroke-dasharray: 3,6; stroke-dashoffset: 0; stroke: #000000; stroke-opacity: 0.7; stroke-width: 3"/>
   </g>
   <g id="line2d_138">
    <path d="M 514.278666 106.080656 
L 516.801324 106.080656 
L 519.135966 106.080656 
L 521.308686 106.080656 
L 523.340495 106.080656 
L 525.248562 106.080656 
L 527.047098 106.080656 
L 528.747998 106.080656 
L 530.36132 106.080656 
L 531.895642 106.080656 
" style="fill: none; stroke-dasharray: 3,6; stroke-dashoffset: 0; stroke: #000000; stroke-opacity: 0.7; stroke-width: 3"/>
   </g>
   <g id="line2d_139">
    <path d="M 514.278666 106.126132 
L 516.801324 106.126132 
L 519.135966 106.126132 
L 521.308686 106.126132 
L 523.340495 106.126132 
L 525.248562 106.126132 
L 527.047098 106.126132 
L 528.747998 106.126132 
L 530.36132 106.126132 
L 531.895642 106.126132 
" style="fill: none; stroke-dasharray: 3,6; stroke-dashoffset: 0; stroke: #000000; stroke-opacity: 0.7; stroke-width: 3"/>
   </g>
   <g id="line2d_140">
    <path d="M 514.278666 85.238694 
L 516.801324 85.238694 
L 519.135966 85.238694 
L 521.308686 85.238694 
L 523.340495 85.238694 
L 525.248562 85.238694 
L 527.047098 85.238694 
L 528.747998 85.238694 
L 530.36132 85.238694 
L 531.895642 85.238694 
" style="fill: none; stroke-dasharray: 3,6; stroke-dashoffset: 0; stroke: #000000; stroke-opacity: 0.7; stroke-width: 3"/>
   </g>
   <g id="line2d_141">
    <path d="M 514.278666 93.778926 
L 516.801324 93.778926 
L 519.135966 93.778926 
L 521.308686 93.778926 
L 523.340495 93.778926 
L 525.248562 93.778926 
L 527.047098 93.778926 
L 528.747998 93.778926 
L 530.36132 93.778926 
L 531.895642 93.778926 
" style="fill: none; stroke-dasharray: 3,6; stroke-dashoffset: 0; stroke: #000000; stroke-opacity: 0.7; stroke-width: 3"/>
   </g>
   <g id="line2d_142">
    <path clip-path="url(#p68f991a0d0)" style="fill: none; stroke: #d65c00; stroke-width: 2.5; stroke-linecap: round"/>
   </g>
   <g id="line2d_143">
    <path clip-path="url(#p68f991a0d0)" style="fill: none; stroke: #0071b2; stroke-width: 2.5; stroke-linecap: round"/>
   </g>
   <g id="line2d_144">
    <path clip-path="url(#p68f991a0d0)" style="fill: none; stroke: #009e73; stroke-width: 2.5; stroke-linecap: round"/>
   </g>
   <g id="line2d_145">
    <path clip-path="url(#p68f991a0d0)" style="fill: none; stroke: #cc78a6; stroke-width: 2.5; stroke-linecap: round"/>
   </g>
   <g id="line2d_146">
    <path clip-path="url(#p68f991a0d0)" style="fill: none; stroke-dasharray: 3,6; stroke-dashoffset: 0; stroke: #000000; stroke-opacity: 0.7; stroke-width: 3"/>
   </g>
   <g id="patch_8">
    <path d="M 531.895642 139.904531 
L 734.4 139.904531 
" style="fill: none; stroke: #262626; stroke-width: 1.875; stroke-linejoin: miter; stroke-linecap: square"/>
   </g>
   <g id="line2d_147">
    <path d="M 531.895642 139.904531 
L 531.895642 19.44 
" style="fill: none; stroke-dasharray: 9.25,4; stroke-dashoffset: 0; stroke: #808080; stroke-width: 2.5"/>
   </g>
  </g>
  <g id="legend_1">
   <g id="line2d_148">
    <path d="M 752.284375 67.030313 
L 766.284375 67.030313 
L 780.284375 67.030313 
" style="fill: none; stroke: #d65c00; stroke-width: 2.5; stroke-linecap: round"/>
   </g>
   <g id="text_19">
    <!-- Item 1 -->
    <g style="fill: #262626" transform="translate(791.484375 71.930313) scale(0.14 -0.14)">
     <defs>
      <path id="ArialMT-49" d="M 597 0 
L 597 4581 
L 1203 4581 
L 1203 0 
L 597 0 
z
" transform="scale(0.015625)"/>
      <path id="ArialMT-6d" d="M 422 0 
L 422 3319 
L 925 3319 
L 925 2853 
Q 1081 3097 1340 3245 
Q 1600 3394 1931 3394 
Q 2300 3394 2536 3241 
Q 2772 3088 2869 2813 
Q 3263 3394 3894 3394 
Q 4388 3394 4653 3120 
Q 4919 2847 4919 2278 
L 4919 0 
L 4359 0 
L 4359 2091 
Q 4359 2428 4304 2576 
Q 4250 2725 4106 2815 
Q 3963 2906 3769 2906 
Q 3419 2906 3187 2673 
Q 2956 2441 2956 1928 
L 2956 0 
L 2394 0 
L 2394 2156 
Q 2394 2531 2256 2718 
Q 2119 2906 1806 2906 
Q 1569 2906 1367 2781 
Q 1166 2656 1075 2415 
Q 984 2175 984 1722 
L 984 0 
L 422 0 
z
" transform="scale(0.015625)"/>
     </defs>
     <use xlink:href="#ArialMT-49"/>
     <use xlink:href="#ArialMT-74" x="27.783203"/>
     <use xlink:href="#ArialMT-65" x="55.566406"/>
     <use xlink:href="#ArialMT-6d" x="111.181641"/>
     <use xlink:href="#ArialMT-20" x="194.482422"/>
     <use xlink:href="#ArialMT-31" x="222.265625"/>
    </g>
   </g>
   <g id="line2d_149">
    <path d="M 752.284375 86.83375 
L 766.284375 86.83375 
L 780.284375 86.83375 
" style="fill: none; stroke: #0071b2; stroke-width: 2.5; stroke-linecap: round"/>
   </g>
   <g id="text_20">
    <!-- Item 2 -->
    <g style="fill: #262626" transform="translate(791.484375 91.73375) scale(0.14 -0.14)">
     <use xlink:href="#ArialMT-49"/>
     <use xlink:href="#ArialMT-74" x="27.783203"/>
     <use xlink:href="#ArialMT-65" x="55.566406"/>
     <use xlink:href="#ArialMT-6d" x="111.181641"/>
     <use xlink:href="#ArialMT-20" x="194.482422"/>
     <use xlink:href="#ArialMT-32" x="222.265625"/>
    </g>
   </g>
   <g id="line2d_150">
    <path d="M 752.284375 106.637188 
L 766.284375 106.637188 
L 780.284375 106.637188 
" style="fill: none; stroke: #009e73; stroke-width: 2.5; stroke-linecap: round"/>
   </g>
   <g id="text_21">
    <!-- Item 3 -->
    <g style="fill: #262626" transform="translate(791.484375 111.537188) scale(0.14 -0.14)">
     <defs>
      <path id="ArialMT-33" d="M 269 1209 
L 831 1284 
Q 928 806 1161 595 
Q 1394 384 1728 384 
Q 2125 384 2398 659 
Q 2672 934 2672 1341 
Q 2672 1728 2419 1979 
Q 2166 2231 1775 2231 
Q 1616 2231 1378 2169 
L 1441 2663 
Q 1497 2656 1531 2656 
Q 1891 2656 2178 2843 
Q 2466 3031 2466 3422 
Q 2466 3731 2256 3934 
Q 2047 4138 1716 4138 
Q 1388 4138 1169 3931 
Q 950 3725 888 3313 
L 325 3413 
Q 428 3978 793 4289 
Q 1159 4600 1703 4600 
Q 2078 4600 2393 4439 
Q 2709 4278 2876 4000 
Q 3044 3722 3044 3409 
Q 3044 3113 2884 2869 
Q 2725 2625 2413 2481 
Q 2819 2388 3044 2092 
Q 3269 1797 3269 1353 
Q 3269 753 2831 336 
Q 2394 -81 1725 -81 
Q 1122 -81 723 278 
Q 325 638 269 1209 
z
" transform="scale(0.015625)"/>
     </defs>
     <use xlink:href="#ArialMT-49"/>
     <use xlink:href="#ArialMT-74" x="27.783203"/>
     <use xlink:href="#ArialMT-65" x="55.566406"/>
     <use xlink:href="#ArialMT-6d" x="111.181641"/>
     <use xlink:href="#ArialMT-20" x="194.482422"/>
     <use xlink:href="#ArialMT-33" x="222.265625"/>
    </g>
   </g>
   <g id="line2d_151">
    <path d="M 752.284375 126.440625 
L 766.284375 126.440625 
L 780.284375 126.440625 
" style="fill: none; stroke: #cc78a6; stroke-width: 2.5; stroke-linecap: round"/>
   </g>
   <g id="text_22">
    <!-- Item 4 -->
    <g style="fill: #262626" transform="translate(791.484375 131.340625) scale(0.14 -0.14)">
     <defs>
      <path id="ArialMT-34" d="M 2069 0 
L 2069 1097 
L 81 1097 
L 81 1613 
L 2172 4581 
L 2631 4581 
L 2631 1613 
L 3250 1613 
L 3250 1097 
L 2631 1097 
L 2631 0 
L 2069 0 
z
M 2069 1613 
L 2069 3678 
L 634 1613 
L 2069 1613 
z
" transform="scale(0.015625)"/>
     </defs>
     <use xlink:href="#ArialMT-49"/>
     <use xlink:href="#ArialMT-74" x="27.783203"/>
     <use xlink:href="#ArialMT-65" x="55.566406"/>
     <use xlink:href="#ArialMT-6d" x="111.181641"/>
     <use xlink:href="#ArialMT-20" x="194.482422"/>
     <use xlink:href="#ArialMT-34" x="222.265625"/>
    </g>
   </g>
   <g id="line2d_152">
    <path d="M 752.284375 146.244063 
L 766.284375 146.244063 
L 780.284375 146.244063 
" style="fill: none; stroke-dasharray: 3,6; stroke-dashoffset: 0; stroke: #000000; stroke-opacity: 0.7; stroke-width: 3"/>
   </g>
   <g id="text_23">
    <!-- Analytical -->
    <g style="fill: #262626" transform="translate(791.484375 151.144063) scale(0.14 -0.14)">
     <defs>
      <path id="ArialMT-41" d="M -9 0 
L 1750 4581 
L 2403 4581 
L 4278 0 
L 3588 0 
L 3053 1388 
L 1138 1388 
L 634 0 
L -9 0 
z
M 1313 1881 
L 2866 1881 
L 2388 3150 
Q 2169 3728 2063 4100 
Q 1975 3659 1816 3225 
L 1313 1881 
z
" transform="scale(0.015625)"/>
      <path id="ArialMT-6c" d="M 409 0 
L 409 4581 
L 972 4581 
L 972 0 
L 409 0 
z
" transform="scale(0.015625)"/>
      <path id="ArialMT-79" d="M 397 -1278 
L 334 -750 
Q 519 -800 656 -800 
Q 844 -800 956 -737 
Q 1069 -675 1141 -563 
Q 1194 -478 1313 -144 
Q 1328 -97 1363 -6 
L 103 3319 
L 709 3319 
L 1400 1397 
Q 1534 1031 1641 628 
Q 1738 1016 1872 1384 
L 2581 3319 
L 3144 3319 
L 1881 -56 
Q 1678 -603 1566 -809 
Q 1416 -1088 1222 -1217 
Q 1028 -1347 759 -1347 
Q 597 -1347 397 -1278 
z
" transform="scale(0.015625)"/>
      <path id="ArialMT-63" d="M 2588 1216 
L 3141 1144 
Q 3050 572 2676 248 
Q 2303 -75 1759 -75 
Q 1078 -75 664 370 
Q 250 816 250 1647 
Q 250 2184 428 2587 
Q 606 2991 970 3192 
Q 1334 3394 1763 3394 
Q 2303 3394 2647 3120 
Q 2991 2847 3088 2344 
L 2541 2259 
Q 2463 2594 2264 2762 
Q 2066 2931 1784 2931 
Q 1359 2931 1093 2626 
Q 828 2322 828 1663 
Q 828 994 1084 691 
Q 1341 388 1753 388 
Q 2084 388 2306 591 
Q 2528 794 2588 1216 
z
" transform="scale(0.015625)"/>
     </defs>
     <use xlink:href="#ArialMT-41"/>
     <use xlink:href="#ArialMT-6e" x="66.699219"/>
     <use xlink:href="#ArialMT-61" x="122.314453"/>
     <use xlink:href="#ArialMT-6c" x="177.929688"/>
     <use xlink:href="#ArialMT-79" x="200.146484"/>
     <use xlink:href="#ArialMT-74" x="250.146484"/>
     <use xlink:href="#ArialMT-69" x="277.929688"/>
     <use xlink:href="#ArialMT-63" x="300.146484"/>
     <use xlink:href="#ArialMT-61" x="350.146484"/>
     <use xlink:href="#ArialMT-6c" x="405.761719"/>
    </g>
   </g>
  </g>
 </g>
 <defs>
  <clipPath id="peeb8723e2e">
   <rect x="71.31" y="19.44" width="202.504358" height="120.464531"/>
  </clipPath>
  <clipPath id="p6a55665087">
   <rect x="301.602821" y="19.44" width="202.504358" height="120.464531"/>
  </clipPath>
  <clipPath id="p68f991a0d0">
   <rect x="531.895642" y="19.44" width="202.504358" height="120.464531"/>
  </clipPath>
 </defs>
</svg>
