<?xml version="1.0" encoding="utf-8" standalone="no"?>
<!DOCTYPE svg PUBLIC "-//W3C//DTD SVG 1.1//EN"
  "http://www.w3.org/Graphics/SVG/1.1/DTD/svg11.dtd">
<svg xmlns:xlink="http://www.w3.org/1999/xlink" width="144pt" height="129.6pt" viewBox="0 0 144 129.6" xmlns="http://www.w3.org/2000/svg" version="1.1">
 <metadata>
  <rdf:RDF xmlns:dc="http://purl.org/dc/elements/1.1/" xmlns:cc="http://creativecommons.org/ns#" xmlns:rdf="http://www.w3.org/1999/02/22-rdf-syntax-ns#">
   <cc:Work>
    <dc:type rdf:resource="http://purl.org/dc/dcmitype/StillImage"/>
    <dc:date>2024-06-04T19:16:29.988565</dc:date>
    <dc:format>image/svg+xml</dc:format>
    <dc:creator>
     <cc:Agent>
      <dc:title>Matplotlib v3.8.0, https://matplotlib.org/</dc:title>
     </cc:Agent>
    </dc:creator>
   </cc:Work>
  </rdf:RDF>
 </metadata>
 <defs>
  <style type="text/css">*{stroke-linejoin: round; stroke-linecap: butt}</style>
 </defs>
 <g id="figure_1">
  <g id="patch_1">
   <path d="M 0 129.6 
L 144 129.6 
L 144 0 
L 0 0 
z
" style="fill: #ffffff"/>
  </g>
  <g id="axes_1">
   <g id="patch_2">
    <path d="M 18 115.344 
L 129.6 115.344 
L 129.6 15.552 
L 18 15.552 
z
" style="fill: #ffffff"/>
   </g>
   <g id="patch_3">
    <path d="M 43.363636 156.792828 
C 45.830025 156.792828 48.195729 155.587239 49.939729 153.441577 
C 51.68373 151.295915 52.663636 148.385364 52.663636 145.35094 
C 52.663636 142.316515 51.68373 139.405965 49.939729 137.260303 
C 48.195729 135.114641 45.830025 133.909051 43.363636 133.909051 
C 40.897248 133.909051 38.531544 135.114641 36.787543 137.260303 
C 35.043543 139.405965 34.063636 142.316515 34.063636 145.35094 
C 34.063636 148.385364 35.043543 151.295915 36.787543 153.441577 
C 38.531544 155.587239 40.897248 156.792828 43.363636 156.792828 
z
" style="fill: #00356e; stroke: #00356e; stroke-width: 1.5; stroke-linejoin: miter"/>
   </g>
   <g id="patch_4">
    <path d="M 63.654545 156.792828 
C 66.120934 156.792828 68.486638 155.587239 70.230639 153.441577 
C 71.974639 151.295915 72.954545 148.385364 72.954545 145.35094 
C 72.954545 142.316515 71.974639 139.405965 70.230639 137.260303 
C 68.486638 135.114641 66.120934 133.909051 63.654545 133.909051 
C 61.188157 133.909051 58.822453 135.114641 57.078452 137.260303 
C 55.334452 139.405965 54.354545 142.316515 54.354545 145.35094 
C 54.354545 148.385364 55.334452 151.295915 57.078452 153.441577 
C 58.822453 155.587239 61.188157 156.792828 63.654545 156.792828 
z
" style="fill: #005492; stroke: #005492; stroke-width: 1.5; stroke-linejoin: miter"/>
   </g>
   <g id="patch_5">
    <path d="M 83.945455 156.792828 
C 86.411843 156.792828 88.777547 155.587239 90.521548 153.441577 
C 92.265548 151.295915 93.245455 148.385364 93.245455 145.35094 
C 93.245455 142.316515 92.265548 139.405965 90.521548 137.260303 
C 88.777547 135.114641 86.411843 133.909051 83.945455 133.909051 
C 81.479066 133.909051 79.113362 135.114641 77.369361 137.260303 
C 75.625361 139.405965 74.645455 142.316515 74.645455 145.35094 
C 74.645455 148.385364 75.625361 151.295915 77.369361 153.441577 
C 79.113362 155.587239 81.479066 156.792828 83.945455 156.792828 
z
" style="fill: #0975b7; stroke: #0975b7; stroke-width: 1.5; stroke-linejoin: miter"/>
   </g>
   <g id="patch_6">
    <path d="M 104.236364 156.792828 
C 106.702752 156.792828 109.068456 155.587239 110.812457 153.441577 
C 112.556457 151.295915 113.536364 148.385364 113.536364 145.35094 
C 113.536364 142.316515 112.556457 139.405965 110.812457 137.260303 
C 109.068456 135.114641 106.702752 133.909051 104.236364 133.909051 
C 101.769975 133.909051 99.404271 135.114641 97.660271 137.260303 
C 95.91627 139.405965 94.936364 142.316515 94.936364 145.35094 
C 94.936364 148.385364 95.91627 151.295915 97.660271 153.441577 
C 99.404271 155.587239 101.769975 156.792828 104.236364 156.792828 
z
" style="fill: #4895d9; stroke: #4895d9; stroke-width: 1.5; stroke-linejoin: miter"/>
   </g>
   <g id="patch_7">
    <path d="M 124.527273 156.792828 
C 126.993662 156.792828 129.359366 155.587239 131.103366 153.441577 
C 132.847366 151.295915 133.827273 148.385364 133.827273 145.35094 
C 133.827273 142.316515 132.847366 139.405965 131.103366 137.260303 
C 129.359366 135.114641 126.993662 133.909051 124.527273 133.909051 
C 122.060884 133.909051 119.69518 135.114641 117.95118 137.260303 
C 116.207179 139.405965 115.227273 142.316515 115.227273 145.35094 
C 115.227273 148.385364 116.207179 151.295915 117.95118 153.441577 
C 119.69518 155.587239 122.060884 156.792828 124.527273 156.792828 
z
" style="fill: #70b6fd; stroke: #70b6fd; stroke-width: 1.5; stroke-linejoin: miter"/>
   </g>
   <g id="matplotlib.axis_1">
    <g id="xtick_1">
     <g id="line2d_1">
      <defs>
       <path id="m0620a1d7d3" d="M 0 0 
L 0 9 
" style="stroke: #1a1a1a; stroke-width: 1.875"/>
      </defs>
      <g>
       <use xlink:href="#m0620a1d7d3" x="23.072727" y="115.344" style="fill: #1a1a1a; stroke: #1a1a1a; stroke-width: 1.875"/>
      </g>
     </g>
     <g id="text_1">
      <!-- 0 -->
      <g style="fill: #1a1a1a" transform="translate(18.484954 139.654391) scale(0.165 -0.165)">
       <defs>
        <path id="ArialMT-30" d="M 266 2259 
Q 266 3072 433 3567 
Q 600 4063 929 4331 
Q 1259 4600 1759 4600 
Q 2128 4600 2406 4451 
Q 2684 4303 2865 4023 
Q 3047 3744 3150 3342 
Q 3253 2941 3253 2259 
Q 3253 1453 3087 958 
Q 2922 463 2592 192 
Q 2263 -78 1759 -78 
Q 1097 -78 719 397 
Q 266 969 266 2259 
z
M 844 2259 
Q 844 1131 1108 757 
Q 1372 384 1759 384 
Q 2147 384 2411 759 
Q 2675 1134 2675 2259 
Q 2675 3391 2411 3762 
Q 2147 4134 1753 4134 
Q 1366 4134 1134 3806 
Q 844 3388 844 2259 
z
" transform="scale(0.015625)"/>
       </defs>
       <use xlink:href="#ArialMT-30"/>
      </g>
     </g>
    </g>
    <g id="xtick_2">
     <g id="line2d_2">
      <g>
       <use xlink:href="#m0620a1d7d3" x="43.363636" y="115.344" style="fill: #1a1a1a; stroke: #1a1a1a; stroke-width: 1.875"/>
      </g>
     </g>
     <g id="text_2">
      <!-- 1 -->
      <g style="fill: #ffffff" transform="translate(38.775863 139.654391) scale(0.165 -0.165)">
       <defs>
        <path id="ArialMT-31" d="M 2384 0 
L 1822 0 
L 1822 3584 
Q 1619 3391 1289 3197 
Q 959 3003 697 2906 
L 697 3450 
Q 1169 3672 1522 3987 
Q 1875 4303 2022 4600 
L 2384 4600 
L 2384 0 
z
" transform="scale(0.015625)"/>
       </defs>
       <use xlink:href="#ArialMT-31"/>
      </g>
     </g>
    </g>
    <g id="xtick_3">
     <g id="line2d_3">
      <g>
       <use xlink:href="#m0620a1d7d3" x="63.654545" y="115.344" style="fill: #1a1a1a; stroke: #1a1a1a; stroke-width: 1.875"/>
      </g>
     </g>
     <g id="text_3">
      <!-- 2 -->
      <g style="fill: #ffffff" transform="translate(59.066772 139.654391) scale(0.165 -0.165)">
       <defs>
        <path id="ArialMT-32" d="M 3222 541 
L 3222 0 
L 194 0 
Q 188 203 259 391 
Q 375 700 629 1000 
Q 884 1300 1366 1694 
Q 2113 2306 2375 2664 
Q 2638 3022 2638 3341 
Q 2638 3675 2398 3904 
Q 2159 4134 1775 4134 
Q 1369 4134 1125 3890 
Q 881 3647 878 3216 
L 300 3275 
Q 359 3922 746 4261 
Q 1134 4600 1788 4600 
Q 2447 4600 2831 4234 
Q 3216 3869 3216 3328 
Q 3216 3053 3103 2787 
Q 2991 2522 2730 2228 
Q 2469 1934 1863 1422 
Q 1356 997 1212 845 
Q 1069 694 975 541 
L 3222 541 
z
" transform="scale(0.015625)"/>
       </defs>
       <use xlink:href="#ArialMT-32"/>
      </g>
     </g>
    </g>
    <g id="xtick_4">
     <g id="line2d_4">
      <g>
       <use xlink:href="#m0620a1d7d3" x="83.945455" y="115.344" style="fill: #1a1a1a; stroke: #1a1a1a; stroke-width: 1.875"/>
      </g>
     </g>
     <g id="text_4">
      <!-- 3 -->
      <g style="fill: #ffffff" transform="translate(79.357681 139.654391) scale(0.165 -0.165)">
       <defs>
        <path id="ArialMT-33" d="M 269 1209 
L 831 1284 
Q 928 806 1161 595 
Q 1394 384 1728 384 
Q 2125 384 2398 659 
Q 2672 934 2672 1341 
Q 2672 1728 2419 1979 
Q 2166 2231 1775 2231 
Q 1616 2231 1378 2169 
L 1441 2663 
Q 1497 2656 1531 2656 
Q 1891 2656 2178 2843 
Q 2466 3031 2466 3422 
Q 2466 3731 2256 3934 
Q 2047 4138 1716 4138 
Q 1388 4138 1169 3931 
Q 950 3725 888 3313 
L 325 3413 
Q 428 3978 793 4289 
Q 1159 4600 1703 4600 
Q 2078 4600 2393 4439 
Q 2709 4278 2876 4000 
Q 3044 3722 3044 3409 
Q 3044 3113 2884 2869 
Q 2725 2625 2413 2481 
Q 2819 2388 3044 2092 
Q 3269 1797 3269 1353 
Q 3269 753 2831 336 
Q 2394 -81 1725 -81 
Q 1122 -81 723 278 
Q 325 638 269 1209 
z
" transform="scale(0.015625)"/>
       </defs>
       <use xlink:href="#ArialMT-33"/>
      </g>
     </g>
    </g>
    <g id="xtick_5">
     <g id="line2d_5">
      <g>
       <use xlink:href="#m0620a1d7d3" x="104.236364" y="115.344" style="fill: #1a1a1a; stroke: #1a1a1a; stroke-width: 1.875"/>
      </g>
     </g>
     <g id="text_5">
      <!-- 4 -->
      <g style="fill: #ffffff" transform="translate(99.64859 139.654391) scale(0.165 -0.165)">
       <defs>
        <path id="ArialMT-34" d="M 2069 0 
L 2069 1097 
L 81 1097 
L 81 1613 
L 2172 4581 
L 2631 4581 
L 2631 1613 
L 3250 1613 
L 3250 1097 
L 2631 1097 
L 2631 0 
L 2069 0 
z
M 2069 1613 
L 2069 3678 
L 634 1613 
L 2069 1613 
z
" transform="scale(0.015625)"/>
       </defs>
       <use xlink:href="#ArialMT-34"/>
      </g>
     </g>
    </g>
    <g id="xtick_6">
     <g id="line2d_6">
      <g>
       <use xlink:href="#m0620a1d7d3" x="124.527273" y="115.344" style="fill: #1a1a1a; stroke: #1a1a1a; stroke-width: 1.875"/>
      </g>
     </g>
     <g id="text_6">
      <!-- 5 -->
      <g style="fill: #ffffff" transform="translate(119.939499 139.654391) scale(0.165 -0.165)">
       <defs>
        <path id="ArialMT-35" d="M 266 1200 
L 856 1250 
Q 922 819 1161 601 
Q 1400 384 1738 384 
Q 2144 384 2425 690 
Q 2706 997 2706 1503 
Q 2706 1984 2436 2262 
Q 2166 2541 1728 2541 
Q 1456 2541 1237 2417 
Q 1019 2294 894 2097 
L 366 2166 
L 809 4519 
L 3088 4519 
L 3088 3981 
L 1259 3981 
L 1013 2750 
Q 1425 3038 1878 3038 
Q 2478 3038 2890 2622 
Q 3303 2206 3303 1553 
Q 3303 931 2941 478 
Q 2500 -78 1738 -78 
Q 1113 -78 717 272 
Q 322 622 266 1200 
z
" transform="scale(0.015625)"/>
       </defs>
       <use xlink:href="#ArialMT-35"/>
      </g>
     </g>
    </g>
    <g id="text_7">
     <!-- After Task -->
     <g style="fill: #262626" transform="translate(33.951094 159.817828) scale(0.18 -0.18)">
      <defs>
       <path id="ArialMT-41" d="M -9 0 
L 1750 4581 
L 2403 4581 
L 4278 0 
L 3588 0 
L 3053 1388 
L 1138 1388 
L 634 0 
L -9 0 
z
M 1313 1881 
L 2866 1881 
L 2388 3150 
Q 2169 3728 2063 4100 
Q 1975 3659 1816 3225 
L 1313 1881 
z
" transform="scale(0.015625)"/>
       <path id="ArialMT-66" d="M 556 0 
L 556 2881 
L 59 2881 
L 59 3319 
L 556 3319 
L 556 3672 
Q 556 4006 616 4169 
Q 697 4388 901 4523 
Q 1106 4659 1475 4659 
Q 1713 4659 2000 4603 
L 1916 4113 
Q 1741 4144 1584 4144 
Q 1328 4144 1222 4034 
Q 1116 3925 1116 3625 
L 1116 3319 
L 1763 3319 
L 1763 2881 
L 1116 2881 
L 1116 0 
L 556 0 
z
" transform="scale(0.015625)"/>
       <path id="ArialMT-74" d="M 1650 503 
L 1731 6 
Q 1494 -44 1306 -44 
Q 1000 -44 831 53 
Q 663 150 594 308 
Q 525 466 525 972 
L 525 2881 
L 113 2881 
L 113 3319 
L 525 3319 
L 525 4141 
L 1084 4478 
L 1084 3319 
L 1650 3319 
L 1650 2881 
L 1084 2881 
L 1084 941 
Q 1084 700 1114 631 
Q 1144 563 1211 522 
Q 1278 481 1403 481 
Q 1497 481 1650 503 
z
" transform="scale(0.015625)"/>
       <path id="ArialMT-65" d="M 2694 1069 
L 3275 997 
Q 3138 488 2766 206 
Q 2394 -75 1816 -75 
Q 1088 -75 661 373 
Q 234 822 234 1631 
Q 234 2469 665 2931 
Q 1097 3394 1784 3394 
Q 2450 3394 2872 2941 
Q 3294 2488 3294 1666 
Q 3294 1616 3291 1516 
L 816 1516 
Q 847 969 1125 678 
Q 1403 388 1819 388 
Q 2128 388 2347 550 
Q 2566 713 2694 1069 
z
M 847 1978 
L 2700 1978 
Q 2663 2397 2488 2606 
Q 2219 2931 1791 2931 
Q 1403 2931 1139 2672 
Q 875 2413 847 1978 
z
" transform="scale(0.015625)"/>
       <path id="ArialMT-72" d="M 416 0 
L 416 3319 
L 922 3319 
L 922 2816 
Q 1116 3169 1280 3281 
Q 1444 3394 1641 3394 
Q 1925 3394 2219 3213 
L 2025 2691 
Q 1819 2813 1613 2813 
Q 1428 2813 1281 2702 
Q 1134 2591 1072 2394 
Q 978 2094 978 1738 
L 978 0 
L 416 0 
z
" transform="scale(0.015625)"/>
       <path id="ArialMT-20" transform="scale(0.015625)"/>
       <path id="ArialMT-54" d="M 1659 0 
L 1659 4041 
L 150 4041 
L 150 4581 
L 3781 4581 
L 3781 4041 
L 2266 4041 
L 2266 0 
L 1659 0 
z
" transform="scale(0.015625)"/>
       <path id="ArialMT-61" d="M 2588 409 
Q 2275 144 1986 34 
Q 1697 -75 1366 -75 
Q 819 -75 525 192 
Q 231 459 231 875 
Q 231 1119 342 1320 
Q 453 1522 633 1644 
Q 813 1766 1038 1828 
Q 1203 1872 1538 1913 
Q 2219 1994 2541 2106 
Q 2544 2222 2544 2253 
Q 2544 2597 2384 2738 
Q 2169 2928 1744 2928 
Q 1347 2928 1158 2789 
Q 969 2650 878 2297 
L 328 2372 
Q 403 2725 575 2942 
Q 747 3159 1072 3276 
Q 1397 3394 1825 3394 
Q 2250 3394 2515 3294 
Q 2781 3194 2906 3042 
Q 3031 2891 3081 2659 
Q 3109 2516 3109 2141 
L 3109 1391 
Q 3109 606 3145 398 
Q 3181 191 3288 0 
L 2700 0 
Q 2613 175 2588 409 
z
M 2541 1666 
Q 2234 1541 1622 1453 
Q 1275 1403 1131 1340 
Q 988 1278 909 1158 
Q 831 1038 831 891 
Q 831 666 1001 516 
Q 1172 366 1500 366 
Q 1825 366 2078 508 
Q 2331 650 2450 897 
Q 2541 1088 2541 1459 
L 2541 1666 
z
" transform="scale(0.015625)"/>
       <path id="ArialMT-73" d="M 197 991 
L 753 1078 
Q 800 744 1014 566 
Q 1228 388 1613 388 
Q 2000 388 2187 545 
Q 2375 703 2375 916 
Q 2375 1106 2209 1216 
Q 2094 1291 1634 1406 
Q 1016 1563 777 1677 
Q 538 1791 414 1992 
Q 291 2194 291 2438 
Q 291 2659 392 2848 
Q 494 3038 669 3163 
Q 800 3259 1026 3326 
Q 1253 3394 1513 3394 
Q 1903 3394 2198 3281 
Q 2494 3169 2634 2976 
Q 2775 2784 2828 2463 
L 2278 2388 
Q 2241 2644 2061 2787 
Q 1881 2931 1553 2931 
Q 1166 2931 1000 2803 
Q 834 2675 834 2503 
Q 834 2394 903 2306 
Q 972 2216 1119 2156 
Q 1203 2125 1616 2013 
Q 2213 1853 2448 1751 
Q 2684 1650 2818 1456 
Q 2953 1263 2953 975 
Q 2953 694 2789 445 
Q 2625 197 2315 61 
Q 2006 -75 1616 -75 
Q 969 -75 630 194 
Q 291 463 197 991 
z
" transform="scale(0.015625)"/>
       <path id="ArialMT-6b" d="M 425 0 
L 425 4581 
L 988 4581 
L 988 1969 
L 2319 3319 
L 3047 3319 
L 1778 2088 
L 3175 0 
L 2481 0 
L 1384 1697 
L 988 1316 
L 988 0 
L 425 0 
z
" transform="scale(0.015625)"/>
      </defs>
      <use xlink:href="#ArialMT-41"/>
      <use xlink:href="#ArialMT-66" x="66.699219"/>
      <use xlink:href="#ArialMT-74" x="94.482422"/>
      <use xlink:href="#ArialMT-65" x="122.265625"/>
      <use xlink:href="#ArialMT-72" x="177.880859"/>
      <use xlink:href="#ArialMT-20" x="211.181641"/>
      <use xlink:href="#ArialMT-54" x="237.214844"/>
      <use xlink:href="#ArialMT-61" x="287.173828"/>
      <use xlink:href="#ArialMT-73" x="342.789062"/>
      <use xlink:href="#ArialMT-6b" x="392.789062"/>
     </g>
    </g>
   </g>
   <g id="matplotlib.axis_2">
    <g id="ytick_1">
     <g id="line2d_7">
      <defs>
       <path id="m38a4fa5f6e" d="M 0 0 
L -9 0 
" style="stroke: #1a1a1a; stroke-width: 1.875"/>
      </defs>
      <g>
       <use xlink:href="#m38a4fa5f6e" x="18" y="113.854567" style="fill: #1a1a1a; stroke: #1a1a1a; stroke-width: 1.875"/>
      </g>
     </g>
     <g id="text_8">
      <!-- 0 -->
      <g style="fill: #1a1a1a" transform="translate(-3.675547 119.759762) scale(0.165 -0.165)">
       <use xlink:href="#ArialMT-30"/>
      </g>
     </g>
    </g>
    <g id="ytick_2">
     <g id="line2d_8">
      <g>
       <use xlink:href="#m38a4fa5f6e" x="18" y="84.06591" style="fill: #1a1a1a; stroke: #1a1a1a; stroke-width: 1.875"/>
      </g>
     </g>
     <g id="text_9">
      <!-- 1 -->
      <g style="fill: #1a1a1a" transform="translate(-3.675547 89.971106) scale(0.165 -0.165)">
       <use xlink:href="#ArialMT-31"/>
      </g>
     </g>
    </g>
    <g id="ytick_3">
     <g id="line2d_9">
      <g>
       <use xlink:href="#m38a4fa5f6e" x="18" y="54.277254" style="fill: #1a1a1a; stroke: #1a1a1a; stroke-width: 1.875"/>
      </g>
     </g>
     <g id="text_10">
      <!-- 2 -->
      <g style="fill: #1a1a1a" transform="translate(-3.675547 60.182449) scale(0.165 -0.165)">
       <use xlink:href="#ArialMT-32"/>
      </g>
     </g>
    </g>
    <g id="ytick_4">
     <g id="line2d_10">
      <g>
       <use xlink:href="#m38a4fa5f6e" x="18" y="24.488597" style="fill: #1a1a1a; stroke: #1a1a1a; stroke-width: 1.875"/>
      </g>
     </g>
     <g id="text_11">
      <!-- 3 -->
      <g style="fill: #1a1a1a" transform="translate(-3.675547 30.393792) scale(0.165 -0.165)">
       <use xlink:href="#ArialMT-33"/>
      </g>
     </g>
    </g>
    <g id="text_12">
     <!-- Loss -->
     <g style="fill: #262626" transform="translate(-11.253047 84.457687) rotate(-90) scale(0.18 -0.18)">
      <defs>
       <path id="ArialMT-4c" d="M 469 0 
L 469 4581 
L 1075 4581 
L 1075 541 
L 3331 541 
L 3331 0 
L 469 0 
z
" transform="scale(0.015625)"/>
       <path id="ArialMT-6f" d="M 213 1659 
Q 213 2581 725 3025 
Q 1153 3394 1769 3394 
Q 2453 3394 2887 2945 
Q 3322 2497 3322 1706 
Q 3322 1066 3130 698 
Q 2938 331 2570 128 
Q 2203 -75 1769 -75 
Q 1072 -75 642 372 
Q 213 819 213 1659 
z
M 791 1659 
Q 791 1022 1069 705 
Q 1347 388 1769 388 
Q 2188 388 2466 706 
Q 2744 1025 2744 1678 
Q 2744 2294 2464 2611 
Q 2184 2928 1769 2928 
Q 1347 2928 1069 2612 
Q 791 2297 791 1659 
z
" transform="scale(0.015625)"/>
      </defs>
      <use xlink:href="#ArialMT-4c"/>
      <use xlink:href="#ArialMT-6f" x="55.615234"/>
      <use xlink:href="#ArialMT-73" x="111.230469"/>
      <use xlink:href="#ArialMT-73" x="161.230469"/>
     </g>
    </g>
   </g>
   <g id="line2d_11">
    <path d="M 23.072727 100.102945 
L 43.363636 111.54536 
L 63.654545 17.301216 
L 83.945455 11.415428 
L 104.236364 30.904888 
L 124.527273 36.034125 
" clip-path="url(#pa033b15bc4)" style="fill: none; stroke: #00356e; stroke-width: 2.25; stroke-linecap: round"/>
   </g>
   <g id="line2d_12">
    <path d="M 23.072727 99.158629 
L 43.363636 61.765699 
L 63.654545 110.79149 
L 83.945455 44.610505 
L 104.236364 39.900638 
L 124.527273 37.426683 
" clip-path="url(#pa033b15bc4)" style="fill: none; stroke: #005492; stroke-width: 2.25; stroke-linecap: round"/>
   </g>
   <g id="line2d_13">
    <path d="M 23.072727 99.017842 
L 43.363636 62.613926 
L 63.654545 29.468816 
L 83.945455 110.494394 
L 104.236364 17.045034 
L 124.527273 46.218479 
" clip-path="url(#pa033b15bc4)" style="fill: none; stroke: #0975b7; stroke-width: 2.25; stroke-linecap: round"/>
   </g>
   <g id="line2d_14">
    <path d="M 23.072727 99.177077 
L 43.363636 61.229116 
L 63.654545 23.793955 
L 83.945455 7.528191 
L 104.236364 110.947728 
L 124.527273 46.174907 
" clip-path="url(#pa033b15bc4)" style="fill: none; stroke: #4895d9; stroke-width: 2.25; stroke-linecap: round"/>
   </g>
   <g id="line2d_15">
    <path d="M 23.072727 99.087983 
L 43.363636 63.950131 
L 63.654545 29.5002 
L 83.945455 25.519733 
L 104.236364 17.688135 
L 124.527273 110.616084 
" clip-path="url(#pa033b15bc4)" style="fill: none; stroke: #70b6fd; stroke-width: 2.25; stroke-linecap: round"/>
   </g>
   <g id="patch_8">
    <path d="M 18 115.344 
L 18 15.552 
" style="fill: none; stroke: #262626; stroke-width: 1.875; stroke-linejoin: miter; stroke-linecap: square"/>
   </g>
   <g id="patch_9">
    <path d="M 18 115.344 
L 129.6 115.344 
" style="fill: none; stroke: #262626; stroke-width: 1.875; stroke-linejoin: miter; stroke-linecap: square"/>
   </g>
  </g>
 </g>
 <defs>
  <clipPath id="pa033b15bc4">
   <rect x="18" y="15.552" width="111.6" height="99.792"/>
  </clipPath>
 </defs>
</svg>
