<?xml version="1.0" encoding="utf-8" standalone="no"?>
<!DOCTYPE svg PUBLIC "-//W3C//DTD SVG 1.1//EN"
  "http://www.w3.org/Graphics/SVG/1.1/DTD/svg11.dtd">
<svg xmlns:xlink="http://www.w3.org/1999/xlink" width="223.2pt" height="201.6pt" viewBox="0 0 223.2 201.6" xmlns="http://www.w3.org/2000/svg" version="1.1">
 <metadata>
  <rdf:RDF xmlns:dc="http://purl.org/dc/elements/1.1/" xmlns:cc="http://creativecommons.org/ns#" xmlns:rdf="http://www.w3.org/1999/02/22-rdf-syntax-ns#">
   <cc:Work>
    <dc:type rdf:resource="http://purl.org/dc/dcmitype/StillImage"/>
    <dc:date>2023-08-29T10:17:18.511555</dc:date>
    <dc:format>image/svg+xml</dc:format>
    <dc:creator>
     <cc:Agent>
      <dc:title>Matplotlib v3.6.3, https://matplotlib.org/</dc:title>
     </cc:Agent>
    </dc:creator>
   </cc:Work>
  </rdf:RDF>
 </metadata>
 <defs>
  <style type="text/css">*{stroke-linejoin: round; stroke-linecap: butt}</style>
 </defs>
 <g id="figure_1">
  <g id="patch_1">
   <path d="M 0 201.6 
L 223.2 201.6 
L 223.2 0 
L 0 0 
z
" style="fill: #ffffff"/>
  </g>
  <g id="axes_1">
   <g id="patch_2">
    <path d="M 89.976 125.504531 
L 203.76 125.504531 
L 203.76 19.44 
L 89.976 19.44 
z
" style="fill: #ffffff"/>
   </g>
   <g id="matplotlib.axis_1">
    <g id="xtick_1">
     <g id="line2d_1">
      <defs>
       <path id="m8deb22b945" d="M 0 0 
L 0 9 
" style="stroke: #1a1a1a; stroke-width: 1.875"/>
      </defs>
      <g>
       <use xlink:href="#m8deb22b945" x="95.148" y="125.504531" style="fill: #1a1a1a; stroke: #1a1a1a; stroke-width: 1.875"/>
      </g>
     </g>
     <g id="text_1">
      <!-- $\mathdefault{10^{0}}$ -->
      <g style="fill: #1a1a1a" transform="translate(82.1955 155.020156) scale(0.165 -0.165)">
       <defs>
        <path id="ArialMT-31" d="M 2384 0 
L 1822 0 
L 1822 3584 
Q 1619 3391 1289 3197 
Q 959 3003 697 2906 
L 697 3450 
Q 1169 3672 1522 3987 
Q 1875 4303 2022 4600 
L 2384 4600 
L 2384 0 
z
" transform="scale(0.015625)"/>
        <path id="ArialMT-30" d="M 266 2259 
Q 266 3072 433 3567 
Q 600 4063 929 4331 
Q 1259 4600 1759 4600 
Q 2128 4600 2406 4451 
Q 2684 4303 2865 4023 
Q 3047 3744 3150 3342 
Q 3253 2941 3253 2259 
Q 3253 1453 3087 958 
Q 2922 463 2592 192 
Q 2263 -78 1759 -78 
Q 1097 -78 719 397 
Q 266 969 266 2259 
z
M 844 2259 
Q 844 1131 1108 757 
Q 1372 384 1759 384 
Q 2147 384 2411 759 
Q 2675 1134 2675 2259 
Q 2675 3391 2411 3762 
Q 2147 4134 1753 4134 
Q 1366 4134 1134 3806 
Q 844 3388 844 2259 
z
" transform="scale(0.015625)"/>
       </defs>
       <use xlink:href="#ArialMT-31" transform="translate(0 0.99375)"/>
       <use xlink:href="#ArialMT-30" transform="translate(55.615234 0.99375)"/>
       <use xlink:href="#ArialMT-30" transform="translate(112.972813 70.6875) scale(0.7)"/>
      </g>
     </g>
    </g>
    <g id="xtick_2">
     <g id="line2d_2">
      <g>
       <use xlink:href="#m8deb22b945" x="134.901119" y="125.504531" style="fill: #1a1a1a; stroke: #1a1a1a; stroke-width: 1.875"/>
      </g>
     </g>
     <g id="text_2">
      <!-- $\mathdefault{10^{1}}$ -->
      <g style="fill: #1a1a1a" transform="translate(121.948619 155.020156) scale(0.165 -0.165)">
       <use xlink:href="#ArialMT-31" transform="translate(0 0.99375)"/>
       <use xlink:href="#ArialMT-30" transform="translate(55.615234 0.99375)"/>
       <use xlink:href="#ArialMT-31" transform="translate(112.972813 70.6875) scale(0.7)"/>
      </g>
     </g>
    </g>
    <g id="xtick_3">
     <g id="line2d_3">
      <g>
       <use xlink:href="#m8deb22b945" x="174.654238" y="125.504531" style="fill: #1a1a1a; stroke: #1a1a1a; stroke-width: 1.875"/>
      </g>
     </g>
     <g id="text_3">
      <!-- $\mathdefault{10^{2}}$ -->
      <g style="fill: #1a1a1a" transform="translate(161.701738 155.020156) scale(0.165 -0.165)">
       <defs>
        <path id="ArialMT-32" d="M 3222 541 
L 3222 0 
L 194 0 
Q 188 203 259 391 
Q 375 700 629 1000 
Q 884 1300 1366 1694 
Q 2113 2306 2375 2664 
Q 2638 3022 2638 3341 
Q 2638 3675 2398 3904 
Q 2159 4134 1775 4134 
Q 1369 4134 1125 3890 
Q 881 3647 878 3216 
L 300 3275 
Q 359 3922 746 4261 
Q 1134 4600 1788 4600 
Q 2447 4600 2831 4234 
Q 3216 3869 3216 3328 
Q 3216 3053 3103 2787 
Q 2991 2522 2730 2228 
Q 2469 1934 1863 1422 
Q 1356 997 1212 845 
Q 1069 694 975 541 
L 3222 541 
z
" transform="scale(0.015625)"/>
       </defs>
       <use xlink:href="#ArialMT-31" transform="translate(0 0.99375)"/>
       <use xlink:href="#ArialMT-30" transform="translate(55.615234 0.99375)"/>
       <use xlink:href="#ArialMT-32" transform="translate(112.972813 70.6875) scale(0.7)"/>
      </g>
     </g>
    </g>
    <g id="xtick_4">
     <g id="line2d_4">
      <defs>
       <path id="mbfc6ceddd6" d="M 0 0 
L 0 6 
" style="stroke: #1a1a1a; stroke-width: 1.5"/>
      </defs>
      <g>
       <use xlink:href="#mbfc6ceddd6" x="91.295525" y="125.504531" style="fill: #1a1a1a; stroke: #1a1a1a; stroke-width: 1.5"/>
      </g>
     </g>
    </g>
    <g id="xtick_5">
     <g id="line2d_5">
      <g>
       <use xlink:href="#mbfc6ceddd6" x="93.328997" y="125.504531" style="fill: #1a1a1a; stroke: #1a1a1a; stroke-width: 1.5"/>
      </g>
     </g>
    </g>
    <g id="xtick_6">
     <g id="line2d_6">
      <g>
       <use xlink:href="#mbfc6ceddd6" x="107.114881" y="125.504531" style="fill: #1a1a1a; stroke: #1a1a1a; stroke-width: 1.5"/>
      </g>
     </g>
    </g>
    <g id="xtick_7">
     <g id="line2d_7">
      <g>
       <use xlink:href="#mbfc6ceddd6" x="114.115058" y="125.504531" style="fill: #1a1a1a; stroke: #1a1a1a; stroke-width: 1.5"/>
      </g>
     </g>
    </g>
    <g id="xtick_8">
     <g id="line2d_8">
      <g>
       <use xlink:href="#mbfc6ceddd6" x="119.081762" y="125.504531" style="fill: #1a1a1a; stroke: #1a1a1a; stroke-width: 1.5"/>
      </g>
     </g>
    </g>
    <g id="xtick_9">
     <g id="line2d_9">
      <g>
       <use xlink:href="#mbfc6ceddd6" x="122.934238" y="125.504531" style="fill: #1a1a1a; stroke: #1a1a1a; stroke-width: 1.5"/>
      </g>
     </g>
    </g>
    <g id="xtick_10">
     <g id="line2d_10">
      <g>
       <use xlink:href="#mbfc6ceddd6" x="126.081939" y="125.504531" style="fill: #1a1a1a; stroke: #1a1a1a; stroke-width: 1.5"/>
      </g>
     </g>
    </g>
    <g id="xtick_11">
     <g id="line2d_11">
      <g>
       <use xlink:href="#mbfc6ceddd6" x="128.743283" y="125.504531" style="fill: #1a1a1a; stroke: #1a1a1a; stroke-width: 1.5"/>
      </g>
     </g>
    </g>
    <g id="xtick_12">
     <g id="line2d_12">
      <g>
       <use xlink:href="#mbfc6ceddd6" x="131.048644" y="125.504531" style="fill: #1a1a1a; stroke: #1a1a1a; stroke-width: 1.5"/>
      </g>
     </g>
    </g>
    <g id="xtick_13">
     <g id="line2d_13">
      <g>
       <use xlink:href="#mbfc6ceddd6" x="133.082116" y="125.504531" style="fill: #1a1a1a; stroke: #1a1a1a; stroke-width: 1.5"/>
      </g>
     </g>
    </g>
    <g id="xtick_14">
     <g id="line2d_14">
      <g>
       <use xlink:href="#mbfc6ceddd6" x="146.868" y="125.504531" style="fill: #1a1a1a; stroke: #1a1a1a; stroke-width: 1.5"/>
      </g>
     </g>
    </g>
    <g id="xtick_15">
     <g id="line2d_15">
      <g>
       <use xlink:href="#mbfc6ceddd6" x="153.868177" y="125.504531" style="fill: #1a1a1a; stroke: #1a1a1a; stroke-width: 1.5"/>
      </g>
     </g>
    </g>
    <g id="xtick_16">
     <g id="line2d_16">
      <g>
       <use xlink:href="#mbfc6ceddd6" x="158.834881" y="125.504531" style="fill: #1a1a1a; stroke: #1a1a1a; stroke-width: 1.5"/>
      </g>
     </g>
    </g>
    <g id="xtick_17">
     <g id="line2d_17">
      <g>
       <use xlink:href="#mbfc6ceddd6" x="162.687356" y="125.504531" style="fill: #1a1a1a; stroke: #1a1a1a; stroke-width: 1.5"/>
      </g>
     </g>
    </g>
    <g id="xtick_18">
     <g id="line2d_18">
      <g>
       <use xlink:href="#mbfc6ceddd6" x="165.835058" y="125.504531" style="fill: #1a1a1a; stroke: #1a1a1a; stroke-width: 1.5"/>
      </g>
     </g>
    </g>
    <g id="xtick_19">
     <g id="line2d_19">
      <g>
       <use xlink:href="#mbfc6ceddd6" x="168.496402" y="125.504531" style="fill: #1a1a1a; stroke: #1a1a1a; stroke-width: 1.5"/>
      </g>
     </g>
    </g>
    <g id="xtick_20">
     <g id="line2d_20">
      <g>
       <use xlink:href="#mbfc6ceddd6" x="170.801762" y="125.504531" style="fill: #1a1a1a; stroke: #1a1a1a; stroke-width: 1.5"/>
      </g>
     </g>
    </g>
    <g id="xtick_21">
     <g id="line2d_21">
      <g>
       <use xlink:href="#mbfc6ceddd6" x="172.835235" y="125.504531" style="fill: #1a1a1a; stroke: #1a1a1a; stroke-width: 1.5"/>
      </g>
     </g>
    </g>
    <g id="xtick_22">
     <g id="line2d_22">
      <g>
       <use xlink:href="#mbfc6ceddd6" x="186.621119" y="125.504531" style="fill: #1a1a1a; stroke: #1a1a1a; stroke-width: 1.5"/>
      </g>
     </g>
    </g>
    <g id="xtick_23">
     <g id="line2d_23">
      <g>
       <use xlink:href="#mbfc6ceddd6" x="193.621296" y="125.504531" style="fill: #1a1a1a; stroke: #1a1a1a; stroke-width: 1.5"/>
      </g>
     </g>
    </g>
    <g id="xtick_24">
     <g id="line2d_24">
      <g>
       <use xlink:href="#mbfc6ceddd6" x="198.588" y="125.504531" style="fill: #1a1a1a; stroke: #1a1a1a; stroke-width: 1.5"/>
      </g>
     </g>
    </g>
    <g id="xtick_25">
     <g id="line2d_25">
      <g>
       <use xlink:href="#mbfc6ceddd6" x="202.440475" y="125.504531" style="fill: #1a1a1a; stroke: #1a1a1a; stroke-width: 1.5"/>
      </g>
     </g>
    </g>
    <g id="text_4">
     <!-- Training Step -->
     <g style="fill: #262626" transform="translate(93.679406 175.402969) scale(0.18 -0.18)">
      <defs>
       <path id="ArialMT-54" d="M 1659 0 
L 1659 4041 
L 150 4041 
L 150 4581 
L 3781 4581 
L 3781 4041 
L 2266 4041 
L 2266 0 
L 1659 0 
z
" transform="scale(0.015625)"/>
       <path id="ArialMT-72" d="M 416 0 
L 416 3319 
L 922 3319 
L 922 2816 
Q 1116 3169 1280 3281 
Q 1444 3394 1641 3394 
Q 1925 3394 2219 3213 
L 2025 2691 
Q 1819 2813 1613 2813 
Q 1428 2813 1281 2702 
Q 1134 2591 1072 2394 
Q 978 2094 978 1738 
L 978 0 
L 416 0 
z
" transform="scale(0.015625)"/>
       <path id="ArialMT-61" d="M 2588 409 
Q 2275 144 1986 34 
Q 1697 -75 1366 -75 
Q 819 -75 525 192 
Q 231 459 231 875 
Q 231 1119 342 1320 
Q 453 1522 633 1644 
Q 813 1766 1038 1828 
Q 1203 1872 1538 1913 
Q 2219 1994 2541 2106 
Q 2544 2222 2544 2253 
Q 2544 2597 2384 2738 
Q 2169 2928 1744 2928 
Q 1347 2928 1158 2789 
Q 969 2650 878 2297 
L 328 2372 
Q 403 2725 575 2942 
Q 747 3159 1072 3276 
Q 1397 3394 1825 3394 
Q 2250 3394 2515 3294 
Q 2781 3194 2906 3042 
Q 3031 2891 3081 2659 
Q 3109 2516 3109 2141 
L 3109 1391 
Q 3109 606 3145 398 
Q 3181 191 3288 0 
L 2700 0 
Q 2613 175 2588 409 
z
M 2541 1666 
Q 2234 1541 1622 1453 
Q 1275 1403 1131 1340 
Q 988 1278 909 1158 
Q 831 1038 831 891 
Q 831 666 1001 516 
Q 1172 366 1500 366 
Q 1825 366 2078 508 
Q 2331 650 2450 897 
Q 2541 1088 2541 1459 
L 2541 1666 
z
" transform="scale(0.015625)"/>
       <path id="ArialMT-69" d="M 425 3934 
L 425 4581 
L 988 4581 
L 988 3934 
L 425 3934 
z
M 425 0 
L 425 3319 
L 988 3319 
L 988 0 
L 425 0 
z
" transform="scale(0.015625)"/>
       <path id="ArialMT-6e" d="M 422 0 
L 422 3319 
L 928 3319 
L 928 2847 
Q 1294 3394 1984 3394 
Q 2284 3394 2536 3286 
Q 2788 3178 2913 3003 
Q 3038 2828 3088 2588 
Q 3119 2431 3119 2041 
L 3119 0 
L 2556 0 
L 2556 2019 
Q 2556 2363 2490 2533 
Q 2425 2703 2258 2804 
Q 2091 2906 1866 2906 
Q 1506 2906 1245 2678 
Q 984 2450 984 1813 
L 984 0 
L 422 0 
z
" transform="scale(0.015625)"/>
       <path id="ArialMT-67" d="M 319 -275 
L 866 -356 
Q 900 -609 1056 -725 
Q 1266 -881 1628 -881 
Q 2019 -881 2231 -725 
Q 2444 -569 2519 -288 
Q 2563 -116 2559 434 
Q 2191 0 1641 0 
Q 956 0 581 494 
Q 206 988 206 1678 
Q 206 2153 378 2554 
Q 550 2956 876 3175 
Q 1203 3394 1644 3394 
Q 2231 3394 2613 2919 
L 2613 3319 
L 3131 3319 
L 3131 450 
Q 3131 -325 2973 -648 
Q 2816 -972 2473 -1159 
Q 2131 -1347 1631 -1347 
Q 1038 -1347 672 -1080 
Q 306 -813 319 -275 
z
M 784 1719 
Q 784 1066 1043 766 
Q 1303 466 1694 466 
Q 2081 466 2343 764 
Q 2606 1063 2606 1700 
Q 2606 2309 2336 2618 
Q 2066 2928 1684 2928 
Q 1309 2928 1046 2623 
Q 784 2319 784 1719 
z
" transform="scale(0.015625)"/>
       <path id="ArialMT-20" transform="scale(0.015625)"/>
       <path id="ArialMT-53" d="M 288 1472 
L 859 1522 
Q 900 1178 1048 958 
Q 1197 738 1509 602 
Q 1822 466 2213 466 
Q 2559 466 2825 569 
Q 3091 672 3220 851 
Q 3350 1031 3350 1244 
Q 3350 1459 3225 1620 
Q 3100 1781 2813 1891 
Q 2628 1963 1997 2114 
Q 1366 2266 1113 2400 
Q 784 2572 623 2826 
Q 463 3081 463 3397 
Q 463 3744 659 4045 
Q 856 4347 1234 4503 
Q 1613 4659 2075 4659 
Q 2584 4659 2973 4495 
Q 3363 4331 3572 4012 
Q 3781 3694 3797 3291 
L 3216 3247 
Q 3169 3681 2898 3903 
Q 2628 4125 2100 4125 
Q 1550 4125 1298 3923 
Q 1047 3722 1047 3438 
Q 1047 3191 1225 3031 
Q 1400 2872 2139 2705 
Q 2878 2538 3153 2413 
Q 3553 2228 3743 1945 
Q 3934 1663 3934 1294 
Q 3934 928 3725 604 
Q 3516 281 3123 101 
Q 2731 -78 2241 -78 
Q 1619 -78 1198 103 
Q 778 284 539 648 
Q 300 1013 288 1472 
z
" transform="scale(0.015625)"/>
       <path id="ArialMT-74" d="M 1650 503 
L 1731 6 
Q 1494 -44 1306 -44 
Q 1000 -44 831 53 
Q 663 150 594 308 
Q 525 466 525 972 
L 525 2881 
L 113 2881 
L 113 3319 
L 525 3319 
L 525 4141 
L 1084 4478 
L 1084 3319 
L 1650 3319 
L 1650 2881 
L 1084 2881 
L 1084 941 
Q 1084 700 1114 631 
Q 1144 563 1211 522 
Q 1278 481 1403 481 
Q 1497 481 1650 503 
z
" transform="scale(0.015625)"/>
       <path id="ArialMT-65" d="M 2694 1069 
L 3275 997 
Q 3138 488 2766 206 
Q 2394 -75 1816 -75 
Q 1088 -75 661 373 
Q 234 822 234 1631 
Q 234 2469 665 2931 
Q 1097 3394 1784 3394 
Q 2450 3394 2872 2941 
Q 3294 2488 3294 1666 
Q 3294 1616 3291 1516 
L 816 1516 
Q 847 969 1125 678 
Q 1403 388 1819 388 
Q 2128 388 2347 550 
Q 2566 713 2694 1069 
z
M 847 1978 
L 2700 1978 
Q 2663 2397 2488 2606 
Q 2219 2931 1791 2931 
Q 1403 2931 1139 2672 
Q 875 2413 847 1978 
z
" transform="scale(0.015625)"/>
       <path id="ArialMT-70" d="M 422 -1272 
L 422 3319 
L 934 3319 
L 934 2888 
Q 1116 3141 1344 3267 
Q 1572 3394 1897 3394 
Q 2322 3394 2647 3175 
Q 2972 2956 3137 2557 
Q 3303 2159 3303 1684 
Q 3303 1175 3120 767 
Q 2938 359 2589 142 
Q 2241 -75 1856 -75 
Q 1575 -75 1351 44 
Q 1128 163 984 344 
L 984 -1272 
L 422 -1272 
z
M 931 1641 
Q 931 1000 1190 694 
Q 1450 388 1819 388 
Q 2194 388 2461 705 
Q 2728 1022 2728 1688 
Q 2728 2322 2467 2637 
Q 2206 2953 1844 2953 
Q 1484 2953 1207 2617 
Q 931 2281 931 1641 
z
" transform="scale(0.015625)"/>
      </defs>
      <use xlink:href="#ArialMT-54"/>
      <use xlink:href="#ArialMT-72" x="57.333984"/>
      <use xlink:href="#ArialMT-61" x="90.634766"/>
      <use xlink:href="#ArialMT-69" x="146.25"/>
      <use xlink:href="#ArialMT-6e" x="168.466797"/>
      <use xlink:href="#ArialMT-69" x="224.082031"/>
      <use xlink:href="#ArialMT-6e" x="246.298828"/>
      <use xlink:href="#ArialMT-67" x="301.914062"/>
      <use xlink:href="#ArialMT-20" x="357.529297"/>
      <use xlink:href="#ArialMT-53" x="385.3125"/>
      <use xlink:href="#ArialMT-74" x="452.011719"/>
      <use xlink:href="#ArialMT-65" x="479.794922"/>
      <use xlink:href="#ArialMT-70" x="535.410156"/>
     </g>
    </g>
   </g>
   <g id="matplotlib.axis_2">
    <g id="ytick_1">
     <g id="line2d_26">
      <defs>
       <path id="m1b679303be" d="M 0 0 
L -9 0 
" style="stroke: #1a1a1a; stroke-width: 1.875"/>
      </defs>
      <g>
       <use xlink:href="#m1b679303be" x="89.976" y="115.192148" style="fill: #1a1a1a; stroke: #1a1a1a; stroke-width: 1.875"/>
      </g>
     </g>
     <g id="text_5">
      <!-- −0.25 -->
      <g style="fill: #1a1a1a" transform="translate(35.728422 121.097343) scale(0.165 -0.165)">
       <defs>
        <path id="ArialMT-2212" d="M 3381 1997 
L 356 1997 
L 356 2522 
L 3381 2522 
L 3381 1997 
z
" transform="scale(0.015625)"/>
        <path id="ArialMT-2e" d="M 581 0 
L 581 641 
L 1222 641 
L 1222 0 
L 581 0 
z
" transform="scale(0.015625)"/>
        <path id="ArialMT-35" d="M 266 1200 
L 856 1250 
Q 922 819 1161 601 
Q 1400 384 1738 384 
Q 2144 384 2425 690 
Q 2706 997 2706 1503 
Q 2706 1984 2436 2262 
Q 2166 2541 1728 2541 
Q 1456 2541 1237 2417 
Q 1019 2294 894 2097 
L 366 2166 
L 809 4519 
L 3088 4519 
L 3088 3981 
L 1259 3981 
L 1013 2750 
Q 1425 3038 1878 3038 
Q 2478 3038 2890 2622 
Q 3303 2206 3303 1553 
Q 3303 931 2941 478 
Q 2500 -78 1738 -78 
Q 1113 -78 717 272 
Q 322 622 266 1200 
z
" transform="scale(0.015625)"/>
       </defs>
       <use xlink:href="#ArialMT-2212"/>
       <use xlink:href="#ArialMT-30" x="58.398438"/>
       <use xlink:href="#ArialMT-2e" x="114.013672"/>
       <use xlink:href="#ArialMT-32" x="141.796875"/>
       <use xlink:href="#ArialMT-35" x="197.412109"/>
      </g>
     </g>
    </g>
    <g id="ytick_2">
     <g id="line2d_27">
      <g>
       <use xlink:href="#m1b679303be" x="89.976" y="72.472286" style="fill: #1a1a1a; stroke: #1a1a1a; stroke-width: 1.875"/>
      </g>
     </g>
     <g id="text_6">
      <!-- 0.00 -->
      <g style="fill: #1a1a1a" transform="translate(45.365453 78.377481) scale(0.165 -0.165)">
       <use xlink:href="#ArialMT-30"/>
       <use xlink:href="#ArialMT-2e" x="55.615234"/>
       <use xlink:href="#ArialMT-30" x="83.398438"/>
       <use xlink:href="#ArialMT-30" x="139.013672"/>
      </g>
     </g>
    </g>
    <g id="ytick_3">
     <g id="line2d_28">
      <g>
       <use xlink:href="#m1b679303be" x="89.976" y="29.752424" style="fill: #1a1a1a; stroke: #1a1a1a; stroke-width: 1.875"/>
      </g>
     </g>
     <g id="text_7">
      <!-- 0.25 -->
      <g style="fill: #1a1a1a" transform="translate(45.365453 35.65762) scale(0.165 -0.165)">
       <use xlink:href="#ArialMT-30"/>
       <use xlink:href="#ArialMT-2e" x="55.615234"/>
       <use xlink:href="#ArialMT-32" x="83.398438"/>
       <use xlink:href="#ArialMT-35" x="139.013672"/>
      </g>
     </g>
    </g>
    <g id="text_8">
     <!-- ${\bf W}_1$ -->
     <g style="fill: #262626" transform="translate(27.753422 88.372266) rotate(-90) scale(0.2 -0.2)">
      <defs>
       <path id="DejaVuSans-Bold-57" d="M 191 4666 
L 1344 4666 
L 2150 1275 
L 2950 4666 
L 4109 4666 
L 4909 1275 
L 5716 4666 
L 6859 4666 
L 5759 0 
L 4372 0 
L 3525 3547 
L 2688 0 
L 1300 0 
L 191 4666 
z
" transform="scale(0.015625)"/>
       <path id="DejaVuSans-31" d="M 794 531 
L 1825 531 
L 1825 4091 
L 703 3866 
L 703 4441 
L 1819 4666 
L 2450 4666 
L 2450 531 
L 3481 531 
L 3481 0 
L 794 0 
L 794 531 
z
" transform="scale(0.015625)"/>
      </defs>
      <use xlink:href="#DejaVuSans-Bold-57" transform="translate(0 0.09375)"/>
      <use xlink:href="#DejaVuSans-31" transform="translate(111.259766 -16.3125) scale(0.7)"/>
     </g>
    </g>
   </g>
   <g id="line2d_29">
    <path d="M -1 63.835088 
L 95.148 63.837409 
L 107.114881 64.748868 
L 114.115058 65.614754 
L 119.081762 66.437346 
L 126.081939 67.961198 
L 131.048644 69.336473 
L 136.546607 71.152107 
L 141.901296 73.176675 
L 156.029063 78.711949 
L 159.677222 79.841052 
L 163.02924 80.663945 
L 166.40116 81.268764 
L 170.14189 81.696964 
L 174.480723 81.947003 
L 180.708174 82.053412 
L 198.588 82.066583 
L 198.588 82.066583 
" clip-path="url(#pd9bb9af999)" style="fill: none; stroke: #cc78a6; stroke-width: 2.25; stroke-linecap: round"/>
   </g>
   <g id="line2d_30">
    <path d="M -1 55.782528 
L 95.148 55.787012 
L 107.114881 57.548235 
L 114.115058 59.221396 
L 119.081762 60.810899 
L 122.934238 62.320928 
L 126.081939 63.755455 
L 131.048644 66.412916 
L 134.901119 68.811275 
L 139.430722 71.977578 
L 145.048997 76.283407 
L 152.677045 82.193234 
L 156.029063 84.529256 
L 158.834881 86.246448 
L 161.619105 87.683876 
L 164.332845 88.803875 
L 166.949287 89.620133 
L 169.687533 90.220075 
L 172.642333 90.625523 
L 176.299726 90.880031 
L 181.654414 90.994574 
L 198.588 91.011456 
L 198.588 91.011456 
" clip-path="url(#pd9bb9af999)" style="fill: none; stroke: #cc78a6; stroke-width: 2.25; stroke-linecap: round"/>
   </g>
   <g id="line2d_31">
    <path d="M -1 112.836922 
L 95.148 112.826078 
L 107.114881 108.566509 
L 114.115058 104.519918 
L 119.081762 100.675656 
L 122.934238 97.023607 
L 126.081939 93.554161 
L 128.743283 90.258186 
L 131.048644 87.127011 
L 134.901119 81.326509 
L 138.04882 76.091556 
L 141.901296 69.180394 
L 154.982406 45.005793 
L 157.488909 41.076115 
L 159.677222 38.035408 
L 161.619105 35.682569 
L 163.693344 33.550619 
L 165.54489 31.983438 
L 167.480546 30.671584 
L 169.220895 29.755467 
L 171.016232 29.041655 
L 173.026005 28.477094 
L 175.331366 28.067134 
L 178.228246 27.797873 
L 182.44186 27.663224 
L 193.154657 27.634736 
L 198.588 27.634736 
L 198.588 27.634736 
" clip-path="url(#pd9bb9af999)" style="fill: none; stroke: #cc78a6; stroke-width: 2.25; stroke-linecap: round"/>
   </g>
   <g id="line2d_32">
    <path d="M -1 58.039903 
L 95.148 58.043781 
L 107.114881 59.56679 
L 114.115058 61.013649 
L 119.081762 62.388164 
L 122.934238 63.693954 
L 126.081939 64.934455 
L 131.048644 67.232482 
L 134.901119 69.306453 
L 139.430722 72.044498 
L 145.048997 75.767945 
L 153.282881 81.259718 
L 157.015878 83.445039 
L 160.083466 84.971131 
L 162.687356 86.036858 
L 165.249763 86.867239 
L 167.995945 87.524 
L 171.016232 88.000911 
L 174.480723 88.30415 
L 179.050524 88.461081 
L 188.577689 88.503644 
L 198.588 88.50396 
L 198.588 88.50396 
" clip-path="url(#pd9bb9af999)" style="fill: none; stroke: #cc78a6; stroke-width: 2.25; stroke-linecap: round"/>
   </g>
   <g id="line2d_33">
    <path d="M -1 78.146963 
L 95.148 78.145438 
L 107.114881 77.546607 
L 114.115058 76.977717 
L 122.934238 75.923847 
L 128.743283 74.97273 
L 134.901119 73.717069 
L 141.901296 72.009506 
L 157.015878 68.157916 
L 161.619105 67.300206 
L 165.835058 66.749593 
L 170.364662 66.399495 
L 175.822334 66.220914 
L 185.82619 66.16949 
L 198.588 66.168796 
L 198.588 66.168796 
" clip-path="url(#pd9bb9af999)" style="fill: none; stroke: #cc78a6; stroke-width: 2.25; stroke-linecap: round"/>
   </g>
   <g id="line2d_34">
    <path d="M -1 54.153389 
L 95.148 54.158311 
L 107.114881 56.091452 
L 114.115058 57.927935 
L 119.081762 59.672595 
L 122.934238 61.330023 
L 126.081939 62.904579 
L 131.048644 65.821443 
L 134.901119 68.453913 
L 139.430722 71.929288 
L 145.048997 76.655422 
L 152.677045 83.142125 
L 156.029063 85.706175 
L 158.834881 87.590984 
L 161.619105 89.168725 
L 164.016055 90.270522 
L 166.40116 91.129006 
L 168.982759 91.807994 
L 171.644103 92.273675 
L 174.826026 92.592231 
L 179.050524 92.766696 
L 187.047426 92.820031 
L 198.588 92.821122 
L 198.588 92.821122 
" clip-path="url(#pd9bb9af999)" style="fill: none; stroke: #cc78a6; stroke-width: 2.25; stroke-linecap: round"/>
   </g>
   <g id="line2d_35">
    <path d="M -1 78.141953 
L 95.148 78.14043 
L 107.114881 77.542125 
L 114.115058 76.973736 
L 122.934238 75.920795 
L 128.743283 74.970515 
L 134.901119 73.715961 
L 141.901296 72.009902 
L 157.015878 68.16171 
L 161.619105 67.304756 
L 165.835058 66.754631 
L 170.364662 66.404841 
L 175.822334 66.226421 
L 185.82619 66.175041 
L 198.588 66.174348 
L 198.588 66.174348 
" clip-path="url(#pd9bb9af999)" style="fill: none; stroke: #cc78a6; stroke-width: 2.25; stroke-linecap: round"/>
   </g>
   <g id="line2d_36">
    <path d="M -1 111.157918 
L 95.148 111.147525 
L 107.114881 107.065135 
L 114.115058 103.186865 
L 119.081762 99.502508 
L 122.934238 96.002372 
L 126.081939 92.677241 
L 128.743283 89.518366 
L 131.048644 86.517435 
L 134.901119 80.958211 
L 138.04882 75.941012 
L 141.901296 69.317327 
L 154.982406 46.148286 
L 157.488909 42.382068 
L 159.677222 39.46784 
L 161.619105 37.212866 
L 163.693344 35.169598 
L 165.54489 33.667609 
L 167.480546 32.410323 
L 169.220895 31.53231 
L 171.228069 30.780769 
L 173.401337 30.228392 
L 175.822334 29.855089 
L 178.916168 29.62076 
L 183.713445 29.514523 
L 198.588 29.499796 
L 198.588 29.499796 
" clip-path="url(#pd9bb9af999)" style="fill: none; stroke: #cc78a6; stroke-width: 2.25; stroke-linecap: round"/>
   </g>
   <g id="line2d_37">
    <path d="M -1 73.10357 
L 107.114881 73.036784 
L 128.743283 72.750453 
L 148.513488 72.224802 
L 164.949502 71.846411 
L 179.577727 71.772577 
L 198.588 71.77105 
L 198.588 71.77105 
" clip-path="url(#pd9bb9af999)" style="fill: none; stroke: #cc78a6; stroke-width: 2.25; stroke-linecap: round"/>
   </g>
   <g id="line2d_38">
    <path d="M -1 92.021374 
L 95.148 92.016121 
L 107.114881 89.953162 
L 114.115058 87.993351 
L 119.081762 86.131531 
L 122.934238 84.362802 
L 126.081939 82.682508 
L 128.743283 81.08623 
L 133.082116 78.129125 
L 136.546607 75.460337 
L 140.710164 71.937014 
L 146.868 66.326241 
L 152.677045 61.085931 
L 156.029063 58.349697 
L 158.834881 56.338313 
L 161.24781 54.859761 
L 163.693344 53.622093 
L 166.120429 52.65774 
L 168.496402 51.954918 
L 171.016232 51.438349 
L 173.949464 51.072628 
L 177.657465 50.853967 
L 183.610984 50.764798 
L 198.588 50.756963 
L 198.588 50.756963 
" clip-path="url(#pd9bb9af999)" style="fill: none; stroke: #cc78a6; stroke-width: 2.25; stroke-linecap: round"/>
   </g>
   <g id="line2d_39">
    <path d="M -1 115.873954 
L 95.148 115.862293 
L 107.114881 111.282234 
L 114.115058 106.931177 
L 119.081762 102.797673 
L 122.934238 98.870845 
L 126.081939 95.140357 
L 128.743283 91.596394 
L 131.048644 88.22963 
L 134.901119 81.992698 
L 138.04882 76.363868 
L 141.901296 68.932712 
L 149.280928 53.897164 
L 153.282881 46.046334 
L 156.029063 41.118101 
L 158.39778 37.304729 
L 160.48037 34.354015 
L 162.338566 32.07081 
L 164.332845 30.001954 
L 166.120429 28.481158 
L 167.995945 27.208129 
L 169.687533 26.319123 
L 171.644103 25.558171 
L 173.768681 24.998881 
L 176.142058 24.620908 
L 179.183841 24.383643 
L 183.815301 24.276866 
L 198.588 24.261161 
L 198.588 24.261161 
" clip-path="url(#pd9bb9af999)" style="fill: none; stroke: #cc78a6; stroke-width: 2.25; stroke-linecap: round"/>
   </g>
   <g id="line2d_40">
    <path d="M -1 91.928204 
L 95.148 91.922976 
L 107.114881 89.86985 
L 114.115058 87.919378 
L 119.081762 86.066432 
L 122.934238 84.306132 
L 126.081939 82.633847 
L 128.743283 81.045176 
L 133.082116 78.102164 
L 136.546607 75.446095 
L 140.710164 71.939565 
L 146.868 66.355532 
L 152.677045 61.140196 
L 156.029063 58.417004 
L 158.834881 56.415208 
L 161.24781 54.943702 
L 163.693344 53.711931 
L 166.120429 52.752174 
L 168.496402 52.0527 
L 171.016232 51.538595 
L 173.949464 51.17462 
L 177.657465 50.957 
L 183.610984 50.868254 
L 198.588 50.860457 
L 198.588 50.860457 
" clip-path="url(#pd9bb9af999)" style="fill: none; stroke: #cc78a6; stroke-width: 2.25; stroke-linecap: round"/>
   </g>
   <g id="line2d_41">
    <path d="M -1 57.838844 
L 95.148 57.842776 
L 107.114881 59.387001 
L 114.115058 60.854016 
L 119.081762 62.24768 
L 122.934238 63.57166 
L 126.081939 64.829442 
L 131.048644 67.159482 
L 134.901119 69.262343 
L 139.430722 72.038531 
L 145.048997 75.813846 
L 153.282881 81.382121 
L 157.015878 83.597885 
L 160.083466 85.145233 
L 162.687356 86.225806 
L 165.249763 87.067752 
L 167.995945 87.733664 
L 171.016232 88.217221 
L 174.480723 88.524682 
L 179.050524 88.683801 
L 188.500442 88.726937 
L 198.588 88.727274 
L 198.588 88.727274 
" clip-path="url(#pd9bb9af999)" style="fill: none; stroke: #cc78a6; stroke-width: 2.25; stroke-linecap: round"/>
   </g>
   <g id="line2d_42">
    <path d="M -1 76.062689 
L 95.148 76.061724 
L 107.114881 75.682839 
L 119.081762 74.980954 
L 126.081939 74.347502 
L 133.082116 73.511223 
L 140.710164 72.373973 
L 158.834881 69.509099 
L 164.332845 68.958929 
L 169.687533 68.654267 
L 176.455967 68.51088 
L 192.306403 68.484023 
L 198.588 68.484021 
L 198.588 68.484021 
" clip-path="url(#pd9bb9af999)" style="fill: none; stroke: #cc78a6; stroke-width: 2.25; stroke-linecap: round"/>
   </g>
   <g id="line2d_43">
    <path d="M -1 52.718503 
L 95.148 52.723811 
L 107.114881 54.80837 
L 114.115058 56.788702 
L 119.081762 58.670017 
L 122.934238 60.457266 
L 126.081939 62.155153 
L 128.743283 63.768147 
L 133.082116 66.756216 
L 136.546607 69.452948 
L 140.710164 73.013162 
L 146.868 78.682686 
L 152.677045 83.977866 
L 156.029063 86.742749 
L 158.834881 88.775193 
L 161.24781 90.269226 
L 163.693344 91.519855 
L 166.120429 92.494304 
L 168.496402 93.204487 
L 171.016232 93.726462 
L 173.949464 94.096014 
L 177.657465 94.316966 
L 183.507912 94.406652 
L 198.588 94.414986 
L 198.588 94.414986 
" clip-path="url(#pd9bb9af999)" style="fill: none; stroke: #cc78a6; stroke-width: 2.25; stroke-linecap: round"/>
   </g>
   <g id="line2d_44">
    <path d="M -1 96.831973 
L 95.148 96.825428 
L 107.114881 94.254816 
L 114.115058 91.812736 
L 119.081762 89.492759 
L 122.934238 87.288782 
L 126.081939 85.195003 
L 128.743283 83.205913 
L 133.082116 79.521125 
L 136.546607 76.195604 
L 140.710164 71.805265 
L 145.982444 65.83488 
L 152.677045 58.283957 
L 156.029063 54.874391 
L 158.834881 52.368049 
L 161.24781 50.525657 
L 163.364485 49.171327 
L 165.54489 48.037644 
L 167.740169 47.154317 
L 169.916206 46.510543 
L 172.447251 46.006169 
L 175.331366 45.67419 
L 179.050524 45.485605 
L 185.644457 45.416545 
L 198.588 45.413237 
L 198.588 45.413237 
" clip-path="url(#pd9bb9af999)" style="fill: none; stroke: #cc78a6; stroke-width: 2.25; stroke-linecap: round"/>
   </g>
   <g id="line2d_45">
    <path d="M -1 63.811554 
L 95.148 63.813817 
L 107.114881 64.704016 
L 114.115058 65.550798 
L 119.081762 66.356282 
L 126.081939 67.851316 
L 131.048644 69.204078 
L 136.546607 70.995723 
L 141.901296 73.00253 
L 157.015878 78.894731 
L 160.868353 80.044123 
L 164.332845 80.839902 
L 167.740169 81.393368 
L 171.437339 81.764091 
L 175.982936 81.979921 
L 183.194951 82.061317 
L 198.544785 82.066588 
L 198.544785 82.066588 
" clip-path="url(#pd9bb9af999)" style="fill: none; stroke-dasharray: 3,6; stroke-dashoffset: 0; stroke: #000000; stroke-opacity: 0.6; stroke-width: 3"/>
   </g>
   <g id="line2d_46">
    <path d="M -1 55.737053 
L 95.148 55.741427 
L 107.114881 57.461566 
L 114.115058 59.097813 
L 119.081762 60.65426 
L 122.934238 62.1348 
L 126.081939 63.543131 
L 131.048644 66.157089 
L 134.901119 68.522296 
L 139.430722 71.654857 
L 145.048997 75.936524 
L 153.282881 82.313983 
L 157.015878 84.882452 
L 160.083466 86.692424 
L 162.687356 87.967887 
L 165.249763 88.971297 
L 167.740169 89.710596 
L 170.364662 90.260929 
L 173.401337 90.656937 
L 177.067166 90.893454 
L 182.660401 90.99839 
L 198.544785 91.011466 
L 198.544785 91.011466 
" clip-path="url(#pd9bb9af999)" style="fill: none; stroke-dasharray: 3,6; stroke-dashoffset: 0; stroke: #000000; stroke-opacity: 0.6; stroke-width: 3"/>
   </g>
   <g id="line2d_47">
    <path d="M -1 112.946908 
L 95.148 112.93633 
L 107.114881 108.77612 
L 114.115058 104.818805 
L 119.081762 101.054492 
L 122.934238 97.473765 
L 126.081939 94.067673 
L 128.743283 90.8277 
L 131.048644 87.74574 
L 134.901119 82.02542 
L 138.04882 76.849456 
L 141.901296 69.994234 
L 147.710341 59.015413 
L 152.677045 49.748316 
L 155.513665 44.856801 
L 157.949325 41.047279 
L 160.083466 38.080427 
L 161.982583 35.769841 
L 164.016055 33.661357 
L 165.835058 32.099356 
L 167.740169 30.780891 
L 169.455791 29.851781 
L 171.437339 29.048377 
L 173.401337 28.492137 
L 175.660225 28.08232 
L 178.506713 27.807808 
L 182.551476 27.667945 
L 192.244188 27.634782 
L 198.544785 27.634701 
L 198.544785 27.634701 
" clip-path="url(#pd9bb9af999)" style="fill: none; stroke-dasharray: 3,6; stroke-dashoffset: 0; stroke: #000000; stroke-opacity: 0.6; stroke-width: 3"/>
   </g>
   <g id="line2d_48">
    <path d="M -1 58.00058 
L 95.148 58.004363 
L 107.114881 59.491846 
L 114.115058 60.906784 
L 119.081762 62.252715 
L 122.934238 63.533003 
L 126.081939 64.750853 
L 131.048644 67.01126 
L 134.901119 69.056561 
L 139.430722 71.76543 
L 145.048997 75.467983 
L 153.868177 81.349669 
L 157.488909 83.462419 
L 160.48037 84.951248 
L 163.364485 86.12251 
L 166.120429 86.985484 
L 168.982759 87.62788 
L 172.050347 88.068916 
L 175.660225 88.343923 
L 180.708174 88.477516 
L 193.621296 88.503962 
L 198.544785 88.503971 
L 198.544785 88.503971 
" clip-path="url(#pd9bb9af999)" style="fill: none; stroke-dasharray: 3,6; stroke-dashoffset: 0; stroke: #000000; stroke-opacity: 0.6; stroke-width: 3"/>
   </g>
   <g id="line2d_49">
    <path d="M -1 78.162423 
L 95.148 78.160936 
L 107.114881 77.576073 
L 114.115058 77.019733 
L 122.934238 75.987129 
L 128.743283 75.052791 
L 134.901119 73.81532 
L 141.901296 72.123913 
L 157.949325 68.0544 
L 162.338566 67.256691 
L 166.677399 66.709025 
L 171.228069 66.377721 
L 176.916383 66.210972 
L 188.108939 66.169022 
L 198.544785 66.168789 
L 198.544785 66.168789 
" clip-path="url(#pd9bb9af999)" style="fill: none; stroke-dasharray: 3,6; stroke-dashoffset: 0; stroke: #000000; stroke-opacity: 0.6; stroke-width: 3"/>
   </g>
   <g id="line2d_50">
    <path d="M -1 54.103475 
L 95.148 54.108276 
L 107.114881 55.996324 
L 114.115058 57.79229 
L 119.081762 59.500666 
L 122.934238 61.125725 
L 126.081939 62.671529 
L 131.048644 65.540643 
L 134.901119 68.136725 
L 139.430722 71.575065 
L 144.062182 75.426324 
L 153.868177 83.740246 
L 157.015878 86.093847 
L 159.677222 87.837436 
L 162.338566 89.309183 
L 164.643926 90.346302 
L 166.949287 91.162204 
L 169.455791 91.814942 
L 172.249939 92.295854 
L 175.496578 92.60757 
L 179.835411 92.77348 
L 188.500442 92.820548 
L 198.544785 92.821132 
L 198.544785 92.821132 
" clip-path="url(#pd9bb9af999)" style="fill: none; stroke-dasharray: 3,6; stroke-dashoffset: 0; stroke: #000000; stroke-opacity: 0.6; stroke-width: 3"/>
   </g>
   <g id="line2d_51">
    <path d="M -1 78.157401 
L 95.148 78.155916 
L 107.114881 77.571568 
L 114.115058 77.015718 
L 122.934238 75.984025 
L 128.743283 75.05051 
L 134.901119 73.814131 
L 141.901296 72.124216 
L 157.949325 68.058291 
L 162.338566 67.261286 
L 166.677399 66.714102 
L 171.228069 66.383089 
L 176.916383 66.216488 
L 188.108939 66.174575 
L 198.544785 66.174342 
L 198.544785 66.174342 
" clip-path="url(#pd9bb9af999)" style="fill: none; stroke-dasharray: 3,6; stroke-dashoffset: 0; stroke: #000000; stroke-opacity: 0.6; stroke-width: 3"/>
   </g>
   <g id="line2d_52">
    <path d="M -1 111.263327 
L 95.148 111.253189 
L 107.114881 107.266026 
L 114.115058 103.473321 
L 119.081762 99.865586 
L 122.934238 96.433807 
L 126.081939 93.16939 
L 128.743283 90.06419 
L 131.048644 87.110426 
L 134.901119 81.628049 
L 138.04882 76.667384 
L 141.901296 70.097314 
L 147.710341 59.575166 
L 152.677045 50.693545 
L 155.513665 46.005497 
L 157.949325 42.354438 
L 160.083466 39.510998 
L 161.982583 37.296522 
L 164.016055 35.275741 
L 165.835058 33.778714 
L 167.740169 32.515088 
L 169.687533 31.520997 
L 171.644103 30.788561 
L 173.768681 30.243336 
L 176.142058 29.869012 
L 179.183841 29.62898 
L 183.815301 29.517253 
L 198.544785 29.499765 
L 198.544785 29.499765 
" clip-path="url(#pd9bb9af999)" style="fill: none; stroke-dasharray: 3,6; stroke-dashoffset: 0; stroke: #000000; stroke-opacity: 0.6; stroke-width: 3"/>
   </g>
   <g id="line2d_53">
    <path d="M -1 73.10529 
L 107.114881 73.040061 
L 128.743283 72.759356 
L 148.513488 72.237892 
L 165.249763 71.848217 
L 179.835411 71.772691 
L 198.544785 71.771049 
L 198.544785 71.771049 
" clip-path="url(#pd9bb9af999)" style="fill: none; stroke-dasharray: 3,6; stroke-dashoffset: 0; stroke: #000000; stroke-opacity: 0.6; stroke-width: 3"/>
   </g>
   <g id="line2d_54">
    <path d="M -1 92.074639 
L 95.148 92.069516 
L 107.114881 90.054678 
L 114.115058 88.138106 
L 119.081762 86.315006 
L 122.934238 84.580815 
L 126.081939 82.931205 
L 128.743283 81.362047 
L 133.082116 78.449584 
L 136.546607 75.814281 
L 140.710164 72.323991 
L 145.982444 67.553374 
L 153.282881 60.944486 
L 156.52952 58.304059 
L 159.261188 56.34798 
L 161.982583 54.696878 
L 164.332845 53.533362 
L 166.677399 52.618027 
L 169.220895 51.885742 
L 171.84842 51.376435 
L 174.826026 51.035291 
L 178.64428 50.83668 
L 185.181572 50.761317 
L 198.544785 50.75693 
L 198.544785 50.75693 
" clip-path="url(#pd9bb9af999)" style="fill: none; stroke-dasharray: 3,6; stroke-dashoffset: 0; stroke: #000000; stroke-opacity: 0.6; stroke-width: 3"/>
   </g>
   <g id="line2d_55">
    <path d="M -1 115.992218 
L 95.148 115.980844 
L 107.114881 111.50762 
L 114.115058 107.252556 
L 119.081762 103.20502 
L 122.934238 99.354876 
L 126.081939 95.692512 
L 128.743283 92.208761 
L 131.048644 88.894913 
L 134.901119 82.744197 
L 138.04882 77.178795 
L 141.901296 69.807786 
L 147.710341 58.002916 
L 152.677045 48.038564 
L 155.513665 42.779011 
L 157.949325 38.682864 
L 160.083466 35.492785 
L 161.982583 33.008348 
L 164.016055 30.741225 
L 165.835058 29.061694 
L 167.480546 27.817474 
L 169.220895 26.767242 
L 171.016232 25.941018 
L 173.026005 25.280028 
L 175.164557 24.820303 
L 177.801939 24.500121 
L 181.305624 24.323077 
L 187.869703 24.263183 
L 198.544785 24.261115 
L 198.544785 24.261115 
" clip-path="url(#pd9bb9af999)" style="fill: none; stroke-dasharray: 3,6; stroke-dashoffset: 0; stroke: #000000; stroke-opacity: 0.6; stroke-width: 3"/>
   </g>
   <g id="line2d_56">
    <path d="M -1 91.981213 
L 95.148 91.976114 
L 107.114881 89.970878 
L 114.115058 88.063437 
L 119.081762 86.249022 
L 122.934238 84.523099 
L 126.081939 82.881348 
L 128.743283 81.319669 
L 133.082116 78.421084 
L 136.546607 75.798338 
L 140.710164 72.324681 
L 145.982444 67.576798 
L 153.282881 60.999403 
L 156.52952 58.371557 
L 159.261188 56.424798 
L 161.982583 54.781564 
L 164.332845 53.623597 
L 166.677399 52.712622 
L 169.220895 51.983828 
L 171.84842 51.476949 
L 174.826026 51.137431 
L 178.64428 50.939764 
L 185.181572 50.86476 
L 198.544785 50.860394 
L 198.544785 50.860394 
" clip-path="url(#pd9bb9af999)" style="fill: none; stroke-dasharray: 3,6; stroke-dashoffset: 0; stroke: #000000; stroke-opacity: 0.6; stroke-width: 3"/>
   </g>
   <g id="line2d_57">
    <path d="M -1 57.798971 
L 95.148 57.802806 
L 107.114881 59.311013 
L 114.115058 60.745661 
L 119.081762 62.11034 
L 122.934238 63.408463 
L 126.081939 64.643277 
L 131.048644 66.935174 
L 134.901119 69.008967 
L 139.430722 71.755572 
L 145.048997 75.509702 
L 153.868177 81.473322 
L 157.488909 83.615504 
L 160.48037 85.125074 
L 163.364485 86.312652 
L 166.120429 87.187648 
L 168.982759 87.838992 
L 172.050347 88.286173 
L 175.660225 88.565009 
L 180.708174 88.700462 
L 193.447781 88.727274 
L 198.544785 88.727286 
L 198.544785 88.727286 
" clip-path="url(#pd9bb9af999)" style="fill: none; stroke-dasharray: 3,6; stroke-dashoffset: 0; stroke: #000000; stroke-opacity: 0.6; stroke-width: 3"/>
   </g>
   <g id="line2d_58">
    <path d="M -1 76.072472 
L 95.148 76.071531 
L 107.114881 75.701484 
L 119.081762 75.014652 
L 128.743283 74.104988 
L 136.546607 73.08608 
L 145.982444 71.568874 
L 157.015878 69.802535 
L 162.687356 69.138777 
L 167.995945 68.750227 
L 173.949464 68.549669 
L 183.713445 68.48573 
L 198.544785 68.484024 
L 198.544785 68.484024 
" clip-path="url(#pd9bb9af999)" style="fill: none; stroke-dasharray: 3,6; stroke-dashoffset: 0; stroke: #000000; stroke-opacity: 0.6; stroke-width: 3"/>
   </g>
   <g id="line2d_59">
    <path d="M -1 52.66468 
L 95.148 52.669857 
L 107.114881 54.705795 
L 114.115058 56.64244 
L 119.081762 58.48463 
L 122.934238 60.236977 
L 126.081939 61.903863 
L 128.743283 63.489453 
L 133.082116 66.432413 
L 136.546607 69.095313 
L 140.710164 72.622151 
L 145.982444 77.442724 
L 153.282881 84.120819 
L 156.52952 86.788897 
L 159.261188 88.765457 
L 161.619105 90.229729 
L 164.016055 91.465706 
L 166.40116 92.438049 
L 168.741293 93.154461 
L 171.228069 93.687756 
L 174.128373 94.071503 
L 177.657465 94.300696 
L 183.089357 94.402385 
L 198.544785 94.415055 
L 198.544785 94.415055 
" clip-path="url(#pd9bb9af999)" style="fill: none; stroke-dasharray: 3,6; stroke-dashoffset: 0; stroke: #000000; stroke-opacity: 0.6; stroke-width: 3"/>
   </g>
   <g id="line2d_60">
    <path d="M -1 96.898347 
L 95.148 96.891963 
L 107.114881 94.381317 
L 114.115058 91.993113 
L 119.081762 89.721382 
L 122.934238 87.56045 
L 126.081939 85.504902 
L 128.743283 83.549611 
L 133.082116 79.920451 
L 136.546607 76.636654 
L 140.710164 72.287478 
L 145.982444 66.342913 
L 152.677045 58.75858 
L 156.029063 55.299705 
L 158.834881 52.737309 
L 161.24781 50.839035 
L 163.364485 49.432761 
L 165.54489 48.245744 
L 167.740169 47.311915 
L 169.916206 46.623879 
L 172.249939 46.111711 
L 174.996121 45.743161 
L 178.506713 45.517691 
L 184.017228 45.423183 
L 198.544785 45.413217 
L 198.544785 45.413217 
" clip-path="url(#pd9bb9af999)" style="fill: none; stroke-dasharray: 3,6; stroke-dashoffset: 0; stroke: #000000; stroke-opacity: 0.6; stroke-width: 3"/>
   </g>
   <g id="patch_3">
    <path d="M 89.976 125.504531 
L 89.976 19.44 
" style="fill: none; stroke: #262626; stroke-width: 1.875; stroke-linejoin: miter; stroke-linecap: square"/>
   </g>
   <g id="patch_4">
    <path d="M 89.976 125.504531 
L 203.76 125.504531 
" style="fill: none; stroke: #262626; stroke-width: 1.875; stroke-linejoin: miter; stroke-linecap: square"/>
   </g>
  </g>
 </g>
 <defs>
  <clipPath id="pd9bb9af999">
   <rect x="89.976" y="19.44" width="113.784" height="106.064531"/>
  </clipPath>
 </defs>
</svg>
