<?xml version="1.0" encoding="utf-8" standalone="no"?>
<!DOCTYPE svg PUBLIC "-//W3C//DTD SVG 1.1//EN"
  "http://www.w3.org/Graphics/SVG/1.1/DTD/svg11.dtd">
<svg xmlns:xlink="http://www.w3.org/1999/xlink" width="223.2pt" height="172.8pt" viewBox="0 0 223.2 172.8" xmlns="http://www.w3.org/2000/svg" version="1.1">
 <metadata>
  <rdf:RDF xmlns:dc="http://purl.org/dc/elements/1.1/" xmlns:cc="http://creativecommons.org/ns#" xmlns:rdf="http://www.w3.org/1999/02/22-rdf-syntax-ns#">
   <cc:Work>
    <dc:type rdf:resource="http://purl.org/dc/dcmitype/StillImage"/>
    <dc:date>2023-08-29T10:17:08.699172</dc:date>
    <dc:format>image/svg+xml</dc:format>
    <dc:creator>
     <cc:Agent>
      <dc:title>Matplotlib v3.6.3, https://matplotlib.org/</dc:title>
     </cc:Agent>
    </dc:creator>
   </cc:Work>
  </rdf:RDF>
 </metadata>
 <defs>
  <style type="text/css">*{stroke-linejoin: round; stroke-linecap: butt}</style>
 </defs>
 <g id="figure_1">
  <g id="patch_1">
   <path d="M 0 172.8 
L 223.2 172.8 
L 223.2 0 
L 0 0 
z
" style="fill: #ffffff"/>
  </g>
  <g id="axes_1">
   <g id="patch_2">
    <path d="M 89.976 96.704531 
L 194.708249 96.704531 
L 194.708249 19.44 
L 89.976 19.44 
z
" style="fill: #ffffff"/>
   </g>
   <g id="matplotlib.axis_1">
    <g id="xtick_1">
     <g id="line2d_1">
      <defs>
       <path id="ma4425d2cd5" d="M 0 0 
L 0 9 
" style="stroke: #1a1a1a; stroke-width: 1.875"/>
      </defs>
      <g>
       <use xlink:href="#ma4425d2cd5" x="94.736557" y="96.704531" style="fill: #1a1a1a; stroke: #1a1a1a; stroke-width: 1.875"/>
      </g>
     </g>
     <g id="text_1">
      <!-- $\mathdefault{10^{0}}$ -->
      <g style="fill: #1a1a1a" transform="translate(81.784057 126.220156) scale(0.165 -0.165)">
       <defs>
        <path id="ArialMT-31" d="M 2384 0 
L 1822 0 
L 1822 3584 
Q 1619 3391 1289 3197 
Q 959 3003 697 2906 
L 697 3450 
Q 1169 3672 1522 3987 
Q 1875 4303 2022 4600 
L 2384 4600 
L 2384 0 
z
" transform="scale(0.015625)"/>
        <path id="ArialMT-30" d="M 266 2259 
Q 266 3072 433 3567 
Q 600 4063 929 4331 
Q 1259 4600 1759 4600 
Q 2128 4600 2406 4451 
Q 2684 4303 2865 4023 
Q 3047 3744 3150 3342 
Q 3253 2941 3253 2259 
Q 3253 1453 3087 958 
Q 2922 463 2592 192 
Q 2263 -78 1759 -78 
Q 1097 -78 719 397 
Q 266 969 266 2259 
z
M 844 2259 
Q 844 1131 1108 757 
Q 1372 384 1759 384 
Q 2147 384 2411 759 
Q 2675 1134 2675 2259 
Q 2675 3391 2411 3762 
Q 2147 4134 1753 4134 
Q 1366 4134 1134 3806 
Q 844 3388 844 2259 
z
" transform="scale(0.015625)"/>
       </defs>
       <use xlink:href="#ArialMT-31" transform="translate(0 0.99375)"/>
       <use xlink:href="#ArialMT-30" transform="translate(55.615234 0.99375)"/>
       <use xlink:href="#ArialMT-30" transform="translate(112.972813 70.6875) scale(0.7)"/>
      </g>
     </g>
    </g>
    <g id="xtick_2">
     <g id="line2d_2">
      <g>
       <use xlink:href="#ma4425d2cd5" x="143.524126" y="96.704531" style="fill: #1a1a1a; stroke: #1a1a1a; stroke-width: 1.875"/>
      </g>
     </g>
     <g id="text_2">
      <!-- $\mathdefault{10^{2}}$ -->
      <g style="fill: #1a1a1a" transform="translate(130.571626 126.220156) scale(0.165 -0.165)">
       <defs>
        <path id="ArialMT-32" d="M 3222 541 
L 3222 0 
L 194 0 
Q 188 203 259 391 
Q 375 700 629 1000 
Q 884 1300 1366 1694 
Q 2113 2306 2375 2664 
Q 2638 3022 2638 3341 
Q 2638 3675 2398 3904 
Q 2159 4134 1775 4134 
Q 1369 4134 1125 3890 
Q 881 3647 878 3216 
L 300 3275 
Q 359 3922 746 4261 
Q 1134 4600 1788 4600 
Q 2447 4600 2831 4234 
Q 3216 3869 3216 3328 
Q 3216 3053 3103 2787 
Q 2991 2522 2730 2228 
Q 2469 1934 1863 1422 
Q 1356 997 1212 845 
Q 1069 694 975 541 
L 3222 541 
z
" transform="scale(0.015625)"/>
       </defs>
       <use xlink:href="#ArialMT-31" transform="translate(0 0.99375)"/>
       <use xlink:href="#ArialMT-30" transform="translate(55.615234 0.99375)"/>
       <use xlink:href="#ArialMT-32" transform="translate(112.972813 70.6875) scale(0.7)"/>
      </g>
     </g>
    </g>
    <g id="xtick_3">
     <g id="line2d_3">
      <g>
       <use xlink:href="#ma4425d2cd5" x="192.311695" y="96.704531" style="fill: #1a1a1a; stroke: #1a1a1a; stroke-width: 1.875"/>
      </g>
     </g>
     <g id="text_3">
      <!-- $\mathdefault{10^{4}}$ -->
      <g style="fill: #1a1a1a" transform="translate(179.359195 126.055156) scale(0.165 -0.165)">
       <defs>
        <path id="ArialMT-34" d="M 2069 0 
L 2069 1097 
L 81 1097 
L 81 1613 
L 2172 4581 
L 2631 4581 
L 2631 1613 
L 3250 1613 
L 3250 1097 
L 2631 1097 
L 2631 0 
L 2069 0 
z
M 2069 1613 
L 2069 3678 
L 634 1613 
L 2069 1613 
z
" transform="scale(0.015625)"/>
       </defs>
       <use xlink:href="#ArialMT-31" transform="translate(0 0.201563)"/>
       <use xlink:href="#ArialMT-30" transform="translate(55.615234 0.201563)"/>
       <use xlink:href="#ArialMT-34" transform="translate(112.972813 69.895313) scale(0.7)"/>
      </g>
     </g>
    </g>
    <g id="text_4">
     <!-- Training Step -->
     <g style="fill: #262626" transform="translate(89.153531 146.602969) scale(0.18 -0.18)">
      <defs>
       <path id="ArialMT-54" d="M 1659 0 
L 1659 4041 
L 150 4041 
L 150 4581 
L 3781 4581 
L 3781 4041 
L 2266 4041 
L 2266 0 
L 1659 0 
z
" transform="scale(0.015625)"/>
       <path id="ArialMT-72" d="M 416 0 
L 416 3319 
L 922 3319 
L 922 2816 
Q 1116 3169 1280 3281 
Q 1444 3394 1641 3394 
Q 1925 3394 2219 3213 
L 2025 2691 
Q 1819 2813 1613 2813 
Q 1428 2813 1281 2702 
Q 1134 2591 1072 2394 
Q 978 2094 978 1738 
L 978 0 
L 416 0 
z
" transform="scale(0.015625)"/>
       <path id="ArialMT-61" d="M 2588 409 
Q 2275 144 1986 34 
Q 1697 -75 1366 -75 
Q 819 -75 525 192 
Q 231 459 231 875 
Q 231 1119 342 1320 
Q 453 1522 633 1644 
Q 813 1766 1038 1828 
Q 1203 1872 1538 1913 
Q 2219 1994 2541 2106 
Q 2544 2222 2544 2253 
Q 2544 2597 2384 2738 
Q 2169 2928 1744 2928 
Q 1347 2928 1158 2789 
Q 969 2650 878 2297 
L 328 2372 
Q 403 2725 575 2942 
Q 747 3159 1072 3276 
Q 1397 3394 1825 3394 
Q 2250 3394 2515 3294 
Q 2781 3194 2906 3042 
Q 3031 2891 3081 2659 
Q 3109 2516 3109 2141 
L 3109 1391 
Q 3109 606 3145 398 
Q 3181 191 3288 0 
L 2700 0 
Q 2613 175 2588 409 
z
M 2541 1666 
Q 2234 1541 1622 1453 
Q 1275 1403 1131 1340 
Q 988 1278 909 1158 
Q 831 1038 831 891 
Q 831 666 1001 516 
Q 1172 366 1500 366 
Q 1825 366 2078 508 
Q 2331 650 2450 897 
Q 2541 1088 2541 1459 
L 2541 1666 
z
" transform="scale(0.015625)"/>
       <path id="ArialMT-69" d="M 425 3934 
L 425 4581 
L 988 4581 
L 988 3934 
L 425 3934 
z
M 425 0 
L 425 3319 
L 988 3319 
L 988 0 
L 425 0 
z
" transform="scale(0.015625)"/>
       <path id="ArialMT-6e" d="M 422 0 
L 422 3319 
L 928 3319 
L 928 2847 
Q 1294 3394 1984 3394 
Q 2284 3394 2536 3286 
Q 2788 3178 2913 3003 
Q 3038 2828 3088 2588 
Q 3119 2431 3119 2041 
L 3119 0 
L 2556 0 
L 2556 2019 
Q 2556 2363 2490 2533 
Q 2425 2703 2258 2804 
Q 2091 2906 1866 2906 
Q 1506 2906 1245 2678 
Q 984 2450 984 1813 
L 984 0 
L 422 0 
z
" transform="scale(0.015625)"/>
       <path id="ArialMT-67" d="M 319 -275 
L 866 -356 
Q 900 -609 1056 -725 
Q 1266 -881 1628 -881 
Q 2019 -881 2231 -725 
Q 2444 -569 2519 -288 
Q 2563 -116 2559 434 
Q 2191 0 1641 0 
Q 956 0 581 494 
Q 206 988 206 1678 
Q 206 2153 378 2554 
Q 550 2956 876 3175 
Q 1203 3394 1644 3394 
Q 2231 3394 2613 2919 
L 2613 3319 
L 3131 3319 
L 3131 450 
Q 3131 -325 2973 -648 
Q 2816 -972 2473 -1159 
Q 2131 -1347 1631 -1347 
Q 1038 -1347 672 -1080 
Q 306 -813 319 -275 
z
M 784 1719 
Q 784 1066 1043 766 
Q 1303 466 1694 466 
Q 2081 466 2343 764 
Q 2606 1063 2606 1700 
Q 2606 2309 2336 2618 
Q 2066 2928 1684 2928 
Q 1309 2928 1046 2623 
Q 784 2319 784 1719 
z
" transform="scale(0.015625)"/>
       <path id="ArialMT-20" transform="scale(0.015625)"/>
       <path id="ArialMT-53" d="M 288 1472 
L 859 1522 
Q 900 1178 1048 958 
Q 1197 738 1509 602 
Q 1822 466 2213 466 
Q 2559 466 2825 569 
Q 3091 672 3220 851 
Q 3350 1031 3350 1244 
Q 3350 1459 3225 1620 
Q 3100 1781 2813 1891 
Q 2628 1963 1997 2114 
Q 1366 2266 1113 2400 
Q 784 2572 623 2826 
Q 463 3081 463 3397 
Q 463 3744 659 4045 
Q 856 4347 1234 4503 
Q 1613 4659 2075 4659 
Q 2584 4659 2973 4495 
Q 3363 4331 3572 4012 
Q 3781 3694 3797 3291 
L 3216 3247 
Q 3169 3681 2898 3903 
Q 2628 4125 2100 4125 
Q 1550 4125 1298 3923 
Q 1047 3722 1047 3438 
Q 1047 3191 1225 3031 
Q 1400 2872 2139 2705 
Q 2878 2538 3153 2413 
Q 3553 2228 3743 1945 
Q 3934 1663 3934 1294 
Q 3934 928 3725 604 
Q 3516 281 3123 101 
Q 2731 -78 2241 -78 
Q 1619 -78 1198 103 
Q 778 284 539 648 
Q 300 1013 288 1472 
z
" transform="scale(0.015625)"/>
       <path id="ArialMT-74" d="M 1650 503 
L 1731 6 
Q 1494 -44 1306 -44 
Q 1000 -44 831 53 
Q 663 150 594 308 
Q 525 466 525 972 
L 525 2881 
L 113 2881 
L 113 3319 
L 525 3319 
L 525 4141 
L 1084 4478 
L 1084 3319 
L 1650 3319 
L 1650 2881 
L 1084 2881 
L 1084 941 
Q 1084 700 1114 631 
Q 1144 563 1211 522 
Q 1278 481 1403 481 
Q 1497 481 1650 503 
z
" transform="scale(0.015625)"/>
       <path id="ArialMT-65" d="M 2694 1069 
L 3275 997 
Q 3138 488 2766 206 
Q 2394 -75 1816 -75 
Q 1088 -75 661 373 
Q 234 822 234 1631 
Q 234 2469 665 2931 
Q 1097 3394 1784 3394 
Q 2450 3394 2872 2941 
Q 3294 2488 3294 1666 
Q 3294 1616 3291 1516 
L 816 1516 
Q 847 969 1125 678 
Q 1403 388 1819 388 
Q 2128 388 2347 550 
Q 2566 713 2694 1069 
z
M 847 1978 
L 2700 1978 
Q 2663 2397 2488 2606 
Q 2219 2931 1791 2931 
Q 1403 2931 1139 2672 
Q 875 2413 847 1978 
z
" transform="scale(0.015625)"/>
       <path id="ArialMT-70" d="M 422 -1272 
L 422 3319 
L 934 3319 
L 934 2888 
Q 1116 3141 1344 3267 
Q 1572 3394 1897 3394 
Q 2322 3394 2647 3175 
Q 2972 2956 3137 2557 
Q 3303 2159 3303 1684 
Q 3303 1175 3120 767 
Q 2938 359 2589 142 
Q 2241 -75 1856 -75 
Q 1575 -75 1351 44 
Q 1128 163 984 344 
L 984 -1272 
L 422 -1272 
z
M 931 1641 
Q 931 1000 1190 694 
Q 1450 388 1819 388 
Q 2194 388 2461 705 
Q 2728 1022 2728 1688 
Q 2728 2322 2467 2637 
Q 2206 2953 1844 2953 
Q 1484 2953 1207 2617 
Q 931 2281 931 1641 
z
" transform="scale(0.015625)"/>
      </defs>
      <use xlink:href="#ArialMT-54"/>
      <use xlink:href="#ArialMT-72" x="57.333984"/>
      <use xlink:href="#ArialMT-61" x="90.634766"/>
      <use xlink:href="#ArialMT-69" x="146.25"/>
      <use xlink:href="#ArialMT-6e" x="168.466797"/>
      <use xlink:href="#ArialMT-69" x="224.082031"/>
      <use xlink:href="#ArialMT-6e" x="246.298828"/>
      <use xlink:href="#ArialMT-67" x="301.914062"/>
      <use xlink:href="#ArialMT-20" x="357.529297"/>
      <use xlink:href="#ArialMT-53" x="385.3125"/>
      <use xlink:href="#ArialMT-74" x="452.011719"/>
      <use xlink:href="#ArialMT-65" x="479.794922"/>
      <use xlink:href="#ArialMT-70" x="535.410156"/>
     </g>
    </g>
   </g>
   <g id="matplotlib.axis_2">
    <g id="ytick_1">
     <g id="line2d_4">
      <defs>
       <path id="m64970af2b2" d="M 0 0 
L -9 0 
" style="stroke: #1a1a1a; stroke-width: 1.875"/>
      </defs>
      <g>
       <use xlink:href="#m64970af2b2" x="89.976" y="89.203661" style="fill: #1a1a1a; stroke: #1a1a1a; stroke-width: 1.875"/>
      </g>
     </g>
     <g id="text_5">
      <!-- −0.25 -->
      <g style="fill: #1a1a1a" transform="translate(35.728422 95.108856) scale(0.165 -0.165)">
       <defs>
        <path id="ArialMT-2212" d="M 3381 1997 
L 356 1997 
L 356 2522 
L 3381 2522 
L 3381 1997 
z
" transform="scale(0.015625)"/>
        <path id="ArialMT-2e" d="M 581 0 
L 581 641 
L 1222 641 
L 1222 0 
L 581 0 
z
" transform="scale(0.015625)"/>
        <path id="ArialMT-35" d="M 266 1200 
L 856 1250 
Q 922 819 1161 601 
Q 1400 384 1738 384 
Q 2144 384 2425 690 
Q 2706 997 2706 1503 
Q 2706 1984 2436 2262 
Q 2166 2541 1728 2541 
Q 1456 2541 1237 2417 
Q 1019 2294 894 2097 
L 366 2166 
L 809 4519 
L 3088 4519 
L 3088 3981 
L 1259 3981 
L 1013 2750 
Q 1425 3038 1878 3038 
Q 2478 3038 2890 2622 
Q 3303 2206 3303 1553 
Q 3303 931 2941 478 
Q 2500 -78 1738 -78 
Q 1113 -78 717 272 
Q 322 622 266 1200 
z
" transform="scale(0.015625)"/>
       </defs>
       <use xlink:href="#ArialMT-2212"/>
       <use xlink:href="#ArialMT-30" x="58.398438"/>
       <use xlink:href="#ArialMT-2e" x="114.013672"/>
       <use xlink:href="#ArialMT-32" x="141.796875"/>
       <use xlink:href="#ArialMT-35" x="197.412109"/>
      </g>
     </g>
    </g>
    <g id="ytick_2">
     <g id="line2d_5">
      <g>
       <use xlink:href="#m64970af2b2" x="89.976" y="58.172213" style="fill: #1a1a1a; stroke: #1a1a1a; stroke-width: 1.875"/>
      </g>
     </g>
     <g id="text_6">
      <!-- 0.00 -->
      <g style="fill: #1a1a1a" transform="translate(45.365453 64.077409) scale(0.165 -0.165)">
       <use xlink:href="#ArialMT-30"/>
       <use xlink:href="#ArialMT-2e" x="55.615234"/>
       <use xlink:href="#ArialMT-30" x="83.398438"/>
       <use xlink:href="#ArialMT-30" x="139.013672"/>
      </g>
     </g>
    </g>
    <g id="ytick_3">
     <g id="line2d_6">
      <g>
       <use xlink:href="#m64970af2b2" x="89.976" y="27.140766" style="fill: #1a1a1a; stroke: #1a1a1a; stroke-width: 1.875"/>
      </g>
     </g>
     <g id="text_7">
      <!-- 0.25 -->
      <g style="fill: #1a1a1a" transform="translate(45.365453 33.045961) scale(0.165 -0.165)">
       <use xlink:href="#ArialMT-30"/>
       <use xlink:href="#ArialMT-2e" x="55.615234"/>
       <use xlink:href="#ArialMT-32" x="83.398438"/>
       <use xlink:href="#ArialMT-35" x="139.013672"/>
      </g>
     </g>
    </g>
    <g id="text_8">
     <!-- ${\bf W}_2{\bf W}_1$ -->
     <g style="fill: #262626" transform="translate(27.753422 89.872266) rotate(-90) scale(0.2 -0.2)">
      <defs>
       <path id="DejaVuSans-Bold-57" d="M 191 4666 
L 1344 4666 
L 2150 1275 
L 2950 4666 
L 4109 4666 
L 4909 1275 
L 5716 4666 
L 6859 4666 
L 5759 0 
L 4372 0 
L 3525 3547 
L 2688 0 
L 1300 0 
L 191 4666 
z
" transform="scale(0.015625)"/>
       <path id="DejaVuSans-32" d="M 1228 531 
L 3431 531 
L 3431 0 
L 469 0 
L 469 531 
Q 828 903 1448 1529 
Q 2069 2156 2228 2338 
Q 2531 2678 2651 2914 
Q 2772 3150 2772 3378 
Q 2772 3750 2511 3984 
Q 2250 4219 1831 4219 
Q 1534 4219 1204 4116 
Q 875 4013 500 3803 
L 500 4441 
Q 881 4594 1212 4672 
Q 1544 4750 1819 4750 
Q 2544 4750 2975 4387 
Q 3406 4025 3406 3419 
Q 3406 3131 3298 2873 
Q 3191 2616 2906 2266 
Q 2828 2175 2409 1742 
Q 1991 1309 1228 531 
z
" transform="scale(0.015625)"/>
       <path id="DejaVuSans-31" d="M 794 531 
L 1825 531 
L 1825 4091 
L 703 3866 
L 703 4441 
L 1819 4666 
L 2450 4666 
L 2450 531 
L 3481 531 
L 3481 0 
L 794 0 
L 794 531 
z
" transform="scale(0.015625)"/>
      </defs>
      <use xlink:href="#DejaVuSans-Bold-57" transform="translate(0 0.09375)"/>
      <use xlink:href="#DejaVuSans-32" transform="translate(111.259766 -16.3125) scale(0.7)"/>
      <use xlink:href="#DejaVuSans-Bold-57" transform="translate(158.530273 0.09375)"/>
      <use xlink:href="#DejaVuSans-31" transform="translate(269.790039 -16.3125) scale(0.7)"/>
     </g>
    </g>
   </g>
   <g id="line2d_7">
    <path d="M -1 51.36342 
L 94.736557 51.364051 
L 106.37535 51.669097 
L 113.718611 52.089822 
L 120.140065 52.706795 
L 125.930196 53.519971 
L 132.095123 54.642076 
L 144.629725 57.016136 
L 148.569392 57.482279 
L 151.633558 57.631549 
L 153.967954 57.530178 
L 156.268518 57.423576 
L 157.498632 57.693904 
L 158.927429 57.930513 
L 166.27069 58.545197 
L 167.875449 58.545319 
L 168.674222 58.75672 
L 169.259467 59.140925 
L 169.778577 59.763344 
L 170.341073 60.823405 
L 172.042566 64.349119 
L 172.581305 64.796261 
L 173.216744 65.025406 
L 174.244558 65.12501 
L 178.138024 65.141417 
L 189.947693 65.141417 
L 189.947693 65.141417 
" clip-path="url(#p1ad0920add)" style="fill: none; stroke: #cc78a6; stroke-width: 2.25; stroke-linecap: round"/>
   </g>
   <g id="line2d_8">
    <path d="M -1 45.253719 
L 94.736557 45.255879 
L 102.079818 45.773112 
L 106.37535 46.259996 
L 111.78708 47.152494 
L 116.766339 48.318338 
L 121.061871 49.615618 
L 125.930196 51.371598 
L 137.753239 55.817824 
L 141.160124 56.771073 
L 144.240907 57.404934 
L 147.387186 57.823301 
L 150.972801 58.064336 
L 156.612817 58.406846 
L 158.130892 58.429419 
L 160.489556 58.425642 
L 161.311214 58.667643 
L 161.925536 59.078922 
L 162.435316 59.698173 
L 162.921687 60.666031 
L 163.43534 62.233858 
L 164.108953 65.119159 
L 165.135222 69.430723 
L 165.659323 70.698643 
L 166.133668 71.315668 
L 166.64757 71.62661 
L 167.329804 71.757197 
L 168.713605 71.738739 
L 173.395121 71.639085 
L 189.947693 71.638941 
L 189.947693 71.638941 
" clip-path="url(#p1ad0920add)" style="fill: none; stroke: #cc78a6; stroke-width: 2.25; stroke-linecap: round"/>
   </g>
   <g id="line2d_9">
    <path d="M -1 88.149168 
L 94.736557 88.138952 
L 102.079818 85.837655 
L 106.37535 83.789652 
L 109.423078 81.95643 
L 111.78708 80.306952 
L 115.351696 77.46249 
L 119.130341 74.067999 
L 128.405132 65.462441 
L 131.116512 63.328941 
L 133.548644 61.709743 
L 135.748393 60.521854 
L 137.934339 59.61303 
L 140.043925 58.982267 
L 142.289556 58.542539 
L 145.004776 58.248991 
L 151.877111 57.647529 
L 152.754683 57.26297 
L 153.357761 56.768428 
L 153.888597 56.039516 
L 154.356059 55.019843 
L 154.840231 53.387015 
L 155.338032 50.842821 
L 155.912652 46.593224 
L 157.86062 30.716134 
L 158.420438 28.616331 
L 159.001427 27.276073 
L 159.621979 26.385929 
L 160.208185 25.911351 
L 160.846576 25.67969 
L 161.831866 25.592051 
L 167.091979 25.602679 
L 189.947693 25.602468 
L 189.947693 25.602468 
" clip-path="url(#p1ad0920add)" style="fill: none; stroke: #cc78a6; stroke-width: 2.25; stroke-linecap: round"/>
   </g>
   <g id="line2d_10">
    <path d="M -1 47.293718 
L 94.736557 47.296739 
L 102.079818 47.992289 
L 106.37535 48.623532 
L 111.78708 49.724809 
L 116.766339 51.06207 
L 122.694957 52.976841 
L 131.116512 55.740073 
L 135.064667 56.768833 
L 138.459773 57.418407 
L 141.802386 57.829412 
L 145.543574 58.055278 
L 150.211873 58.100111 
L 152.886835 57.949567 
L 154.04672 57.680683 
L 154.840231 57.276848 
L 155.578426 56.645486 
L 156.796004 55.548513 
L 157.153142 55.540905 
L 157.470268 55.775528 
L 157.83321 56.376756 
L 158.263486 57.602908 
L 158.802938 59.929322 
L 160.446751 67.66686 
L 160.92886 68.690609 
L 161.409582 69.23458 
L 161.981344 69.539533 
L 162.819328 69.706767 
L 164.727977 69.802576 
L 171.587941 69.817406 
L 189.947693 69.817528 
L 189.947693 69.817528 
" clip-path="url(#p1ad0920add)" style="fill: none; stroke: #cc78a6; stroke-width: 2.25; stroke-linecap: round"/>
   </g>
   <g id="line2d_11">
    <path d="M -1 62.644558 
L 102.079818 62.541229 
L 113.718611 62.162938 
L 121.061871 61.67971 
L 127.954252 60.987892 
L 136.798171 59.835826 
L 145.367002 58.784001 
L 151.584168 58.264838 
L 156.108241 58.05754 
L 157.611336 58.280078 
L 159.458451 58.507525 
L 161.071338 58.407873 
L 162.750535 58.406425 
L 165.956675 58.545504 
L 168.179506 58.161094 
L 169.071123 57.803345 
L 169.707236 57.303861 
L 170.324204 56.51681 
L 172.028201 54.128956 
L 172.62895 53.804224 
L 173.426661 53.645611 
L 175.117177 53.595133 
L 189.947693 53.593429 
L 189.947693 53.593429 
" clip-path="url(#p1ad0920add)" style="fill: none; stroke: #cc78a6; stroke-width: 2.25; stroke-linecap: round"/>
   </g>
   <g id="line2d_12">
    <path d="M -1 43.992354 
L 94.736557 43.994724 
L 102.079818 44.562131 
L 106.37535 45.096247 
L 111.78708 46.075327 
L 115.351696 46.950667 
L 119.130341 48.101353 
L 123.425873 49.677792 
L 128.837604 51.952618 
L 135.748393 54.848241 
L 139.281432 56.080563 
L 142.407927 56.932732 
L 145.367002 57.505336 
L 148.436964 57.868023 
L 152.068 58.059657 
L 159.434882 58.37908 
L 161.091537 58.694039 
L 161.775263 59.050255 
L 162.29215 59.571003 
L 162.767775 60.381154 
L 163.255913 61.693725 
L 163.816578 63.906507 
L 165.434049 70.794967 
L 165.943919 71.812955 
L 166.454726 72.355011 
L 167.046067 72.651595 
L 167.928499 72.818669 
L 170.015866 72.923839 
L 175.239962 72.953498 
L 189.947693 72.953524 
L 189.947693 72.953524 
" clip-path="url(#p1ad0920add)" style="fill: none; stroke: #cc78a6; stroke-width: 2.25; stroke-linecap: round"/>
   </g>
   <g id="line2d_13">
    <path d="M -1 62.382991 
L 94.736557 62.381556 
L 106.37535 61.770975 
L 113.718611 61.072815 
L 123.425873 59.833215 
L 131.778859 58.834627 
L 137.190589 58.420677 
L 142.755306 58.2282 
L 152.97403 57.95198 
L 153.808641 57.62919 
L 154.432002 57.139471 
L 154.984863 56.393386 
L 155.544416 55.220801 
L 156.300284 53.017979 
L 157.153142 50.708308 
L 157.583272 50.111376 
L 157.915229 49.977845 
L 158.2371 50.095305 
L 158.651591 50.532497 
L 159.411261 51.762442 
L 160.164226 52.809257 
L 160.742813 53.246135 
L 161.429146 53.468718 
L 162.594098 53.569056 
L 166.754522 53.597581 
L 189.947693 53.597437 
L 189.947693 53.597437 
" clip-path="url(#p1ad0920add)" style="fill: none; stroke: #cc78a6; stroke-width: 2.25; stroke-linecap: round"/>
   </g>
   <g id="line2d_14">
    <path d="M -1 87.330862 
L 94.736557 87.32276 
L 102.079818 85.457523 
L 106.37535 83.764712 
L 109.423078 82.222145 
L 111.78708 80.811317 
L 115.351696 78.324932 
L 119.130341 75.262488 
L 124.1096 70.793393 
L 129.253112 66.196535 
L 132.095123 63.926238 
L 134.583034 62.210052 
L 136.798171 60.941642 
L 138.960374 59.959924 
L 141.026863 59.258406 
L 143.201438 58.750335 
L 145.630769 58.413175 
L 148.76498 58.218509 
L 153.728077 57.937866 
L 154.730447 57.633134 
L 155.476067 57.172191 
L 156.140491 56.49229 
L 156.765692 55.533506 
L 157.298468 54.31691 
L 157.778176 52.637629 
L 158.2371 50.186846 
L 158.777863 45.926481 
L 160.574649 30.206701 
L 161.051101 28.507605 
L 161.507044 27.66119 
L 161.981344 27.239528 
L 162.559018 27.033104 
L 163.547959 26.955542 
L 171.839664 26.957277 
L 189.947693 26.957195 
L 189.947693 26.957195 
" clip-path="url(#p1ad0920add)" style="fill: none; stroke: #cc78a6; stroke-width: 2.25; stroke-linecap: round"/>
   </g>
   <g id="line2d_15">
    <path d="M -1 58.668752 
L 120.140065 58.562564 
L 140.891905 58.253585 
L 150.707271 57.955824 
L 153.523946 57.656078 
L 156.075893 57.358762 
L 156.916393 57.552766 
L 159.050474 58.166789 
L 160.31729 58.217855 
L 162.488508 58.043667 
L 165.698584 57.725121 
L 169.769685 57.993272 
L 171.429423 57.783814 
L 173.100466 57.673128 
L 179.890403 57.662843 
L 189.947693 57.662843 
L 189.947693 57.662843 
" clip-path="url(#p1ad0920add)" style="fill: none; stroke: #cc78a6; stroke-width: 2.25; stroke-linecap: round"/>
   </g>
   <g id="line2d_16">
    <path d="M -1 73.303444 
L 94.736557 73.300912 
L 102.079818 72.694639 
L 106.37535 72.123953 
L 111.78708 71.077856 
L 115.351696 70.142614 
L 119.130341 68.913176 
L 123.425873 67.228764 
L 128.837604 64.797637 
L 135.748393 61.700248 
L 139.281432 60.378818 
L 142.289556 59.490831 
L 145.187437 58.868562 
L 148.167036 58.457958 
L 151.633558 58.215304 
L 154.693598 58.203767 
L 158.952153 58.342335 
L 160.55344 58.079004 
L 161.370344 57.728139 
L 161.962774 57.231411 
L 162.470807 56.495202 
L 162.955588 55.362299 
L 163.467639 53.543167 
L 164.154389 50.141335 
L 165.148989 45.344074 
L 165.672426 43.854833 
L 166.158714 43.089498 
L 166.659507 42.695583 
L 167.296154 42.488846 
L 168.404485 42.403384 
L 173.924936 42.398305 
L 189.947693 42.398342 
L 189.947693 42.398342 
" clip-path="url(#p1ad0920add)" style="fill: none; stroke: #cc78a6; stroke-width: 2.25; stroke-linecap: round"/>
   </g>
   <g id="line2d_17">
    <path d="M -1 90.405666 
L 94.736557 90.394686 
L 102.079818 87.921198 
L 106.37535 85.71999 
L 109.423078 83.749669 
L 111.78708 81.976869 
L 115.351696 78.919836 
L 119.130341 75.271884 
L 128.405132 66.026198 
L 131.116512 63.735485 
L 133.548644 61.998257 
L 135.748393 60.725434 
L 137.753239 59.823556 
L 139.745481 59.163477 
L 141.926295 58.681618 
L 144.4371 58.372578 
L 147.890051 58.203262 
L 151.282894 57.994334 
L 152.301875 57.716787 
L 152.97403 57.318187 
L 153.523946 56.727542 
L 154.00741 55.861684 
L 154.469771 54.542802 
L 154.94889 52.409798 
L 155.441727 49.093307 
L 156.043445 43.296912 
L 157.583272 27.370448 
L 158.077387 24.81439 
L 158.498051 23.649168 
L 158.902647 23.12725 
L 159.292359 22.962922 
L 159.873959 22.997477 
L 161.526429 23.172765 
L 167.069048 23.151761 
L 189.947693 23.151912 
L 189.947693 23.151912 
" clip-path="url(#p1ad0920add)" style="fill: none; stroke: #cc78a6; stroke-width: 2.25; stroke-linecap: round"/>
   </g>
   <g id="line2d_18">
    <path d="M -1 72.837201 
L 94.736557 72.833128 
L 102.079818 71.8955 
L 106.37535 71.044549 
L 111.78708 69.559939 
L 115.351696 68.31011 
L 120.140065 66.329439 
L 132.40222 60.960149 
L 135.525352 59.925983 
L 138.459773 59.1871 
L 141.421719 58.680418 
L 144.629725 58.372755 
L 148.76498 58.222977 
L 152.665656 58.041902 
L 153.768436 57.765454 
L 154.507405 57.348586 
L 155.127546 56.730743 
L 155.780225 55.725796 
L 158.39444 50.723989 
L 158.976819 49.006406 
L 160.532188 44.033532 
L 161.051101 43.262913 
L 161.584374 42.857941 
L 162.256055 42.637675 
L 163.451502 42.518558 
L 166.707121 42.473527 
L 189.947693 42.473529 
L 189.947693 42.473529 
" clip-path="url(#p1ad0920add)" style="fill: none; stroke: #cc78a6; stroke-width: 2.25; stroke-linecap: round"/>
   </g>
   <g id="line2d_19">
    <path d="M -1 46.638158 
L 94.736557 46.639232 
L 106.37535 47.158986 
L 111.78708 47.644573 
L 116.766339 48.315696 
L 121.061871 49.117395 
L 125.357404 50.154501 
L 130.038218 51.544389 
L 136.596372 53.781523 
L 142.640774 55.770979 
L 146.46538 56.794437 
L 150.041455 57.517829 
L 155.746857 58.384362 
L 157.269562 58.43989 
L 161.850666 58.242169 
L 165.52739 58.145563 
L 167.284913 58.30928 
L 168.169165 58.59559 
L 168.762629 59.016809 
L 169.259467 59.651545 
L 169.734045 60.6393 
L 170.264948 62.3094 
L 172.121227 68.778757 
L 172.608557 69.418919 
L 173.132894 69.750978 
L 173.840472 69.918028 
L 175.282338 69.976624 
L 189.947693 69.979678 
L 189.947693 69.979678 
" clip-path="url(#p1ad0920add)" style="fill: none; stroke: #cc78a6; stroke-width: 2.25; stroke-linecap: round"/>
   </g>
   <g id="line2d_20">
    <path d="M -1 60.951321 
L 94.736557 60.950856 
L 109.423078 60.636089 
L 119.130341 60.145566 
L 129.253112 59.354933 
L 140.334192 58.518647 
L 147.012798 58.255872 
L 158.676966 58.10019 
L 161.429146 58.176054 
L 162.733267 57.990971 
L 163.531943 57.660629 
L 164.37869 57.046439 
L 165.646203 56.1447 
L 166.563632 55.80098 
L 167.960202 55.543212 
L 170.549707 55.318494 
L 173.613951 55.275276 
L 189.947693 55.275143 
L 189.947693 55.275143 
" clip-path="url(#p1ad0920add)" style="fill: none; stroke: #cc78a6; stroke-width: 2.25; stroke-linecap: round"/>
   </g>
   <g id="line2d_21">
    <path d="M -1 43.500439 
L 94.736557 43.505432 
L 102.079818 44.630187 
L 106.37535 45.631089 
L 111.78708 47.332998 
L 116.766339 49.325277 
L 123.425873 52.37624 
L 128.405132 54.581146 
L 131.778859 55.849108 
L 134.826587 56.756754 
L 137.753239 57.38551 
L 140.755205 57.787561 
L 144.041013 57.991835 
L 148.167036 58.010446 
L 153.646896 58.007066 
L 154.279567 58.287975 
L 154.767168 58.735935 
L 155.233312 59.475155 
L 155.713385 60.675908 
L 156.300284 62.802052 
L 158.050532 69.637803 
L 158.85291 71.586058 
L 159.645136 72.974389 
L 160.251962 73.619886 
L 160.846576 73.932484 
L 161.642002 74.077853 
L 163.467639 74.11369 
L 189.947693 74.111235 
L 189.947693 74.111235 
" clip-path="url(#p1ad0920add)" style="fill: none; stroke: #cc78a6; stroke-width: 2.25; stroke-linecap: round"/>
   </g>
   <g id="line2d_22">
    <path d="M -1 76.532578 
L 94.736557 76.527475 
L 102.079818 75.352673 
L 106.37535 74.286459 
L 109.423078 73.314869 
L 113.718611 71.61078 
L 118.014143 69.526019 
L 122.694957 66.932224 
L 130.038218 62.807199 
L 133.273457 61.254085 
L 136.180865 60.113354 
L 138.796122 59.328184 
L 141.421719 58.773433 
L 144.240907 58.409777 
L 147.748794 58.198691 
L 153.482643 58.111319 
L 155.198174 58.257871 
L 156.581975 58.401048 
L 157.005795 58.179848 
L 157.384716 57.701669 
L 157.778176 56.80308 
L 158.210647 55.2001 
L 158.727535 52.312287 
L 160.616941 40.557889 
L 161.091537 39.447561 
L 161.545779 38.909877 
L 162.073708 38.633668 
L 162.836457 38.514099 
L 164.926533 38.505502 
L 181.502937 38.516668 
L 189.947693 38.516668 
L 189.947693 38.516668 
" clip-path="url(#p1ad0920add)" style="fill: none; stroke: #cc78a6; stroke-width: 2.25; stroke-linecap: round"/>
   </g>
   <g id="line2d_23">
    <path d="M -1 51.362405 
L 94.736557 51.363032 
L 106.37535 51.666319 
L 113.718611 52.085044 
L 120.140065 52.700094 
L 125.930196 53.512805 
L 132.095123 54.638867 
L 145.367002 57.177094 
L 149.751188 57.716479 
L 154.085885 58.020856 
L 159.387587 58.153108 
L 173.274408 58.172213 
L 189.946368 58.172213 
L 189.946368 58.172213 
" clip-path="url(#p1ad0920add)" style="fill: none; stroke-dasharray: 3,6; stroke-dashoffset: 0; stroke: #000000; stroke-opacity: 0.6; stroke-width: 3"/>
   </g>
   <g id="line2d_24">
    <path d="M -1 45.242824 
L 94.736557 45.244941 
L 102.079818 45.752833 
L 106.37535 46.231746 
L 111.78708 47.111652 
L 116.766339 48.2649 
L 121.061871 49.553121 
L 125.930196 51.304774 
L 138.112395 55.89151 
L 141.421719 56.80856 
L 144.53385 57.439909 
L 147.677453 57.8477 
L 151.282894 58.079797 
L 156.551043 58.166443 
L 187.194239 58.172213 
L 189.946368 58.172213 
L 189.946368 58.172213 
" clip-path="url(#p1ad0920add)" style="fill: none; stroke-dasharray: 3,6; stroke-dashoffset: 0; stroke: #000000; stroke-opacity: 0.6; stroke-width: 3"/>
   </g>
   <g id="line2d_25">
    <path d="M -1 88.248865 
L 94.736557 88.239042 
L 102.079818 86.010663 
L 106.37535 84.015587 
L 109.423078 82.22041 
L 111.78708 80.597804 
L 115.351696 77.78378 
L 119.130341 74.400262 
L 129.253112 64.994086 
L 131.778859 63.046482 
L 134.078459 61.548976 
L 136.180865 60.439417 
L 138.287508 59.584373 
L 140.334192 58.988737 
L 142.640774 58.559076 
L 145.2776 58.305175 
L 149.083145 58.188769 
L 161.131818 58.172213 
L 189.946368 58.172213 
L 189.946368 58.172213 
" clip-path="url(#p1ad0920add)" style="fill: none; stroke-dasharray: 3,6; stroke-dashoffset: 0; stroke: #000000; stroke-opacity: 0.6; stroke-width: 3"/>
   </g>
   <g id="line2d_26">
    <path d="M -1 47.269602 
L 94.736557 47.272529 
L 102.079818 47.949469 
L 106.37535 48.566453 
L 111.78708 49.648697 
L 116.766339 50.97249 
L 121.909851 52.618364 
L 131.778859 55.874375 
L 135.525352 56.836279 
L 138.960374 57.479085 
L 142.289556 57.872868 
L 146.139383 58.093065 
L 151.972985 58.168882 
L 189.946368 58.172213 
L 189.946368 58.172213 
" clip-path="url(#p1ad0920add)" style="fill: none; stroke-dasharray: 3,6; stroke-dashoffset: 0; stroke: #000000; stroke-opacity: 0.6; stroke-width: 3"/>
   </g>
   <g id="line2d_27">
    <path d="M -1 62.64628 
L 102.079818 62.54455 
L 113.718611 62.171505 
L 121.061871 61.693732 
L 127.954252 61.007714 
L 136.798171 59.862396 
L 145.0965 58.852728 
L 150.489949 58.427199 
L 155.978251 58.225305 
L 164.569315 58.172682 
L 189.946368 58.172213 
L 189.946368 58.172213 
" clip-path="url(#p1ad0920add)" style="fill: none; stroke-dasharray: 3,6; stroke-dashoffset: 0; stroke: #000000; stroke-opacity: 0.6; stroke-width: 3"/>
   </g>
   <g id="line2d_28">
    <path d="M -1 43.980746 
L 94.736557 43.98307 
L 102.079818 44.54054 
L 106.37535 45.066199 
L 111.78708 46.031996 
L 115.351696 46.897851 
L 119.130341 48.039412 
L 123.425873 49.60932 
L 128.837604 51.8864 
L 135.966836 54.88864 
L 139.438384 56.103447 
L 142.52499 56.950298 
L 145.455656 57.524964 
L 148.569392 57.901423 
L 152.208944 58.103849 
L 158.077387 58.170094 
L 189.946368 58.172213 
L 189.946368 58.172213 
" clip-path="url(#p1ad0920add)" style="fill: none; stroke-dasharray: 3,6; stroke-dashoffset: 0; stroke: #000000; stroke-opacity: 0.6; stroke-width: 3"/>
   </g>
   <g id="line2d_29">
    <path d="M -1 62.396818 
L 94.736557 62.395438 
L 106.37535 61.802207 
L 113.718611 61.115297 
L 122.694957 59.973473 
L 131.778859 58.85686 
L 137.190589 58.428636 
L 142.755306 58.224357 
L 151.484692 58.172616 
L 189.946368 58.172213 
L 189.946368 58.172213 
" clip-path="url(#p1ad0920add)" style="fill: none; stroke-dasharray: 3,6; stroke-dashoffset: 0; stroke: #000000; stroke-opacity: 0.6; stroke-width: 3"/>
   </g>
   <g id="line2d_30">
    <path d="M -1 87.396395 
L 94.736557 87.388551 
L 102.079818 85.574029 
L 106.37535 83.92022 
L 109.423078 82.407493 
L 111.78708 81.01929 
L 115.351696 78.562185 
L 119.130341 75.51785 
L 123.425873 71.671915 
L 129.652936 66.056576 
L 132.700665 63.636895 
L 135.064667 62.033131 
L 137.381479 60.740945 
L 139.438384 59.842276 
L 141.550134 59.159691 
L 143.733916 58.685744 
L 146.221827 58.377307 
L 149.452743 58.215646 
L 155.912652 58.172523 
L 189.946368 58.172213 
L 189.946368 58.172213 
" clip-path="url(#p1ad0920add)" style="fill: none; stroke-dasharray: 3,6; stroke-dashoffset: 0; stroke: #000000; stroke-opacity: 0.6; stroke-width: 3"/>
   </g>
   <g id="line2d_31">
    <path d="M -1 58.66993 
L 121.061871 58.563966 
L 174.64503 58.172213 
L 189.946368 58.172213 
L 189.946368 58.172213 
" clip-path="url(#p1ad0920add)" style="fill: none; stroke-dasharray: 3,6; stroke-dashoffset: 0; stroke: #000000; stroke-opacity: 0.6; stroke-width: 3"/>
   </g>
   <g id="line2d_32">
    <path d="M -1 73.316689 
L 94.736557 73.314209 
L 102.079818 72.719304 
L 106.37535 72.158343 
L 111.78708 71.127689 
L 115.351696 70.203689 
L 119.130341 68.985467 
L 123.425873 67.310133 
L 128.405132 65.081409 
L 135.966836 61.676289 
L 139.438384 60.379904 
L 142.407927 59.505692 
L 145.2776 58.893384 
L 148.235166 58.493261 
L 151.682718 58.263883 
L 156.796004 58.177943 
L 186.944014 58.172213 
L 189.946368 58.172213 
L 189.946368 58.172213 
" clip-path="url(#p1ad0920add)" style="fill: none; stroke-dasharray: 3,6; stroke-dashoffset: 0; stroke: #000000; stroke-opacity: 0.6; stroke-width: 3"/>
   </g>
   <g id="line2d_33">
    <path d="M -1 90.511826 
L 94.736557 90.501264 
L 102.079818 88.105228 
L 106.37535 85.96004 
L 109.423078 84.029794 
L 111.78708 82.285104 
L 115.351696 79.25935 
L 119.130341 75.621258 
L 129.253112 65.507363 
L 131.778859 63.413221 
L 134.078459 61.803044 
L 136.180865 60.610001 
L 138.112395 59.756683 
L 140.190053 59.08767 
L 142.407927 58.623987 
L 144.91225 58.340631 
L 148.30286 58.201262 
L 156.395016 58.172232 
L 189.946368 58.172213 
L 189.946368 58.172213 
" clip-path="url(#p1ad0920add)" style="fill: none; stroke-dasharray: 3,6; stroke-dashoffset: 0; stroke: #000000; stroke-opacity: 0.6; stroke-width: 3"/>
   </g>
   <g id="line2d_34">
    <path d="M -1 72.869711 
L 94.736557 72.865766 
L 102.079818 71.953203 
L 106.37535 71.121465 
L 111.78708 69.662522 
L 115.351696 68.426788 
L 120.140065 66.454987 
L 133.273457 60.712805 
L 136.390656 59.724051 
L 139.281432 59.042447 
L 142.169848 58.589923 
L 145.455656 58.312146 
L 149.809881 58.190061 
L 162.541434 58.172213 
L 189.946368 58.172213 
L 189.946368 58.172213 
" clip-path="url(#p1ad0920add)" style="fill: none; stroke-dasharray: 3,6; stroke-dashoffset: 0; stroke: #000000; stroke-opacity: 0.6; stroke-width: 3"/>
   </g>
   <g id="line2d_35">
    <path d="M -1 46.634803 
L 94.736557 46.635864 
L 106.37535 47.149703 
L 111.78708 47.63032 
L 116.766339 48.295425 
L 121.061871 49.091173 
L 125.357404 50.122477 
L 130.038218 51.507676 
L 136.390656 53.67175 
L 142.640774 55.734146 
L 146.384816 56.733079 
L 149.751188 57.400092 
L 153.060512 57.826515 
L 156.765692 58.070204 
L 161.981344 58.164598 
L 186.910553 58.172213 
L 189.946368 58.172213 
L 189.946368 58.172213 
" clip-path="url(#p1ad0920add)" style="fill: none; stroke-dasharray: 3,6; stroke-dashoffset: 0; stroke: #000000; stroke-opacity: 0.6; stroke-width: 3"/>
   </g>
   <g id="line2d_36">
    <path d="M -1 60.953668 
L 102.079818 60.843951 
L 113.718611 60.464519 
L 122.694957 59.906477 
L 144.81891 58.319806 
L 151.972985 58.187077 
L 171.617867 58.172213 
L 189.946368 58.172213 
L 189.946368 58.172213 
" clip-path="url(#p1ad0920add)" style="fill: none; stroke-dasharray: 3,6; stroke-dashoffset: 0; stroke: #000000; stroke-opacity: 0.6; stroke-width: 3"/>
   </g>
   <g id="line2d_37">
    <path d="M -1 43.453232 
L 94.736557 43.45804 
L 102.079818 44.548569 
L 106.37535 45.524923 
L 111.78708 47.197526 
L 115.351696 48.574661 
L 120.140065 50.696677 
L 129.253112 54.83371 
L 132.700665 56.097271 
L 135.748393 56.961236 
L 138.629282 57.53741 
L 141.677011 57.908652 
L 145.2776 58.107144 
L 151.231838 58.170494 
L 189.946368 58.172213 
L 189.946368 58.172213 
" clip-path="url(#p1ad0920add)" style="fill: none; stroke-dasharray: 3,6; stroke-dashoffset: 0; stroke: #000000; stroke-opacity: 0.6; stroke-width: 3"/>
   </g>
   <g id="line2d_38">
    <path d="M -1 76.574184 
L 94.736557 76.569245 
L 102.079818 75.426673 
L 106.37535 74.385295 
L 109.423078 73.432756 
L 113.718611 71.754043 
L 118.014143 69.68691 
L 122.694957 67.095497 
L 130.409978 62.738862 
L 133.548644 61.231576 
L 136.390656 60.115187 
L 138.960374 59.34211 
L 141.550134 58.79401 
L 144.339458 58.435692 
L 147.748794 58.237911 
L 153.399552 58.17413 
L 189.946368 58.172213 
L 189.946368 58.172213 
" clip-path="url(#p1ad0920add)" style="fill: none; stroke-dasharray: 3,6; stroke-dashoffset: 0; stroke: #000000; stroke-opacity: 0.6; stroke-width: 3"/>
   </g>
   <g id="patch_3">
    <path d="M 89.976 96.704531 
L 89.976 19.44 
" style="fill: none; stroke: #262626; stroke-width: 1.875; stroke-linejoin: miter; stroke-linecap: square"/>
   </g>
   <g id="patch_4">
    <path d="M 89.976 96.704531 
L 194.708249 96.704531 
" style="fill: none; stroke: #262626; stroke-width: 1.875; stroke-linejoin: miter; stroke-linecap: square"/>
   </g>
  </g>
 </g>
 <defs>
  <clipPath id="p1ad0920add">
   <rect x="89.976" y="19.44" width="104.732249" height="77.264531"/>
  </clipPath>
 </defs>
</svg>
