<?xml version="1.0" encoding="utf-8" standalone="no"?>
<!DOCTYPE svg PUBLIC "-//W3C//DTD SVG 1.1//EN"
  "http://www.w3.org/Graphics/SVG/1.1/DTD/svg11.dtd">
<svg xmlns:xlink="http://www.w3.org/1999/xlink" width="136.8pt" height="432pt" viewBox="0 0 136.8 432" xmlns="http://www.w3.org/2000/svg" version="1.1">
 <metadata>
  <rdf:RDF xmlns:dc="http://purl.org/dc/elements/1.1/" xmlns:cc="http://creativecommons.org/ns#" xmlns:rdf="http://www.w3.org/1999/02/22-rdf-syntax-ns#">
   <cc:Work>
    <dc:type rdf:resource="http://purl.org/dc/dcmitype/StillImage"/>
    <dc:date>2023-01-14T14:48:46.604587</dc:date>
    <dc:format>image/svg+xml</dc:format>
    <dc:creator>
     <cc:Agent>
      <dc:title>Matplotlib v3.6.3, https://matplotlib.org/</dc:title>
     </cc:Agent>
    </dc:creator>
   </cc:Work>
  </rdf:RDF>
 </metadata>
 <defs>
  <style type="text/css">*{stroke-linejoin: round; stroke-linecap: butt}</style>
 </defs>
 <g id="figure_1">
  <g id="patch_1">
   <path d="M 0 432 
L 136.8 432 
L 136.8 0 
L 0 0 
z
" style="fill: #ffffff"/>
  </g>
  <g id="axes_1">
   <g id="patch_2">
    <path d="M 17.1 149.675294 
L 123.12 149.675294 
L 123.12 51.84 
L 17.1 51.84 
z
" style="fill: #ffffff"/>
   </g>
   <g id="matplotlib.axis_1">
    <g id="xtick_1">
     <g id="line2d_1">
      <defs>
       <path id="m1de66f9557" d="M 0 0 
L 0 9 
" style="stroke: #1a1a1a; stroke-width: 1.875"/>
      </defs>
      <g>
       <use xlink:href="#m1de66f9557" x="40.277532" y="149.675294" style="fill: #1a1a1a; stroke: #1a1a1a; stroke-width: 1.875"/>
      </g>
     </g>
    </g>
    <g id="xtick_2">
     <g id="line2d_2">
      <g>
       <use xlink:href="#m1de66f9557" x="86.173636" y="149.675294" style="fill: #1a1a1a; stroke: #1a1a1a; stroke-width: 1.875"/>
      </g>
     </g>
    </g>
   </g>
   <g id="matplotlib.axis_2">
    <g id="ytick_1">
     <g id="line2d_3">
      <defs>
       <path id="m3ec6427386" d="M 0 0 
L -9 0 
" style="stroke: #1a1a1a; stroke-width: 1.875"/>
      </defs>
      <g>
       <use xlink:href="#m3ec6427386" x="17.1" y="128.287059" style="fill: #1a1a1a; stroke: #1a1a1a; stroke-width: 1.875"/>
      </g>
     </g>
     <g id="text_1">
      <!-- 0.00 -->
      <g style="fill: #1a1a1a" transform="translate(-32.138281 134.55577) scale(0.165 -0.165)">
       <defs>
        <path id="DejaVuSans-30" d="M 2034 4250 
Q 1547 4250 1301 3770 
Q 1056 3291 1056 2328 
Q 1056 1369 1301 889 
Q 1547 409 2034 409 
Q 2525 409 2770 889 
Q 3016 1369 3016 2328 
Q 3016 3291 2770 3770 
Q 2525 4250 2034 4250 
z
M 2034 4750 
Q 2819 4750 3233 4129 
Q 3647 3509 3647 2328 
Q 3647 1150 3233 529 
Q 2819 -91 2034 -91 
Q 1250 -91 836 529 
Q 422 1150 422 2328 
Q 422 3509 836 4129 
Q 1250 4750 2034 4750 
z
" transform="scale(0.015625)"/>
        <path id="DejaVuSans-2e" d="M 684 794 
L 1344 794 
L 1344 0 
L 684 0 
L 684 794 
z
" transform="scale(0.015625)"/>
       </defs>
       <use xlink:href="#DejaVuSans-30"/>
       <use xlink:href="#DejaVuSans-2e" x="63.623047"/>
       <use xlink:href="#DejaVuSans-30" x="95.410156"/>
       <use xlink:href="#DejaVuSans-30" x="159.033203"/>
      </g>
     </g>
    </g>
    <g id="ytick_2">
     <g id="line2d_4">
      <g>
       <use xlink:href="#m3ec6427386" x="17.1" y="85.934118" style="fill: #1a1a1a; stroke: #1a1a1a; stroke-width: 1.875"/>
      </g>
     </g>
     <g id="text_2">
      <!-- 0.25 -->
      <g style="fill: #1a1a1a" transform="translate(-32.138281 92.202829) scale(0.165 -0.165)">
       <defs>
        <path id="DejaVuSans-32" d="M 1228 531 
L 3431 531 
L 3431 0 
L 469 0 
L 469 531 
Q 828 903 1448 1529 
Q 2069 2156 2228 2338 
Q 2531 2678 2651 2914 
Q 2772 3150 2772 3378 
Q 2772 3750 2511 3984 
Q 2250 4219 1831 4219 
Q 1534 4219 1204 4116 
Q 875 4013 500 3803 
L 500 4441 
Q 881 4594 1212 4672 
Q 1544 4750 1819 4750 
Q 2544 4750 2975 4387 
Q 3406 4025 3406 3419 
Q 3406 3131 3298 2873 
Q 3191 2616 2906 2266 
Q 2828 2175 2409 1742 
Q 1991 1309 1228 531 
z
" transform="scale(0.015625)"/>
        <path id="DejaVuSans-35" d="M 691 4666 
L 3169 4666 
L 3169 4134 
L 1269 4134 
L 1269 2991 
Q 1406 3038 1543 3061 
Q 1681 3084 1819 3084 
Q 2600 3084 3056 2656 
Q 3513 2228 3513 1497 
Q 3513 744 3044 326 
Q 2575 -91 1722 -91 
Q 1428 -91 1123 -41 
Q 819 9 494 109 
L 494 744 
Q 775 591 1075 516 
Q 1375 441 1709 441 
Q 2250 441 2565 725 
Q 2881 1009 2881 1497 
Q 2881 1984 2565 2268 
Q 2250 2553 1709 2553 
Q 1456 2553 1204 2497 
Q 953 2441 691 2322 
L 691 4666 
z
" transform="scale(0.015625)"/>
       </defs>
       <use xlink:href="#DejaVuSans-30"/>
       <use xlink:href="#DejaVuSans-2e" x="63.623047"/>
       <use xlink:href="#DejaVuSans-32" x="95.410156"/>
       <use xlink:href="#DejaVuSans-35" x="159.033203"/>
      </g>
     </g>
    </g>
   </g>
   <g id="line2d_5">
    <path d="M 21.919091 145.228235 
L 23.886067 143.413109 
L 25.853043 141.597983 
L 27.820019 139.782857 
L 29.786994 137.967731 
L 31.75397 136.152605 
L 33.720946 134.337479 
L 35.687922 132.522353 
L 37.654898 130.707227 
L 39.621874 128.892101 
L 41.58885 127.076975 
L 43.555826 125.261849 
L 45.522801 123.446723 
L 47.489777 121.631597 
L 49.456753 119.816471 
L 51.423729 118.001345 
L 53.390705 116.186218 
L 55.357681 114.371092 
L 57.324657 112.555966 
L 59.291633 110.74084 
L 61.258609 108.925714 
L 63.225584 107.110588 
L 65.19256 105.295462 
L 67.159536 103.480336 
L 69.126512 101.66521 
L 71.093488 99.850084 
L 73.060464 98.034958 
L 75.02744 96.219832 
L 76.994416 94.404706 
L 78.961391 92.58958 
L 80.928367 90.774454 
L 82.895343 88.959328 
L 84.862319 87.144202 
L 86.829295 85.329076 
L 88.796271 83.51395 
L 90.763247 81.698824 
L 92.730223 79.883697 
L 94.697199 78.068571 
L 96.664174 76.253445 
L 98.63115 74.438319 
L 100.598126 72.623193 
L 102.565102 70.808067 
L 104.532078 68.992941 
L 106.499054 67.177815 
L 108.46603 65.362689 
L 110.433006 63.547563 
L 112.399981 61.732437 
L 114.366957 59.917311 
L 116.333933 58.102185 
L 118.300909 56.287059 
" clip-path="url(#p098f2f8f66)" style="fill: none; stroke: #000000; stroke-opacity: 0.7; stroke-width: 2.25; stroke-linecap: round"/>
   </g>
   <g id="PathCollection_1">
    <defs>
     <path id="m0dc196a67f" d="M 0 4.5 
C 1.193414 4.5 2.338109 4.025852 3.181981 3.181981 
C 4.025852 2.338109 4.5 1.193414 4.5 0 
C 4.5 -1.193414 4.025852 -2.338109 3.181981 -3.181981 
C 2.338109 -4.025852 1.193414 -4.5 0 -4.5 
C -1.193414 -4.5 -2.338109 -4.025852 -3.181981 -3.181981 
C -4.025852 -2.338109 -4.5 -1.193414 -4.5 0 
C -4.5 1.193414 -4.025852 2.338109 -3.181981 3.181981 
C -2.338109 4.025852 -1.193414 4.5 0 4.5 
z
" style="stroke: #d65c00; stroke-opacity: 0.5; stroke-width: 1.5"/>
    </defs>
    <g clip-path="url(#p098f2f8f66)">
     <use xlink:href="#m0dc196a67f" x="52.164883" y="117.317407" style="fill: #d65c00; fill-opacity: 0.5; stroke: #d65c00; stroke-opacity: 0.5; stroke-width: 1.5"/>
     <use xlink:href="#m0dc196a67f" x="64.107839" y="106.29498" style="fill: #d65c00; fill-opacity: 0.5; stroke: #d65c00; stroke-opacity: 0.5; stroke-width: 1.5"/>
     <use xlink:href="#m0dc196a67f" x="62.165918" y="108.088442" style="fill: #d65c00; fill-opacity: 0.5; stroke: #d65c00; stroke-opacity: 0.5; stroke-width: 1.5"/>
     <use xlink:href="#m0dc196a67f" x="45.104513" y="123.832734" style="fill: #d65c00; fill-opacity: 0.5; stroke: #d65c00; stroke-opacity: 0.5; stroke-width: 1.5"/>
     <use xlink:href="#m0dc196a67f" x="96.542958" y="76.370938" style="fill: #d65c00; fill-opacity: 0.5; stroke: #d65c00; stroke-opacity: 0.5; stroke-width: 1.5"/>
     <use xlink:href="#m0dc196a67f" x="60.812949" y="109.336996" style="fill: #d65c00; fill-opacity: 0.5; stroke: #d65c00; stroke-opacity: 0.5; stroke-width: 1.5"/>
     <use xlink:href="#m0dc196a67f" x="66.685294" y="103.91799" style="fill: #d65c00; fill-opacity: 0.5; stroke: #d65c00; stroke-opacity: 0.5; stroke-width: 1.5"/>
     <use xlink:href="#m0dc196a67f" x="104.390902" y="69.123233" style="fill: #d65c00; fill-opacity: 0.5; stroke: #d65c00; stroke-opacity: 0.5; stroke-width: 1.5"/>
     <use xlink:href="#m0dc196a67f" x="78.636423" y="92.889453" style="fill: #d65c00; fill-opacity: 0.5; stroke: #d65c00; stroke-opacity: 0.5; stroke-width: 1.5"/>
     <use xlink:href="#m0dc196a67f" x="71.806697" y="99.192318" style="fill: #d65c00; fill-opacity: 0.5; stroke: #d65c00; stroke-opacity: 0.5; stroke-width: 1.5"/>
     <use xlink:href="#m0dc196a67f" x="63.612798" y="106.75331" style="fill: #d65c00; fill-opacity: 0.5; stroke: #d65c00; stroke-opacity: 0.5; stroke-width: 1.5"/>
     <use xlink:href="#m0dc196a67f" x="72.941616" y="98.146527" style="fill: #d65c00; fill-opacity: 0.5; stroke: #d65c00; stroke-opacity: 0.5; stroke-width: 1.5"/>
     <use xlink:href="#m0dc196a67f" x="51.425507" y="117.999706" style="fill: #d65c00; fill-opacity: 0.5; stroke: #d65c00; stroke-opacity: 0.5; stroke-width: 1.5"/>
     <use xlink:href="#m0dc196a67f" x="78.500819" y="93.014604" style="fill: #d65c00; fill-opacity: 0.5; stroke: #d65c00; stroke-opacity: 0.5; stroke-width: 1.5"/>
     <use xlink:href="#m0dc196a67f" x="76.245701" y="95.096049" style="fill: #d65c00; fill-opacity: 0.5; stroke: #d65c00; stroke-opacity: 0.5; stroke-width: 1.5"/>
     <use xlink:href="#m0dc196a67f" x="93.226997" y="79.425284" style="fill: #d65c00; fill-opacity: 0.5; stroke: #d65c00; stroke-opacity: 0.5; stroke-width: 1.5"/>
     <use xlink:href="#m0dc196a67f" x="80.336822" y="91.320932" style="fill: #d65c00; fill-opacity: 0.5; stroke: #d65c00; stroke-opacity: 0.5; stroke-width: 1.5"/>
     <use xlink:href="#m0dc196a67f" x="83.697768" y="88.218885" style="fill: #d65c00; fill-opacity: 0.5; stroke: #d65c00; stroke-opacity: 0.5; stroke-width: 1.5"/>
     <use xlink:href="#m0dc196a67f" x="70.007369" y="100.85237" style="fill: #d65c00; fill-opacity: 0.5; stroke: #d65c00; stroke-opacity: 0.5; stroke-width: 1.5"/>
     <use xlink:href="#m0dc196a67f" x="66.354287" y="104.22341" style="fill: #d65c00; fill-opacity: 0.5; stroke: #d65c00; stroke-opacity: 0.5; stroke-width: 1.5"/>
     <use xlink:href="#m0dc196a67f" x="83.607919" y="88.326037" style="fill: #d65c00; fill-opacity: 0.5; stroke: #d65c00; stroke-opacity: 0.5; stroke-width: 1.5"/>
     <use xlink:href="#m0dc196a67f" x="83.784099" y="88.139179" style="fill: #d65c00; fill-opacity: 0.5; stroke: #d65c00; stroke-opacity: 0.5; stroke-width: 1.5"/>
     <use xlink:href="#m0dc196a67f" x="90.747485" y="81.713434" style="fill: #d65c00; fill-opacity: 0.5; stroke: #d65c00; stroke-opacity: 0.5; stroke-width: 1.5"/>
     <use xlink:href="#m0dc196a67f" x="91.015209" y="81.466353" style="fill: #d65c00; fill-opacity: 0.5; stroke: #d65c00; stroke-opacity: 0.5; stroke-width: 1.5"/>
     <use xlink:href="#m0dc196a67f" x="51.422958" y="118.00015" style="fill: #d65c00; fill-opacity: 0.5; stroke: #d65c00; stroke-opacity: 0.5; stroke-width: 1.5"/>
     <use xlink:href="#m0dc196a67f" x="89.819584" y="82.569656" style="fill: #d65c00; fill-opacity: 0.5; stroke: #d65c00; stroke-opacity: 0.5; stroke-width: 1.5"/>
     <use xlink:href="#m0dc196a67f" x="55.822046" y="113.94259" style="fill: #d65c00; fill-opacity: 0.5; stroke: #d65c00; stroke-opacity: 0.5; stroke-width: 1.5"/>
     <use xlink:href="#m0dc196a67f" x="100.47781" y="72.733509" style="fill: #d65c00; fill-opacity: 0.5; stroke: #d65c00; stroke-opacity: 0.5; stroke-width: 1.5"/>
     <use xlink:href="#m0dc196a67f" x="70.225215" y="100.651364" style="fill: #d65c00; fill-opacity: 0.5; stroke: #d65c00; stroke-opacity: 0.5; stroke-width: 1.5"/>
     <use xlink:href="#m0dc196a67f" x="62.125546" y="108.128732" style="fill: #d65c00; fill-opacity: 0.5; stroke: #d65c00; stroke-opacity: 0.5; stroke-width: 1.5"/>
     <use xlink:href="#m0dc196a67f" x="74.812977" y="96.417771" style="fill: #d65c00; fill-opacity: 0.5; stroke: #d65c00; stroke-opacity: 0.5; stroke-width: 1.5"/>
     <use xlink:href="#m0dc196a67f" x="91.845115" y="80.703429" style="fill: #d65c00; fill-opacity: 0.5; stroke: #d65c00; stroke-opacity: 0.5; stroke-width: 1.5"/>
     <use xlink:href="#m0dc196a67f" x="79.262013" y="92.312191" style="fill: #d65c00; fill-opacity: 0.5; stroke: #d65c00; stroke-opacity: 0.5; stroke-width: 1.5"/>
     <use xlink:href="#m0dc196a67f" x="56.865132" y="112.980024" style="fill: #d65c00; fill-opacity: 0.5; stroke: #d65c00; stroke-opacity: 0.5; stroke-width: 1.5"/>
     <use xlink:href="#m0dc196a67f" x="48.760673" y="120.458921" style="fill: #d65c00; fill-opacity: 0.5; stroke: #d65c00; stroke-opacity: 0.5; stroke-width: 1.5"/>
     <use xlink:href="#m0dc196a67f" x="50.252024" y="119.082621" style="fill: #d65c00; fill-opacity: 0.5; stroke: #d65c00; stroke-opacity: 0.5; stroke-width: 1.5"/>
     <use xlink:href="#m0dc196a67f" x="95.266534" y="77.543214" style="fill: #d65c00; fill-opacity: 0.5; stroke: #d65c00; stroke-opacity: 0.5; stroke-width: 1.5"/>
     <use xlink:href="#m0dc196a67f" x="43.817505" y="125.020368" style="fill: #d65c00; fill-opacity: 0.5; stroke: #d65c00; stroke-opacity: 0.5; stroke-width: 1.5"/>
     <use xlink:href="#m0dc196a67f" x="46.973139" y="122.108355" style="fill: #d65c00; fill-opacity: 0.5; stroke: #d65c00; stroke-opacity: 0.5; stroke-width: 1.5"/>
     <use xlink:href="#m0dc196a67f" x="85.09694" y="86.927699" style="fill: #d65c00; fill-opacity: 0.5; stroke: #d65c00; stroke-opacity: 0.5; stroke-width: 1.5"/>
     <use xlink:href="#m0dc196a67f" x="45.219757" y="123.72639" style="fill: #d65c00; fill-opacity: 0.5; stroke: #d65c00; stroke-opacity: 0.5; stroke-width: 1.5"/>
     <use xlink:href="#m0dc196a67f" x="46.973139" y="122.108345" style="fill: #d65c00; fill-opacity: 0.5; stroke: #d65c00; stroke-opacity: 0.5; stroke-width: 1.5"/>
     <use xlink:href="#m0dc196a67f" x="55.996119" y="113.781955" style="fill: #d65c00; fill-opacity: 0.5; stroke: #d65c00; stroke-opacity: 0.5; stroke-width: 1.5"/>
     <use xlink:href="#m0dc196a67f" x="75.208036" y="96.053172" style="fill: #d65c00; fill-opacity: 0.5; stroke: #d65c00; stroke-opacity: 0.5; stroke-width: 1.5"/>
     <use xlink:href="#m0dc196a67f" x="58.510055" y="111.462022" style="fill: #d65c00; fill-opacity: 0.5; stroke: #d65c00; stroke-opacity: 0.5; stroke-width: 1.5"/>
     <use xlink:href="#m0dc196a67f" x="53.887638" y="115.727656" style="fill: #d65c00; fill-opacity: 0.5; stroke: #d65c00; stroke-opacity: 0.5; stroke-width: 1.5"/>
     <use xlink:href="#m0dc196a67f" x="50.856694" y="118.524596" style="fill: #d65c00; fill-opacity: 0.5; stroke: #d65c00; stroke-opacity: 0.5; stroke-width: 1.5"/>
     <use xlink:href="#m0dc196a67f" x="77.930253" y="93.564188" style="fill: #d65c00; fill-opacity: 0.5; stroke: #d65c00; stroke-opacity: 0.5; stroke-width: 1.5"/>
     <use xlink:href="#m0dc196a67f" x="80.901808" y="90.798976" style="fill: #d65c00; fill-opacity: 0.5; stroke: #d65c00; stroke-opacity: 0.5; stroke-width: 1.5"/>
     <use xlink:href="#m0dc196a67f" x="57.048831" y="112.810539" style="fill: #d65c00; fill-opacity: 0.5; stroke: #d65c00; stroke-opacity: 0.5; stroke-width: 1.5"/>
    </g>
   </g>
   <g id="patch_3">
    <path d="M 17.1 149.675294 
L 17.1 51.84 
" style="fill: none; stroke: #262626; stroke-width: 1.875; stroke-linejoin: miter; stroke-linecap: square"/>
   </g>
   <g id="patch_4">
    <path d="M 17.1 149.675294 
L 123.12 149.675294 
" style="fill: none; stroke: #262626; stroke-width: 1.875; stroke-linejoin: miter; stroke-linecap: square"/>
   </g>
  </g>
  <g id="axes_2">
   <g id="patch_5">
    <path d="M 17.1 267.077647 
L 123.12 267.077647 
L 123.12 169.242353 
L 17.1 169.242353 
z
" style="fill: #ffffff"/>
   </g>
   <g id="matplotlib.axis_3">
    <g id="xtick_3">
     <g id="line2d_6">
      <g>
       <use xlink:href="#m1de66f9557" x="40.277532" y="267.077647" style="fill: #1a1a1a; stroke: #1a1a1a; stroke-width: 1.875"/>
      </g>
     </g>
    </g>
    <g id="xtick_4">
     <g id="line2d_7">
      <g>
       <use xlink:href="#m1de66f9557" x="86.173636" y="267.077647" style="fill: #1a1a1a; stroke: #1a1a1a; stroke-width: 1.875"/>
      </g>
     </g>
    </g>
   </g>
   <g id="matplotlib.axis_4">
    <g id="ytick_3">
     <g id="line2d_8">
      <g>
       <use xlink:href="#m3ec6427386" x="17.1" y="260.242075" style="fill: #1a1a1a; stroke: #1a1a1a; stroke-width: 1.875"/>
      </g>
     </g>
     <g id="text_3">
      <!-- 0.0 -->
      <g style="fill: #1a1a1a" transform="translate(-21.640156 266.510786) scale(0.165 -0.165)">
       <use xlink:href="#DejaVuSans-30"/>
       <use xlink:href="#DejaVuSans-2e" x="63.623047"/>
       <use xlink:href="#DejaVuSans-30" x="95.410156"/>
      </g>
     </g>
    </g>
    <g id="ytick_4">
     <g id="line2d_9">
      <g>
       <use xlink:href="#m3ec6427386" x="17.1" y="200.529254" style="fill: #1a1a1a; stroke: #1a1a1a; stroke-width: 1.875"/>
      </g>
     </g>
     <g id="text_4">
      <!-- 2.5 -->
      <g style="fill: #1a1a1a" transform="translate(-21.640156 206.797965) scale(0.165 -0.165)">
       <use xlink:href="#DejaVuSans-32"/>
       <use xlink:href="#DejaVuSans-2e" x="63.623047"/>
       <use xlink:href="#DejaVuSans-35" x="95.410156"/>
      </g>
     </g>
    </g>
    <g id="text_5">
     <!-- Numerical Forgetting -->
     <g style="fill: #262626" transform="translate(-50.383594 313.050938) rotate(-90) scale(0.18 -0.18)">
      <defs>
       <path id="DejaVuSans-4e" d="M 628 4666 
L 1478 4666 
L 3547 763 
L 3547 4666 
L 4159 4666 
L 4159 0 
L 3309 0 
L 1241 3903 
L 1241 0 
L 628 0 
L 628 4666 
z
" transform="scale(0.015625)"/>
       <path id="DejaVuSans-75" d="M 544 1381 
L 544 3500 
L 1119 3500 
L 1119 1403 
Q 1119 906 1312 657 
Q 1506 409 1894 409 
Q 2359 409 2629 706 
Q 2900 1003 2900 1516 
L 2900 3500 
L 3475 3500 
L 3475 0 
L 2900 0 
L 2900 538 
Q 2691 219 2414 64 
Q 2138 -91 1772 -91 
Q 1169 -91 856 284 
Q 544 659 544 1381 
z
M 1991 3584 
L 1991 3584 
z
" transform="scale(0.015625)"/>
       <path id="DejaVuSans-6d" d="M 3328 2828 
Q 3544 3216 3844 3400 
Q 4144 3584 4550 3584 
Q 5097 3584 5394 3201 
Q 5691 2819 5691 2113 
L 5691 0 
L 5113 0 
L 5113 2094 
Q 5113 2597 4934 2840 
Q 4756 3084 4391 3084 
Q 3944 3084 3684 2787 
Q 3425 2491 3425 1978 
L 3425 0 
L 2847 0 
L 2847 2094 
Q 2847 2600 2669 2842 
Q 2491 3084 2119 3084 
Q 1678 3084 1418 2786 
Q 1159 2488 1159 1978 
L 1159 0 
L 581 0 
L 581 3500 
L 1159 3500 
L 1159 2956 
Q 1356 3278 1631 3431 
Q 1906 3584 2284 3584 
Q 2666 3584 2933 3390 
Q 3200 3197 3328 2828 
z
" transform="scale(0.015625)"/>
       <path id="DejaVuSans-65" d="M 3597 1894 
L 3597 1613 
L 953 1613 
Q 991 1019 1311 708 
Q 1631 397 2203 397 
Q 2534 397 2845 478 
Q 3156 559 3463 722 
L 3463 178 
Q 3153 47 2828 -22 
Q 2503 -91 2169 -91 
Q 1331 -91 842 396 
Q 353 884 353 1716 
Q 353 2575 817 3079 
Q 1281 3584 2069 3584 
Q 2775 3584 3186 3129 
Q 3597 2675 3597 1894 
z
M 3022 2063 
Q 3016 2534 2758 2815 
Q 2500 3097 2075 3097 
Q 1594 3097 1305 2825 
Q 1016 2553 972 2059 
L 3022 2063 
z
" transform="scale(0.015625)"/>
       <path id="DejaVuSans-72" d="M 2631 2963 
Q 2534 3019 2420 3045 
Q 2306 3072 2169 3072 
Q 1681 3072 1420 2755 
Q 1159 2438 1159 1844 
L 1159 0 
L 581 0 
L 581 3500 
L 1159 3500 
L 1159 2956 
Q 1341 3275 1631 3429 
Q 1922 3584 2338 3584 
Q 2397 3584 2469 3576 
Q 2541 3569 2628 3553 
L 2631 2963 
z
" transform="scale(0.015625)"/>
       <path id="DejaVuSans-69" d="M 603 3500 
L 1178 3500 
L 1178 0 
L 603 0 
L 603 3500 
z
M 603 4863 
L 1178 4863 
L 1178 4134 
L 603 4134 
L 603 4863 
z
" transform="scale(0.015625)"/>
       <path id="DejaVuSans-63" d="M 3122 3366 
L 3122 2828 
Q 2878 2963 2633 3030 
Q 2388 3097 2138 3097 
Q 1578 3097 1268 2742 
Q 959 2388 959 1747 
Q 959 1106 1268 751 
Q 1578 397 2138 397 
Q 2388 397 2633 464 
Q 2878 531 3122 666 
L 3122 134 
Q 2881 22 2623 -34 
Q 2366 -91 2075 -91 
Q 1284 -91 818 406 
Q 353 903 353 1747 
Q 353 2603 823 3093 
Q 1294 3584 2113 3584 
Q 2378 3584 2631 3529 
Q 2884 3475 3122 3366 
z
" transform="scale(0.015625)"/>
       <path id="DejaVuSans-61" d="M 2194 1759 
Q 1497 1759 1228 1600 
Q 959 1441 959 1056 
Q 959 750 1161 570 
Q 1363 391 1709 391 
Q 2188 391 2477 730 
Q 2766 1069 2766 1631 
L 2766 1759 
L 2194 1759 
z
M 3341 1997 
L 3341 0 
L 2766 0 
L 2766 531 
Q 2569 213 2275 61 
Q 1981 -91 1556 -91 
Q 1019 -91 701 211 
Q 384 513 384 1019 
Q 384 1609 779 1909 
Q 1175 2209 1959 2209 
L 2766 2209 
L 2766 2266 
Q 2766 2663 2505 2880 
Q 2244 3097 1772 3097 
Q 1472 3097 1187 3025 
Q 903 2953 641 2809 
L 641 3341 
Q 956 3463 1253 3523 
Q 1550 3584 1831 3584 
Q 2591 3584 2966 3190 
Q 3341 2797 3341 1997 
z
" transform="scale(0.015625)"/>
       <path id="DejaVuSans-6c" d="M 603 4863 
L 1178 4863 
L 1178 0 
L 603 0 
L 603 4863 
z
" transform="scale(0.015625)"/>
       <path id="DejaVuSans-20" transform="scale(0.015625)"/>
       <path id="DejaVuSans-46" d="M 628 4666 
L 3309 4666 
L 3309 4134 
L 1259 4134 
L 1259 2759 
L 3109 2759 
L 3109 2228 
L 1259 2228 
L 1259 0 
L 628 0 
L 628 4666 
z
" transform="scale(0.015625)"/>
       <path id="DejaVuSans-6f" d="M 1959 3097 
Q 1497 3097 1228 2736 
Q 959 2375 959 1747 
Q 959 1119 1226 758 
Q 1494 397 1959 397 
Q 2419 397 2687 759 
Q 2956 1122 2956 1747 
Q 2956 2369 2687 2733 
Q 2419 3097 1959 3097 
z
M 1959 3584 
Q 2709 3584 3137 3096 
Q 3566 2609 3566 1747 
Q 3566 888 3137 398 
Q 2709 -91 1959 -91 
Q 1206 -91 779 398 
Q 353 888 353 1747 
Q 353 2609 779 3096 
Q 1206 3584 1959 3584 
z
" transform="scale(0.015625)"/>
       <path id="DejaVuSans-67" d="M 2906 1791 
Q 2906 2416 2648 2759 
Q 2391 3103 1925 3103 
Q 1463 3103 1205 2759 
Q 947 2416 947 1791 
Q 947 1169 1205 825 
Q 1463 481 1925 481 
Q 2391 481 2648 825 
Q 2906 1169 2906 1791 
z
M 3481 434 
Q 3481 -459 3084 -895 
Q 2688 -1331 1869 -1331 
Q 1566 -1331 1297 -1286 
Q 1028 -1241 775 -1147 
L 775 -588 
Q 1028 -725 1275 -790 
Q 1522 -856 1778 -856 
Q 2344 -856 2625 -561 
Q 2906 -266 2906 331 
L 2906 616 
Q 2728 306 2450 153 
Q 2172 0 1784 0 
Q 1141 0 747 490 
Q 353 981 353 1791 
Q 353 2603 747 3093 
Q 1141 3584 1784 3584 
Q 2172 3584 2450 3431 
Q 2728 3278 2906 2969 
L 2906 3500 
L 3481 3500 
L 3481 434 
z
" transform="scale(0.015625)"/>
       <path id="DejaVuSans-74" d="M 1172 4494 
L 1172 3500 
L 2356 3500 
L 2356 3053 
L 1172 3053 
L 1172 1153 
Q 1172 725 1289 603 
Q 1406 481 1766 481 
L 2356 481 
L 2356 0 
L 1766 0 
Q 1100 0 847 248 
Q 594 497 594 1153 
L 594 3053 
L 172 3053 
L 172 3500 
L 594 3500 
L 594 4494 
L 1172 4494 
z
" transform="scale(0.015625)"/>
       <path id="DejaVuSans-6e" d="M 3513 2113 
L 3513 0 
L 2938 0 
L 2938 2094 
Q 2938 2591 2744 2837 
Q 2550 3084 2163 3084 
Q 1697 3084 1428 2787 
Q 1159 2491 1159 1978 
L 1159 0 
L 581 0 
L 581 3500 
L 1159 3500 
L 1159 2956 
Q 1366 3272 1645 3428 
Q 1925 3584 2291 3584 
Q 2894 3584 3203 3211 
Q 3513 2838 3513 2113 
z
" transform="scale(0.015625)"/>
      </defs>
      <use xlink:href="#DejaVuSans-4e"/>
      <use xlink:href="#DejaVuSans-75" x="74.804688"/>
      <use xlink:href="#DejaVuSans-6d" x="138.183594"/>
      <use xlink:href="#DejaVuSans-65" x="235.595703"/>
      <use xlink:href="#DejaVuSans-72" x="297.119141"/>
      <use xlink:href="#DejaVuSans-69" x="338.232422"/>
      <use xlink:href="#DejaVuSans-63" x="366.015625"/>
      <use xlink:href="#DejaVuSans-61" x="420.996094"/>
      <use xlink:href="#DejaVuSans-6c" x="482.275391"/>
      <use xlink:href="#DejaVuSans-20" x="510.058594"/>
      <use xlink:href="#DejaVuSans-46" x="541.845703"/>
      <use xlink:href="#DejaVuSans-6f" x="595.740234"/>
      <use xlink:href="#DejaVuSans-72" x="656.921875"/>
      <use xlink:href="#DejaVuSans-67" x="696.285156"/>
      <use xlink:href="#DejaVuSans-65" x="759.761719"/>
      <use xlink:href="#DejaVuSans-74" x="821.285156"/>
      <use xlink:href="#DejaVuSans-74" x="860.494141"/>
      <use xlink:href="#DejaVuSans-69" x="899.703125"/>
      <use xlink:href="#DejaVuSans-6e" x="927.486328"/>
      <use xlink:href="#DejaVuSans-67" x="990.865234"/>
     </g>
    </g>
   </g>
   <g id="line2d_10">
    <path d="M 21.919091 262.630588 
L 23.886067 262.374676 
L 25.853043 262.118764 
L 27.820019 261.862852 
L 29.786994 261.60694 
L 31.75397 261.351028 
L 33.720946 261.095116 
L 35.687922 260.839204 
L 37.654898 260.583291 
L 39.621874 260.327379 
L 41.58885 260.071467 
L 43.555826 259.815555 
L 45.522801 259.559643 
L 47.489777 259.303731 
L 49.456753 259.047819 
L 51.423729 258.791907 
L 53.390705 258.535995 
L 55.357681 258.280083 
L 57.324657 258.024171 
L 59.291633 257.768258 
L 61.258609 257.512346 
L 63.225584 257.256434 
L 65.19256 257.000522 
L 67.159536 256.74461 
L 69.126512 256.488698 
L 71.093488 256.232786 
L 73.060464 255.976874 
L 75.02744 255.720962 
L 76.994416 255.46505 
L 78.961391 255.209138 
L 80.928367 254.953225 
L 82.895343 254.697313 
L 84.862319 254.441401 
L 86.829295 254.185489 
L 88.796271 253.929577 
L 90.763247 253.673665 
L 92.730223 253.417753 
L 94.697199 253.161841 
L 96.664174 252.905929 
L 98.63115 252.650017 
L 100.598126 252.394105 
L 102.565102 252.138192 
L 104.532078 251.88228 
L 106.499054 251.626368 
L 108.46603 251.370456 
L 110.433006 251.114544 
L 112.399981 250.858632 
L 114.366957 250.60272 
L 116.333933 250.346808 
L 118.300909 250.090896 
" clip-path="url(#pd57950b5ad)" style="fill: none; stroke: #000000; stroke-opacity: 0.7; stroke-width: 2.25; stroke-linecap: round"/>
   </g>
   <g id="PathCollection_2">
    <defs>
     <path id="mbe48fb910d" d="M 0 4.5 
C 1.193414 4.5 2.338109 4.025852 3.181981 3.181981 
C 4.025852 2.338109 4.5 1.193414 4.5 0 
C 4.5 -1.193414 4.025852 -2.338109 3.181981 -3.181981 
C 2.338109 -4.025852 1.193414 -4.5 0 -4.5 
C -1.193414 -4.5 -2.338109 -4.025852 -3.181981 -3.181981 
C -4.025852 -2.338109 -4.5 -1.193414 -4.5 0 
C -4.5 1.193414 -4.025852 2.338109 -3.181981 3.181981 
C -2.338109 4.025852 -1.193414 4.5 0 4.5 
z
" style="stroke: #0071b2; stroke-opacity: 0.5; stroke-width: 1.5"/>
    </defs>
    <g clip-path="url(#pd57950b5ad)">
     <use xlink:href="#mbe48fb910d" x="52.164883" y="243.573303" style="fill: #0071b2; fill-opacity: 0.5; stroke: #0071b2; stroke-opacity: 0.5; stroke-width: 1.5"/>
     <use xlink:href="#mbe48fb910d" x="64.107839" y="212.212831" style="fill: #0071b2; fill-opacity: 0.5; stroke: #0071b2; stroke-opacity: 0.5; stroke-width: 1.5"/>
     <use xlink:href="#mbe48fb910d" x="62.165918" y="197.816034" style="fill: #0071b2; fill-opacity: 0.5; stroke: #0071b2; stroke-opacity: 0.5; stroke-width: 1.5"/>
     <use xlink:href="#mbe48fb910d" x="45.104513" y="249.00443" style="fill: #0071b2; fill-opacity: 0.5; stroke: #0071b2; stroke-opacity: 0.5; stroke-width: 1.5"/>
     <use xlink:href="#mbe48fb910d" x="96.542958" y="192.554027" style="fill: #0071b2; fill-opacity: 0.5; stroke: #0071b2; stroke-opacity: 0.5; stroke-width: 1.5"/>
     <use xlink:href="#mbe48fb910d" x="60.812949" y="232.965117" style="fill: #0071b2; fill-opacity: 0.5; stroke: #0071b2; stroke-opacity: 0.5; stroke-width: 1.5"/>
     <use xlink:href="#mbe48fb910d" x="66.685294" y="241.25191" style="fill: #0071b2; fill-opacity: 0.5; stroke: #0071b2; stroke-opacity: 0.5; stroke-width: 1.5"/>
     <use xlink:href="#mbe48fb910d" x="104.390902" y="234.207894" style="fill: #0071b2; fill-opacity: 0.5; stroke: #0071b2; stroke-opacity: 0.5; stroke-width: 1.5"/>
     <use xlink:href="#mbe48fb910d" x="78.636423" y="185.05083" style="fill: #0071b2; fill-opacity: 0.5; stroke: #0071b2; stroke-opacity: 0.5; stroke-width: 1.5"/>
     <use xlink:href="#mbe48fb910d" x="71.806697" y="227.485771" style="fill: #0071b2; fill-opacity: 0.5; stroke: #0071b2; stroke-opacity: 0.5; stroke-width: 1.5"/>
     <use xlink:href="#mbe48fb910d" x="63.612798" y="220.310048" style="fill: #0071b2; fill-opacity: 0.5; stroke: #0071b2; stroke-opacity: 0.5; stroke-width: 1.5"/>
     <use xlink:href="#mbe48fb910d" x="72.941616" y="219.859592" style="fill: #0071b2; fill-opacity: 0.5; stroke: #0071b2; stroke-opacity: 0.5; stroke-width: 1.5"/>
     <use xlink:href="#mbe48fb910d" x="51.425507" y="247.743731" style="fill: #0071b2; fill-opacity: 0.5; stroke: #0071b2; stroke-opacity: 0.5; stroke-width: 1.5"/>
     <use xlink:href="#mbe48fb910d" x="78.500819" y="212.469369" style="fill: #0071b2; fill-opacity: 0.5; stroke: #0071b2; stroke-opacity: 0.5; stroke-width: 1.5"/>
     <use xlink:href="#mbe48fb910d" x="76.245701" y="225.414883" style="fill: #0071b2; fill-opacity: 0.5; stroke: #0071b2; stroke-opacity: 0.5; stroke-width: 1.5"/>
     <use xlink:href="#mbe48fb910d" x="93.226997" y="232.854823" style="fill: #0071b2; fill-opacity: 0.5; stroke: #0071b2; stroke-opacity: 0.5; stroke-width: 1.5"/>
     <use xlink:href="#mbe48fb910d" x="80.336822" y="201.304285" style="fill: #0071b2; fill-opacity: 0.5; stroke: #0071b2; stroke-opacity: 0.5; stroke-width: 1.5"/>
     <use xlink:href="#mbe48fb910d" x="83.697768" y="198.083785" style="fill: #0071b2; fill-opacity: 0.5; stroke: #0071b2; stroke-opacity: 0.5; stroke-width: 1.5"/>
     <use xlink:href="#mbe48fb910d" x="70.007369" y="173.881994" style="fill: #0071b2; fill-opacity: 0.5; stroke: #0071b2; stroke-opacity: 0.5; stroke-width: 1.5"/>
     <use xlink:href="#mbe48fb910d" x="66.354287" y="221.6895" style="fill: #0071b2; fill-opacity: 0.5; stroke: #0071b2; stroke-opacity: 0.5; stroke-width: 1.5"/>
     <use xlink:href="#mbe48fb910d" x="83.607919" y="194.07441" style="fill: #0071b2; fill-opacity: 0.5; stroke: #0071b2; stroke-opacity: 0.5; stroke-width: 1.5"/>
     <use xlink:href="#mbe48fb910d" x="83.784099" y="181.808776" style="fill: #0071b2; fill-opacity: 0.5; stroke: #0071b2; stroke-opacity: 0.5; stroke-width: 1.5"/>
     <use xlink:href="#mbe48fb910d" x="90.747485" y="173.689412" style="fill: #0071b2; fill-opacity: 0.5; stroke: #0071b2; stroke-opacity: 0.5; stroke-width: 1.5"/>
     <use xlink:href="#mbe48fb910d" x="91.015209" y="176.35917" style="fill: #0071b2; fill-opacity: 0.5; stroke: #0071b2; stroke-opacity: 0.5; stroke-width: 1.5"/>
     <use xlink:href="#mbe48fb910d" x="51.422958" y="242.824964" style="fill: #0071b2; fill-opacity: 0.5; stroke: #0071b2; stroke-opacity: 0.5; stroke-width: 1.5"/>
     <use xlink:href="#mbe48fb910d" x="89.819584" y="199.858469" style="fill: #0071b2; fill-opacity: 0.5; stroke: #0071b2; stroke-opacity: 0.5; stroke-width: 1.5"/>
     <use xlink:href="#mbe48fb910d" x="55.822046" y="248.454767" style="fill: #0071b2; fill-opacity: 0.5; stroke: #0071b2; stroke-opacity: 0.5; stroke-width: 1.5"/>
     <use xlink:href="#mbe48fb910d" x="100.47781" y="191.897883" style="fill: #0071b2; fill-opacity: 0.5; stroke: #0071b2; stroke-opacity: 0.5; stroke-width: 1.5"/>
     <use xlink:href="#mbe48fb910d" x="70.225215" y="242.778807" style="fill: #0071b2; fill-opacity: 0.5; stroke: #0071b2; stroke-opacity: 0.5; stroke-width: 1.5"/>
     <use xlink:href="#mbe48fb910d" x="62.125546" y="238.015543" style="fill: #0071b2; fill-opacity: 0.5; stroke: #0071b2; stroke-opacity: 0.5; stroke-width: 1.5"/>
     <use xlink:href="#mbe48fb910d" x="74.812977" y="231.532338" style="fill: #0071b2; fill-opacity: 0.5; stroke: #0071b2; stroke-opacity: 0.5; stroke-width: 1.5"/>
     <use xlink:href="#mbe48fb910d" x="91.845115" y="193.84102" style="fill: #0071b2; fill-opacity: 0.5; stroke: #0071b2; stroke-opacity: 0.5; stroke-width: 1.5"/>
     <use xlink:href="#mbe48fb910d" x="79.262013" y="233.76254" style="fill: #0071b2; fill-opacity: 0.5; stroke: #0071b2; stroke-opacity: 0.5; stroke-width: 1.5"/>
     <use xlink:href="#mbe48fb910d" x="56.865132" y="242.821147" style="fill: #0071b2; fill-opacity: 0.5; stroke: #0071b2; stroke-opacity: 0.5; stroke-width: 1.5"/>
     <use xlink:href="#mbe48fb910d" x="48.760673" y="254.31775" style="fill: #0071b2; fill-opacity: 0.5; stroke: #0071b2; stroke-opacity: 0.5; stroke-width: 1.5"/>
     <use xlink:href="#mbe48fb910d" x="50.252024" y="249.05517" style="fill: #0071b2; fill-opacity: 0.5; stroke: #0071b2; stroke-opacity: 0.5; stroke-width: 1.5"/>
     <use xlink:href="#mbe48fb910d" x="95.266534" y="193.54672" style="fill: #0071b2; fill-opacity: 0.5; stroke: #0071b2; stroke-opacity: 0.5; stroke-width: 1.5"/>
     <use xlink:href="#mbe48fb910d" x="43.817505" y="256.037376" style="fill: #0071b2; fill-opacity: 0.5; stroke: #0071b2; stroke-opacity: 0.5; stroke-width: 1.5"/>
     <use xlink:href="#mbe48fb910d" x="46.973139" y="232.139813" style="fill: #0071b2; fill-opacity: 0.5; stroke: #0071b2; stroke-opacity: 0.5; stroke-width: 1.5"/>
     <use xlink:href="#mbe48fb910d" x="85.09694" y="227.256871" style="fill: #0071b2; fill-opacity: 0.5; stroke: #0071b2; stroke-opacity: 0.5; stroke-width: 1.5"/>
     <use xlink:href="#mbe48fb910d" x="45.219757" y="258.527285" style="fill: #0071b2; fill-opacity: 0.5; stroke: #0071b2; stroke-opacity: 0.5; stroke-width: 1.5"/>
     <use xlink:href="#mbe48fb910d" x="46.973139" y="240.658085" style="fill: #0071b2; fill-opacity: 0.5; stroke: #0071b2; stroke-opacity: 0.5; stroke-width: 1.5"/>
     <use xlink:href="#mbe48fb910d" x="55.996119" y="248.218302" style="fill: #0071b2; fill-opacity: 0.5; stroke: #0071b2; stroke-opacity: 0.5; stroke-width: 1.5"/>
     <use xlink:href="#mbe48fb910d" x="75.208036" y="221.037111" style="fill: #0071b2; fill-opacity: 0.5; stroke: #0071b2; stroke-opacity: 0.5; stroke-width: 1.5"/>
     <use xlink:href="#mbe48fb910d" x="58.510055" y="229.432074" style="fill: #0071b2; fill-opacity: 0.5; stroke: #0071b2; stroke-opacity: 0.5; stroke-width: 1.5"/>
     <use xlink:href="#mbe48fb910d" x="53.887638" y="240.031684" style="fill: #0071b2; fill-opacity: 0.5; stroke: #0071b2; stroke-opacity: 0.5; stroke-width: 1.5"/>
     <use xlink:href="#mbe48fb910d" x="50.856694" y="249.813609" style="fill: #0071b2; fill-opacity: 0.5; stroke: #0071b2; stroke-opacity: 0.5; stroke-width: 1.5"/>
     <use xlink:href="#mbe48fb910d" x="77.930253" y="209.429162" style="fill: #0071b2; fill-opacity: 0.5; stroke: #0071b2; stroke-opacity: 0.5; stroke-width: 1.5"/>
     <use xlink:href="#mbe48fb910d" x="80.901808" y="234.643136" style="fill: #0071b2; fill-opacity: 0.5; stroke: #0071b2; stroke-opacity: 0.5; stroke-width: 1.5"/>
     <use xlink:href="#mbe48fb910d" x="57.048831" y="223.364575" style="fill: #0071b2; fill-opacity: 0.5; stroke: #0071b2; stroke-opacity: 0.5; stroke-width: 1.5"/>
    </g>
   </g>
   <g id="patch_6">
    <path d="M 17.1 267.077647 
L 17.1 169.242353 
" style="fill: none; stroke: #262626; stroke-width: 1.875; stroke-linejoin: miter; stroke-linecap: square"/>
   </g>
   <g id="patch_7">
    <path d="M 17.1 267.077647 
L 123.12 267.077647 
" style="fill: none; stroke: #262626; stroke-width: 1.875; stroke-linejoin: miter; stroke-linecap: square"/>
   </g>
  </g>
  <g id="axes_3">
   <g id="patch_8">
    <path d="M 17.1 384.48 
L 123.12 384.48 
L 123.12 286.644706 
L 17.1 286.644706 
z
" style="fill: #ffffff"/>
   </g>
   <g id="matplotlib.axis_5">
    <g id="xtick_5">
     <g id="line2d_11">
      <g>
       <use xlink:href="#m1de66f9557" x="40.277532" y="384.48" style="fill: #1a1a1a; stroke: #1a1a1a; stroke-width: 1.875"/>
      </g>
     </g>
     <g id="text_6">
      <!-- 0.00 -->
      <g style="fill: #1a1a1a" transform="translate(21.908392 409.517422) scale(0.165 -0.165)">
       <use xlink:href="#DejaVuSans-30"/>
       <use xlink:href="#DejaVuSans-2e" x="63.623047"/>
       <use xlink:href="#DejaVuSans-30" x="95.410156"/>
       <use xlink:href="#DejaVuSans-30" x="159.033203"/>
      </g>
     </g>
    </g>
    <g id="xtick_6">
     <g id="line2d_12">
      <g>
       <use xlink:href="#m1de66f9557" x="86.173636" y="384.48" style="fill: #1a1a1a; stroke: #1a1a1a; stroke-width: 1.875"/>
      </g>
     </g>
     <g id="text_7">
      <!-- 0.25 -->
      <g style="fill: #1a1a1a" transform="translate(67.804496 409.517422) scale(0.165 -0.165)">
       <use xlink:href="#DejaVuSans-30"/>
       <use xlink:href="#DejaVuSans-2e" x="63.623047"/>
       <use xlink:href="#DejaVuSans-32" x="95.410156"/>
       <use xlink:href="#DejaVuSans-35" x="159.033203"/>
      </g>
     </g>
    </g>
    <g id="text_8">
     <!-- Analytical -->
     <g style="fill: #262626" transform="translate(25.914375 430.626094) scale(0.18 -0.18)">
      <defs>
       <path id="DejaVuSans-41" d="M 2188 4044 
L 1331 1722 
L 3047 1722 
L 2188 4044 
z
M 1831 4666 
L 2547 4666 
L 4325 0 
L 3669 0 
L 3244 1197 
L 1141 1197 
L 716 0 
L 50 0 
L 1831 4666 
z
" transform="scale(0.015625)"/>
       <path id="DejaVuSans-79" d="M 2059 -325 
Q 1816 -950 1584 -1140 
Q 1353 -1331 966 -1331 
L 506 -1331 
L 506 -850 
L 844 -850 
Q 1081 -850 1212 -737 
Q 1344 -625 1503 -206 
L 1606 56 
L 191 3500 
L 800 3500 
L 1894 763 
L 2988 3500 
L 3597 3500 
L 2059 -325 
z
" transform="scale(0.015625)"/>
      </defs>
      <use xlink:href="#DejaVuSans-41"/>
      <use xlink:href="#DejaVuSans-6e" x="68.408203"/>
      <use xlink:href="#DejaVuSans-61" x="131.787109"/>
      <use xlink:href="#DejaVuSans-6c" x="193.066406"/>
      <use xlink:href="#DejaVuSans-79" x="220.849609"/>
      <use xlink:href="#DejaVuSans-74" x="280.029297"/>
      <use xlink:href="#DejaVuSans-69" x="319.238281"/>
      <use xlink:href="#DejaVuSans-63" x="347.021484"/>
      <use xlink:href="#DejaVuSans-61" x="402.001953"/>
      <use xlink:href="#DejaVuSans-6c" x="463.28125"/>
     </g>
    </g>
   </g>
   <g id="matplotlib.axis_6">
    <g id="ytick_5">
     <g id="line2d_13">
      <g>
       <use xlink:href="#m3ec6427386" x="17.1" y="377.870568" style="fill: #1a1a1a; stroke: #1a1a1a; stroke-width: 1.875"/>
      </g>
     </g>
     <g id="text_9">
      <!-- 0.0 -->
      <g style="fill: #1a1a1a" transform="translate(-21.640156 384.139279) scale(0.165 -0.165)">
       <use xlink:href="#DejaVuSans-30"/>
       <use xlink:href="#DejaVuSans-2e" x="63.623047"/>
       <use xlink:href="#DejaVuSans-30" x="95.410156"/>
      </g>
     </g>
    </g>
    <g id="ytick_6">
     <g id="line2d_14">
      <g>
       <use xlink:href="#m3ec6427386" x="17.1" y="323.811249" style="fill: #1a1a1a; stroke: #1a1a1a; stroke-width: 1.875"/>
      </g>
     </g>
     <g id="text_10">
      <!-- 2.5 -->
      <g style="fill: #1a1a1a" transform="translate(-21.640156 330.07996) scale(0.165 -0.165)">
       <use xlink:href="#DejaVuSans-32"/>
       <use xlink:href="#DejaVuSans-2e" x="63.623047"/>
       <use xlink:href="#DejaVuSans-35" x="95.410156"/>
      </g>
     </g>
    </g>
   </g>
   <g id="line2d_15">
    <path d="M 21.919091 380.032941 
L 23.886067 379.801258 
L 25.853043 379.569576 
L 27.820019 379.337893 
L 29.786994 379.10621 
L 31.75397 378.874527 
L 33.720946 378.642844 
L 35.687922 378.411162 
L 37.654898 378.179479 
L 39.621874 377.947796 
L 41.58885 377.716113 
L 43.555826 377.48443 
L 45.522801 377.252748 
L 47.489777 377.021065 
L 49.456753 376.789382 
L 51.423729 376.557699 
L 53.390705 376.326016 
L 55.357681 376.094334 
L 57.324657 375.862651 
L 59.291633 375.630968 
L 61.258609 375.399285 
L 63.225584 375.167602 
L 65.19256 374.93592 
L 67.159536 374.704237 
L 69.126512 374.472554 
L 71.093488 374.240871 
L 73.060464 374.009188 
L 75.02744 373.777506 
L 76.994416 373.545823 
L 78.961391 373.31414 
L 80.928367 373.082457 
L 82.895343 372.850774 
L 84.862319 372.619092 
L 86.829295 372.387409 
L 88.796271 372.155726 
L 90.763247 371.924043 
L 92.730223 371.69236 
L 94.697199 371.460678 
L 96.664174 371.228995 
L 98.63115 370.997312 
L 100.598126 370.765629 
L 102.565102 370.533946 
L 104.532078 370.302264 
L 106.499054 370.070581 
L 108.46603 369.838898 
L 110.433006 369.607215 
L 112.399981 369.375532 
L 114.366957 369.14385 
L 116.333933 368.912167 
L 118.300909 368.680484 
" clip-path="url(#paeeac070dc)" style="fill: none; stroke: #000000; stroke-opacity: 0.7; stroke-width: 2.25; stroke-linecap: round"/>
   </g>
   <g id="PathCollection_3">
    <defs>
     <path id="m9ffa02a7f8" d="M 0 4.5 
C 1.193414 4.5 2.338109 4.025852 3.181981 3.181981 
C 4.025852 2.338109 4.5 1.193414 4.5 0 
C 4.5 -1.193414 4.025852 -2.338109 3.181981 -3.181981 
C 2.338109 -4.025852 1.193414 -4.5 0 -4.5 
C -1.193414 -4.5 -2.338109 -4.025852 -3.181981 -3.181981 
C -4.025852 -2.338109 -4.5 -1.193414 -4.5 0 
C -4.5 1.193414 -4.025852 2.338109 -3.181981 3.181981 
C -2.338109 4.025852 -1.193414 4.5 0 4.5 
z
" style="stroke: #009e73; stroke-opacity: 0.5; stroke-width: 1.5"/>
    </defs>
    <g clip-path="url(#paeeac070dc)">
     <use xlink:href="#m9ffa02a7f8" x="52.164883" y="367.211282" style="fill: #009e73; fill-opacity: 0.5; stroke: #009e73; stroke-opacity: 0.5; stroke-width: 1.5"/>
     <use xlink:href="#m9ffa02a7f8" x="64.107839" y="346.572736" style="fill: #009e73; fill-opacity: 0.5; stroke: #009e73; stroke-opacity: 0.5; stroke-width: 1.5"/>
     <use xlink:href="#m9ffa02a7f8" x="62.165918" y="333.30627" style="fill: #009e73; fill-opacity: 0.5; stroke: #009e73; stroke-opacity: 0.5; stroke-width: 1.5"/>
     <use xlink:href="#m9ffa02a7f8" x="45.104513" y="368.982434" style="fill: #009e73; fill-opacity: 0.5; stroke: #009e73; stroke-opacity: 0.5; stroke-width: 1.5"/>
     <use xlink:href="#m9ffa02a7f8" x="96.542958" y="318.710574" style="fill: #009e73; fill-opacity: 0.5; stroke: #009e73; stroke-opacity: 0.5; stroke-width: 1.5"/>
     <use xlink:href="#m9ffa02a7f8" x="60.812949" y="357.998175" style="fill: #009e73; fill-opacity: 0.5; stroke: #009e73; stroke-opacity: 0.5; stroke-width: 1.5"/>
     <use xlink:href="#m9ffa02a7f8" x="66.685294" y="362.045417" style="fill: #009e73; fill-opacity: 0.5; stroke: #009e73; stroke-opacity: 0.5; stroke-width: 1.5"/>
     <use xlink:href="#m9ffa02a7f8" x="104.390902" y="357.940699" style="fill: #009e73; fill-opacity: 0.5; stroke: #009e73; stroke-opacity: 0.5; stroke-width: 1.5"/>
     <use xlink:href="#m9ffa02a7f8" x="78.636423" y="291.091765" style="fill: #009e73; fill-opacity: 0.5; stroke: #009e73; stroke-opacity: 0.5; stroke-width: 1.5"/>
     <use xlink:href="#m9ffa02a7f8" x="71.806697" y="345.924378" style="fill: #009e73; fill-opacity: 0.5; stroke: #009e73; stroke-opacity: 0.5; stroke-width: 1.5"/>
     <use xlink:href="#m9ffa02a7f8" x="63.612798" y="352.807257" style="fill: #009e73; fill-opacity: 0.5; stroke: #009e73; stroke-opacity: 0.5; stroke-width: 1.5"/>
     <use xlink:href="#m9ffa02a7f8" x="72.941616" y="351.753357" style="fill: #009e73; fill-opacity: 0.5; stroke: #009e73; stroke-opacity: 0.5; stroke-width: 1.5"/>
     <use xlink:href="#m9ffa02a7f8" x="51.425507" y="368.779808" style="fill: #009e73; fill-opacity: 0.5; stroke: #009e73; stroke-opacity: 0.5; stroke-width: 1.5"/>
     <use xlink:href="#m9ffa02a7f8" x="78.500819" y="340.892129" style="fill: #009e73; fill-opacity: 0.5; stroke: #009e73; stroke-opacity: 0.5; stroke-width: 1.5"/>
     <use xlink:href="#m9ffa02a7f8" x="76.245701" y="358.244176" style="fill: #009e73; fill-opacity: 0.5; stroke: #009e73; stroke-opacity: 0.5; stroke-width: 1.5"/>
     <use xlink:href="#m9ffa02a7f8" x="93.226997" y="359.731701" style="fill: #009e73; fill-opacity: 0.5; stroke: #009e73; stroke-opacity: 0.5; stroke-width: 1.5"/>
     <use xlink:href="#m9ffa02a7f8" x="80.336822" y="325.510403" style="fill: #009e73; fill-opacity: 0.5; stroke: #009e73; stroke-opacity: 0.5; stroke-width: 1.5"/>
     <use xlink:href="#m9ffa02a7f8" x="83.697768" y="342.236155" style="fill: #009e73; fill-opacity: 0.5; stroke: #009e73; stroke-opacity: 0.5; stroke-width: 1.5"/>
     <use xlink:href="#m9ffa02a7f8" x="70.007369" y="312.210614" style="fill: #009e73; fill-opacity: 0.5; stroke: #009e73; stroke-opacity: 0.5; stroke-width: 1.5"/>
     <use xlink:href="#m9ffa02a7f8" x="66.354287" y="352.293409" style="fill: #009e73; fill-opacity: 0.5; stroke: #009e73; stroke-opacity: 0.5; stroke-width: 1.5"/>
     <use xlink:href="#m9ffa02a7f8" x="83.607919" y="317.953056" style="fill: #009e73; fill-opacity: 0.5; stroke: #009e73; stroke-opacity: 0.5; stroke-width: 1.5"/>
     <use xlink:href="#m9ffa02a7f8" x="83.784099" y="332.102817" style="fill: #009e73; fill-opacity: 0.5; stroke: #009e73; stroke-opacity: 0.5; stroke-width: 1.5"/>
     <use xlink:href="#m9ffa02a7f8" x="90.747485" y="321.187162" style="fill: #009e73; fill-opacity: 0.5; stroke: #009e73; stroke-opacity: 0.5; stroke-width: 1.5"/>
     <use xlink:href="#m9ffa02a7f8" x="91.015209" y="318.108855" style="fill: #009e73; fill-opacity: 0.5; stroke: #009e73; stroke-opacity: 0.5; stroke-width: 1.5"/>
     <use xlink:href="#m9ffa02a7f8" x="51.422958" y="365.728931" style="fill: #009e73; fill-opacity: 0.5; stroke: #009e73; stroke-opacity: 0.5; stroke-width: 1.5"/>
     <use xlink:href="#m9ffa02a7f8" x="89.819584" y="310.188793" style="fill: #009e73; fill-opacity: 0.5; stroke: #009e73; stroke-opacity: 0.5; stroke-width: 1.5"/>
     <use xlink:href="#m9ffa02a7f8" x="55.822046" y="368.834846" style="fill: #009e73; fill-opacity: 0.5; stroke: #009e73; stroke-opacity: 0.5; stroke-width: 1.5"/>
     <use xlink:href="#m9ffa02a7f8" x="100.47781" y="306.522337" style="fill: #009e73; fill-opacity: 0.5; stroke: #009e73; stroke-opacity: 0.5; stroke-width: 1.5"/>
     <use xlink:href="#m9ffa02a7f8" x="70.225215" y="359.915045" style="fill: #009e73; fill-opacity: 0.5; stroke: #009e73; stroke-opacity: 0.5; stroke-width: 1.5"/>
     <use xlink:href="#m9ffa02a7f8" x="62.125546" y="366.93272" style="fill: #009e73; fill-opacity: 0.5; stroke: #009e73; stroke-opacity: 0.5; stroke-width: 1.5"/>
     <use xlink:href="#m9ffa02a7f8" x="74.812977" y="355.282399" style="fill: #009e73; fill-opacity: 0.5; stroke: #009e73; stroke-opacity: 0.5; stroke-width: 1.5"/>
     <use xlink:href="#m9ffa02a7f8" x="91.845115" y="313.724743" style="fill: #009e73; fill-opacity: 0.5; stroke: #009e73; stroke-opacity: 0.5; stroke-width: 1.5"/>
     <use xlink:href="#m9ffa02a7f8" x="79.262013" y="350.643845" style="fill: #009e73; fill-opacity: 0.5; stroke: #009e73; stroke-opacity: 0.5; stroke-width: 1.5"/>
     <use xlink:href="#m9ffa02a7f8" x="56.865132" y="365.215981" style="fill: #009e73; fill-opacity: 0.5; stroke: #009e73; stroke-opacity: 0.5; stroke-width: 1.5"/>
     <use xlink:href="#m9ffa02a7f8" x="48.760673" y="374.351152" style="fill: #009e73; fill-opacity: 0.5; stroke: #009e73; stroke-opacity: 0.5; stroke-width: 1.5"/>
     <use xlink:href="#m9ffa02a7f8" x="50.252024" y="371.574928" style="fill: #009e73; fill-opacity: 0.5; stroke: #009e73; stroke-opacity: 0.5; stroke-width: 1.5"/>
     <use xlink:href="#m9ffa02a7f8" x="95.266534" y="308.113669" style="fill: #009e73; fill-opacity: 0.5; stroke: #009e73; stroke-opacity: 0.5; stroke-width: 1.5"/>
     <use xlink:href="#m9ffa02a7f8" x="43.817505" y="375.355257" style="fill: #009e73; fill-opacity: 0.5; stroke: #009e73; stroke-opacity: 0.5; stroke-width: 1.5"/>
     <use xlink:href="#m9ffa02a7f8" x="46.973139" y="363.583038" style="fill: #009e73; fill-opacity: 0.5; stroke: #009e73; stroke-opacity: 0.5; stroke-width: 1.5"/>
     <use xlink:href="#m9ffa02a7f8" x="85.09694" y="344.601717" style="fill: #009e73; fill-opacity: 0.5; stroke: #009e73; stroke-opacity: 0.5; stroke-width: 1.5"/>
     <use xlink:href="#m9ffa02a7f8" x="45.219757" y="375.87368" style="fill: #009e73; fill-opacity: 0.5; stroke: #009e73; stroke-opacity: 0.5; stroke-width: 1.5"/>
     <use xlink:href="#m9ffa02a7f8" x="46.973139" y="363.957037" style="fill: #009e73; fill-opacity: 0.5; stroke: #009e73; stroke-opacity: 0.5; stroke-width: 1.5"/>
     <use xlink:href="#m9ffa02a7f8" x="55.996119" y="369.050533" style="fill: #009e73; fill-opacity: 0.5; stroke: #009e73; stroke-opacity: 0.5; stroke-width: 1.5"/>
     <use xlink:href="#m9ffa02a7f8" x="75.208036" y="348.73761" style="fill: #009e73; fill-opacity: 0.5; stroke: #009e73; stroke-opacity: 0.5; stroke-width: 1.5"/>
     <use xlink:href="#m9ffa02a7f8" x="58.510055" y="348.466693" style="fill: #009e73; fill-opacity: 0.5; stroke: #009e73; stroke-opacity: 0.5; stroke-width: 1.5"/>
     <use xlink:href="#m9ffa02a7f8" x="53.887638" y="364.597079" style="fill: #009e73; fill-opacity: 0.5; stroke: #009e73; stroke-opacity: 0.5; stroke-width: 1.5"/>
     <use xlink:href="#m9ffa02a7f8" x="50.856694" y="370.925625" style="fill: #009e73; fill-opacity: 0.5; stroke: #009e73; stroke-opacity: 0.5; stroke-width: 1.5"/>
     <use xlink:href="#m9ffa02a7f8" x="77.930253" y="323.843827" style="fill: #009e73; fill-opacity: 0.5; stroke: #009e73; stroke-opacity: 0.5; stroke-width: 1.5"/>
     <use xlink:href="#m9ffa02a7f8" x="80.901808" y="354.615082" style="fill: #009e73; fill-opacity: 0.5; stroke: #009e73; stroke-opacity: 0.5; stroke-width: 1.5"/>
     <use xlink:href="#m9ffa02a7f8" x="57.048831" y="352.344806" style="fill: #009e73; fill-opacity: 0.5; stroke: #009e73; stroke-opacity: 0.5; stroke-width: 1.5"/>
    </g>
   </g>
   <g id="patch_9">
    <path d="M 17.1 384.48 
L 17.1 286.644706 
" style="fill: none; stroke: #262626; stroke-width: 1.875; stroke-linejoin: miter; stroke-linecap: square"/>
   </g>
   <g id="patch_10">
    <path d="M 17.1 384.48 
L 123.12 384.48 
" style="fill: none; stroke: #262626; stroke-width: 1.875; stroke-linejoin: miter; stroke-linecap: square"/>
   </g>
  </g>
 </g>
 <defs>
  <clipPath id="p098f2f8f66">
   <rect x="17.1" y="51.84" width="106.02" height="97.835294"/>
  </clipPath>
  <clipPath id="pd57950b5ad">
   <rect x="17.1" y="169.242353" width="106.02" height="97.835294"/>
  </clipPath>
  <clipPath id="paeeac070dc">
   <rect x="17.1" y="286.644706" width="106.02" height="97.835294"/>
  </clipPath>
 </defs>
</svg>
