<?xml version="1.0" encoding="utf-8" standalone="no"?>
<!DOCTYPE svg PUBLIC "-//W3C//DTD SVG 1.1//EN"
  "http://www.w3.org/Graphics/SVG/1.1/DTD/svg11.dtd">
<svg xmlns:xlink="http://www.w3.org/1999/xlink" width="136.8pt" height="432pt" viewBox="0 0 136.8 432" xmlns="http://www.w3.org/2000/svg" version="1.1">
 <metadata>
  <rdf:RDF xmlns:dc="http://purl.org/dc/elements/1.1/" xmlns:cc="http://creativecommons.org/ns#" xmlns:rdf="http://www.w3.org/1999/02/22-rdf-syntax-ns#">
   <cc:Work>
    <dc:type rdf:resource="http://purl.org/dc/dcmitype/StillImage"/>
    <dc:date>2024-06-04T19:16:16.539801</dc:date>
    <dc:format>image/svg+xml</dc:format>
    <dc:creator>
     <cc:Agent>
      <dc:title>Matplotlib v3.8.0, https://matplotlib.org/</dc:title>
     </cc:Agent>
    </dc:creator>
   </cc:Work>
  </rdf:RDF>
 </metadata>
 <defs>
  <style type="text/css">*{stroke-linejoin: round; stroke-linecap: butt}</style>
 </defs>
 <g id="figure_1">
  <g id="patch_1">
   <path d="M 0 432 
L 136.8 432 
L 136.8 0 
L 0 0 
z
" style="fill: #ffffff"/>
  </g>
  <g id="axes_1">
   <g id="patch_2">
    <path d="M 17.1 149.675294 
L 123.12 149.675294 
L 123.12 51.84 
L 17.1 51.84 
z
" style="fill: #ffffff"/>
   </g>
   <g id="matplotlib.axis_1">
    <g id="xtick_1">
     <g id="line2d_1">
      <defs>
       <path id="m021b4980d0" d="M 0 0 
L 0 9 
" style="stroke: #1a1a1a; stroke-width: 1.875"/>
      </defs>
      <g>
       <use xlink:href="#m021b4980d0" x="40.277532" y="149.675294" style="fill: #1a1a1a; stroke: #1a1a1a; stroke-width: 1.875"/>
      </g>
     </g>
    </g>
    <g id="xtick_2">
     <g id="line2d_2">
      <g>
       <use xlink:href="#m021b4980d0" x="86.173636" y="149.675294" style="fill: #1a1a1a; stroke: #1a1a1a; stroke-width: 1.875"/>
      </g>
     </g>
    </g>
   </g>
   <g id="matplotlib.axis_2">
    <g id="ytick_1">
     <g id="line2d_3">
      <defs>
       <path id="m7770962b7f" d="M 0 0 
L -9 0 
" style="stroke: #1a1a1a; stroke-width: 1.875"/>
      </defs>
      <g>
       <use xlink:href="#m7770962b7f" x="17.1" y="128.287059" style="fill: #1a1a1a; stroke: #1a1a1a; stroke-width: 1.875"/>
      </g>
     </g>
     <g id="text_1">
      <!-- 0.00 -->
      <g style="fill: #1a1a1a" transform="translate(-27.510547 134.192254) scale(0.165 -0.165)">
       <defs>
        <path id="ArialMT-30" d="M 266 2259 
Q 266 3072 433 3567 
Q 600 4063 929 4331 
Q 1259 4600 1759 4600 
Q 2128 4600 2406 4451 
Q 2684 4303 2865 4023 
Q 3047 3744 3150 3342 
Q 3253 2941 3253 2259 
Q 3253 1453 3087 958 
Q 2922 463 2592 192 
Q 2263 -78 1759 -78 
Q 1097 -78 719 397 
Q 266 969 266 2259 
z
M 844 2259 
Q 844 1131 1108 757 
Q 1372 384 1759 384 
Q 2147 384 2411 759 
Q 2675 1134 2675 2259 
Q 2675 3391 2411 3762 
Q 2147 4134 1753 4134 
Q 1366 4134 1134 3806 
Q 844 3388 844 2259 
z
" transform="scale(0.015625)"/>
        <path id="ArialMT-2e" d="M 581 0 
L 581 641 
L 1222 641 
L 1222 0 
L 581 0 
z
" transform="scale(0.015625)"/>
       </defs>
       <use xlink:href="#ArialMT-30"/>
       <use xlink:href="#ArialMT-2e" x="55.615234"/>
       <use xlink:href="#ArialMT-30" x="83.398438"/>
       <use xlink:href="#ArialMT-30" x="139.013672"/>
      </g>
     </g>
    </g>
    <g id="ytick_2">
     <g id="line2d_4">
      <g>
       <use xlink:href="#m7770962b7f" x="17.1" y="85.934118" style="fill: #1a1a1a; stroke: #1a1a1a; stroke-width: 1.875"/>
      </g>
     </g>
     <g id="text_2">
      <!-- 0.25 -->
      <g style="fill: #1a1a1a" transform="translate(-27.510547 91.839313) scale(0.165 -0.165)">
       <defs>
        <path id="ArialMT-32" d="M 3222 541 
L 3222 0 
L 194 0 
Q 188 203 259 391 
Q 375 700 629 1000 
Q 884 1300 1366 1694 
Q 2113 2306 2375 2664 
Q 2638 3022 2638 3341 
Q 2638 3675 2398 3904 
Q 2159 4134 1775 4134 
Q 1369 4134 1125 3890 
Q 881 3647 878 3216 
L 300 3275 
Q 359 3922 746 4261 
Q 1134 4600 1788 4600 
Q 2447 4600 2831 4234 
Q 3216 3869 3216 3328 
Q 3216 3053 3103 2787 
Q 2991 2522 2730 2228 
Q 2469 1934 1863 1422 
Q 1356 997 1212 845 
Q 1069 694 975 541 
L 3222 541 
z
" transform="scale(0.015625)"/>
        <path id="ArialMT-35" d="M 266 1200 
L 856 1250 
Q 922 819 1161 601 
Q 1400 384 1738 384 
Q 2144 384 2425 690 
Q 2706 997 2706 1503 
Q 2706 1984 2436 2262 
Q 2166 2541 1728 2541 
Q 1456 2541 1237 2417 
Q 1019 2294 894 2097 
L 366 2166 
L 809 4519 
L 3088 4519 
L 3088 3981 
L 1259 3981 
L 1013 2750 
Q 1425 3038 1878 3038 
Q 2478 3038 2890 2622 
Q 3303 2206 3303 1553 
Q 3303 931 2941 478 
Q 2500 -78 1738 -78 
Q 1113 -78 717 272 
Q 322 622 266 1200 
z
" transform="scale(0.015625)"/>
       </defs>
       <use xlink:href="#ArialMT-30"/>
       <use xlink:href="#ArialMT-2e" x="55.615234"/>
       <use xlink:href="#ArialMT-32" x="83.398438"/>
       <use xlink:href="#ArialMT-35" x="139.013672"/>
      </g>
     </g>
    </g>
   </g>
   <g id="line2d_5">
    <path d="M 21.919091 145.228235 
L 23.886067 143.413109 
L 25.853043 141.597983 
L 27.820019 139.782857 
L 29.786994 137.967731 
L 31.75397 136.152605 
L 33.720946 134.337479 
L 35.687922 132.522353 
L 37.654898 130.707227 
L 39.621874 128.892101 
L 41.58885 127.076975 
L 43.555826 125.261849 
L 45.522801 123.446723 
L 47.489777 121.631597 
L 49.456753 119.816471 
L 51.423729 118.001345 
L 53.390705 116.186218 
L 55.357681 114.371092 
L 57.324657 112.555966 
L 59.291633 110.74084 
L 61.258609 108.925714 
L 63.225584 107.110588 
L 65.19256 105.295462 
L 67.159536 103.480336 
L 69.126512 101.66521 
L 71.093488 99.850084 
L 73.060464 98.034958 
L 75.02744 96.219832 
L 76.994416 94.404706 
L 78.961391 92.58958 
L 80.928367 90.774454 
L 82.895343 88.959328 
L 84.862319 87.144202 
L 86.829295 85.329076 
L 88.796271 83.51395 
L 90.763247 81.698824 
L 92.730223 79.883697 
L 94.697199 78.068571 
L 96.664174 76.253445 
L 98.63115 74.438319 
L 100.598126 72.623193 
L 102.565102 70.808067 
L 104.532078 68.992941 
L 106.499054 67.177815 
L 108.46603 65.362689 
L 110.433006 63.547563 
L 112.399981 61.732437 
L 114.366957 59.917311 
L 116.333933 58.102185 
L 118.300909 56.287059 
" clip-path="url(#p955222cd8c)" style="fill: none; stroke: #000000; stroke-opacity: 0.7; stroke-width: 2.25; stroke-linecap: round"/>
   </g>
   <g id="PathCollection_1">
    <defs>
     <path id="m9e35b6eb77" d="M 0 4.5 
C 1.193414 4.5 2.338109 4.025852 3.181981 3.181981 
C 4.025852 2.338109 4.5 1.193414 4.5 0 
C 4.5 -1.193414 4.025852 -2.338109 3.181981 -3.181981 
C 2.338109 -4.025852 1.193414 -4.5 0 -4.5 
C -1.193414 -4.5 -2.338109 -4.025852 -3.181981 -3.181981 
C -4.025852 -2.338109 -4.5 -1.193414 -4.5 0 
C -4.5 1.193414 -4.025852 2.338109 -3.181981 3.181981 
C -2.338109 4.025852 -1.193414 4.5 0 4.5 
z
" style="stroke: #d65c00; stroke-opacity: 0.5; stroke-width: 1.5"/>
    </defs>
    <g clip-path="url(#p955222cd8c)">
     <use xlink:href="#m9e35b6eb77" x="55.15084" y="114.672797" style="fill: #d65c00; fill-opacity: 0.5; stroke: #d65c00; stroke-opacity: 0.5; stroke-width: 1.5"/>
     <use xlink:href="#m9e35b6eb77" x="57.656027" y="112.156549" style="fill: #d65c00; fill-opacity: 0.5; stroke: #d65c00; stroke-opacity: 0.5; stroke-width: 1.5"/>
     <use xlink:href="#m9e35b6eb77" x="58.461587" y="111.166321" style="fill: #d65c00; fill-opacity: 0.5; stroke: #d65c00; stroke-opacity: 0.5; stroke-width: 1.5"/>
     <use xlink:href="#m9e35b6eb77" x="45.137113" y="123.802628" style="fill: #d65c00; fill-opacity: 0.5; stroke: #d65c00; stroke-opacity: 0.5; stroke-width: 1.5"/>
     <use xlink:href="#m9e35b6eb77" x="94.344756" y="78.333199" style="fill: #d65c00; fill-opacity: 0.5; stroke: #d65c00; stroke-opacity: 0.5; stroke-width: 1.5"/>
     <use xlink:href="#m9e35b6eb77" x="60.037122" y="110.0529" style="fill: #d65c00; fill-opacity: 0.5; stroke: #d65c00; stroke-opacity: 0.5; stroke-width: 1.5"/>
     <use xlink:href="#m9e35b6eb77" x="70.373018" y="100.514944" style="fill: #d65c00; fill-opacity: 0.5; stroke: #d65c00; stroke-opacity: 0.5; stroke-width: 1.5"/>
     <use xlink:href="#m9e35b6eb77" x="101.87348" y="71.089301" style="fill: #d65c00; fill-opacity: 0.5; stroke: #d65c00; stroke-opacity: 0.5; stroke-width: 1.5"/>
     <use xlink:href="#m9e35b6eb77" x="79.410538" y="92.175104" style="fill: #d65c00; fill-opacity: 0.5; stroke: #d65c00; stroke-opacity: 0.5; stroke-width: 1.5"/>
     <use xlink:href="#m9e35b6eb77" x="66.810826" y="102.850458" style="fill: #d65c00; fill-opacity: 0.5; stroke: #d65c00; stroke-opacity: 0.5; stroke-width: 1.5"/>
     <use xlink:href="#m9e35b6eb77" x="63.173271" y="107.392986" style="fill: #d65c00; fill-opacity: 0.5; stroke: #d65c00; stroke-opacity: 0.5; stroke-width: 1.5"/>
     <use xlink:href="#m9e35b6eb77" x="67.512918" y="103.155758" style="fill: #d65c00; fill-opacity: 0.5; stroke: #d65c00; stroke-opacity: 0.5; stroke-width: 1.5"/>
     <use xlink:href="#m9e35b6eb77" x="51.129556" y="118.453346" style="fill: #d65c00; fill-opacity: 0.5; stroke: #d65c00; stroke-opacity: 0.5; stroke-width: 1.5"/>
     <use xlink:href="#m9e35b6eb77" x="75.404101" y="96.029715" style="fill: #d65c00; fill-opacity: 0.5; stroke: #d65c00; stroke-opacity: 0.5; stroke-width: 1.5"/>
     <use xlink:href="#m9e35b6eb77" x="75.854642" y="95.956825" style="fill: #d65c00; fill-opacity: 0.5; stroke: #d65c00; stroke-opacity: 0.5; stroke-width: 1.5"/>
     <use xlink:href="#m9e35b6eb77" x="85.780924" y="85.884033" style="fill: #d65c00; fill-opacity: 0.5; stroke: #d65c00; stroke-opacity: 0.5; stroke-width: 1.5"/>
     <use xlink:href="#m9e35b6eb77" x="80.143816" y="91.704479" style="fill: #d65c00; fill-opacity: 0.5; stroke: #d65c00; stroke-opacity: 0.5; stroke-width: 1.5"/>
     <use xlink:href="#m9e35b6eb77" x="91.635698" y="81.656937" style="fill: #d65c00; fill-opacity: 0.5; stroke: #d65c00; stroke-opacity: 0.5; stroke-width: 1.5"/>
     <use xlink:href="#m9e35b6eb77" x="73.454917" y="97.67097" style="fill: #d65c00; fill-opacity: 0.5; stroke: #d65c00; stroke-opacity: 0.5; stroke-width: 1.5"/>
     <use xlink:href="#m9e35b6eb77" x="64.121593" y="106.477966" style="fill: #d65c00; fill-opacity: 0.5; stroke: #d65c00; stroke-opacity: 0.5; stroke-width: 1.5"/>
     <use xlink:href="#m9e35b6eb77" x="83.568308" y="88.041034" style="fill: #d65c00; fill-opacity: 0.5; stroke: #d65c00; stroke-opacity: 0.5; stroke-width: 1.5"/>
     <use xlink:href="#m9e35b6eb77" x="85.9772" y="86.115382" style="fill: #d65c00; fill-opacity: 0.5; stroke: #d65c00; stroke-opacity: 0.5; stroke-width: 1.5"/>
     <use xlink:href="#m9e35b6eb77" x="92.424683" y="80.675201" style="fill: #d65c00; fill-opacity: 0.5; stroke: #d65c00; stroke-opacity: 0.5; stroke-width: 1.5"/>
     <use xlink:href="#m9e35b6eb77" x="96.864372" y="75.935761" style="fill: #d65c00; fill-opacity: 0.5; stroke: #d65c00; stroke-opacity: 0.5; stroke-width: 1.5"/>
     <use xlink:href="#m9e35b6eb77" x="50.252318" y="118.653342" style="fill: #d65c00; fill-opacity: 0.5; stroke: #d65c00; stroke-opacity: 0.5; stroke-width: 1.5"/>
     <use xlink:href="#m9e35b6eb77" x="87.618865" y="84.60047" style="fill: #d65c00; fill-opacity: 0.5; stroke: #d65c00; stroke-opacity: 0.5; stroke-width: 1.5"/>
     <use xlink:href="#m9e35b6eb77" x="54.417186" y="115.238987" style="fill: #d65c00; fill-opacity: 0.5; stroke: #d65c00; stroke-opacity: 0.5; stroke-width: 1.5"/>
     <use xlink:href="#m9e35b6eb77" x="96.367063" y="76.079341" style="fill: #d65c00; fill-opacity: 0.5; stroke: #d65c00; stroke-opacity: 0.5; stroke-width: 1.5"/>
     <use xlink:href="#m9e35b6eb77" x="69.451338" y="101.365491" style="fill: #d65c00; fill-opacity: 0.5; stroke: #d65c00; stroke-opacity: 0.5; stroke-width: 1.5"/>
     <use xlink:href="#m9e35b6eb77" x="69.143624" y="101.422745" style="fill: #d65c00; fill-opacity: 0.5; stroke: #d65c00; stroke-opacity: 0.5; stroke-width: 1.5"/>
     <use xlink:href="#m9e35b6eb77" x="77.246952" y="94.171748" style="fill: #d65c00; fill-opacity: 0.5; stroke: #d65c00; stroke-opacity: 0.5; stroke-width: 1.5"/>
     <use xlink:href="#m9e35b6eb77" x="88.527545" y="83.771295" style="fill: #d65c00; fill-opacity: 0.5; stroke: #d65c00; stroke-opacity: 0.5; stroke-width: 1.5"/>
     <use xlink:href="#m9e35b6eb77" x="87.186631" y="84.999341" style="fill: #d65c00; fill-opacity: 0.5; stroke: #d65c00; stroke-opacity: 0.5; stroke-width: 1.5"/>
     <use xlink:href="#m9e35b6eb77" x="57.157349" y="112.789177" style="fill: #d65c00; fill-opacity: 0.5; stroke: #d65c00; stroke-opacity: 0.5; stroke-width: 1.5"/>
     <use xlink:href="#m9e35b6eb77" x="47.712512" y="121.426097" style="fill: #d65c00; fill-opacity: 0.5; stroke: #d65c00; stroke-opacity: 0.5; stroke-width: 1.5"/>
     <use xlink:href="#m9e35b6eb77" x="49.496591" y="119.772331" style="fill: #d65c00; fill-opacity: 0.5; stroke: #d65c00; stroke-opacity: 0.5; stroke-width: 1.5"/>
     <use xlink:href="#m9e35b6eb77" x="97.661702" y="76.060004" style="fill: #d65c00; fill-opacity: 0.5; stroke: #d65c00; stroke-opacity: 0.5; stroke-width: 1.5"/>
     <use xlink:href="#m9e35b6eb77" x="44.921311" y="124.001785" style="fill: #d65c00; fill-opacity: 0.5; stroke: #d65c00; stroke-opacity: 0.5; stroke-width: 1.5"/>
     <use xlink:href="#m9e35b6eb77" x="48.393624" y="120.643629" style="fill: #d65c00; fill-opacity: 0.5; stroke: #d65c00; stroke-opacity: 0.5; stroke-width: 1.5"/>
     <use xlink:href="#m9e35b6eb77" x="85.131269" y="87.048165" style="fill: #d65c00; fill-opacity: 0.5; stroke: #d65c00; stroke-opacity: 0.5; stroke-width: 1.5"/>
     <use xlink:href="#m9e35b6eb77" x="46.675296" y="122.38322" style="fill: #d65c00; fill-opacity: 0.5; stroke: #d65c00; stroke-opacity: 0.5; stroke-width: 1.5"/>
     <use xlink:href="#m9e35b6eb77" x="48.393624" y="120.64424" style="fill: #d65c00; fill-opacity: 0.5; stroke: #d65c00; stroke-opacity: 0.5; stroke-width: 1.5"/>
     <use xlink:href="#m9e35b6eb77" x="58.780047" y="111.342809" style="fill: #d65c00; fill-opacity: 0.5; stroke: #d65c00; stroke-opacity: 0.5; stroke-width: 1.5"/>
     <use xlink:href="#m9e35b6eb77" x="76.247236" y="95.101113" style="fill: #d65c00; fill-opacity: 0.5; stroke: #d65c00; stroke-opacity: 0.5; stroke-width: 1.5"/>
     <use xlink:href="#m9e35b6eb77" x="58.538954" y="111.435713" style="fill: #d65c00; fill-opacity: 0.5; stroke: #d65c00; stroke-opacity: 0.5; stroke-width: 1.5"/>
     <use xlink:href="#m9e35b6eb77" x="51.060761" y="118.161996" style="fill: #d65c00; fill-opacity: 0.5; stroke: #d65c00; stroke-opacity: 0.5; stroke-width: 1.5"/>
     <use xlink:href="#m9e35b6eb77" x="52.656822" y="116.907051" style="fill: #d65c00; fill-opacity: 0.5; stroke: #d65c00; stroke-opacity: 0.5; stroke-width: 1.5"/>
     <use xlink:href="#m9e35b6eb77" x="78.05146" y="92.399218" style="fill: #d65c00; fill-opacity: 0.5; stroke: #d65c00; stroke-opacity: 0.5; stroke-width: 1.5"/>
     <use xlink:href="#m9e35b6eb77" x="77.475196" y="91.28766" style="fill: #d65c00; fill-opacity: 0.5; stroke: #d65c00; stroke-opacity: 0.5; stroke-width: 1.5"/>
     <use xlink:href="#m9e35b6eb77" x="55.110385" y="114.599341" style="fill: #d65c00; fill-opacity: 0.5; stroke: #d65c00; stroke-opacity: 0.5; stroke-width: 1.5"/>
    </g>
   </g>
   <g id="patch_3">
    <path d="M 17.1 149.675294 
L 17.1 51.84 
" style="fill: none; stroke: #262626; stroke-width: 1.875; stroke-linejoin: miter; stroke-linecap: square"/>
   </g>
   <g id="patch_4">
    <path d="M 17.1 149.675294 
L 123.12 149.675294 
" style="fill: none; stroke: #262626; stroke-width: 1.875; stroke-linejoin: miter; stroke-linecap: square"/>
   </g>
  </g>
  <g id="axes_2">
   <g id="patch_5">
    <path d="M 17.1 267.077647 
L 123.12 267.077647 
L 123.12 169.242353 
L 17.1 169.242353 
z
" style="fill: #ffffff"/>
   </g>
   <g id="matplotlib.axis_3">
    <g id="xtick_3">
     <g id="line2d_6">
      <g>
       <use xlink:href="#m021b4980d0" x="40.277532" y="267.077647" style="fill: #1a1a1a; stroke: #1a1a1a; stroke-width: 1.875"/>
      </g>
     </g>
    </g>
    <g id="xtick_4">
     <g id="line2d_7">
      <g>
       <use xlink:href="#m021b4980d0" x="86.173636" y="267.077647" style="fill: #1a1a1a; stroke: #1a1a1a; stroke-width: 1.875"/>
      </g>
     </g>
    </g>
   </g>
   <g id="matplotlib.axis_4">
    <g id="ytick_3">
     <g id="line2d_8">
      <g>
       <use xlink:href="#m7770962b7f" x="17.1" y="260.130267" style="fill: #1a1a1a; stroke: #1a1a1a; stroke-width: 1.875"/>
      </g>
     </g>
     <g id="text_3">
      <!-- 0 -->
      <g style="fill: #1a1a1a" transform="translate(-4.575547 266.035463) scale(0.165 -0.165)">
       <use xlink:href="#ArialMT-30"/>
      </g>
     </g>
    </g>
    <g id="ytick_4">
     <g id="line2d_9">
      <g>
       <use xlink:href="#m7770962b7f" x="17.1" y="210.12385" style="fill: #1a1a1a; stroke: #1a1a1a; stroke-width: 1.875"/>
      </g>
     </g>
     <g id="text_4">
      <!-- 2 -->
      <g style="fill: #1a1a1a" transform="translate(-4.575547 216.029045) scale(0.165 -0.165)">
       <use xlink:href="#ArialMT-32"/>
      </g>
     </g>
    </g>
    <g id="text_5">
     <!-- Numerical Forgetting -->
     <g style="fill: #262626" transform="translate(-33.363984 301.685625) rotate(-90) scale(0.18 -0.18)">
      <defs>
       <path id="ArialMT-4e" d="M 488 0 
L 488 4581 
L 1109 4581 
L 3516 984 
L 3516 4581 
L 4097 4581 
L 4097 0 
L 3475 0 
L 1069 3600 
L 1069 0 
L 488 0 
z
" transform="scale(0.015625)"/>
       <path id="ArialMT-75" d="M 2597 0 
L 2597 488 
Q 2209 -75 1544 -75 
Q 1250 -75 995 37 
Q 741 150 617 320 
Q 494 491 444 738 
Q 409 903 409 1263 
L 409 3319 
L 972 3319 
L 972 1478 
Q 972 1038 1006 884 
Q 1059 663 1231 536 
Q 1403 409 1656 409 
Q 1909 409 2131 539 
Q 2353 669 2445 892 
Q 2538 1116 2538 1541 
L 2538 3319 
L 3100 3319 
L 3100 0 
L 2597 0 
z
" transform="scale(0.015625)"/>
       <path id="ArialMT-6d" d="M 422 0 
L 422 3319 
L 925 3319 
L 925 2853 
Q 1081 3097 1340 3245 
Q 1600 3394 1931 3394 
Q 2300 3394 2536 3241 
Q 2772 3088 2869 2813 
Q 3263 3394 3894 3394 
Q 4388 3394 4653 3120 
Q 4919 2847 4919 2278 
L 4919 0 
L 4359 0 
L 4359 2091 
Q 4359 2428 4304 2576 
Q 4250 2725 4106 2815 
Q 3963 2906 3769 2906 
Q 3419 2906 3187 2673 
Q 2956 2441 2956 1928 
L 2956 0 
L 2394 0 
L 2394 2156 
Q 2394 2531 2256 2718 
Q 2119 2906 1806 2906 
Q 1569 2906 1367 2781 
Q 1166 2656 1075 2415 
Q 984 2175 984 1722 
L 984 0 
L 422 0 
z
" transform="scale(0.015625)"/>
       <path id="ArialMT-65" d="M 2694 1069 
L 3275 997 
Q 3138 488 2766 206 
Q 2394 -75 1816 -75 
Q 1088 -75 661 373 
Q 234 822 234 1631 
Q 234 2469 665 2931 
Q 1097 3394 1784 3394 
Q 2450 3394 2872 2941 
Q 3294 2488 3294 1666 
Q 3294 1616 3291 1516 
L 816 1516 
Q 847 969 1125 678 
Q 1403 388 1819 388 
Q 2128 388 2347 550 
Q 2566 713 2694 1069 
z
M 847 1978 
L 2700 1978 
Q 2663 2397 2488 2606 
Q 2219 2931 1791 2931 
Q 1403 2931 1139 2672 
Q 875 2413 847 1978 
z
" transform="scale(0.015625)"/>
       <path id="ArialMT-72" d="M 416 0 
L 416 3319 
L 922 3319 
L 922 2816 
Q 1116 3169 1280 3281 
Q 1444 3394 1641 3394 
Q 1925 3394 2219 3213 
L 2025 2691 
Q 1819 2813 1613 2813 
Q 1428 2813 1281 2702 
Q 1134 2591 1072 2394 
Q 978 2094 978 1738 
L 978 0 
L 416 0 
z
" transform="scale(0.015625)"/>
       <path id="ArialMT-69" d="M 425 3934 
L 425 4581 
L 988 4581 
L 988 3934 
L 425 3934 
z
M 425 0 
L 425 3319 
L 988 3319 
L 988 0 
L 425 0 
z
" transform="scale(0.015625)"/>
       <path id="ArialMT-63" d="M 2588 1216 
L 3141 1144 
Q 3050 572 2676 248 
Q 2303 -75 1759 -75 
Q 1078 -75 664 370 
Q 250 816 250 1647 
Q 250 2184 428 2587 
Q 606 2991 970 3192 
Q 1334 3394 1763 3394 
Q 2303 3394 2647 3120 
Q 2991 2847 3088 2344 
L 2541 2259 
Q 2463 2594 2264 2762 
Q 2066 2931 1784 2931 
Q 1359 2931 1093 2626 
Q 828 2322 828 1663 
Q 828 994 1084 691 
Q 1341 388 1753 388 
Q 2084 388 2306 591 
Q 2528 794 2588 1216 
z
" transform="scale(0.015625)"/>
       <path id="ArialMT-61" d="M 2588 409 
Q 2275 144 1986 34 
Q 1697 -75 1366 -75 
Q 819 -75 525 192 
Q 231 459 231 875 
Q 231 1119 342 1320 
Q 453 1522 633 1644 
Q 813 1766 1038 1828 
Q 1203 1872 1538 1913 
Q 2219 1994 2541 2106 
Q 2544 2222 2544 2253 
Q 2544 2597 2384 2738 
Q 2169 2928 1744 2928 
Q 1347 2928 1158 2789 
Q 969 2650 878 2297 
L 328 2372 
Q 403 2725 575 2942 
Q 747 3159 1072 3276 
Q 1397 3394 1825 3394 
Q 2250 3394 2515 3294 
Q 2781 3194 2906 3042 
Q 3031 2891 3081 2659 
Q 3109 2516 3109 2141 
L 3109 1391 
Q 3109 606 3145 398 
Q 3181 191 3288 0 
L 2700 0 
Q 2613 175 2588 409 
z
M 2541 1666 
Q 2234 1541 1622 1453 
Q 1275 1403 1131 1340 
Q 988 1278 909 1158 
Q 831 1038 831 891 
Q 831 666 1001 516 
Q 1172 366 1500 366 
Q 1825 366 2078 508 
Q 2331 650 2450 897 
Q 2541 1088 2541 1459 
L 2541 1666 
z
" transform="scale(0.015625)"/>
       <path id="ArialMT-6c" d="M 409 0 
L 409 4581 
L 972 4581 
L 972 0 
L 409 0 
z
" transform="scale(0.015625)"/>
       <path id="ArialMT-20" transform="scale(0.015625)"/>
       <path id="ArialMT-46" d="M 525 0 
L 525 4581 
L 3616 4581 
L 3616 4041 
L 1131 4041 
L 1131 2622 
L 3281 2622 
L 3281 2081 
L 1131 2081 
L 1131 0 
L 525 0 
z
" transform="scale(0.015625)"/>
       <path id="ArialMT-6f" d="M 213 1659 
Q 213 2581 725 3025 
Q 1153 3394 1769 3394 
Q 2453 3394 2887 2945 
Q 3322 2497 3322 1706 
Q 3322 1066 3130 698 
Q 2938 331 2570 128 
Q 2203 -75 1769 -75 
Q 1072 -75 642 372 
Q 213 819 213 1659 
z
M 791 1659 
Q 791 1022 1069 705 
Q 1347 388 1769 388 
Q 2188 388 2466 706 
Q 2744 1025 2744 1678 
Q 2744 2294 2464 2611 
Q 2184 2928 1769 2928 
Q 1347 2928 1069 2612 
Q 791 2297 791 1659 
z
" transform="scale(0.015625)"/>
       <path id="ArialMT-67" d="M 319 -275 
L 866 -356 
Q 900 -609 1056 -725 
Q 1266 -881 1628 -881 
Q 2019 -881 2231 -725 
Q 2444 -569 2519 -288 
Q 2563 -116 2559 434 
Q 2191 0 1641 0 
Q 956 0 581 494 
Q 206 988 206 1678 
Q 206 2153 378 2554 
Q 550 2956 876 3175 
Q 1203 3394 1644 3394 
Q 2231 3394 2613 2919 
L 2613 3319 
L 3131 3319 
L 3131 450 
Q 3131 -325 2973 -648 
Q 2816 -972 2473 -1159 
Q 2131 -1347 1631 -1347 
Q 1038 -1347 672 -1080 
Q 306 -813 319 -275 
z
M 784 1719 
Q 784 1066 1043 766 
Q 1303 466 1694 466 
Q 2081 466 2343 764 
Q 2606 1063 2606 1700 
Q 2606 2309 2336 2618 
Q 2066 2928 1684 2928 
Q 1309 2928 1046 2623 
Q 784 2319 784 1719 
z
" transform="scale(0.015625)"/>
       <path id="ArialMT-74" d="M 1650 503 
L 1731 6 
Q 1494 -44 1306 -44 
Q 1000 -44 831 53 
Q 663 150 594 308 
Q 525 466 525 972 
L 525 2881 
L 113 2881 
L 113 3319 
L 525 3319 
L 525 4141 
L 1084 4478 
L 1084 3319 
L 1650 3319 
L 1650 2881 
L 1084 2881 
L 1084 941 
Q 1084 700 1114 631 
Q 1144 563 1211 522 
Q 1278 481 1403 481 
Q 1497 481 1650 503 
z
" transform="scale(0.015625)"/>
       <path id="ArialMT-6e" d="M 422 0 
L 422 3319 
L 928 3319 
L 928 2847 
Q 1294 3394 1984 3394 
Q 2284 3394 2536 3286 
Q 2788 3178 2913 3003 
Q 3038 2828 3088 2588 
Q 3119 2431 3119 2041 
L 3119 0 
L 2556 0 
L 2556 2019 
Q 2556 2363 2490 2533 
Q 2425 2703 2258 2804 
Q 2091 2906 1866 2906 
Q 1506 2906 1245 2678 
Q 984 2450 984 1813 
L 984 0 
L 422 0 
z
" transform="scale(0.015625)"/>
      </defs>
      <use xlink:href="#ArialMT-4e"/>
      <use xlink:href="#ArialMT-75" x="72.216797"/>
      <use xlink:href="#ArialMT-6d" x="127.832031"/>
      <use xlink:href="#ArialMT-65" x="211.132812"/>
      <use xlink:href="#ArialMT-72" x="266.748047"/>
      <use xlink:href="#ArialMT-69" x="300.048828"/>
      <use xlink:href="#ArialMT-63" x="322.265625"/>
      <use xlink:href="#ArialMT-61" x="372.265625"/>
      <use xlink:href="#ArialMT-6c" x="427.880859"/>
      <use xlink:href="#ArialMT-20" x="450.097656"/>
      <use xlink:href="#ArialMT-46" x="477.880859"/>
      <use xlink:href="#ArialMT-6f" x="538.964844"/>
      <use xlink:href="#ArialMT-72" x="594.580078"/>
      <use xlink:href="#ArialMT-67" x="627.880859"/>
      <use xlink:href="#ArialMT-65" x="683.496094"/>
      <use xlink:href="#ArialMT-74" x="739.111328"/>
      <use xlink:href="#ArialMT-74" x="766.894531"/>
      <use xlink:href="#ArialMT-69" x="794.677734"/>
      <use xlink:href="#ArialMT-6e" x="816.894531"/>
      <use xlink:href="#ArialMT-67" x="872.509766"/>
     </g>
    </g>
   </g>
   <g id="line2d_10">
    <path d="M 21.919091 262.630588 
L 23.886067 262.362697 
L 25.853043 262.094805 
L 27.820019 261.826914 
L 29.786994 261.559022 
L 31.75397 261.291131 
L 33.720946 261.023239 
L 35.687922 260.755348 
L 37.654898 260.487456 
L 39.621874 260.219565 
L 41.58885 259.951673 
L 43.555826 259.683782 
L 45.522801 259.41589 
L 47.489777 259.147998 
L 49.456753 258.880107 
L 51.423729 258.612215 
L 53.390705 258.344324 
L 55.357681 258.076432 
L 57.324657 257.808541 
L 59.291633 257.540649 
L 61.258609 257.272758 
L 63.225584 257.004866 
L 65.19256 256.736975 
L 67.159536 256.469083 
L 69.126512 256.201192 
L 71.093488 255.9333 
L 73.060464 255.665409 
L 75.02744 255.397517 
L 76.994416 255.129626 
L 78.961391 254.861734 
L 80.928367 254.593843 
L 82.895343 254.325951 
L 84.862319 254.05806 
L 86.829295 253.790168 
L 88.796271 253.522277 
L 90.763247 253.254385 
L 92.730223 252.986493 
L 94.697199 252.718602 
L 96.664174 252.45071 
L 98.63115 252.182819 
L 100.598126 251.914927 
L 102.565102 251.647036 
L 104.532078 251.379144 
L 106.499054 251.111253 
L 108.46603 250.843361 
L 110.433006 250.57547 
L 112.399981 250.307578 
L 114.366957 250.039687 
L 116.333933 249.771795 
L 118.300909 249.503904 
" clip-path="url(#p8d20dcb11c)" style="fill: none; stroke: #000000; stroke-opacity: 0.7; stroke-width: 2.25; stroke-linecap: round"/>
   </g>
   <g id="PathCollection_2">
    <defs>
     <path id="m0ea3ec4f35" d="M 0 4.5 
C 1.193414 4.5 2.338109 4.025852 3.181981 3.181981 
C 4.025852 2.338109 4.5 1.193414 4.5 0 
C 4.5 -1.193414 4.025852 -2.338109 3.181981 -3.181981 
C 2.338109 -4.025852 1.193414 -4.5 0 -4.5 
C -1.193414 -4.5 -2.338109 -4.025852 -3.181981 -3.181981 
C -4.025852 -2.338109 -4.5 -1.193414 -4.5 0 
C -4.5 1.193414 -4.025852 2.338109 -3.181981 3.181981 
C -2.338109 4.025852 -1.193414 4.5 0 4.5 
z
" style="stroke: #0071b2; stroke-opacity: 0.5; stroke-width: 1.5"/>
    </defs>
    <g clip-path="url(#p8d20dcb11c)">
     <use xlink:href="#m0ea3ec4f35" x="55.15084" y="244.44294" style="fill: #0071b2; fill-opacity: 0.5; stroke: #0071b2; stroke-opacity: 0.5; stroke-width: 1.5"/>
     <use xlink:href="#m0ea3ec4f35" x="57.656027" y="218.400582" style="fill: #0071b2; fill-opacity: 0.5; stroke: #0071b2; stroke-opacity: 0.5; stroke-width: 1.5"/>
     <use xlink:href="#m0ea3ec4f35" x="58.461587" y="197.99425" style="fill: #0071b2; fill-opacity: 0.5; stroke: #0071b2; stroke-opacity: 0.5; stroke-width: 1.5"/>
     <use xlink:href="#m0ea3ec4f35" x="45.137113" y="246.984014" style="fill: #0071b2; fill-opacity: 0.5; stroke: #0071b2; stroke-opacity: 0.5; stroke-width: 1.5"/>
     <use xlink:href="#m0ea3ec4f35" x="94.344756" y="196.715143" style="fill: #0071b2; fill-opacity: 0.5; stroke: #0071b2; stroke-opacity: 0.5; stroke-width: 1.5"/>
     <use xlink:href="#m0ea3ec4f35" x="60.037122" y="232.121556" style="fill: #0071b2; fill-opacity: 0.5; stroke: #0071b2; stroke-opacity: 0.5; stroke-width: 1.5"/>
     <use xlink:href="#m0ea3ec4f35" x="70.373018" y="241.767773" style="fill: #0071b2; fill-opacity: 0.5; stroke: #0071b2; stroke-opacity: 0.5; stroke-width: 1.5"/>
     <use xlink:href="#m0ea3ec4f35" x="101.87348" y="232.968572" style="fill: #0071b2; fill-opacity: 0.5; stroke: #0071b2; stroke-opacity: 0.5; stroke-width: 1.5"/>
     <use xlink:href="#m0ea3ec4f35" x="79.410538" y="190.230637" style="fill: #0071b2; fill-opacity: 0.5; stroke: #0071b2; stroke-opacity: 0.5; stroke-width: 1.5"/>
     <use xlink:href="#m0ea3ec4f35" x="66.810826" y="219.567868" style="fill: #0071b2; fill-opacity: 0.5; stroke: #0071b2; stroke-opacity: 0.5; stroke-width: 1.5"/>
     <use xlink:href="#m0ea3ec4f35" x="63.173271" y="229.534499" style="fill: #0071b2; fill-opacity: 0.5; stroke: #0071b2; stroke-opacity: 0.5; stroke-width: 1.5"/>
     <use xlink:href="#m0ea3ec4f35" x="67.512918" y="212.363553" style="fill: #0071b2; fill-opacity: 0.5; stroke: #0071b2; stroke-opacity: 0.5; stroke-width: 1.5"/>
     <use xlink:href="#m0ea3ec4f35" x="51.129556" y="245.109784" style="fill: #0071b2; fill-opacity: 0.5; stroke: #0071b2; stroke-opacity: 0.5; stroke-width: 1.5"/>
     <use xlink:href="#m0ea3ec4f35" x="75.404101" y="212.323523" style="fill: #0071b2; fill-opacity: 0.5; stroke: #0071b2; stroke-opacity: 0.5; stroke-width: 1.5"/>
     <use xlink:href="#m0ea3ec4f35" x="75.854642" y="231.975005" style="fill: #0071b2; fill-opacity: 0.5; stroke: #0071b2; stroke-opacity: 0.5; stroke-width: 1.5"/>
     <use xlink:href="#m0ea3ec4f35" x="85.780924" y="231.60306" style="fill: #0071b2; fill-opacity: 0.5; stroke: #0071b2; stroke-opacity: 0.5; stroke-width: 1.5"/>
     <use xlink:href="#m0ea3ec4f35" x="80.143816" y="197.167124" style="fill: #0071b2; fill-opacity: 0.5; stroke: #0071b2; stroke-opacity: 0.5; stroke-width: 1.5"/>
     <use xlink:href="#m0ea3ec4f35" x="91.635698" y="219.054308" style="fill: #0071b2; fill-opacity: 0.5; stroke: #0071b2; stroke-opacity: 0.5; stroke-width: 1.5"/>
     <use xlink:href="#m0ea3ec4f35" x="73.454917" y="193.140725" style="fill: #0071b2; fill-opacity: 0.5; stroke: #0071b2; stroke-opacity: 0.5; stroke-width: 1.5"/>
     <use xlink:href="#m0ea3ec4f35" x="64.121593" y="229.991418" style="fill: #0071b2; fill-opacity: 0.5; stroke: #0071b2; stroke-opacity: 0.5; stroke-width: 1.5"/>
     <use xlink:href="#m0ea3ec4f35" x="83.568308" y="189.712451" style="fill: #0071b2; fill-opacity: 0.5; stroke: #0071b2; stroke-opacity: 0.5; stroke-width: 1.5"/>
     <use xlink:href="#m0ea3ec4f35" x="85.9772" y="208.890239" style="fill: #0071b2; fill-opacity: 0.5; stroke: #0071b2; stroke-opacity: 0.5; stroke-width: 1.5"/>
     <use xlink:href="#m0ea3ec4f35" x="92.424683" y="191.431151" style="fill: #0071b2; fill-opacity: 0.5; stroke: #0071b2; stroke-opacity: 0.5; stroke-width: 1.5"/>
     <use xlink:href="#m0ea3ec4f35" x="96.864372" y="173.689412" style="fill: #0071b2; fill-opacity: 0.5; stroke: #0071b2; stroke-opacity: 0.5; stroke-width: 1.5"/>
     <use xlink:href="#m0ea3ec4f35" x="50.252318" y="239.676328" style="fill: #0071b2; fill-opacity: 0.5; stroke: #0071b2; stroke-opacity: 0.5; stroke-width: 1.5"/>
     <use xlink:href="#m0ea3ec4f35" x="87.618865" y="193.451466" style="fill: #0071b2; fill-opacity: 0.5; stroke: #0071b2; stroke-opacity: 0.5; stroke-width: 1.5"/>
     <use xlink:href="#m0ea3ec4f35" x="54.417186" y="246.131667" style="fill: #0071b2; fill-opacity: 0.5; stroke: #0071b2; stroke-opacity: 0.5; stroke-width: 1.5"/>
     <use xlink:href="#m0ea3ec4f35" x="96.367063" y="195.797722" style="fill: #0071b2; fill-opacity: 0.5; stroke: #0071b2; stroke-opacity: 0.5; stroke-width: 1.5"/>
     <use xlink:href="#m0ea3ec4f35" x="69.451338" y="243.670073" style="fill: #0071b2; fill-opacity: 0.5; stroke: #0071b2; stroke-opacity: 0.5; stroke-width: 1.5"/>
     <use xlink:href="#m0ea3ec4f35" x="69.143624" y="243.921419" style="fill: #0071b2; fill-opacity: 0.5; stroke: #0071b2; stroke-opacity: 0.5; stroke-width: 1.5"/>
     <use xlink:href="#m0ea3ec4f35" x="77.246952" y="225.794423" style="fill: #0071b2; fill-opacity: 0.5; stroke: #0071b2; stroke-opacity: 0.5; stroke-width: 1.5"/>
     <use xlink:href="#m0ea3ec4f35" x="88.527545" y="192.047513" style="fill: #0071b2; fill-opacity: 0.5; stroke: #0071b2; stroke-opacity: 0.5; stroke-width: 1.5"/>
     <use xlink:href="#m0ea3ec4f35" x="87.186631" y="217.509664" style="fill: #0071b2; fill-opacity: 0.5; stroke: #0071b2; stroke-opacity: 0.5; stroke-width: 1.5"/>
     <use xlink:href="#m0ea3ec4f35" x="57.157349" y="243.046689" style="fill: #0071b2; fill-opacity: 0.5; stroke: #0071b2; stroke-opacity: 0.5; stroke-width: 1.5"/>
     <use xlink:href="#m0ea3ec4f35" x="47.712512" y="252.381955" style="fill: #0071b2; fill-opacity: 0.5; stroke: #0071b2; stroke-opacity: 0.5; stroke-width: 1.5"/>
     <use xlink:href="#m0ea3ec4f35" x="49.496591" y="249.959871" style="fill: #0071b2; fill-opacity: 0.5; stroke: #0071b2; stroke-opacity: 0.5; stroke-width: 1.5"/>
     <use xlink:href="#m0ea3ec4f35" x="97.661702" y="205.254438" style="fill: #0071b2; fill-opacity: 0.5; stroke: #0071b2; stroke-opacity: 0.5; stroke-width: 1.5"/>
     <use xlink:href="#m0ea3ec4f35" x="44.921311" y="251.894014" style="fill: #0071b2; fill-opacity: 0.5; stroke: #0071b2; stroke-opacity: 0.5; stroke-width: 1.5"/>
     <use xlink:href="#m0ea3ec4f35" x="48.393624" y="228.075333" style="fill: #0071b2; fill-opacity: 0.5; stroke: #0071b2; stroke-opacity: 0.5; stroke-width: 1.5"/>
     <use xlink:href="#m0ea3ec4f35" x="85.131269" y="227.3653" style="fill: #0071b2; fill-opacity: 0.5; stroke: #0071b2; stroke-opacity: 0.5; stroke-width: 1.5"/>
     <use xlink:href="#m0ea3ec4f35" x="46.675296" y="257.844213" style="fill: #0071b2; fill-opacity: 0.5; stroke: #0071b2; stroke-opacity: 0.5; stroke-width: 1.5"/>
     <use xlink:href="#m0ea3ec4f35" x="48.393624" y="241.332" style="fill: #0071b2; fill-opacity: 0.5; stroke: #0071b2; stroke-opacity: 0.5; stroke-width: 1.5"/>
     <use xlink:href="#m0ea3ec4f35" x="58.780047" y="248.824814" style="fill: #0071b2; fill-opacity: 0.5; stroke: #0071b2; stroke-opacity: 0.5; stroke-width: 1.5"/>
     <use xlink:href="#m0ea3ec4f35" x="76.247236" y="224.071237" style="fill: #0071b2; fill-opacity: 0.5; stroke: #0071b2; stroke-opacity: 0.5; stroke-width: 1.5"/>
     <use xlink:href="#m0ea3ec4f35" x="58.538954" y="231.27254" style="fill: #0071b2; fill-opacity: 0.5; stroke: #0071b2; stroke-opacity: 0.5; stroke-width: 1.5"/>
     <use xlink:href="#m0ea3ec4f35" x="51.060761" y="240.916186" style="fill: #0071b2; fill-opacity: 0.5; stroke: #0071b2; stroke-opacity: 0.5; stroke-width: 1.5"/>
     <use xlink:href="#m0ea3ec4f35" x="52.656822" y="250.744309" style="fill: #0071b2; fill-opacity: 0.5; stroke: #0071b2; stroke-opacity: 0.5; stroke-width: 1.5"/>
     <use xlink:href="#m0ea3ec4f35" x="78.05146" y="210.019099" style="fill: #0071b2; fill-opacity: 0.5; stroke: #0071b2; stroke-opacity: 0.5; stroke-width: 1.5"/>
     <use xlink:href="#m0ea3ec4f35" x="77.475196" y="230.971933" style="fill: #0071b2; fill-opacity: 0.5; stroke: #0071b2; stroke-opacity: 0.5; stroke-width: 1.5"/>
     <use xlink:href="#m0ea3ec4f35" x="55.110385" y="229.600528" style="fill: #0071b2; fill-opacity: 0.5; stroke: #0071b2; stroke-opacity: 0.5; stroke-width: 1.5"/>
    </g>
   </g>
   <g id="patch_6">
    <path d="M 17.1 267.077647 
L 17.1 169.242353 
" style="fill: none; stroke: #262626; stroke-width: 1.875; stroke-linejoin: miter; stroke-linecap: square"/>
   </g>
   <g id="patch_7">
    <path d="M 17.1 267.077647 
L 123.12 267.077647 
" style="fill: none; stroke: #262626; stroke-width: 1.875; stroke-linejoin: miter; stroke-linecap: square"/>
   </g>
  </g>
  <g id="axes_3">
   <g id="patch_8">
    <path d="M 17.1 384.48 
L 123.12 384.48 
L 123.12 286.644706 
L 17.1 286.644706 
z
" style="fill: #ffffff"/>
   </g>
   <g id="matplotlib.axis_5">
    <g id="xtick_5">
     <g id="line2d_11">
      <g>
       <use xlink:href="#m021b4980d0" x="40.277532" y="384.48" style="fill: #1a1a1a; stroke: #1a1a1a; stroke-width: 1.875"/>
      </g>
     </g>
     <g id="text_6">
      <!-- 0.00 -->
      <g style="fill: #1a1a1a" transform="translate(24.222259 408.790391) scale(0.165 -0.165)">
       <use xlink:href="#ArialMT-30"/>
       <use xlink:href="#ArialMT-2e" x="55.615234"/>
       <use xlink:href="#ArialMT-30" x="83.398438"/>
       <use xlink:href="#ArialMT-30" x="139.013672"/>
      </g>
     </g>
    </g>
    <g id="xtick_6">
     <g id="line2d_12">
      <g>
       <use xlink:href="#m021b4980d0" x="86.173636" y="384.48" style="fill: #1a1a1a; stroke: #1a1a1a; stroke-width: 1.875"/>
      </g>
     </g>
     <g id="text_7">
      <!-- 0.25 -->
      <g style="fill: #1a1a1a" transform="translate(70.118363 408.790391) scale(0.165 -0.165)">
       <use xlink:href="#ArialMT-30"/>
       <use xlink:href="#ArialMT-2e" x="55.615234"/>
       <use xlink:href="#ArialMT-32" x="83.398438"/>
       <use xlink:href="#ArialMT-35" x="139.013672"/>
      </g>
     </g>
    </g>
    <g id="text_8">
     <!-- Analytical -->
     <g style="fill: #262626" transform="translate(31.592813 428.953828) scale(0.18 -0.18)">
      <defs>
       <path id="ArialMT-41" d="M -9 0 
L 1750 4581 
L 2403 4581 
L 4278 0 
L 3588 0 
L 3053 1388 
L 1138 1388 
L 634 0 
L -9 0 
z
M 1313 1881 
L 2866 1881 
L 2388 3150 
Q 2169 3728 2063 4100 
Q 1975 3659 1816 3225 
L 1313 1881 
z
" transform="scale(0.015625)"/>
       <path id="ArialMT-79" d="M 397 -1278 
L 334 -750 
Q 519 -800 656 -800 
Q 844 -800 956 -737 
Q 1069 -675 1141 -563 
Q 1194 -478 1313 -144 
Q 1328 -97 1363 -6 
L 103 3319 
L 709 3319 
L 1400 1397 
Q 1534 1031 1641 628 
Q 1738 1016 1872 1384 
L 2581 3319 
L 3144 3319 
L 1881 -56 
Q 1678 -603 1566 -809 
Q 1416 -1088 1222 -1217 
Q 1028 -1347 759 -1347 
Q 597 -1347 397 -1278 
z
" transform="scale(0.015625)"/>
      </defs>
      <use xlink:href="#ArialMT-41"/>
      <use xlink:href="#ArialMT-6e" x="66.699219"/>
      <use xlink:href="#ArialMT-61" x="122.314453"/>
      <use xlink:href="#ArialMT-6c" x="177.929688"/>
      <use xlink:href="#ArialMT-79" x="200.146484"/>
      <use xlink:href="#ArialMT-74" x="250.146484"/>
      <use xlink:href="#ArialMT-69" x="277.929688"/>
      <use xlink:href="#ArialMT-63" x="300.146484"/>
      <use xlink:href="#ArialMT-61" x="350.146484"/>
      <use xlink:href="#ArialMT-6c" x="405.761719"/>
     </g>
    </g>
   </g>
   <g id="matplotlib.axis_6">
    <g id="ytick_5">
     <g id="line2d_13">
      <g>
       <use xlink:href="#m7770962b7f" x="17.1" y="378.329917" style="fill: #1a1a1a; stroke: #1a1a1a; stroke-width: 1.875"/>
      </g>
     </g>
     <g id="text_9">
      <!-- 0 -->
      <g style="fill: #1a1a1a" transform="translate(-4.575547 384.235112) scale(0.165 -0.165)">
       <use xlink:href="#ArialMT-30"/>
      </g>
     </g>
    </g>
    <g id="ytick_6">
     <g id="line2d_14">
      <g>
       <use xlink:href="#m7770962b7f" x="17.1" y="293.178715" style="fill: #1a1a1a; stroke: #1a1a1a; stroke-width: 1.875"/>
      </g>
     </g>
     <g id="text_10">
      <!-- 5 -->
      <g style="fill: #1a1a1a" transform="translate(-4.575547 299.083911) scale(0.165 -0.165)">
       <use xlink:href="#ArialMT-35"/>
      </g>
     </g>
    </g>
   </g>
   <g id="line2d_15">
    <path d="M 21.919091 380.032941 
L 23.886067 379.850474 
L 25.853043 379.668007 
L 27.820019 379.485541 
L 29.786994 379.303074 
L 31.75397 379.120607 
L 33.720946 378.93814 
L 35.687922 378.755673 
L 37.654898 378.573206 
L 39.621874 378.390739 
L 41.58885 378.208273 
L 43.555826 378.025806 
L 45.522801 377.843339 
L 47.489777 377.660872 
L 49.456753 377.478405 
L 51.423729 377.295938 
L 53.390705 377.113471 
L 55.357681 376.931005 
L 57.324657 376.748538 
L 59.291633 376.566071 
L 61.258609 376.383604 
L 63.225584 376.201137 
L 65.19256 376.01867 
L 67.159536 375.836203 
L 69.126512 375.653737 
L 71.093488 375.47127 
L 73.060464 375.288803 
L 75.02744 375.106336 
L 76.994416 374.923869 
L 78.961391 374.741402 
L 80.928367 374.558935 
L 82.895343 374.376468 
L 84.862319 374.194002 
L 86.829295 374.011535 
L 88.796271 373.829068 
L 90.763247 373.646601 
L 92.730223 373.464134 
L 94.697199 373.281667 
L 96.664174 373.0992 
L 98.63115 372.916734 
L 100.598126 372.734267 
L 102.565102 372.5518 
L 104.532078 372.369333 
L 106.499054 372.186866 
L 108.46603 372.004399 
L 110.433006 371.821932 
L 112.399981 371.639466 
L 114.366957 371.456999 
L 116.333933 371.274532 
L 118.300909 371.092065 
" clip-path="url(#p33fad5e6a9)" style="fill: none; stroke: #000000; stroke-opacity: 0.7; stroke-width: 2.25; stroke-linecap: round"/>
   </g>
   <g id="PathCollection_3">
    <defs>
     <path id="m508b8bf5a9" d="M 0 4.5 
C 1.193414 4.5 2.338109 4.025852 3.181981 3.181981 
C 4.025852 2.338109 4.5 1.193414 4.5 0 
C 4.5 -1.193414 4.025852 -2.338109 3.181981 -3.181981 
C 2.338109 -4.025852 1.193414 -4.5 0 -4.5 
C -1.193414 -4.5 -2.338109 -4.025852 -3.181981 -3.181981 
C -4.025852 -2.338109 -4.5 -1.193414 -4.5 0 
C -4.5 1.193414 -4.025852 2.338109 -3.181981 3.181981 
C -2.338109 4.025852 -1.193414 4.5 0 4.5 
z
" style="stroke: #009e73; stroke-opacity: 0.5; stroke-width: 1.5"/>
    </defs>
    <g clip-path="url(#p33fad5e6a9)">
     <use xlink:href="#m508b8bf5a9" x="55.15084" y="368.999924" style="fill: #009e73; fill-opacity: 0.5; stroke: #009e73; stroke-opacity: 0.5; stroke-width: 1.5"/>
     <use xlink:href="#m508b8bf5a9" x="57.656027" y="355.543885" style="fill: #009e73; fill-opacity: 0.5; stroke: #009e73; stroke-opacity: 0.5; stroke-width: 1.5"/>
     <use xlink:href="#m508b8bf5a9" x="58.461587" y="351.035297" style="fill: #009e73; fill-opacity: 0.5; stroke: #009e73; stroke-opacity: 0.5; stroke-width: 1.5"/>
     <use xlink:href="#m508b8bf5a9" x="45.137113" y="370.571415" style="fill: #009e73; fill-opacity: 0.5; stroke: #009e73; stroke-opacity: 0.5; stroke-width: 1.5"/>
     <use xlink:href="#m508b8bf5a9" x="94.344756" y="336.262539" style="fill: #009e73; fill-opacity: 0.5; stroke: #009e73; stroke-opacity: 0.5; stroke-width: 1.5"/>
     <use xlink:href="#m508b8bf5a9" x="60.037122" y="363.335725" style="fill: #009e73; fill-opacity: 0.5; stroke: #009e73; stroke-opacity: 0.5; stroke-width: 1.5"/>
     <use xlink:href="#m508b8bf5a9" x="70.373018" y="367.082941" style="fill: #009e73; fill-opacity: 0.5; stroke: #009e73; stroke-opacity: 0.5; stroke-width: 1.5"/>
     <use xlink:href="#m508b8bf5a9" x="101.87348" y="358.338331" style="fill: #009e73; fill-opacity: 0.5; stroke: #009e73; stroke-opacity: 0.5; stroke-width: 1.5"/>
     <use xlink:href="#m508b8bf5a9" x="79.410538" y="333.55297" style="fill: #009e73; fill-opacity: 0.5; stroke: #009e73; stroke-opacity: 0.5; stroke-width: 1.5"/>
     <use xlink:href="#m508b8bf5a9" x="66.810826" y="358.000573" style="fill: #009e73; fill-opacity: 0.5; stroke: #009e73; stroke-opacity: 0.5; stroke-width: 1.5"/>
     <use xlink:href="#m508b8bf5a9" x="63.173271" y="357.338677" style="fill: #009e73; fill-opacity: 0.5; stroke: #009e73; stroke-opacity: 0.5; stroke-width: 1.5"/>
     <use xlink:href="#m508b8bf5a9" x="67.512918" y="357.241812" style="fill: #009e73; fill-opacity: 0.5; stroke: #009e73; stroke-opacity: 0.5; stroke-width: 1.5"/>
     <use xlink:href="#m508b8bf5a9" x="51.129556" y="369.510514" style="fill: #009e73; fill-opacity: 0.5; stroke: #009e73; stroke-opacity: 0.5; stroke-width: 1.5"/>
     <use xlink:href="#m508b8bf5a9" x="75.404101" y="345.070411" style="fill: #009e73; fill-opacity: 0.5; stroke: #009e73; stroke-opacity: 0.5; stroke-width: 1.5"/>
     <use xlink:href="#m508b8bf5a9" x="75.854642" y="352.825345" style="fill: #009e73; fill-opacity: 0.5; stroke: #009e73; stroke-opacity: 0.5; stroke-width: 1.5"/>
     <use xlink:href="#m508b8bf5a9" x="85.780924" y="360.566368" style="fill: #009e73; fill-opacity: 0.5; stroke: #009e73; stroke-opacity: 0.5; stroke-width: 1.5"/>
     <use xlink:href="#m508b8bf5a9" x="80.143816" y="338.394312" style="fill: #009e73; fill-opacity: 0.5; stroke: #009e73; stroke-opacity: 0.5; stroke-width: 1.5"/>
     <use xlink:href="#m508b8bf5a9" x="91.635698" y="356.001076" style="fill: #009e73; fill-opacity: 0.5; stroke: #009e73; stroke-opacity: 0.5; stroke-width: 1.5"/>
     <use xlink:href="#m508b8bf5a9" x="73.454917" y="323.502884" style="fill: #009e73; fill-opacity: 0.5; stroke: #009e73; stroke-opacity: 0.5; stroke-width: 1.5"/>
     <use xlink:href="#m508b8bf5a9" x="64.121593" y="358.924492" style="fill: #009e73; fill-opacity: 0.5; stroke: #009e73; stroke-opacity: 0.5; stroke-width: 1.5"/>
     <use xlink:href="#m508b8bf5a9" x="83.568308" y="327.809509" style="fill: #009e73; fill-opacity: 0.5; stroke: #009e73; stroke-opacity: 0.5; stroke-width: 1.5"/>
     <use xlink:href="#m508b8bf5a9" x="85.9772" y="330.831212" style="fill: #009e73; fill-opacity: 0.5; stroke: #009e73; stroke-opacity: 0.5; stroke-width: 1.5"/>
     <use xlink:href="#m508b8bf5a9" x="92.424683" y="325.011994" style="fill: #009e73; fill-opacity: 0.5; stroke: #009e73; stroke-opacity: 0.5; stroke-width: 1.5"/>
     <use xlink:href="#m508b8bf5a9" x="96.864372" y="324.415337" style="fill: #009e73; fill-opacity: 0.5; stroke: #009e73; stroke-opacity: 0.5; stroke-width: 1.5"/>
     <use xlink:href="#m508b8bf5a9" x="50.252318" y="369.992785" style="fill: #009e73; fill-opacity: 0.5; stroke: #009e73; stroke-opacity: 0.5; stroke-width: 1.5"/>
     <use xlink:href="#m508b8bf5a9" x="87.618865" y="321.768695" style="fill: #009e73; fill-opacity: 0.5; stroke: #009e73; stroke-opacity: 0.5; stroke-width: 1.5"/>
     <use xlink:href="#m508b8bf5a9" x="54.417186" y="371.09883" style="fill: #009e73; fill-opacity: 0.5; stroke: #009e73; stroke-opacity: 0.5; stroke-width: 1.5"/>
     <use xlink:href="#m508b8bf5a9" x="96.367063" y="329.661209" style="fill: #009e73; fill-opacity: 0.5; stroke: #009e73; stroke-opacity: 0.5; stroke-width: 1.5"/>
     <use xlink:href="#m508b8bf5a9" x="69.451338" y="367.474633" style="fill: #009e73; fill-opacity: 0.5; stroke: #009e73; stroke-opacity: 0.5; stroke-width: 1.5"/>
     <use xlink:href="#m508b8bf5a9" x="69.143624" y="370.387892" style="fill: #009e73; fill-opacity: 0.5; stroke: #009e73; stroke-opacity: 0.5; stroke-width: 1.5"/>
     <use xlink:href="#m508b8bf5a9" x="77.246952" y="355.957443" style="fill: #009e73; fill-opacity: 0.5; stroke: #009e73; stroke-opacity: 0.5; stroke-width: 1.5"/>
     <use xlink:href="#m508b8bf5a9" x="88.527545" y="324.160819" style="fill: #009e73; fill-opacity: 0.5; stroke: #009e73; stroke-opacity: 0.5; stroke-width: 1.5"/>
     <use xlink:href="#m508b8bf5a9" x="87.186631" y="358.741487" style="fill: #009e73; fill-opacity: 0.5; stroke: #009e73; stroke-opacity: 0.5; stroke-width: 1.5"/>
     <use xlink:href="#m508b8bf5a9" x="57.157349" y="368.68493" style="fill: #009e73; fill-opacity: 0.5; stroke: #009e73; stroke-opacity: 0.5; stroke-width: 1.5"/>
     <use xlink:href="#m508b8bf5a9" x="47.712512" y="375.842953" style="fill: #009e73; fill-opacity: 0.5; stroke: #009e73; stroke-opacity: 0.5; stroke-width: 1.5"/>
     <use xlink:href="#m508b8bf5a9" x="49.496591" y="372.762986" style="fill: #009e73; fill-opacity: 0.5; stroke: #009e73; stroke-opacity: 0.5; stroke-width: 1.5"/>
     <use xlink:href="#m508b8bf5a9" x="97.661702" y="291.091765" style="fill: #009e73; fill-opacity: 0.5; stroke: #009e73; stroke-opacity: 0.5; stroke-width: 1.5"/>
     <use xlink:href="#m508b8bf5a9" x="44.921311" y="376.645633" style="fill: #009e73; fill-opacity: 0.5; stroke: #009e73; stroke-opacity: 0.5; stroke-width: 1.5"/>
     <use xlink:href="#m508b8bf5a9" x="48.393624" y="360.398394" style="fill: #009e73; fill-opacity: 0.5; stroke: #009e73; stroke-opacity: 0.5; stroke-width: 1.5"/>
     <use xlink:href="#m508b8bf5a9" x="85.131269" y="353.129372" style="fill: #009e73; fill-opacity: 0.5; stroke: #009e73; stroke-opacity: 0.5; stroke-width: 1.5"/>
     <use xlink:href="#m508b8bf5a9" x="46.675296" y="376.860955" style="fill: #009e73; fill-opacity: 0.5; stroke: #009e73; stroke-opacity: 0.5; stroke-width: 1.5"/>
     <use xlink:href="#m508b8bf5a9" x="48.393624" y="367.286217" style="fill: #009e73; fill-opacity: 0.5; stroke: #009e73; stroke-opacity: 0.5; stroke-width: 1.5"/>
     <use xlink:href="#m508b8bf5a9" x="58.780047" y="371.49846" style="fill: #009e73; fill-opacity: 0.5; stroke: #009e73; stroke-opacity: 0.5; stroke-width: 1.5"/>
     <use xlink:href="#m508b8bf5a9" x="76.247236" y="352.489304" style="fill: #009e73; fill-opacity: 0.5; stroke: #009e73; stroke-opacity: 0.5; stroke-width: 1.5"/>
     <use xlink:href="#m508b8bf5a9" x="58.538954" y="362.039594" style="fill: #009e73; fill-opacity: 0.5; stroke: #009e73; stroke-opacity: 0.5; stroke-width: 1.5"/>
     <use xlink:href="#m508b8bf5a9" x="51.060761" y="367.727698" style="fill: #009e73; fill-opacity: 0.5; stroke: #009e73; stroke-opacity: 0.5; stroke-width: 1.5"/>
     <use xlink:href="#m508b8bf5a9" x="52.656822" y="372.819965" style="fill: #009e73; fill-opacity: 0.5; stroke: #009e73; stroke-opacity: 0.5; stroke-width: 1.5"/>
     <use xlink:href="#m508b8bf5a9" x="78.05146" y="345.787659" style="fill: #009e73; fill-opacity: 0.5; stroke: #009e73; stroke-opacity: 0.5; stroke-width: 1.5"/>
     <use xlink:href="#m508b8bf5a9" x="77.475196" y="360.457086" style="fill: #009e73; fill-opacity: 0.5; stroke: #009e73; stroke-opacity: 0.5; stroke-width: 1.5"/>
     <use xlink:href="#m508b8bf5a9" x="55.110385" y="361.794797" style="fill: #009e73; fill-opacity: 0.5; stroke: #009e73; stroke-opacity: 0.5; stroke-width: 1.5"/>
    </g>
   </g>
   <g id="patch_9">
    <path d="M 17.1 384.48 
L 17.1 286.644706 
" style="fill: none; stroke: #262626; stroke-width: 1.875; stroke-linejoin: miter; stroke-linecap: square"/>
   </g>
   <g id="patch_10">
    <path d="M 17.1 384.48 
L 123.12 384.48 
" style="fill: none; stroke: #262626; stroke-width: 1.875; stroke-linejoin: miter; stroke-linecap: square"/>
   </g>
  </g>
 </g>
 <defs>
  <clipPath id="p955222cd8c">
   <rect x="17.1" y="51.84" width="106.02" height="97.835294"/>
  </clipPath>
  <clipPath id="p8d20dcb11c">
   <rect x="17.1" y="169.242353" width="106.02" height="97.835294"/>
  </clipPath>
  <clipPath id="p33fad5e6a9">
   <rect x="17.1" y="286.644706" width="106.02" height="97.835294"/>
  </clipPath>
 </defs>
</svg>
