<?xml version="1.0" encoding="utf-8" standalone="no"?>
<!DOCTYPE svg PUBLIC "-//W3C//DTD SVG 1.1//EN"
  "http://www.w3.org/Graphics/SVG/1.1/DTD/svg11.dtd">
<svg xmlns:xlink="http://www.w3.org/1999/xlink" width="223.2pt" height="172.8pt" viewBox="0 0 223.2 172.8" xmlns="http://www.w3.org/2000/svg" version="1.1">
 <metadata>
  <rdf:RDF xmlns:dc="http://purl.org/dc/elements/1.1/" xmlns:cc="http://creativecommons.org/ns#" xmlns:rdf="http://www.w3.org/1999/02/22-rdf-syntax-ns#">
   <cc:Work>
    <dc:type rdf:resource="http://purl.org/dc/dcmitype/StillImage"/>
    <dc:date>2024-06-04T21:30:39.639052</dc:date>
    <dc:format>image/svg+xml</dc:format>
    <dc:creator>
     <cc:Agent>
      <dc:title>Matplotlib v3.8.0, https://matplotlib.org/</dc:title>
     </cc:Agent>
    </dc:creator>
   </cc:Work>
  </rdf:RDF>
 </metadata>
 <defs>
  <style type="text/css">*{stroke-linejoin: round; stroke-linecap: butt}</style>
 </defs>
 <g id="figure_1">
  <g id="patch_1">
   <path d="M 0 172.8 
L 223.2 172.8 
L 223.2 0 
L 0 0 
z
" style="fill: #ffffff"/>
  </g>
  <g id="axes_1">
   <g id="patch_2">
    <path d="M 89.976 96.704531 
L 194.708249 96.704531 
L 194.708249 19.44 
L 89.976 19.44 
z
" style="fill: #ffffff"/>
   </g>
   <g id="matplotlib.axis_1">
    <g id="xtick_1">
     <g id="line2d_1">
      <defs>
       <path id="m1f68d20642" d="M 0 0 
L 0 9 
" style="stroke: #1a1a1a; stroke-width: 1.875"/>
      </defs>
      <g>
       <use xlink:href="#m1f68d20642" x="94.736557" y="96.704531" style="fill: #1a1a1a; stroke: #1a1a1a; stroke-width: 1.875"/>
      </g>
     </g>
     <g id="text_1">
      <!-- $\mathdefault{10^{0}}$ -->
      <g style="fill: #1a1a1a" transform="translate(81.784057 126.220156) scale(0.165 -0.165)">
       <defs>
        <path id="ArialMT-31" d="M 2384 0 
L 1822 0 
L 1822 3584 
Q 1619 3391 1289 3197 
Q 959 3003 697 2906 
L 697 3450 
Q 1169 3672 1522 3987 
Q 1875 4303 2022 4600 
L 2384 4600 
L 2384 0 
z
" transform="scale(0.015625)"/>
        <path id="ArialMT-30" d="M 266 2259 
Q 266 3072 433 3567 
Q 600 4063 929 4331 
Q 1259 4600 1759 4600 
Q 2128 4600 2406 4451 
Q 2684 4303 2865 4023 
Q 3047 3744 3150 3342 
Q 3253 2941 3253 2259 
Q 3253 1453 3087 958 
Q 2922 463 2592 192 
Q 2263 -78 1759 -78 
Q 1097 -78 719 397 
Q 266 969 266 2259 
z
M 844 2259 
Q 844 1131 1108 757 
Q 1372 384 1759 384 
Q 2147 384 2411 759 
Q 2675 1134 2675 2259 
Q 2675 3391 2411 3762 
Q 2147 4134 1753 4134 
Q 1366 4134 1134 3806 
Q 844 3388 844 2259 
z
" transform="scale(0.015625)"/>
       </defs>
       <use xlink:href="#ArialMT-31" transform="translate(0 0.99375)"/>
       <use xlink:href="#ArialMT-30" transform="translate(55.615234 0.99375)"/>
       <use xlink:href="#ArialMT-30" transform="translate(112.972813 70.6875) scale(0.7)"/>
      </g>
     </g>
    </g>
    <g id="xtick_2">
     <g id="line2d_2">
      <g>
       <use xlink:href="#m1f68d20642" x="143.524126" y="96.704531" style="fill: #1a1a1a; stroke: #1a1a1a; stroke-width: 1.875"/>
      </g>
     </g>
     <g id="text_2">
      <!-- $\mathdefault{10^{2}}$ -->
      <g style="fill: #1a1a1a" transform="translate(130.571626 126.220156) scale(0.165 -0.165)">
       <defs>
        <path id="ArialMT-32" d="M 3222 541 
L 3222 0 
L 194 0 
Q 188 203 259 391 
Q 375 700 629 1000 
Q 884 1300 1366 1694 
Q 2113 2306 2375 2664 
Q 2638 3022 2638 3341 
Q 2638 3675 2398 3904 
Q 2159 4134 1775 4134 
Q 1369 4134 1125 3890 
Q 881 3647 878 3216 
L 300 3275 
Q 359 3922 746 4261 
Q 1134 4600 1788 4600 
Q 2447 4600 2831 4234 
Q 3216 3869 3216 3328 
Q 3216 3053 3103 2787 
Q 2991 2522 2730 2228 
Q 2469 1934 1863 1422 
Q 1356 997 1212 845 
Q 1069 694 975 541 
L 3222 541 
z
" transform="scale(0.015625)"/>
       </defs>
       <use xlink:href="#ArialMT-31" transform="translate(0 0.99375)"/>
       <use xlink:href="#ArialMT-30" transform="translate(55.615234 0.99375)"/>
       <use xlink:href="#ArialMT-32" transform="translate(112.972813 70.6875) scale(0.7)"/>
      </g>
     </g>
    </g>
    <g id="xtick_3">
     <g id="line2d_3">
      <g>
       <use xlink:href="#m1f68d20642" x="192.311695" y="96.704531" style="fill: #1a1a1a; stroke: #1a1a1a; stroke-width: 1.875"/>
      </g>
     </g>
     <g id="text_3">
      <!-- $\mathdefault{10^{4}}$ -->
      <g style="fill: #1a1a1a" transform="translate(179.359195 126.055156) scale(0.165 -0.165)">
       <defs>
        <path id="ArialMT-34" d="M 2069 0 
L 2069 1097 
L 81 1097 
L 81 1613 
L 2172 4581 
L 2631 4581 
L 2631 1613 
L 3250 1613 
L 3250 1097 
L 2631 1097 
L 2631 0 
L 2069 0 
z
M 2069 1613 
L 2069 3678 
L 634 1613 
L 2069 1613 
z
" transform="scale(0.015625)"/>
       </defs>
       <use xlink:href="#ArialMT-31" transform="translate(0 0.201563)"/>
       <use xlink:href="#ArialMT-30" transform="translate(55.615234 0.201563)"/>
       <use xlink:href="#ArialMT-34" transform="translate(112.972813 69.895313) scale(0.7)"/>
      </g>
     </g>
    </g>
    <g id="text_4">
     <!-- Training Step -->
     <g style="fill: #262626" transform="translate(89.153531 146.602969) scale(0.18 -0.18)">
      <defs>
       <path id="ArialMT-54" d="M 1659 0 
L 1659 4041 
L 150 4041 
L 150 4581 
L 3781 4581 
L 3781 4041 
L 2266 4041 
L 2266 0 
L 1659 0 
z
" transform="scale(0.015625)"/>
       <path id="ArialMT-72" d="M 416 0 
L 416 3319 
L 922 3319 
L 922 2816 
Q 1116 3169 1280 3281 
Q 1444 3394 1641 3394 
Q 1925 3394 2219 3213 
L 2025 2691 
Q 1819 2813 1613 2813 
Q 1428 2813 1281 2702 
Q 1134 2591 1072 2394 
Q 978 2094 978 1738 
L 978 0 
L 416 0 
z
" transform="scale(0.015625)"/>
       <path id="ArialMT-61" d="M 2588 409 
Q 2275 144 1986 34 
Q 1697 -75 1366 -75 
Q 819 -75 525 192 
Q 231 459 231 875 
Q 231 1119 342 1320 
Q 453 1522 633 1644 
Q 813 1766 1038 1828 
Q 1203 1872 1538 1913 
Q 2219 1994 2541 2106 
Q 2544 2222 2544 2253 
Q 2544 2597 2384 2738 
Q 2169 2928 1744 2928 
Q 1347 2928 1158 2789 
Q 969 2650 878 2297 
L 328 2372 
Q 403 2725 575 2942 
Q 747 3159 1072 3276 
Q 1397 3394 1825 3394 
Q 2250 3394 2515 3294 
Q 2781 3194 2906 3042 
Q 3031 2891 3081 2659 
Q 3109 2516 3109 2141 
L 3109 1391 
Q 3109 606 3145 398 
Q 3181 191 3288 0 
L 2700 0 
Q 2613 175 2588 409 
z
M 2541 1666 
Q 2234 1541 1622 1453 
Q 1275 1403 1131 1340 
Q 988 1278 909 1158 
Q 831 1038 831 891 
Q 831 666 1001 516 
Q 1172 366 1500 366 
Q 1825 366 2078 508 
Q 2331 650 2450 897 
Q 2541 1088 2541 1459 
L 2541 1666 
z
" transform="scale(0.015625)"/>
       <path id="ArialMT-69" d="M 425 3934 
L 425 4581 
L 988 4581 
L 988 3934 
L 425 3934 
z
M 425 0 
L 425 3319 
L 988 3319 
L 988 0 
L 425 0 
z
" transform="scale(0.015625)"/>
       <path id="ArialMT-6e" d="M 422 0 
L 422 3319 
L 928 3319 
L 928 2847 
Q 1294 3394 1984 3394 
Q 2284 3394 2536 3286 
Q 2788 3178 2913 3003 
Q 3038 2828 3088 2588 
Q 3119 2431 3119 2041 
L 3119 0 
L 2556 0 
L 2556 2019 
Q 2556 2363 2490 2533 
Q 2425 2703 2258 2804 
Q 2091 2906 1866 2906 
Q 1506 2906 1245 2678 
Q 984 2450 984 1813 
L 984 0 
L 422 0 
z
" transform="scale(0.015625)"/>
       <path id="ArialMT-67" d="M 319 -275 
L 866 -356 
Q 900 -609 1056 -725 
Q 1266 -881 1628 -881 
Q 2019 -881 2231 -725 
Q 2444 -569 2519 -288 
Q 2563 -116 2559 434 
Q 2191 0 1641 0 
Q 956 0 581 494 
Q 206 988 206 1678 
Q 206 2153 378 2554 
Q 550 2956 876 3175 
Q 1203 3394 1644 3394 
Q 2231 3394 2613 2919 
L 2613 3319 
L 3131 3319 
L 3131 450 
Q 3131 -325 2973 -648 
Q 2816 -972 2473 -1159 
Q 2131 -1347 1631 -1347 
Q 1038 -1347 672 -1080 
Q 306 -813 319 -275 
z
M 784 1719 
Q 784 1066 1043 766 
Q 1303 466 1694 466 
Q 2081 466 2343 764 
Q 2606 1063 2606 1700 
Q 2606 2309 2336 2618 
Q 2066 2928 1684 2928 
Q 1309 2928 1046 2623 
Q 784 2319 784 1719 
z
" transform="scale(0.015625)"/>
       <path id="ArialMT-20" transform="scale(0.015625)"/>
       <path id="ArialMT-53" d="M 288 1472 
L 859 1522 
Q 900 1178 1048 958 
Q 1197 738 1509 602 
Q 1822 466 2213 466 
Q 2559 466 2825 569 
Q 3091 672 3220 851 
Q 3350 1031 3350 1244 
Q 3350 1459 3225 1620 
Q 3100 1781 2813 1891 
Q 2628 1963 1997 2114 
Q 1366 2266 1113 2400 
Q 784 2572 623 2826 
Q 463 3081 463 3397 
Q 463 3744 659 4045 
Q 856 4347 1234 4503 
Q 1613 4659 2075 4659 
Q 2584 4659 2973 4495 
Q 3363 4331 3572 4012 
Q 3781 3694 3797 3291 
L 3216 3247 
Q 3169 3681 2898 3903 
Q 2628 4125 2100 4125 
Q 1550 4125 1298 3923 
Q 1047 3722 1047 3438 
Q 1047 3191 1225 3031 
Q 1400 2872 2139 2705 
Q 2878 2538 3153 2413 
Q 3553 2228 3743 1945 
Q 3934 1663 3934 1294 
Q 3934 928 3725 604 
Q 3516 281 3123 101 
Q 2731 -78 2241 -78 
Q 1619 -78 1198 103 
Q 778 284 539 648 
Q 300 1013 288 1472 
z
" transform="scale(0.015625)"/>
       <path id="ArialMT-74" d="M 1650 503 
L 1731 6 
Q 1494 -44 1306 -44 
Q 1000 -44 831 53 
Q 663 150 594 308 
Q 525 466 525 972 
L 525 2881 
L 113 2881 
L 113 3319 
L 525 3319 
L 525 4141 
L 1084 4478 
L 1084 3319 
L 1650 3319 
L 1650 2881 
L 1084 2881 
L 1084 941 
Q 1084 700 1114 631 
Q 1144 563 1211 522 
Q 1278 481 1403 481 
Q 1497 481 1650 503 
z
" transform="scale(0.015625)"/>
       <path id="ArialMT-65" d="M 2694 1069 
L 3275 997 
Q 3138 488 2766 206 
Q 2394 -75 1816 -75 
Q 1088 -75 661 373 
Q 234 822 234 1631 
Q 234 2469 665 2931 
Q 1097 3394 1784 3394 
Q 2450 3394 2872 2941 
Q 3294 2488 3294 1666 
Q 3294 1616 3291 1516 
L 816 1516 
Q 847 969 1125 678 
Q 1403 388 1819 388 
Q 2128 388 2347 550 
Q 2566 713 2694 1069 
z
M 847 1978 
L 2700 1978 
Q 2663 2397 2488 2606 
Q 2219 2931 1791 2931 
Q 1403 2931 1139 2672 
Q 875 2413 847 1978 
z
" transform="scale(0.015625)"/>
       <path id="ArialMT-70" d="M 422 -1272 
L 422 3319 
L 934 3319 
L 934 2888 
Q 1116 3141 1344 3267 
Q 1572 3394 1897 3394 
Q 2322 3394 2647 3175 
Q 2972 2956 3137 2557 
Q 3303 2159 3303 1684 
Q 3303 1175 3120 767 
Q 2938 359 2589 142 
Q 2241 -75 1856 -75 
Q 1575 -75 1351 44 
Q 1128 163 984 344 
L 984 -1272 
L 422 -1272 
z
M 931 1641 
Q 931 1000 1190 694 
Q 1450 388 1819 388 
Q 2194 388 2461 705 
Q 2728 1022 2728 1688 
Q 2728 2322 2467 2637 
Q 2206 2953 1844 2953 
Q 1484 2953 1207 2617 
Q 931 2281 931 1641 
z
" transform="scale(0.015625)"/>
      </defs>
      <use xlink:href="#ArialMT-54"/>
      <use xlink:href="#ArialMT-72" x="57.333984"/>
      <use xlink:href="#ArialMT-61" x="90.634766"/>
      <use xlink:href="#ArialMT-69" x="146.25"/>
      <use xlink:href="#ArialMT-6e" x="168.466797"/>
      <use xlink:href="#ArialMT-69" x="224.082031"/>
      <use xlink:href="#ArialMT-6e" x="246.298828"/>
      <use xlink:href="#ArialMT-67" x="301.914062"/>
      <use xlink:href="#ArialMT-20" x="357.529297"/>
      <use xlink:href="#ArialMT-53" x="385.3125"/>
      <use xlink:href="#ArialMT-74" x="452.011719"/>
      <use xlink:href="#ArialMT-65" x="479.794922"/>
      <use xlink:href="#ArialMT-70" x="535.410156"/>
     </g>
    </g>
   </g>
   <g id="matplotlib.axis_2">
    <g id="ytick_1">
     <g id="line2d_4">
      <defs>
       <path id="mee9237b2cf" d="M 0 0 
L -9 0 
" style="stroke: #1a1a1a; stroke-width: 1.875"/>
      </defs>
      <g>
       <use xlink:href="#mee9237b2cf" x="89.976" y="90.229925" style="fill: #1a1a1a; stroke: #1a1a1a; stroke-width: 1.875"/>
      </g>
     </g>
     <g id="text_5">
      <!-- −0.25 -->
      <g style="fill: #1a1a1a" transform="translate(35.728422 96.13512) scale(0.165 -0.165)">
       <defs>
        <path id="ArialMT-2212" d="M 3381 1997 
L 356 1997 
L 356 2522 
L 3381 2522 
L 3381 1997 
z
" transform="scale(0.015625)"/>
        <path id="ArialMT-2e" d="M 581 0 
L 581 641 
L 1222 641 
L 1222 0 
L 581 0 
z
" transform="scale(0.015625)"/>
        <path id="ArialMT-35" d="M 266 1200 
L 856 1250 
Q 922 819 1161 601 
Q 1400 384 1738 384 
Q 2144 384 2425 690 
Q 2706 997 2706 1503 
Q 2706 1984 2436 2262 
Q 2166 2541 1728 2541 
Q 1456 2541 1237 2417 
Q 1019 2294 894 2097 
L 366 2166 
L 809 4519 
L 3088 4519 
L 3088 3981 
L 1259 3981 
L 1013 2750 
Q 1425 3038 1878 3038 
Q 2478 3038 2890 2622 
Q 3303 2206 3303 1553 
Q 3303 931 2941 478 
Q 2500 -78 1738 -78 
Q 1113 -78 717 272 
Q 322 622 266 1200 
z
" transform="scale(0.015625)"/>
       </defs>
       <use xlink:href="#ArialMT-2212"/>
       <use xlink:href="#ArialMT-30" x="58.398438"/>
       <use xlink:href="#ArialMT-2e" x="114.013672"/>
       <use xlink:href="#ArialMT-32" x="141.796875"/>
       <use xlink:href="#ArialMT-35" x="197.412109"/>
      </g>
     </g>
    </g>
    <g id="ytick_2">
     <g id="line2d_5">
      <g>
       <use xlink:href="#mee9237b2cf" x="89.976" y="58.072281" style="fill: #1a1a1a; stroke: #1a1a1a; stroke-width: 1.875"/>
      </g>
     </g>
     <g id="text_6">
      <!-- 0.00 -->
      <g style="fill: #1a1a1a" transform="translate(45.365453 63.977476) scale(0.165 -0.165)">
       <use xlink:href="#ArialMT-30"/>
       <use xlink:href="#ArialMT-2e" x="55.615234"/>
       <use xlink:href="#ArialMT-30" x="83.398438"/>
       <use xlink:href="#ArialMT-30" x="139.013672"/>
      </g>
     </g>
    </g>
    <g id="ytick_3">
     <g id="line2d_6">
      <g>
       <use xlink:href="#mee9237b2cf" x="89.976" y="25.914637" style="fill: #1a1a1a; stroke: #1a1a1a; stroke-width: 1.875"/>
      </g>
     </g>
     <g id="text_7">
      <!-- 0.25 -->
      <g style="fill: #1a1a1a" transform="translate(45.365453 31.819832) scale(0.165 -0.165)">
       <use xlink:href="#ArialMT-30"/>
       <use xlink:href="#ArialMT-2e" x="55.615234"/>
       <use xlink:href="#ArialMT-32" x="83.398438"/>
       <use xlink:href="#ArialMT-35" x="139.013672"/>
      </g>
     </g>
    </g>
    <g id="text_8">
     <!-- ${\bf W}_2{\bf W}_1$ -->
     <g style="fill: #262626" transform="translate(27.753422 89.872266) rotate(-90) scale(0.2 -0.2)">
      <defs>
       <path id="DejaVuSans-Bold-57" d="M 191 4666 
L 1344 4666 
L 2150 1275 
L 2950 4666 
L 4109 4666 
L 4909 1275 
L 5716 4666 
L 6859 4666 
L 5759 0 
L 4372 0 
L 3525 3547 
L 2688 0 
L 1300 0 
L 191 4666 
z
" transform="scale(0.015625)"/>
       <path id="DejaVuSans-32" d="M 1228 531 
L 3431 531 
L 3431 0 
L 469 0 
L 469 531 
Q 828 903 1448 1529 
Q 2069 2156 2228 2338 
Q 2531 2678 2651 2914 
Q 2772 3150 2772 3378 
Q 2772 3750 2511 3984 
Q 2250 4219 1831 4219 
Q 1534 4219 1204 4116 
Q 875 4013 500 3803 
L 500 4441 
Q 881 4594 1212 4672 
Q 1544 4750 1819 4750 
Q 2544 4750 2975 4387 
Q 3406 4025 3406 3419 
Q 3406 3131 3298 2873 
Q 3191 2616 2906 2266 
Q 2828 2175 2409 1742 
Q 1991 1309 1228 531 
z
" transform="scale(0.015625)"/>
       <path id="DejaVuSans-31" d="M 794 531 
L 1825 531 
L 1825 4091 
L 703 3866 
L 703 4441 
L 1819 4666 
L 2450 4666 
L 2450 531 
L 3481 531 
L 3481 0 
L 794 0 
L 794 531 
z
" transform="scale(0.015625)"/>
      </defs>
      <use xlink:href="#DejaVuSans-Bold-57" transform="translate(0 0.09375)"/>
      <use xlink:href="#DejaVuSans-32" transform="translate(111.259766 -16.3125) scale(0.7)"/>
      <use xlink:href="#DejaVuSans-Bold-57" transform="translate(158.530273 0.09375)"/>
      <use xlink:href="#DejaVuSans-31" transform="translate(269.790039 -16.3125) scale(0.7)"/>
     </g>
    </g>
   </g>
   <g id="line2d_7">
    <path d="M -1 50.314901 
L 94.736557 50.315647 
L 106.37535 50.676685 
L 113.718611 51.174931 
L 119.130341 51.769284 
L 124.1096 52.537623 
L 129.253112 53.569203 
L 135.525352 55.086976 
L 147.748794 58.334105 
L 150.379593 59.257398 
L 152.301875 60.165535 
L 154.124906 61.27866 
L 156.520021 63.039622 
L 158.651591 64.511716 
L 160.031244 65.19652 
L 161.389981 65.622586 
L 162.972498 65.875919 
L 165.285689 65.996141 
L 171.91984 66.019006 
L 189.947693 66.019006 
L 189.947693 66.019006 
" clip-path="url(#pfc503558d1)" style="fill: none; stroke: #cc78a6; stroke-width: 2.25; stroke-linecap: round"/>
   </g>
   <g id="line2d_8">
    <path d="M -1 47.191793 
L 94.736557 47.193627 
L 102.079818 47.632915 
L 109.423078 48.436649 
L 113.718611 49.153696 
L 118.014143 50.094408 
L 122.694957 51.380742 
L 128.405132 53.23765 
L 138.287508 56.509347 
L 145.803034 58.888697 
L 147.605629 59.758042 
L 149.083145 60.720676 
L 150.434915 61.872218 
L 151.78036 63.3162 
L 155.945502 68.074503 
L 156.946278 68.687889 
L 157.996618 69.070215 
L 159.316246 69.299303 
L 161.389981 69.402366 
L 168.898702 69.418277 
L 189.947693 69.418273 
L 189.947693 69.418273 
" clip-path="url(#pfc503558d1)" style="fill: none; stroke: #cc78a6; stroke-width: 2.25; stroke-linecap: round"/>
   </g>
   <g id="line2d_9">
    <path d="M -1 90.388974 
L 94.736557 90.377928 
L 102.079818 87.889251 
L 106.37535 85.674108 
L 109.423078 83.690848 
L 111.78708 81.905906 
L 115.351696 78.826358 
L 119.130341 75.147408 
L 128.837604 65.358199 
L 131.778859 62.838898 
L 134.33375 60.951974 
L 137.381479 59.011111 
L 140.334192 57.096708 
L 141.677011 55.943441 
L 142.640774 54.844991 
L 143.524126 53.515603 
L 144.339458 51.895967 
L 145.187437 49.677172 
L 146.056291 46.712465 
L 147.012798 42.601097 
L 150.211873 27.933638 
L 150.972801 25.912172 
L 151.633558 24.73357 
L 152.301875 23.967071 
L 153.017359 23.479739 
L 153.888597 23.173615 
L 155.092055 23.010539 
L 157.555134 22.954294 
L 189.947693 22.952062 
L 189.947693 22.952062 
" clip-path="url(#pfc503558d1)" style="fill: none; stroke: #cc78a6; stroke-width: 2.25; stroke-linecap: round"/>
   </g>
   <g id="line2d_10">
    <path d="M -1 46.074401 
L 94.736557 46.077754 
L 102.079818 46.8499 
L 106.37535 47.550858 
L 111.78708 48.774402 
L 116.766339 50.261843 
L 121.909851 52.100529 
L 132.40222 55.960597 
L 136.798171 57.268363 
L 141.926295 58.788737 
L 143.524126 59.51564 
L 144.72474 60.289611 
L 145.803034 61.239282 
L 146.859258 62.466034 
L 148.098466 64.285322 
L 151.128982 68.975959 
L 152.020599 69.846323 
L 152.886835 70.381514 
L 153.848694 70.699648 
L 155.127546 70.863541 
L 157.778176 70.917824 
L 189.136068 70.92124 
L 189.947693 70.92124 
L 189.947693 70.92124 
" clip-path="url(#pfc503558d1)" style="fill: none; stroke: #cc78a6; stroke-width: 2.25; stroke-linecap: round"/>
   </g>
   <g id="line2d_11">
    <path d="M -1 64.186983 
L 94.736557 64.186394 
L 106.37535 63.901205 
L 113.718611 63.507697 
L 120.140065 62.929734 
L 125.930196 62.164657 
L 132.095123 61.095626 
L 142.755306 58.941442 
L 149.392032 57.479497 
L 151.633558 56.751438 
L 153.565088 55.888158 
L 155.746857 54.652682 
L 158.752729 52.960021 
L 160.251962 52.39356 
L 161.794164 52.054757 
L 163.738277 51.872796 
L 167.273661 51.810564 
L 189.947693 51.807992 
L 189.947693 51.807992 
" clip-path="url(#pfc503558d1)" style="fill: none; stroke: #cc78a6; stroke-width: 2.25; stroke-linecap: round"/>
   </g>
   <g id="line2d_12">
    <path d="M -1 38.138114 
L 94.736557 38.141484 
L 102.079818 38.948426 
L 106.37535 39.708155 
L 109.423078 40.424598 
L 113.718611 41.741279 
L 116.766339 42.922354 
L 120.140065 44.481053 
L 124.1096 46.629379 
L 128.837604 49.503651 
L 136.390656 54.126407 
L 140.190053 56.163809 
L 146.384816 59.401881 
L 147.748794 60.430121 
L 148.829382 61.51545 
L 149.809881 62.817507 
L 150.760912 64.452074 
L 151.828846 66.752304 
L 153.523946 71.055433 
L 154.94889 74.432385 
L 155.912652 76.164827 
L 156.765692 77.249214 
L 157.583272 77.937556 
L 158.472243 78.390536 
L 159.528844 78.668641 
L 161.051101 78.817102 
L 164.43771 78.860965 
L 189.947693 78.861653 
L 189.947693 78.861653 
" clip-path="url(#pfc503558d1)" style="fill: none; stroke: #cc78a6; stroke-width: 2.25; stroke-linecap: round"/>
   </g>
   <g id="line2d_13">
    <path d="M -1 59.795413 
L 94.736557 59.794829 
L 109.423078 59.441346 
L 121.909851 58.840026 
L 134.826587 58.246461 
L 146.624693 57.786254 
L 148.436964 57.379336 
L 152.255511 56.39988 
L 154.241113 56.242447 
L 158.420438 56.201136 
L 189.947693 56.200882 
L 189.947693 56.200882 
" clip-path="url(#pfc503558d1)" style="fill: none; stroke: #cc78a6; stroke-width: 2.25; stroke-linecap: round"/>
   </g>
   <g id="line2d_14">
    <path d="M -1 76.659783 
L 94.736557 76.654621 
L 102.079818 75.46616 
L 106.37535 74.387516 
L 109.423078 73.404536 
L 113.718611 71.680228 
L 118.014143 69.569958 
L 122.694957 66.941836 
L 130.409978 62.543842 
L 133.816863 60.881983 
L 136.996197 59.583161 
L 143.310096 57.139059 
L 144.53385 56.339186 
L 145.543574 55.416396 
L 146.46538 54.267135 
L 147.387186 52.736605 
L 148.370124 50.633868 
L 149.692168 47.20077 
L 151.434602 42.775143 
L 152.348037 41.047331 
L 153.188927 39.91569 
L 154.00741 39.181433 
L 154.876575 38.700993 
L 155.912652 38.395068 
L 157.327295 38.229639 
L 160.142178 38.175182 
L 189.947693 38.174569 
L 189.947693 38.174569 
" clip-path="url(#pfc503558d1)" style="fill: none; stroke: #cc78a6; stroke-width: 2.25; stroke-linecap: round"/>
   </g>
   <g id="line2d_15">
    <path d="M -1 59.791957 
L 106.37535 59.710395 
L 120.140065 59.43373 
L 130.769134 58.983721 
L 151.584168 57.784352 
L 154.912794 57.276178 
L 159.896571 56.507352 
L 162.767775 56.346934 
L 168.604947 56.310025 
L 189.947693 56.309871 
L 189.947693 56.309871 
" clip-path="url(#pfc503558d1)" style="fill: none; stroke: #cc78a6; stroke-width: 2.25; stroke-linecap: round"/>
   </g>
   <g id="line2d_16">
    <path d="M -1 69.485099 
L 94.736557 69.483178 
L 102.079818 69.023132 
L 109.423078 68.181329 
L 113.718611 67.430231 
L 118.014143 66.444702 
L 122.694957 65.096785 
L 127.954252 63.311243 
L 138.960374 59.489326 
L 144.629725 57.575753 
L 146.545336 56.665968 
L 148.098466 55.67737 
L 149.632817 54.42686 
L 151.231838 52.827599 
L 153.017359 50.702588 
L 155.092055 48.279701 
L 156.172643 47.370845 
L 157.182367 46.810325 
L 158.289807 46.458537 
L 159.714303 46.258746 
L 162.165274 46.17906 
L 176.751029 46.171995 
L 189.947693 46.171995 
L 189.947693 46.171995 
" clip-path="url(#pfc503558d1)" style="fill: none; stroke: #cc78a6; stroke-width: 2.25; stroke-linecap: round"/>
   </g>
   <g id="line2d_17">
    <path d="M -1 89.322907 
L 94.736557 89.312233 
L 102.079818 86.907479 
L 106.37535 84.767092 
L 109.423078 82.850819 
L 111.78708 81.126234 
L 115.351696 78.151016 
L 119.130341 74.597214 
L 128.837604 65.149727 
L 131.778859 62.725951 
L 134.33375 60.918939 
L 137.190589 59.189716 
L 140.616718 57.111543 
L 141.926295 56.026844 
L 142.98072 54.837528 
L 143.837274 53.53377 
L 144.629725 51.941276 
L 145.455656 49.762886 
L 146.303635 46.867672 
L 147.31336 42.543367 
L 150.155371 29.667398 
L 150.920225 27.479554 
L 151.633558 26.08981 
L 152.301875 25.250025 
L 153.017359 24.707832 
L 153.848694 24.373954 
L 154.94889 24.190797 
L 157.005795 24.118206 
L 172.042566 24.112602 
L 189.947693 24.112602 
L 189.947693 24.112602 
" clip-path="url(#pfc503558d1)" style="fill: none; stroke: #cc78a6; stroke-width: 2.25; stroke-linecap: round"/>
   </g>
   <g id="line2d_18">
    <path d="M -1 82.522327 
L 94.736557 82.515492 
L 102.079818 80.941868 
L 106.37535 79.513392 
L 109.423078 78.211355 
L 113.718611 75.926616 
L 116.766339 73.989708 
L 121.061871 70.89278 
L 131.778859 62.826652 
L 134.826587 60.917353 
L 138.112395 59.141761 
L 141.926295 57.091086 
L 143.310096 56.091982 
L 144.4371 55.000538 
L 145.367002 53.793742 
L 146.221827 52.33396 
L 147.088741 50.408886 
L 148.029449 47.737683 
L 149.269556 43.421481 
L 151.077177 37.153053 
L 151.925157 35.017098 
L 152.665656 33.719969 
L 153.357761 32.927217 
L 154.085885 32.423004 
L 154.94889 32.111165 
L 156.140491 31.945317 
L 158.575099 31.89002 
L 189.947693 31.887678 
L 189.947693 31.887678 
" clip-path="url(#pfc503558d1)" style="fill: none; stroke: #cc78a6; stroke-width: 2.25; stroke-linecap: round"/>
   </g>
   <g id="line2d_19">
    <path d="M -1 47.414596 
L 94.736557 47.415616 
L 106.37535 47.909595 
L 111.78708 48.371596 
L 116.766339 49.011049 
L 121.061871 49.776665 
L 125.357404 50.77096 
L 130.038218 52.114238 
L 135.525352 53.954565 
L 145.367002 57.541411 
L 148.569392 58.911895 
L 150.814283 60.104882 
L 152.620861 61.312503 
L 154.279567 62.698815 
L 156.395016 64.797457 
L 158.523796 66.823765 
L 159.805829 67.73477 
L 160.990157 68.306923 
L 162.274118 68.674794 
L 163.878804 68.888508 
L 166.491153 68.978927 
L 178.549804 68.988965 
L 189.947693 68.988965 
L 189.947693 68.988965 
" clip-path="url(#pfc503558d1)" style="fill: none; stroke: #cc78a6; stroke-width: 2.25; stroke-linecap: round"/>
   </g>
   <g id="line2d_20">
    <path d="M -1 56.396239 
L 102.079818 56.465434 
L 115.351696 56.755087 
L 126.990489 57.263417 
L 141.026863 57.883474 
L 145.717252 57.862096 
L 149.751188 57.834171 
L 151.180535 58.085515 
L 152.930522 58.646097 
L 155.407274 59.418802 
L 157.094449 59.685887 
L 159.411261 59.801727 
L 166.575664 59.821388 
L 189.947693 59.821407 
L 189.947693 59.821407 
" clip-path="url(#pfc503558d1)" style="fill: none; stroke: #cc78a6; stroke-width: 2.25; stroke-linecap: round"/>
   </g>
   <g id="line2d_21">
    <path d="M -1 40.581336 
L 94.736557 40.587318 
L 102.079818 41.935016 
L 106.37535 43.13461 
L 109.423078 44.208648 
L 113.718611 46.049424 
L 118.014143 48.228553 
L 130.769134 55.062268 
L 134.078459 56.443107 
L 138.287508 57.913478 
L 140.891905 58.926928 
L 142.289556 59.707935 
L 143.417652 60.607078 
L 144.339458 61.626366 
L 145.2776 63.030113 
L 146.221827 64.898139 
L 147.31336 67.610777 
L 149.632817 73.590906 
L 150.434915 74.995487 
L 151.180535 75.880072 
L 151.925157 76.431429 
L 152.798917 76.787377 
L 153.928349 76.986643 
L 155.912652 77.071639 
L 165.969416 77.081438 
L 189.947693 77.081409 
L 189.947693 77.081409 
" clip-path="url(#pfc503558d1)" style="fill: none; stroke: #cc78a6; stroke-width: 2.25; stroke-linecap: round"/>
   </g>
   <g id="line2d_22">
    <path d="M -1 81.415834 
L 94.736557 81.409314 
L 102.079818 79.907931 
L 106.37535 78.545005 
L 109.423078 77.302684 
L 113.718611 75.122657 
L 116.766339 73.274416 
L 121.061871 70.319006 
L 132.095123 62.414383 
L 135.297513 60.52562 
L 139.122119 58.565005 
L 141.802386 57.097291 
L 143.201438 56.079703 
L 144.339458 54.966663 
L 145.2776 53.744718 
L 146.221827 52.128679 
L 147.164145 50.036582 
L 148.235166 47.041792 
L 150.323981 40.232655 
L 151.384274 37.291849 
L 152.208944 35.613033 
L 152.97403 34.545625 
L 153.728077 33.875557 
L 154.544907 33.456607 
L 155.544416 33.210167 
L 157.06498 33.094131 
L 161.718357 33.07454 
L 189.947693 33.073848 
L 189.947693 33.073848 
" clip-path="url(#pfc503558d1)" style="fill: none; stroke: #cc78a6; stroke-width: 2.25; stroke-linecap: round"/>
   </g>
   <g id="line2d_23">
    <path d="M -1 50.306862 
L 94.736557 50.307576 
L 106.37535 50.653433 
L 113.718611 51.13093 
L 119.130341 51.70052 
L 124.1096 52.435976 
L 129.652936 53.503873 
L 137.56899 55.318659 
L 143.837274 56.663749 
L 148.098466 57.352038 
L 152.11519 57.77267 
L 156.457703 57.995056 
L 162.853558 58.069386 
L 189.946368 58.085419 
L 189.946368 58.085419 
" clip-path="url(#pfc503558d1)" style="fill: none; stroke-dasharray: 3,6; stroke-dashoffset: 0; stroke: #000000; stroke-opacity: 0.6; stroke-width: 3"/>
   </g>
   <g id="line2d_24">
    <path d="M -1 47.179047 
L 94.736557 47.180831 
L 102.079818 47.60874 
L 109.423078 48.393255 
L 113.718611 49.094738 
L 118.014143 50.016932 
L 122.694957 51.280245 
L 128.405132 53.102583 
L 136.596372 55.734449 
L 140.476397 56.723455 
L 143.837274 57.353265 
L 147.239015 57.761822 
L 151.077177 57.987664 
L 156.765692 58.068074 
L 189.946368 58.072281 
L 189.946368 58.072281 
" clip-path="url(#pfc503558d1)" style="fill: none; stroke-dasharray: 3,6; stroke-dashoffset: 0; stroke: #000000; stroke-opacity: 0.6; stroke-width: 3"/>
   </g>
   <g id="line2d_25">
    <path d="M -1 90.504181 
L 94.736557 90.493588 
L 102.079818 88.090721 
L 106.37535 85.939414 
L 109.423078 84.003657 
L 111.78708 82.253987 
L 115.351696 79.219599 
L 119.130341 75.571121 
L 129.253112 65.428367 
L 131.778859 63.328247 
L 134.078459 61.713475 
L 136.180865 60.517027 
L 138.112395 59.661273 
L 140.190053 58.990351 
L 142.407927 58.525345 
L 144.91225 58.24118 
L 148.30286 58.101412 
L 156.395016 58.0723 
L 189.946368 58.072281 
L 189.946368 58.072281 
" clip-path="url(#pfc503558d1)" style="fill: none; stroke-dasharray: 3,6; stroke-dashoffset: 0; stroke: #000000; stroke-opacity: 0.6; stroke-width: 3"/>
   </g>
   <g id="line2d_26">
    <path d="M -1 46.042816 
L 94.736557 46.046044 
L 102.079818 46.792948 
L 106.37535 47.473699 
L 111.78708 48.667804 
L 116.766339 50.128417 
L 121.909851 51.944402 
L 131.778859 55.536943 
L 135.297513 56.541844 
L 138.459773 57.220942 
L 141.677011 57.679662 
L 145.187437 57.945471 
L 149.926301 58.058625 
L 165.854192 58.072281 
L 189.946368 58.072281 
L 189.946368 58.072281 
" clip-path="url(#pfc503558d1)" style="fill: none; stroke-dasharray: 3,6; stroke-dashoffset: 0; stroke: #000000; stroke-opacity: 0.6; stroke-width: 3"/>
   </g>
   <g id="line2d_27">
    <path d="M -1 64.193649 
L 94.736557 64.193086 
L 106.37535 63.920452 
L 113.718611 63.544049 
L 120.140065 62.991167 
L 125.930196 62.260609 
L 132.40222 61.193252 
L 145.2776 58.978779 
L 149.868251 58.471893 
L 154.469771 58.193079 
L 160.295559 58.083045 
L 183.296432 58.061925 
L 189.946368 58.061925 
L 189.946368 58.061925 
" clip-path="url(#pfc503558d1)" style="fill: none; stroke-dasharray: 3,6; stroke-dashoffset: 0; stroke: #000000; stroke-opacity: 0.6; stroke-width: 3"/>
   </g>
   <g id="line2d_28">
    <path d="M -1 38.112422 
L 94.736557 38.11569 
L 102.079818 38.899754 
L 106.37535 39.639075 
L 109.423078 40.337234 
L 113.718611 41.622575 
L 116.766339 42.77778 
L 120.140065 44.304996 
L 124.1096 46.413046 
L 128.837604 49.231484 
L 135.525352 53.213794 
L 138.629282 54.796262 
L 141.421719 55.96713 
L 143.939633 56.783412 
L 146.46538 57.36852 
L 149.145647 57.756998 
L 152.301875 57.980036 
L 157.094449 58.066139 
L 184.535962 58.072281 
L 189.946368 58.072281 
L 189.946368 58.072281 
" clip-path="url(#pfc503558d1)" style="fill: none; stroke-dasharray: 3,6; stroke-dashoffset: 0; stroke: #000000; stroke-opacity: 0.6; stroke-width: 3"/>
   </g>
   <g id="line2d_29">
    <path d="M -1 59.800438 
L 94.736557 59.799873 
L 109.423078 59.454053 
L 121.909851 58.852579 
L 135.064667 58.234571 
L 143.524126 58.088269 
L 164.319339 58.072281 
L 189.946368 58.072281 
L 189.946368 58.072281 
" clip-path="url(#pfc503558d1)" style="fill: none; stroke-dasharray: 3,6; stroke-dashoffset: 0; stroke: #000000; stroke-opacity: 0.6; stroke-width: 3"/>
   </g>
   <g id="line2d_30">
    <path d="M -1 76.700984 
L 94.736557 76.695984 
L 102.079818 75.539338 
L 106.37535 74.485132 
L 109.423078 73.520854 
L 113.718611 71.821461 
L 118.014143 69.728858 
L 122.694957 67.105517 
L 130.409978 62.695201 
L 133.548644 61.169344 
L 136.390656 60.039199 
L 138.960374 59.256595 
L 141.550134 58.701742 
L 144.339458 58.339007 
L 147.677453 58.141071 
L 153.231388 58.0745 
L 189.946368 58.072281 
L 189.946368 58.072281 
" clip-path="url(#pfc503558d1)" style="fill: none; stroke-dasharray: 3,6; stroke-dashoffset: 0; stroke: #000000; stroke-opacity: 0.6; stroke-width: 3"/>
   </g>
   <g id="line2d_31">
    <path d="M -1 59.794479 
L 106.37535 59.717617 
L 120.140065 59.45617 
L 131.452861 58.997988 
L 150.098566 58.179278 
L 159.292359 58.077344 
L 189.946368 58.069367 
L 189.946368 58.069367 
" clip-path="url(#pfc503558d1)" style="fill: none; stroke-dasharray: 3,6; stroke-dashoffset: 0; stroke: #000000; stroke-opacity: 0.6; stroke-width: 3"/>
   </g>
   <g id="line2d_32">
    <path d="M -1 69.497707 
L 94.736557 69.495836 
L 102.079818 69.047023 
L 109.423078 68.224179 
L 113.718611 67.488423 
L 118.014143 66.521175 
L 122.694957 65.196142 
L 128.405132 63.284773 
L 136.596372 60.524327 
L 140.334192 59.520114 
L 143.62954 58.860329 
L 146.936306 58.426783 
L 150.599167 58.179323 
L 155.746857 58.080828 
L 178.584697 58.072281 
L 189.946368 58.072281 
L 189.946368 58.072281 
" clip-path="url(#pfc503558d1)" style="fill: none; stroke-dasharray: 3,6; stroke-dashoffset: 0; stroke: #000000; stroke-opacity: 0.6; stroke-width: 3"/>
   </g>
   <g id="line2d_33">
    <path d="M -1 89.432456 
L 94.736557 89.422214 
L 102.079818 87.098746 
L 106.37535 85.018531 
L 109.423078 83.146741 
L 111.78708 81.454892 
L 115.351696 78.520777 
L 119.130341 74.992864 
L 129.253112 65.185282 
L 131.778859 63.154561 
L 134.078459 61.593151 
L 136.180865 60.436239 
L 138.287508 59.544706 
L 140.334192 58.923651 
L 142.52499 58.49265 
L 145.0965 58.22275 
L 148.700184 58.094332 
L 158.472243 58.072282 
L 189.946368 58.072281 
L 189.946368 58.072281 
" clip-path="url(#pfc503558d1)" style="fill: none; stroke-dasharray: 3,6; stroke-dashoffset: 0; stroke: #000000; stroke-opacity: 0.6; stroke-width: 3"/>
   </g>
   <g id="line2d_34">
    <path d="M -1 82.586879 
L 94.736557 82.580299 
L 102.079818 81.058203 
L 106.37535 79.670912 
L 109.423078 78.401964 
L 113.718611 76.165634 
L 116.766339 74.260921 
L 120.140065 71.887488 
L 126.473602 67.043157 
L 130.409978 64.155852 
L 133.273457 62.309851 
L 135.748393 60.965819 
L 138.112395 59.936516 
L 140.334192 59.206122 
L 142.640774 58.679268 
L 145.187437 58.330704 
L 148.370124 58.136887 
L 153.768436 58.074167 
L 189.946368 58.072281 
L 189.946368 58.072281 
" clip-path="url(#pfc503558d1)" style="fill: none; stroke-dasharray: 3,6; stroke-dashoffset: 0; stroke: #000000; stroke-opacity: 0.6; stroke-width: 3"/>
   </g>
   <g id="line2d_35">
    <path d="M -1 47.404663 
L 94.736557 47.405644 
L 106.37535 47.880759 
L 111.78708 48.325155 
L 116.766339 48.940132 
L 121.061871 49.675902 
L 125.357404 50.629469 
L 130.038218 51.910251 
L 136.798171 54.042416 
L 142.868612 55.880423 
L 146.70346 56.809284 
L 150.155371 57.417662 
L 153.646896 57.801957 
L 157.639326 58.005959 
L 163.971465 58.070502 
L 189.946368 58.090329 
L 189.946368 58.090329 
" clip-path="url(#pfc503558d1)" style="fill: none; stroke-dasharray: 3,6; stroke-dashoffset: 0; stroke: #000000; stroke-opacity: 0.6; stroke-width: 3"/>
   </g>
   <g id="line2d_36">
    <path d="M -1 56.39296 
L 102.079818 56.459202 
L 115.351696 56.73815 
L 126.990489 57.233702 
L 143.091654 57.942922 
L 152.068 58.063672 
L 184.018082 58.072281 
L 189.946368 58.072281 
L 189.946368 58.072281 
" clip-path="url(#pfc503558d1)" style="fill: none; stroke-dasharray: 3,6; stroke-dashoffset: 0; stroke: #000000; stroke-opacity: 0.6; stroke-width: 3"/>
   </g>
   <g id="line2d_37">
    <path d="M -1 40.518211 
L 94.736557 40.523944 
L 102.079818 41.824523 
L 106.37535 42.988935 
L 109.423078 44.036681 
L 113.718611 45.843186 
L 118.014143 47.997712 
L 130.769134 54.793361 
L 133.548644 55.914968 
L 136.180865 56.749039 
L 138.796122 57.346612 
L 141.550134 57.744645 
L 144.81891 57.977039 
L 149.692168 58.065855 
L 176.695659 58.072281 
L 189.946368 58.072281 
L 189.946368 58.072281 
" clip-path="url(#pfc503558d1)" style="fill: none; stroke-dasharray: 3,6; stroke-dashoffset: 0; stroke: #000000; stroke-opacity: 0.6; stroke-width: 3"/>
   </g>
   <g id="line2d_38">
    <path d="M -1 81.476387 
L 94.736557 81.470105 
L 102.079818 80.016956 
L 106.37535 78.69251 
L 109.423078 77.481043 
L 113.718611 75.346019 
L 116.766339 73.527586 
L 121.061871 70.60673 
L 131.778859 63.004945 
L 134.583034 61.408136 
L 136.996197 60.28525 
L 139.281432 59.458031 
L 141.677011 58.836147 
L 144.141432 58.431032 
L 147.088741 58.185508 
L 151.333705 58.083356 
L 168.189836 58.072281 
L 189.946368 58.072281 
L 189.946368 58.072281 
" clip-path="url(#pfc503558d1)" style="fill: none; stroke-dasharray: 3,6; stroke-dashoffset: 0; stroke: #000000; stroke-opacity: 0.6; stroke-width: 3"/>
   </g>
   <g id="patch_3">
    <path d="M 89.976 96.704531 
L 89.976 19.44 
" style="fill: none; stroke: #262626; stroke-width: 1.875; stroke-linejoin: miter; stroke-linecap: square"/>
   </g>
   <g id="patch_4">
    <path d="M 89.976 96.704531 
L 194.708249 96.704531 
" style="fill: none; stroke: #262626; stroke-width: 1.875; stroke-linejoin: miter; stroke-linecap: square"/>
   </g>
  </g>
 </g>
 <defs>
  <clipPath id="pfc503558d1">
   <rect x="89.976" y="19.44" width="104.732249" height="77.264531"/>
  </clipPath>
 </defs>
</svg>
