<?xml version="1.0" encoding="utf-8" standalone="no"?>
<!DOCTYPE svg PUBLIC "-//W3C//DTD SVG 1.1//EN"
  "http://www.w3.org/Graphics/SVG/1.1/DTD/svg11.dtd">
<svg xmlns:xlink="http://www.w3.org/1999/xlink" width="720pt" height="576pt" viewBox="0 0 720 576" xmlns="http://www.w3.org/2000/svg" version="1.1">
 <metadata>
  <rdf:RDF xmlns:dc="http://purl.org/dc/elements/1.1/" xmlns:cc="http://creativecommons.org/ns#" xmlns:rdf="http://www.w3.org/1999/02/22-rdf-syntax-ns#">
   <cc:Work>
    <dc:type rdf:resource="http://purl.org/dc/dcmitype/StillImage"/>
    <dc:date>2023-01-13T11:49:42.829369</dc:date>
    <dc:format>image/svg+xml</dc:format>
    <dc:creator>
     <cc:Agent>
      <dc:title>Matplotlib v3.5.1, https://matplotlib.org/</dc:title>
     </cc:Agent>
    </dc:creator>
   </cc:Work>
  </rdf:RDF>
 </metadata>
 <defs>
  <style type="text/css">*{stroke-linejoin: round; stroke-linecap: butt}</style>
 </defs>
 <g id="figure_1">
  <g id="patch_1">
   <path d="M 0 576 
L 720 576 
L 720 0 
L 0 0 
z
" style="fill: #ffffff"/>
  </g>
  <g id="axes_1">
   <g id="patch_2">
    <path d="M 60.636 512.16 
L 612 512.16 
L 612 23.76 
L 60.636 23.76 
z
" style="fill: #ffffff"/>
   </g>
   <g id="matplotlib.axis_1">
    <g id="xtick_1">
     <g id="line2d_1">
      <defs>
       <path id="m3c8a26e3e1" d="M 0 0 
L 0 9 
" style="stroke: #1a1a1a; stroke-width: 1.875"/>
      </defs>
      <g>
       <use xlink:href="#m3c8a26e3e1" x="85.698" y="512.16" style="fill: #1a1a1a; stroke: #1a1a1a; stroke-width: 1.875"/>
      </g>
     </g>
     <g id="text_1">
      <!-- 1 -->
      <g style="fill: #1a1a1a" transform="translate(82.361438 533.249375)scale(0.12 -0.12)">
       <defs>
        <path id="ArialMT-31" d="M 2384 0 
L 1822 0 
L 1822 3584 
Q 1619 3391 1289 3197 
Q 959 3003 697 2906 
L 697 3450 
Q 1169 3672 1522 3987 
Q 1875 4303 2022 4600 
L 2384 4600 
L 2384 0 
z
" transform="scale(0.015625)"/>
       </defs>
       <use xlink:href="#ArialMT-31"/>
      </g>
     </g>
    </g>
    <g id="xtick_2">
     <g id="line2d_2">
      <g>
       <use xlink:href="#m3c8a26e3e1" x="557.383755" y="512.16" style="fill: #1a1a1a; stroke: #1a1a1a; stroke-width: 1.875"/>
      </g>
     </g>
     <g id="text_2">
      <!-- 400 -->
      <g style="fill: #1a1a1a" transform="translate(547.374067 533.249375)scale(0.12 -0.12)">
       <defs>
        <path id="ArialMT-34" d="M 2069 0 
L 2069 1097 
L 81 1097 
L 81 1613 
L 2172 4581 
L 2631 4581 
L 2631 1613 
L 3250 1613 
L 3250 1097 
L 2631 1097 
L 2631 0 
L 2069 0 
z
M 2069 1613 
L 2069 3678 
L 634 1613 
L 2069 1613 
z
" transform="scale(0.015625)"/>
        <path id="ArialMT-30" d="M 266 2259 
Q 266 3072 433 3567 
Q 600 4063 929 4331 
Q 1259 4600 1759 4600 
Q 2128 4600 2406 4451 
Q 2684 4303 2865 4023 
Q 3047 3744 3150 3342 
Q 3253 2941 3253 2259 
Q 3253 1453 3087 958 
Q 2922 463 2592 192 
Q 2263 -78 1759 -78 
Q 1097 -78 719 397 
Q 266 969 266 2259 
z
M 844 2259 
Q 844 1131 1108 757 
Q 1372 384 1759 384 
Q 2147 384 2411 759 
Q 2675 1134 2675 2259 
Q 2675 3391 2411 3762 
Q 2147 4134 1753 4134 
Q 1366 4134 1134 3806 
Q 844 3388 844 2259 
z
" transform="scale(0.015625)"/>
       </defs>
       <use xlink:href="#ArialMT-34"/>
       <use xlink:href="#ArialMT-30" x="55.615234"/>
       <use xlink:href="#ArialMT-30" x="111.230469"/>
      </g>
     </g>
    </g>
    <g id="text_3">
     <!-- Training steps -->
     <g style="fill: #262626" transform="translate(280.132687 552.518438)scale(0.18 -0.18)">
      <defs>
       <path id="ArialMT-54" d="M 1659 0 
L 1659 4041 
L 150 4041 
L 150 4581 
L 3781 4581 
L 3781 4041 
L 2266 4041 
L 2266 0 
L 1659 0 
z
" transform="scale(0.015625)"/>
       <path id="ArialMT-72" d="M 416 0 
L 416 3319 
L 922 3319 
L 922 2816 
Q 1116 3169 1280 3281 
Q 1444 3394 1641 3394 
Q 1925 3394 2219 3213 
L 2025 2691 
Q 1819 2813 1613 2813 
Q 1428 2813 1281 2702 
Q 1134 2591 1072 2394 
Q 978 2094 978 1738 
L 978 0 
L 416 0 
z
" transform="scale(0.015625)"/>
       <path id="ArialMT-61" d="M 2588 409 
Q 2275 144 1986 34 
Q 1697 -75 1366 -75 
Q 819 -75 525 192 
Q 231 459 231 875 
Q 231 1119 342 1320 
Q 453 1522 633 1644 
Q 813 1766 1038 1828 
Q 1203 1872 1538 1913 
Q 2219 1994 2541 2106 
Q 2544 2222 2544 2253 
Q 2544 2597 2384 2738 
Q 2169 2928 1744 2928 
Q 1347 2928 1158 2789 
Q 969 2650 878 2297 
L 328 2372 
Q 403 2725 575 2942 
Q 747 3159 1072 3276 
Q 1397 3394 1825 3394 
Q 2250 3394 2515 3294 
Q 2781 3194 2906 3042 
Q 3031 2891 3081 2659 
Q 3109 2516 3109 2141 
L 3109 1391 
Q 3109 606 3145 398 
Q 3181 191 3288 0 
L 2700 0 
Q 2613 175 2588 409 
z
M 2541 1666 
Q 2234 1541 1622 1453 
Q 1275 1403 1131 1340 
Q 988 1278 909 1158 
Q 831 1038 831 891 
Q 831 666 1001 516 
Q 1172 366 1500 366 
Q 1825 366 2078 508 
Q 2331 650 2450 897 
Q 2541 1088 2541 1459 
L 2541 1666 
z
" transform="scale(0.015625)"/>
       <path id="ArialMT-69" d="M 425 3934 
L 425 4581 
L 988 4581 
L 988 3934 
L 425 3934 
z
M 425 0 
L 425 3319 
L 988 3319 
L 988 0 
L 425 0 
z
" transform="scale(0.015625)"/>
       <path id="ArialMT-6e" d="M 422 0 
L 422 3319 
L 928 3319 
L 928 2847 
Q 1294 3394 1984 3394 
Q 2284 3394 2536 3286 
Q 2788 3178 2913 3003 
Q 3038 2828 3088 2588 
Q 3119 2431 3119 2041 
L 3119 0 
L 2556 0 
L 2556 2019 
Q 2556 2363 2490 2533 
Q 2425 2703 2258 2804 
Q 2091 2906 1866 2906 
Q 1506 2906 1245 2678 
Q 984 2450 984 1813 
L 984 0 
L 422 0 
z
" transform="scale(0.015625)"/>
       <path id="ArialMT-67" d="M 319 -275 
L 866 -356 
Q 900 -609 1056 -725 
Q 1266 -881 1628 -881 
Q 2019 -881 2231 -725 
Q 2444 -569 2519 -288 
Q 2563 -116 2559 434 
Q 2191 0 1641 0 
Q 956 0 581 494 
Q 206 988 206 1678 
Q 206 2153 378 2554 
Q 550 2956 876 3175 
Q 1203 3394 1644 3394 
Q 2231 3394 2613 2919 
L 2613 3319 
L 3131 3319 
L 3131 450 
Q 3131 -325 2973 -648 
Q 2816 -972 2473 -1159 
Q 2131 -1347 1631 -1347 
Q 1038 -1347 672 -1080 
Q 306 -813 319 -275 
z
M 784 1719 
Q 784 1066 1043 766 
Q 1303 466 1694 466 
Q 2081 466 2343 764 
Q 2606 1063 2606 1700 
Q 2606 2309 2336 2618 
Q 2066 2928 1684 2928 
Q 1309 2928 1046 2623 
Q 784 2319 784 1719 
z
" transform="scale(0.015625)"/>
       <path id="ArialMT-20" transform="scale(0.015625)"/>
       <path id="ArialMT-73" d="M 197 991 
L 753 1078 
Q 800 744 1014 566 
Q 1228 388 1613 388 
Q 2000 388 2187 545 
Q 2375 703 2375 916 
Q 2375 1106 2209 1216 
Q 2094 1291 1634 1406 
Q 1016 1563 777 1677 
Q 538 1791 414 1992 
Q 291 2194 291 2438 
Q 291 2659 392 2848 
Q 494 3038 669 3163 
Q 800 3259 1026 3326 
Q 1253 3394 1513 3394 
Q 1903 3394 2198 3281 
Q 2494 3169 2634 2976 
Q 2775 2784 2828 2463 
L 2278 2388 
Q 2241 2644 2061 2787 
Q 1881 2931 1553 2931 
Q 1166 2931 1000 2803 
Q 834 2675 834 2503 
Q 834 2394 903 2306 
Q 972 2216 1119 2156 
Q 1203 2125 1616 2013 
Q 2213 1853 2448 1751 
Q 2684 1650 2818 1456 
Q 2953 1263 2953 975 
Q 2953 694 2789 445 
Q 2625 197 2315 61 
Q 2006 -75 1616 -75 
Q 969 -75 630 194 
Q 291 463 197 991 
z
" transform="scale(0.015625)"/>
       <path id="ArialMT-74" d="M 1650 503 
L 1731 6 
Q 1494 -44 1306 -44 
Q 1000 -44 831 53 
Q 663 150 594 308 
Q 525 466 525 972 
L 525 2881 
L 113 2881 
L 113 3319 
L 525 3319 
L 525 4141 
L 1084 4478 
L 1084 3319 
L 1650 3319 
L 1650 2881 
L 1084 2881 
L 1084 941 
Q 1084 700 1114 631 
Q 1144 563 1211 522 
Q 1278 481 1403 481 
Q 1497 481 1650 503 
z
" transform="scale(0.015625)"/>
       <path id="ArialMT-65" d="M 2694 1069 
L 3275 997 
Q 3138 488 2766 206 
Q 2394 -75 1816 -75 
Q 1088 -75 661 373 
Q 234 822 234 1631 
Q 234 2469 665 2931 
Q 1097 3394 1784 3394 
Q 2450 3394 2872 2941 
Q 3294 2488 3294 1666 
Q 3294 1616 3291 1516 
L 816 1516 
Q 847 969 1125 678 
Q 1403 388 1819 388 
Q 2128 388 2347 550 
Q 2566 713 2694 1069 
z
M 847 1978 
L 2700 1978 
Q 2663 2397 2488 2606 
Q 2219 2931 1791 2931 
Q 1403 2931 1139 2672 
Q 875 2413 847 1978 
z
" transform="scale(0.015625)"/>
       <path id="ArialMT-70" d="M 422 -1272 
L 422 3319 
L 934 3319 
L 934 2888 
Q 1116 3141 1344 3267 
Q 1572 3394 1897 3394 
Q 2322 3394 2647 3175 
Q 2972 2956 3137 2557 
Q 3303 2159 3303 1684 
Q 3303 1175 3120 767 
Q 2938 359 2589 142 
Q 2241 -75 1856 -75 
Q 1575 -75 1351 44 
Q 1128 163 984 344 
L 984 -1272 
L 422 -1272 
z
M 931 1641 
Q 931 1000 1190 694 
Q 1450 388 1819 388 
Q 2194 388 2461 705 
Q 2728 1022 2728 1688 
Q 2728 2322 2467 2637 
Q 2206 2953 1844 2953 
Q 1484 2953 1207 2617 
Q 931 2281 931 1641 
z
" transform="scale(0.015625)"/>
      </defs>
      <use xlink:href="#ArialMT-54"/>
      <use xlink:href="#ArialMT-72" x="57.333984"/>
      <use xlink:href="#ArialMT-61" x="90.634766"/>
      <use xlink:href="#ArialMT-69" x="146.25"/>
      <use xlink:href="#ArialMT-6e" x="168.466797"/>
      <use xlink:href="#ArialMT-69" x="224.082031"/>
      <use xlink:href="#ArialMT-6e" x="246.298828"/>
      <use xlink:href="#ArialMT-67" x="301.914062"/>
      <use xlink:href="#ArialMT-20" x="357.529297"/>
      <use xlink:href="#ArialMT-73" x="385.3125"/>
      <use xlink:href="#ArialMT-74" x="435.3125"/>
      <use xlink:href="#ArialMT-65" x="463.095703"/>
      <use xlink:href="#ArialMT-70" x="518.710938"/>
      <use xlink:href="#ArialMT-73" x="574.326172"/>
     </g>
    </g>
   </g>
   <g id="matplotlib.axis_2">
    <g id="ytick_1">
     <g id="line2d_3">
      <defs>
       <path id="md408264305" d="M 0 0 
L -9 0 
" style="stroke: #1a1a1a; stroke-width: 1.875"/>
      </defs>
      <g>
       <use xlink:href="#md408264305" x="60.636" y="455.275694" style="fill: #1a1a1a; stroke: #1a1a1a; stroke-width: 1.875"/>
      </g>
     </g>
     <g id="text_4">
      <!-- 0 -->
      <g style="fill: #1a1a1a" transform="translate(41.462875 459.570382)scale(0.12 -0.12)">
       <use xlink:href="#ArialMT-30"/>
      </g>
     </g>
    </g>
    <g id="ytick_2">
     <g id="line2d_4">
      <g>
       <use xlink:href="#md408264305" x="60.636" y="239.517847" style="fill: #1a1a1a; stroke: #1a1a1a; stroke-width: 1.875"/>
      </g>
     </g>
     <g id="text_5">
      <!-- 3 -->
      <g style="fill: #1a1a1a" transform="translate(41.462875 243.812535)scale(0.12 -0.12)">
       <defs>
        <path id="ArialMT-33" d="M 269 1209 
L 831 1284 
Q 928 806 1161 595 
Q 1394 384 1728 384 
Q 2125 384 2398 659 
Q 2672 934 2672 1341 
Q 2672 1728 2419 1979 
Q 2166 2231 1775 2231 
Q 1616 2231 1378 2169 
L 1441 2663 
Q 1497 2656 1531 2656 
Q 1891 2656 2178 2843 
Q 2466 3031 2466 3422 
Q 2466 3731 2256 3934 
Q 2047 4138 1716 4138 
Q 1388 4138 1169 3931 
Q 950 3725 888 3313 
L 325 3413 
Q 428 3978 793 4289 
Q 1159 4600 1703 4600 
Q 2078 4600 2393 4439 
Q 2709 4278 2876 4000 
Q 3044 3722 3044 3409 
Q 3044 3113 2884 2869 
Q 2725 2625 2413 2481 
Q 2819 2388 3044 2092 
Q 3269 1797 3269 1353 
Q 3269 753 2831 336 
Q 2394 -81 1725 -81 
Q 1122 -81 723 278 
Q 325 638 269 1209 
z
" transform="scale(0.015625)"/>
       </defs>
       <use xlink:href="#ArialMT-33"/>
      </g>
     </g>
    </g>
    <g id="ytick_3">
     <g id="line2d_5">
      <g>
       <use xlink:href="#md408264305" x="60.636" y="23.76" style="fill: #1a1a1a; stroke: #1a1a1a; stroke-width: 1.875"/>
      </g>
     </g>
     <g id="text_6">
      <!-- 6 -->
      <g style="fill: #1a1a1a" transform="translate(41.462875 28.054688)scale(0.12 -0.12)">
       <defs>
        <path id="ArialMT-36" d="M 3184 3459 
L 2625 3416 
Q 2550 3747 2413 3897 
Q 2184 4138 1850 4138 
Q 1581 4138 1378 3988 
Q 1113 3794 959 3422 
Q 806 3050 800 2363 
Q 1003 2672 1297 2822 
Q 1591 2972 1913 2972 
Q 2475 2972 2870 2558 
Q 3266 2144 3266 1488 
Q 3266 1056 3080 686 
Q 2894 316 2569 119 
Q 2244 -78 1831 -78 
Q 1128 -78 684 439 
Q 241 956 241 2144 
Q 241 3472 731 4075 
Q 1159 4600 1884 4600 
Q 2425 4600 2770 4297 
Q 3116 3994 3184 3459 
z
M 888 1484 
Q 888 1194 1011 928 
Q 1134 663 1356 523 
Q 1578 384 1822 384 
Q 2178 384 2434 671 
Q 2691 959 2691 1453 
Q 2691 1928 2437 2201 
Q 2184 2475 1800 2475 
Q 1419 2475 1153 2201 
Q 888 1928 888 1484 
z
" transform="scale(0.015625)"/>
       </defs>
       <use xlink:href="#ArialMT-36"/>
      </g>
     </g>
    </g>
    <g id="text_7">
     <!-- $W_2W_1(t)$ -->
     <g style="fill: #262626" transform="translate(33.885375 304.86)rotate(-90)scale(0.18 -0.18)">
      <defs>
       <path id="DejaVuSans-Oblique-57" d="M 616 4666 
L 1228 4666 
L 1453 697 
L 3213 4666 
L 3916 4666 
L 4147 697 
L 5888 4666 
L 6528 4666 
L 4453 0 
L 3659 0 
L 3444 3891 
L 1697 0 
L 903 0 
L 616 4666 
z
" transform="scale(0.015625)"/>
       <path id="DejaVuSans-32" d="M 1228 531 
L 3431 531 
L 3431 0 
L 469 0 
L 469 531 
Q 828 903 1448 1529 
Q 2069 2156 2228 2338 
Q 2531 2678 2651 2914 
Q 2772 3150 2772 3378 
Q 2772 3750 2511 3984 
Q 2250 4219 1831 4219 
Q 1534 4219 1204 4116 
Q 875 4013 500 3803 
L 500 4441 
Q 881 4594 1212 4672 
Q 1544 4750 1819 4750 
Q 2544 4750 2975 4387 
Q 3406 4025 3406 3419 
Q 3406 3131 3298 2873 
Q 3191 2616 2906 2266 
Q 2828 2175 2409 1742 
Q 1991 1309 1228 531 
z
" transform="scale(0.015625)"/>
       <path id="DejaVuSans-31" d="M 794 531 
L 1825 531 
L 1825 4091 
L 703 3866 
L 703 4441 
L 1819 4666 
L 2450 4666 
L 2450 531 
L 3481 531 
L 3481 0 
L 794 0 
L 794 531 
z
" transform="scale(0.015625)"/>
       <path id="DejaVuSans-28" d="M 1984 4856 
Q 1566 4138 1362 3434 
Q 1159 2731 1159 2009 
Q 1159 1288 1364 580 
Q 1569 -128 1984 -844 
L 1484 -844 
Q 1016 -109 783 600 
Q 550 1309 550 2009 
Q 550 2706 781 3412 
Q 1013 4119 1484 4856 
L 1984 4856 
z
" transform="scale(0.015625)"/>
       <path id="DejaVuSans-Oblique-74" d="M 2706 3500 
L 2619 3053 
L 1472 3053 
L 1100 1153 
Q 1081 1047 1072 975 
Q 1063 903 1063 863 
Q 1063 663 1183 572 
Q 1303 481 1569 481 
L 2150 481 
L 2053 0 
L 1503 0 
Q 991 0 739 200 
Q 488 400 488 806 
Q 488 878 497 964 
Q 506 1050 525 1153 
L 897 3053 
L 409 3053 
L 500 3500 
L 978 3500 
L 1172 4494 
L 1747 4494 
L 1556 3500 
L 2706 3500 
z
" transform="scale(0.015625)"/>
       <path id="DejaVuSans-29" d="M 513 4856 
L 1013 4856 
Q 1481 4119 1714 3412 
Q 1947 2706 1947 2009 
Q 1947 1309 1714 600 
Q 1481 -109 1013 -844 
L 513 -844 
Q 928 -128 1133 580 
Q 1338 1288 1338 2009 
Q 1338 2731 1133 3434 
Q 928 4138 513 4856 
z
" transform="scale(0.015625)"/>
      </defs>
      <use xlink:href="#DejaVuSans-Oblique-57" transform="translate(0 0.125)"/>
      <use xlink:href="#DejaVuSans-32" transform="translate(98.876953 -16.28125)scale(0.7)"/>
      <use xlink:href="#DejaVuSans-Oblique-57" transform="translate(146.147461 0.125)"/>
      <use xlink:href="#DejaVuSans-31" transform="translate(245.024414 -16.28125)scale(0.7)"/>
      <use xlink:href="#DejaVuSans-28" transform="translate(292.294922 0.125)"/>
      <use xlink:href="#DejaVuSans-Oblique-74" transform="translate(331.308594 0.125)"/>
      <use xlink:href="#DejaVuSans-29" transform="translate(370.517578 0.125)"/>
     </g>
    </g>
   </g>
   <g id="line2d_6">
    <path d="M 85.698 445.4012 
L 88.06234 443.366498 
L 90.426679 440.931621 
L 92.791019 438.025998 
L 95.155358 434.570061 
L 97.519698 430.475575 
L 99.884038 425.646752 
L 102.248377 419.982413 
L 104.612717 413.379517 
L 106.977057 405.738336 
L 109.341396 396.969443 
L 111.705736 387.002484 
L 114.070075 375.796326 
L 116.434415 363.349774 
L 118.798755 349.711464 
L 121.163094 334.987185 
L 124.709604 311.242821 
L 130.620453 269.32545 
L 135.349132 236.33732 
L 138.895642 213.373365 
L 141.259981 199.296774 
L 143.624321 186.354016 
L 145.98866 174.605959 
L 148.353 164.06223 
L 150.71734 154.691186 
L 153.081679 146.430948 
L 155.446019 139.199918 
L 157.810358 132.905808 
L 160.174698 127.452733 
L 162.539038 122.746323 
L 164.903377 118.697104 
L 167.267717 115.222458 
L 169.632057 112.247544 
L 171.996396 109.705509 
L 174.360736 107.537224 
L 176.725075 105.690784 
L 179.089415 104.120862 
L 181.453755 102.78804 
L 183.818094 101.658146 
L 187.364604 100.280282 
L 190.911113 99.21033 
L 194.457623 98.381963 
L 199.186302 97.563853 
L 203.914981 96.987397 
L 209.82583 96.502876 
L 216.918849 96.147804 
L 227.558377 95.876904 
L 244.108755 95.729089 
L 283.120358 95.681011 
L 586.938 95.679282 
L 586.938 95.679282 
" clip-path="url(#pec18a06bc8)" style="fill: none; stroke: #0071b2; stroke-width: 2.5; stroke-linecap: round"/>
   </g>
   <g id="line2d_7">
    <path d="M 85.698 456.943434 
L 93.973189 457.716544 
L 102.248377 458.749088 
L 123.527434 461.647251 
L 128.256113 461.88455 
L 131.802623 461.867709 
L 136.531302 461.584167 
L 141.259981 461.050375 
L 148.353 459.977849 
L 158.992528 458.351017 
L 166.085547 457.507577 
L 173.178566 456.895967 
L 181.453755 456.418509 
L 192.093283 456.046511 
L 207.461491 455.751398 
L 233.469226 455.49951 
L 274.84517 455.335251 
L 358.779226 455.278338 
L 586.938 455.275695 
L 586.938 455.275695 
" clip-path="url(#pec18a06bc8)" style="fill: none; stroke: #d65c00; stroke-width: 2.5; stroke-linecap: round"/>
   </g>
   <g id="line2d_8">
    <path d="M 85.698 449.789999 
L 89.244509 448.64364 
L 92.791019 447.285825 
L 96.337528 445.692163 
L 99.884038 443.843368 
L 103.430547 441.730242 
L 106.977057 439.360171 
L 111.705736 435.859087 
L 123.527434 426.691203 
L 127.073943 424.375143 
L 129.438283 423.077843 
L 131.802623 422.016919 
L 134.166962 421.214629 
L 136.531302 420.681951 
L 138.895642 420.418744 
L 141.259981 420.415068 
L 143.624321 420.653312 
L 145.98866 421.110673 
L 148.353 421.761551 
L 151.899509 423.043141 
L 155.446019 424.615641 
L 160.174698 427.034078 
L 166.085547 430.363203 
L 179.089415 437.831265 
L 185.000264 440.925428 
L 189.728943 443.165736 
L 194.457623 445.170037 
L 199.186302 446.930185 
L 203.914981 448.450415 
L 208.64366 449.743899 
L 213.37234 450.829613 
L 219.283189 451.928509 
L 225.194038 452.783005 
L 232.287057 453.547655 
L 239.380075 454.092003 
L 248.837434 454.571932 
L 260.659132 454.915375 
L 277.209509 455.138102 
L 305.581585 455.250269 
L 397.79083 455.275596 
L 586.938 455.275694 
L 586.938 455.275694 
" clip-path="url(#pec18a06bc8)" style="fill: none; stroke: #d65c00; stroke-width: 2.5; stroke-linecap: round"/>
   </g>
   <g id="line2d_9">
    <path d="M 85.698 454.211799 
L 92.791019 453.622501 
L 98.701868 452.9247 
L 104.612717 452.002755 
L 110.523566 450.858128 
L 125.891774 447.653747 
L 129.438283 447.17026 
L 132.984792 446.890875 
L 136.531302 446.838254 
L 140.077811 447.00836 
L 143.624321 447.372565 
L 148.353 448.079845 
L 170.814226 451.847386 
L 177.907245 452.663124 
L 186.182434 453.40062 
L 195.639792 454.032317 
L 206.279321 454.532861 
L 219.283189 454.910024 
L 235.833566 455.142819 
L 261.841302 455.253328 
L 346.957528 455.275694 
L 586.938 455.275694 
L 586.938 455.275694 
" clip-path="url(#pec18a06bc8)" style="fill: none; stroke: #d65c00; stroke-width: 2.5; stroke-linecap: round"/>
   </g>
   <g id="line2d_10">
    <path d="M 85.698 452.418142 
L 89.244509 451.593843 
L 92.791019 450.548262 
L 96.337528 449.233175 
L 99.884038 447.597201 
L 102.248377 446.303471 
L 104.612717 444.832174 
L 106.977057 443.174035 
L 109.341396 441.325054 
L 112.887906 438.203721 
L 116.434415 434.716903 
L 122.345264 428.43962 
L 127.073943 423.550895 
L 129.438283 421.361334 
L 131.802623 419.446347 
L 134.166962 417.875023 
L 136.531302 416.702363 
L 138.895642 415.965435 
L 140.077811 415.766538 
L 141.259981 415.681458 
L 143.624321 415.84786 
L 145.98866 416.444025 
L 148.353 417.434234 
L 150.71734 418.771269 
L 153.081679 420.40018 
L 155.446019 422.261881 
L 158.992528 425.360056 
L 171.996396 437.219023 
L 175.542906 440.045265 
L 179.089415 442.572734 
L 182.635925 444.785621 
L 186.182434 446.68865 
L 189.728943 448.30055 
L 193.275453 449.6484 
L 196.821962 450.763191 
L 200.368472 451.676639 
L 205.097151 452.63349 
L 209.82583 453.350656 
L 215.736679 453.992099 
L 222.829698 454.495986 
L 231.104887 454.846095 
L 242.926585 455.096432 
L 261.841302 455.233222 
L 310.310264 455.274762 
L 586.938 455.275694 
L 586.938 455.275694 
" clip-path="url(#pec18a06bc8)" style="fill: none; stroke: #d65c00; stroke-width: 2.5; stroke-linecap: round"/>
   </g>
   <g id="line2d_11">
    <path d="M 85.698 456.943434 
L 93.973189 457.716544 
L 102.248377 458.749088 
L 123.527434 461.647251 
L 128.256113 461.88455 
L 131.802623 461.867709 
L 136.531302 461.584167 
L 141.259981 461.050375 
L 148.353 459.977849 
L 158.992528 458.351017 
L 166.085547 457.507577 
L 173.178566 456.895967 
L 181.453755 456.418509 
L 192.093283 456.046511 
L 207.461491 455.751398 
L 233.469226 455.49951 
L 274.84517 455.335251 
L 358.779226 455.278338 
L 586.938 455.275695 
L 586.938 455.275695 
" clip-path="url(#pec18a06bc8)" style="fill: none; stroke: #d65c00; stroke-width: 2.5; stroke-linecap: round"/>
   </g>
   <g id="line2d_12">
    <path d="M 85.698 451.274917 
L 117.616585 449.608108 
L 128.256113 449.338583 
L 137.713472 449.325034 
L 148.353 449.552224 
L 161.356868 450.078726 
L 187.364604 451.197045 
L 199.186302 451.458249 
L 211.008 451.495882 
L 222.829698 451.311275 
L 234.651396 450.916603 
L 247.655264 450.250394 
L 260.659132 449.341726 
L 272.48083 448.296929 
L 284.302528 447.030134 
L 296.124226 445.524998 
L 306.763755 443.952678 
L 317.403283 442.1629 
L 328.042811 440.148096 
L 338.68234 437.905682 
L 349.321868 435.439765 
L 361.143566 432.452944 
L 372.965264 429.235617 
L 387.151302 425.133797 
L 408.430358 418.703874 
L 432.073755 411.610764 
L 446.259792 407.598585 
L 458.081491 404.4803 
L 468.721019 401.883177 
L 479.360547 399.502627 
L 490.000075 397.346801 
L 500.639604 395.415776 
L 511.279132 393.703046 
L 523.10083 392.041979 
L 534.922528 390.615707 
L 547.926396 389.290166 
L 560.930264 388.18832 
L 575.116302 387.204551 
L 586.938 386.532157 
L 586.938 386.532157 
" clip-path="url(#pec18a06bc8)" style="fill: none; stroke: #0071b2; stroke-width: 2.5; stroke-linecap: round"/>
   </g>
   <g id="line2d_13">
    <path d="M 85.698 452.495146 
L 101.066208 451.473582 
L 115.252245 450.309167 
L 136.531302 448.492996 
L 143.624321 448.168759 
L 149.53517 448.101411 
L 156.628189 448.250854 
L 166.085547 448.706676 
L 186.182434 449.742585 
L 199.186302 450.138931 
L 220.465358 450.501437 
L 247.655264 451.016602 
L 279.573849 451.883793 
L 332.771491 453.320002 
L 369.418755 454.067802 
L 407.248189 454.60909 
L 448.624132 454.966906 
L 500.639604 455.174977 
L 586.938 455.263131 
L 586.938 455.263131 
" clip-path="url(#pec18a06bc8)" style="fill: none; stroke: #d65c00; stroke-width: 2.5; stroke-linecap: round"/>
   </g>
   <g id="line2d_14">
    <path d="M 85.698 459.687493 
L 93.973189 460.929239 
L 101.066208 462.210653 
L 108.159226 463.694995 
L 116.434415 465.652952 
L 130.620453 469.310116 
L 140.077811 471.649085 
L 147.17083 473.162688 
L 153.081679 474.172584 
L 157.810358 474.773283 
L 162.539038 475.165579 
L 167.267717 475.337098 
L 171.996396 475.286327 
L 176.725075 475.022894 
L 181.453755 474.566603 
L 187.364604 473.767807 
L 194.457623 472.559435 
L 205.097151 470.467149 
L 224.011868 466.713396 
L 234.651396 464.850572 
L 245.290925 463.231025 
L 255.930453 461.851033 
L 266.569981 460.688646 
L 278.391679 459.618509 
L 291.395547 458.667112 
L 305.581585 457.848552 
L 322.131962 457.12144 
L 341.046679 456.519102 
L 363.507906 456.033872 
L 390.697811 455.674457 
L 427.345075 455.429853 
L 484.089226 455.30518 
L 586.938 455.276726 
L 586.938 455.276726 
" clip-path="url(#pec18a06bc8)" style="fill: none; stroke: #d65c00; stroke-width: 2.5; stroke-linecap: round"/>
   </g>
   <g id="line2d_15">
    <path d="M 85.698 457.725797 
L 93.973189 458.615393 
L 102.248377 459.753421 
L 110.523566 461.128618 
L 131.802623 464.853425 
L 137.713472 465.572162 
L 142.442151 465.950424 
L 147.17083 466.125383 
L 151.899509 466.081307 
L 156.628189 465.81732 
L 161.356868 465.351438 
L 167.267717 464.542225 
L 176.725075 462.9566 
L 189.728943 460.784909 
L 198.004132 459.625243 
L 206.279321 458.678341 
L 215.736679 457.833384 
L 226.376208 457.128996 
L 238.197906 456.574911 
L 253.566113 456.100334 
L 272.48083 455.751818 
L 299.670736 455.493466 
L 342.228849 455.337873 
L 433.255925 455.278712 
L 586.938 455.275701 
L 586.938 455.275701 
" clip-path="url(#pec18a06bc8)" style="fill: none; stroke: #d65c00; stroke-width: 2.5; stroke-linecap: round"/>
   </g>
   <g id="line2d_16">
    <path d="M 85.698 449.789999 
L 89.244509 448.64364 
L 92.791019 447.285825 
L 96.337528 445.692163 
L 99.884038 443.843368 
L 103.430547 441.730242 
L 106.977057 439.360171 
L 111.705736 435.859087 
L 123.527434 426.691203 
L 127.073943 424.375143 
L 129.438283 423.077843 
L 131.802623 422.016919 
L 134.166962 421.214629 
L 136.531302 420.681951 
L 138.895642 420.418744 
L 141.259981 420.415068 
L 143.624321 420.653312 
L 145.98866 421.110673 
L 148.353 421.761551 
L 151.899509 423.043141 
L 155.446019 424.615641 
L 160.174698 427.034078 
L 166.085547 430.363203 
L 179.089415 437.831265 
L 185.000264 440.925428 
L 189.728943 443.165736 
L 194.457623 445.170037 
L 199.186302 446.930185 
L 203.914981 448.450415 
L 208.64366 449.743899 
L 213.37234 450.829613 
L 219.283189 451.928509 
L 225.194038 452.783005 
L 232.287057 453.547655 
L 239.380075 454.092003 
L 248.837434 454.571932 
L 260.659132 454.915375 
L 277.209509 455.138102 
L 305.581585 455.250269 
L 397.79083 455.275596 
L 586.938 455.275694 
L 586.938 455.275694 
" clip-path="url(#pec18a06bc8)" style="fill: none; stroke: #d65c00; stroke-width: 2.5; stroke-linecap: round"/>
   </g>
   <g id="line2d_17">
    <path d="M 85.698 452.495146 
L 101.066208 451.473582 
L 115.252245 450.309167 
L 136.531302 448.492996 
L 143.624321 448.168759 
L 149.53517 448.101411 
L 156.628189 448.250854 
L 166.085547 448.706676 
L 186.182434 449.742585 
L 199.186302 450.138931 
L 220.465358 450.501437 
L 247.655264 451.016602 
L 279.573849 451.883793 
L 332.771491 453.320002 
L 369.418755 454.067802 
L 407.248189 454.60909 
L 448.624132 454.966906 
L 500.639604 455.174977 
L 586.938 455.263131 
L 586.938 455.263131 
" clip-path="url(#pec18a06bc8)" style="fill: none; stroke: #d65c00; stroke-width: 2.5; stroke-linecap: round"/>
   </g>
   <g id="line2d_18">
    <path d="M 85.698 444.186644 
L 90.426679 442.516343 
L 95.155358 440.649538 
L 101.066208 438.042302 
L 106.977057 435.159385 
L 114.070075 431.433342 
L 129.438283 423.243222 
L 136.531302 419.766315 
L 144.806491 415.990079 
L 158.992528 409.589535 
L 163.721208 407.19428 
L 168.449887 404.514744 
L 171.996396 402.269363 
L 175.542906 399.794747 
L 179.089415 397.078736 
L 182.635925 394.121475 
L 187.364604 389.825409 
L 192.093283 385.179067 
L 198.004132 379.001897 
L 208.64366 367.41692 
L 216.918849 358.574251 
L 222.829698 352.610203 
L 227.558377 348.13691 
L 232.287057 343.969923 
L 237.015736 340.131864 
L 241.744415 336.632385 
L 246.473094 333.470299 
L 251.201774 330.635873 
L 255.930453 328.113054 
L 260.659132 325.881484 
L 265.387811 323.918229 
L 270.116491 322.19917 
L 274.84517 320.700089 
L 280.756019 319.099843 
L 286.666868 317.763473 
L 292.577717 316.651761 
L 299.670736 315.565496 
L 306.763755 314.700907 
L 315.038943 313.915062 
L 324.496302 313.243729 
L 336.318 312.652978 
L 350.504038 312.19259 
L 368.236585 311.85383 
L 393.062151 311.618374 
L 434.438094 311.482339 
L 537.286868 311.438511 
L 586.938 311.437381 
L 586.938 311.437381 
" clip-path="url(#pec18a06bc8)" style="fill: none; stroke: #0071b2; stroke-width: 2.5; stroke-linecap: round"/>
   </g>
   <g id="line2d_19">
    <path d="M 85.698 457.785789 
L 93.973189 458.667349 
L 101.066208 459.627362 
L 108.159226 460.806939 
L 115.252245 462.227478 
L 122.345264 463.882181 
L 142.442151 468.802501 
L 147.17083 469.617588 
L 151.899509 470.174577 
L 156.628189 470.454726 
L 161.356868 470.466768 
L 166.085547 470.238184 
L 170.814226 469.804549 
L 176.725075 469.028049 
L 183.818094 467.833102 
L 192.093283 466.19646 
L 216.918849 461.108164 
L 225.194038 459.723755 
L 233.469226 458.581925 
L 241.744415 457.678379 
L 250.019604 456.987371 
L 259.476962 456.412428 
L 271.29866 455.937028 
L 285.484698 455.606203 
L 305.581585 455.387909 
L 338.68234 455.286528 
L 459.26366 455.275254 
L 586.938 455.275692 
L 586.938 455.275692 
" clip-path="url(#pec18a06bc8)" style="fill: none; stroke: #d65c00; stroke-width: 2.5; stroke-linecap: round"/>
   </g>
   <g id="line2d_20">
    <path d="M 85.698 457.349111 
L 92.791019 458.168044 
L 98.701868 459.093038 
L 103.430547 460.046872 
L 108.159226 461.24894 
L 111.705736 462.354072 
L 115.252245 463.670061 
L 118.798755 465.230377 
L 122.345264 467.063735 
L 125.891774 469.186499 
L 129.438283 471.593856 
L 132.984792 474.251911 
L 138.895642 479.041516 
L 144.806491 483.830963 
L 148.353 486.443582 
L 150.71734 487.991605 
L 153.081679 489.342124 
L 155.446019 490.46466 
L 157.810358 491.335542 
L 160.174698 491.938858 
L 162.539038 492.26692 
L 164.903377 492.320255 
L 167.267717 492.107115 
L 169.632057 491.642575 
L 171.996396 490.947337 
L 174.360736 490.046343 
L 177.907245 488.37016 
L 181.453755 486.392075 
L 186.182434 483.451093 
L 201.550642 473.569247 
L 206.279321 470.867371 
L 211.008 468.429109 
L 215.736679 466.270824 
L 220.465358 464.391274 
L 225.194038 462.777242 
L 229.922717 461.408027 
L 234.651396 460.258863 
L 240.562245 459.091787 
L 246.473094 458.176939 
L 253.566113 457.346753 
L 260.659132 456.743067 
L 268.934321 456.24971 
L 279.573849 455.845197 
L 293.759887 455.550596 
L 315.038943 455.366171 
L 356.414887 455.285718 
L 586.938 455.275695 
L 586.938 455.275695 
" clip-path="url(#pec18a06bc8)" style="fill: none; stroke: #d65c00; stroke-width: 2.5; stroke-linecap: round"/>
   </g>
   <g id="line2d_21">
    <path d="M 85.698 454.211799 
L 92.791019 453.622501 
L 98.701868 452.9247 
L 104.612717 452.002755 
L 110.523566 450.858128 
L 125.891774 447.653747 
L 129.438283 447.17026 
L 132.984792 446.890875 
L 136.531302 446.838254 
L 140.077811 447.00836 
L 143.624321 447.372565 
L 148.353 448.079845 
L 170.814226 451.847386 
L 177.907245 452.663124 
L 186.182434 453.40062 
L 195.639792 454.032317 
L 206.279321 454.532861 
L 219.283189 454.910024 
L 235.833566 455.142819 
L 261.841302 455.253328 
L 346.957528 455.275694 
L 586.938 455.275694 
L 586.938 455.275694 
" clip-path="url(#pec18a06bc8)" style="fill: none; stroke: #d65c00; stroke-width: 2.5; stroke-linecap: round"/>
   </g>
   <g id="line2d_22">
    <path d="M 85.698 459.687493 
L 93.973189 460.929239 
L 101.066208 462.210653 
L 108.159226 463.694995 
L 116.434415 465.652952 
L 130.620453 469.310116 
L 140.077811 471.649085 
L 147.17083 473.162688 
L 153.081679 474.172584 
L 157.810358 474.773283 
L 162.539038 475.165579 
L 167.267717 475.337098 
L 171.996396 475.286327 
L 176.725075 475.022894 
L 181.453755 474.566603 
L 187.364604 473.767807 
L 194.457623 472.559435 
L 205.097151 470.467149 
L 224.011868 466.713396 
L 234.651396 464.850572 
L 245.290925 463.231025 
L 255.930453 461.851033 
L 266.569981 460.688646 
L 278.391679 459.618509 
L 291.395547 458.667112 
L 305.581585 457.848552 
L 322.131962 457.12144 
L 341.046679 456.519102 
L 363.507906 456.033872 
L 390.697811 455.674457 
L 427.345075 455.429853 
L 484.089226 455.30518 
L 586.938 455.276726 
L 586.938 455.276726 
" clip-path="url(#pec18a06bc8)" style="fill: none; stroke: #d65c00; stroke-width: 2.5; stroke-linecap: round"/>
   </g>
   <g id="line2d_23">
    <path d="M 85.698 457.785789 
L 93.973189 458.667349 
L 101.066208 459.627362 
L 108.159226 460.806939 
L 115.252245 462.227478 
L 122.345264 463.882181 
L 142.442151 468.802501 
L 147.17083 469.617588 
L 151.899509 470.174577 
L 156.628189 470.454726 
L 161.356868 470.466768 
L 166.085547 470.238184 
L 170.814226 469.804549 
L 176.725075 469.028049 
L 183.818094 467.833102 
L 192.093283 466.19646 
L 216.918849 461.108164 
L 225.194038 459.723755 
L 233.469226 458.581925 
L 241.744415 457.678379 
L 250.019604 456.987371 
L 259.476962 456.412428 
L 271.29866 455.937028 
L 285.484698 455.606203 
L 305.581585 455.387909 
L 338.68234 455.286528 
L 459.26366 455.275254 
L 586.938 455.275692 
L 586.938 455.275692 
" clip-path="url(#pec18a06bc8)" style="fill: none; stroke: #d65c00; stroke-width: 2.5; stroke-linecap: round"/>
   </g>
   <g id="line2d_24">
    <path d="M 85.698 449.126227 
L 89.244509 448.000797 
L 92.791019 446.680656 
L 96.337528 445.136299 
L 99.884038 443.335281 
L 103.430547 441.242483 
L 106.977057 438.820598 
L 110.523566 436.030863 
L 114.070075 432.834056 
L 117.616585 429.19173 
L 121.163094 425.067655 
L 124.709604 420.429469 
L 128.256113 415.250565 
L 131.802623 409.512325 
L 135.349132 403.206744 
L 138.895642 396.339384 
L 142.442151 388.93234 
L 145.98866 381.026744 
L 150.71734 369.820052 
L 156.628189 355.037098 
L 169.632057 322.021438 
L 174.360736 310.772937 
L 177.907245 302.854693 
L 181.453755 295.464204 
L 185.000264 288.650917 
L 188.546774 282.440812 
L 192.093283 276.838702 
L 195.639792 271.831716 
L 198.004132 268.811684 
L 200.368472 266.034152 
L 202.732811 263.487308 
L 206.279321 260.071468 
L 209.82583 257.100588 
L 213.37234 254.528866 
L 216.918849 252.311658 
L 220.465358 250.406682 
L 224.011868 248.774761 
L 227.558377 247.380213 
L 231.104887 246.190985 
L 235.833566 244.876013 
L 240.562245 243.817635 
L 245.290925 242.967359 
L 251.201774 242.136924 
L 258.294792 241.400871 
L 266.569981 240.801096 
L 276.02734 240.347945 
L 289.031208 239.976431 
L 306.763755 239.724257 
L 335.13583 239.576655 
L 401.33734 239.521014 
L 586.938 239.517848 
L 586.938 239.517848 
" clip-path="url(#pec18a06bc8)" style="fill: none; stroke: #0071b2; stroke-width: 2.5; stroke-linecap: round"/>
   </g>
   <g id="line2d_25">
    <path d="M 85.698 453.627458 
L 92.791019 452.883068 
L 98.701868 452.047098 
L 104.612717 450.978261 
L 110.523566 449.659431 
L 116.434415 448.109497 
L 135.349132 442.857826 
L 138.895642 442.159836 
L 142.442151 441.66525 
L 145.98866 441.41421 
L 149.53517 441.436517 
L 153.081679 441.746607 
L 156.628189 442.339294 
L 160.174698 443.187825 
L 163.721208 444.245408 
L 169.632057 446.301466 
L 179.089415 449.669102 
L 183.818094 451.123507 
L 188.546774 452.336473 
L 193.275453 453.295712 
L 198.004132 454.018707 
L 202.732811 454.53953 
L 208.64366 454.967086 
L 215.736679 455.249147 
L 225.194038 455.395352 
L 242.926585 455.39872 
L 316.221113 455.281053 
L 586.938 455.275694 
L 586.938 455.275694 
" clip-path="url(#pec18a06bc8)" style="fill: none; stroke: #d65c00; stroke-width: 2.5; stroke-linecap: round"/>
   </g>
   <g id="line2d_26">
    <path d="M 85.698 452.418142 
L 89.244509 451.593843 
L 92.791019 450.548262 
L 96.337528 449.233175 
L 99.884038 447.597201 
L 102.248377 446.303471 
L 104.612717 444.832174 
L 106.977057 443.174035 
L 109.341396 441.325054 
L 112.887906 438.203721 
L 116.434415 434.716903 
L 122.345264 428.43962 
L 127.073943 423.550895 
L 129.438283 421.361334 
L 131.802623 419.446347 
L 134.166962 417.875023 
L 136.531302 416.702363 
L 138.895642 415.965435 
L 140.077811 415.766538 
L 141.259981 415.681458 
L 143.624321 415.84786 
L 145.98866 416.444025 
L 148.353 417.434234 
L 150.71734 418.771269 
L 153.081679 420.40018 
L 155.446019 422.261881 
L 158.992528 425.360056 
L 171.996396 437.219023 
L 175.542906 440.045265 
L 179.089415 442.572734 
L 182.635925 444.785621 
L 186.182434 446.68865 
L 189.728943 448.30055 
L 193.275453 449.6484 
L 196.821962 450.763191 
L 200.368472 451.676639 
L 205.097151 452.63349 
L 209.82583 453.350656 
L 215.736679 453.992099 
L 222.829698 454.495986 
L 231.104887 454.846095 
L 242.926585 455.096432 
L 261.841302 455.233222 
L 310.310264 455.274762 
L 586.938 455.275694 
L 586.938 455.275694 
" clip-path="url(#pec18a06bc8)" style="fill: none; stroke: #d65c00; stroke-width: 2.5; stroke-linecap: round"/>
   </g>
   <g id="line2d_27">
    <path d="M 85.698 457.725797 
L 93.973189 458.615393 
L 102.248377 459.753421 
L 110.523566 461.128618 
L 131.802623 464.853425 
L 137.713472 465.572162 
L 142.442151 465.950424 
L 147.17083 466.125383 
L 151.899509 466.081307 
L 156.628189 465.81732 
L 161.356868 465.351438 
L 167.267717 464.542225 
L 176.725075 462.9566 
L 189.728943 460.784909 
L 198.004132 459.625243 
L 206.279321 458.678341 
L 215.736679 457.833384 
L 226.376208 457.128996 
L 238.197906 456.574911 
L 253.566113 456.100334 
L 272.48083 455.751818 
L 299.670736 455.493466 
L 342.228849 455.337873 
L 433.255925 455.278712 
L 586.938 455.275701 
L 586.938 455.275701 
" clip-path="url(#pec18a06bc8)" style="fill: none; stroke: #d65c00; stroke-width: 2.5; stroke-linecap: round"/>
   </g>
   <g id="line2d_28">
    <path d="M 85.698 457.349111 
L 92.791019 458.168044 
L 98.701868 459.093038 
L 103.430547 460.046872 
L 108.159226 461.24894 
L 111.705736 462.354072 
L 115.252245 463.670061 
L 118.798755 465.230377 
L 122.345264 467.063735 
L 125.891774 469.186499 
L 129.438283 471.593856 
L 132.984792 474.251911 
L 138.895642 479.041516 
L 144.806491 483.830963 
L 148.353 486.443582 
L 150.71734 487.991605 
L 153.081679 489.342124 
L 155.446019 490.46466 
L 157.810358 491.335542 
L 160.174698 491.938858 
L 162.539038 492.26692 
L 164.903377 492.320255 
L 167.267717 492.107115 
L 169.632057 491.642575 
L 171.996396 490.947337 
L 174.360736 490.046343 
L 177.907245 488.37016 
L 181.453755 486.392075 
L 186.182434 483.451093 
L 201.550642 473.569247 
L 206.279321 470.867371 
L 211.008 468.429109 
L 215.736679 466.270824 
L 220.465358 464.391274 
L 225.194038 462.777242 
L 229.922717 461.408027 
L 234.651396 460.258863 
L 240.562245 459.091787 
L 246.473094 458.176939 
L 253.566113 457.346753 
L 260.659132 456.743067 
L 268.934321 456.24971 
L 279.573849 455.845197 
L 293.759887 455.550596 
L 315.038943 455.366171 
L 356.414887 455.285718 
L 586.938 455.275695 
L 586.938 455.275695 
" clip-path="url(#pec18a06bc8)" style="fill: none; stroke: #d65c00; stroke-width: 2.5; stroke-linecap: round"/>
   </g>
   <g id="line2d_29">
    <path d="M 85.698 453.627458 
L 92.791019 452.883068 
L 98.701868 452.047098 
L 104.612717 450.978261 
L 110.523566 449.659431 
L 116.434415 448.109497 
L 135.349132 442.857826 
L 138.895642 442.159836 
L 142.442151 441.66525 
L 145.98866 441.41421 
L 149.53517 441.436517 
L 153.081679 441.746607 
L 156.628189 442.339294 
L 160.174698 443.187825 
L 163.721208 444.245408 
L 169.632057 446.301466 
L 179.089415 449.669102 
L 183.818094 451.123507 
L 188.546774 452.336473 
L 193.275453 453.295712 
L 198.004132 454.018707 
L 202.732811 454.53953 
L 208.64366 454.967086 
L 215.736679 455.249147 
L 225.194038 455.395352 
L 242.926585 455.39872 
L 316.221113 455.281053 
L 586.938 455.275694 
L 586.938 455.275694 
" clip-path="url(#pec18a06bc8)" style="fill: none; stroke: #d65c00; stroke-width: 2.5; stroke-linecap: round"/>
   </g>
   <g id="line2d_30">
    <path d="M 85.698 451.216741 
L 89.244509 450.180484 
L 92.791019 448.890562 
L 96.337528 447.290935 
L 98.701868 446.020663 
L 101.066208 444.562444 
L 103.430547 442.893091 
L 105.794887 440.987975 
L 108.159226 438.821339 
L 110.523566 436.36671 
L 112.887906 433.597392 
L 115.252245 430.487005 
L 117.616585 427.010007 
L 119.980925 423.142165 
L 122.345264 418.860908 
L 124.709604 414.145557 
L 127.073943 408.977494 
L 129.438283 403.340365 
L 131.802623 397.220492 
L 134.166962 390.60766 
L 136.531302 383.496413 
L 138.895642 375.887856 
L 142.442151 363.567051 
L 145.98866 350.233936 
L 149.53517 336.039732 
L 154.263849 316.173717 
L 163.721208 275.999158 
L 167.267717 261.810355 
L 170.814226 248.554556 
L 174.360736 236.43145 
L 176.725075 229.040838 
L 179.089415 222.224262 
L 181.453755 215.983906 
L 183.818094 210.310129 
L 186.182434 205.183697 
L 188.546774 200.578048 
L 190.911113 196.461442 
L 193.275453 192.798873 
L 195.639792 189.553697 
L 198.004132 186.688953 
L 200.368472 184.168382 
L 202.732811 181.957173 
L 205.097151 180.022475 
L 207.461491 178.333721 
L 209.82583 176.862786 
L 212.19017 175.584043 
L 215.736679 173.976258 
L 219.283189 172.680959 
L 222.829698 171.640643 
L 226.376208 170.807418 
L 231.104887 169.95124 
L 235.833566 169.318962 
L 241.744415 168.75812 
L 248.837434 168.31783 
L 258.294792 167.976875 
L 271.29866 167.753674 
L 293.759887 167.631365 
L 358.779226 167.598921 
L 586.938 167.598565 
L 586.938 167.598565 
" clip-path="url(#pec18a06bc8)" style="fill: none; stroke: #0071b2; stroke-width: 2.5; stroke-linecap: round"/>
   </g>
   <g id="line2d_31">
    <path d="M 85.698 446.288118 
L 88.06234 444.379579 
L 90.426679 442.083918 
L 92.791019 439.330574 
L 95.155358 436.039585 
L 97.519698 432.121862 
L 99.884038 427.480255 
L 102.248377 422.011731 
L 104.612717 415.610973 
L 106.977057 408.175708 
L 109.341396 399.613913 
L 111.705736 389.852843 
L 114.070075 378.849418 
L 116.434415 366.601036 
L 118.798755 353.155375 
L 121.163094 338.617316 
L 124.709604 315.136653 
L 130.620453 273.584075 
L 135.349132 240.757796 
L 138.895642 217.798476 
L 141.259981 203.660462 
L 143.624321 190.604569 
L 145.98866 178.69567 
L 148.353 167.950376 
L 150.71734 158.346002 
L 153.081679 149.830469 
L 155.446019 142.331826 
L 157.810358 135.76651 
L 160.174698 130.045969 
L 162.539038 125.081575 
L 164.903377 120.788005 
L 167.267717 117.085357 
L 169.632057 113.900298 
L 171.996396 111.166514 
L 174.360736 108.824709 
L 176.725075 106.822301 
L 179.089415 105.112966 
L 181.453755 103.656099 
L 183.818094 102.416252 
L 186.182434 101.362591 
L 189.728943 100.073687 
L 193.275453 99.068859 
L 196.821962 98.287661 
L 201.550642 97.51216 
L 206.279321 96.962193 
L 212.19017 96.496291 
L 220.465358 96.109619 
L 231.104887 95.865271 
L 248.837434 95.723855 
L 292.577717 95.680474 
L 586.938 95.679282 
L 586.938 95.679282 
" clip-path="url(#pec18a06bc8)" style="fill: none; stroke-dasharray: 3,6; stroke-dashoffset: 0; stroke: #000000; stroke-opacity: 0.7; stroke-width: 3"/>
   </g>
   <g id="line2d_32">
    <path d="M 85.698 456.85282 
L 93.973189 457.607268 
L 101.066208 458.463982 
L 110.523566 459.848726 
L 118.798755 461.029778 
L 123.527434 461.517879 
L 128.256113 461.763546 
L 131.802623 461.757928 
L 136.531302 461.497346 
L 141.259981 460.994658 
L 148.353 459.974989 
L 160.174698 458.257124 
L 167.267717 457.468879 
L 174.360736 456.89353 
L 182.635925 456.436606 
L 193.275453 456.070534 
L 209.82583 455.753467 
L 237.015736 455.49305 
L 279.573849 455.331519 
L 368.236585 455.277823 
L 586.938 455.275695 
L 586.938 455.275695 
" clip-path="url(#pec18a06bc8)" style="fill: none; stroke-dasharray: 3,6; stroke-dashoffset: 0; stroke: #000000; stroke-opacity: 0.7; stroke-width: 3"/>
   </g>
   <g id="line2d_33">
    <path d="M 85.698 450.12963 
L 89.244509 449.025313 
L 92.791019 447.711202 
L 96.337528 446.161926 
L 99.884038 444.357054 
L 103.430547 442.286209 
L 106.977057 439.955765 
L 111.705736 436.502288 
L 124.709604 426.612475 
L 127.073943 425.118096 
L 129.438283 423.822112 
L 131.802623 422.755698 
L 134.166962 421.940176 
L 136.531302 421.38611 
L 138.895642 421.093592 
L 141.259981 421.053565 
L 143.624321 421.249821 
L 145.98866 421.661261 
L 148.353 422.264047 
L 151.899509 423.472872 
L 155.446019 424.975351 
L 160.174698 427.308298 
L 166.085547 430.544296 
L 180.271585 438.480885 
L 186.182434 441.461961 
L 190.911113 443.611986 
L 195.639792 445.530955 
L 200.368472 447.213798 
L 205.097151 448.666531 
L 209.82583 449.903001 
L 214.554509 450.942025 
L 220.465358 451.995923 
L 226.376208 452.818244 
L 233.469226 453.557756 
L 241.744415 454.159685 
L 251.201774 454.604053 
L 263.023472 454.925721 
L 279.573849 455.138286 
L 307.945925 455.24894 
L 398.973 455.275563 
L 586.938 455.275694 
L 586.938 455.275694 
" clip-path="url(#pec18a06bc8)" style="fill: none; stroke-dasharray: 3,6; stroke-dashoffset: 0; stroke: #000000; stroke-opacity: 0.7; stroke-width: 3"/>
   </g>
   <g id="line2d_34">
    <path d="M 85.698 454.288493 
L 92.791019 453.724768 
L 98.701868 453.050929 
L 104.612717 452.153991 
L 110.523566 451.034143 
L 125.891774 447.884966 
L 129.438283 447.406523 
L 132.984792 447.124814 
L 136.531302 447.060461 
L 140.077811 447.208783 
L 144.806491 447.687539 
L 150.71734 448.58706 
L 167.267717 451.325825 
L 174.360736 452.230001 
L 182.635925 453.060019 
L 192.093283 453.777522 
L 202.732811 454.355703 
L 214.554509 454.773752 
L 228.740547 455.052077 
L 250.019604 455.217451 
L 293.759887 455.273138 
L 586.938 455.275694 
L 586.938 455.275694 
" clip-path="url(#pec18a06bc8)" style="fill: none; stroke-dasharray: 3,6; stroke-dashoffset: 0; stroke: #000000; stroke-opacity: 0.7; stroke-width: 3"/>
   </g>
   <g id="line2d_35">
    <path d="M 85.698 452.651286 
L 89.244509 451.871892 
L 92.791019 450.876862 
L 96.337528 449.617574 
L 99.884038 448.04187 
L 102.248377 446.790281 
L 104.612717 445.362284 
L 106.977057 443.748273 
L 109.341396 441.943987 
L 112.887906 438.890478 
L 116.434415 435.472462 
L 122.345264 429.312116 
L 127.073943 424.514283 
L 129.438283 422.365121 
L 131.802623 420.48384 
L 134.166962 418.936666 
L 136.531302 417.775915 
L 138.895642 417.036551 
L 141.259981 416.734573 
L 143.624321 416.867212 
L 145.98866 417.414637 
L 148.353 418.342741 
L 150.71734 419.606497 
L 153.081679 421.153498 
L 155.446019 422.927343 
L 158.992528 425.888377 
L 173.178566 438.244237 
L 176.725075 440.895811 
L 180.271585 443.25969 
L 183.818094 445.326337 
L 187.364604 447.103586 
L 190.911113 448.610799 
L 194.457623 449.873976 
L 198.004132 450.922021 
L 202.732811 452.03499 
L 207.461491 452.881887 
L 212.19017 453.519354 
L 218.101019 454.092973 
L 225.194038 454.547617 
L 234.651396 454.90022 
L 247.655264 455.128069 
L 268.934321 455.244933 
L 332.771491 455.275453 
L 586.938 455.275694 
L 586.938 455.275694 
" clip-path="url(#pec18a06bc8)" style="fill: none; stroke-dasharray: 3,6; stroke-dashoffset: 0; stroke: #000000; stroke-opacity: 0.7; stroke-width: 3"/>
   </g>
   <g id="line2d_36">
    <path d="M 85.698 456.85282 
L 93.973189 457.607268 
L 101.066208 458.463982 
L 110.523566 459.848726 
L 118.798755 461.029778 
L 123.527434 461.517879 
L 128.256113 461.763546 
L 131.802623 461.757928 
L 136.531302 461.497346 
L 141.259981 460.994658 
L 148.353 459.974989 
L 160.174698 458.257124 
L 167.267717 457.468879 
L 174.360736 456.89353 
L 182.635925 456.436606 
L 193.275453 456.070534 
L 209.82583 455.753467 
L 237.015736 455.49305 
L 279.573849 455.331519 
L 368.236585 455.277823 
L 586.938 455.275695 
L 586.938 455.275695 
" clip-path="url(#pec18a06bc8)" style="fill: none; stroke-dasharray: 3,6; stroke-dashoffset: 0; stroke: #000000; stroke-opacity: 0.7; stroke-width: 3"/>
   </g>
   <g id="line2d_37">
    <path d="M 85.698 451.340291 
L 117.616585 449.676471 
L 128.256113 449.404911 
L 137.713472 449.387326 
L 148.353 449.607791 
L 161.356868 450.123046 
L 187.364604 451.214748 
L 199.186302 451.466786 
L 211.008 451.497952 
L 222.829698 451.308609 
L 234.651396 450.909577 
L 247.655264 450.237609 
L 259.476962 449.414753 
L 271.29866 448.382062 
L 283.120358 447.126243 
L 294.942057 445.630943 
L 305.581585 444.066453 
L 316.221113 442.28347 
L 326.860642 440.274379 
L 337.50017 438.036585 
L 348.139698 435.574242 
L 359.961396 432.5903 
L 371.783094 429.37493 
L 385.969132 425.274625 
L 407.248189 418.846105 
L 430.891585 411.753708 
L 445.077623 407.741052 
L 456.899321 404.621436 
L 467.538849 402.022164 
L 478.178377 399.638442 
L 488.817906 397.478383 
L 499.457434 395.542109 
L 510.096962 393.823232 
L 521.91866 392.15449 
L 533.740358 390.719914 
L 546.744226 389.384848 
L 559.748094 388.273402 
L 573.934132 387.279414 
L 586.938 386.5374 
L 586.938 386.5374 
" clip-path="url(#pec18a06bc8)" style="fill: none; stroke-dasharray: 3,6; stroke-dashoffset: 0; stroke: #000000; stroke-opacity: 0.7; stroke-width: 3"/>
   </g>
   <g id="line2d_38">
    <path d="M 85.698 452.56396 
L 101.066208 451.553164 
L 115.252245 450.39639 
L 136.531302 448.594764 
L 143.624321 448.274431 
L 150.71734 448.212144 
L 157.810358 448.383703 
L 168.449887 448.894375 
L 186.182434 449.741172 
L 199.186302 450.117773 
L 221.647528 450.492418 
L 248.837434 451.022643 
L 281.938189 451.933129 
L 332.771491 453.305307 
L 369.418755 454.057474 
L 406.066019 454.588621 
L 446.259792 454.947517 
L 497.093094 455.16403 
L 579.844981 455.260016 
L 586.938 455.262531 
L 586.938 455.262531 
" clip-path="url(#pec18a06bc8)" style="fill: none; stroke-dasharray: 3,6; stroke-dashoffset: 0; stroke: #000000; stroke-opacity: 0.7; stroke-width: 3"/>
   </g>
   <g id="line2d_39">
    <path d="M 85.698 459.531072 
L 93.973189 460.750958 
L 101.066208 462.014561 
L 108.159226 463.482954 
L 116.434415 465.425813 
L 129.438283 468.763914 
L 140.077811 471.409828 
L 147.17083 472.928917 
L 153.081679 473.945826 
L 157.810358 474.553763 
L 162.539038 474.95491 
L 167.267717 475.137126 
L 171.996396 475.09915 
L 176.725075 474.850802 
L 182.635925 474.275447 
L 188.546774 473.457475 
L 195.639792 472.245525 
L 207.461491 469.941586 
L 224.011868 466.722595 
L 234.651396 464.880014 
L 245.290925 463.272313 
L 255.930453 461.898102 
L 266.569981 460.737421 
L 278.391679 459.666177 
L 291.395547 458.71146 
L 305.581585 457.888037 
L 322.131962 457.154717 
L 341.046679 456.545486 
L 363.507906 456.053072 
L 390.697811 455.686847 
L 426.162906 455.441367 
L 480.542717 455.310601 
L 586.938 455.276853 
L 586.938 455.276853 
" clip-path="url(#pec18a06bc8)" style="fill: none; stroke-dasharray: 3,6; stroke-dashoffset: 0; stroke: #000000; stroke-opacity: 0.7; stroke-width: 3"/>
   </g>
   <g id="line2d_40">
    <path d="M 85.698 457.617473 
L 93.973189 458.488719 
L 102.248377 459.61058 
L 110.523566 460.973973 
L 132.984792 464.863376 
L 138.895642 465.541938 
L 143.624321 465.8816 
L 148.353 466.013767 
L 153.081679 465.926131 
L 157.810358 465.623237 
L 163.721208 464.979948 
L 170.814226 463.931182 
L 195.639792 459.982893 
L 203.914981 458.985314 
L 213.37234 458.082679 
L 224.011868 457.32177 
L 235.833566 456.717816 
L 250.019604 456.22855 
L 267.752151 455.848205 
L 292.577717 455.55857 
L 329.224981 455.374303 
L 398.973 455.286879 
L 586.938 455.275702 
L 586.938 455.275702 
" clip-path="url(#pec18a06bc8)" style="fill: none; stroke-dasharray: 3,6; stroke-dashoffset: 0; stroke: #000000; stroke-opacity: 0.7; stroke-width: 3"/>
   </g>
   <g id="line2d_41">
    <path d="M 85.698 450.12963 
L 89.244509 449.025313 
L 92.791019 447.711202 
L 96.337528 446.161926 
L 99.884038 444.357054 
L 103.430547 442.286209 
L 106.977057 439.955765 
L 111.705736 436.502288 
L 124.709604 426.612475 
L 127.073943 425.118096 
L 129.438283 423.822112 
L 131.802623 422.755698 
L 134.166962 421.940176 
L 136.531302 421.38611 
L 138.895642 421.093592 
L 141.259981 421.053565 
L 143.624321 421.249821 
L 145.98866 421.661261 
L 148.353 422.264047 
L 151.899509 423.472872 
L 155.446019 424.975351 
L 160.174698 427.308298 
L 166.085547 430.544296 
L 180.271585 438.480885 
L 186.182434 441.461961 
L 190.911113 443.611986 
L 195.639792 445.530955 
L 200.368472 447.213798 
L 205.097151 448.666531 
L 209.82583 449.903001 
L 214.554509 450.942025 
L 220.465358 451.995923 
L 226.376208 452.818244 
L 233.469226 453.557756 
L 241.744415 454.159685 
L 251.201774 454.604053 
L 263.023472 454.925721 
L 279.573849 455.138286 
L 307.945925 455.24894 
L 398.973 455.275563 
L 586.938 455.275694 
L 586.938 455.275694 
" clip-path="url(#pec18a06bc8)" style="fill: none; stroke-dasharray: 3,6; stroke-dashoffset: 0; stroke: #000000; stroke-opacity: 0.7; stroke-width: 3"/>
   </g>
   <g id="line2d_42">
    <path d="M 85.698 452.56396 
L 101.066208 451.553164 
L 115.252245 450.39639 
L 136.531302 448.594764 
L 143.624321 448.274431 
L 150.71734 448.212144 
L 157.810358 448.383703 
L 168.449887 448.894375 
L 186.182434 449.741172 
L 199.186302 450.117773 
L 221.647528 450.492418 
L 248.837434 451.022643 
L 281.938189 451.933129 
L 332.771491 453.305307 
L 369.418755 454.057474 
L 406.066019 454.588621 
L 446.259792 454.947517 
L 497.093094 455.16403 
L 579.844981 455.260016 
L 586.938 455.262531 
L 586.938 455.262531 
" clip-path="url(#pec18a06bc8)" style="fill: none; stroke-dasharray: 3,6; stroke-dashoffset: 0; stroke: #000000; stroke-opacity: 0.7; stroke-width: 3"/>
   </g>
   <g id="line2d_43">
    <path d="M 85.698 444.574221 
L 90.426679 442.938046 
L 95.155358 441.105723 
L 101.066208 438.541362 
L 106.977057 435.700375 
L 114.070075 432.022577 
L 130.620453 423.322054 
L 137.713472 419.899555 
L 147.17083 415.619148 
L 156.628189 411.324973 
L 161.356868 408.985672 
L 166.085547 406.395929 
L 169.632057 404.237662 
L 173.178566 401.863076 
L 176.725075 399.255067 
L 180.271585 396.408225 
L 183.818094 393.328911 
L 188.546774 388.892515 
L 193.275453 384.13911 
L 199.186302 377.881218 
L 218.101019 357.555453 
L 224.011868 351.699237 
L 228.740547 347.323535 
L 233.469226 343.258093 
L 238.197906 339.520871 
L 242.926585 336.117901 
L 247.655264 333.045416 
L 252.383943 330.292051 
L 257.112623 327.84092 
L 261.841302 325.671474 
L 266.569981 323.761054 
L 271.29866 322.086144 
L 276.02734 320.623322 
L 281.938189 319.058675 
L 287.849038 317.748768 
L 293.759887 316.656084 
L 300.852906 315.584979 
L 307.945925 314.729283 
L 316.221113 313.94827 
L 325.678472 313.277751 
L 337.50017 312.684154 
L 351.686208 312.218105 
L 369.418755 311.872082 
L 394.244321 311.6288 
L 434.438094 311.487901 
L 531.376019 311.439129 
L 586.938 311.437437 
L 586.938 311.437437 
" clip-path="url(#pec18a06bc8)" style="fill: none; stroke-dasharray: 3,6; stroke-dashoffset: 0; stroke: #000000; stroke-opacity: 0.7; stroke-width: 3"/>
   </g>
   <g id="line2d_44">
    <path d="M 85.698 457.678221 
L 93.973189 458.537816 
L 101.066208 459.477951 
L 108.159226 460.637524 
L 115.252245 462.038714 
L 122.345264 463.674557 
L 142.442151 468.538401 
L 147.17083 469.34766 
L 151.899509 469.907547 
L 156.628189 470.200633 
L 161.356868 470.234741 
L 166.085547 470.034538 
L 170.814226 469.63199 
L 176.725075 468.893477 
L 183.818094 467.7388 
L 192.093283 466.141449 
L 218.101019 460.928739 
L 226.376208 459.593075 
L 234.651396 458.494191 
L 242.926585 457.624869 
L 252.383943 456.878383 
L 263.023472 456.291976 
L 274.84517 455.870954 
L 290.213377 455.559574 
L 311.492434 455.367629 
L 350.504038 455.280815 
L 550.290736 455.27568 
L 586.938 455.275691 
L 586.938 455.275691 
" clip-path="url(#pec18a06bc8)" style="fill: none; stroke-dasharray: 3,6; stroke-dashoffset: 0; stroke: #000000; stroke-opacity: 0.7; stroke-width: 3"/>
   </g>
   <g id="line2d_45">
    <path d="M 85.698 457.236997 
L 92.791019 458.028542 
L 98.701868 458.927569 
L 103.430547 459.858999 
L 108.159226 461.037921 
L 111.705736 462.125736 
L 115.252245 463.424775 
L 118.798755 464.968469 
L 122.345264 466.78488 
L 125.891774 468.88892 
L 129.438283 471.273601 
L 132.984792 473.902579 
L 138.895642 478.624425 
L 144.806491 483.321148 
L 148.353 485.869858 
L 150.71734 487.374239 
L 153.081679 488.682086 
L 155.446019 489.764639 
L 157.810358 490.6 
L 160.174698 491.173948 
L 162.539038 491.480288 
L 164.903377 491.520716 
L 167.267717 491.304234 
L 169.632057 490.846207 
L 171.996396 490.167155 
L 174.360736 489.291408 
L 177.907245 487.667905 
L 181.453755 485.756425 
L 186.182434 482.917683 
L 201.550642 473.366153 
L 206.279321 470.744069 
L 211.008 468.371532 
L 215.736679 466.265152 
L 220.465358 464.424741 
L 225.194038 462.838602 
L 229.922717 461.487758 
L 234.651396 460.349196 
L 240.562245 459.18697 
L 246.473094 458.270309 
L 253.566113 457.432463 
L 260.659132 456.818041 
L 268.934321 456.311061 
L 279.573849 455.890223 
L 293.759887 455.57855 
L 313.856774 455.385053 
L 350.504038 455.292265 
L 503.003943 455.2757 
L 586.938 455.275695 
L 586.938 455.275695 
" clip-path="url(#pec18a06bc8)" style="fill: none; stroke-dasharray: 3,6; stroke-dashoffset: 0; stroke: #000000; stroke-opacity: 0.7; stroke-width: 3"/>
   </g>
   <g id="line2d_46">
    <path d="M 85.698 454.288493 
L 92.791019 453.724768 
L 98.701868 453.050929 
L 104.612717 452.153991 
L 110.523566 451.034143 
L 125.891774 447.884966 
L 129.438283 447.406523 
L 132.984792 447.124814 
L 136.531302 447.060461 
L 140.077811 447.208783 
L 144.806491 447.687539 
L 150.71734 448.58706 
L 167.267717 451.325825 
L 174.360736 452.230001 
L 182.635925 453.060019 
L 192.093283 453.777522 
L 202.732811 454.355703 
L 214.554509 454.773752 
L 228.740547 455.052077 
L 250.019604 455.217451 
L 293.759887 455.273138 
L 586.938 455.275694 
L 586.938 455.275694 
" clip-path="url(#pec18a06bc8)" style="fill: none; stroke-dasharray: 3,6; stroke-dashoffset: 0; stroke: #000000; stroke-opacity: 0.7; stroke-width: 3"/>
   </g>
   <g id="line2d_47">
    <path d="M 85.698 459.531072 
L 93.973189 460.750958 
L 101.066208 462.014561 
L 108.159226 463.482954 
L 116.434415 465.425813 
L 129.438283 468.763914 
L 140.077811 471.409828 
L 147.17083 472.928917 
L 153.081679 473.945826 
L 157.810358 474.553763 
L 162.539038 474.95491 
L 167.267717 475.137126 
L 171.996396 475.09915 
L 176.725075 474.850802 
L 182.635925 474.275447 
L 188.546774 473.457475 
L 195.639792 472.245525 
L 207.461491 469.941586 
L 224.011868 466.722595 
L 234.651396 464.880014 
L 245.290925 463.272313 
L 255.930453 461.898102 
L 266.569981 460.737421 
L 278.391679 459.666177 
L 291.395547 458.71146 
L 305.581585 457.888037 
L 322.131962 457.154717 
L 341.046679 456.545486 
L 363.507906 456.053072 
L 390.697811 455.686847 
L 426.162906 455.441367 
L 480.542717 455.310601 
L 586.938 455.276853 
L 586.938 455.276853 
" clip-path="url(#pec18a06bc8)" style="fill: none; stroke-dasharray: 3,6; stroke-dashoffset: 0; stroke: #000000; stroke-opacity: 0.7; stroke-width: 3"/>
   </g>
   <g id="line2d_48">
    <path d="M 85.698 457.678221 
L 93.973189 458.537816 
L 101.066208 459.477951 
L 108.159226 460.637524 
L 115.252245 462.038714 
L 122.345264 463.674557 
L 142.442151 468.538401 
L 147.17083 469.34766 
L 151.899509 469.907547 
L 156.628189 470.200633 
L 161.356868 470.234741 
L 166.085547 470.034538 
L 170.814226 469.63199 
L 176.725075 468.893477 
L 183.818094 467.7388 
L 192.093283 466.141449 
L 218.101019 460.928739 
L 226.376208 459.593075 
L 234.651396 458.494191 
L 242.926585 457.624869 
L 252.383943 456.878383 
L 263.023472 456.291976 
L 274.84517 455.870954 
L 290.213377 455.559574 
L 311.492434 455.367629 
L 350.504038 455.280815 
L 550.290736 455.27568 
L 586.938 455.275691 
L 586.938 455.275691 
" clip-path="url(#pec18a06bc8)" style="fill: none; stroke-dasharray: 3,6; stroke-dashoffset: 0; stroke: #000000; stroke-opacity: 0.7; stroke-width: 3"/>
   </g>
   <g id="line2d_49">
    <path d="M 85.698 449.462765 
L 89.244509 448.378446 
L 92.791019 447.102806 
L 96.337528 445.606221 
L 99.884038 443.856028 
L 103.430547 441.816767 
L 106.977057 439.450666 
L 110.523566 436.71837 
L 114.070075 433.579938 
L 117.616585 429.996084 
L 119.980925 427.340902 
L 122.345264 424.461012 
L 125.891774 419.700177 
L 129.438283 414.388324 
L 132.984792 408.509323 
L 136.531302 402.05893 
L 140.077811 395.047856 
L 143.624321 387.504639 
L 147.17083 379.477802 
L 151.899509 368.146035 
L 157.810358 353.288743 
L 169.632057 323.368144 
L 174.360736 312.134964 
L 177.907245 304.218015 
L 181.453755 296.818032 
L 185.000264 289.983371 
L 188.546774 283.739793 
L 192.093283 278.09275 
L 195.639792 273.030728 
L 199.186302 268.529042 
L 202.732811 264.553606 
L 206.279321 261.064349 
L 209.82583 258.018097 
L 213.37234 255.370845 
L 216.918849 253.079458 
L 220.465358 251.102847 
L 224.011868 249.402729 
L 227.558377 247.944043 
L 231.104887 246.695119 
L 235.833566 245.307766 
L 240.562245 244.185261 
L 245.290925 243.278808 
L 251.201774 242.388525 
L 258.294792 241.594168 
L 266.569981 240.942016 
L 276.02734 240.445284 
L 287.849038 240.062403 
L 304.399415 239.778212 
L 329.224981 239.605199 
L 378.876113 239.527862 
L 586.938 239.517848 
L 586.938 239.517848 
" clip-path="url(#pec18a06bc8)" style="fill: none; stroke-dasharray: 3,6; stroke-dashoffset: 0; stroke: #000000; stroke-opacity: 0.7; stroke-width: 3"/>
   </g>
   <g id="line2d_50">
    <path d="M 85.698 453.7284 
L 92.791019 453.011977 
L 98.701868 452.201959 
L 104.612717 451.160523 
L 110.523566 449.86948 
L 116.434415 448.346756 
L 135.349132 443.165159 
L 138.895642 442.474647 
L 142.442151 441.984891 
L 145.98866 441.735242 
L 149.53517 441.754122 
L 153.081679 442.054074 
L 156.628189 442.62795 
L 160.174698 443.447655 
L 164.903377 444.839968 
L 171.996396 447.269503 
L 179.089415 449.667703 
L 183.818094 451.066617 
L 188.546774 452.240503 
L 193.275453 453.177498 
L 198.004132 453.892824 
L 203.914981 454.522326 
L 209.82583 454.923642 
L 218.101019 455.226049 
L 228.740547 455.365527 
L 250.019604 455.363422 
L 330.407151 455.278607 
L 586.938 455.275694 
L 586.938 455.275694 
" clip-path="url(#pec18a06bc8)" style="fill: none; stroke-dasharray: 3,6; stroke-dashoffset: 0; stroke: #000000; stroke-opacity: 0.7; stroke-width: 3"/>
   </g>
   <g id="line2d_51">
    <path d="M 85.698 452.651286 
L 89.244509 451.871892 
L 92.791019 450.876862 
L 96.337528 449.617574 
L 99.884038 448.04187 
L 102.248377 446.790281 
L 104.612717 445.362284 
L 106.977057 443.748273 
L 109.341396 441.943987 
L 112.887906 438.890478 
L 116.434415 435.472462 
L 122.345264 429.312116 
L 127.073943 424.514283 
L 129.438283 422.365121 
L 131.802623 420.48384 
L 134.166962 418.936666 
L 136.531302 417.775915 
L 138.895642 417.036551 
L 141.259981 416.734573 
L 143.624321 416.867212 
L 145.98866 417.414637 
L 148.353 418.342741 
L 150.71734 419.606497 
L 153.081679 421.153498 
L 155.446019 422.927343 
L 158.992528 425.888377 
L 173.178566 438.244237 
L 176.725075 440.895811 
L 180.271585 443.25969 
L 183.818094 445.326337 
L 187.364604 447.103586 
L 190.911113 448.610799 
L 194.457623 449.873976 
L 198.004132 450.922021 
L 202.732811 452.03499 
L 207.461491 452.881887 
L 212.19017 453.519354 
L 218.101019 454.092973 
L 225.194038 454.547617 
L 234.651396 454.90022 
L 247.655264 455.128069 
L 268.934321 455.244933 
L 332.771491 455.275453 
L 586.938 455.275694 
L 586.938 455.275694 
" clip-path="url(#pec18a06bc8)" style="fill: none; stroke-dasharray: 3,6; stroke-dashoffset: 0; stroke: #000000; stroke-opacity: 0.7; stroke-width: 3"/>
   </g>
   <g id="line2d_52">
    <path d="M 85.698 457.617473 
L 93.973189 458.488719 
L 102.248377 459.61058 
L 110.523566 460.973973 
L 132.984792 464.863376 
L 138.895642 465.541938 
L 143.624321 465.8816 
L 148.353 466.013767 
L 153.081679 465.926131 
L 157.810358 465.623237 
L 163.721208 464.979948 
L 170.814226 463.931182 
L 195.639792 459.982893 
L 203.914981 458.985314 
L 213.37234 458.082679 
L 224.011868 457.32177 
L 235.833566 456.717816 
L 250.019604 456.22855 
L 267.752151 455.848205 
L 292.577717 455.55857 
L 329.224981 455.374303 
L 398.973 455.286879 
L 586.938 455.275702 
L 586.938 455.275702 
" clip-path="url(#pec18a06bc8)" style="fill: none; stroke-dasharray: 3,6; stroke-dashoffset: 0; stroke: #000000; stroke-opacity: 0.7; stroke-width: 3"/>
   </g>
   <g id="line2d_53">
    <path d="M 85.698 457.236997 
L 92.791019 458.028542 
L 98.701868 458.927569 
L 103.430547 459.858999 
L 108.159226 461.037921 
L 111.705736 462.125736 
L 115.252245 463.424775 
L 118.798755 464.968469 
L 122.345264 466.78488 
L 125.891774 468.88892 
L 129.438283 471.273601 
L 132.984792 473.902579 
L 138.895642 478.624425 
L 144.806491 483.321148 
L 148.353 485.869858 
L 150.71734 487.374239 
L 153.081679 488.682086 
L 155.446019 489.764639 
L 157.810358 490.6 
L 160.174698 491.173948 
L 162.539038 491.480288 
L 164.903377 491.520716 
L 167.267717 491.304234 
L 169.632057 490.846207 
L 171.996396 490.167155 
L 174.360736 489.291408 
L 177.907245 487.667905 
L 181.453755 485.756425 
L 186.182434 482.917683 
L 201.550642 473.366153 
L 206.279321 470.744069 
L 211.008 468.371532 
L 215.736679 466.265152 
L 220.465358 464.424741 
L 225.194038 462.838602 
L 229.922717 461.487758 
L 234.651396 460.349196 
L 240.562245 459.18697 
L 246.473094 458.270309 
L 253.566113 457.432463 
L 260.659132 456.818041 
L 268.934321 456.311061 
L 279.573849 455.890223 
L 293.759887 455.57855 
L 313.856774 455.385053 
L 350.504038 455.292265 
L 503.003943 455.2757 
L 586.938 455.275695 
L 586.938 455.275695 
" clip-path="url(#pec18a06bc8)" style="fill: none; stroke-dasharray: 3,6; stroke-dashoffset: 0; stroke: #000000; stroke-opacity: 0.7; stroke-width: 3"/>
   </g>
   <g id="line2d_54">
    <path d="M 85.698 453.7284 
L 92.791019 453.011977 
L 98.701868 452.201959 
L 104.612717 451.160523 
L 110.523566 449.86948 
L 116.434415 448.346756 
L 135.349132 443.165159 
L 138.895642 442.474647 
L 142.442151 441.984891 
L 145.98866 441.735242 
L 149.53517 441.754122 
L 153.081679 442.054074 
L 156.628189 442.62795 
L 160.174698 443.447655 
L 164.903377 444.839968 
L 171.996396 447.269503 
L 179.089415 449.667703 
L 183.818094 451.066617 
L 188.546774 452.240503 
L 193.275453 453.177498 
L 198.004132 453.892824 
L 203.914981 454.522326 
L 209.82583 454.923642 
L 218.101019 455.226049 
L 228.740547 455.365527 
L 250.019604 455.363422 
L 330.407151 455.278607 
L 586.938 455.275694 
L 586.938 455.275694 
" clip-path="url(#pec18a06bc8)" style="fill: none; stroke-dasharray: 3,6; stroke-dashoffset: 0; stroke: #000000; stroke-opacity: 0.7; stroke-width: 3"/>
   </g>
   <g id="line2d_55">
    <path d="M 85.698 451.51421 
L 89.244509 450.529511 
L 92.791019 449.297527 
L 96.337528 447.762142 
L 98.701868 446.538018 
L 101.066208 445.128372 
L 103.430547 443.509727 
L 105.794887 441.657079 
L 108.159226 439.54421 
L 110.523566 437.144099 
L 112.887906 434.429408 
L 115.252245 431.373011 
L 117.616585 427.948507 
L 119.980925 424.130671 
L 122.345264 419.895802 
L 124.709604 415.221979 
L 127.073943 410.089282 
L 129.438283 404.48012 
L 131.802623 398.379808 
L 134.166962 391.777562 
L 136.531302 384.667984 
L 138.895642 377.053004 
L 142.442151 364.711186 
L 145.98866 351.35113 
L 149.53517 337.134352 
L 154.263849 317.261172 
L 163.721208 277.17902 
L 167.267717 263.047397 
L 170.814226 249.845483 
L 174.360736 237.762522 
L 176.725075 230.387043 
L 179.089415 223.574556 
L 181.453755 217.326625 
L 183.818094 211.633706 
L 186.182434 206.47726 
L 188.546774 201.831877 
L 190.911113 197.667265 
L 193.275453 193.950025 
L 195.639792 190.645155 
L 198.004132 187.717277 
L 200.368472 185.13159 
L 202.732811 182.85457 
L 205.097151 180.854467 
L 207.461491 179.101618 
L 209.82583 177.568619 
L 212.19017 176.23039 
L 215.736679 174.539033 
L 219.283189 173.167613 
L 222.829698 172.058914 
L 226.376208 171.164961 
L 231.104887 170.23912 
L 235.833566 169.548981 
L 241.744415 168.93024 
L 248.837434 168.437898 
L 257.112623 168.086383 
L 268.934321 167.821917 
L 287.849038 167.661946 
L 329.224981 167.602525 
L 586.938 167.598565 
L 586.938 167.598565 
" clip-path="url(#pec18a06bc8)" style="fill: none; stroke-dasharray: 3,6; stroke-dashoffset: 0; stroke: #000000; stroke-opacity: 0.7; stroke-width: 3"/>
   </g>
   <g id="patch_3">
    <path d="M 60.636 512.16 
L 60.636 23.76 
" style="fill: none; stroke: #262626; stroke-width: 1.875; stroke-linejoin: miter; stroke-linecap: square"/>
   </g>
   <g id="patch_4">
    <path d="M 60.636 512.16 
L 612 512.16 
" style="fill: none; stroke: #262626; stroke-width: 1.875; stroke-linejoin: miter; stroke-linecap: square"/>
   </g>
  </g>
 </g>
 <defs>
  <clipPath id="pec18a06bc8">
   <rect x="60.636" y="23.76" width="551.364" height="488.4"/>
  </clipPath>
 </defs>
</svg>
