<?xml version="1.0" encoding="utf-8" standalone="no"?>
<!DOCTYPE svg PUBLIC "-//W3C//DTD SVG 1.1//EN"
  "http://www.w3.org/Graphics/SVG/1.1/DTD/svg11.dtd">
<svg xmlns:xlink="http://www.w3.org/1999/xlink" width="720pt" height="576pt" viewBox="0 0 720 576" xmlns="http://www.w3.org/2000/svg" version="1.1">
 <metadata>
  <rdf:RDF xmlns:dc="http://purl.org/dc/elements/1.1/" xmlns:cc="http://creativecommons.org/ns#" xmlns:rdf="http://www.w3.org/1999/02/22-rdf-syntax-ns#">
   <cc:Work>
    <dc:type rdf:resource="http://purl.org/dc/dcmitype/StillImage"/>
    <dc:date>2023-01-13T11:49:54.031013</dc:date>
    <dc:format>image/svg+xml</dc:format>
    <dc:creator>
     <cc:Agent>
      <dc:title>Matplotlib v3.5.1, https://matplotlib.org/</dc:title>
     </cc:Agent>
    </dc:creator>
   </cc:Work>
  </rdf:RDF>
 </metadata>
 <defs>
  <style type="text/css">*{stroke-linejoin: round; stroke-linecap: butt}</style>
 </defs>
 <g id="figure_1">
  <g id="patch_1">
   <path d="M 0 576 
L 720 576 
L 720 0 
L 0 0 
z
" style="fill: #ffffff"/>
  </g>
  <g id="axes_1">
   <g id="patch_2">
    <path d="M 62.652 168.253333 
L 217.475128 168.253333 
L 217.475128 39.4 
L 62.652 39.4 
z
" style="fill: #ffffff"/>
   </g>
   <g id="matplotlib.axis_1">
    <g id="xtick_1">
     <g id="line2d_1">
      <defs>
       <path id="m05f1267d5e" d="M 0 0 
L 0 9 
" style="stroke: #1a1a1a; stroke-width: 1.875"/>
      </defs>
      <g>
       <use xlink:href="#m05f1267d5e" x="69.689415" y="168.253333" style="fill: #1a1a1a; stroke: #1a1a1a; stroke-width: 1.875"/>
      </g>
     </g>
     <g id="text_1">
      <!-- 1 -->
      <g style="fill: #1a1a1a" transform="translate(66.352852 189.342708)scale(0.12 -0.12)">
       <defs>
        <path id="ArialMT-31" d="M 2384 0 
L 1822 0 
L 1822 3584 
Q 1619 3391 1289 3197 
Q 959 3003 697 2906 
L 697 3450 
Q 1169 3672 1522 3987 
Q 1875 4303 2022 4600 
L 2384 4600 
L 2384 0 
z
" transform="scale(0.015625)"/>
       </defs>
       <use xlink:href="#ArialMT-31"/>
      </g>
     </g>
    </g>
    <g id="xtick_2">
     <g id="line2d_2">
      <g>
       <use xlink:href="#m05f1267d5e" x="183.630973" y="168.253333" style="fill: #1a1a1a; stroke: #1a1a1a; stroke-width: 1.875"/>
      </g>
     </g>
     <g id="text_2">
      <!-- 300000 -->
      <g style="fill: #1a1a1a" transform="translate(163.611598 189.342708)scale(0.12 -0.12)">
       <defs>
        <path id="ArialMT-33" d="M 269 1209 
L 831 1284 
Q 928 806 1161 595 
Q 1394 384 1728 384 
Q 2125 384 2398 659 
Q 2672 934 2672 1341 
Q 2672 1728 2419 1979 
Q 2166 2231 1775 2231 
Q 1616 2231 1378 2169 
L 1441 2663 
Q 1497 2656 1531 2656 
Q 1891 2656 2178 2843 
Q 2466 3031 2466 3422 
Q 2466 3731 2256 3934 
Q 2047 4138 1716 4138 
Q 1388 4138 1169 3931 
Q 950 3725 888 3313 
L 325 3413 
Q 428 3978 793 4289 
Q 1159 4600 1703 4600 
Q 2078 4600 2393 4439 
Q 2709 4278 2876 4000 
Q 3044 3722 3044 3409 
Q 3044 3113 2884 2869 
Q 2725 2625 2413 2481 
Q 2819 2388 3044 2092 
Q 3269 1797 3269 1353 
Q 3269 753 2831 336 
Q 2394 -81 1725 -81 
Q 1122 -81 723 278 
Q 325 638 269 1209 
z
" transform="scale(0.015625)"/>
        <path id="ArialMT-30" d="M 266 2259 
Q 266 3072 433 3567 
Q 600 4063 929 4331 
Q 1259 4600 1759 4600 
Q 2128 4600 2406 4451 
Q 2684 4303 2865 4023 
Q 3047 3744 3150 3342 
Q 3253 2941 3253 2259 
Q 3253 1453 3087 958 
Q 2922 463 2592 192 
Q 2263 -78 1759 -78 
Q 1097 -78 719 397 
Q 266 969 266 2259 
z
M 844 2259 
Q 844 1131 1108 757 
Q 1372 384 1759 384 
Q 2147 384 2411 759 
Q 2675 1134 2675 2259 
Q 2675 3391 2411 3762 
Q 2147 4134 1753 4134 
Q 1366 4134 1134 3806 
Q 844 3388 844 2259 
z
" transform="scale(0.015625)"/>
       </defs>
       <use xlink:href="#ArialMT-33"/>
       <use xlink:href="#ArialMT-30" x="55.615234"/>
       <use xlink:href="#ArialMT-30" x="111.230469"/>
       <use xlink:href="#ArialMT-30" x="166.845703"/>
       <use xlink:href="#ArialMT-30" x="222.460938"/>
       <use xlink:href="#ArialMT-30" x="278.076172"/>
      </g>
     </g>
    </g>
   </g>
   <g id="matplotlib.axis_2">
    <g id="ytick_1">
     <g id="line2d_3">
      <defs>
       <path id="mfb7ac7e1db" d="M 0 0 
L -9 0 
" style="stroke: #1a1a1a; stroke-width: 1.875"/>
      </defs>
      <g>
       <use xlink:href="#mfb7ac7e1db" x="62.652" y="162.396364" style="fill: #1a1a1a; stroke: #1a1a1a; stroke-width: 1.875"/>
      </g>
     </g>
     <g id="text_3">
      <!-- 0 -->
      <g style="fill: #1a1a1a" transform="translate(43.478875 166.691051)scale(0.12 -0.12)">
       <use xlink:href="#ArialMT-30"/>
      </g>
     </g>
    </g>
    <g id="ytick_2">
     <g id="line2d_4">
      <g>
       <use xlink:href="#mfb7ac7e1db" x="62.652" y="120.118315" style="fill: #1a1a1a; stroke: #1a1a1a; stroke-width: 1.875"/>
      </g>
     </g>
     <g id="text_4">
      <!-- 2 -->
      <g style="fill: #1a1a1a" transform="translate(43.478875 124.413002)scale(0.12 -0.12)">
       <defs>
        <path id="ArialMT-32" d="M 3222 541 
L 3222 0 
L 194 0 
Q 188 203 259 391 
Q 375 700 629 1000 
Q 884 1300 1366 1694 
Q 2113 2306 2375 2664 
Q 2638 3022 2638 3341 
Q 2638 3675 2398 3904 
Q 2159 4134 1775 4134 
Q 1369 4134 1125 3890 
Q 881 3647 878 3216 
L 300 3275 
Q 359 3922 746 4261 
Q 1134 4600 1788 4600 
Q 2447 4600 2831 4234 
Q 3216 3869 3216 3328 
Q 3216 3053 3103 2787 
Q 2991 2522 2730 2228 
Q 2469 1934 1863 1422 
Q 1356 997 1212 845 
Q 1069 694 975 541 
L 3222 541 
z
" transform="scale(0.015625)"/>
       </defs>
       <use xlink:href="#ArialMT-32"/>
      </g>
     </g>
    </g>
    <g id="ytick_3">
     <g id="line2d_5">
      <g>
       <use xlink:href="#mfb7ac7e1db" x="62.652" y="77.840266" style="fill: #1a1a1a; stroke: #1a1a1a; stroke-width: 1.875"/>
      </g>
     </g>
     <g id="text_5">
      <!-- 4 -->
      <g style="fill: #1a1a1a" transform="translate(43.478875 82.134953)scale(0.12 -0.12)">
       <defs>
        <path id="ArialMT-34" d="M 2069 0 
L 2069 1097 
L 81 1097 
L 81 1613 
L 2172 4581 
L 2631 4581 
L 2631 1613 
L 3250 1613 
L 3250 1097 
L 2631 1097 
L 2631 0 
L 2069 0 
z
M 2069 1613 
L 2069 3678 
L 634 1613 
L 2069 1613 
z
" transform="scale(0.015625)"/>
       </defs>
       <use xlink:href="#ArialMT-34"/>
      </g>
     </g>
    </g>
    <g id="text_6">
     <!-- $A^TA(t)$ -->
     <g style="fill: #262626" transform="translate(35.901375 131.456667)rotate(-90)scale(0.18 -0.18)">
      <defs>
       <path id="DejaVuSans-Oblique-41" d="M 2356 4666 
L 3072 4666 
L 3938 0 
L 3278 0 
L 3084 1197 
L 984 1197 
L 325 0 
L -341 0 
L 2356 4666 
z
M 2584 4044 
L 1275 1722 
L 2988 1722 
L 2584 4044 
z
" transform="scale(0.015625)"/>
       <path id="DejaVuSans-Oblique-54" d="M 378 4666 
L 4325 4666 
L 4225 4134 
L 2559 4134 
L 1759 0 
L 1125 0 
L 1925 4134 
L 275 4134 
L 378 4666 
z
" transform="scale(0.015625)"/>
       <path id="DejaVuSans-28" d="M 1984 4856 
Q 1566 4138 1362 3434 
Q 1159 2731 1159 2009 
Q 1159 1288 1364 580 
Q 1569 -128 1984 -844 
L 1484 -844 
Q 1016 -109 783 600 
Q 550 1309 550 2009 
Q 550 2706 781 3412 
Q 1013 4119 1484 4856 
L 1984 4856 
z
" transform="scale(0.015625)"/>
       <path id="DejaVuSans-Oblique-74" d="M 2706 3500 
L 2619 3053 
L 1472 3053 
L 1100 1153 
Q 1081 1047 1072 975 
Q 1063 903 1063 863 
Q 1063 663 1183 572 
Q 1303 481 1569 481 
L 2150 481 
L 2053 0 
L 1503 0 
Q 991 0 739 200 
Q 488 400 488 806 
Q 488 878 497 964 
Q 506 1050 525 1153 
L 897 3053 
L 409 3053 
L 500 3500 
L 978 3500 
L 1172 4494 
L 1747 4494 
L 1556 3500 
L 2706 3500 
z
" transform="scale(0.015625)"/>
       <path id="DejaVuSans-29" d="M 513 4856 
L 1013 4856 
Q 1481 4119 1714 3412 
Q 1947 2706 1947 2009 
Q 1947 1309 1714 600 
Q 1481 -109 1013 -844 
L 513 -844 
Q 928 -128 1133 580 
Q 1338 1288 1338 2009 
Q 1338 2731 1133 3434 
Q 928 4138 513 4856 
z
" transform="scale(0.015625)"/>
      </defs>
      <use xlink:href="#DejaVuSans-Oblique-41" transform="translate(0 0.684375)"/>
      <use xlink:href="#DejaVuSans-Oblique-54" transform="translate(75.424974 38.965625)scale(0.7)"/>
      <use xlink:href="#DejaVuSans-Oblique-41" transform="translate(120.918138 0.684375)"/>
      <use xlink:href="#DejaVuSans-28" transform="translate(189.326341 0.684375)"/>
      <use xlink:href="#DejaVuSans-Oblique-74" transform="translate(228.340013 0.684375)"/>
      <use xlink:href="#DejaVuSans-29" transform="translate(267.548997 0.684375)"/>
     </g>
    </g>
   </g>
   <g id="line2d_6">
    <path d="M 69.689415 162.396364 
L 79.15799 162.285312 
L 79.559825 162.038513 
L 79.842021 161.584409 
L 80.097251 160.699778 
L 80.348303 158.921772 
L 80.603533 155.312694 
L 80.871677 147.945051 
L 81.174382 132.65037 
L 81.659016 94.063476 
L 82.154663 62.112718 
L 82.509402 51.853037 
L 82.840593 47.855826 
L 83.165328 46.277849 
L 83.49576 45.648122 
L 83.872907 45.387317 
L 84.468444 45.279898 
L 86.474961 45.257035 
L 210.437713 45.25697 
L 210.437713 45.25697 
" clip-path="url(#p73b25ded95)" style="fill: none; stroke: #0071b2; stroke-width: 2.5; stroke-linecap: round"/>
   </g>
   <g id="line2d_7">
    <path d="M 69.689415 162.396364 
L 210.437713 162.396364 
L 210.437713 162.396364 
" clip-path="url(#p73b25ded95)" style="fill: none; stroke: #d65c00; stroke-width: 2.5; stroke-linecap: round"/>
   </g>
   <g id="line2d_8">
    <path d="M 69.689415 162.396364 
L 210.437713 162.396364 
L 210.437713 162.396364 
" clip-path="url(#p73b25ded95)" style="fill: none; stroke: #d65c00; stroke-width: 2.5; stroke-linecap: round"/>
   </g>
   <g id="line2d_9">
    <path d="M 69.689415 162.396364 
L 178.071746 162.285255 
L 182.18467 162.045083 
L 184.807994 161.678804 
L 186.8373 161.176597 
L 188.591246 160.515347 
L 190.254038 159.648503 
L 192.01748 158.469454 
L 194.516606 156.493753 
L 197.345025 154.332367 
L 199.123659 153.258883 
L 200.821014 152.493092 
L 202.624335 151.926387 
L 204.710232 151.510976 
L 207.361661 151.221512 
L 210.437713 151.065744 
L 210.437713 151.065744 
" clip-path="url(#p73b25ded95)" style="fill: none; stroke: #0071b2; stroke-width: 2.5; stroke-linecap: round"/>
   </g>
   <g id="line2d_10">
    <path d="M 69.689415 162.396364 
L 79.155711 162.285316 
L 79.557546 162.038407 
L 79.839743 161.583988 
L 80.094973 160.698568 
L 80.346025 158.918684 
L 80.601255 155.305388 
L 80.869398 147.929101 
L 81.172483 132.595305 
L 81.659016 93.837776 
L 82.152764 62.085142 
L 82.507503 51.844191 
L 82.838694 47.853494 
L 83.163429 46.277437 
L 83.493861 45.648169 
L 83.871008 45.387412 
L 84.466545 45.279937 
L 86.471163 45.257036 
L 210.437713 45.25697 
L 210.437713 45.25697 
" clip-path="url(#p73b25ded95)" style="fill: none; stroke-dasharray: 3,6; stroke-dashoffset: 0; stroke: #000000; stroke-opacity: 0.7; stroke-width: 3"/>
   </g>
   <g id="line2d_11">
    <path d="M 69.689415 162.396364 
L 210.437713 162.396364 
L 210.437713 162.396364 
" clip-path="url(#p73b25ded95)" style="fill: none; stroke-dasharray: 3,6; stroke-dashoffset: 0; stroke: #000000; stroke-opacity: 0.7; stroke-width: 3"/>
   </g>
   <g id="line2d_12">
    <path d="M 69.689415 162.396364 
L 210.437713 162.396364 
L 210.437713 162.396364 
" clip-path="url(#p73b25ded95)" style="fill: none; stroke-dasharray: 3,6; stroke-dashoffset: 0; stroke: #000000; stroke-opacity: 0.7; stroke-width: 3"/>
   </g>
   <g id="line2d_13">
    <path d="M 69.689415 162.396364 
L 178.068708 162.285261 
L 182.181632 162.04509 
L 184.804955 161.678806 
L 186.834261 161.176585 
L 188.588207 160.515316 
L 190.251 159.648448 
L 192.014441 158.469379 
L 194.513568 156.493679 
L 197.341607 154.332602 
L 199.12024 153.259094 
L 200.817975 152.493125 
L 202.621296 151.926429 
L 204.707193 151.511015 
L 207.358622 151.221541 
L 210.437713 151.065664 
L 210.437713 151.065664 
" clip-path="url(#p73b25ded95)" style="fill: none; stroke-dasharray: 3,6; stroke-dashoffset: 0; stroke: #000000; stroke-opacity: 0.7; stroke-width: 3"/>
   </g>
   <g id="line2d_14">
    <path d="M 81.61078 168.253333 
L 81.61078 -1 
" clip-path="url(#p73b25ded95)" style="fill: none; stroke-dasharray: 4,8; stroke-dashoffset: 0; stroke: #cc78a6; stroke-width: 4"/>
   </g>
   <g id="patch_3">
    <path d="M 62.652 168.253333 
L 62.652 39.4 
" style="fill: none; stroke: #262626; stroke-width: 1.875; stroke-linejoin: miter; stroke-linecap: square"/>
   </g>
   <g id="patch_4">
    <path d="M 62.652 168.253333 
L 217.475128 168.253333 
" style="fill: none; stroke: #262626; stroke-width: 1.875; stroke-linejoin: miter; stroke-linecap: square"/>
   </g>
   <g id="text_7">
    <!-- Small -->
    <g style="fill: #262626" transform="translate(117.559345 32.4)scale(0.18 -0.18)">
     <defs>
      <path id="ArialMT-53" d="M 288 1472 
L 859 1522 
Q 900 1178 1048 958 
Q 1197 738 1509 602 
Q 1822 466 2213 466 
Q 2559 466 2825 569 
Q 3091 672 3220 851 
Q 3350 1031 3350 1244 
Q 3350 1459 3225 1620 
Q 3100 1781 2813 1891 
Q 2628 1963 1997 2114 
Q 1366 2266 1113 2400 
Q 784 2572 623 2826 
Q 463 3081 463 3397 
Q 463 3744 659 4045 
Q 856 4347 1234 4503 
Q 1613 4659 2075 4659 
Q 2584 4659 2973 4495 
Q 3363 4331 3572 4012 
Q 3781 3694 3797 3291 
L 3216 3247 
Q 3169 3681 2898 3903 
Q 2628 4125 2100 4125 
Q 1550 4125 1298 3923 
Q 1047 3722 1047 3438 
Q 1047 3191 1225 3031 
Q 1400 2872 2139 2705 
Q 2878 2538 3153 2413 
Q 3553 2228 3743 1945 
Q 3934 1663 3934 1294 
Q 3934 928 3725 604 
Q 3516 281 3123 101 
Q 2731 -78 2241 -78 
Q 1619 -78 1198 103 
Q 778 284 539 648 
Q 300 1013 288 1472 
z
" transform="scale(0.015625)"/>
      <path id="ArialMT-6d" d="M 422 0 
L 422 3319 
L 925 3319 
L 925 2853 
Q 1081 3097 1340 3245 
Q 1600 3394 1931 3394 
Q 2300 3394 2536 3241 
Q 2772 3088 2869 2813 
Q 3263 3394 3894 3394 
Q 4388 3394 4653 3120 
Q 4919 2847 4919 2278 
L 4919 0 
L 4359 0 
L 4359 2091 
Q 4359 2428 4304 2576 
Q 4250 2725 4106 2815 
Q 3963 2906 3769 2906 
Q 3419 2906 3187 2673 
Q 2956 2441 2956 1928 
L 2956 0 
L 2394 0 
L 2394 2156 
Q 2394 2531 2256 2718 
Q 2119 2906 1806 2906 
Q 1569 2906 1367 2781 
Q 1166 2656 1075 2415 
Q 984 2175 984 1722 
L 984 0 
L 422 0 
z
" transform="scale(0.015625)"/>
      <path id="ArialMT-61" d="M 2588 409 
Q 2275 144 1986 34 
Q 1697 -75 1366 -75 
Q 819 -75 525 192 
Q 231 459 231 875 
Q 231 1119 342 1320 
Q 453 1522 633 1644 
Q 813 1766 1038 1828 
Q 1203 1872 1538 1913 
Q 2219 1994 2541 2106 
Q 2544 2222 2544 2253 
Q 2544 2597 2384 2738 
Q 2169 2928 1744 2928 
Q 1347 2928 1158 2789 
Q 969 2650 878 2297 
L 328 2372 
Q 403 2725 575 2942 
Q 747 3159 1072 3276 
Q 1397 3394 1825 3394 
Q 2250 3394 2515 3294 
Q 2781 3194 2906 3042 
Q 3031 2891 3081 2659 
Q 3109 2516 3109 2141 
L 3109 1391 
Q 3109 606 3145 398 
Q 3181 191 3288 0 
L 2700 0 
Q 2613 175 2588 409 
z
M 2541 1666 
Q 2234 1541 1622 1453 
Q 1275 1403 1131 1340 
Q 988 1278 909 1158 
Q 831 1038 831 891 
Q 831 666 1001 516 
Q 1172 366 1500 366 
Q 1825 366 2078 508 
Q 2331 650 2450 897 
Q 2541 1088 2541 1459 
L 2541 1666 
z
" transform="scale(0.015625)"/>
      <path id="ArialMT-6c" d="M 409 0 
L 409 4581 
L 972 4581 
L 972 0 
L 409 0 
z
" transform="scale(0.015625)"/>
     </defs>
     <use xlink:href="#ArialMT-53"/>
     <use xlink:href="#ArialMT-6d" x="66.699219"/>
     <use xlink:href="#ArialMT-61" x="150"/>
     <use xlink:href="#ArialMT-6c" x="205.615234"/>
     <use xlink:href="#ArialMT-6c" x="227.832031"/>
    </g>
   </g>
  </g>
  <g id="axes_2">
   <g id="patch_5">
    <path d="M 259.914436 168.253333 
L 414.737564 168.253333 
L 414.737564 39.4 
L 259.914436 39.4 
z
" style="fill: #ffffff"/>
   </g>
   <g id="matplotlib.axis_3">
    <g id="xtick_3">
     <g id="line2d_15">
      <g>
       <use xlink:href="#m05f1267d5e" x="266.951851" y="168.253333" style="fill: #1a1a1a; stroke: #1a1a1a; stroke-width: 1.875"/>
      </g>
     </g>
     <g id="text_8">
      <!-- 1 -->
      <g style="fill: #1a1a1a" transform="translate(263.615288 189.342708)scale(0.12 -0.12)">
       <use xlink:href="#ArialMT-31"/>
      </g>
     </g>
    </g>
    <g id="xtick_4">
     <g id="line2d_16">
      <g>
       <use xlink:href="#m05f1267d5e" x="399.648063" y="168.253333" style="fill: #1a1a1a; stroke: #1a1a1a; stroke-width: 1.875"/>
      </g>
     </g>
     <g id="text_9">
      <!-- 100000 -->
      <g style="fill: #1a1a1a" transform="translate(379.628688 189.342708)scale(0.12 -0.12)">
       <use xlink:href="#ArialMT-31"/>
       <use xlink:href="#ArialMT-30" x="55.615234"/>
       <use xlink:href="#ArialMT-30" x="111.230469"/>
       <use xlink:href="#ArialMT-30" x="166.845703"/>
       <use xlink:href="#ArialMT-30" x="222.460938"/>
       <use xlink:href="#ArialMT-30" x="278.076172"/>
      </g>
     </g>
    </g>
   </g>
   <g id="matplotlib.axis_4">
    <g id="ytick_4">
     <g id="line2d_17">
      <g>
       <use xlink:href="#mfb7ac7e1db" x="259.914436" y="162.396364" style="fill: #1a1a1a; stroke: #1a1a1a; stroke-width: 1.875"/>
      </g>
     </g>
     <g id="text_10">
      <!-- 0 -->
      <g style="fill: #1a1a1a" transform="translate(240.741311 166.691051)scale(0.12 -0.12)">
       <use xlink:href="#ArialMT-30"/>
      </g>
     </g>
    </g>
    <g id="ytick_5">
     <g id="line2d_18">
      <g>
       <use xlink:href="#mfb7ac7e1db" x="259.914436" y="120.118315" style="fill: #1a1a1a; stroke: #1a1a1a; stroke-width: 1.875"/>
      </g>
     </g>
     <g id="text_11">
      <!-- 2 -->
      <g style="fill: #1a1a1a" transform="translate(240.741311 124.413002)scale(0.12 -0.12)">
       <use xlink:href="#ArialMT-32"/>
      </g>
     </g>
    </g>
    <g id="ytick_6">
     <g id="line2d_19">
      <g>
       <use xlink:href="#mfb7ac7e1db" x="259.914436" y="77.840266" style="fill: #1a1a1a; stroke: #1a1a1a; stroke-width: 1.875"/>
      </g>
     </g>
     <g id="text_12">
      <!-- 4 -->
      <g style="fill: #1a1a1a" transform="translate(240.741311 82.134953)scale(0.12 -0.12)">
       <use xlink:href="#ArialMT-34"/>
      </g>
     </g>
    </g>
   </g>
   <g id="line2d_20">
    <path d="M 266.951851 153.322822 
L 267.498565 148.859832 
L 268.078453 142.16609 
L 268.723363 131.941476 
L 269.534145 115.17294 
L 271.572379 71.412832 
L 272.283638 61.630975 
L 272.928548 55.60862 
L 273.542938 51.813943 
L 274.14273 49.405706 
L 274.741196 47.865326 
L 275.352932 46.872631 
L 276.007131 46.22218 
L 276.756872 45.790812 
L 277.714948 45.507188 
L 279.142774 45.337906 
L 282.020983 45.265353 
L 300.17268 45.25697 
L 407.700149 45.25697 
L 407.700149 45.25697 
" clip-path="url(#pcdf0a80b44)" style="fill: none; stroke: #0071b2; stroke-width: 2.5; stroke-linecap: round"/>
   </g>
   <g id="line2d_21">
    <path d="M 266.951851 156.892831 
L 268.152764 154.19673 
L 269.210363 152.013996 
L 269.746461 151.369393 
L 270.144554 151.201801 
L 270.496202 151.290948 
L 270.892968 151.642156 
L 271.421104 152.4423 
L 272.324774 154.292025 
L 273.877335 157.400043 
L 274.867259 158.87283 
L 275.833297 159.921693 
L 276.84976 160.700687 
L 277.984324 161.288129 
L 279.332531 161.729065 
L 281.057599 162.048054 
L 283.512504 162.258361 
L 287.769441 162.368668 
L 301.036541 162.396179 
L 407.700149 162.396364 
L 407.700149 162.396364 
" clip-path="url(#pcdf0a80b44)" style="fill: none; stroke: #d65c00; stroke-width: 2.5; stroke-linecap: round"/>
   </g>
   <g id="line2d_22">
    <path d="M 266.951851 156.892831 
L 268.152764 154.19673 
L 269.210363 152.013996 
L 269.746461 151.369393 
L 270.144554 151.201801 
L 270.496202 151.290948 
L 270.892968 151.642156 
L 271.421104 152.4423 
L 272.324774 154.292025 
L 273.877335 157.400043 
L 274.867259 158.87283 
L 275.833297 159.921693 
L 276.84976 160.700687 
L 277.984324 161.288129 
L 279.332531 161.729065 
L 281.057599 162.048054 
L 283.512504 162.258361 
L 287.769441 162.368668 
L 301.036541 162.396179 
L 407.700149 162.396364 
L 407.700149 162.396364 
" clip-path="url(#pcdf0a80b44)" style="fill: none; stroke: #d65c00; stroke-width: 2.5; stroke-linecap: round"/>
   </g>
   <g id="line2d_23">
    <path d="M 266.951851 159.046485 
L 268.010777 159.181513 
L 268.901178 159.5211 
L 269.897736 160.158066 
L 272.06336 161.612619 
L 273.136883 162.000782 
L 274.458551 162.228668 
L 276.585692 162.340608 
L 282.672528 162.353884 
L 303.034966 162.177676 
L 314.047534 161.873791 
L 321.919152 161.442296 
L 328.341713 160.872593 
L 334.068939 160.143563 
L 339.626312 159.210812 
L 345.733053 157.952263 
L 365.405463 153.702494 
L 370.966817 152.867055 
L 376.74314 152.22755 
L 383.225415 151.739674 
L 391.079782 151.380963 
L 401.594735 151.137944 
L 407.700149 151.065744 
L 407.700149 151.065744 
" clip-path="url(#pcdf0a80b44)" style="fill: none; stroke: #0071b2; stroke-width: 2.5; stroke-linecap: round"/>
   </g>
   <g id="line2d_24">
    <path d="M 266.951851 153.331806 
L 267.498565 148.871612 
L 268.078453 142.181267 
L 268.723363 131.960647 
L 269.532818 115.226716 
L 271.575033 71.393038 
L 272.286292 61.620177 
L 272.931202 55.603387 
L 273.545591 51.811839 
L 274.145384 49.40521 
L 274.74385 47.865567 
L 275.355586 46.873138 
L 276.009785 46.222711 
L 276.759526 45.791249 
L 277.717602 45.507477 
L 279.145428 45.338039 
L 282.020983 45.265392 
L 300.101023 45.25697 
L 407.700149 45.25697 
L 407.700149 45.25697 
" clip-path="url(#pcdf0a80b44)" style="fill: none; stroke-dasharray: 3,6; stroke-dashoffset: 0; stroke: #000000; stroke-opacity: 0.7; stroke-width: 3"/>
   </g>
   <g id="line2d_25">
    <path d="M 266.951851 156.895531 
L 268.151437 154.202609 
L 269.210363 152.016239 
L 269.746461 151.371103 
L 270.144554 151.203015 
L 270.496202 151.291669 
L 270.892968 151.64229 
L 271.421104 152.44168 
L 272.323447 154.287542 
L 273.878662 157.400228 
L 274.868586 158.872622 
L 275.834624 159.921314 
L 276.851087 160.700262 
L 277.985651 161.287732 
L 279.333858 161.728744 
L 281.058926 162.047831 
L 283.513831 162.258242 
L 287.769441 162.36862 
L 301.021944 162.396178 
L 407.700149 162.396364 
L 407.700149 162.396364 
" clip-path="url(#pcdf0a80b44)" style="fill: none; stroke-dasharray: 3,6; stroke-dashoffset: 0; stroke: #000000; stroke-opacity: 0.7; stroke-width: 3"/>
   </g>
   <g id="line2d_26">
    <path d="M 266.951851 156.895531 
L 268.151437 154.202609 
L 269.210363 152.016239 
L 269.746461 151.371103 
L 270.144554 151.203015 
L 270.496202 151.291669 
L 270.892968 151.64229 
L 271.421104 152.44168 
L 272.323447 154.287542 
L 273.878662 157.400228 
L 274.868586 158.872622 
L 275.834624 159.921314 
L 276.851087 160.700262 
L 277.985651 161.287732 
L 279.333858 161.728744 
L 281.058926 162.047831 
L 283.513831 162.258242 
L 287.769441 162.36862 
L 301.021944 162.396178 
L 407.700149 162.396364 
L 407.700149 162.396364 
" clip-path="url(#pcdf0a80b44)" style="fill: none; stroke-dasharray: 3,6; stroke-dashoffset: 0; stroke: #000000; stroke-opacity: 0.7; stroke-width: 3"/>
   </g>
   <g id="line2d_27">
    <path d="M 266.951851 159.046456 
L 268.010777 159.181355 
L 268.901178 159.520825 
L 269.896409 160.156701 
L 272.064687 161.612849 
L 273.13821 162.000842 
L 274.461204 162.228796 
L 276.589673 162.340647 
L 282.684471 162.353845 
L 303.0416 162.17755 
L 314.050188 161.873646 
L 321.921806 161.442024 
L 328.34304 160.872306 
L 334.070266 160.143149 
L 339.627639 159.210269 
L 345.73438 157.951607 
L 365.397501 153.703611 
L 370.958855 152.867927 
L 376.733852 152.22831 
L 383.214799 151.740261 
L 391.066513 151.381393 
L 401.576158 151.138221 
L 407.700149 151.065746 
L 407.700149 151.065746 
" clip-path="url(#pcdf0a80b44)" style="fill: none; stroke-dasharray: 3,6; stroke-dashoffset: 0; stroke: #000000; stroke-opacity: 0.7; stroke-width: 3"/>
   </g>
   <g id="line2d_28">
    <path d="M 270.177728 168.253333 
L 270.177728 -1 
" clip-path="url(#pcdf0a80b44)" style="fill: none; stroke-dasharray: 4,8; stroke-dashoffset: 0; stroke: #cc78a6; stroke-width: 4"/>
   </g>
   <g id="patch_6">
    <path d="M 259.914436 168.253333 
L 259.914436 39.4 
" style="fill: none; stroke: #262626; stroke-width: 1.875; stroke-linejoin: miter; stroke-linecap: square"/>
   </g>
   <g id="patch_7">
    <path d="M 259.914436 168.253333 
L 414.737564 168.253333 
" style="fill: none; stroke: #262626; stroke-width: 1.875; stroke-linejoin: miter; stroke-linecap: square"/>
   </g>
   <g id="text_13">
    <!-- Intermediate -->
    <g style="fill: #262626" transform="translate(287.302875 32.4)scale(0.18 -0.18)">
     <defs>
      <path id="ArialMT-49" d="M 597 0 
L 597 4581 
L 1203 4581 
L 1203 0 
L 597 0 
z
" transform="scale(0.015625)"/>
      <path id="ArialMT-6e" d="M 422 0 
L 422 3319 
L 928 3319 
L 928 2847 
Q 1294 3394 1984 3394 
Q 2284 3394 2536 3286 
Q 2788 3178 2913 3003 
Q 3038 2828 3088 2588 
Q 3119 2431 3119 2041 
L 3119 0 
L 2556 0 
L 2556 2019 
Q 2556 2363 2490 2533 
Q 2425 2703 2258 2804 
Q 2091 2906 1866 2906 
Q 1506 2906 1245 2678 
Q 984 2450 984 1813 
L 984 0 
L 422 0 
z
" transform="scale(0.015625)"/>
      <path id="ArialMT-74" d="M 1650 503 
L 1731 6 
Q 1494 -44 1306 -44 
Q 1000 -44 831 53 
Q 663 150 594 308 
Q 525 466 525 972 
L 525 2881 
L 113 2881 
L 113 3319 
L 525 3319 
L 525 4141 
L 1084 4478 
L 1084 3319 
L 1650 3319 
L 1650 2881 
L 1084 2881 
L 1084 941 
Q 1084 700 1114 631 
Q 1144 563 1211 522 
Q 1278 481 1403 481 
Q 1497 481 1650 503 
z
" transform="scale(0.015625)"/>
      <path id="ArialMT-65" d="M 2694 1069 
L 3275 997 
Q 3138 488 2766 206 
Q 2394 -75 1816 -75 
Q 1088 -75 661 373 
Q 234 822 234 1631 
Q 234 2469 665 2931 
Q 1097 3394 1784 3394 
Q 2450 3394 2872 2941 
Q 3294 2488 3294 1666 
Q 3294 1616 3291 1516 
L 816 1516 
Q 847 969 1125 678 
Q 1403 388 1819 388 
Q 2128 388 2347 550 
Q 2566 713 2694 1069 
z
M 847 1978 
L 2700 1978 
Q 2663 2397 2488 2606 
Q 2219 2931 1791 2931 
Q 1403 2931 1139 2672 
Q 875 2413 847 1978 
z
" transform="scale(0.015625)"/>
      <path id="ArialMT-72" d="M 416 0 
L 416 3319 
L 922 3319 
L 922 2816 
Q 1116 3169 1280 3281 
Q 1444 3394 1641 3394 
Q 1925 3394 2219 3213 
L 2025 2691 
Q 1819 2813 1613 2813 
Q 1428 2813 1281 2702 
Q 1134 2591 1072 2394 
Q 978 2094 978 1738 
L 978 0 
L 416 0 
z
" transform="scale(0.015625)"/>
      <path id="ArialMT-64" d="M 2575 0 
L 2575 419 
Q 2259 -75 1647 -75 
Q 1250 -75 917 144 
Q 584 363 401 755 
Q 219 1147 219 1656 
Q 219 2153 384 2558 
Q 550 2963 881 3178 
Q 1213 3394 1622 3394 
Q 1922 3394 2156 3267 
Q 2391 3141 2538 2938 
L 2538 4581 
L 3097 4581 
L 3097 0 
L 2575 0 
z
M 797 1656 
Q 797 1019 1065 703 
Q 1334 388 1700 388 
Q 2069 388 2326 689 
Q 2584 991 2584 1609 
Q 2584 2291 2321 2609 
Q 2059 2928 1675 2928 
Q 1300 2928 1048 2622 
Q 797 2316 797 1656 
z
" transform="scale(0.015625)"/>
      <path id="ArialMT-69" d="M 425 3934 
L 425 4581 
L 988 4581 
L 988 3934 
L 425 3934 
z
M 425 0 
L 425 3319 
L 988 3319 
L 988 0 
L 425 0 
z
" transform="scale(0.015625)"/>
     </defs>
     <use xlink:href="#ArialMT-49"/>
     <use xlink:href="#ArialMT-6e" x="27.783203"/>
     <use xlink:href="#ArialMT-74" x="83.398438"/>
     <use xlink:href="#ArialMT-65" x="111.181641"/>
     <use xlink:href="#ArialMT-72" x="166.796875"/>
     <use xlink:href="#ArialMT-6d" x="200.097656"/>
     <use xlink:href="#ArialMT-65" x="283.398438"/>
     <use xlink:href="#ArialMT-64" x="339.013672"/>
     <use xlink:href="#ArialMT-69" x="394.628906"/>
     <use xlink:href="#ArialMT-61" x="416.845703"/>
     <use xlink:href="#ArialMT-74" x="472.460938"/>
     <use xlink:href="#ArialMT-65" x="500.244141"/>
    </g>
   </g>
  </g>
  <g id="axes_3">
   <g id="patch_8">
    <path d="M 457.176872 168.253333 
L 612 168.253333 
L 612 39.4 
L 457.176872 39.4 
z
" style="fill: #ffffff"/>
   </g>
   <g id="matplotlib.axis_5">
    <g id="xtick_5">
     <g id="line2d_29">
      <g>
       <use xlink:href="#m05f1267d5e" x="464.214287" y="168.253333" style="fill: #1a1a1a; stroke: #1a1a1a; stroke-width: 1.875"/>
      </g>
     </g>
     <g id="text_14">
      <!-- 1 -->
      <g style="fill: #1a1a1a" transform="translate(460.877724 189.342708)scale(0.12 -0.12)">
       <use xlink:href="#ArialMT-31"/>
      </g>
     </g>
    </g>
    <g id="xtick_6">
     <g id="line2d_30">
      <g>
       <use xlink:href="#m05f1267d5e" x="596.736089" y="168.253333" style="fill: #1a1a1a; stroke: #1a1a1a; stroke-width: 1.875"/>
      </g>
     </g>
     <g id="text_15">
      <!-- 40000 -->
      <g style="fill: #1a1a1a" transform="translate(580.053276 189.342708)scale(0.12 -0.12)">
       <use xlink:href="#ArialMT-34"/>
       <use xlink:href="#ArialMT-30" x="55.615234"/>
       <use xlink:href="#ArialMT-30" x="111.230469"/>
       <use xlink:href="#ArialMT-30" x="166.845703"/>
       <use xlink:href="#ArialMT-30" x="222.460938"/>
      </g>
     </g>
    </g>
   </g>
   <g id="matplotlib.axis_6">
    <g id="ytick_7">
     <g id="line2d_31">
      <g>
       <use xlink:href="#mfb7ac7e1db" x="457.176872" y="126.116968" style="fill: #1a1a1a; stroke: #1a1a1a; stroke-width: 1.875"/>
      </g>
     </g>
     <g id="text_16">
      <!-- 0 -->
      <g style="fill: #1a1a1a" transform="translate(438.003747 130.411655)scale(0.12 -0.12)">
       <use xlink:href="#ArialMT-30"/>
      </g>
     </g>
    </g>
    <g id="ytick_8">
     <g id="line2d_32">
      <g>
       <use xlink:href="#mfb7ac7e1db" x="457.176872" y="100.572845" style="fill: #1a1a1a; stroke: #1a1a1a; stroke-width: 1.875"/>
      </g>
     </g>
     <g id="text_17">
      <!-- 30 -->
      <g style="fill: #1a1a1a" transform="translate(431.330622 104.867533)scale(0.12 -0.12)">
       <use xlink:href="#ArialMT-33"/>
       <use xlink:href="#ArialMT-30" x="55.615234"/>
      </g>
     </g>
    </g>
    <g id="ytick_9">
     <g id="line2d_33">
      <g>
       <use xlink:href="#mfb7ac7e1db" x="457.176872" y="75.028723" style="fill: #1a1a1a; stroke: #1a1a1a; stroke-width: 1.875"/>
      </g>
     </g>
     <g id="text_18">
      <!-- 60 -->
      <g style="fill: #1a1a1a" transform="translate(431.330622 79.323411)scale(0.12 -0.12)">
       <defs>
        <path id="ArialMT-36" d="M 3184 3459 
L 2625 3416 
Q 2550 3747 2413 3897 
Q 2184 4138 1850 4138 
Q 1581 4138 1378 3988 
Q 1113 3794 959 3422 
Q 806 3050 800 2363 
Q 1003 2672 1297 2822 
Q 1591 2972 1913 2972 
Q 2475 2972 2870 2558 
Q 3266 2144 3266 1488 
Q 3266 1056 3080 686 
Q 2894 316 2569 119 
Q 2244 -78 1831 -78 
Q 1128 -78 684 439 
Q 241 956 241 2144 
Q 241 3472 731 4075 
Q 1159 4600 1884 4600 
Q 2425 4600 2770 4297 
Q 3116 3994 3184 3459 
z
M 888 1484 
Q 888 1194 1011 928 
Q 1134 663 1356 523 
Q 1578 384 1822 384 
Q 2178 384 2434 671 
Q 2691 959 2691 1453 
Q 2691 1928 2437 2201 
Q 2184 2475 1800 2475 
Q 1419 2475 1153 2201 
Q 888 1928 888 1484 
z
" transform="scale(0.015625)"/>
       </defs>
       <use xlink:href="#ArialMT-36"/>
       <use xlink:href="#ArialMT-30" x="55.615234"/>
      </g>
     </g>
    </g>
   </g>
   <g id="line2d_34">
    <path d="M 464.214287 47.002368 
L 464.409761 89.616205 
L 464.671498 103.587624 
L 464.996185 110.150528 
L 465.383821 113.836878 
L 465.834406 116.127291 
L 466.347941 117.643614 
L 466.931051 118.700181 
L 467.60693 119.474318 
L 468.418646 120.064194 
L 469.439089 120.523258 
L 470.797472 120.878942 
L 472.735652 121.140814 
L 475.81686 121.309917 
L 482.06542 121.387871 
L 515.803001 121.398643 
L 604.962585 121.398644 
L 604.962585 121.398644 
" clip-path="url(#p44d69283c8)" style="fill: none; stroke: #0071b2; stroke-width: 2.5; stroke-linecap: round"/>
   </g>
   <g id="line2d_35">
    <path d="M 464.214287 161.411651 
L 464.406448 138.390871 
L 464.654933 131.815501 
L 464.953114 129.17995 
L 465.297679 127.922849 
L 465.701881 127.23509 
L 466.205476 126.813875 
L 466.911173 126.529672 
L 468.064141 126.330429 
L 470.336947 126.199355 
L 476.403284 126.131044 
L 511.78749 126.116977 
L 604.962585 126.116968 
L 604.962585 126.116968 
" clip-path="url(#p44d69283c8)" style="fill: none; stroke: #d65c00; stroke-width: 2.5; stroke-linecap: round"/>
   </g>
   <g id="line2d_36">
    <path d="M 464.214287 161.411651 
L 464.406448 138.390871 
L 464.654933 131.815501 
L 464.953114 129.17995 
L 465.297679 127.922849 
L 465.701881 127.23509 
L 466.205476 126.813875 
L 466.911173 126.529672 
L 468.064141 126.330429 
L 470.336947 126.199355 
L 476.403284 126.131044 
L 511.78749 126.116977 
L 604.962585 126.116968 
L 604.962585 126.116968 
" clip-path="url(#p44d69283c8)" style="fill: none; stroke: #d65c00; stroke-width: 2.5; stroke-linecap: round"/>
   </g>
   <g id="line2d_37">
    <path d="M 464.214287 88.782196 
L 464.416387 105.666237 
L 464.701316 112.413052 
L 465.065761 116.145722 
L 465.506407 118.504458 
L 466.019941 120.100901 
L 466.612991 121.246036 
L 467.308748 122.115319 
L 468.150283 122.808909 
L 469.20717 123.384157 
L 470.595371 123.875297 
L 472.497106 124.299014 
L 475.230437 124.664604 
L 479.36522 124.975102 
L 486.027921 125.231158 
L 497.703383 125.431554 
L 520.772693 125.572044 
L 577.387422 125.644557 
L 604.962585 125.651419 
L 604.962585 125.651419 
" clip-path="url(#p44d69283c8)" style="fill: none; stroke: #0071b2; stroke-width: 2.5; stroke-linecap: round"/>
   </g>
   <g id="line2d_38">
    <path d="M 464.214287 45.25697 
L 464.409761 89.09856 
L 464.671498 103.37586 
L 464.996185 110.045308 
L 465.383821 113.777969 
L 465.831093 116.078832 
L 466.341315 117.605426 
L 466.924425 118.675418 
L 467.59699 119.454953 
L 468.405393 120.049696 
L 469.419211 120.5119 
L 470.767654 120.870519 
L 472.689268 121.135207 
L 475.730719 121.306765 
L 481.833501 121.386924 
L 513.092862 121.398643 
L 604.962585 121.398644 
L 604.962585 121.398644 
" clip-path="url(#p44d69283c8)" style="fill: none; stroke-dasharray: 3,6; stroke-dashoffset: 0; stroke: #000000; stroke-opacity: 0.7; stroke-width: 3"/>
   </g>
   <g id="line2d_39">
    <path d="M 464.214287 162.396364 
L 464.406448 138.668697 
L 464.65162 131.971359 
L 464.946488 129.267253 
L 465.291053 127.966009 
L 465.691942 127.262247 
L 466.188911 126.832553 
L 466.881355 126.542828 
L 468.004505 126.339312 
L 470.191169 126.204692 
L 475.896376 126.133128 
L 506.721717 126.116992 
L 604.962585 126.116968 
L 604.962585 126.116968 
" clip-path="url(#p44d69283c8)" style="fill: none; stroke-dasharray: 3,6; stroke-dashoffset: 0; stroke: #000000; stroke-opacity: 0.7; stroke-width: 3"/>
   </g>
   <g id="line2d_40">
    <path d="M 464.214287 162.396364 
L 464.406448 138.668697 
L 464.65162 131.971359 
L 464.946488 129.267253 
L 465.291053 127.966009 
L 465.691942 127.262247 
L 466.188911 126.832553 
L 466.881355 126.542828 
L 468.004505 126.339312 
L 470.191169 126.204692 
L 475.896376 126.133128 
L 506.721717 126.116992 
L 604.962585 126.116968 
L 604.962585 126.116968 
" clip-path="url(#p44d69283c8)" style="fill: none; stroke-dasharray: 3,6; stroke-dashoffset: 0; stroke: #000000; stroke-opacity: 0.7; stroke-width: 3"/>
   </g>
   <g id="line2d_41">
    <path d="M 464.214287 88.141986 
L 464.416387 105.463612 
L 464.698003 112.274338 
L 465.062447 116.074136 
L 465.49978 118.449269 
L 466.010002 120.058343 
L 466.603052 121.218256 
L 467.295496 122.093268 
L 468.130404 122.789516 
L 469.180665 123.368247 
L 470.555613 123.861147 
L 472.440783 124.287253 
L 475.144296 124.654601 
L 479.226069 124.966703 
L 485.789375 125.22438 
L 497.259424 125.426489 
L 519.821825 125.568843 
L 574.660718 125.643455 
L 604.962585 125.651417 
L 604.962585 125.651417 
" clip-path="url(#p44d69283c8)" style="fill: none; stroke-dasharray: 3,6; stroke-dashoffset: 0; stroke: #000000; stroke-opacity: 0.7; stroke-width: 3"/>
   </g>
   <g id="patch_9">
    <path d="M 457.176872 168.253333 
L 457.176872 39.4 
" style="fill: none; stroke: #262626; stroke-width: 1.875; stroke-linejoin: miter; stroke-linecap: square"/>
   </g>
   <g id="patch_10">
    <path d="M 457.176872 168.253333 
L 612 168.253333 
" style="fill: none; stroke: #262626; stroke-width: 1.875; stroke-linejoin: miter; stroke-linecap: square"/>
   </g>
   <g id="text_19">
    <!-- Large -->
    <g style="fill: #262626" transform="translate(511.572342 32.4)scale(0.18 -0.18)">
     <defs>
      <path id="ArialMT-4c" d="M 469 0 
L 469 4581 
L 1075 4581 
L 1075 541 
L 3331 541 
L 3331 0 
L 469 0 
z
" transform="scale(0.015625)"/>
      <path id="ArialMT-67" d="M 319 -275 
L 866 -356 
Q 900 -609 1056 -725 
Q 1266 -881 1628 -881 
Q 2019 -881 2231 -725 
Q 2444 -569 2519 -288 
Q 2563 -116 2559 434 
Q 2191 0 1641 0 
Q 956 0 581 494 
Q 206 988 206 1678 
Q 206 2153 378 2554 
Q 550 2956 876 3175 
Q 1203 3394 1644 3394 
Q 2231 3394 2613 2919 
L 2613 3319 
L 3131 3319 
L 3131 450 
Q 3131 -325 2973 -648 
Q 2816 -972 2473 -1159 
Q 2131 -1347 1631 -1347 
Q 1038 -1347 672 -1080 
Q 306 -813 319 -275 
z
M 784 1719 
Q 784 1066 1043 766 
Q 1303 466 1694 466 
Q 2081 466 2343 764 
Q 2606 1063 2606 1700 
Q 2606 2309 2336 2618 
Q 2066 2928 1684 2928 
Q 1309 2928 1046 2623 
Q 784 2319 784 1719 
z
" transform="scale(0.015625)"/>
     </defs>
     <use xlink:href="#ArialMT-4c"/>
     <use xlink:href="#ArialMT-61" x="55.615234"/>
     <use xlink:href="#ArialMT-72" x="111.230469"/>
     <use xlink:href="#ArialMT-67" x="144.53125"/>
     <use xlink:href="#ArialMT-65" x="200.146484"/>
    </g>
   </g>
  </g>
  <g id="axes_4">
   <g id="patch_11">
    <path d="M 62.652 340.206667 
L 217.475128 340.206667 
L 217.475128 211.353333 
L 62.652 211.353333 
z
" style="fill: #ffffff"/>
   </g>
   <g id="matplotlib.axis_7">
    <g id="xtick_7">
     <g id="line2d_42">
      <g>
       <use xlink:href="#m05f1267d5e" x="69.689415" y="340.206667" style="fill: #1a1a1a; stroke: #1a1a1a; stroke-width: 1.875"/>
      </g>
     </g>
     <g id="text_20">
      <!-- 1 -->
      <g style="fill: #1a1a1a" transform="translate(66.352852 361.296042)scale(0.12 -0.12)">
       <use xlink:href="#ArialMT-31"/>
      </g>
     </g>
    </g>
    <g id="xtick_8">
     <g id="line2d_43">
      <g>
       <use xlink:href="#m05f1267d5e" x="203.589366" y="340.206667" style="fill: #1a1a1a; stroke: #1a1a1a; stroke-width: 1.875"/>
      </g>
     </g>
     <g id="text_21">
      <!-- 200000 -->
      <g style="fill: #1a1a1a" transform="translate(183.569991 361.296042)scale(0.12 -0.12)">
       <use xlink:href="#ArialMT-32"/>
       <use xlink:href="#ArialMT-30" x="55.615234"/>
       <use xlink:href="#ArialMT-30" x="111.230469"/>
       <use xlink:href="#ArialMT-30" x="166.845703"/>
       <use xlink:href="#ArialMT-30" x="222.460938"/>
       <use xlink:href="#ArialMT-30" x="278.076172"/>
      </g>
     </g>
    </g>
   </g>
   <g id="matplotlib.axis_8">
    <g id="ytick_10">
     <g id="line2d_44">
      <g>
       <use xlink:href="#mfb7ac7e1db" x="62.652" y="334.349683" style="fill: #1a1a1a; stroke: #1a1a1a; stroke-width: 1.875"/>
      </g>
     </g>
     <g id="text_22">
      <!-- 0 -->
      <g style="fill: #1a1a1a" transform="translate(43.478875 338.644371)scale(0.12 -0.12)">
       <use xlink:href="#ArialMT-30"/>
      </g>
     </g>
    </g>
    <g id="ytick_11">
     <g id="line2d_45">
      <g>
       <use xlink:href="#mfb7ac7e1db" x="62.652" y="287.493931" style="fill: #1a1a1a; stroke: #1a1a1a; stroke-width: 1.875"/>
      </g>
     </g>
     <g id="text_23">
      <!-- 2 -->
      <g style="fill: #1a1a1a" transform="translate(43.478875 291.788619)scale(0.12 -0.12)">
       <use xlink:href="#ArialMT-32"/>
      </g>
     </g>
    </g>
    <g id="ytick_12">
     <g id="line2d_46">
      <g>
       <use xlink:href="#mfb7ac7e1db" x="62.652" y="240.638179" style="fill: #1a1a1a; stroke: #1a1a1a; stroke-width: 1.875"/>
      </g>
     </g>
     <g id="text_24">
      <!-- 4 -->
      <g style="fill: #1a1a1a" transform="translate(43.478875 244.932867)scale(0.12 -0.12)">
       <use xlink:href="#ArialMT-34"/>
      </g>
     </g>
    </g>
    <g id="text_25">
     <!-- $A^TA(t)$ -->
     <g style="fill: #262626" transform="translate(35.901375 303.41)rotate(-90)scale(0.18 -0.18)">
      <use xlink:href="#DejaVuSans-Oblique-41" transform="translate(0 0.684375)"/>
      <use xlink:href="#DejaVuSans-Oblique-54" transform="translate(75.424974 38.965625)scale(0.7)"/>
      <use xlink:href="#DejaVuSans-Oblique-41" transform="translate(120.918138 0.684375)"/>
      <use xlink:href="#DejaVuSans-28" transform="translate(189.326341 0.684375)"/>
      <use xlink:href="#DejaVuSans-Oblique-74" transform="translate(228.340013 0.684375)"/>
      <use xlink:href="#DejaVuSans-29" transform="translate(267.548997 0.684375)"/>
     </g>
    </g>
   </g>
   <g id="line2d_47">
    <path d="M 69.689415 334.349683 
L 86.932467 334.238682 
L 87.706413 333.997839 
L 88.205193 333.611134 
L 88.612251 333.000466 
L 88.988511 332.003608 
L 89.356738 330.342683 
L 89.728312 327.543259 
L 90.111268 322.808774 
L 90.519665 314.735188 
L 90.987648 300.608225 
L 91.709372 270.721455 
L 92.498047 241.297668 
L 93.012895 229.755297 
L 93.478869 223.81795 
L 93.926097 220.692956 
L 94.367299 219.037775 
L 94.814527 218.154178 
L 95.2959 217.67194 
L 95.884393 217.402332 
L 96.782867 217.260512 
L 98.910547 217.212393 
L 135.178869 217.210303 
L 210.437713 217.210303 
L 210.437713 217.210303 
" clip-path="url(#p65c2733ad5)" style="fill: none; stroke: #0071b2; stroke-width: 2.5; stroke-linecap: round"/>
   </g>
   <g id="line2d_48">
    <path d="M 69.689415 334.349683 
L 210.437713 334.349683 
L 210.437713 334.349683 
" clip-path="url(#p65c2733ad5)" style="fill: none; stroke: #d65c00; stroke-width: 2.5; stroke-linecap: round"/>
   </g>
   <g id="line2d_49">
    <path d="M 69.689415 334.349683 
L 210.437713 334.349683 
L 210.437713 334.349683 
" clip-path="url(#p65c2733ad5)" style="fill: none; stroke: #d65c00; stroke-width: 2.5; stroke-linecap: round"/>
   </g>
   <g id="line2d_50">
    <path d="M 69.689415 334.349683 
L 159.835999 334.238593 
L 163.716439 333.999251 
L 166.145397 333.637087 
L 167.971132 333.146807 
L 169.4822 332.514348 
L 170.821206 331.713299 
L 172.077864 330.699405 
L 173.32247 329.402683 
L 174.634026 327.703092 
L 176.16451 325.333175 
L 181.617613 316.512847 
L 182.957289 314.988876 
L 184.248091 313.850169 
L 185.567682 312.979913 
L 186.989706 312.309755 
L 188.609234 311.797245 
L 190.577573 311.416245 
L 193.187296 311.151154 
L 197.174857 310.991966 
L 205.577121 310.927523 
L 210.437713 310.923145 
L 210.437713 310.923145 
" clip-path="url(#p65c2733ad5)" style="fill: none; stroke: #0071b2; stroke-width: 2.5; stroke-linecap: round"/>
   </g>
   <g id="line2d_51">
    <path d="M 69.689415 334.349683 
L 86.92912 334.238621 
L 87.702396 333.997891 
L 88.201176 333.611106 
L 88.608234 333.000213 
L 88.984494 332.002858 
L 89.352721 330.340921 
L 89.724295 327.539553 
L 90.107251 322.801586 
L 90.515648 314.722341 
L 90.983631 300.587869 
L 91.706694 270.640395 
L 92.49403 241.288282 
L 93.008878 229.753087 
L 93.474852 223.818612 
L 93.92208 220.694363 
L 94.363282 219.039092 
L 94.81051 218.155169 
L 95.291883 217.672589 
L 95.880376 217.402686 
L 96.778849 217.260638 
L 98.903852 217.21241 
L 134.903704 217.210303 
L 210.437713 217.210303 
L 210.437713 217.210303 
" clip-path="url(#p65c2733ad5)" style="fill: none; stroke-dasharray: 3,6; stroke-dashoffset: 0; stroke: #000000; stroke-opacity: 0.7; stroke-width: 3"/>
   </g>
   <g id="line2d_52">
    <path d="M 69.689415 334.349683 
L 210.437713 334.349683 
L 210.437713 334.349683 
" clip-path="url(#p65c2733ad5)" style="fill: none; stroke-dasharray: 3,6; stroke-dashoffset: 0; stroke: #000000; stroke-opacity: 0.7; stroke-width: 3"/>
   </g>
   <g id="line2d_53">
    <path d="M 69.689415 334.349683 
L 210.437713 334.349683 
L 210.437713 334.349683 
" clip-path="url(#p65c2733ad5)" style="fill: none; stroke-dasharray: 3,6; stroke-dashoffset: 0; stroke: #000000; stroke-opacity: 0.7; stroke-width: 3"/>
   </g>
   <g id="line2d_54">
    <path d="M 69.689415 334.349683 
L 159.831982 334.238585 
L 163.711753 333.999273 
L 166.14071 333.637106 
L 167.966445 333.146808 
L 169.477513 332.514314 
L 170.81652 331.713214 
L 172.073177 330.699253 
L 173.317783 329.402451 
L 174.62934 327.702775 
L 176.159824 325.332794 
L 181.611588 316.514483 
L 182.951933 314.989582 
L 184.242735 313.850779 
L 185.562326 312.980419 
L 186.98435 312.310154 
L 188.603878 311.797538 
L 190.572217 311.416439 
L 193.18194 311.151262 
L 197.168831 310.992021 
L 205.567748 310.927535 
L 210.437713 310.923144 
L 210.437713 310.923144 
" clip-path="url(#p65c2733ad5)" style="fill: none; stroke-dasharray: 3,6; stroke-dashoffset: 0; stroke: #000000; stroke-opacity: 0.7; stroke-width: 3"/>
   </g>
   <g id="line2d_55">
    <path d="M 91.864697 340.206667 
L 91.864697 -1 
" clip-path="url(#p65c2733ad5)" style="fill: none; stroke-dasharray: 4,8; stroke-dashoffset: 0; stroke: #cc78a6; stroke-width: 4"/>
   </g>
   <g id="patch_12">
    <path d="M 62.652 340.206667 
L 62.652 211.353333 
" style="fill: none; stroke: #262626; stroke-width: 1.875; stroke-linejoin: miter; stroke-linecap: square"/>
   </g>
   <g id="patch_13">
    <path d="M 62.652 340.206667 
L 217.475128 340.206667 
" style="fill: none; stroke: #262626; stroke-width: 1.875; stroke-linejoin: miter; stroke-linecap: square"/>
   </g>
  </g>
  <g id="axes_5">
   <g id="patch_14">
    <path d="M 259.914436 340.206667 
L 414.737564 340.206667 
L 414.737564 211.353333 
L 259.914436 211.353333 
z
" style="fill: #ffffff"/>
   </g>
   <g id="matplotlib.axis_9">
    <g id="xtick_9">
     <g id="line2d_56">
      <g>
       <use xlink:href="#m05f1267d5e" x="266.951851" y="340.206667" style="fill: #1a1a1a; stroke: #1a1a1a; stroke-width: 1.875"/>
      </g>
     </g>
     <g id="text_26">
      <!-- 1 -->
      <g style="fill: #1a1a1a" transform="translate(263.615288 361.296042)scale(0.12 -0.12)">
       <use xlink:href="#ArialMT-31"/>
      </g>
     </g>
    </g>
    <g id="xtick_10">
     <g id="line2d_57">
      <g>
       <use xlink:href="#m05f1267d5e" x="391.472733" y="340.206667" style="fill: #1a1a1a; stroke: #1a1a1a; stroke-width: 1.875"/>
      </g>
     </g>
     <g id="text_27">
      <!-- 60000 -->
      <g style="fill: #1a1a1a" transform="translate(374.78992 361.296042)scale(0.12 -0.12)">
       <use xlink:href="#ArialMT-36"/>
       <use xlink:href="#ArialMT-30" x="55.615234"/>
       <use xlink:href="#ArialMT-30" x="111.230469"/>
       <use xlink:href="#ArialMT-30" x="166.845703"/>
       <use xlink:href="#ArialMT-30" x="222.460938"/>
      </g>
     </g>
    </g>
   </g>
   <g id="matplotlib.axis_10">
    <g id="ytick_13">
     <g id="line2d_58">
      <g>
       <use xlink:href="#mfb7ac7e1db" x="259.914436" y="334.349697" style="fill: #1a1a1a; stroke: #1a1a1a; stroke-width: 1.875"/>
      </g>
     </g>
     <g id="text_28">
      <!-- 0 -->
      <g style="fill: #1a1a1a" transform="translate(240.741311 338.644384)scale(0.12 -0.12)">
       <use xlink:href="#ArialMT-30"/>
      </g>
     </g>
    </g>
    <g id="ytick_14">
     <g id="line2d_59">
      <g>
       <use xlink:href="#mfb7ac7e1db" x="259.914436" y="287.493939" style="fill: #1a1a1a; stroke: #1a1a1a; stroke-width: 1.875"/>
      </g>
     </g>
     <g id="text_29">
      <!-- 2 -->
      <g style="fill: #1a1a1a" transform="translate(240.741311 291.788627)scale(0.12 -0.12)">
       <use xlink:href="#ArialMT-32"/>
      </g>
     </g>
    </g>
    <g id="ytick_15">
     <g id="line2d_60">
      <g>
       <use xlink:href="#mfb7ac7e1db" x="259.914436" y="240.638182" style="fill: #1a1a1a; stroke: #1a1a1a; stroke-width: 1.875"/>
      </g>
     </g>
     <g id="text_30">
      <!-- 4 -->
      <g style="fill: #1a1a1a" transform="translate(240.741311 244.932869)scale(0.12 -0.12)">
       <use xlink:href="#ArialMT-34"/>
      </g>
     </g>
    </g>
   </g>
   <g id="line2d_61">
    <path d="M 266.951851 320.782089 
L 267.730119 315.816697 
L 268.564423 308.975334 
L 269.506647 299.289473 
L 270.71867 284.302452 
L 273.474778 249.495873 
L 274.491716 239.86808 
L 275.396583 233.303765 
L 276.245414 228.688335 
L 277.06519 225.398803 
L 277.870439 223.042696 
L 278.675687 221.343313 
L 279.499614 220.105754 
L 280.365049 219.198176 
L 281.311423 218.526064 
L 282.403074 218.02724 
L 283.754148 217.663372 
L 285.590862 217.414009 
L 288.500549 217.268074 
L 295.139698 217.213621 
L 375.382291 217.210303 
L 407.700149 217.210303 
L 407.700149 217.210303 
" clip-path="url(#p143808c9d0)" style="fill: none; stroke: #0071b2; stroke-width: 2.5; stroke-linecap: round"/>
   </g>
   <g id="line2d_62">
    <path d="M 266.951851 327.223058 
L 270.536037 321.914858 
L 271.243742 321.392968 
L 271.847678 321.210945 
L 272.420484 321.269631 
L 273.032722 321.565492 
L 273.761181 322.181734 
L 274.749063 323.337485 
L 279.385468 329.158002 
L 280.829934 330.41179 
L 282.315908 331.408579 
L 283.918104 332.214266 
L 285.71746 332.866283 
L 287.821898 333.386155 
L 290.407825 333.787072 
L 293.805226 334.076186 
L 298.794446 334.258177 
L 308.177251 334.339563 
L 356.965346 334.349697 
L 407.700149 334.349697 
L 407.700149 334.349697 
" clip-path="url(#p143808c9d0)" style="fill: none; stroke: #d65c00; stroke-width: 2.5; stroke-linecap: round"/>
   </g>
   <g id="line2d_63">
    <path d="M 266.951851 327.223058 
L 270.536037 321.914858 
L 271.243742 321.392968 
L 271.847678 321.210945 
L 272.420484 321.269631 
L 273.032722 321.565492 
L 273.761181 322.181734 
L 274.749063 323.337485 
L 279.385468 329.158002 
L 280.829934 330.41179 
L 282.315908 331.408579 
L 283.918104 332.214266 
L 285.71746 332.866283 
L 287.821898 333.386155 
L 290.407825 333.787072 
L 293.805226 334.076186 
L 298.794446 334.258177 
L 308.177251 334.339563 
L 356.965346 334.349697 
L 407.700149 334.349697 
L 407.700149 334.349697 
" clip-path="url(#p143808c9d0)" style="fill: none; stroke: #d65c00; stroke-width: 2.5; stroke-linecap: round"/>
   </g>
   <g id="line2d_64">
    <path d="M 266.951851 330.090577 
L 268.452352 330.011915 
L 269.722487 330.166612 
L 271.046581 330.560268 
L 273.790237 331.700505 
L 275.446392 332.210546 
L 277.023683 332.459798 
L 278.816813 332.510378 
L 281.04785 332.340564 
L 283.878671 331.89356 
L 287.143248 331.150986 
L 290.488765 330.162619 
L 293.819754 328.946052 
L 297.248286 327.453802 
L 301.054538 325.546497 
L 306.446382 322.565423 
L 313.05025 318.965615 
L 316.858577 317.151624 
L 320.303712 315.754608 
L 323.686585 314.62245 
L 327.177379 313.690171 
L 330.92552 312.922533 
L 335.107416 312.297852 
L 339.980414 311.801513 
L 345.97827 311.423588 
L 353.964342 311.156923 
L 366.134386 310.995082 
L 391.416697 310.928244 
L 407.700149 310.923156 
L 407.700149 310.923156 
" clip-path="url(#p143808c9d0)" style="fill: none; stroke: #0071b2; stroke-width: 2.5; stroke-linecap: round"/>
   </g>
   <g id="line2d_65">
    <path d="M 266.951851 320.793646 
L 267.730119 315.830824 
L 268.564423 308.992378 
L 269.504571 299.333219 
L 270.714519 284.380662 
L 273.481004 249.453222 
L 274.497942 239.837179 
L 275.402809 233.282153 
L 276.25164 228.673612 
L 277.071416 225.389001 
L 277.876665 223.036309 
L 278.681913 221.339257 
L 279.50584 220.103268 
L 280.371275 219.196733 
L 281.317649 218.5253 
L 282.411376 218.026162 
L 283.764525 217.662455 
L 285.603314 217.413466 
L 288.519227 217.267787 
L 295.183281 217.213572 
L 376.617144 217.210303 
L 407.700149 217.210303 
L 407.700149 217.210303 
" clip-path="url(#p143808c9d0)" style="fill: none; stroke-dasharray: 3,6; stroke-dashoffset: 0; stroke: #000000; stroke-opacity: 0.7; stroke-width: 3"/>
   </g>
   <g id="line2d_66">
    <path d="M 266.951851 327.226249 
L 270.538112 321.915438 
L 271.245817 321.393986 
L 271.849754 321.212329 
L 272.422559 321.271296 
L 273.034797 321.567346 
L 273.763257 322.183638 
L 274.751139 323.339192 
L 279.387543 329.158018 
L 280.83201 330.411568 
L 282.317984 331.408235 
L 283.920179 332.213879 
L 285.719536 332.865909 
L 287.823974 333.385832 
L 290.409901 333.786826 
L 293.807302 334.076029 
L 298.794446 334.258062 
L 308.171025 334.339529 
L 356.826295 334.349697 
L 407.700149 334.349697 
L 407.700149 334.349697 
" clip-path="url(#p143808c9d0)" style="fill: none; stroke-dasharray: 3,6; stroke-dashoffset: 0; stroke: #000000; stroke-opacity: 0.7; stroke-width: 3"/>
   </g>
   <g id="line2d_67">
    <path d="M 266.951851 327.226249 
L 270.538112 321.915438 
L 271.245817 321.393986 
L 271.849754 321.212329 
L 272.422559 321.271296 
L 273.034797 321.567346 
L 273.763257 322.183638 
L 274.751139 323.339192 
L 279.387543 329.158018 
L 280.83201 330.411568 
L 282.317984 331.408235 
L 283.920179 332.213879 
L 285.719536 332.865909 
L 287.823974 333.385832 
L 290.409901 333.786826 
L 293.807302 334.076029 
L 298.794446 334.258062 
L 308.171025 334.339529 
L 356.826295 334.349697 
L 407.700149 334.349697 
L 407.700149 334.349697 
" clip-path="url(#p143808c9d0)" style="fill: none; stroke-dasharray: 3,6; stroke-dashoffset: 0; stroke: #000000; stroke-opacity: 0.7; stroke-width: 3"/>
   </g>
   <g id="line2d_68">
    <path d="M 266.951851 330.09084 
L 268.452352 330.01203 
L 269.722487 330.166577 
L 271.046581 330.560076 
L 273.773633 331.693816 
L 275.43394 332.20734 
L 277.01123 332.458441 
L 278.802286 332.510655 
L 281.029171 332.342783 
L 283.855842 331.898043 
L 287.118344 331.157599 
L 290.46386 330.170948 
L 293.79485 328.956112 
L 297.221306 327.466518 
L 301.023407 325.563029 
L 306.386196 322.599453 
L 313.048174 318.966801 
L 316.858577 317.151803 
L 320.303712 315.754821 
L 323.686585 314.622682 
L 327.177379 313.690406 
L 330.92552 312.922756 
L 335.107416 312.298049 
L 339.980414 311.801673 
L 345.97827 311.423704 
L 353.964342 311.156993 
L 366.132311 310.995126 
L 391.40632 310.928254 
L 407.700149 310.923157 
L 407.700149 310.923157 
" clip-path="url(#p143808c9d0)" style="fill: none; stroke-dasharray: 3,6; stroke-dashoffset: 0; stroke: #000000; stroke-opacity: 0.7; stroke-width: 3"/>
   </g>
   <g id="line2d_69">
    <path d="M 271.980503 340.206667 
L 271.980503 -1 
" clip-path="url(#p143808c9d0)" style="fill: none; stroke-dasharray: 4,8; stroke-dashoffset: 0; stroke: #cc78a6; stroke-width: 4"/>
   </g>
   <g id="patch_15">
    <path d="M 259.914436 340.206667 
L 259.914436 211.353333 
" style="fill: none; stroke: #262626; stroke-width: 1.875; stroke-linejoin: miter; stroke-linecap: square"/>
   </g>
   <g id="patch_16">
    <path d="M 259.914436 340.206667 
L 414.737564 340.206667 
" style="fill: none; stroke: #262626; stroke-width: 1.875; stroke-linejoin: miter; stroke-linecap: square"/>
   </g>
  </g>
  <g id="axes_6">
   <g id="patch_17">
    <path d="M 457.176872 340.206667 
L 612 340.206667 
L 612 211.353333 
L 457.176872 211.353333 
z
" style="fill: #ffffff"/>
   </g>
   <g id="matplotlib.axis_11">
    <g id="xtick_11">
     <g id="line2d_70">
      <g>
       <use xlink:href="#m05f1267d5e" x="464.214287" y="340.206667" style="fill: #1a1a1a; stroke: #1a1a1a; stroke-width: 1.875"/>
      </g>
     </g>
     <g id="text_31">
      <!-- 1 -->
      <g style="fill: #1a1a1a" transform="translate(460.877724 361.296042)scale(0.12 -0.12)">
       <use xlink:href="#ArialMT-31"/>
      </g>
     </g>
    </g>
    <g id="xtick_12">
     <g id="line2d_71">
      <g>
       <use xlink:href="#m05f1267d5e" x="579.690077" y="340.206667" style="fill: #1a1a1a; stroke: #1a1a1a; stroke-width: 1.875"/>
      </g>
     </g>
     <g id="text_32">
      <!-- 40000 -->
      <g style="fill: #1a1a1a" transform="translate(563.007264 361.296042)scale(0.12 -0.12)">
       <use xlink:href="#ArialMT-34"/>
       <use xlink:href="#ArialMT-30" x="55.615234"/>
       <use xlink:href="#ArialMT-30" x="111.230469"/>
       <use xlink:href="#ArialMT-30" x="166.845703"/>
       <use xlink:href="#ArialMT-30" x="222.460938"/>
      </g>
     </g>
    </g>
   </g>
   <g id="matplotlib.axis_12">
    <g id="ytick_16">
     <g id="line2d_72">
      <g>
       <use xlink:href="#mfb7ac7e1db" x="457.176872" y="334.349697" style="fill: #1a1a1a; stroke: #1a1a1a; stroke-width: 1.875"/>
      </g>
     </g>
     <g id="text_33">
      <!-- 0 -->
      <g style="fill: #1a1a1a" transform="translate(438.003747 338.644384)scale(0.12 -0.12)">
       <use xlink:href="#ArialMT-30"/>
      </g>
     </g>
    </g>
    <g id="ytick_17">
     <g id="line2d_73">
      <g>
       <use xlink:href="#mfb7ac7e1db" x="457.176872" y="279.218074" style="fill: #1a1a1a; stroke: #1a1a1a; stroke-width: 1.875"/>
      </g>
     </g>
     <g id="text_34">
      <!-- 30 -->
      <g style="fill: #1a1a1a" transform="translate(431.330622 283.512762)scale(0.12 -0.12)">
       <use xlink:href="#ArialMT-33"/>
       <use xlink:href="#ArialMT-30" x="55.615234"/>
      </g>
     </g>
    </g>
    <g id="ytick_18">
     <g id="line2d_74">
      <g>
       <use xlink:href="#mfb7ac7e1db" x="457.176872" y="224.086452" style="fill: #1a1a1a; stroke: #1a1a1a; stroke-width: 1.875"/>
      </g>
     </g>
     <g id="text_35">
      <!-- 60 -->
      <g style="fill: #1a1a1a" transform="translate(431.330622 228.381139)scale(0.12 -0.12)">
       <use xlink:href="#ArialMT-36"/>
       <use xlink:href="#ArialMT-30" x="55.615234"/>
      </g>
     </g>
    </g>
   </g>
   <g id="line2d_75">
    <path d="M 464.214287 303.003767 
L 464.485662 309.891028 
L 464.875402 314.433598 
L 465.348865 317.507741 
L 465.888727 319.632571 
L 466.492104 321.144794 
L 467.164767 322.250265 
L 467.926926 323.08161 
L 468.816112 323.720889 
L 469.895838 324.217312 
L 471.281582 324.599561 
L 473.184093 324.879127 
L 476.088382 325.060046 
L 481.674663 325.146655 
L 506.733535 325.161091 
L 604.962585 325.161093 
L 604.962585 325.161093 
" clip-path="url(#p88570b6576)" style="fill: none; stroke: #0071b2; stroke-width: 2.5; stroke-linecap: round"/>
   </g>
   <g id="line2d_76">
    <path d="M 464.214287 313.362139 
L 464.433696 325.467507 
L 464.707958 329.770843 
L 465.031298 331.712206 
L 465.406604 332.726721 
L 465.851197 333.318869 
L 466.419929 333.70283 
L 467.242715 333.97202 
L 468.619798 334.162178 
L 471.402834 334.284484 
L 479.238063 334.342208 
L 543.657842 334.349697 
L 604.962585 334.349697 
L 604.962585 334.349697 
" clip-path="url(#p88570b6576)" style="fill: none; stroke: #d65c00; stroke-width: 2.5; stroke-linecap: round"/>
   </g>
   <g id="line2d_77">
    <path d="M 464.214287 313.362139 
L 464.433696 325.467507 
L 464.707958 329.770843 
L 465.031298 331.712206 
L 465.406604 332.726721 
L 465.851197 333.318869 
L 466.419929 333.70283 
L 467.242715 333.97202 
L 468.619798 334.162178 
L 471.402834 334.284484 
L 479.238063 334.342208 
L 543.657842 334.349697 
L 604.962585 334.349697 
L 604.962585 334.349697 
" clip-path="url(#p88570b6576)" style="fill: none; stroke: #d65c00; stroke-width: 2.5; stroke-linecap: round"/>
   </g>
   <g id="line2d_78">
    <path d="M 464.214287 218.724704 
L 464.436583 275.927437 
L 464.722393 298.231706 
L 465.068829 309.426919 
L 465.475891 315.928963 
L 465.94358 320.06762 
L 466.471895 322.874546 
L 467.06661 324.885237 
L 467.733499 326.382093 
L 468.486998 327.539641 
L 469.355975 328.470331 
L 470.383735 329.242955 
L 471.639566 329.902571 
L 473.22451 330.474967 
L 475.291579 330.974315 
L 478.083276 331.407342 
L 481.995116 331.77481 
L 487.74018 332.074504 
L 496.730195 332.30064 
L 512.429521 332.445805 
L 548.660956 332.506772 
L 604.962585 332.511871 
L 604.962585 332.511871 
" clip-path="url(#p88570b6576)" style="fill: none; stroke: #0071b2; stroke-width: 2.5; stroke-linecap: round"/>
   </g>
   <g id="line2d_79">
    <path d="M 464.214287 302.87825 
L 464.485662 309.828799 
L 464.875402 314.396721 
L 465.348865 317.483627 
L 465.888727 319.615981 
L 466.492104 321.133053 
L 467.164767 322.241839 
L 467.924039 323.073001 
L 468.810338 323.71328 
L 469.887177 324.211293 
L 471.267147 324.594761 
L 473.160997 324.875808 
L 476.045077 325.058102 
L 481.564958 325.146023 
L 505.705775 325.16109 
L 604.962585 325.161093 
L 604.962585 325.161093 
" clip-path="url(#p88570b6576)" style="fill: none; stroke-dasharray: 3,6; stroke-dashoffset: 0; stroke: #000000; stroke-opacity: 0.7; stroke-width: 3"/>
   </g>
   <g id="line2d_80">
    <path d="M 464.214287 313.031226 
L 464.433696 325.3461 
L 464.707958 329.716503 
L 465.031298 331.684261 
L 465.406604 332.71104 
L 465.851197 333.309662 
L 466.417042 333.696062 
L 467.234054 333.967163 
L 468.596702 334.15886 
L 471.336434 334.282583 
L 478.969575 334.341642 
L 538.865477 334.349697 
L 604.962585 334.349697 
L 604.962585 334.349697 
" clip-path="url(#p88570b6576)" style="fill: none; stroke-dasharray: 3,6; stroke-dashoffset: 0; stroke: #000000; stroke-opacity: 0.7; stroke-width: 3"/>
   </g>
   <g id="line2d_81">
    <path d="M 464.214287 313.031226 
L 464.433696 325.3461 
L 464.707958 329.716503 
L 465.031298 331.684261 
L 465.406604 332.71104 
L 465.851197 333.309662 
L 466.417042 333.696062 
L 467.234054 333.967163 
L 468.596702 334.15886 
L 471.336434 334.282583 
L 478.969575 334.341642 
L 538.865477 334.349697 
L 604.962585 334.349697 
L 604.962585 334.349697 
" clip-path="url(#p88570b6576)" style="fill: none; stroke-dasharray: 3,6; stroke-dashoffset: 0; stroke: #000000; stroke-opacity: 0.7; stroke-width: 3"/>
   </g>
   <g id="line2d_82">
    <path d="M 464.214287 217.210303 
L 464.436583 275.35736 
L 464.722393 297.969304 
L 465.068829 309.287565 
L 465.475891 315.84739 
L 465.94358 320.016386 
L 466.471895 322.840604 
L 467.06661 324.861867 
L 467.733499 326.365522 
L 468.486998 327.527657 
L 469.355975 328.461582 
L 470.383735 329.236571 
L 471.636679 329.896694 
L 473.218736 330.469983 
L 475.280031 330.969814 
L 478.063067 331.403395 
L 481.963359 331.771633 
L 487.685328 332.07194 
L 496.632038 332.298797 
L 512.233207 332.44479 
L 548.066241 332.506546 
L 604.962585 332.511871 
L 604.962585 332.511871 
" clip-path="url(#p88570b6576)" style="fill: none; stroke-dasharray: 3,6; stroke-dashoffset: 0; stroke: #000000; stroke-opacity: 0.7; stroke-width: 3"/>
   </g>
   <g id="patch_18">
    <path d="M 457.176872 340.206667 
L 457.176872 211.353333 
" style="fill: none; stroke: #262626; stroke-width: 1.875; stroke-linejoin: miter; stroke-linecap: square"/>
   </g>
   <g id="patch_19">
    <path d="M 457.176872 340.206667 
L 612 340.206667 
" style="fill: none; stroke: #262626; stroke-width: 1.875; stroke-linejoin: miter; stroke-linecap: square"/>
   </g>
  </g>
  <g id="axes_7">
   <g id="patch_20">
    <path d="M 62.652 512.16 
L 217.475128 512.16 
L 217.475128 383.306667 
L 62.652 383.306667 
z
" style="fill: #ffffff"/>
   </g>
   <g id="matplotlib.axis_13">
    <g id="xtick_13">
     <g id="line2d_83">
      <g>
       <use xlink:href="#m05f1267d5e" x="69.689415" y="512.16" style="fill: #1a1a1a; stroke: #1a1a1a; stroke-width: 1.875"/>
      </g>
     </g>
     <g id="text_36">
      <!-- 1 -->
      <g style="fill: #1a1a1a" transform="translate(66.352852 533.249375)scale(0.12 -0.12)">
       <use xlink:href="#ArialMT-31"/>
      </g>
     </g>
    </g>
    <g id="xtick_14">
     <g id="line2d_84">
      <g>
       <use xlink:href="#m05f1267d5e" x="196.592266" y="512.16" style="fill: #1a1a1a; stroke: #1a1a1a; stroke-width: 1.875"/>
      </g>
     </g>
     <g id="text_37">
      <!-- 40000 -->
      <g style="fill: #1a1a1a" transform="translate(179.909454 533.249375)scale(0.12 -0.12)">
       <use xlink:href="#ArialMT-34"/>
       <use xlink:href="#ArialMT-30" x="55.615234"/>
       <use xlink:href="#ArialMT-30" x="111.230469"/>
       <use xlink:href="#ArialMT-30" x="166.845703"/>
       <use xlink:href="#ArialMT-30" x="222.460938"/>
      </g>
     </g>
    </g>
    <g id="text_38">
     <!-- Training steps -->
     <g style="fill: #262626" transform="translate(83.878252 552.518437)scale(0.18 -0.18)">
      <defs>
       <path id="ArialMT-54" d="M 1659 0 
L 1659 4041 
L 150 4041 
L 150 4581 
L 3781 4581 
L 3781 4041 
L 2266 4041 
L 2266 0 
L 1659 0 
z
" transform="scale(0.015625)"/>
       <path id="ArialMT-20" transform="scale(0.015625)"/>
       <path id="ArialMT-73" d="M 197 991 
L 753 1078 
Q 800 744 1014 566 
Q 1228 388 1613 388 
Q 2000 388 2187 545 
Q 2375 703 2375 916 
Q 2375 1106 2209 1216 
Q 2094 1291 1634 1406 
Q 1016 1563 777 1677 
Q 538 1791 414 1992 
Q 291 2194 291 2438 
Q 291 2659 392 2848 
Q 494 3038 669 3163 
Q 800 3259 1026 3326 
Q 1253 3394 1513 3394 
Q 1903 3394 2198 3281 
Q 2494 3169 2634 2976 
Q 2775 2784 2828 2463 
L 2278 2388 
Q 2241 2644 2061 2787 
Q 1881 2931 1553 2931 
Q 1166 2931 1000 2803 
Q 834 2675 834 2503 
Q 834 2394 903 2306 
Q 972 2216 1119 2156 
Q 1203 2125 1616 2013 
Q 2213 1853 2448 1751 
Q 2684 1650 2818 1456 
Q 2953 1263 2953 975 
Q 2953 694 2789 445 
Q 2625 197 2315 61 
Q 2006 -75 1616 -75 
Q 969 -75 630 194 
Q 291 463 197 991 
z
" transform="scale(0.015625)"/>
       <path id="ArialMT-70" d="M 422 -1272 
L 422 3319 
L 934 3319 
L 934 2888 
Q 1116 3141 1344 3267 
Q 1572 3394 1897 3394 
Q 2322 3394 2647 3175 
Q 2972 2956 3137 2557 
Q 3303 2159 3303 1684 
Q 3303 1175 3120 767 
Q 2938 359 2589 142 
Q 2241 -75 1856 -75 
Q 1575 -75 1351 44 
Q 1128 163 984 344 
L 984 -1272 
L 422 -1272 
z
M 931 1641 
Q 931 1000 1190 694 
Q 1450 388 1819 388 
Q 2194 388 2461 705 
Q 2728 1022 2728 1688 
Q 2728 2322 2467 2637 
Q 2206 2953 1844 2953 
Q 1484 2953 1207 2617 
Q 931 2281 931 1641 
z
" transform="scale(0.015625)"/>
      </defs>
      <use xlink:href="#ArialMT-54"/>
      <use xlink:href="#ArialMT-72" x="57.333984"/>
      <use xlink:href="#ArialMT-61" x="90.634766"/>
      <use xlink:href="#ArialMT-69" x="146.25"/>
      <use xlink:href="#ArialMT-6e" x="168.466797"/>
      <use xlink:href="#ArialMT-69" x="224.082031"/>
      <use xlink:href="#ArialMT-6e" x="246.298828"/>
      <use xlink:href="#ArialMT-67" x="301.914062"/>
      <use xlink:href="#ArialMT-20" x="357.529297"/>
      <use xlink:href="#ArialMT-73" x="385.3125"/>
      <use xlink:href="#ArialMT-74" x="435.3125"/>
      <use xlink:href="#ArialMT-65" x="463.095703"/>
      <use xlink:href="#ArialMT-70" x="518.710938"/>
      <use xlink:href="#ArialMT-73" x="574.326172"/>
     </g>
    </g>
   </g>
   <g id="matplotlib.axis_14">
    <g id="ytick_19">
     <g id="line2d_85">
      <g>
       <use xlink:href="#mfb7ac7e1db" x="62.652" y="506.30303" style="fill: #1a1a1a; stroke: #1a1a1a; stroke-width: 1.875"/>
      </g>
     </g>
     <g id="text_39">
      <!-- 0 -->
      <g style="fill: #1a1a1a" transform="translate(43.478875 510.597718)scale(0.12 -0.12)">
       <use xlink:href="#ArialMT-30"/>
      </g>
     </g>
    </g>
    <g id="ytick_20">
     <g id="line2d_86">
      <g>
       <use xlink:href="#mfb7ac7e1db" x="62.652" y="459.447081" style="fill: #1a1a1a; stroke: #1a1a1a; stroke-width: 1.875"/>
      </g>
     </g>
     <g id="text_40">
      <!-- 2 -->
      <g style="fill: #1a1a1a" transform="translate(43.478875 463.741768)scale(0.12 -0.12)">
       <use xlink:href="#ArialMT-32"/>
      </g>
     </g>
    </g>
    <g id="ytick_21">
     <g id="line2d_87">
      <g>
       <use xlink:href="#mfb7ac7e1db" x="62.652" y="412.591131" style="fill: #1a1a1a; stroke: #1a1a1a; stroke-width: 1.875"/>
      </g>
     </g>
     <g id="text_41">
      <!-- 4 -->
      <g style="fill: #1a1a1a" transform="translate(43.478875 416.885819)scale(0.12 -0.12)">
       <use xlink:href="#ArialMT-34"/>
      </g>
     </g>
    </g>
    <g id="text_42">
     <!-- $A^TA(t)$ -->
     <g style="fill: #262626" transform="translate(35.901375 475.363333)rotate(-90)scale(0.18 -0.18)">
      <use xlink:href="#DejaVuSans-Oblique-41" transform="translate(0 0.684375)"/>
      <use xlink:href="#DejaVuSans-Oblique-54" transform="translate(75.424974 38.965625)scale(0.7)"/>
      <use xlink:href="#DejaVuSans-Oblique-41" transform="translate(120.918138 0.684375)"/>
      <use xlink:href="#DejaVuSans-28" transform="translate(189.326341 0.684375)"/>
      <use xlink:href="#DejaVuSans-Oblique-74" transform="translate(228.340013 0.684375)"/>
      <use xlink:href="#DejaVuSans-29" transform="translate(267.548997 0.684375)"/>
     </g>
    </g>
   </g>
   <g id="line2d_88">
    <path d="M 69.689415 506.30303 
L 148.739177 506.192009 
L 152.384553 505.953584 
L 154.637135 505.594625 
L 156.299604 505.111936 
L 157.641635 504.494893 
L 158.793307 503.721684 
L 159.830764 502.754487 
L 160.798422 501.542028 
L 161.728009 500.010792 
L 162.641732 498.062551 
L 163.555455 495.570899 
L 164.485042 492.363087 
L 165.446355 488.210147 
L 166.458431 482.807112 
L 167.562513 475.643364 
L 168.841091 465.795509 
L 170.64633 449.946121 
L 173.308183 426.785438 
L 174.662905 416.985858 
L 175.836786 410.039527 
L 176.921832 404.892616 
L 177.956117 401.01912 
L 178.958674 398.09028 
L 179.948541 395.858739 
L 180.941581 394.15081 
L 181.953656 392.840164 
L 183.013322 391.824917 
L 184.158648 391.034043 
L 185.446745 390.417875 
L 186.966444 389.944159 
L 188.873207 389.592861 
L 191.490644 389.351884 
L 195.697579 389.213313 
L 205.770744 389.165251 
L 210.437713 389.163637 
L 210.437713 389.163637 
" clip-path="url(#p322601af6e)" style="fill: none; stroke: #0071b2; stroke-width: 2.5; stroke-linecap: round"/>
   </g>
   <g id="line2d_89">
    <path d="M 69.689415 506.30303 
L 154.573682 506.192028 
L 158.279338 505.952238 
L 160.627099 505.587327 
L 162.425992 505.088709 
L 163.964727 504.433589 
L 165.405111 503.576631 
L 166.921638 502.405821 
L 171.391902 498.73854 
L 172.277072 498.435168 
L 173.082925 498.390133 
L 173.888778 498.570984 
L 174.773948 499.006692 
L 175.871685 499.812637 
L 177.879973 501.629123 
L 179.837498 503.268666 
L 181.338162 504.235912 
L 182.835653 504.936511 
L 184.479086 505.455645 
L 186.439784 505.833419 
L 189.025494 506.091353 
L 193.013516 506.2422 
L 201.820794 506.299232 
L 210.437713 506.302779 
L 210.437713 506.302779 
" clip-path="url(#p322601af6e)" style="fill: none; stroke: #d65c00; stroke-width: 2.5; stroke-linecap: round"/>
   </g>
   <g id="line2d_90">
    <path d="M 69.689415 506.30303 
L 154.573682 506.192028 
L 158.279338 505.952238 
L 160.627099 505.587327 
L 162.425992 505.088709 
L 163.964727 504.433589 
L 165.405111 503.576631 
L 166.921638 502.405821 
L 171.391902 498.73854 
L 172.277072 498.435168 
L 173.082925 498.390133 
L 173.888778 498.570984 
L 174.773948 499.006692 
L 175.871685 499.812637 
L 177.879973 501.629123 
L 179.837498 503.268666 
L 181.338162 504.235912 
L 182.835653 504.936511 
L 184.479086 505.455645 
L 186.439784 505.833419 
L 189.025494 506.091353 
L 193.013516 506.2422 
L 201.820794 506.299232 
L 210.437713 506.302779 
L 210.437713 506.302779 
" clip-path="url(#p322601af6e)" style="fill: none; stroke: #d65c00; stroke-width: 2.5; stroke-linecap: round"/>
   </g>
   <g id="line2d_91">
    <path d="M 69.689415 506.30303 
L 152.48925 506.191949 
L 156.137798 505.953222 
L 158.393553 505.593711 
L 160.059195 505.110384 
L 161.404398 504.492958 
L 162.562416 503.717692 
L 163.606218 502.748438 
L 164.580222 501.534887 
L 165.519326 499.999349 
L 166.442568 498.048967 
L 167.365809 495.560466 
L 168.304913 492.365646 
L 169.275745 488.241074 
L 170.297338 482.886508 
L 171.404593 475.83655 
L 172.670481 466.256151 
L 174.367849 451.530922 
L 177.39773 425.149269 
L 178.720725 415.716495 
L 179.869225 409.049625 
L 180.932063 404.127093 
L 181.947311 400.431533 
L 182.937178 397.634083 
L 183.917527 395.506475 
L 184.904221 393.880331 
L 185.916297 392.630548 
L 186.982307 391.662287 
L 188.143498 390.907704 
L 189.460148 390.320925 
L 191.03061 389.87153 
L 193.032552 389.541032 
L 195.843521 389.31919 
L 200.567597 389.198369 
L 210.437713 389.164724 
L 210.437713 389.164724 
" clip-path="url(#p322601af6e)" style="fill: none; stroke: #0071b2; stroke-width: 2.5; stroke-linecap: round"/>
   </g>
   <g id="line2d_92">
    <path d="M 69.689415 506.30303 
L 148.723314 506.191921 
L 152.368689 505.953201 
L 154.621271 505.593716 
L 156.280568 505.111429 
L 157.622599 504.49393 
L 158.774271 503.720082 
L 159.808555 502.755458 
L 160.776214 501.542975 
L 161.7058 500.011615 
L 162.619524 498.063113 
L 163.533247 495.571024 
L 164.462834 492.362554 
L 165.424147 488.208706 
L 166.436222 482.804525 
L 167.540305 475.639492 
L 168.818883 465.79053 
L 170.627294 449.912443 
L 173.282802 426.809479 
L 174.637524 417.007994 
L 175.811405 410.059254 
L 176.896451 404.90979 
L 177.930735 401.033797 
L 178.933293 398.102635 
L 179.92316 395.868993 
L 180.9162 394.159197 
L 181.928275 392.846915 
L 182.98794 391.830237 
L 184.133267 391.038112 
L 185.418191 390.422094 
L 186.934718 389.947749 
L 188.838308 389.595395 
L 191.4494 389.353453 
L 195.640471 389.214016 
L 205.618457 389.165348 
L 210.437713 389.163636 
L 210.437713 389.163636 
" clip-path="url(#p322601af6e)" style="fill: none; stroke-dasharray: 3,6; stroke-dashoffset: 0; stroke: #000000; stroke-opacity: 0.7; stroke-width: 3"/>
   </g>
   <g id="line2d_93">
    <path d="M 69.689415 506.30303 
L 154.554646 506.191997 
L 158.257129 505.952378 
L 160.60489 505.587483 
L 162.403783 505.088825 
L 163.942519 504.433614 
L 165.382902 503.576536 
L 166.899429 502.405645 
L 171.363349 498.743184 
L 172.251691 498.438108 
L 173.057544 498.392799 
L 173.863397 498.573272 
L 174.748567 499.008468 
L 175.846304 499.813699 
L 177.851419 501.626078 
L 179.812117 503.267821 
L 181.312781 504.234888 
L 182.810272 504.935521 
L 184.453705 505.454812 
L 186.414403 505.832812 
L 189.000113 506.090993 
L 192.984962 506.241999 
L 201.776377 506.299195 
L 210.437713 506.30278 
L 210.437713 506.30278 
" clip-path="url(#p322601af6e)" style="fill: none; stroke-dasharray: 3,6; stroke-dashoffset: 0; stroke: #000000; stroke-opacity: 0.7; stroke-width: 3"/>
   </g>
   <g id="line2d_94">
    <path d="M 69.689415 506.30303 
L 154.554646 506.191997 
L 158.257129 505.952378 
L 160.60489 505.587483 
L 162.403783 505.088825 
L 163.942519 504.433614 
L 165.382902 503.576536 
L 166.899429 502.405645 
L 171.363349 498.743184 
L 172.251691 498.438108 
L 173.057544 498.392799 
L 173.863397 498.573272 
L 174.748567 499.008468 
L 175.846304 499.813699 
L 177.851419 501.626078 
L 179.812117 503.267821 
L 181.312781 504.234888 
L 182.810272 504.935521 
L 184.453705 505.454812 
L 186.414403 505.832812 
L 189.000113 506.090993 
L 192.984962 506.241999 
L 201.776377 506.299195 
L 210.437713 506.30278 
L 210.437713 506.30278 
" clip-path="url(#p322601af6e)" style="fill: none; stroke-dasharray: 3,6; stroke-dashoffset: 0; stroke: #000000; stroke-opacity: 0.7; stroke-width: 3"/>
   </g>
   <g id="line2d_95">
    <path d="M 69.689415 506.30303 
L 152.470214 506.191937 
L 156.11559 505.953424 
L 158.371344 505.593984 
L 160.036986 505.110677 
L 161.38219 504.493204 
L 162.540207 503.717804 
L 163.584009 502.74831 
L 164.558013 501.534382 
L 165.497118 499.998285 
L 166.420359 498.047112 
L 167.3436 495.557531 
L 168.282705 492.361275 
L 169.253536 488.234862 
L 170.275129 482.878044 
L 171.382385 475.825528 
L 172.648272 466.242628 
L 174.348813 451.487457 
L 177.369176 425.189529 
L 178.692171 415.752034 
L 179.843844 409.063725 
L 180.909854 404.126817 
L 181.925102 400.432584 
L 182.914969 397.635903 
L 183.895318 395.508658 
L 184.882013 393.882599 
L 185.894088 392.632717 
L 186.960099 391.664241 
L 188.121289 390.909369 
L 189.437939 390.322259 
L 191.008401 389.872514 
L 193.010344 389.541672 
L 195.818139 389.319677 
L 200.535871 389.198574 
L 210.437713 389.164719 
L 210.437713 389.164719 
" clip-path="url(#p322601af6e)" style="fill: none; stroke-dasharray: 3,6; stroke-dashoffset: 0; stroke: #000000; stroke-opacity: 0.7; stroke-width: 3"/>
   </g>
   <g id="line2d_96">
    <path d="M 172.835458 512.16 
L 172.835458 -1 
" clip-path="url(#p322601af6e)" style="fill: none; stroke-dasharray: 4,8; stroke-dashoffset: 0; stroke: #cc78a6; stroke-width: 4"/>
   </g>
   <g id="line2d_97">
    <path d="M 172.814085 512.16 
L 172.814085 -1 
" clip-path="url(#p322601af6e)" style="fill: none; stroke-dasharray: 4,8; stroke-dashoffset: 0; stroke: #009e73; stroke-width: 4"/>
   </g>
   <g id="patch_21">
    <path d="M 62.652 512.16 
L 62.652 383.306667 
" style="fill: none; stroke: #262626; stroke-width: 1.875; stroke-linejoin: miter; stroke-linecap: square"/>
   </g>
   <g id="patch_22">
    <path d="M 62.652 512.16 
L 217.475128 512.16 
" style="fill: none; stroke: #262626; stroke-width: 1.875; stroke-linejoin: miter; stroke-linecap: square"/>
   </g>
  </g>
  <g id="axes_8">
   <g id="patch_23">
    <path d="M 259.914436 512.16 
L 414.737564 512.16 
L 414.737564 383.306667 
L 259.914436 383.306667 
z
" style="fill: #ffffff"/>
   </g>
   <g id="matplotlib.axis_15">
    <g id="xtick_15">
     <g id="line2d_98">
      <g>
       <use xlink:href="#m05f1267d5e" x="266.951851" y="512.16" style="fill: #1a1a1a; stroke: #1a1a1a; stroke-width: 1.875"/>
      </g>
     </g>
     <g id="text_43">
      <!-- 1 -->
      <g style="fill: #1a1a1a" transform="translate(263.615288 533.249375)scale(0.12 -0.12)">
       <use xlink:href="#ArialMT-31"/>
      </g>
     </g>
    </g>
    <g id="xtick_16">
     <g id="line2d_99">
      <g>
       <use xlink:href="#m05f1267d5e" x="361.151465" y="512.16" style="fill: #1a1a1a; stroke: #1a1a1a; stroke-width: 1.875"/>
      </g>
     </g>
     <g id="text_44">
      <!-- 10000 -->
      <g style="fill: #1a1a1a" transform="translate(344.468652 533.249375)scale(0.12 -0.12)">
       <use xlink:href="#ArialMT-31"/>
       <use xlink:href="#ArialMT-30" x="55.615234"/>
       <use xlink:href="#ArialMT-30" x="111.230469"/>
       <use xlink:href="#ArialMT-30" x="166.845703"/>
       <use xlink:href="#ArialMT-30" x="222.460938"/>
      </g>
     </g>
    </g>
    <g id="text_45">
     <!-- Training steps -->
     <g style="fill: #262626" transform="translate(281.140688 552.518437)scale(0.18 -0.18)">
      <use xlink:href="#ArialMT-54"/>
      <use xlink:href="#ArialMT-72" x="57.333984"/>
      <use xlink:href="#ArialMT-61" x="90.634766"/>
      <use xlink:href="#ArialMT-69" x="146.25"/>
      <use xlink:href="#ArialMT-6e" x="168.466797"/>
      <use xlink:href="#ArialMT-69" x="224.082031"/>
      <use xlink:href="#ArialMT-6e" x="246.298828"/>
      <use xlink:href="#ArialMT-67" x="301.914062"/>
      <use xlink:href="#ArialMT-20" x="357.529297"/>
      <use xlink:href="#ArialMT-73" x="385.3125"/>
      <use xlink:href="#ArialMT-74" x="435.3125"/>
      <use xlink:href="#ArialMT-65" x="463.095703"/>
      <use xlink:href="#ArialMT-70" x="518.710938"/>
      <use xlink:href="#ArialMT-73" x="574.326172"/>
     </g>
    </g>
   </g>
   <g id="matplotlib.axis_16">
    <g id="ytick_22">
     <g id="line2d_100">
      <g>
       <use xlink:href="#mfb7ac7e1db" x="259.914436" y="506.314287" style="fill: #1a1a1a; stroke: #1a1a1a; stroke-width: 1.875"/>
      </g>
     </g>
     <g id="text_46">
      <!-- 0 -->
      <g style="fill: #1a1a1a" transform="translate(240.741311 510.608975)scale(0.12 -0.12)">
       <use xlink:href="#ArialMT-30"/>
      </g>
     </g>
    </g>
    <g id="ytick_23">
     <g id="line2d_101">
      <g>
       <use xlink:href="#mfb7ac7e1db" x="259.914436" y="459.449623" style="fill: #1a1a1a; stroke: #1a1a1a; stroke-width: 1.875"/>
      </g>
     </g>
     <g id="text_47">
      <!-- 2 -->
      <g style="fill: #1a1a1a" transform="translate(240.741311 463.74431)scale(0.12 -0.12)">
       <use xlink:href="#ArialMT-32"/>
      </g>
     </g>
    </g>
    <g id="ytick_24">
     <g id="line2d_102">
      <g>
       <use xlink:href="#mfb7ac7e1db" x="259.914436" y="412.584958" style="fill: #1a1a1a; stroke: #1a1a1a; stroke-width: 1.875"/>
      </g>
     </g>
     <g id="text_48">
      <!-- 4 -->
      <g style="fill: #1a1a1a" transform="translate(240.741311 416.879646)scale(0.12 -0.12)">
       <use xlink:href="#ArialMT-34"/>
      </g>
     </g>
    </g>
   </g>
   <g id="line2d_103">
    <path d="M 266.951851 502.419699 
L 269.467232 501.331286 
L 271.813037 500.075266 
L 274.055212 498.622633 
L 276.240862 496.940333 
L 278.41709 494.981477 
L 280.631003 492.684363 
L 282.939124 489.962562 
L 285.445084 486.653122 
L 288.337302 482.447831 
L 292.275239 476.291131 
L 300.339533 463.619748 
L 304.69199 457.279956 
L 315.978233 441.100156 
L 319.416862 435.575356 
L 323.232328 429.002583 
L 332.672074 412.524991 
L 335.385294 408.374486 
L 337.797045 405.081692 
L 340.048641 402.376141 
L 342.22487 400.103507 
L 344.372836 398.178103 
L 346.539644 396.532454 
L 348.762977 395.122389 
L 351.08994 393.91068 
L 353.567638 392.872728 
L 356.262016 391.987309 
L 359.267284 391.237579 
L 362.705914 390.614062 
L 366.785165 390.107799 
L 371.83477 389.714761 
L 378.523611 389.430119 
L 388.472085 389.249369 
L 407.483468 389.165489 
L 407.700149 389.165197 
L 407.700149 389.165197 
" clip-path="url(#p3b12896e4f)" style="fill: none; stroke: #0071b2; stroke-width: 2.5; stroke-linecap: round"/>
   </g>
   <g id="line2d_104">
    <path d="M 266.951851 502.346632 
L 269.457811 501.247732 
L 271.813037 499.972909 
L 274.074054 498.495047 
L 276.287966 496.779808 
L 278.501878 494.780317 
L 280.781737 492.417115 
L 283.221751 489.559395 
L 286.010339 485.935548 
L 289.938855 480.42215 
L 294.941355 473.465858 
L 297.503841 470.290672 
L 299.632965 467.994799 
L 301.517146 466.279591 
L 303.241171 465.001992 
L 304.852146 464.078335 
L 306.378332 463.454648 
L 307.847993 463.091282 
L 309.27997 462.964256 
L 310.702527 463.060979 
L 312.134504 463.381938 
L 313.604165 463.941767 
L 315.130351 464.764609 
L 316.741326 465.890328 
L 318.474772 467.37988 
L 320.377795 469.318162 
L 322.535181 471.84595 
L 325.154193 475.27676 
L 329.365337 481.222402 
L 333.830845 487.402338 
L 336.638274 490.909098 
L 339.106551 493.644836 
L 341.424093 495.887714 
L 343.68511 497.770292 
L 345.946127 499.365883 
L 348.263669 500.729568 
L 350.684841 501.895272 
L 353.266169 502.889702 
L 356.09244 503.736622 
L 359.257863 504.44792 
L 362.903753 505.03335 
L 367.275052 505.502149 
L 372.786281 505.85904 
L 380.313583 506.108687 
L 392.193342 506.255909 
L 407.700149 506.30303 
L 407.700149 506.30303 
" clip-path="url(#p3b12896e4f)" style="fill: none; stroke: #d65c00; stroke-width: 2.5; stroke-linecap: round"/>
   </g>
   <g id="line2d_105">
    <path d="M 266.951851 502.346632 
L 269.457811 501.247732 
L 271.813037 499.972909 
L 274.074054 498.495047 
L 276.287966 496.779808 
L 278.501878 494.780317 
L 280.781737 492.417115 
L 283.221751 489.559395 
L 286.010339 485.935548 
L 289.938855 480.42215 
L 294.941355 473.465858 
L 297.503841 470.290672 
L 299.632965 467.994799 
L 301.517146 466.279591 
L 303.241171 465.001992 
L 304.852146 464.078335 
L 306.378332 463.454648 
L 307.847993 463.091282 
L 309.27997 462.964256 
L 310.702527 463.060979 
L 312.134504 463.381938 
L 313.604165 463.941767 
L 315.130351 464.764609 
L 316.741326 465.890328 
L 318.474772 467.37988 
L 320.377795 469.318162 
L 322.535181 471.84595 
L 325.154193 475.27676 
L 329.365337 481.222402 
L 333.830845 487.402338 
L 336.638274 490.909098 
L 339.106551 493.644836 
L 341.424093 495.887714 
L 343.68511 497.770292 
L 345.946127 499.365883 
L 348.263669 500.729568 
L 350.684841 501.895272 
L 353.266169 502.889702 
L 356.09244 503.736622 
L 359.257863 504.44792 
L 362.903753 505.03335 
L 367.275052 505.502149 
L 372.786281 505.85904 
L 380.313583 506.108687 
L 392.193342 506.255909 
L 407.700149 506.30303 
L 407.700149 506.30303 
" clip-path="url(#p3b12896e4f)" style="fill: none; stroke: #d65c00; stroke-width: 2.5; stroke-linecap: round"/>
   </g>
   <g id="line2d_106">
    <path d="M 266.951851 501.869797 
L 269.335339 500.700676 
L 271.577514 499.353361 
L 273.734901 497.795817 
L 275.845184 495.994693 
L 277.946045 493.905134 
L 280.08459 491.458688 
L 282.307924 488.570729 
L 284.710254 485.074701 
L 287.442316 480.68881 
L 290.984576 474.547761 
L 299.764858 459.158056 
L 303.278855 453.568555 
L 307.018953 448.047313 
L 314.3861 437.703721 
L 318.87045 431.136961 
L 323.364221 424.137348 
L 331.513303 411.363752 
L 334.433783 407.26744 
L 336.968006 404.086832 
L 339.313811 401.492972 
L 341.565407 399.32958 
L 343.78874 397.498404 
L 346.030915 395.938096 
L 348.339036 394.602628 
L 350.760208 393.459497 
L 353.350957 392.483631 
L 356.19607 391.652835 
L 359.389756 390.956297 
L 363.092171 390.382499 
L 367.548258 389.925067 
L 373.200801 389.579019 
L 381.001309 389.339634 
L 393.578215 389.201925 
L 407.700149 389.163636 
L 407.700149 389.163636 
" clip-path="url(#p3b12896e4f)" style="fill: none; stroke: #0071b2; stroke-width: 2.5; stroke-linecap: round"/>
   </g>
   <g id="line2d_107">
    <path d="M 266.951851 502.423327 
L 269.467232 501.33552 
L 271.813037 500.080103 
L 274.055212 498.628069 
L 276.240862 496.946359 
L 278.41709 494.988082 
L 280.631003 492.691532 
L 282.939124 489.970274 
L 285.445084 486.661352 
L 288.327881 482.470782 
L 292.256398 476.330299 
L 300.358375 463.599727 
L 304.720253 457.246652 
L 315.931128 441.172537 
L 319.369758 435.650928 
L 323.185224 429.080945 
L 332.700336 412.474424 
L 335.413557 408.329503 
L 337.815887 405.054482 
L 340.067483 402.352933 
L 342.243712 400.08403 
L 344.391678 398.162019 
L 346.558485 396.519408 
L 348.781819 395.112021 
L 351.108782 393.902642 
L 353.586479 392.866684 
L 356.290279 391.980234 
L 359.304968 391.230557 
L 362.753019 390.607881 
L 366.841691 390.10296 
L 371.910137 389.710914 
L 378.627241 389.427473 
L 388.641661 389.24782 
L 407.700149 389.165231 
L 407.700149 389.165231 
" clip-path="url(#p3b12896e4f)" style="fill: none; stroke-dasharray: 3,6; stroke-dashoffset: 0; stroke: #000000; stroke-opacity: 0.7; stroke-width: 3"/>
   </g>
   <g id="line2d_108">
    <path d="M 266.951851 502.350315 
L 269.467232 501.247417 
L 271.822458 499.972188 
L 274.083475 498.493828 
L 276.297387 496.778007 
L 278.511299 494.777864 
L 280.791158 492.413966 
L 283.231172 489.555561 
L 286.019759 485.93115 
L 289.957697 480.404218 
L 294.941355 473.475287 
L 297.503841 470.300153 
L 299.632965 468.004243 
L 301.517146 466.288956 
L 303.241171 465.011262 
L 304.852146 464.087516 
L 306.378332 463.463758 
L 307.847993 463.100349 
L 309.27997 462.973316 
L 310.702527 463.070073 
L 312.134504 463.39111 
L 313.604165 463.951066 
L 315.130351 464.77408 
L 316.741326 465.90001 
L 318.474772 467.389797 
L 320.377795 469.328296 
L 322.535181 471.85621 
L 325.154193 475.286886 
L 329.374757 481.244903 
L 333.830845 487.409246 
L 336.638274 490.9144 
L 339.106551 493.648754 
L 341.424093 495.890456 
L 343.68511 497.772055 
L 345.946127 499.366855 
L 348.263669 500.729919 
L 350.684841 501.89516 
L 353.266169 502.889269 
L 356.09244 503.735996 
L 359.257863 504.447213 
L 362.903753 505.032658 
L 367.275052 505.50155 
L 372.786281 505.858589 
L 380.313583 506.108412 
L 392.183921 506.25574 
L 407.700149 506.303001 
L 407.700149 506.303001 
" clip-path="url(#p3b12896e4f)" style="fill: none; stroke-dasharray: 3,6; stroke-dashoffset: 0; stroke: #000000; stroke-opacity: 0.7; stroke-width: 3"/>
   </g>
   <g id="line2d_109">
    <path d="M 266.951851 502.350315 
L 269.467232 501.247417 
L 271.822458 499.972188 
L 274.083475 498.493828 
L 276.297387 496.778007 
L 278.511299 494.777864 
L 280.791158 492.413966 
L 283.231172 489.555561 
L 286.019759 485.93115 
L 289.957697 480.404218 
L 294.941355 473.475287 
L 297.503841 470.300153 
L 299.632965 468.004243 
L 301.517146 466.288956 
L 303.241171 465.011262 
L 304.852146 464.087516 
L 306.378332 463.463758 
L 307.847993 463.100349 
L 309.27997 462.973316 
L 310.702527 463.070073 
L 312.134504 463.39111 
L 313.604165 463.951066 
L 315.130351 464.77408 
L 316.741326 465.90001 
L 318.474772 467.389797 
L 320.377795 469.328296 
L 322.535181 471.85621 
L 325.154193 475.286886 
L 329.374757 481.244903 
L 333.830845 487.409246 
L 336.638274 490.9144 
L 339.106551 493.648754 
L 341.424093 495.890456 
L 343.68511 497.772055 
L 345.946127 499.366855 
L 348.263669 500.729919 
L 350.684841 501.89516 
L 353.266169 502.889269 
L 356.09244 503.735996 
L 359.257863 504.447213 
L 362.903753 505.032658 
L 367.275052 505.50155 
L 372.786281 505.858589 
L 380.313583 506.108412 
L 392.183921 506.25574 
L 407.700149 506.303001 
L 407.700149 506.303001 
" clip-path="url(#p3b12896e4f)" style="fill: none; stroke-dasharray: 3,6; stroke-dashoffset: 0; stroke: #000000; stroke-opacity: 0.7; stroke-width: 3"/>
   </g>
   <g id="line2d_110">
    <path d="M 266.951851 501.873936 
L 269.335339 500.705467 
L 271.577514 499.358806 
L 273.734901 497.801916 
L 275.845184 496.00144 
L 277.946045 493.91252 
L 280.08459 491.466701 
L 282.307924 488.579352 
L 284.710254 485.083914 
L 287.442316 480.698581 
L 290.984576 474.558021 
L 299.774279 459.152238 
L 303.288276 453.562757 
L 307.037795 448.027188 
L 321.027837 427.820302 
L 327.509419 417.510095 
L 331.626353 411.193427 
L 334.527992 407.138969 
L 337.052794 403.984369 
L 339.389178 401.413535 
L 341.640774 399.26153 
L 343.864107 397.44097 
L 346.106282 395.890391 
L 348.414403 394.563723 
L 350.844997 393.424493 
L 353.445166 392.453275 
L 356.2997 391.627613 
L 359.512228 390.934651 
L 363.233485 390.365404 
L 367.717835 389.912141 
L 373.426902 389.569457 
L 381.33104 389.333493 
L 394.162311 389.19906 
L 407.700149 389.163666 
L 407.700149 389.163666 
" clip-path="url(#p3b12896e4f)" style="fill: none; stroke-dasharray: 3,6; stroke-dashoffset: 0; stroke: #000000; stroke-opacity: 0.7; stroke-width: 3"/>
   </g>
   <g id="line2d_111">
    <path d="M 309.364758 512.16 
L 309.364758 -1 
" clip-path="url(#p3b12896e4f)" style="fill: none; stroke-dasharray: 4,8; stroke-dashoffset: 0; stroke: #cc78a6; stroke-width: 4"/>
   </g>
   <g id="line2d_112">
    <path d="M 309.364752 512.16 
L 309.364752 -1 
" clip-path="url(#p3b12896e4f)" style="fill: none; stroke-dasharray: 4,8; stroke-dashoffset: 0; stroke: #009e73; stroke-width: 4"/>
   </g>
   <g id="patch_24">
    <path d="M 259.914436 512.16 
L 259.914436 383.306667 
" style="fill: none; stroke: #262626; stroke-width: 1.875; stroke-linejoin: miter; stroke-linecap: square"/>
   </g>
   <g id="patch_25">
    <path d="M 259.914436 512.16 
L 414.737564 512.16 
" style="fill: none; stroke: #262626; stroke-width: 1.875; stroke-linejoin: miter; stroke-linecap: square"/>
   </g>
  </g>
  <g id="axes_9">
   <g id="patch_26">
    <path d="M 457.176872 512.16 
L 612 512.16 
L 612 383.306667 
L 457.176872 383.306667 
z
" style="fill: #ffffff"/>
   </g>
   <g id="matplotlib.axis_17">
    <g id="xtick_17">
     <g id="line2d_113">
      <g>
       <use xlink:href="#m05f1267d5e" x="464.214287" y="512.16" style="fill: #1a1a1a; stroke: #1a1a1a; stroke-width: 1.875"/>
      </g>
     </g>
     <g id="text_49">
      <!-- 1 -->
      <g style="fill: #1a1a1a" transform="translate(460.877724 533.249375)scale(0.12 -0.12)">
       <use xlink:href="#ArialMT-31"/>
      </g>
     </g>
    </g>
    <g id="xtick_18">
     <g id="line2d_114">
      <g>
       <use xlink:href="#m05f1267d5e" x="593.304567" y="512.16" style="fill: #1a1a1a; stroke: #1a1a1a; stroke-width: 1.875"/>
      </g>
     </g>
     <g id="text_50">
      <!-- 10000 -->
      <g style="fill: #1a1a1a" transform="translate(576.621754 533.249375)scale(0.12 -0.12)">
       <use xlink:href="#ArialMT-31"/>
       <use xlink:href="#ArialMT-30" x="55.615234"/>
       <use xlink:href="#ArialMT-30" x="111.230469"/>
       <use xlink:href="#ArialMT-30" x="166.845703"/>
       <use xlink:href="#ArialMT-30" x="222.460938"/>
      </g>
     </g>
    </g>
    <g id="text_51">
     <!-- Training steps -->
     <g style="fill: #262626" transform="translate(478.403123 552.518437)scale(0.18 -0.18)">
      <use xlink:href="#ArialMT-54"/>
      <use xlink:href="#ArialMT-72" x="57.333984"/>
      <use xlink:href="#ArialMT-61" x="90.634766"/>
      <use xlink:href="#ArialMT-69" x="146.25"/>
      <use xlink:href="#ArialMT-6e" x="168.466797"/>
      <use xlink:href="#ArialMT-69" x="224.082031"/>
      <use xlink:href="#ArialMT-6e" x="246.298828"/>
      <use xlink:href="#ArialMT-67" x="301.914062"/>
      <use xlink:href="#ArialMT-20" x="357.529297"/>
      <use xlink:href="#ArialMT-73" x="385.3125"/>
      <use xlink:href="#ArialMT-74" x="435.3125"/>
      <use xlink:href="#ArialMT-65" x="463.095703"/>
      <use xlink:href="#ArialMT-70" x="518.710938"/>
      <use xlink:href="#ArialMT-73" x="574.326172"/>
     </g>
    </g>
   </g>
   <g id="matplotlib.axis_18">
    <g id="ytick_25">
     <g id="line2d_115">
      <g>
       <use xlink:href="#mfb7ac7e1db" x="457.176872" y="479.963724" style="fill: #1a1a1a; stroke: #1a1a1a; stroke-width: 1.875"/>
      </g>
     </g>
     <g id="text_52">
      <!-- 0 -->
      <g style="fill: #1a1a1a" transform="translate(438.003747 484.258412)scale(0.12 -0.12)">
       <use xlink:href="#ArialMT-30"/>
      </g>
     </g>
    </g>
    <g id="ytick_26">
     <g id="line2d_116">
      <g>
       <use xlink:href="#mfb7ac7e1db" x="457.176872" y="441.575546" style="fill: #1a1a1a; stroke: #1a1a1a; stroke-width: 1.875"/>
      </g>
     </g>
     <g id="text_53">
      <!-- 30 -->
      <g style="fill: #1a1a1a" transform="translate(431.330622 445.870234)scale(0.12 -0.12)">
       <use xlink:href="#ArialMT-33"/>
       <use xlink:href="#ArialMT-30" x="55.615234"/>
      </g>
     </g>
    </g>
    <g id="ytick_27">
     <g id="line2d_117">
      <g>
       <use xlink:href="#mfb7ac7e1db" x="457.176872" y="403.187369" style="fill: #1a1a1a; stroke: #1a1a1a; stroke-width: 1.875"/>
      </g>
     </g>
     <g id="text_54">
      <!-- 60 -->
      <g style="fill: #1a1a1a" transform="translate(431.330622 407.482056)scale(0.12 -0.12)">
       <use xlink:href="#ArialMT-36"/>
       <use xlink:href="#ArialMT-30" x="55.615234"/>
      </g>
     </g>
    </g>
   </g>
   <g id="line2d_118">
    <path d="M 464.214287 390.465168 
L 464.588686 416.382295 
L 465.014726 431.684288 
L 465.505319 441.812635 
L 466.060462 448.852155 
L 466.667247 453.849211 
L 467.338584 457.602026 
L 468.074472 460.484757 
L 468.874912 462.741819 
L 469.752814 464.561002 
L 470.708177 466.039431 
L 471.779734 467.290027 
L 472.980393 468.350762 
L 474.361797 469.273668 
L 475.988498 470.088348 
L 477.937956 470.809047 
L 480.326365 471.446223 
L 483.308649 472.002383 
L 487.130103 472.478842 
L 492.190948 472.873914 
L 499.188341 473.182794 
L 509.594058 473.400838 
L 527.539402 473.525529 
L 575.514147 473.564726 
L 604.962585 473.565596 
L 604.962585 473.565596 
" clip-path="url(#pca24eb75f1)" style="fill: none; stroke: #0071b2; stroke-width: 2.5; stroke-linecap: round"/>
   </g>
   <g id="line2d_119">
    <path d="M 464.214287 505.899033 
L 464.588686 497.853115 
L 465.014726 493.10059 
L 465.505319 489.952908 
L 466.060462 487.763217 
L 466.680158 486.180062 
L 467.390225 484.962641 
L 468.203575 484.006009 
L 469.158939 483.225237 
L 470.333778 482.559438 
L 471.818465 481.984792 
L 473.755012 481.485825 
L 476.375807 481.053605 
L 480.055248 480.686952 
L 485.464672 480.38839 
L 493.920931 480.164712 
L 508.703246 480.023784 
L 543.6773 479.967617 
L 604.962585 479.963758 
L 604.962585 479.963758 
" clip-path="url(#pca24eb75f1)" style="fill: none; stroke: #d65c00; stroke-width: 2.5; stroke-linecap: round"/>
   </g>
   <g id="line2d_120">
    <path d="M 464.214287 505.899033 
L 464.588686 497.853115 
L 465.014726 493.10059 
L 465.505319 489.952908 
L 466.060462 487.763217 
L 466.680158 486.180062 
L 467.390225 484.962641 
L 468.203575 484.006009 
L 469.158939 483.225237 
L 470.333778 482.559438 
L 471.818465 481.984792 
L 473.755012 481.485825 
L 476.375807 481.053605 
L 480.055248 480.686952 
L 485.464672 480.38839 
L 493.920931 480.164712 
L 508.703246 480.023784 
L 543.6773 479.967617 
L 604.962585 479.963758 
L 604.962585 479.963758 
" clip-path="url(#pca24eb75f1)" style="fill: none; stroke: #d65c00; stroke-width: 2.5; stroke-linecap: round"/>
   </g>
   <g id="line2d_121">
    <path d="M 464.214287 466.000344 
L 464.588686 468.484173 
L 465.027637 469.977281 
L 465.531139 470.944026 
L 466.137924 471.638723 
L 466.899633 472.166961 
L 467.906638 472.584494 
L 469.339683 472.923148 
L 471.521527 473.191135 
L 475.149327 473.388473 
L 482.133809 473.511658 
L 501.344364 473.561224 
L 604.962585 473.565694 
L 604.962585 473.565694 
" clip-path="url(#pca24eb75f1)" style="fill: none; stroke: #0071b2; stroke-width: 2.5; stroke-linecap: round"/>
   </g>
   <g id="line2d_122">
    <path d="M 464.214287 389.163636 
L 464.588686 415.578325 
L 465.014726 431.161646 
L 465.505319 441.460453 
L 466.047552 448.474205 
L 466.654337 453.583941 
L 467.325674 457.410501 
L 468.048651 460.299662 
L 468.836181 462.571547 
L 469.701172 464.408734 
L 470.656536 465.923076 
L 471.715182 467.187375 
L 472.902931 468.261798 
L 474.271425 469.198162 
L 475.872305 470.020103 
L 477.795942 470.750343 
L 480.13271 471.392183 
L 483.050442 471.954817 
L 486.781524 472.438357 
L 491.713266 472.841411 
L 498.491184 473.158246 
L 508.483771 473.384729 
L 525.383378 473.517924 
L 567.496839 473.563879 
L 604.962585 473.565595 
L 604.962585 473.565595 
" clip-path="url(#pca24eb75f1)" style="fill: none; stroke-dasharray: 3,6; stroke-dashoffset: 0; stroke: #000000; stroke-opacity: 0.7; stroke-width: 3"/>
   </g>
   <g id="line2d_123">
    <path d="M 464.214287 506.30303 
L 464.588686 498.10272 
L 465.014726 493.262898 
L 465.505319 490.06232 
L 466.060462 487.839456 
L 466.680158 486.234753 
L 467.390225 485.002446 
L 468.203575 484.035312 
L 469.158939 483.246845 
L 470.320868 482.581311 
L 471.792644 482.00432 
L 473.703371 481.50448 
L 476.285435 481.070657 
L 479.913235 480.701061 
L 485.232286 480.399539 
L 493.520711 480.17253 
L 507.915717 480.027957 
L 541.21143 479.968464 
L 604.962585 479.963758 
L 604.962585 479.963758 
" clip-path="url(#pca24eb75f1)" style="fill: none; stroke-dasharray: 3,6; stroke-dashoffset: 0; stroke: #000000; stroke-opacity: 0.7; stroke-width: 3"/>
   </g>
   <g id="line2d_124">
    <path d="M 464.214287 506.30303 
L 464.588686 498.10272 
L 465.014726 493.262898 
L 465.505319 490.06232 
L 466.060462 487.839456 
L 466.680158 486.234753 
L 467.390225 485.002446 
L 468.203575 484.035312 
L 469.158939 483.246845 
L 470.320868 482.581311 
L 471.792644 482.00432 
L 473.703371 481.50448 
L 476.285435 481.070657 
L 479.913235 480.701061 
L 485.232286 480.399539 
L 493.520711 480.17253 
L 507.915717 480.027957 
L 541.21143 479.968464 
L 604.962585 479.963758 
L 604.962585 479.963758 
" clip-path="url(#pca24eb75f1)" style="fill: none; stroke-dasharray: 3,6; stroke-dashoffset: 0; stroke: #000000; stroke-opacity: 0.7; stroke-width: 3"/>
   </g>
   <g id="line2d_125">
    <path d="M 464.214287 465.875432 
L 464.588686 468.407162 
L 465.027637 469.92793 
L 465.531139 470.911123 
L 466.137924 471.616522 
L 466.899633 472.152072 
L 467.906638 472.574769 
L 469.326773 472.914863 
L 471.482796 473.184401 
L 475.058955 473.383739 
L 481.901424 473.509065 
L 500.401911 473.560645 
L 604.962585 473.565694 
L 604.962585 473.565694 
" clip-path="url(#pca24eb75f1)" style="fill: none; stroke-dasharray: 3,6; stroke-dashoffset: 0; stroke: #000000; stroke-opacity: 0.7; stroke-width: 3"/>
   </g>
   <g id="patch_27">
    <path d="M 457.176872 512.16 
L 457.176872 383.306667 
" style="fill: none; stroke: #262626; stroke-width: 1.875; stroke-linejoin: miter; stroke-linecap: square"/>
   </g>
   <g id="patch_28">
    <path d="M 457.176872 512.16 
L 612 512.16 
" style="fill: none; stroke: #262626; stroke-width: 1.875; stroke-linejoin: miter; stroke-linecap: square"/>
   </g>
  </g>
 </g>
 <defs>
  <clipPath id="p73b25ded95">
   <rect x="62.652" y="39.4" width="154.823128" height="128.853333"/>
  </clipPath>
  <clipPath id="pcdf0a80b44">
   <rect x="259.914436" y="39.4" width="154.823128" height="128.853333"/>
  </clipPath>
  <clipPath id="p44d69283c8">
   <rect x="457.176872" y="39.4" width="154.823128" height="128.853333"/>
  </clipPath>
  <clipPath id="p65c2733ad5">
   <rect x="62.652" y="211.353333" width="154.823128" height="128.853333"/>
  </clipPath>
  <clipPath id="p143808c9d0">
   <rect x="259.914436" y="211.353333" width="154.823128" height="128.853333"/>
  </clipPath>
  <clipPath id="p88570b6576">
   <rect x="457.176872" y="211.353333" width="154.823128" height="128.853333"/>
  </clipPath>
  <clipPath id="p322601af6e">
   <rect x="62.652" y="383.306667" width="154.823128" height="128.853333"/>
  </clipPath>
  <clipPath id="p3b12896e4f">
   <rect x="259.914436" y="383.306667" width="154.823128" height="128.853333"/>
  </clipPath>
  <clipPath id="pca24eb75f1">
   <rect x="457.176872" y="383.306667" width="154.823128" height="128.853333"/>
  </clipPath>
 </defs>
</svg>
