<?xml version="1.0" encoding="utf-8" standalone="no"?>
<!DOCTYPE svg PUBLIC "-//W3C//DTD SVG 1.1//EN"
  "http://www.w3.org/Graphics/SVG/1.1/DTD/svg11.dtd">
<svg xmlns:xlink="http://www.w3.org/1999/xlink" width="504pt" height="360pt" viewBox="0 0 504 360" xmlns="http://www.w3.org/2000/svg" version="1.1">
 <metadata>
  <rdf:RDF xmlns:dc="http://purl.org/dc/elements/1.1/" xmlns:cc="http://creativecommons.org/ns#" xmlns:rdf="http://www.w3.org/1999/02/22-rdf-syntax-ns#">
   <cc:Work>
    <dc:type rdf:resource="http://purl.org/dc/dcmitype/StillImage"/>
    <dc:date>2023-01-13T11:49:32.974925</dc:date>
    <dc:format>image/svg+xml</dc:format>
    <dc:creator>
     <cc:Agent>
      <dc:title>Matplotlib v3.5.1, https://matplotlib.org/</dc:title>
     </cc:Agent>
    </dc:creator>
   </cc:Work>
  </rdf:RDF>
 </metadata>
 <defs>
  <style type="text/css">*{stroke-linejoin: round; stroke-linecap: butt}</style>
 </defs>
 <g id="figure_1">
  <g id="patch_1">
   <path d="M 0 360 
L 504 360 
L 504 0 
L 0 0 
z
" style="fill: #ffffff"/>
  </g>
  <g id="axes_1">
   <g id="patch_2">
    <path d="M 78.69 292.74 
L 217.057015 292.74 
L 217.057015 25.2 
L 78.69 25.2 
z
" style="fill: #ffffff"/>
   </g>
   <g id="matplotlib.axis_1">
    <g id="xtick_1">
     <g id="line2d_1">
      <defs>
       <path id="mdeead1e387" d="M 0 0 
L 0 9 
" style="stroke: #1a1a1a; stroke-width: 1.875"/>
      </defs>
      <g>
       <use xlink:href="#mdeead1e387" x="78.69" y="292.74" style="fill: #1a1a1a; stroke: #1a1a1a; stroke-width: 1.875"/>
      </g>
     </g>
     <g id="text_1">
      <!-- 0.00 -->
      <g style="fill: #1a1a1a" transform="translate(62.634727 317.050391)scale(0.165 -0.165)">
       <defs>
        <path id="ArialMT-30" d="M 266 2259 
Q 266 3072 433 3567 
Q 600 4063 929 4331 
Q 1259 4600 1759 4600 
Q 2128 4600 2406 4451 
Q 2684 4303 2865 4023 
Q 3047 3744 3150 3342 
Q 3253 2941 3253 2259 
Q 3253 1453 3087 958 
Q 2922 463 2592 192 
Q 2263 -78 1759 -78 
Q 1097 -78 719 397 
Q 266 969 266 2259 
z
M 844 2259 
Q 844 1131 1108 757 
Q 1372 384 1759 384 
Q 2147 384 2411 759 
Q 2675 1134 2675 2259 
Q 2675 3391 2411 3762 
Q 2147 4134 1753 4134 
Q 1366 4134 1134 3806 
Q 844 3388 844 2259 
z
" transform="scale(0.015625)"/>
        <path id="ArialMT-2e" d="M 581 0 
L 581 641 
L 1222 641 
L 1222 0 
L 581 0 
z
" transform="scale(0.015625)"/>
       </defs>
       <use xlink:href="#ArialMT-30"/>
       <use xlink:href="#ArialMT-2e" x="55.615234"/>
       <use xlink:href="#ArialMT-30" x="83.398438"/>
       <use xlink:href="#ArialMT-30" x="139.013672"/>
      </g>
     </g>
    </g>
    <g id="xtick_2">
     <g id="line2d_2">
      <g>
       <use xlink:href="#mdeead1e387" x="208.409077" y="292.74" style="fill: #1a1a1a; stroke: #1a1a1a; stroke-width: 1.875"/>
      </g>
     </g>
     <g id="text_2">
      <!-- 0.15 -->
      <g style="fill: #1a1a1a" transform="translate(192.353803 317.050391)scale(0.165 -0.165)">
       <defs>
        <path id="ArialMT-31" d="M 2384 0 
L 1822 0 
L 1822 3584 
Q 1619 3391 1289 3197 
Q 959 3003 697 2906 
L 697 3450 
Q 1169 3672 1522 3987 
Q 1875 4303 2022 4600 
L 2384 4600 
L 2384 0 
z
" transform="scale(0.015625)"/>
        <path id="ArialMT-35" d="M 266 1200 
L 856 1250 
Q 922 819 1161 601 
Q 1400 384 1738 384 
Q 2144 384 2425 690 
Q 2706 997 2706 1503 
Q 2706 1984 2436 2262 
Q 2166 2541 1728 2541 
Q 1456 2541 1237 2417 
Q 1019 2294 894 2097 
L 366 2166 
L 809 4519 
L 3088 4519 
L 3088 3981 
L 1259 3981 
L 1013 2750 
Q 1425 3038 1878 3038 
Q 2478 3038 2890 2622 
Q 3303 2206 3303 1553 
Q 3303 931 2941 478 
Q 2500 -78 1738 -78 
Q 1113 -78 717 272 
Q 322 622 266 1200 
z
" transform="scale(0.015625)"/>
       </defs>
       <use xlink:href="#ArialMT-30"/>
       <use xlink:href="#ArialMT-2e" x="55.615234"/>
       <use xlink:href="#ArialMT-31" x="83.398438"/>
       <use xlink:href="#ArialMT-35" x="139.013672"/>
      </g>
     </g>
    </g>
    <g id="text_3">
     <!-- Gain -->
     <g style="fill: #262626" transform="translate(128.86382 337.213828)scale(0.18 -0.18)">
      <defs>
       <path id="ArialMT-47" d="M 2638 1797 
L 2638 2334 
L 4578 2338 
L 4578 638 
Q 4131 281 3656 101 
Q 3181 -78 2681 -78 
Q 2006 -78 1454 211 
Q 903 500 622 1047 
Q 341 1594 341 2269 
Q 341 2938 620 3517 
Q 900 4097 1425 4378 
Q 1950 4659 2634 4659 
Q 3131 4659 3532 4498 
Q 3934 4338 4162 4050 
Q 4391 3763 4509 3300 
L 3963 3150 
Q 3859 3500 3706 3700 
Q 3553 3900 3268 4020 
Q 2984 4141 2638 4141 
Q 2222 4141 1919 4014 
Q 1616 3888 1430 3681 
Q 1244 3475 1141 3228 
Q 966 2803 966 2306 
Q 966 1694 1177 1281 
Q 1388 869 1791 669 
Q 2194 469 2647 469 
Q 3041 469 3416 620 
Q 3791 772 3984 944 
L 3984 1797 
L 2638 1797 
z
" transform="scale(0.015625)"/>
       <path id="ArialMT-61" d="M 2588 409 
Q 2275 144 1986 34 
Q 1697 -75 1366 -75 
Q 819 -75 525 192 
Q 231 459 231 875 
Q 231 1119 342 1320 
Q 453 1522 633 1644 
Q 813 1766 1038 1828 
Q 1203 1872 1538 1913 
Q 2219 1994 2541 2106 
Q 2544 2222 2544 2253 
Q 2544 2597 2384 2738 
Q 2169 2928 1744 2928 
Q 1347 2928 1158 2789 
Q 969 2650 878 2297 
L 328 2372 
Q 403 2725 575 2942 
Q 747 3159 1072 3276 
Q 1397 3394 1825 3394 
Q 2250 3394 2515 3294 
Q 2781 3194 2906 3042 
Q 3031 2891 3081 2659 
Q 3109 2516 3109 2141 
L 3109 1391 
Q 3109 606 3145 398 
Q 3181 191 3288 0 
L 2700 0 
Q 2613 175 2588 409 
z
M 2541 1666 
Q 2234 1541 1622 1453 
Q 1275 1403 1131 1340 
Q 988 1278 909 1158 
Q 831 1038 831 891 
Q 831 666 1001 516 
Q 1172 366 1500 366 
Q 1825 366 2078 508 
Q 2331 650 2450 897 
Q 2541 1088 2541 1459 
L 2541 1666 
z
" transform="scale(0.015625)"/>
       <path id="ArialMT-69" d="M 425 3934 
L 425 4581 
L 988 4581 
L 988 3934 
L 425 3934 
z
M 425 0 
L 425 3319 
L 988 3319 
L 988 0 
L 425 0 
z
" transform="scale(0.015625)"/>
       <path id="ArialMT-6e" d="M 422 0 
L 422 3319 
L 928 3319 
L 928 2847 
Q 1294 3394 1984 3394 
Q 2284 3394 2536 3286 
Q 2788 3178 2913 3003 
Q 3038 2828 3088 2588 
Q 3119 2431 3119 2041 
L 3119 0 
L 2556 0 
L 2556 2019 
Q 2556 2363 2490 2533 
Q 2425 2703 2258 2804 
Q 2091 2906 1866 2906 
Q 1506 2906 1245 2678 
Q 984 2450 984 1813 
L 984 0 
L 422 0 
z
" transform="scale(0.015625)"/>
      </defs>
      <use xlink:href="#ArialMT-47"/>
      <use xlink:href="#ArialMT-61" x="77.783203"/>
      <use xlink:href="#ArialMT-69" x="133.398438"/>
      <use xlink:href="#ArialMT-6e" x="155.615234"/>
     </g>
    </g>
   </g>
   <g id="matplotlib.axis_2">
    <g id="ytick_1">
     <g id="line2d_3">
      <defs>
       <path id="m09e058edb8" d="M 0 0 
L -9 0 
" style="stroke: #1a1a1a; stroke-width: 1.875"/>
      </defs>
      <g>
       <use xlink:href="#m09e058edb8" x="78.69" y="282.048007" style="fill: #1a1a1a; stroke: #1a1a1a; stroke-width: 1.875"/>
      </g>
     </g>
     <g id="text_4">
      <!-- 0 -->
      <g style="fill: #1a1a1a" transform="translate(57.014453 287.953202)scale(0.165 -0.165)">
       <use xlink:href="#ArialMT-30"/>
      </g>
     </g>
    </g>
    <g id="ytick_2">
     <g id="line2d_4">
      <g>
       <use xlink:href="#m09e058edb8" x="78.69" y="161.178357" style="fill: #1a1a1a; stroke: #1a1a1a; stroke-width: 1.875"/>
      </g>
     </g>
     <g id="text_5">
      <!-- 40 -->
      <g style="fill: #1a1a1a" transform="translate(47.838906 167.083552)scale(0.165 -0.165)">
       <defs>
        <path id="ArialMT-34" d="M 2069 0 
L 2069 1097 
L 81 1097 
L 81 1613 
L 2172 4581 
L 2631 4581 
L 2631 1613 
L 3250 1613 
L 3250 1097 
L 2631 1097 
L 2631 0 
L 2069 0 
z
M 2069 1613 
L 2069 3678 
L 634 1613 
L 2069 1613 
z
" transform="scale(0.015625)"/>
       </defs>
       <use xlink:href="#ArialMT-34"/>
       <use xlink:href="#ArialMT-30" x="55.615234"/>
      </g>
     </g>
    </g>
    <g id="ytick_3">
     <g id="line2d_5">
      <g>
       <use xlink:href="#m09e058edb8" x="78.69" y="25.2" style="fill: #1a1a1a; stroke: #1a1a1a; stroke-width: 1.875"/>
      </g>
     </g>
     <g id="text_6">
      <!-- 85 -->
      <g style="fill: #1a1a1a" transform="translate(47.838906 31.105195)scale(0.165 -0.165)">
       <defs>
        <path id="ArialMT-38" d="M 1131 2484 
Q 781 2613 612 2850 
Q 444 3088 444 3419 
Q 444 3919 803 4259 
Q 1163 4600 1759 4600 
Q 2359 4600 2725 4251 
Q 3091 3903 3091 3403 
Q 3091 3084 2923 2848 
Q 2756 2613 2416 2484 
Q 2838 2347 3058 2040 
Q 3278 1734 3278 1309 
Q 3278 722 2862 322 
Q 2447 -78 1769 -78 
Q 1091 -78 675 323 
Q 259 725 259 1325 
Q 259 1772 486 2073 
Q 713 2375 1131 2484 
z
M 1019 3438 
Q 1019 3113 1228 2906 
Q 1438 2700 1772 2700 
Q 2097 2700 2305 2904 
Q 2513 3109 2513 3406 
Q 2513 3716 2298 3927 
Q 2084 4138 1766 4138 
Q 1444 4138 1231 3931 
Q 1019 3725 1019 3438 
z
M 838 1322 
Q 838 1081 952 856 
Q 1066 631 1291 507 
Q 1516 384 1775 384 
Q 2178 384 2440 643 
Q 2703 903 2703 1303 
Q 2703 1709 2433 1975 
Q 2163 2241 1756 2241 
Q 1359 2241 1098 1978 
Q 838 1716 838 1322 
z
" transform="scale(0.015625)"/>
       </defs>
       <use xlink:href="#ArialMT-38"/>
       <use xlink:href="#ArialMT-35" x="55.615234"/>
      </g>
     </g>
    </g>
    <g id="text_7">
     <!-- $||W_1^TW_1-\~V\~S\~V^T||_F^2$ -->
     <g style="fill: #262626" transform="translate(38.798906 235.56)rotate(-90)scale(0.18 -0.18)">
      <defs>
       <path id="DejaVuSans-7c" d="M 1344 4891 
L 1344 -1509 
L 813 -1509 
L 813 4891 
L 1344 4891 
z
" transform="scale(0.015625)"/>
       <path id="DejaVuSans-Oblique-57" d="M 616 4666 
L 1228 4666 
L 1453 697 
L 3213 4666 
L 3916 4666 
L 4147 697 
L 5888 4666 
L 6528 4666 
L 4453 0 
L 3659 0 
L 3444 3891 
L 1697 0 
L 903 0 
L 616 4666 
z
" transform="scale(0.015625)"/>
       <path id="DejaVuSans-Oblique-54" d="M 378 4666 
L 4325 4666 
L 4225 4134 
L 2559 4134 
L 1759 0 
L 1125 0 
L 1925 4134 
L 275 4134 
L 378 4666 
z
" transform="scale(0.015625)"/>
       <path id="DejaVuSans-31" d="M 794 531 
L 1825 531 
L 1825 4091 
L 703 3866 
L 703 4441 
L 1819 4666 
L 2450 4666 
L 2450 531 
L 3481 531 
L 3481 0 
L 794 0 
L 794 531 
z
" transform="scale(0.015625)"/>
       <path id="DejaVuSans-2212" d="M 678 2272 
L 4684 2272 
L 4684 1741 
L 678 1741 
L 678 2272 
z
" transform="scale(0.015625)"/>
       <path id="DejaVuSans-303" d="M -1619 4281 
L -1797 4453 
Q -1866 4516 -1917 4545 
Q -1969 4575 -2009 4575 
Q -2128 4575 -2184 4461 
Q -2241 4347 -2247 4091 
L -2638 4091 
Q -2631 4513 -2472 4742 
Q -2313 4972 -2028 4972 
Q -1909 4972 -1809 4928 
Q -1709 4884 -1594 4781 
L -1416 4609 
Q -1347 4547 -1295 4517 
Q -1244 4488 -1203 4488 
Q -1084 4488 -1028 4602 
Q -972 4716 -966 4972 
L -575 4972 
Q -581 4550 -740 4320 
Q -900 4091 -1184 4091 
Q -1303 4091 -1403 4134 
Q -1503 4178 -1619 4281 
z
" transform="scale(0.015625)"/>
       <path id="DejaVuSans-Oblique-56" d="M 1319 0 
L 500 4666 
L 1119 4666 
L 1797 653 
L 4063 4666 
L 4750 4666 
L 2053 0 
L 1319 0 
z
" transform="scale(0.015625)"/>
       <path id="DejaVuSans-Oblique-53" d="M 3859 4513 
L 3738 3897 
Q 3422 4066 3111 4152 
Q 2800 4238 2509 4238 
Q 1944 4238 1609 3991 
Q 1275 3744 1275 3334 
Q 1275 3109 1398 2989 
Q 1522 2869 2034 2731 
L 2413 2638 
Q 3053 2472 3303 2217 
Q 3553 1963 3553 1503 
Q 3553 797 2998 353 
Q 2444 -91 1538 -91 
Q 1166 -91 791 -17 
Q 416 56 38 206 
L 166 856 
Q 513 641 861 531 
Q 1209 422 1556 422 
Q 2147 422 2503 684 
Q 2859 947 2859 1369 
Q 2859 1650 2717 1795 
Q 2575 1941 2106 2059 
L 1728 2156 
Q 1081 2325 845 2545 
Q 609 2766 609 3163 
Q 609 3859 1145 4304 
Q 1681 4750 2541 4750 
Q 2875 4750 3203 4690 
Q 3531 4631 3859 4513 
z
" transform="scale(0.015625)"/>
       <path id="DejaVuSans-32" d="M 1228 531 
L 3431 531 
L 3431 0 
L 469 0 
L 469 531 
Q 828 903 1448 1529 
Q 2069 2156 2228 2338 
Q 2531 2678 2651 2914 
Q 2772 3150 2772 3378 
Q 2772 3750 2511 3984 
Q 2250 4219 1831 4219 
Q 1534 4219 1204 4116 
Q 875 4013 500 3803 
L 500 4441 
Q 881 4594 1212 4672 
Q 1544 4750 1819 4750 
Q 2544 4750 2975 4387 
Q 3406 4025 3406 3419 
Q 3406 3131 3298 2873 
Q 3191 2616 2906 2266 
Q 2828 2175 2409 1742 
Q 1991 1309 1228 531 
z
" transform="scale(0.015625)"/>
       <path id="DejaVuSans-Oblique-46" d="M 1081 4666 
L 3756 4666 
L 3653 4134 
L 1606 4134 
L 1338 2759 
L 3188 2759 
L 3084 2228 
L 1234 2228 
L 800 0 
L 172 0 
L 1081 4666 
z
" transform="scale(0.015625)"/>
      </defs>
      <use xlink:href="#DejaVuSans-7c" transform="translate(0 0.515625)"/>
      <use xlink:href="#DejaVuSans-7c" transform="translate(33.691406 0.515625)"/>
      <use xlink:href="#DejaVuSans-Oblique-57" transform="translate(67.382812 0.515625)"/>
      <use xlink:href="#DejaVuSans-Oblique-54" transform="translate(173.276536 38.796875)scale(0.7)"/>
      <use xlink:href="#DejaVuSans-31" transform="translate(166.259766 -26.828125)scale(0.7)"/>
      <use xlink:href="#DejaVuSans-Oblique-57" transform="translate(218.769701 0.515625)"/>
      <use xlink:href="#DejaVuSans-31" transform="translate(317.646654 -15.890625)scale(0.7)"/>
      <use xlink:href="#DejaVuSans-2212" transform="translate(384.399583 0.515625)"/>
      <use xlink:href="#DejaVuSans-303" transform="translate(554.49138 22)"/>
      <use xlink:href="#DejaVuSans-Oblique-56" transform="translate(487.671068 0.515625)"/>
      <use xlink:href="#DejaVuSans-303" transform="translate(618.223802 23.3125)"/>
      <use xlink:href="#DejaVuSans-Oblique-53" transform="translate(556.079271 0.515625)"/>
      <use xlink:href="#DejaVuSans-303" transform="translate(686.376146 22)"/>
      <use xlink:href="#DejaVuSans-Oblique-56" transform="translate(619.555833 0.515625)"/>
      <use xlink:href="#DejaVuSans-Oblique-54" transform="translate(688.921068 38.796875)scale(0.7)"/>
      <use xlink:href="#DejaVuSans-7c" transform="translate(734.414232 0.515625)"/>
      <use xlink:href="#DejaVuSans-7c" transform="translate(768.105638 0.515625)"/>
      <use xlink:href="#DejaVuSans-32" transform="translate(802.754076 38.796875)scale(0.7)"/>
      <use xlink:href="#DejaVuSans-Oblique-46" transform="translate(802.754076 -26.828125)scale(0.7)"/>
     </g>
    </g>
   </g>
   <g id="PolyCollection_1">
    <defs>
     <path id="ma91e634e1f" d="M 82.842897 -77.951997 
L 82.842897 -77.951998 
L 106.093429 -77.953125 
L 117.240715 -77.955377 
L 125.053958 -77.957991 
L 133.128529 -77.961576 
L 139.295719 -77.964432 
L 145.098363 -77.970709 
L 150.166521 -77.972754 
L 154.97463 -77.978523 
L 160.052589 -77.983828 
L 163.610446 -77.983645 
L 169.182338 -77.988792 
L 172.405854 -77.993821 
L 175.23866 -77.998167 
L 180.770848 -78.005078 
L 182.534187 -78.00384 
L 187.080438 -78.013567 
L 190.063006 -78.023463 
L 192.856773 -78.022753 
L 196.494689 -78.033114 
L 198.172563 -78.027034 
L 202.3406 -79.542853 
L 205.23536 -78.046545 
L 208.727211 -78.050995 
L 210.948417 -78.058509 
L 210.948417 -78.011632 
L 210.948417 -78.011632 
L 208.727211 -78.001666 
L 205.23536 -78.003183 
L 202.3406 -76.849327 
L 198.172563 -77.994391 
L 196.494689 -77.998075 
L 192.856773 -77.992533 
L 190.063006 -77.985554 
L 187.080438 -77.986528 
L 182.534187 -77.983025 
L 180.770848 -77.980351 
L 175.23866 -77.977252 
L 172.405854 -77.97239 
L 169.182338 -77.973855 
L 163.610446 -77.97023 
L 160.052589 -77.966348 
L 154.97463 -77.965238 
L 150.166521 -77.962381 
L 145.098363 -77.96079 
L 139.295719 -77.958037 
L 133.128529 -77.957259 
L 125.053958 -77.955439 
L 117.240715 -77.953803 
L 106.093429 -77.952573 
L 82.842897 -77.951997 
z
" style="stroke: #d65c00; stroke-opacity: 0.2; stroke-width: 1.5"/>
    </defs>
    <g clip-path="url(#p4d62003953)">
     <use xlink:href="#ma91e634e1f" x="0" y="360" style="fill: #d65c00; fill-opacity: 0.2; stroke: #d65c00; stroke-opacity: 0.2; stroke-width: 1.5"/>
    </g>
   </g>
   <g id="PolyCollection_2">
    <defs>
     <path id="meab4cf5360" d="M 81.436429 -77.952 
L 81.436429 -77.952004 
L 87.011898 -77.95287 
L 92.694206 -77.958794 
L 97.979683 -77.979427 
L 103.37383 -78.024632 
L 109.008547 -78.122256 
L 114.091793 -78.257509 
L 120.647387 -78.536248 
L 126.071783 -78.927421 
L 130.743732 -79.464556 
L 137.311832 -80.624919 
L 142.633694 -81.380374 
L 147.664845 -83.066282 
L 155.486229 -85.665152 
L 159.970535 -87.830162 
L 164.215304 -89.370504 
L 168.808178 -92.886472 
L 174.27869 -97.259852 
L 180.74268 -104.078266 
L 186.570653 -113.994654 
L 190.677574 -114.106104 
L 196.054352 -128.916454 
L 203.203483 -140.766546 
L 207.432156 -155.106341 
L 215.087203 -170.957707 
L 215.087203 -110.401432 
L 215.087203 -110.401432 
L 207.432156 -102.203463 
L 203.203483 -104.092686 
L 196.054352 -97.746056 
L 190.677574 -96.323488 
L 186.570653 -90.393671 
L 180.74268 -89.483613 
L 174.27869 -86.578549 
L 168.808178 -85.689595 
L 164.215304 -83.765007 
L 159.970535 -82.658249 
L 155.486229 -81.700148 
L 147.664845 -80.504179 
L 142.633694 -79.685278 
L 137.311832 -79.041131 
L 130.743732 -78.799144 
L 126.071783 -78.496731 
L 120.647387 -78.249218 
L 114.091793 -78.117484 
L 109.008547 -78.032183 
L 103.37383 -77.985747 
L 97.979683 -77.965564 
L 92.694206 -77.955733 
L 87.011898 -77.952405 
L 81.436429 -77.952 
z
" style="stroke: #d65c00; stroke-opacity: 0.2; stroke-width: 1.5"/>
    </defs>
    <g clip-path="url(#p4d62003953)">
     <use xlink:href="#meab4cf5360" x="0" y="360" style="fill: #d65c00; fill-opacity: 0.2; stroke: #d65c00; stroke-opacity: 0.2; stroke-width: 1.5"/>
    </g>
   </g>
   <g id="PolyCollection_3">
    <defs>
     <path id="m997f962bb7" d="M 82.734986 -77.951991 
L 82.734986 -77.951998 
L 104.949363 -77.952004 
L 115.894134 -77.952011 
L 123.67753 -77.952007 
L 130.74809 -77.952012 
L 137.041521 -77.95201 
L 142.850452 -77.952012 
L 146.692827 -77.952016 
L 152.033937 -77.952018 
L 157.2884 -77.952024 
L 161.675557 -77.952028 
L 165.422501 -77.95203 
L 168.610768 -77.95203 
L 172.84629 -77.952034 
L 175.732588 -77.95204 
L 179.765241 -77.952056 
L 183.524928 -77.952056 
L 185.633546 -77.952069 
L 189.111741 -77.952072 
L 191.535804 -77.952086 
L 195.261076 -77.952085 
L 196.097183 -77.952098 
L 201.106365 -77.952123 
L 202.130557 -77.952124 
L 206.413542 -77.952144 
L 206.413542 -77.952046 
L 206.413542 -77.952046 
L 202.130557 -77.952037 
L 201.106365 -77.95203 
L 196.097183 -77.95203 
L 195.261076 -77.952027 
L 191.535804 -77.952027 
L 189.111741 -77.952019 
L 185.633546 -77.952014 
L 183.524928 -77.952013 
L 179.765241 -77.952008 
L 175.732588 -77.952011 
L 172.84629 -77.952008 
L 168.610768 -77.952006 
L 165.422501 -77.952004 
L 161.675557 -77.952003 
L 157.2884 -77.951999 
L 152.033937 -77.951999 
L 146.692827 -77.951998 
L 142.850452 -77.951995 
L 137.041521 -77.951995 
L 130.74809 -77.951993 
L 123.67753 -77.951992 
L 115.894134 -77.951992 
L 104.949363 -77.95199 
L 82.734986 -77.951991 
z
" style="stroke: #0071b2; stroke-opacity: 0.2; stroke-width: 1.5"/>
    </defs>
    <g clip-path="url(#p4d62003953)">
     <use xlink:href="#m997f962bb7" x="0" y="360" style="fill: #0071b2; fill-opacity: 0.2; stroke: #0071b2; stroke-opacity: 0.2; stroke-width: 1.5"/>
    </g>
   </g>
   <g id="PolyCollection_4">
    <defs>
     <path id="md98a1e7570" d="M 81.417317 -77.951998 
L 81.417317 -77.952003 
L 86.750817 -77.952773 
L 92.299186 -77.960281 
L 98.139494 -78.003032 
L 103.159868 -78.100129 
L 108.711722 -78.288026 
L 114.500641 -78.764071 
L 120.050903 -79.404144 
L 125.333635 -80.318363 
L 131.716053 -82.643326 
L 137.753159 -84.249672 
L 142.678701 -87.803324 
L 147.571709 -90.50739 
L 152.420307 -96.074124 
L 158.180893 -101.922966 
L 165.416519 -108.27133 
L 169.029326 -121.205164 
L 176.193928 -130.596597 
L 182.66167 -149.346209 
L 183.851324 -143.746461 
L 192.514404 -170.537083 
L 194.842361 -175.850408 
L 204.301943 -200.142296 
L 208.324449 -217.887201 
L 212.689507 -243.131726 
L 212.689507 -137.36596 
L 212.689507 -137.36596 
L 208.324449 -140.304713 
L 204.301943 -128.245904 
L 194.842361 -114.956698 
L 192.514404 -115.051956 
L 183.851324 -104.476482 
L 182.66167 -101.586241 
L 176.193928 -97.72825 
L 169.029326 -88.977265 
L 165.416519 -91.32663 
L 158.180893 -85.166036 
L 152.420307 -83.392174 
L 147.571709 -82.216787 
L 142.678701 -81.289363 
L 137.753159 -80.568945 
L 131.716053 -79.439064 
L 125.333635 -78.821604 
L 120.050903 -78.559979 
L 114.500641 -78.189722 
L 108.711722 -78.064026 
L 103.159868 -77.982795 
L 98.139494 -77.964142 
L 92.299186 -77.954624 
L 86.750817 -77.952267 
L 81.417317 -77.951998 
z
" style="stroke: #ffffff; stroke-opacity: 0.2; stroke-width: 1.5"/>
    </defs>
    <g clip-path="url(#p4d62003953)">
     <use xlink:href="#md98a1e7570" x="0" y="360" style="fill: #1f77b4; fill-opacity: 0.2; stroke: #ffffff; stroke-opacity: 0.2; stroke-width: 1.5"/>
    </g>
   </g>
   <g id="PolyCollection_5">
    <defs>
     <path id="m71cf348520" d="M 82.174981 -77.951993 
L 82.174981 -77.951993 
L 101.886665 -77.951994 
L 111.112724 -77.951995 
L 118.160896 -77.951997 
L 124.648356 -77.951998 
L 129.332121 -77.952 
L 134.902401 -77.952002 
L 137.711879 -77.952004 
L 142.480571 -77.952005 
L 146.32878 -77.952011 
L 150.951722 -77.952015 
L 152.779511 -77.952014 
L 157.460006 -77.95202 
L 160.575004 -77.952025 
L 163.56125 -77.952026 
L 166.402274 -77.952042 
L 169.46469 -77.952041 
L 171.521039 -77.952047 
L 174.877714 -77.952065 
L 177.968573 -77.952068 
L 180.564391 -77.952082 
L 182.2967 -77.95207 
L 182.995967 -77.952087 
L 187.481795 -77.952104 
L 190.321457 -77.952115 
L 190.321457 -77.952024 
L 190.321457 -77.952024 
L 187.481795 -77.952022 
L 182.995967 -77.952013 
L 182.2967 -77.952018 
L 180.564391 -77.952017 
L 177.968573 -77.95201 
L 174.877714 -77.952009 
L 171.521039 -77.952006 
L 169.46469 -77.952006 
L 166.402274 -77.952007 
L 163.56125 -77.952003 
L 160.575004 -77.952003 
L 157.460006 -77.952003 
L 152.779511 -77.952002 
L 150.951722 -77.952 
L 146.32878 -77.951998 
L 142.480571 -77.951998 
L 137.711879 -77.951996 
L 134.902401 -77.951996 
L 129.332121 -77.951995 
L 124.648356 -77.951995 
L 118.160896 -77.951995 
L 111.112724 -77.951994 
L 101.886665 -77.951994 
L 82.174981 -77.951993 
z
" style="stroke: #009e73; stroke-opacity: 0.2; stroke-width: 1.5"/>
    </defs>
    <g clip-path="url(#p4d62003953)">
     <use xlink:href="#m71cf348520" x="0" y="360" style="fill: #009e73; fill-opacity: 0.2; stroke: #009e73; stroke-opacity: 0.2; stroke-width: 1.5"/>
    </g>
   </g>
   <g id="PolyCollection_6">
    <defs>
     <path id="m61d55b0683" d="M 81.387763 -77.951997 
L 81.387763 -77.952003 
L 86.932375 -77.952995 
L 92.353011 -77.962718 
L 97.822819 -78.008039 
L 103.44632 -78.129914 
L 109.404499 -78.430144 
L 114.312454 -78.89722 
L 119.782487 -79.527431 
L 125.646022 -80.741051 
L 130.946005 -82.306869 
L 136.54777 -85.254408 
L 141.762451 -89.157542 
L 147.297258 -91.759271 
L 154.03135 -99.54665 
L 157.336358 -102.682038 
L 164.183178 -114.241396 
L 168.56994 -122.175487 
L 176.537922 -141.197357 
L 180.339455 -145.563562 
L 185.267401 -151.317158 
L 191.25429 -186.068983 
L 195.543305 -186.847982 
L 201.576331 -225.621108 
L 209.53411 -265.037809 
L 213.26359 -268.635859 
L 213.26359 -166.094549 
L 213.26359 -166.094549 
L 209.53411 -155.400133 
L 201.576331 -131.085167 
L 195.543305 -130.603345 
L 191.25429 -119.365506 
L 185.267401 -115.065861 
L 180.339455 -107.820113 
L 176.537922 -99.644939 
L 168.56994 -93.875191 
L 164.183178 -91.637088 
L 157.336358 -88.041411 
L 154.03135 -86.422328 
L 147.297258 -83.905925 
L 141.762451 -81.190627 
L 136.54777 -80.678703 
L 130.946005 -79.838299 
L 125.646022 -79.057702 
L 119.782487 -78.554552 
L 114.312454 -78.241547 
L 109.404499 -78.083352 
L 103.44632 -78.013362 
L 97.822819 -77.967013 
L 92.353011 -77.955772 
L 86.932375 -77.95244 
L 81.387763 -77.951997 
z
" style="stroke: #009e73; stroke-opacity: 0.2; stroke-width: 1.5"/>
    </defs>
    <g clip-path="url(#p4d62003953)">
     <use xlink:href="#m61d55b0683" x="0" y="360" style="fill: #009e73; fill-opacity: 0.2; stroke: #009e73; stroke-opacity: 0.2; stroke-width: 1.5"/>
    </g>
   </g>
   <g id="PolyCollection_7">
    <defs>
     <path id="mfcc415201c" d="M 82.84841 -77.95197 
L 82.84841 -77.952048 
L 105.368931 -77.952014 
L 116.715876 -77.952024 
L 124.620161 -77.952074 
L 131.766618 -77.952075 
L 139.156476 -77.952061 
L 144.341254 -77.952101 
L 149.025082 -77.952041 
L 154.064256 -77.952057 
L 159.045384 -77.952025 
L 161.40442 -77.95203 
L 168.214773 -77.952113 
L 171.518143 -77.95209 
L 173.644755 -77.95206 
L 178.98248 -77.952053 
L 182.102543 -77.952029 
L 184.577528 -77.952066 
L 189.534546 -77.952079 
L 192.179509 -77.952085 
L 194.053106 -77.952063 
L 198.153256 -77.952122 
L 201.759019 -77.952135 
L 204.559622 -77.952115 
L 206.268115 -77.95207 
L 207.087036 -77.952123 
L 207.087036 -77.951999 
L 207.087036 -77.951999 
L 206.268115 -77.952011 
L 204.559622 -77.952016 
L 201.759019 -77.951984 
L 198.153256 -77.95198 
L 194.053106 -77.951998 
L 192.179509 -77.951992 
L 189.534546 -77.951978 
L 184.577528 -77.951986 
L 182.102543 -77.952005 
L 178.98248 -77.951985 
L 173.644755 -77.951977 
L 171.518143 -77.951954 
L 168.214773 -77.951947 
L 161.40442 -77.951986 
L 159.045384 -77.951991 
L 154.064256 -77.951958 
L 149.025082 -77.951973 
L 144.341254 -77.95194 
L 139.156476 -77.951957 
L 131.766618 -77.951944 
L 124.620161 -77.951941 
L 116.715876 -77.951975 
L 105.368931 -77.95198 
L 82.84841 -77.95197 
z
" style="stroke: #e59c00; stroke-opacity: 0.2; stroke-width: 1.5"/>
    </defs>
    <g clip-path="url(#p4d62003953)">
     <use xlink:href="#mfcc415201c" x="0" y="360" style="fill: #e59c00; fill-opacity: 0.2; stroke: #e59c00; stroke-opacity: 0.2; stroke-width: 1.5"/>
    </g>
   </g>
   <g id="PolyCollection_8">
    <defs>
     <path id="m4790ed59b4" d="M 81.340576 -77.951983 
L 81.340576 -77.952035 
L 86.877081 -77.952508 
L 92.452777 -77.957061 
L 98.306706 -77.980519 
L 103.141378 -78.024772 
L 108.715663 -78.176086 
L 114.015542 -78.418701 
L 119.506894 -78.756388 
L 126.198717 -79.619234 
L 131.216733 -80.266903 
L 137.761363 -82.870113 
L 142.455058 -83.802848 
L 146.116479 -85.935181 
L 152.173059 -88.494161 
L 160.45541 -93.810326 
L 164.776459 -97.97385 
L 171.869136 -103.369084 
L 174.986109 -107.587657 
L 181.902649 -125.367119 
L 184.963615 -120.000118 
L 191.47346 -130.625721 
L 197.802978 -145.018138 
L 203.944661 -161.37937 
L 207.364803 -173.067527 
L 214.002271 -191.578926 
L 214.002271 -114.451566 
L 214.002271 -114.451566 
L 207.364803 -103.278712 
L 203.944661 -107.616236 
L 197.802978 -99.841735 
L 191.47346 -96.410448 
L 184.963615 -91.643466 
L 181.902649 -90.229365 
L 174.986109 -87.126744 
L 171.869136 -86.552389 
L 164.776459 -83.87402 
L 160.45541 -82.396924 
L 152.173059 -80.90818 
L 146.116479 -79.739854 
L 142.455058 -79.410504 
L 137.761363 -78.573264 
L 131.216733 -78.749195 
L 126.198717 -78.335194 
L 119.506894 -78.151975 
L 114.015542 -78.027356 
L 108.715663 -77.991341 
L 103.141378 -77.967949 
L 98.306706 -77.95624 
L 92.452777 -77.95287 
L 86.877081 -77.95219 
L 81.340576 -77.951983 
z
" style="stroke: #e59c00; stroke-opacity: 0.2; stroke-width: 1.5"/>
    </defs>
    <g clip-path="url(#p4d62003953)">
     <use xlink:href="#m4790ed59b4" x="0" y="360" style="fill: #e59c00; fill-opacity: 0.2; stroke: #e59c00; stroke-opacity: 0.2; stroke-width: 1.5"/>
    </g>
   </g>
   <g id="line2d_6">
    <path d="M 82.842897 282.048003 
L 106.093429 282.047151 
L 117.240715 282.04541 
L 125.053958 282.043285 
L 133.128529 282.040583 
L 139.295719 282.038765 
L 145.098363 282.034251 
L 150.166521 282.032433 
L 154.97463 282.02812 
L 160.052589 282.024912 
L 163.610446 282.023062 
L 169.182338 282.018676 
L 172.405854 282.016895 
L 175.23866 282.012291 
L 180.770848 282.007285 
L 182.534187 282.006568 
L 187.080438 281.999953 
L 190.063006 281.995492 
L 192.856773 281.992357 
L 196.494689 281.984405 
L 198.172563 281.989288 
L 202.3406 281.80391 
L 205.23536 281.975136 
L 208.727211 281.97367 
L 210.948417 281.96493 
" clip-path="url(#p4d62003953)" style="fill: none; stroke-dasharray: 2.5,5; stroke-dashoffset: 0; stroke: #d65c00; stroke-width: 2.5"/>
   </g>
   <g id="line2d_7">
    <path d="M 81.436429 282.047998 
L 87.011898 282.047363 
L 92.694206 282.042736 
L 97.979683 282.027505 
L 103.37383 281.99481 
L 109.008547 281.922781 
L 114.091793 281.812503 
L 120.647387 281.607267 
L 126.071783 281.287924 
L 130.743732 280.86815 
L 137.311832 280.166975 
L 142.633694 279.467174 
L 147.664845 278.21477 
L 155.486229 276.31735 
L 159.970535 274.755794 
L 164.215304 273.432244 
L 168.808178 270.711966 
L 174.27869 268.080799 
L 180.74268 263.219061 
L 186.570653 257.805837 
L 190.677574 254.785204 
L 196.054352 246.668745 
L 203.203483 237.570384 
L 207.432156 231.345098 
L 215.087203 219.320431 
" clip-path="url(#p4d62003953)" style="fill: none; stroke: #d65c00; stroke-width: 2.5; stroke-linecap: round"/>
   </g>
   <g id="line2d_8">
    <path d="M 82.734986 282.048006 
L 104.949363 282.048003 
L 115.894134 282.047999 
L 123.67753 282.048001 
L 130.74809 282.047998 
L 137.041521 282.047997 
L 142.850452 282.047996 
L 146.692827 282.047993 
L 152.033937 282.047991 
L 157.2884 282.047988 
L 161.675557 282.047984 
L 165.422501 282.047983 
L 168.610768 282.047982 
L 172.84629 282.047979 
L 175.732588 282.047974 
L 179.765241 282.047968 
L 183.524928 282.047966 
L 185.633546 282.047959 
L 189.111741 282.047954 
L 191.535804 282.047944 
L 195.261076 282.047944 
L 196.097183 282.047936 
L 201.106365 282.047924 
L 202.130557 282.047919 
L 206.413542 282.047905 
" clip-path="url(#p4d62003953)" style="fill: none; stroke-dasharray: 2.5,7.5; stroke-dashoffset: 0; stroke: #0071b2; stroke-width: 2.5"/>
   </g>
   <g id="line2d_9">
    <path d="M 81.417317 282.048 
L 86.750817 282.04748 
L 92.299186 282.042548 
L 98.139494 282.016413 
L 103.159868 281.958538 
L 108.711722 281.823974 
L 114.500641 281.523103 
L 120.050903 281.017939 
L 125.333635 280.430016 
L 131.716053 278.958805 
L 137.753159 277.590691 
L 142.678701 275.453656 
L 147.571709 273.637912 
L 152.420307 270.266851 
L 158.180893 266.455499 
L 165.416519 260.20102 
L 169.029326 254.908785 
L 176.193928 245.837577 
L 182.66167 234.533775 
L 183.851324 235.888528 
L 192.514404 217.20548 
L 194.842361 214.596447 
L 204.301943 195.8059 
L 208.324449 180.904043 
L 212.689507 169.751157 
" clip-path="url(#p4d62003953)" style="fill: none; stroke: #0071b2; stroke-width: 2.5; stroke-linecap: round"/>
   </g>
   <g id="line2d_10">
    <path d="M 82.174981 282.048007 
L 101.886665 282.048006 
L 111.112724 282.048005 
L 118.160896 282.048004 
L 124.648356 282.048004 
L 129.332121 282.048002 
L 134.902401 282.048001 
L 137.711879 282.048 
L 142.480571 282.047998 
L 146.32878 282.047996 
L 150.951722 282.047993 
L 152.779511 282.047992 
L 157.460006 282.047989 
L 160.575004 282.047986 
L 163.56125 282.047986 
L 166.402274 282.047975 
L 169.46469 282.047976 
L 171.521039 282.047974 
L 174.877714 282.047963 
L 177.968573 282.047961 
L 180.564391 282.047951 
L 182.2967 282.047956 
L 182.995967 282.04795 
L 187.481795 282.047937 
L 190.321457 282.04793 
" clip-path="url(#p4d62003953)" style="fill: none; stroke-dasharray: 2.5,10; stroke-dashoffset: 0; stroke: #009e73; stroke-width: 2.5"/>
   </g>
   <g id="line2d_11">
    <path d="M 81.387763 282.048 
L 86.932375 282.047282 
L 92.353011 282.040755 
L 97.822819 282.012474 
L 103.44632 281.928362 
L 109.404499 281.743252 
L 114.312454 281.430616 
L 119.782487 280.959009 
L 125.646022 280.100624 
L 130.946005 278.927416 
L 136.54777 277.033444 
L 141.762451 274.825915 
L 147.297258 272.167402 
L 154.03135 267.015511 
L 157.336358 264.638275 
L 164.183178 257.060758 
L 168.56994 251.974661 
L 176.537922 239.578852 
L 180.339455 233.308163 
L 185.267401 226.808491 
L 191.25429 207.282756 
L 195.543305 201.274337 
L 201.576331 181.646862 
L 209.53411 149.781029 
L 213.26359 142.634796 
" clip-path="url(#p4d62003953)" style="fill: none; stroke: #009e73; stroke-width: 2.5; stroke-linecap: round"/>
   </g>
   <g id="line2d_12">
    <path d="M 82.84841 282.047991 
L 105.368931 282.048003 
L 116.715876 282.048001 
L 124.620161 282.047992 
L 131.766618 282.047991 
L 139.156476 282.047991 
L 144.341254 282.047979 
L 149.025082 282.047993 
L 154.064256 282.047993 
L 159.045384 282.047992 
L 161.40442 282.047992 
L 168.214773 282.04797 
L 171.518143 282.047978 
L 173.644755 282.047981 
L 178.98248 282.047981 
L 182.102543 282.047983 
L 184.577528 282.047974 
L 189.534546 282.047972 
L 192.179509 282.047962 
L 194.053106 282.04797 
L 198.153256 282.047949 
L 201.759019 282.047941 
L 204.559622 282.047935 
L 206.268115 282.047959 
L 207.087036 282.047939 
" clip-path="url(#p4d62003953)" style="fill: none; stroke-dasharray: 2.5,12.5; stroke-dashoffset: 0; stroke: #e59c00; stroke-width: 2.5"/>
   </g>
   <g id="line2d_13">
    <path d="M 81.340576 282.047991 
L 86.877081 282.047651 
L 92.452777 282.045034 
L 98.306706 282.031621 
L 103.141378 282.003639 
L 108.715663 281.916287 
L 114.015542 281.776971 
L 119.506894 281.545819 
L 126.198717 281.022786 
L 131.216733 280.491951 
L 137.761363 279.278311 
L 142.455058 278.393324 
L 146.116479 277.162482 
L 152.173059 275.298829 
L 160.45541 271.896375 
L 164.776459 269.076065 
L 171.869136 265.039263 
L 174.986109 262.6428 
L 181.902649 252.201758 
L 184.963615 254.178208 
L 191.47346 246.481916 
L 197.802978 237.570064 
L 203.944661 225.502197 
L 207.364803 221.82688 
L 214.002271 206.984754 
" clip-path="url(#p4d62003953)" style="fill: none; stroke: #e59c00; stroke-width: 2.5; stroke-linecap: round"/>
   </g>
   <g id="patch_3">
    <path d="M 78.69 292.74 
L 78.69 25.2 
" style="fill: none; stroke: #262626; stroke-width: 1.875; stroke-linejoin: miter; stroke-linecap: square"/>
   </g>
   <g id="patch_4">
    <path d="M 78.69 292.74 
L 217.057015 292.74 
" style="fill: none; stroke: #262626; stroke-width: 1.875; stroke-linejoin: miter; stroke-linecap: square"/>
   </g>
  </g>
  <g id="axes_2">
   <g id="patch_5">
    <path d="M 290.032985 292.74 
L 428.4 292.74 
L 428.4 25.2 
L 290.032985 25.2 
z
" style="fill: #ffffff"/>
   </g>
   <g id="matplotlib.axis_3">
    <g id="xtick_3">
     <g id="line2d_14">
      <g>
       <use xlink:href="#mdeead1e387" x="290.032985" y="292.74" style="fill: #1a1a1a; stroke: #1a1a1a; stroke-width: 1.875"/>
      </g>
     </g>
     <g id="text_8">
      <!-- 0.00 -->
      <g style="fill: #1a1a1a" transform="translate(273.977711 317.050391)scale(0.165 -0.165)">
       <use xlink:href="#ArialMT-30"/>
       <use xlink:href="#ArialMT-2e" x="55.615234"/>
       <use xlink:href="#ArialMT-30" x="83.398438"/>
       <use xlink:href="#ArialMT-30" x="139.013672"/>
      </g>
     </g>
    </g>
    <g id="xtick_4">
     <g id="line2d_15">
      <g>
       <use xlink:href="#mdeead1e387" x="419.752062" y="292.74" style="fill: #1a1a1a; stroke: #1a1a1a; stroke-width: 1.875"/>
      </g>
     </g>
     <g id="text_9">
      <!-- 0.15 -->
      <g style="fill: #1a1a1a" transform="translate(403.696788 317.050391)scale(0.165 -0.165)">
       <use xlink:href="#ArialMT-30"/>
       <use xlink:href="#ArialMT-2e" x="55.615234"/>
       <use xlink:href="#ArialMT-31" x="83.398438"/>
       <use xlink:href="#ArialMT-35" x="139.013672"/>
      </g>
     </g>
    </g>
    <g id="text_10">
     <!-- Gain -->
     <g style="fill: #262626" transform="translate(340.206805 337.213828)scale(0.18 -0.18)">
      <use xlink:href="#ArialMT-47"/>
      <use xlink:href="#ArialMT-61" x="77.783203"/>
      <use xlink:href="#ArialMT-69" x="133.398438"/>
      <use xlink:href="#ArialMT-6e" x="155.615234"/>
     </g>
    </g>
   </g>
   <g id="matplotlib.axis_4">
    <g id="ytick_4">
     <g id="line2d_16">
      <g>
       <use xlink:href="#m09e058edb8" x="290.032985" y="279.671302" style="fill: #1a1a1a; stroke: #1a1a1a; stroke-width: 1.875"/>
      </g>
     </g>
     <g id="text_11">
      <!-- 0 -->
      <g style="fill: #1a1a1a" transform="translate(268.357438 285.576497)scale(0.165 -0.165)">
       <use xlink:href="#ArialMT-30"/>
      </g>
     </g>
    </g>
    <g id="ytick_5">
     <g id="line2d_17">
      <g>
       <use xlink:href="#m09e058edb8" x="290.032985" y="159.920101" style="fill: #1a1a1a; stroke: #1a1a1a; stroke-width: 1.875"/>
      </g>
     </g>
     <g id="text_12">
      <!-- 40 -->
      <g style="fill: #1a1a1a" transform="translate(259.181891 165.825296)scale(0.165 -0.165)">
       <use xlink:href="#ArialMT-34"/>
       <use xlink:href="#ArialMT-30" x="55.615234"/>
      </g>
     </g>
    </g>
    <g id="ytick_6">
     <g id="line2d_18">
      <g>
       <use xlink:href="#m09e058edb8" x="290.032985" y="25.2" style="fill: #1a1a1a; stroke: #1a1a1a; stroke-width: 1.875"/>
      </g>
     </g>
     <g id="text_13">
      <!-- 85 -->
      <g style="fill: #1a1a1a" transform="translate(259.181891 31.105195)scale(0.165 -0.165)">
       <use xlink:href="#ArialMT-38"/>
       <use xlink:href="#ArialMT-35" x="55.615234"/>
      </g>
     </g>
    </g>
    <g id="text_14">
     <!-- $||W_2 W_2^T-\~U^T\~S\~U||_F^2$ -->
     <g style="fill: #262626" transform="translate(250.141891 236.37)rotate(-90)scale(0.18 -0.18)">
      <defs>
       <path id="DejaVuSans-Oblique-55" d="M 991 4666 
L 1625 4666 
L 1075 1831 
Q 1041 1641 1027 1517 
Q 1013 1394 1013 1300 
Q 1013 869 1253 645 
Q 1494 422 1959 422 
Q 2563 422 2898 753 
Q 3234 1084 3378 1831 
L 3928 4666 
L 4563 4666 
L 4000 1753 
Q 3816 809 3300 359 
Q 2784 -91 1888 -91 
Q 1188 -91 780 261 
Q 372 613 372 1216 
Q 372 1325 387 1461 
Q 403 1597 434 1753 
L 991 4666 
z
" transform="scale(0.015625)"/>
      </defs>
      <use xlink:href="#DejaVuSans-7c" transform="translate(0 0.515625)"/>
      <use xlink:href="#DejaVuSans-7c" transform="translate(33.691406 0.515625)"/>
      <use xlink:href="#DejaVuSans-Oblique-57" transform="translate(67.382812 0.515625)"/>
      <use xlink:href="#DejaVuSans-32" transform="translate(166.259766 -15.890625)scale(0.7)"/>
      <use xlink:href="#DejaVuSans-Oblique-57" transform="translate(213.530273 0.515625)"/>
      <use xlink:href="#DejaVuSans-Oblique-54" transform="translate(319.423997 38.796875)scale(0.7)"/>
      <use xlink:href="#DejaVuSans-32" transform="translate(312.407227 -26.828125)scale(0.7)"/>
      <use xlink:href="#DejaVuSans-2212" transform="translate(384.399583 0.515625)"/>
      <use xlink:href="#DejaVuSans-303" transform="translate(553.257005 22)"/>
      <use xlink:href="#DejaVuSans-Oblique-55" transform="translate(487.671068 0.515625)"/>
      <use xlink:href="#DejaVuSans-Oblique-54" transform="translate(561.821458 38.796875)scale(0.7)"/>
      <use xlink:href="#DejaVuSans-303" transform="translate(669.459154 23.3125)"/>
      <use xlink:href="#DejaVuSans-Oblique-53" transform="translate(607.314622 0.515625)"/>
      <use xlink:href="#DejaVuSans-303" transform="translate(736.377122 22)"/>
      <use xlink:href="#DejaVuSans-Oblique-55" transform="translate(670.791185 0.515625)"/>
      <use xlink:href="#DejaVuSans-7c" transform="translate(743.984544 0.515625)"/>
      <use xlink:href="#DejaVuSans-7c" transform="translate(777.675951 0.515625)"/>
      <use xlink:href="#DejaVuSans-32" transform="translate(812.324388 38.796875)scale(0.7)"/>
      <use xlink:href="#DejaVuSans-Oblique-46" transform="translate(812.324388 -26.828125)scale(0.7)"/>
     </g>
    </g>
   </g>
   <g id="PolyCollection_9">
    <defs>
     <path id="mbca236a73b" d="M 294.181832 -80.328702 
L 294.181832 -80.328702 
L 317.436543 -80.329819 
L 328.471628 -80.33205 
L 336.42736 -80.334634 
L 344.568825 -80.338174 
L 350.550316 -80.340983 
L 356.32589 -80.347288 
L 361.416385 -80.349191 
L 366.4199 -80.354951 
L 371.254625 -80.360164 
L 374.916558 -80.360105 
L 380.42379 -80.364958 
L 383.73752 -80.370033 
L 386.486007 -80.374261 
L 392.252317 -80.38124 
L 393.818696 -80.379977 
L 398.413665 -80.389749 
L 401.060989 -80.399479 
L 404.182644 -80.398573 
L 407.314962 -80.408536 
L 409.599134 -80.402867 
L 413.389476 -81.904889 
L 416.320287 -80.422108 
L 419.979469 -80.426613 
L 422.055919 -80.434162 
L 422.055919 -80.387712 
L 422.055919 -80.387712 
L 419.979469 -80.377918 
L 416.320287 -80.379249 
L 413.389476 -79.23593 
L 409.599134 -80.370726 
L 407.314962 -80.374444 
L 404.182644 -80.368996 
L 401.060989 -80.361977 
L 398.413665 -80.362872 
L 393.818696 -80.359512 
L 392.252317 -80.356808 
L 386.486007 -80.353713 
L 383.73752 -80.348959 
L 380.42379 -80.350316 
L 374.916558 -80.346768 
L 371.254625 -80.34289 
L 366.4199 -80.341822 
L 361.416385 -80.338997 
L 356.32589 -80.337383 
L 350.550316 -80.334692 
L 344.568825 -80.333913 
L 336.42736 -80.332115 
L 328.471628 -80.330492 
L 317.436543 -80.329273 
L 294.181832 -80.328702 
z
" style="stroke: #d65c00; stroke-opacity: 0.2; stroke-width: 1.5"/>
    </defs>
    <g clip-path="url(#p03c983de4c)">
     <use xlink:href="#mbca236a73b" x="0" y="360" style="fill: #d65c00; fill-opacity: 0.2; stroke: #d65c00; stroke-opacity: 0.2; stroke-width: 1.5"/>
    </g>
   </g>
   <g id="PolyCollection_10">
    <defs>
     <path id="mb77263dd3f" d="M 292.694149 -80.328705 
L 292.694149 -80.32871 
L 298.356198 -80.329564 
L 303.75316 -80.335424 
L 309.515418 -80.356106 
L 315.098683 -80.400874 
L 320.539134 -80.496121 
L 326.1348 -80.635058 
L 331.199833 -80.898619 
L 336.626208 -81.289227 
L 342.818967 -81.823241 
L 348.966482 -82.904336 
L 353.785031 -84.104033 
L 359.175926 -85.611001 
L 364.897671 -87.925723 
L 369.284325 -88.822918 
L 375.026215 -93.400537 
L 382.23774 -96.085443 
L 386.101167 -99.892097 
L 392.007481 -107.331299 
L 398.513542 -111.626655 
L 404.248565 -121.889387 
L 409.427071 -138.027913 
L 413.481398 -146.596614 
L 419.82252 -160.209557 
L 425.641474 -170.98175 
L 425.641474 -115.592713 
L 425.641474 -115.592713 
L 419.82252 -107.395205 
L 413.481398 -104.122922 
L 409.427071 -96.247756 
L 404.248565 -97.836084 
L 398.513542 -93.470758 
L 392.007481 -90.810921 
L 386.101167 -88.847359 
L 382.23774 -88.078488 
L 375.026215 -85.122071 
L 369.284325 -85.066794 
L 364.897671 -83.989054 
L 359.175926 -82.759013 
L 353.785031 -81.812155 
L 348.966482 -81.470044 
L 342.818967 -81.177551 
L 336.626208 -80.858512 
L 331.199833 -80.626172 
L 326.1348 -80.492053 
L 320.539134 -80.409435 
L 315.098683 -80.362253 
L 309.515418 -80.342025 
L 303.75316 -80.332394 
L 298.356198 -80.329109 
L 292.694149 -80.328705 
z
" style="stroke: #d65c00; stroke-opacity: 0.2; stroke-width: 1.5"/>
    </defs>
    <g clip-path="url(#p03c983de4c)">
     <use xlink:href="#mb77263dd3f" x="0" y="360" style="fill: #d65c00; fill-opacity: 0.2; stroke: #d65c00; stroke-opacity: 0.2; stroke-width: 1.5"/>
    </g>
   </g>
   <g id="PolyCollection_11">
    <defs>
     <path id="mb4328c5518" d="M 294.05898 -80.328696 
L 294.05898 -80.328703 
L 316.234735 -80.328709 
L 327.276846 -80.328715 
L 335.015135 -80.328711 
L 342.0795 -80.328717 
L 348.347151 -80.328714 
L 354.232644 -80.328717 
L 357.832392 -80.328721 
L 363.391005 -80.328723 
L 368.654556 -80.328729 
L 373.024502 -80.328733 
L 376.822729 -80.328735 
L 380.013208 -80.328736 
L 384.14141 -80.328741 
L 386.859673 -80.328745 
L 391.053781 -80.328761 
L 394.828697 -80.32876 
L 396.752671 -80.328773 
L 400.573769 -80.328775 
L 402.757571 -80.328791 
L 406.599075 -80.328791 
L 407.23161 -80.328803 
L 412.545706 -80.328827 
L 413.713773 -80.328827 
L 417.864613 -80.328853 
L 417.864613 -80.32875 
L 417.864613 -80.32875 
L 413.713773 -80.328742 
L 412.545706 -80.328735 
L 407.23161 -80.328734 
L 406.599075 -80.328732 
L 402.757571 -80.328731 
L 400.573769 -80.328724 
L 396.752671 -80.328719 
L 394.828697 -80.328717 
L 391.053781 -80.328713 
L 386.859673 -80.328716 
L 384.14141 -80.328713 
L 380.013208 -80.328711 
L 376.822729 -80.328709 
L 373.024502 -80.328708 
L 368.654556 -80.328704 
L 363.391005 -80.328704 
L 357.832392 -80.328702 
L 354.232644 -80.328701 
L 348.347151 -80.3287 
L 342.0795 -80.328698 
L 335.015135 -80.328697 
L 327.276846 -80.328697 
L 316.234735 -80.328695 
L 294.05898 -80.328696 
z
" style="stroke: #0071b2; stroke-opacity: 0.2; stroke-width: 1.5"/>
    </defs>
    <g clip-path="url(#p03c983de4c)">
     <use xlink:href="#mb4328c5518" x="0" y="360" style="fill: #0071b2; fill-opacity: 0.2; stroke: #0071b2; stroke-opacity: 0.2; stroke-width: 1.5"/>
    </g>
   </g>
   <g id="PolyCollection_12">
    <defs>
     <path id="mc43f88dc79" d="M 292.706253 -80.328702 
L 292.706253 -80.328707 
L 298.306197 -80.329516 
L 303.666231 -80.336954 
L 309.451148 -80.376871 
L 314.899413 -80.489028 
L 320.034853 -80.685621 
L 325.3643 -80.971569 
L 331.980941 -81.73699 
L 337.471105 -82.887942 
L 342.309472 -84.165173 
L 348.304616 -86.207672 
L 353.433458 -88.416859 
L 361.416168 -94.718731 
L 364.268197 -97.284478 
L 370.500186 -102.855406 
L 375.318989 -109.144271 
L 380.73692 -118.613581 
L 385.698412 -127.398909 
L 393.463383 -142.894489 
L 397.649524 -155.031865 
L 403.946051 -165.078249 
L 408.282792 -183.570376 
L 416.379951 -210.3003 
L 419.013114 -230.86487 
L 425.949558 -257.194587 
L 425.949558 -147.733253 
L 425.949558 -147.733253 
L 419.013114 -129.821838 
L 416.379951 -125.052909 
L 408.282792 -121.39304 
L 403.946051 -118.328825 
L 397.649524 -107.976598 
L 393.463383 -104.382394 
L 385.698412 -99.64514 
L 380.73692 -94.015043 
L 375.318989 -91.38864 
L 370.500186 -89.785419 
L 364.268197 -86.241962 
L 361.416168 -86.129041 
L 353.433458 -83.296207 
L 348.304616 -82.406878 
L 342.309472 -81.879131 
L 337.471105 -81.221397 
L 331.980941 -80.904331 
L 325.3643 -80.563125 
L 320.034853 -80.43462 
L 314.899413 -80.358656 
L 309.451148 -80.343568 
L 303.666231 -80.331947 
L 298.306197 -80.329011 
L 292.706253 -80.328702 
z
" style="stroke: #0071b2; stroke-opacity: 0.2; stroke-width: 1.5"/>
    </defs>
    <g clip-path="url(#p03c983de4c)">
     <use xlink:href="#mc43f88dc79" x="0" y="360" style="fill: #0071b2; fill-opacity: 0.2; stroke: #0071b2; stroke-opacity: 0.2; stroke-width: 1.5"/>
    </g>
   </g>
   <g id="PolyCollection_13">
    <defs>
     <path id="ma4935ae5c9" d="M 294.161864 -80.328698 
L 294.161864 -80.328698 
L 317.437082 -80.328699 
L 328.260943 -80.3287 
L 336.608151 -80.328702 
L 344.216937 -80.328703 
L 349.729049 -80.328705 
L 356.137637 -80.328707 
L 359.411189 -80.328709 
L 365.448836 -80.32871 
L 369.838253 -80.328715 
L 374.9452 -80.328719 
L 377.759106 -80.328719 
L 382.935699 -80.328724 
L 387.110374 -80.328729 
L 390.122241 -80.32873 
L 393.604771 -80.328746 
L 396.857376 -80.328745 
L 399.290384 -80.328751 
L 403.121612 -80.328769 
L 407.172808 -80.328772 
L 410.409993 -80.328787 
L 412.167506 -80.328774 
L 412.979962 -80.328789 
L 418.615586 -80.328808 
L 421.547871 -80.328818 
L 421.547871 -80.328727 
L 421.547871 -80.328727 
L 418.615586 -80.328726 
L 412.979962 -80.328718 
L 412.167506 -80.328722 
L 410.409993 -80.328721 
L 407.172808 -80.328714 
L 403.121612 -80.328714 
L 399.290384 -80.32871 
L 396.857376 -80.328711 
L 393.604771 -80.328712 
L 390.122241 -80.328708 
L 387.110374 -80.328708 
L 382.935699 -80.328707 
L 377.759106 -80.328706 
L 374.9452 -80.328704 
L 369.838253 -80.328703 
L 365.448836 -80.328703 
L 359.411189 -80.328701 
L 356.137637 -80.328701 
L 349.729049 -80.3287 
L 344.216937 -80.3287 
L 336.608151 -80.3287 
L 328.260943 -80.328699 
L 317.437082 -80.328699 
L 294.161864 -80.328698 
z
" style="stroke: #cc78a6; stroke-opacity: 0.2; stroke-width: 1.5"/>
    </defs>
    <g clip-path="url(#p03c983de4c)">
     <use xlink:href="#ma4935ae5c9" x="0" y="360" style="fill: #cc78a6; fill-opacity: 0.2; stroke: #cc78a6; stroke-opacity: 0.2; stroke-width: 1.5"/>
    </g>
   </g>
   <g id="PolyCollection_14">
    <defs>
     <path id="maf62fb9053" d="M 292.754472 -80.328701 
L 292.754472 -80.328704 
L 298.250697 -80.329204 
L 303.624169 -80.333519 
L 309.584661 -80.352951 
L 314.81937 -80.39787 
L 320.251999 -80.533254 
L 325.842749 -80.782845 
L 330.475599 -81.073219 
L 337.372609 -81.755173 
L 342.590333 -83.103487 
L 347.318092 -83.658019 
L 351.920458 -85.387831 
L 358.076087 -86.983294 
L 362.613591 -89.91207 
L 369.786937 -93.477375 
L 373.670091 -97.298456 
L 381.763169 -105.31418 
L 386.496195 -116.549303 
L 391.426668 -113.659359 
L 395.825064 -121.874899 
L 401.66039 -142.22121 
L 407.20825 -152.537342 
L 411.329612 -149.396698 
L 420.071047 -179.549975 
L 425.240963 -188.254481 
L 425.240963 -116.989213 
L 425.240963 -116.989213 
L 420.071047 -107.394282 
L 411.329612 -102.304594 
L 407.20825 -95.93217 
L 401.66039 -96.466799 
L 395.825064 -90.804385 
L 391.426668 -92.223182 
L 386.496195 -88.133882 
L 381.763169 -87.130176 
L 373.670091 -85.075187 
L 369.786937 -84.843345 
L 362.613591 -83.344281 
L 358.076087 -82.682418 
L 351.920458 -81.540798 
L 347.318092 -81.464756 
L 342.590333 -80.809544 
L 337.372609 -80.80419 
L 330.475599 -80.502263 
L 325.842749 -80.40573 
L 320.251999 -80.354423 
L 314.81937 -80.350713 
L 309.584661 -80.335906 
L 303.624169 -80.329601 
L 298.250697 -80.328866 
L 292.754472 -80.328701 
z
" style="stroke: #009e73; stroke-opacity: 0.2; stroke-width: 1.5"/>
    </defs>
    <g clip-path="url(#p03c983de4c)">
     <use xlink:href="#maf62fb9053" x="0" y="360" style="fill: #009e73; fill-opacity: 0.2; stroke: #009e73; stroke-opacity: 0.2; stroke-width: 1.5"/>
    </g>
   </g>
   <g id="PolyCollection_15">
    <defs>
     <path id="m8b9312620d" d="M 293.552399 -80.32867 
L 293.552399 -80.328765 
L 312.679873 -80.328739 
L 322.224852 -80.328745 
L 329.002829 -80.328815 
L 335.10231 -80.328816 
L 341.228968 -80.3288 
L 345.618947 -80.328854 
L 349.600487 -80.328759 
L 354.019851 -80.328783 
L 358.072668 -80.328755 
L 360.167552 -80.32876 
L 365.836892 -80.328851 
L 369.029115 -80.32883 
L 370.40401 -80.328775 
L 375.18016 -80.328768 
L 377.476793 -80.328743 
L 379.627363 -80.328788 
L 383.908055 -80.328811 
L 386.278128 -80.328797 
L 387.754898 -80.328791 
L 391.090256 -80.328861 
L 394.152005 -80.328883 
L 396.533103 -80.328846 
L 398.299398 -80.32878 
L 398.800065 -80.328846 
L 398.800065 -80.328702 
L 398.800065 -80.328702 
L 398.299398 -80.328718 
L 396.533103 -80.328712 
L 394.152005 -80.328667 
L 391.090256 -80.328666 
L 387.754898 -80.328693 
L 386.278128 -80.328695 
L 383.908055 -80.328668 
L 379.627363 -80.328684 
L 377.476793 -80.328709 
L 375.18016 -80.328685 
L 370.40401 -80.32868 
L 369.029115 -80.328641 
L 365.836892 -80.32864 
L 360.167552 -80.328676 
L 358.072668 -80.328686 
L 354.019851 -80.328648 
L 349.600487 -80.328672 
L 345.618947 -80.328623 
L 341.228968 -80.328643 
L 335.10231 -80.328631 
L 329.002829 -80.328626 
L 322.224852 -80.328673 
L 312.679873 -80.328673 
L 293.552399 -80.32867 
z
" style="stroke: #e59c00; stroke-opacity: 0.2; stroke-width: 1.5"/>
    </defs>
    <g clip-path="url(#p03c983de4c)">
     <use xlink:href="#m8b9312620d" x="0" y="360" style="fill: #e59c00; fill-opacity: 0.2; stroke: #e59c00; stroke-opacity: 0.2; stroke-width: 1.5"/>
    </g>
   </g>
   <g id="PolyCollection_16">
    <defs>
     <path id="md1c1adbec5" d="M 292.784643 -80.328692 
L 292.784643 -80.328743 
L 298.185062 -80.329747 
L 303.781189 -80.342094 
L 309.615644 -80.395683 
L 315.065446 -80.512213 
L 320.436 -80.769706 
L 326.121714 -81.293646 
L 331.619757 -82.116474 
L 337.491321 -83.547416 
L 341.954943 -84.700774 
L 348.752166 -87.937907 
L 353.746168 -91.252755 
L 359.868979 -95.716443 
L 364.306461 -101.560748 
L 371.244976 -106.404761 
L 376.329443 -119.301799 
L 380.414244 -124.963781 
L 386.172896 -137.781261 
L 391.692009 -146.55725 
L 397.650256 -167.742604 
L 401.404116 -175.654871 
L 408.622311 -200.588308 
L 414.190204 -222.617182 
L 419.394291 -250.186189 
L 427.993739 -318.754533 
L 427.993739 -172.097177 
L 427.993739 -172.097177 
L 419.394291 -156.993582 
L 414.190204 -145.894887 
L 408.622311 -134.351282 
L 401.404116 -119.484076 
L 397.650256 -113.729717 
L 391.692009 -109.792738 
L 386.172896 -101.849234 
L 380.414244 -96.555218 
L 376.329443 -94.361729 
L 371.244976 -92.034746 
L 364.306461 -87.752896 
L 359.868979 -86.119333 
L 353.746168 -84.260933 
L 348.752166 -83.280327 
L 341.954943 -82.013044 
L 337.491321 -81.456505 
L 331.619757 -80.960001 
L 326.121714 -80.705814 
L 320.436 -80.51603 
L 315.065446 -80.398279 
L 309.615644 -80.3493 
L 303.781189 -80.332425 
L 298.185062 -80.329069 
L 292.784643 -80.328692 
z
" style="stroke: #e59c00; stroke-opacity: 0.2; stroke-width: 1.5"/>
    </defs>
    <g clip-path="url(#p03c983de4c)">
     <use xlink:href="#md1c1adbec5" x="0" y="360" style="fill: #e59c00; fill-opacity: 0.2; stroke: #e59c00; stroke-opacity: 0.2; stroke-width: 1.5"/>
    </g>
   </g>
   <g id="line2d_19">
    <path d="M 294.181832 279.671298 
L 317.436543 279.670454 
L 328.471628 279.668729 
L 336.42736 279.666625 
L 344.568825 279.663957 
L 350.550316 279.662163 
L 356.32589 279.657665 
L 361.416385 279.655906 
L 366.4199 279.651613 
L 371.254625 279.648473 
L 374.916558 279.646563 
L 380.42379 279.642363 
L 383.73752 279.640504 
L 386.486007 279.636013 
L 392.252317 279.630976 
L 393.818696 279.630256 
L 398.413665 279.623689 
L 401.060989 279.619272 
L 404.182644 279.616215 
L 407.314962 279.60851 
L 409.599134 279.613203 
L 413.389476 279.429591 
L 416.320287 279.599321 
L 419.979469 279.597735 
L 422.055919 279.589063 
" clip-path="url(#p03c983de4c)" style="fill: none; stroke-dasharray: 2.5,5; stroke-dashoffset: 0; stroke: #d65c00; stroke-width: 2.5"/>
   </g>
   <g id="line2d_20">
    <path d="M 292.694149 279.671293 
L 298.356198 279.670664 
L 303.75316 279.666091 
L 309.515418 279.650934 
L 315.098683 279.618437 
L 320.539134 279.547222 
L 326.1348 279.436444 
L 331.199833 279.237605 
L 336.626208 278.926131 
L 342.818967 278.499604 
L 348.966482 277.81281 
L 353.785031 277.041906 
L 359.175926 275.814993 
L 364.897671 274.042611 
L 369.284325 273.055144 
L 375.026215 270.738696 
L 382.23774 267.918035 
L 386.101167 265.630272 
L 392.007481 260.92889 
L 398.513542 257.451293 
L 404.248565 250.137264 
L 409.427071 242.862166 
L 413.481398 234.640232 
L 419.82252 226.197619 
L 425.641474 216.712769 
" clip-path="url(#p03c983de4c)" style="fill: none; stroke: #d65c00; stroke-width: 2.5; stroke-linecap: round"/>
   </g>
   <g id="line2d_21">
    <path d="M 294.05898 279.671301 
L 316.234735 279.671298 
L 327.276846 279.671294 
L 335.015135 279.671296 
L 342.0795 279.671293 
L 348.347151 279.671293 
L 354.232644 279.671291 
L 357.832392 279.671288 
L 363.391005 279.671286 
L 368.654556 279.671283 
L 373.024502 279.67128 
L 376.822729 279.671278 
L 380.013208 279.671277 
L 384.14141 279.671273 
L 386.859673 279.671269 
L 391.053781 279.671263 
L 394.828697 279.671262 
L 396.752671 279.671254 
L 400.573769 279.67125 
L 402.757571 279.671239 
L 406.599075 279.671239 
L 407.23161 279.671232 
L 412.545706 279.671219 
L 413.713773 279.671215 
L 417.864613 279.671198 
" clip-path="url(#p03c983de4c)" style="fill: none; stroke-dasharray: 2.5,7.5; stroke-dashoffset: 0; stroke: #0071b2; stroke-width: 2.5"/>
   </g>
   <g id="line2d_22">
    <path d="M 292.706253 279.671295 
L 298.306197 279.670736 
L 303.666231 279.665549 
L 309.451148 279.63978 
L 314.899413 279.576158 
L 320.034853 279.439879 
L 325.3643 279.232653 
L 331.980941 278.67934 
L 337.471105 277.945331 
L 342.309472 276.977848 
L 348.304616 275.692725 
L 353.433458 274.143467 
L 361.416168 269.576114 
L 364.268197 268.23678 
L 370.500186 263.679587 
L 375.318989 259.733544 
L 380.73692 253.685688 
L 385.698412 246.477976 
L 393.463383 236.361558 
L 397.649524 228.495769 
L 403.946051 218.296463 
L 408.282792 207.518292 
L 416.379951 192.323396 
L 419.013114 179.656646 
L 425.949558 157.53608 
" clip-path="url(#p03c983de4c)" style="fill: none; stroke: #0071b2; stroke-width: 2.5; stroke-linecap: round"/>
   </g>
   <g id="line2d_23">
    <path d="M 294.161864 279.671302 
L 317.437082 279.671301 
L 328.260943 279.6713 
L 336.608151 279.671299 
L 344.216937 279.671299 
L 349.729049 279.671298 
L 356.137637 279.671296 
L 359.411189 279.671295 
L 365.448836 279.671294 
L 369.838253 279.671291 
L 374.9452 279.671288 
L 377.759106 279.671287 
L 382.935699 279.671284 
L 387.110374 279.671282 
L 390.122241 279.671281 
L 393.604771 279.671271 
L 396.857376 279.671272 
L 399.290384 279.671269 
L 403.121612 279.671259 
L 407.172808 279.671257 
L 410.409993 279.671246 
L 412.167506 279.671252 
L 412.979962 279.671247 
L 418.615586 279.671233 
L 421.547871 279.671227 
" clip-path="url(#p03c983de4c)" style="fill: none; stroke-dasharray: 2.5,10; stroke-dashoffset: 0; stroke: #009e73; stroke-width: 2.5"/>
   </g>
   <g id="line2d_24">
    <path d="M 292.754472 279.671297 
L 298.250697 279.670965 
L 303.624169 279.66844 
L 309.584661 279.655571 
L 314.81937 279.625709 
L 320.251999 279.556161 
L 325.842749 279.405713 
L 330.475599 279.212259 
L 337.372609 278.720318 
L 342.590333 278.043485 
L 347.318092 277.438613 
L 351.920458 276.535685 
L 358.076087 275.167144 
L 362.613591 273.371825 
L 369.786937 270.83964 
L 373.670091 268.813179 
L 381.763169 263.777822 
L 386.496195 257.658407 
L 391.426668 257.058729 
L 395.825064 253.660358 
L 401.66039 240.655995 
L 407.20825 235.765244 
L 411.329612 234.149354 
L 420.071047 216.527871 
L 425.240963 207.378153 
" clip-path="url(#p03c983de4c)" style="fill: none; stroke: #009e73; stroke-width: 2.5; stroke-linecap: round"/>
   </g>
   <g id="line2d_25">
    <path d="M 293.552399 279.671282 
L 312.679873 279.671294 
L 322.224852 279.671291 
L 329.002829 279.67128 
L 335.10231 279.671276 
L 341.228968 279.671278 
L 345.618947 279.671262 
L 349.600487 279.671285 
L 354.019851 279.671284 
L 358.072668 279.671279 
L 360.167552 279.671282 
L 365.836892 279.671255 
L 369.029115 279.671265 
L 370.40401 279.671272 
L 375.18016 279.671274 
L 377.476793 279.671274 
L 379.627363 279.671264 
L 383.908055 279.67126 
L 386.278128 279.671254 
L 387.754898 279.671258 
L 391.090256 279.671237 
L 394.152005 279.671225 
L 396.533103 279.671221 
L 398.299398 279.671251 
L 398.800065 279.671226 
" clip-path="url(#p03c983de4c)" style="fill: none; stroke-dasharray: 2.5,12.5; stroke-dashoffset: 0; stroke: #e59c00; stroke-width: 2.5"/>
   </g>
   <g id="line2d_26">
    <path d="M 292.784643 279.671283 
L 298.185062 279.670592 
L 303.781189 279.662741 
L 309.615644 279.627509 
L 315.065446 279.544754 
L 320.436 279.357132 
L 326.121714 279.00027 
L 331.619757 278.461763 
L 337.491321 277.498039 
L 341.954943 276.643091 
L 348.752166 274.390883 
L 353.746168 272.243156 
L 359.868979 269.082112 
L 364.306461 265.343178 
L 371.244976 260.780246 
L 376.329443 253.168236 
L 380.414244 249.240501 
L 386.172896 240.184752 
L 391.692009 231.825006 
L 397.650256 219.263839 
L 401.404116 212.430526 
L 408.622311 192.530205 
L 414.190204 175.743965 
L 419.394291 156.410115 
L 427.993739 114.574145 
" clip-path="url(#p03c983de4c)" style="fill: none; stroke: #e59c00; stroke-width: 2.5; stroke-linecap: round"/>
   </g>
   <g id="patch_6">
    <path d="M 290.032985 292.74 
L 290.032985 25.2 
" style="fill: none; stroke: #262626; stroke-width: 1.875; stroke-linejoin: miter; stroke-linecap: square"/>
   </g>
   <g id="patch_7">
    <path d="M 290.032985 292.74 
L 428.4 292.74 
" style="fill: none; stroke: #262626; stroke-width: 1.875; stroke-linejoin: miter; stroke-linecap: square"/>
   </g>
  </g>
 </g>
 <defs>
  <clipPath id="p4d62003953">
   <rect x="78.69" y="25.2" width="138.367015" height="267.54"/>
  </clipPath>
  <clipPath id="p03c983de4c">
   <rect x="290.032985" y="25.2" width="138.367015" height="267.54"/>
  </clipPath>
 </defs>
</svg>
